%TF.GenerationSoftware,KiCad,Pcbnew,7.0.5-0*%
%TF.CreationDate,2023-07-31T19:13:05-04:00*%
%TF.ProjectId,mula,6d756c61-2e6b-4696-9361-645f70636258,rev?*%
%TF.SameCoordinates,Original*%
%TF.FileFunction,Legend,Bot*%
%TF.FilePolarity,Positive*%
%FSLAX46Y46*%
G04 Gerber Fmt 4.6, Leading zero omitted, Abs format (unit mm)*
G04 Created by KiCad (PCBNEW 7.0.5-0) date 2023-07-31 19:13:05*
%MOMM*%
%LPD*%
G01*
G04 APERTURE LIST*
G04 APERTURE END LIST*
%TO.C,G\u002A\u002A\u002A*%
G36*
X139123371Y-97140124D02*
G01*
X139079340Y-97464556D01*
X138937163Y-97792253D01*
X138688090Y-98151916D01*
X138589898Y-98267664D01*
X138236710Y-98590165D01*
X137841452Y-98834873D01*
X137441043Y-98977350D01*
X137015047Y-99022096D01*
X136518169Y-98967534D01*
X136043270Y-98808693D01*
X135613875Y-98556685D01*
X135253509Y-98222622D01*
X134985697Y-97817615D01*
X134911350Y-97655885D01*
X134851988Y-97470204D01*
X134833120Y-97273733D01*
X134841809Y-97069221D01*
X136145562Y-97069221D01*
X136160220Y-97219321D01*
X136254859Y-97382114D01*
X136412454Y-97519170D01*
X136733934Y-97660834D01*
X137059933Y-97687755D01*
X137362147Y-97588070D01*
X137633035Y-97362745D01*
X137838369Y-97128882D01*
X137716475Y-96922147D01*
X137667952Y-96844214D01*
X137586012Y-96759859D01*
X137470333Y-96730627D01*
X137272917Y-96736423D01*
X137035472Y-96762696D01*
X136760267Y-96812031D01*
X136501158Y-96874265D01*
X136296036Y-96940212D01*
X136182789Y-97000687D01*
X136145562Y-97069221D01*
X134841809Y-97069221D01*
X134844438Y-97007331D01*
X134872441Y-96787023D01*
X135008477Y-96377175D01*
X135247570Y-96047233D01*
X135588424Y-95798700D01*
X136029745Y-95633078D01*
X136040951Y-95630236D01*
X136228489Y-95567759D01*
X136333236Y-95480575D01*
X136400239Y-95332086D01*
X136507892Y-95135652D01*
X136719706Y-94962530D01*
X136993912Y-94870607D01*
X137302862Y-94868238D01*
X137618906Y-94963780D01*
X137658795Y-94983860D01*
X137942654Y-95180400D01*
X138241237Y-95463946D01*
X138529834Y-95802986D01*
X138783733Y-96166011D01*
X138978226Y-96521509D01*
X139088602Y-96837968D01*
X139122077Y-97128882D01*
X139123371Y-97140124D01*
G37*
G36*
X144162050Y-98260974D02*
G01*
X144145889Y-98460560D01*
X144099590Y-98628821D01*
X144015305Y-98813594D01*
X143926182Y-98957230D01*
X143784385Y-99144636D01*
X143619184Y-99339408D01*
X143455754Y-99513390D01*
X143319270Y-99638427D01*
X143234910Y-99686363D01*
X143190768Y-99699078D01*
X143053009Y-99745629D01*
X142858001Y-99814598D01*
X142585063Y-99893633D01*
X142128622Y-99948365D01*
X141695117Y-99909515D01*
X141319461Y-99777915D01*
X141256501Y-99742433D01*
X140933278Y-99505048D01*
X140611033Y-99189829D01*
X140325212Y-98834902D01*
X140111262Y-98478394D01*
X140004238Y-98227814D01*
X139939726Y-97964542D01*
X139928149Y-97759859D01*
X141257676Y-97759859D01*
X141280700Y-97906453D01*
X141394590Y-98087125D01*
X141604181Y-98326509D01*
X141646025Y-98370688D01*
X141821515Y-98535064D01*
X141962417Y-98617522D01*
X142102219Y-98639077D01*
X142165854Y-98635871D01*
X142428277Y-98577041D01*
X142654440Y-98461347D01*
X142797485Y-98310907D01*
X142848055Y-98138925D01*
X142844215Y-97915919D01*
X142790625Y-97683149D01*
X142699425Y-97468593D01*
X142582754Y-97300231D01*
X142452752Y-97206041D01*
X142321558Y-97214004D01*
X142300675Y-97223823D01*
X142132448Y-97266502D01*
X141927961Y-97281960D01*
X141793591Y-97289159D01*
X141621399Y-97349440D01*
X141440532Y-97493017D01*
X141320679Y-97622712D01*
X141257676Y-97759859D01*
X139928149Y-97759859D01*
X139922256Y-97655671D01*
X139924878Y-97491167D01*
X139947452Y-97287723D01*
X140005641Y-97128454D01*
X140114283Y-96959565D01*
X140164583Y-96894037D01*
X140354536Y-96683236D01*
X140547391Y-96509023D01*
X140602754Y-96465212D01*
X140785596Y-96306562D01*
X140926649Y-96165395D01*
X140941163Y-96148773D01*
X141085788Y-95982760D01*
X141239142Y-95806269D01*
X141248227Y-95795812D01*
X141334610Y-95704260D01*
X141420339Y-95648323D01*
X141538221Y-95619540D01*
X141721066Y-95609448D01*
X142001682Y-95609583D01*
X142194092Y-95612140D01*
X142423386Y-95624368D01*
X142584936Y-95654147D01*
X142717564Y-95710133D01*
X142860089Y-95800983D01*
X142896685Y-95826969D01*
X143205789Y-96088924D01*
X143510942Y-96412223D01*
X143775685Y-96754787D01*
X143963559Y-97074538D01*
X144053248Y-97299385D01*
X144122087Y-97595159D01*
X144155029Y-97962129D01*
X144155925Y-97982226D01*
X144159368Y-98138925D01*
X144162050Y-98260974D01*
G37*
G36*
X135470888Y-79281653D02*
G01*
X135707328Y-79366551D01*
X136001108Y-79543253D01*
X136363592Y-79817439D01*
X136587981Y-79996531D01*
X136882151Y-80225929D01*
X137145860Y-80426534D01*
X137162658Y-80439077D01*
X137366499Y-80592168D01*
X137535868Y-80720847D01*
X137635578Y-80798393D01*
X137641463Y-80803122D01*
X137704190Y-80851283D01*
X137812436Y-80931531D01*
X137976308Y-81051191D01*
X138205913Y-81217593D01*
X138511358Y-81438064D01*
X138902750Y-81719931D01*
X139390195Y-82070523D01*
X139800797Y-82370470D01*
X140296029Y-82742074D01*
X140792379Y-83123535D01*
X141253578Y-83486943D01*
X141643357Y-83804389D01*
X142134192Y-84213674D01*
X142340949Y-83956393D01*
X142590119Y-83712830D01*
X142862648Y-83586323D01*
X143163515Y-83579831D01*
X143202893Y-83586810D01*
X143366298Y-83636370D01*
X143504162Y-83727881D01*
X143634369Y-83881411D01*
X143774805Y-84117027D01*
X143943357Y-84454797D01*
X144032620Y-84638820D01*
X144142957Y-84856360D01*
X144224514Y-85005064D01*
X144264154Y-85060142D01*
X144272612Y-85056909D01*
X144358355Y-84998660D01*
X144511137Y-84882433D01*
X144704780Y-84727966D01*
X144745145Y-84695435D01*
X144957341Y-84533305D01*
X145142485Y-84405109D01*
X145264372Y-84336192D01*
X145330166Y-84315543D01*
X145570342Y-84282359D01*
X145852857Y-84282185D01*
X146121014Y-84313043D01*
X146318114Y-84372955D01*
X146503419Y-84514830D01*
X146671307Y-84765046D01*
X146764101Y-85063152D01*
X146770774Y-85370340D01*
X146680302Y-85647802D01*
X146630173Y-85773779D01*
X146590075Y-86038978D01*
X146599738Y-86334696D01*
X146660330Y-86605056D01*
X146693844Y-86715097D01*
X146696727Y-86869037D01*
X146628179Y-87051611D01*
X146613918Y-87079419D01*
X146485985Y-87249422D01*
X146337996Y-87359883D01*
X146205930Y-87417489D01*
X146139002Y-87448382D01*
X146138135Y-87454070D01*
X146162201Y-87542650D01*
X146221805Y-87714932D01*
X146306829Y-87941201D01*
X146421372Y-88252112D01*
X146558902Y-88649731D01*
X146704767Y-89089639D01*
X146845565Y-89530641D01*
X146967892Y-89931541D01*
X147058346Y-90251144D01*
X147097000Y-90391909D01*
X147137695Y-90499006D01*
X147174210Y-90508162D01*
X147221729Y-90436614D01*
X147248078Y-90379510D01*
X147260259Y-90246041D01*
X147201803Y-90063261D01*
X147191442Y-90037036D01*
X147123636Y-89736049D01*
X147101653Y-89330122D01*
X147124846Y-88834628D01*
X147192565Y-88264939D01*
X147304163Y-87636429D01*
X147424574Y-87033595D01*
X147522678Y-86509553D01*
X147602343Y-86040885D01*
X147670019Y-85591535D01*
X147681773Y-85528330D01*
X147798354Y-85280543D01*
X148001982Y-85118321D01*
X148271736Y-85060142D01*
X148385052Y-85062337D01*
X148596323Y-85093185D01*
X148734105Y-85174950D01*
X148837472Y-85325994D01*
X148895750Y-85492240D01*
X148926010Y-85759585D01*
X148913191Y-86111722D01*
X148856416Y-86557954D01*
X148754811Y-87107583D01*
X148607500Y-87769910D01*
X148589590Y-87847758D01*
X148521149Y-88180601D01*
X148464183Y-88509427D01*
X148429541Y-88773091D01*
X148390366Y-89188611D01*
X148788070Y-88917140D01*
X148845738Y-88878332D01*
X149272539Y-88625879D01*
X149671255Y-88449398D01*
X150026183Y-88353336D01*
X150321620Y-88342142D01*
X150541864Y-88420266D01*
X150574648Y-88445898D01*
X150715430Y-88627507D01*
X150799655Y-88853738D01*
X150802742Y-89063946D01*
X150802024Y-89066778D01*
X150694707Y-89298060D01*
X150521049Y-89488979D01*
X150321566Y-89594834D01*
X150095492Y-89680974D01*
X149805048Y-89838505D01*
X149486251Y-90045378D01*
X149171809Y-90280341D01*
X148894434Y-90522139D01*
X148889603Y-90526785D01*
X148677370Y-90741401D01*
X148476906Y-90962011D01*
X148308543Y-91164224D01*
X148192615Y-91323645D01*
X148149453Y-91415882D01*
X148171115Y-91413264D01*
X148284671Y-91366829D01*
X148473606Y-91278322D01*
X148713092Y-91159056D01*
X148814537Y-91108779D01*
X149093113Y-90985641D01*
X149329277Y-90902177D01*
X149487833Y-90871453D01*
X149492564Y-90871471D01*
X149746351Y-90930421D01*
X149942310Y-91083426D01*
X150063868Y-91301044D01*
X150094452Y-91553834D01*
X150017488Y-91812357D01*
X150004371Y-91834800D01*
X149879640Y-91973963D01*
X149664927Y-92127463D01*
X149343009Y-92307957D01*
X149300655Y-92330059D01*
X148898445Y-92549202D01*
X148562666Y-92749210D01*
X148306425Y-92921341D01*
X148142827Y-93056853D01*
X148084980Y-93147006D01*
X148057977Y-93230436D01*
X147946528Y-93375991D01*
X147784710Y-93521859D01*
X147611816Y-93634198D01*
X147467136Y-93679165D01*
X147392129Y-93675347D01*
X147124316Y-93590160D01*
X146922580Y-93411240D01*
X146806907Y-93162760D01*
X146797282Y-92868898D01*
X146813748Y-92798029D01*
X146894390Y-92585103D01*
X147007790Y-92371653D01*
X147008208Y-92370989D01*
X147108020Y-92196797D01*
X147134301Y-92095671D01*
X147094651Y-92038454D01*
X147030690Y-92020413D01*
X146941484Y-92096032D01*
X146930786Y-92113686D01*
X146801702Y-92277494D01*
X146602631Y-92486595D01*
X146364414Y-92712754D01*
X146117893Y-92927737D01*
X145893910Y-93103308D01*
X145723306Y-93211233D01*
X145663146Y-93239293D01*
X145274476Y-93367302D01*
X144922501Y-93390492D01*
X144625563Y-93307259D01*
X144525421Y-93240340D01*
X144351937Y-93083316D01*
X144170454Y-92884866D01*
X144007429Y-92676972D01*
X143889321Y-92491616D01*
X143842588Y-92360782D01*
X143834003Y-92303534D01*
X143780018Y-92213333D01*
X143733918Y-92168277D01*
X143623495Y-92025808D01*
X143476572Y-91815091D01*
X143310625Y-91562249D01*
X143143130Y-91293408D01*
X142991563Y-91034692D01*
X142928153Y-90924212D01*
X142637798Y-90473812D01*
X142352072Y-90118163D01*
X142080373Y-89867814D01*
X141832101Y-89733314D01*
X141773371Y-89717839D01*
X141701378Y-89737334D01*
X141685186Y-89856357D01*
X141717539Y-89978863D01*
X141838572Y-90160042D01*
X142058588Y-90399446D01*
X142068464Y-90409347D01*
X142322994Y-90672694D01*
X142494717Y-90874699D01*
X142598747Y-91039082D01*
X142650199Y-91189565D01*
X142664190Y-91349869D01*
X142625992Y-91547084D01*
X142503585Y-91760475D01*
X142327884Y-91920591D01*
X142130954Y-91988998D01*
X142015245Y-91991207D01*
X141716954Y-91956298D01*
X141502800Y-91864802D01*
X141392463Y-91723786D01*
X141343188Y-91638800D01*
X141225116Y-91486575D01*
X141068456Y-91310275D01*
X140908472Y-91115808D01*
X140719628Y-90837621D01*
X140565722Y-90561754D01*
X140497175Y-90414033D01*
X140407221Y-90172696D01*
X140364760Y-89944045D01*
X140354612Y-89663484D01*
X140355745Y-89591454D01*
X140413294Y-89153391D01*
X140558489Y-88810185D01*
X140792377Y-88559192D01*
X140813579Y-88543991D01*
X140926725Y-88482190D01*
X141068995Y-88445317D01*
X141274144Y-88427501D01*
X141575924Y-88422867D01*
X141872765Y-88428135D01*
X142110016Y-88450190D01*
X142298116Y-88496085D01*
X142479334Y-88572836D01*
X142859246Y-88808363D01*
X143277698Y-89181756D01*
X143660858Y-89648516D01*
X143779190Y-89820447D01*
X143956099Y-90089079D01*
X144143165Y-90383242D01*
X144326768Y-90680477D01*
X144493283Y-90958324D01*
X144629089Y-91194322D01*
X144720562Y-91366013D01*
X144754081Y-91450936D01*
X144774669Y-91500880D01*
X144870932Y-91582352D01*
X144971364Y-91666575D01*
X145077853Y-91813184D01*
X145152870Y-91930342D01*
X145211319Y-91981479D01*
X145254347Y-91958462D01*
X145371394Y-91867241D01*
X145526764Y-91730326D01*
X145627679Y-91635699D01*
X145726437Y-91523918D01*
X145777262Y-91409459D01*
X145796078Y-91249685D01*
X145798811Y-91001958D01*
X145792908Y-90804790D01*
X145759106Y-90522798D01*
X145687907Y-90208974D01*
X145570925Y-89819822D01*
X145417417Y-89355451D01*
X145216500Y-88783180D01*
X145036579Y-88314622D01*
X144882002Y-87961506D01*
X144816834Y-87797551D01*
X144766212Y-87483875D01*
X144812497Y-87201017D01*
X144949430Y-86973584D01*
X145170753Y-86826183D01*
X145236123Y-86792602D01*
X145280464Y-86724472D01*
X145294450Y-86594373D01*
X145286684Y-86368325D01*
X145264275Y-85962950D01*
X145123445Y-86091569D01*
X145038635Y-86162671D01*
X144714273Y-86348278D01*
X144361686Y-86441083D01*
X144014106Y-86435586D01*
X143704765Y-86326289D01*
X143637471Y-86281549D01*
X143449873Y-86120004D01*
X143281078Y-85932231D01*
X143079427Y-85667848D01*
X142888348Y-85820740D01*
X142780033Y-85896139D01*
X142609085Y-85962613D01*
X142422588Y-85961911D01*
X142205893Y-85888316D01*
X141944350Y-85736114D01*
X141623308Y-85499589D01*
X141228117Y-85173025D01*
X141162649Y-85117346D01*
X140864247Y-84868072D01*
X140522346Y-84588061D01*
X140160891Y-84296402D01*
X139803822Y-84012187D01*
X139475081Y-83754505D01*
X139198611Y-83542447D01*
X138998353Y-83395103D01*
X138986116Y-83386484D01*
X138785807Y-83245856D01*
X138533909Y-83069572D01*
X138281919Y-82893676D01*
X137843512Y-82588136D01*
X138219482Y-83169509D01*
X138396381Y-83456472D01*
X138606422Y-83818506D01*
X138821067Y-84205732D01*
X139013970Y-84571650D01*
X139067241Y-84676253D01*
X139217940Y-84977597D01*
X139321109Y-85203073D01*
X139386574Y-85383807D01*
X139424160Y-85550925D01*
X139443692Y-85735553D01*
X139454995Y-85968818D01*
X139477504Y-86545219D01*
X139250266Y-86772456D01*
X139178196Y-86839697D01*
X138954950Y-86984982D01*
X138685257Y-87061657D01*
X138330623Y-87082710D01*
X138291404Y-87082159D01*
X138041564Y-87062608D01*
X137773357Y-87010742D01*
X137467693Y-86920219D01*
X137105482Y-86784697D01*
X136667634Y-86597832D01*
X136135057Y-86353283D01*
X135873921Y-86231980D01*
X135441732Y-86038999D01*
X135097631Y-85896646D01*
X134850648Y-85808564D01*
X134709810Y-85778394D01*
X134702110Y-85778898D01*
X134587056Y-85844795D01*
X134416472Y-86015906D01*
X134198242Y-86284435D01*
X134105089Y-86402643D01*
X133914565Y-86622244D01*
X133742359Y-86794438D01*
X133616953Y-86889574D01*
X133550610Y-86923800D01*
X133466645Y-86987669D01*
X133459366Y-87074473D01*
X133513978Y-87233647D01*
X133518669Y-87246039D01*
X133569271Y-87415628D01*
X133561475Y-87554145D01*
X133492127Y-87733843D01*
X133432593Y-87848275D01*
X133319054Y-87978895D01*
X133147838Y-88075315D01*
X132883006Y-88162847D01*
X132791014Y-88200873D01*
X132755747Y-88248845D01*
X132897706Y-88530656D01*
X133004484Y-88803756D01*
X133052227Y-89041650D01*
X133051705Y-89281928D01*
X133039213Y-89391177D01*
X132974466Y-89636416D01*
X132849413Y-89848970D01*
X132647823Y-90046267D01*
X132353464Y-90245736D01*
X131950105Y-90464806D01*
X131270533Y-90809060D01*
X131760250Y-90771584D01*
X131996897Y-90743860D01*
X132333875Y-90688692D01*
X132708860Y-90615585D01*
X133075929Y-90532873D01*
X133424729Y-90451553D01*
X133729342Y-90394408D01*
X133955280Y-90376497D01*
X134127245Y-90398395D01*
X134269934Y-90460677D01*
X134408048Y-90563919D01*
X134516447Y-90703031D01*
X134605471Y-90954556D01*
X134628876Y-91243382D01*
X134578344Y-91522696D01*
X134507474Y-91725993D01*
X134671376Y-91597068D01*
X134892714Y-91471646D01*
X135174892Y-91426843D01*
X135444779Y-91498210D01*
X135674415Y-91683343D01*
X135692962Y-91703719D01*
X135844584Y-91781296D01*
X136003391Y-91754876D01*
X136119515Y-91630390D01*
X136233092Y-91441617D01*
X136423303Y-91214614D01*
X136637471Y-91017868D01*
X136833868Y-90894374D01*
X137067911Y-90823277D01*
X137357761Y-90830209D01*
X137623901Y-90959837D01*
X137765173Y-91047624D01*
X137928643Y-91089664D01*
X138154080Y-91082589D01*
X138200855Y-91078357D01*
X138391988Y-91075248D01*
X138520485Y-91116434D01*
X138641412Y-91217116D01*
X138654000Y-91229885D01*
X138816330Y-91462300D01*
X138854874Y-91710053D01*
X138773364Y-91995154D01*
X138703310Y-92123964D01*
X138483191Y-92352604D01*
X138192847Y-92478773D01*
X137844202Y-92498745D01*
X137449179Y-92408797D01*
X137179788Y-92313750D01*
X137179788Y-92562379D01*
X137149022Y-92770474D01*
X137032872Y-93028389D01*
X136827920Y-93231644D01*
X136562930Y-93322232D01*
X136243277Y-93296824D01*
X135872342Y-93155050D01*
X135802589Y-93123670D01*
X135565497Y-93045020D01*
X135317330Y-92991301D01*
X135115652Y-92954144D01*
X134792076Y-92840445D01*
X134578416Y-92668737D01*
X134466282Y-92430593D01*
X134447280Y-92117585D01*
X134470019Y-91793280D01*
X134323104Y-91931409D01*
X134306359Y-91947450D01*
X134253848Y-92008816D01*
X134217944Y-92086846D01*
X134195674Y-92204322D01*
X134184067Y-92384029D01*
X134180151Y-92648750D01*
X134180955Y-93021267D01*
X134181666Y-93112805D01*
X134189370Y-93487643D01*
X134203501Y-93839783D01*
X134222328Y-94133263D01*
X134244117Y-94332121D01*
X134260302Y-94472848D01*
X134280986Y-94733906D01*
X134303302Y-95084266D01*
X134325991Y-95502234D01*
X134347793Y-95966120D01*
X134367445Y-96454229D01*
X134368083Y-96471529D01*
X134397827Y-97192566D01*
X134429905Y-97798623D01*
X134465568Y-98304967D01*
X134506064Y-98726869D01*
X134552641Y-99079597D01*
X134606548Y-99378421D01*
X134666435Y-99519894D01*
X134788857Y-99654713D01*
X134834090Y-99682113D01*
X134932209Y-99712776D01*
X135057783Y-99695148D01*
X135256576Y-99626464D01*
X135394214Y-99580807D01*
X135687144Y-99507276D01*
X135971818Y-99459140D01*
X135985622Y-99457550D01*
X136255384Y-99421716D01*
X136581557Y-99372139D01*
X136896638Y-99319044D01*
X137360007Y-99264286D01*
X137826111Y-99283498D01*
X138207357Y-99390797D01*
X138496963Y-99585055D01*
X138557012Y-99640081D01*
X138731780Y-99768323D01*
X138880302Y-99838273D01*
X138990870Y-99888770D01*
X139182790Y-100021961D01*
X139408903Y-100209876D01*
X139641370Y-100427600D01*
X139852350Y-100650219D01*
X140014004Y-100852819D01*
X140063500Y-100918138D01*
X140295250Y-101141714D01*
X140581262Y-101332274D01*
X140878895Y-101464878D01*
X141145508Y-101514589D01*
X141296609Y-101494934D01*
X141536983Y-101427561D01*
X141783129Y-101328827D01*
X142038701Y-101189441D01*
X142326114Y-101003110D01*
X142624718Y-100786782D01*
X142914318Y-100557192D01*
X143174717Y-100331076D01*
X143385721Y-100125167D01*
X143527134Y-99956201D01*
X143578759Y-99840913D01*
X143579407Y-99833688D01*
X143630637Y-99728479D01*
X143747630Y-99565723D01*
X143907643Y-99377470D01*
X143909651Y-99375271D01*
X144088890Y-99166635D01*
X144243755Y-98964847D01*
X144340917Y-98813302D01*
X144357481Y-98782292D01*
X144459355Y-98610988D01*
X144604172Y-98384257D01*
X144766273Y-98142557D01*
X144810598Y-98076904D01*
X144962161Y-97833413D01*
X145081709Y-97613104D01*
X145146517Y-97456953D01*
X145184655Y-97303287D01*
X145247132Y-97014734D01*
X145315546Y-96666018D01*
X145385998Y-96280676D01*
X145454591Y-95882243D01*
X145517428Y-95494256D01*
X145570611Y-95140252D01*
X145610243Y-94843767D01*
X145632426Y-94628338D01*
X145633264Y-94517500D01*
X145621531Y-94421409D01*
X145651158Y-94173890D01*
X145744969Y-93940140D01*
X145883632Y-93777311D01*
X146060357Y-93701362D01*
X146302668Y-93677906D01*
X146536967Y-93718534D01*
X146708857Y-93820406D01*
X146766735Y-93889426D01*
X146876395Y-94086794D01*
X146940855Y-94335992D01*
X146960380Y-94651253D01*
X146935237Y-95046813D01*
X146865690Y-95536905D01*
X146752004Y-96135764D01*
X146697556Y-96406797D01*
X146625903Y-96782230D01*
X146563260Y-97130364D01*
X146518873Y-97401016D01*
X146502899Y-97500832D01*
X146386445Y-98049906D01*
X146215406Y-98668938D01*
X146000925Y-99323400D01*
X145754147Y-99978764D01*
X145486215Y-100600502D01*
X145418818Y-100747927D01*
X145274068Y-101075116D01*
X145141488Y-101387338D01*
X145043144Y-101633162D01*
X144985355Y-101782715D01*
X144723012Y-102373164D01*
X144434054Y-102865288D01*
X144097845Y-103281615D01*
X143693745Y-103644677D01*
X143201117Y-103977005D01*
X142599325Y-104301129D01*
X142558579Y-104321222D01*
X142305492Y-104441558D01*
X142110606Y-104516562D01*
X141926724Y-104557213D01*
X141706650Y-104574490D01*
X141403189Y-104579372D01*
X141116224Y-104574951D01*
X140633841Y-104529561D01*
X140129924Y-104426795D01*
X139987004Y-104392166D01*
X139671223Y-104320505D01*
X139385480Y-104261540D01*
X139177926Y-104225453D01*
X139147163Y-104221066D01*
X138650818Y-104124580D01*
X138113991Y-103971617D01*
X137520861Y-103756475D01*
X136855608Y-103473450D01*
X136102410Y-103116840D01*
X135907855Y-103020464D01*
X135505433Y-102817805D01*
X135134678Y-102626860D01*
X134817066Y-102458906D01*
X134574076Y-102325223D01*
X134427185Y-102237090D01*
X134334901Y-102166620D01*
X134112463Y-101952723D01*
X133865069Y-101670811D01*
X133617786Y-101352262D01*
X133395684Y-101028456D01*
X133223829Y-100730771D01*
X133176634Y-100626685D01*
X133058089Y-100244919D01*
X132969432Y-99761211D01*
X132912823Y-99194791D01*
X132890427Y-98564888D01*
X132904406Y-97890733D01*
X132912590Y-97708136D01*
X132935547Y-97004438D01*
X132948462Y-96217271D01*
X132951391Y-95334946D01*
X132944393Y-94345776D01*
X132927527Y-93238072D01*
X132918886Y-92839246D01*
X132906961Y-92473310D01*
X132892249Y-92214076D01*
X132873676Y-92048554D01*
X132850167Y-91963754D01*
X132820646Y-91946687D01*
X132546559Y-92020609D01*
X132170612Y-92073180D01*
X131744088Y-92098541D01*
X131302689Y-92096896D01*
X130882118Y-92068450D01*
X130518080Y-92013405D01*
X130246277Y-91931966D01*
X130059809Y-91828784D01*
X129819465Y-91593115D01*
X129688473Y-91296985D01*
X129671507Y-90953785D01*
X129773241Y-90576905D01*
X129808441Y-90502180D01*
X130014284Y-90208084D01*
X130316386Y-89912547D01*
X130690122Y-89637170D01*
X131110868Y-89403553D01*
X131244097Y-89340647D01*
X131464214Y-89236187D01*
X131621118Y-89161008D01*
X131687320Y-89128239D01*
X131683949Y-89109820D01*
X131622190Y-89018452D01*
X131507757Y-88879857D01*
X131421942Y-88765942D01*
X131314867Y-88494333D01*
X131312525Y-88173279D01*
X131413531Y-87786705D01*
X131507475Y-87575059D01*
X131702220Y-87313938D01*
X131975668Y-87111998D01*
X132344230Y-86958247D01*
X132824317Y-86841692D01*
X132937608Y-86815555D01*
X132964330Y-86772341D01*
X132891097Y-86679464D01*
X132829666Y-86587848D01*
X132778845Y-86353504D01*
X132822165Y-86074293D01*
X132957549Y-85778394D01*
X133212532Y-85393206D01*
X133557730Y-84968313D01*
X133897753Y-84659461D01*
X134227601Y-84470976D01*
X134542272Y-84407185D01*
X134714042Y-84425657D01*
X134999948Y-84490855D01*
X135339109Y-84592828D01*
X135696307Y-84720807D01*
X136036323Y-84864021D01*
X136348950Y-85007665D01*
X136865606Y-85242830D01*
X137278221Y-85426895D01*
X137595743Y-85563538D01*
X137827124Y-85656437D01*
X137981315Y-85709270D01*
X138067265Y-85725714D01*
X138093926Y-85709446D01*
X138077916Y-85637388D01*
X138001490Y-85453405D01*
X137872693Y-85195067D01*
X137703371Y-84882887D01*
X137505367Y-84537377D01*
X137290528Y-84179049D01*
X137070698Y-83828415D01*
X136857722Y-83505987D01*
X136663446Y-83232277D01*
X136655114Y-83221171D01*
X136460032Y-82979478D01*
X136203871Y-82686329D01*
X135918938Y-82377709D01*
X135637544Y-82089604D01*
X135537769Y-81990531D01*
X135196191Y-81641041D01*
X134943985Y-81358838D01*
X134773409Y-81129642D01*
X134676722Y-80939175D01*
X134646180Y-80773156D01*
X134674042Y-80617308D01*
X134752567Y-80457351D01*
X134773863Y-80420921D01*
X134834509Y-80253676D01*
X134807551Y-80093416D01*
X134799524Y-80070642D01*
X134778396Y-79818444D01*
X134865687Y-79581435D01*
X135042452Y-79391544D01*
X135289747Y-79280702D01*
X135470888Y-79281653D01*
G37*
%TD*%
M02*
