%TF.GenerationSoftware,KiCad,Pcbnew,7.0.5-0*%
%TF.CreationDate,2023-07-31T19:13:05-04:00*%
%TF.ProjectId,mula,6d756c61-2e6b-4696-9361-645f70636258,rev?*%
%TF.SameCoordinates,Original*%
%TF.FileFunction,Copper,L1,Top*%
%TF.FilePolarity,Positive*%
%FSLAX46Y46*%
G04 Gerber Fmt 4.6, Leading zero omitted, Abs format (unit mm)*
G04 Created by KiCad (PCBNEW 7.0.5-0) date 2023-07-31 19:13:05*
%MOMM*%
%LPD*%
G01*
G04 APERTURE LIST*
G04 Aperture macros list*
%AMRoundRect*
0 Rectangle with rounded corners*
0 $1 Rounding radius*
0 $2 $3 $4 $5 $6 $7 $8 $9 X,Y pos of 4 corners*
0 Add a 4 corners polygon primitive as box body*
4,1,4,$2,$3,$4,$5,$6,$7,$8,$9,$2,$3,0*
0 Add four circle primitives for the rounded corners*
1,1,$1+$1,$2,$3*
1,1,$1+$1,$4,$5*
1,1,$1+$1,$6,$7*
1,1,$1+$1,$8,$9*
0 Add four rect primitives between the rounded corners*
20,1,$1+$1,$2,$3,$4,$5,0*
20,1,$1+$1,$4,$5,$6,$7,0*
20,1,$1+$1,$6,$7,$8,$9,0*
20,1,$1+$1,$8,$9,$2,$3,0*%
G04 Aperture macros list end*
%TA.AperFunction,SMDPad,CuDef*%
%ADD10RoundRect,0.140000X-0.140000X-0.170000X0.140000X-0.170000X0.140000X0.170000X-0.140000X0.170000X0*%
%TD*%
%TA.AperFunction,SMDPad,CuDef*%
%ADD11RoundRect,0.218750X-0.256250X0.218750X-0.256250X-0.218750X0.256250X-0.218750X0.256250X0.218750X0*%
%TD*%
%TA.AperFunction,SMDPad,CuDef*%
%ADD12R,0.750000X1.000000*%
%TD*%
%TA.AperFunction,SMDPad,CuDef*%
%ADD13RoundRect,0.135000X-0.185000X0.135000X-0.185000X-0.135000X0.185000X-0.135000X0.185000X0.135000X0*%
%TD*%
%TA.AperFunction,SMDPad,CuDef*%
%ADD14RoundRect,0.100000X0.100000X-0.637500X0.100000X0.637500X-0.100000X0.637500X-0.100000X-0.637500X0*%
%TD*%
%TA.AperFunction,ComponentPad*%
%ADD15C,5.500000*%
%TD*%
%TA.AperFunction,SMDPad,CuDef*%
%ADD16R,0.350000X2.500000*%
%TD*%
%TA.AperFunction,SMDPad,CuDef*%
%ADD17RoundRect,0.140000X0.170000X-0.140000X0.170000X0.140000X-0.170000X0.140000X-0.170000X-0.140000X0*%
%TD*%
%TA.AperFunction,SMDPad,CuDef*%
%ADD18R,0.650000X1.700000*%
%TD*%
%TA.AperFunction,SMDPad,CuDef*%
%ADD19RoundRect,0.135000X-0.135000X-0.185000X0.135000X-0.185000X0.135000X0.185000X-0.135000X0.185000X0*%
%TD*%
%TA.AperFunction,SMDPad,CuDef*%
%ADD20RoundRect,0.150000X0.587500X0.150000X-0.587500X0.150000X-0.587500X-0.150000X0.587500X-0.150000X0*%
%TD*%
%TA.AperFunction,SMDPad,CuDef*%
%ADD21RoundRect,0.135000X0.185000X-0.135000X0.185000X0.135000X-0.185000X0.135000X-0.185000X-0.135000X0*%
%TD*%
%TA.AperFunction,SMDPad,CuDef*%
%ADD22RoundRect,0.140000X0.140000X0.170000X-0.140000X0.170000X-0.140000X-0.170000X0.140000X-0.170000X0*%
%TD*%
%TA.AperFunction,SMDPad,CuDef*%
%ADD23RoundRect,0.140000X-0.170000X0.140000X-0.170000X-0.140000X0.170000X-0.140000X0.170000X0.140000X0*%
%TD*%
%TA.AperFunction,SMDPad,CuDef*%
%ADD24R,0.200000X0.400000*%
%TD*%
%TA.AperFunction,SMDPad,CuDef*%
%ADD25R,2.800000X0.400000*%
%TD*%
%TA.AperFunction,SMDPad,CuDef*%
%ADD26RoundRect,0.150000X-0.512500X-0.150000X0.512500X-0.150000X0.512500X0.150000X-0.512500X0.150000X0*%
%TD*%
%TA.AperFunction,SMDPad,CuDef*%
%ADD27R,0.500000X0.320000*%
%TD*%
%TA.AperFunction,SMDPad,CuDef*%
%ADD28RoundRect,0.135000X0.135000X0.185000X-0.135000X0.185000X-0.135000X-0.185000X0.135000X-0.185000X0*%
%TD*%
%TA.AperFunction,SMDPad,CuDef*%
%ADD29R,1.200000X1.400000*%
%TD*%
%TA.AperFunction,SMDPad,CuDef*%
%ADD30RoundRect,0.050000X0.050000X-0.387500X0.050000X0.387500X-0.050000X0.387500X-0.050000X-0.387500X0*%
%TD*%
%TA.AperFunction,SMDPad,CuDef*%
%ADD31RoundRect,0.050000X0.387500X-0.050000X0.387500X0.050000X-0.387500X0.050000X-0.387500X-0.050000X0*%
%TD*%
%TA.AperFunction,SMDPad,CuDef*%
%ADD32R,3.200000X3.200000*%
%TD*%
%TA.AperFunction,SMDPad,CuDef*%
%ADD33R,1.450000X0.600000*%
%TD*%
%TA.AperFunction,SMDPad,CuDef*%
%ADD34R,1.450000X0.300000*%
%TD*%
%TA.AperFunction,ComponentPad*%
%ADD35O,2.100000X1.000000*%
%TD*%
%TA.AperFunction,ComponentPad*%
%ADD36O,1.600000X1.000000*%
%TD*%
%TA.AperFunction,ViaPad*%
%ADD37C,0.800000*%
%TD*%
%TA.AperFunction,Conductor*%
%ADD38C,0.250000*%
%TD*%
%TA.AperFunction,Conductor*%
%ADD39C,0.150000*%
%TD*%
%TA.AperFunction,Conductor*%
%ADD40C,0.500000*%
%TD*%
%TA.AperFunction,Conductor*%
%ADD41C,0.350000*%
%TD*%
G04 APERTURE END LIST*
D10*
%TO.P,C115,1*%
%TO.N,+5V*%
X129870000Y-105425000D03*
%TO.P,C115,2*%
%TO.N,GND*%
X130830000Y-105425000D03*
%TD*%
D11*
%TO.P,D101,1,K*%
%TO.N,GND*%
X144300000Y-79800000D03*
%TO.P,D101,2,A*%
%TO.N,Net-(D101-A)*%
X144300000Y-81375000D03*
%TD*%
D12*
%TO.P,SW102,1,1*%
%TO.N,GND*%
X146170000Y-78970000D03*
X146170000Y-72970000D03*
%TO.P,SW102,2,2*%
%TO.N,Net-(U102-RUN)*%
X149920000Y-78970000D03*
X149920000Y-72970000D03*
%TD*%
D13*
%TO.P,R105,1*%
%TO.N,/USBD_N*%
X141525000Y-82565000D03*
%TO.P,R105,2*%
%TO.N,Net-(U102-USB_DM)*%
X141525000Y-83585000D03*
%TD*%
D10*
%TO.P,C101,1*%
%TO.N,GND*%
X148245000Y-92175000D03*
%TO.P,C101,2*%
%TO.N,Net-(U102-XIN)*%
X149205000Y-92175000D03*
%TD*%
D13*
%TO.P,R104,1*%
%TO.N,/USBD_P*%
X140500000Y-82540000D03*
%TO.P,R104,2*%
%TO.N,Net-(U102-USB_DP)*%
X140500000Y-83560000D03*
%TD*%
D14*
%TO.P,U106,1,5V*%
%TO.N,+5V*%
X142975000Y-102925000D03*
%TO.P,U106,2,DIR*%
%TO.N,/BANK2_DIR*%
X143625000Y-102925000D03*
%TO.P,U106,3,A1*%
%TO.N,/IO8*%
X144275000Y-102925000D03*
%TO.P,U106,4,A2*%
%TO.N,/IO9*%
X144925000Y-102925000D03*
%TO.P,U106,5,A3*%
%TO.N,/IO10*%
X145575000Y-102925000D03*
%TO.P,U106,6,A4*%
%TO.N,/IO11*%
X146225000Y-102925000D03*
%TO.P,U106,7,A5*%
%TO.N,/IO12*%
X146875000Y-102925000D03*
%TO.P,U106,8,A6*%
%TO.N,/IO13*%
X147525000Y-102925000D03*
%TO.P,U106,9,A7*%
%TO.N,/IO14*%
X148175000Y-102925000D03*
%TO.P,U106,10,A8*%
%TO.N,/IO15*%
X148825000Y-102925000D03*
%TO.P,U106,11,GND*%
%TO.N,GND*%
X149475000Y-102925000D03*
%TO.P,U106,12,GND*%
X150125000Y-102925000D03*
%TO.P,U106,13,GND*%
X150125000Y-97200000D03*
%TO.P,U106,14,B8*%
%TO.N,/GPIO15*%
X149475000Y-97200000D03*
%TO.P,U106,15,B7*%
%TO.N,/GPIO14*%
X148825000Y-97200000D03*
%TO.P,U106,16,B6*%
%TO.N,/GPIO13*%
X148175000Y-97200000D03*
%TO.P,U106,17,B5*%
%TO.N,/GPIO12*%
X147525000Y-97200000D03*
%TO.P,U106,18,B4*%
%TO.N,/GPIO11*%
X146875000Y-97200000D03*
%TO.P,U106,19,B3*%
%TO.N,/GPIO10*%
X146225000Y-97200000D03*
%TO.P,U106,20,B2*%
%TO.N,/GPIO9*%
X145575000Y-97200000D03*
%TO.P,U106,21,B1*%
%TO.N,/GPIO8*%
X144925000Y-97200000D03*
%TO.P,U106,22,~{OE}*%
%TO.N,GND*%
X144275000Y-97200000D03*
%TO.P,U106,23,3V3*%
%TO.N,+3V3*%
X143625000Y-97200000D03*
%TO.P,U106,24,3V3*%
X142975000Y-97200000D03*
%TD*%
D15*
%TO.P,J102,MOUNTING-HOLE*%
%TO.N,N/C*%
X139987500Y-71905000D03*
D16*
%TO.P,J102,P$1*%
X149237500Y-112655000D03*
%TO.P,J102,P$3*%
X148737500Y-112655000D03*
%TO.P,J102,P$5*%
X148237500Y-112655000D03*
%TO.P,J102,P$7*%
X147737500Y-112655000D03*
%TO.P,J102,P$9*%
X147237500Y-112655000D03*
%TO.P,J102,P$11*%
X146737500Y-112655000D03*
%TO.P,J102,P$21,Pin_17*%
%TO.N,/xIO15*%
X144237500Y-112655000D03*
%TO.P,J102,P$23,Pin_18*%
%TO.N,/xIO14*%
X143737500Y-112655000D03*
%TO.P,J102,P$25,Pin_19*%
%TO.N,/xIO13*%
X143237500Y-112655000D03*
%TO.P,J102,P$27,Pin_20*%
%TO.N,/xIO12*%
X142737500Y-112655000D03*
%TO.P,J102,P$29,Pin_21*%
%TO.N,/xIO11*%
X142237500Y-112655000D03*
%TO.P,J102,P$31,Pin_22*%
%TO.N,/xIO10*%
X141737500Y-112655000D03*
%TO.P,J102,P$33,Pin_23*%
%TO.N,/xIO9*%
X141237500Y-112655000D03*
%TO.P,J102,P$35,Pin_24*%
%TO.N,/xIO8*%
X140737500Y-112655000D03*
%TO.P,J102,P$37,Pin_25*%
%TO.N,/xIO7*%
X140237500Y-112655000D03*
%TO.P,J102,P$39,Pin_26*%
%TO.N,/xIO6*%
X139737500Y-112655000D03*
%TO.P,J102,P$41,Pin_27*%
%TO.N,/xIO5*%
X139237500Y-112655000D03*
%TO.P,J102,P$43,Pin_28*%
%TO.N,/xIO4*%
X138737500Y-112655000D03*
%TO.P,J102,P$45,Pin_29*%
%TO.N,/xIO3*%
X138237500Y-112655000D03*
%TO.P,J102,P$47,Pin_30*%
%TO.N,/xIO2*%
X137737500Y-112655000D03*
%TO.P,J102,P$49,Pin_31*%
%TO.N,/xIO1*%
X137237500Y-112655000D03*
%TO.P,J102,P$51,Pin_32*%
%TO.N,/xIO0*%
X136737500Y-112655000D03*
%TO.P,J102,P$53*%
%TO.N,N/C*%
X136237500Y-112655000D03*
%TO.P,J102,P$55*%
X135737500Y-112655000D03*
%TO.P,J102,P$57*%
X135237500Y-112655000D03*
%TO.P,J102,P$59*%
X134737500Y-112655000D03*
%TO.P,J102,P$61*%
X134237500Y-112655000D03*
%TO.P,J102,P$63*%
X133737500Y-112655000D03*
%TO.P,J102,P$65*%
X133237500Y-112655000D03*
%TO.P,J102,P$67*%
X132737500Y-112655000D03*
%TO.P,J102,P$69*%
X132237500Y-112655000D03*
%TO.P,J102,P$71*%
X131737500Y-112655000D03*
%TO.P,J102,P$73*%
X131237500Y-112655000D03*
%TO.P,J102,P$75*%
X130737500Y-112655000D03*
%TD*%
D17*
%TO.P,C114,1*%
%TO.N,+3V3*%
X144400000Y-76550000D03*
%TO.P,C114,2*%
%TO.N,GND*%
X144400000Y-75590000D03*
%TD*%
D18*
%TO.P,U101,1,~{CS}*%
%TO.N,/QSPI_CS*%
X130120000Y-93000000D03*
%TO.P,U101,2,DO(IO1)*%
%TO.N,/QSPI_D1*%
X131390000Y-93000000D03*
%TO.P,U101,3,IO2*%
%TO.N,/QSPI_D2*%
X132660000Y-93000000D03*
%TO.P,U101,4,GND*%
%TO.N,GND*%
X133930000Y-93000000D03*
%TO.P,U101,5,DI(IO0)*%
%TO.N,/QSPI_D0*%
X133930000Y-85700000D03*
%TO.P,U101,6,CLK*%
%TO.N,/QSPI_CLK*%
X132660000Y-85700000D03*
%TO.P,U101,7,IO3*%
%TO.N,/QSPI_D3*%
X131390000Y-85700000D03*
%TO.P,U101,8,VCC*%
%TO.N,+3V3*%
X130120000Y-85700000D03*
%TD*%
D19*
%TO.P,R107,1*%
%TO.N,+5V*%
X129845000Y-104425000D03*
%TO.P,R107,2*%
%TO.N,/BANK1_DIR*%
X130865000Y-104425000D03*
%TD*%
D20*
%TO.P,U104,1,GND*%
%TO.N,GND*%
X142875000Y-77795000D03*
%TO.P,U104,2,VOUT*%
%TO.N,+3V3*%
X142875000Y-75895000D03*
%TO.P,U104,3,VIN*%
%TO.N,+5V*%
X141000000Y-76845000D03*
%TD*%
D21*
%TO.P,R109,1*%
%TO.N,Net-(U102-GPIO18)*%
X144575000Y-83610000D03*
%TO.P,R109,2*%
%TO.N,Net-(D101-A)*%
X144575000Y-82590000D03*
%TD*%
D22*
%TO.P,C105,1*%
%TO.N,+3V3*%
X130850000Y-95650000D03*
%TO.P,C105,2*%
%TO.N,GND*%
X129890000Y-95650000D03*
%TD*%
D13*
%TO.P,R103,1*%
%TO.N,Net-(J101-CC2)*%
X138492500Y-82555000D03*
%TO.P,R103,2*%
%TO.N,GND*%
X138492500Y-83575000D03*
%TD*%
D14*
%TO.P,U105,1,5V*%
%TO.N,+5V*%
X130025000Y-102900000D03*
%TO.P,U105,2,DIR*%
%TO.N,/BANK1_DIR*%
X130675000Y-102900000D03*
%TO.P,U105,3,A1*%
%TO.N,/IO0*%
X131325000Y-102900000D03*
%TO.P,U105,4,A2*%
%TO.N,/IO1*%
X131975000Y-102900000D03*
%TO.P,U105,5,A3*%
%TO.N,/IO2*%
X132625000Y-102900000D03*
%TO.P,U105,6,A4*%
%TO.N,/IO3*%
X133275000Y-102900000D03*
%TO.P,U105,7,A5*%
%TO.N,/IO4*%
X133925000Y-102900000D03*
%TO.P,U105,8,A6*%
%TO.N,/IO5*%
X134575000Y-102900000D03*
%TO.P,U105,9,A7*%
%TO.N,/IO6*%
X135225000Y-102900000D03*
%TO.P,U105,10,A8*%
%TO.N,/IO7*%
X135875000Y-102900000D03*
%TO.P,U105,11,GND*%
%TO.N,GND*%
X136525000Y-102900000D03*
%TO.P,U105,12,GND*%
X137175000Y-102900000D03*
%TO.P,U105,13,GND*%
X137175000Y-97175000D03*
%TO.P,U105,14,B8*%
%TO.N,/GPIO7*%
X136525000Y-97175000D03*
%TO.P,U105,15,B7*%
%TO.N,/GPIO6*%
X135875000Y-97175000D03*
%TO.P,U105,16,B6*%
%TO.N,/GPIO5*%
X135225000Y-97175000D03*
%TO.P,U105,17,B5*%
%TO.N,/GPIO4*%
X134575000Y-97175000D03*
%TO.P,U105,18,B4*%
%TO.N,/GPIO3*%
X133925000Y-97175000D03*
%TO.P,U105,19,B3*%
%TO.N,/GPIO2*%
X133275000Y-97175000D03*
%TO.P,U105,20,B2*%
%TO.N,/GPIO1*%
X132625000Y-97175000D03*
%TO.P,U105,21,B1*%
%TO.N,/GPIO0*%
X131975000Y-97175000D03*
%TO.P,U105,22,~{OE}*%
%TO.N,GND*%
X131325000Y-97175000D03*
%TO.P,U105,23,3V3*%
%TO.N,+3V3*%
X130675000Y-97175000D03*
%TO.P,U105,24,3V3*%
X130025000Y-97175000D03*
%TD*%
D12*
%TO.P,SW101,1,1*%
%TO.N,GND*%
X146145000Y-86570000D03*
X146145000Y-80570000D03*
%TO.P,SW101,2,2*%
%TO.N,Net-(R101-Pad1)*%
X149895000Y-86570000D03*
X149895000Y-80570000D03*
%TD*%
D22*
%TO.P,C106,1*%
%TO.N,+3V3*%
X130850000Y-94675000D03*
%TO.P,C106,2*%
%TO.N,GND*%
X129890000Y-94675000D03*
%TD*%
D23*
%TO.P,C103,1*%
%TO.N,/USBD_N*%
X142550000Y-82590000D03*
%TO.P,C103,2*%
%TO.N,GND*%
X142550000Y-83550000D03*
%TD*%
%TO.P,C112,1*%
%TO.N,+3V3*%
X141675000Y-96195000D03*
%TO.P,C112,2*%
%TO.N,GND*%
X141675000Y-97155000D03*
%TD*%
%TO.P,C104,1*%
%TO.N,/USBD_P*%
X139482500Y-82575000D03*
%TO.P,C104,2*%
%TO.N,GND*%
X139482500Y-83535000D03*
%TD*%
D19*
%TO.P,R106,1*%
%TO.N,+3V3*%
X147510000Y-79220000D03*
%TO.P,R106,2*%
%TO.N,Net-(U102-RUN)*%
X148530000Y-79220000D03*
%TD*%
D24*
%TO.P,L101,1,IN1*%
%TO.N,/xIO0*%
X136850000Y-109425000D03*
%TO.P,L101,2,IN2*%
%TO.N,/xIO1*%
X137250000Y-109425000D03*
%TO.P,L101,3,IN3*%
%TO.N,/xIO2*%
X137650000Y-109425000D03*
%TO.P,L101,4,IN4*%
%TO.N,/xIO3*%
X138050000Y-109425000D03*
%TO.P,L101,5,IN5*%
%TO.N,/xIO4*%
X138450000Y-109425000D03*
%TO.P,L101,6,IN6*%
%TO.N,/xIO5*%
X138850000Y-109425000D03*
%TO.P,L101,7,IN7*%
%TO.N,/xIO6*%
X139250000Y-109425000D03*
%TO.P,L101,8,IN8*%
%TO.N,/xIO7*%
X139650000Y-109425000D03*
%TO.P,L101,9,OUT8*%
%TO.N,/IO7*%
X139650000Y-108225000D03*
%TO.P,L101,10,OUT7*%
%TO.N,/IO6*%
X139250000Y-108225000D03*
%TO.P,L101,11,OUT6*%
%TO.N,/IO5*%
X138850000Y-108225000D03*
%TO.P,L101,12,OUT5*%
%TO.N,/IO4*%
X138450000Y-108225000D03*
%TO.P,L101,13,OUT4*%
%TO.N,/IO3*%
X138050000Y-108225000D03*
%TO.P,L101,14,OUT3*%
%TO.N,/IO2*%
X137650000Y-108225000D03*
%TO.P,L101,15,OUT2*%
%TO.N,/IO1*%
X137250000Y-108225000D03*
%TO.P,L101,16,OUT1*%
%TO.N,/IO0*%
X136850000Y-108225000D03*
D25*
%TO.P,L101,17,EP*%
%TO.N,GND*%
X138250000Y-108825000D03*
%TD*%
D23*
%TO.P,C107,1*%
%TO.N,+3V3*%
X140675000Y-96195000D03*
%TO.P,C107,2*%
%TO.N,GND*%
X140675000Y-97155000D03*
%TD*%
D26*
%TO.P,U103,1,IO1*%
%TO.N,/USBD_N*%
X138962500Y-79395000D03*
%TO.P,U103,2,VN*%
%TO.N,GND*%
X138962500Y-80345000D03*
%TO.P,U103,3,IO2*%
%TO.N,/USBD_P*%
X138962500Y-81295000D03*
%TO.P,U103,4,IO3*%
%TO.N,unconnected-(U103-IO3-Pad4)*%
X141237500Y-81295000D03*
%TO.P,U103,5,VP*%
%TO.N,+5V*%
X141237500Y-80345000D03*
%TO.P,U103,6,IO4*%
%TO.N,unconnected-(U103-IO4-Pad6)*%
X141237500Y-79395000D03*
%TD*%
D27*
%TO.P,RN101,1,R1.1*%
%TO.N,/IO12*%
X141650000Y-99662500D03*
%TO.P,RN101,2,R2.1*%
%TO.N,/IO13*%
X141650000Y-99162500D03*
%TO.P,RN101,3,R3.1*%
%TO.N,/IO14*%
X141650000Y-98662500D03*
%TO.P,RN101,4,R4.1*%
%TO.N,/IO15*%
X141650000Y-98162500D03*
%TO.P,RN101,5,R4.2*%
%TO.N,+5V*%
X140650000Y-98162500D03*
%TO.P,RN101,6,R3.2*%
X140650000Y-98662500D03*
%TO.P,RN101,7,R2.2*%
X140650000Y-99162500D03*
%TO.P,RN101,8,R1.2*%
X140650000Y-99662500D03*
%TD*%
D22*
%TO.P,C102,1*%
%TO.N,GND*%
X148630000Y-86850000D03*
%TO.P,C102,2*%
%TO.N,Net-(U102-XOUT)*%
X147670000Y-86850000D03*
%TD*%
D28*
%TO.P,R101,1*%
%TO.N,Net-(R101-Pad1)*%
X148530000Y-80320000D03*
%TO.P,R101,2*%
%TO.N,/QSPI_CS*%
X147510000Y-80320000D03*
%TD*%
D27*
%TO.P,RN104,1,R1.1*%
%TO.N,/IO0*%
X138575000Y-98162500D03*
%TO.P,RN104,2,R2.1*%
%TO.N,/IO1*%
X138575000Y-98662500D03*
%TO.P,RN104,3,R3.1*%
%TO.N,/IO2*%
X138575000Y-99162500D03*
%TO.P,RN104,4,R4.1*%
%TO.N,/IO3*%
X138575000Y-99662500D03*
%TO.P,RN104,5,R4.2*%
%TO.N,+5V*%
X139575000Y-99662500D03*
%TO.P,RN104,6,R3.2*%
X139575000Y-99162500D03*
%TO.P,RN104,7,R2.2*%
X139575000Y-98662500D03*
%TO.P,RN104,8,R1.2*%
X139575000Y-98162500D03*
%TD*%
D17*
%TO.P,C111,1*%
%TO.N,+3V3*%
X143550000Y-83550000D03*
%TO.P,C111,2*%
%TO.N,GND*%
X143550000Y-82590000D03*
%TD*%
%TO.P,C109,1*%
%TO.N,+3V3*%
X144350000Y-88455000D03*
%TO.P,C109,2*%
%TO.N,GND*%
X144350000Y-87495000D03*
%TD*%
D10*
%TO.P,C110,1*%
%TO.N,+5V*%
X138495000Y-77045000D03*
%TO.P,C110,2*%
%TO.N,GND*%
X139455000Y-77045000D03*
%TD*%
D24*
%TO.P,L102,1,IN1*%
%TO.N,/xIO8*%
X140725000Y-109425000D03*
%TO.P,L102,2,IN2*%
%TO.N,/xIO9*%
X141125000Y-109425000D03*
%TO.P,L102,3,IN3*%
%TO.N,/xIO10*%
X141525000Y-109425000D03*
%TO.P,L102,4,IN4*%
%TO.N,/xIO11*%
X141925000Y-109425000D03*
%TO.P,L102,5,IN5*%
%TO.N,/xIO12*%
X142325000Y-109425000D03*
%TO.P,L102,6,IN6*%
%TO.N,/xIO13*%
X142725000Y-109425000D03*
%TO.P,L102,7,IN7*%
%TO.N,/xIO14*%
X143125000Y-109425000D03*
%TO.P,L102,8,IN8*%
%TO.N,/xIO15*%
X143525000Y-109425000D03*
%TO.P,L102,9,OUT8*%
%TO.N,/IO15*%
X143525000Y-108225000D03*
%TO.P,L102,10,OUT7*%
%TO.N,/IO14*%
X143125000Y-108225000D03*
%TO.P,L102,11,OUT6*%
%TO.N,/IO13*%
X142725000Y-108225000D03*
%TO.P,L102,12,OUT5*%
%TO.N,/IO12*%
X142325000Y-108225000D03*
%TO.P,L102,13,OUT4*%
%TO.N,/IO11*%
X141925000Y-108225000D03*
%TO.P,L102,14,OUT3*%
%TO.N,/IO10*%
X141525000Y-108225000D03*
%TO.P,L102,15,OUT2*%
%TO.N,/IO9*%
X141125000Y-108225000D03*
%TO.P,L102,16,OUT1*%
%TO.N,/IO8*%
X140725000Y-108225000D03*
D25*
%TO.P,L102,17,EP*%
%TO.N,GND*%
X142125000Y-108825000D03*
%TD*%
D29*
%TO.P,Y101,1,1*%
%TO.N,Net-(U102-XOUT)*%
X147100000Y-88425000D03*
%TO.P,Y101,2,2*%
%TO.N,GND*%
X147100000Y-90625000D03*
%TO.P,Y101,3,3*%
%TO.N,Net-(U102-XIN)*%
X148800000Y-90625000D03*
%TO.P,Y101,4,4*%
%TO.N,GND*%
X148800000Y-88425000D03*
%TD*%
D27*
%TO.P,RN102,1,R1.1*%
%TO.N,/IO4*%
X138575000Y-100737500D03*
%TO.P,RN102,2,R2.1*%
%TO.N,/IO5*%
X138575000Y-101237500D03*
%TO.P,RN102,3,R3.1*%
%TO.N,/IO6*%
X138575000Y-101737500D03*
%TO.P,RN102,4,R4.1*%
%TO.N,/IO7*%
X138575000Y-102237500D03*
%TO.P,RN102,5,R4.2*%
%TO.N,+5V*%
X139575000Y-102237500D03*
%TO.P,RN102,6,R3.2*%
X139575000Y-101737500D03*
%TO.P,RN102,7,R2.2*%
X139575000Y-101237500D03*
%TO.P,RN102,8,R1.2*%
X139575000Y-100737500D03*
%TD*%
D19*
%TO.P,R102,1*%
%TO.N,Net-(J101-CC1)*%
X138465000Y-78070000D03*
%TO.P,R102,2*%
%TO.N,GND*%
X139485000Y-78070000D03*
%TD*%
%TO.P,R108,1*%
%TO.N,+5V*%
X140615000Y-103450000D03*
%TO.P,R108,2*%
%TO.N,/BANK2_DIR*%
X141635000Y-103450000D03*
%TD*%
D30*
%TO.P,U102,1,IOVDD*%
%TO.N,+3V3*%
X137050000Y-92287500D03*
%TO.P,U102,2,GPIO0*%
%TO.N,/GPIO0*%
X137450000Y-92287500D03*
%TO.P,U102,3,GPIO1*%
%TO.N,/GPIO1*%
X137850000Y-92287500D03*
%TO.P,U102,4,GPIO2*%
%TO.N,/GPIO2*%
X138250000Y-92287500D03*
%TO.P,U102,5,GPIO3*%
%TO.N,/GPIO3*%
X138650000Y-92287500D03*
%TO.P,U102,6,GPIO4*%
%TO.N,/GPIO4*%
X139050000Y-92287500D03*
%TO.P,U102,7,GPIO5*%
%TO.N,/GPIO5*%
X139450000Y-92287500D03*
%TO.P,U102,8,GPIO6*%
%TO.N,/GPIO6*%
X139850000Y-92287500D03*
%TO.P,U102,9,GPIO7*%
%TO.N,/GPIO7*%
X140250000Y-92287500D03*
%TO.P,U102,10,IOVDD*%
%TO.N,+3V3*%
X140650000Y-92287500D03*
%TO.P,U102,11,GPIO8*%
%TO.N,/GPIO8*%
X141050000Y-92287500D03*
%TO.P,U102,12,GPIO9*%
%TO.N,/GPIO9*%
X141450000Y-92287500D03*
%TO.P,U102,13,GPIO10*%
%TO.N,/GPIO10*%
X141850000Y-92287500D03*
%TO.P,U102,14,GPIO11*%
%TO.N,/GPIO11*%
X142250000Y-92287500D03*
D31*
%TO.P,U102,15,GPIO12*%
%TO.N,/GPIO12*%
X143087500Y-91450000D03*
%TO.P,U102,16,GPIO13*%
%TO.N,/GPIO13*%
X143087500Y-91050000D03*
%TO.P,U102,17,GPIO14*%
%TO.N,/GPIO14*%
X143087500Y-90650000D03*
%TO.P,U102,18,GPIO15*%
%TO.N,/GPIO15*%
X143087500Y-90250000D03*
%TO.P,U102,19,TESTEN*%
%TO.N,GND*%
X143087500Y-89850000D03*
%TO.P,U102,20,XIN*%
%TO.N,Net-(U102-XIN)*%
X143087500Y-89450000D03*
%TO.P,U102,21,XOUT*%
%TO.N,Net-(U102-XOUT)*%
X143087500Y-89050000D03*
%TO.P,U102,22,IOVDD*%
%TO.N,+3V3*%
X143087500Y-88650000D03*
%TO.P,U102,23,DVDD*%
%TO.N,Net-(U102-VREG_VOUT)*%
X143087500Y-88250000D03*
%TO.P,U102,24,SWCLK*%
%TO.N,unconnected-(U102-SWCLK-Pad24)*%
X143087500Y-87850000D03*
%TO.P,U102,25,SWD*%
%TO.N,unconnected-(U102-SWD-Pad25)*%
X143087500Y-87450000D03*
%TO.P,U102,26,RUN*%
%TO.N,Net-(U102-RUN)*%
X143087500Y-87050000D03*
%TO.P,U102,27,GPIO16*%
%TO.N,/BANK2_DIR*%
X143087500Y-86650000D03*
%TO.P,U102,28,GPIO17*%
%TO.N,/BANK1_DIR*%
X143087500Y-86250000D03*
D30*
%TO.P,U102,29,GPIO18*%
%TO.N,Net-(U102-GPIO18)*%
X142250000Y-85412500D03*
%TO.P,U102,30,GPIO19*%
%TO.N,unconnected-(U102-GPIO19-Pad30)*%
X141850000Y-85412500D03*
%TO.P,U102,31,GPIO20*%
%TO.N,unconnected-(U102-GPIO20-Pad31)*%
X141450000Y-85412500D03*
%TO.P,U102,32,GPIO21*%
%TO.N,unconnected-(U102-GPIO21-Pad32)*%
X141050000Y-85412500D03*
%TO.P,U102,33,IOVDD*%
%TO.N,+3V3*%
X140650000Y-85412500D03*
%TO.P,U102,34,GPIO22*%
%TO.N,unconnected-(U102-GPIO22-Pad34)*%
X140250000Y-85412500D03*
%TO.P,U102,35,GPIO23*%
%TO.N,unconnected-(U102-GPIO23-Pad35)*%
X139850000Y-85412500D03*
%TO.P,U102,36,GPIO24*%
%TO.N,unconnected-(U102-GPIO24-Pad36)*%
X139450000Y-85412500D03*
%TO.P,U102,37,GPIO25*%
%TO.N,unconnected-(U102-GPIO25-Pad37)*%
X139050000Y-85412500D03*
%TO.P,U102,38,GPIO26_ADC0*%
%TO.N,unconnected-(U102-GPIO26_ADC0-Pad38)*%
X138650000Y-85412500D03*
%TO.P,U102,39,GPIO27_ADC1*%
%TO.N,unconnected-(U102-GPIO27_ADC1-Pad39)*%
X138250000Y-85412500D03*
%TO.P,U102,40,GPIO28_ADC2*%
%TO.N,unconnected-(U102-GPIO28_ADC2-Pad40)*%
X137850000Y-85412500D03*
%TO.P,U102,41,GPIO29_ADC3*%
%TO.N,unconnected-(U102-GPIO29_ADC3-Pad41)*%
X137450000Y-85412500D03*
%TO.P,U102,42,IOVDD*%
%TO.N,+3V3*%
X137050000Y-85412500D03*
D31*
%TO.P,U102,43,ADC_AVDD*%
X136212500Y-86250000D03*
%TO.P,U102,44,VREG_IN*%
X136212500Y-86650000D03*
%TO.P,U102,45,VREG_VOUT*%
%TO.N,Net-(U102-VREG_VOUT)*%
X136212500Y-87050000D03*
%TO.P,U102,46,USB_DM*%
%TO.N,Net-(U102-USB_DM)*%
X136212500Y-87450000D03*
%TO.P,U102,47,USB_DP*%
%TO.N,Net-(U102-USB_DP)*%
X136212500Y-87850000D03*
%TO.P,U102,48,USB_VDD*%
%TO.N,+3V3*%
X136212500Y-88250000D03*
%TO.P,U102,49,IOVDD*%
X136212500Y-88650000D03*
%TO.P,U102,50,DVDD*%
%TO.N,Net-(U102-VREG_VOUT)*%
X136212500Y-89050000D03*
%TO.P,U102,51,QSPI_SD3*%
%TO.N,/QSPI_D3*%
X136212500Y-89450000D03*
%TO.P,U102,52,QSPI_SCLK*%
%TO.N,/QSPI_CLK*%
X136212500Y-89850000D03*
%TO.P,U102,53,QSPI_SD0*%
%TO.N,/QSPI_D0*%
X136212500Y-90250000D03*
%TO.P,U102,54,QSPI_SD2*%
%TO.N,/QSPI_D2*%
X136212500Y-90650000D03*
%TO.P,U102,55,QSPI_SD1*%
%TO.N,/QSPI_D1*%
X136212500Y-91050000D03*
%TO.P,U102,56,QSPI_SS*%
%TO.N,/QSPI_CS*%
X136212500Y-91450000D03*
D32*
%TO.P,U102,57,GND*%
%TO.N,GND*%
X139650000Y-88850000D03*
%TD*%
D22*
%TO.P,C116,1*%
%TO.N,+5V*%
X139675000Y-103450000D03*
%TO.P,C116,2*%
%TO.N,GND*%
X138715000Y-103450000D03*
%TD*%
%TO.P,C108,1*%
%TO.N,+5V*%
X139455000Y-75575000D03*
%TO.P,C108,2*%
%TO.N,GND*%
X138495000Y-75575000D03*
%TD*%
D23*
%TO.P,C113,1*%
%TO.N,+3V3*%
X144400000Y-77490000D03*
%TO.P,C113,2*%
%TO.N,GND*%
X144400000Y-78450000D03*
%TD*%
D27*
%TO.P,RN103,1,R1.1*%
%TO.N,/IO8*%
X141650000Y-102237500D03*
%TO.P,RN103,2,R2.1*%
%TO.N,/IO9*%
X141650000Y-101737500D03*
%TO.P,RN103,3,R3.1*%
%TO.N,/IO10*%
X141650000Y-101237500D03*
%TO.P,RN103,4,R4.1*%
%TO.N,/IO11*%
X141650000Y-100737500D03*
%TO.P,RN103,5,R4.2*%
%TO.N,+5V*%
X140650000Y-100737500D03*
%TO.P,RN103,6,R3.2*%
X140650000Y-101237500D03*
%TO.P,RN103,7,R2.2*%
X140650000Y-101737500D03*
%TO.P,RN103,8,R1.2*%
X140650000Y-102237500D03*
%TD*%
D33*
%TO.P,J101,A1,GND*%
%TO.N,GND*%
X136395000Y-75950000D03*
%TO.P,J101,A4,VBUS*%
%TO.N,+5V*%
X136395000Y-76750000D03*
D34*
%TO.P,J101,A5,CC1*%
%TO.N,Net-(J101-CC1)*%
X136395000Y-77950000D03*
%TO.P,J101,A6,D+*%
%TO.N,/USBD_P*%
X136395000Y-78950000D03*
%TO.P,J101,A7,D-*%
%TO.N,/USBD_N*%
X136395000Y-79450000D03*
%TO.P,J101,A8,SBU1*%
%TO.N,unconnected-(J101-SBU1-PadA8)*%
X136395000Y-80450000D03*
D33*
%TO.P,J101,A9,VBUS*%
%TO.N,+5V*%
X136395000Y-81650000D03*
%TO.P,J101,A12,GND*%
%TO.N,GND*%
X136395000Y-82450000D03*
%TO.P,J101,B1,GND*%
X136395000Y-82450000D03*
%TO.P,J101,B4,VBUS*%
%TO.N,+5V*%
X136395000Y-81650000D03*
D34*
%TO.P,J101,B5,CC2*%
%TO.N,Net-(J101-CC2)*%
X136395000Y-80950000D03*
%TO.P,J101,B6,D+*%
%TO.N,/USBD_P*%
X136395000Y-79950000D03*
%TO.P,J101,B7,D-*%
%TO.N,/USBD_N*%
X136395000Y-78450000D03*
%TO.P,J101,B8,SBU2*%
%TO.N,unconnected-(J101-SBU2-PadB8)*%
X136395000Y-77450000D03*
D33*
%TO.P,J101,B9,VBUS*%
%TO.N,+5V*%
X136395000Y-76750000D03*
%TO.P,J101,B12,GND*%
%TO.N,GND*%
X136395000Y-75950000D03*
D35*
%TO.P,J101,S1,SHIELD*%
X135480000Y-74880000D03*
D36*
X131300000Y-74880000D03*
D35*
X135480000Y-83520000D03*
D36*
X131300000Y-83520000D03*
%TD*%
D37*
%TO.N,GND*%
X135550000Y-110325000D03*
X146150000Y-80550000D03*
X146775000Y-110325000D03*
X132400000Y-72900000D03*
X138950000Y-80350000D03*
X146175000Y-78975000D03*
X145400000Y-75590000D03*
X147575000Y-75700000D03*
X149000000Y-110275000D03*
X143925000Y-95650000D03*
X145550000Y-88000000D03*
X138575000Y-89850000D03*
X149450000Y-98900000D03*
X134375000Y-72900000D03*
X140475000Y-78425000D03*
X140700000Y-87800000D03*
X138725000Y-95175000D03*
X130625000Y-72900000D03*
X149450000Y-101400000D03*
X146900000Y-92700000D03*
X144300000Y-79800000D03*
X140675000Y-89850000D03*
X144250000Y-72850000D03*
X130850000Y-110325000D03*
X139675000Y-88850000D03*
X137425000Y-83495500D03*
X133225000Y-110325000D03*
X142525000Y-76875000D03*
X145550000Y-90500000D03*
X138550000Y-87825000D03*
X133950000Y-91400000D03*
X147975000Y-85625000D03*
X130225000Y-99300000D03*
X137750000Y-104200000D03*
%TO.N,+3V3*%
X136833308Y-86117350D03*
X142050500Y-89075000D03*
X137750000Y-91300000D03*
X145450000Y-77500000D03*
X140425000Y-94625000D03*
X133425000Y-87775000D03*
X145400000Y-76600000D03*
X137150500Y-88245911D03*
X147500000Y-78100000D03*
%TO.N,+5V*%
X130100000Y-101525000D03*
X133675000Y-78025000D03*
X133625000Y-79950000D03*
X133650000Y-79000000D03*
X138025000Y-96725000D03*
%TO.N,/BANK1_DIR*%
X146272930Y-83911133D03*
X131225000Y-101550000D03*
%TO.N,/BANK2_DIR*%
X142400000Y-104275000D03*
X146285556Y-84910556D03*
%TO.N,/QSPI_CS*%
X143215283Y-85465282D03*
X141825000Y-91150000D03*
%TD*%
D38*
%TO.N,GND*%
X138250000Y-108825000D02*
X135975000Y-108825000D01*
X142125000Y-108825000D02*
X144475000Y-108825000D01*
X138250000Y-108825000D02*
X142125000Y-108825000D01*
D39*
X138400000Y-103450000D02*
X137850000Y-102900000D01*
X145400000Y-74875000D02*
X146170000Y-74105000D01*
X147100000Y-90625000D02*
X145675000Y-90625000D01*
X139485000Y-78070000D02*
X140120000Y-78070000D01*
X144400000Y-78450000D02*
X144920000Y-78970000D01*
X143375000Y-79800000D02*
X144300000Y-79800000D01*
X144300000Y-79800000D02*
X144920000Y-79180000D01*
D38*
X129890000Y-95650000D02*
X129175000Y-96365000D01*
D39*
X138495000Y-75575000D02*
X138120000Y-75950000D01*
X143087500Y-89850000D02*
X144900000Y-89850000D01*
X144350000Y-87495000D02*
X144350000Y-87175000D01*
X137175000Y-102900000D02*
X137175000Y-103625000D01*
X146175000Y-78975000D02*
X146170000Y-78970000D01*
X135480000Y-83520000D02*
X135480000Y-83365000D01*
X144955000Y-86570000D02*
X146145000Y-86570000D01*
D38*
X131050000Y-98525000D02*
X131325000Y-98250000D01*
D39*
X137175000Y-103625000D02*
X137750000Y-104200000D01*
X136395000Y-82450000D02*
X137367500Y-82450000D01*
X138532500Y-83535000D02*
X138492500Y-83575000D01*
X142875000Y-77225000D02*
X142525000Y-76875000D01*
X142975000Y-82015000D02*
X142975000Y-80200000D01*
D38*
X129175000Y-98125000D02*
X129575000Y-98525000D01*
D39*
X139482500Y-83535000D02*
X138532500Y-83535000D01*
D38*
X144275000Y-97200000D02*
X144275000Y-96000000D01*
D39*
X135480000Y-83520000D02*
X137400500Y-83520000D01*
X141925000Y-97155000D02*
X140680000Y-97155000D01*
X146145000Y-86570000D02*
X146145000Y-87405000D01*
X142875000Y-77795000D02*
X142875000Y-77225000D01*
X146145000Y-80570000D02*
X146145000Y-80555000D01*
X146150000Y-80550000D02*
X146145000Y-80545000D01*
D38*
X129575000Y-98525000D02*
X131050000Y-98525000D01*
D39*
X133930000Y-93000000D02*
X133930000Y-91420000D01*
D38*
X129890000Y-95650000D02*
X129890000Y-94675000D01*
D39*
X137400500Y-83520000D02*
X137425000Y-83495500D01*
X144350000Y-87175000D02*
X144955000Y-86570000D01*
D38*
X131325000Y-98250000D02*
X131325000Y-97175000D01*
D39*
X138495000Y-75575000D02*
X137800000Y-74880000D01*
X138120000Y-75950000D02*
X136395000Y-75950000D01*
X148630000Y-86280000D02*
X148630000Y-86850000D01*
X145675000Y-90625000D02*
X145550000Y-90500000D01*
X144900000Y-89850000D02*
X145550000Y-90500000D01*
X139455000Y-77045000D02*
X139455000Y-78040000D01*
D38*
X150125000Y-97200000D02*
X150125000Y-98225000D01*
D39*
X143087500Y-89850000D02*
X140675000Y-89850000D01*
X137175000Y-96691116D02*
X138691116Y-95175000D01*
X142875000Y-77795000D02*
X143745000Y-77795000D01*
X145400000Y-75590000D02*
X144400000Y-75590000D01*
X144920000Y-78970000D02*
X146175000Y-78975000D01*
X140120000Y-78070000D02*
X140475000Y-78425000D01*
X145400000Y-75590000D02*
X145400000Y-74875000D01*
X137800000Y-74880000D02*
X135480000Y-74880000D01*
X142975000Y-80200000D02*
X143375000Y-79800000D01*
X139455000Y-78040000D02*
X139485000Y-78070000D01*
X147975000Y-85625000D02*
X148630000Y-86280000D01*
X144920000Y-79180000D02*
X144920000Y-78970000D01*
X146145000Y-87405000D02*
X145550000Y-88000000D01*
D38*
X144275000Y-96000000D02*
X143925000Y-95650000D01*
D39*
X146145000Y-80555000D02*
X146150000Y-80550000D01*
X137850000Y-102900000D02*
X137175000Y-102900000D01*
X146145000Y-78995000D02*
X146170000Y-78970000D01*
X137175000Y-97175000D02*
X137175000Y-96691116D01*
X146170000Y-74105000D02*
X146170000Y-72970000D01*
X137175000Y-102900000D02*
X136525000Y-102900000D01*
D38*
X150125000Y-102925000D02*
X150125000Y-102075000D01*
D39*
X143550000Y-82590000D02*
X142975000Y-82015000D01*
X143745000Y-77795000D02*
X144400000Y-78450000D01*
X142550000Y-83550000D02*
X142590000Y-83550000D01*
X138715000Y-103450000D02*
X138400000Y-103450000D01*
D38*
X150125000Y-102075000D02*
X149450000Y-101400000D01*
D39*
X142590000Y-83550000D02*
X143550000Y-82590000D01*
X140675000Y-89850000D02*
X140650000Y-89850000D01*
D38*
X129175000Y-96365000D02*
X129175000Y-98125000D01*
D39*
X137367500Y-82450000D02*
X138492500Y-83575000D01*
X135480000Y-83365000D02*
X136395000Y-82450000D01*
X133930000Y-91420000D02*
X133950000Y-91400000D01*
X138691116Y-95175000D02*
X138725000Y-95175000D01*
D38*
X150125000Y-98225000D02*
X149450000Y-98900000D01*
D39*
%TO.N,Net-(U102-XIN)*%
X149205000Y-92175000D02*
X149205000Y-91030000D01*
X149205000Y-91030000D02*
X148800000Y-90625000D01*
X147625000Y-89450000D02*
X148800000Y-90625000D01*
X143087500Y-89450000D02*
X147625000Y-89450000D01*
%TO.N,Net-(U102-XOUT)*%
X147100000Y-87420000D02*
X147670000Y-86850000D01*
X147100000Y-88425000D02*
X147100000Y-87420000D01*
X146475000Y-89050000D02*
X147100000Y-88425000D01*
X143087500Y-89050000D02*
X146475000Y-89050000D01*
%TO.N,/USBD_P*%
X140465000Y-82575000D02*
X140500000Y-82540000D01*
X138962500Y-81295000D02*
X138962500Y-82055000D01*
X135257500Y-79162500D02*
X135257500Y-79737500D01*
X137625000Y-79950000D02*
X137900000Y-80225000D01*
X135470000Y-79950000D02*
X136395000Y-79950000D01*
X135470000Y-78950000D02*
X135257500Y-79162500D01*
X137900000Y-80546041D02*
X138648959Y-81295000D01*
X137900000Y-80225000D02*
X137900000Y-80546041D01*
X138648959Y-81295000D02*
X138962500Y-81295000D01*
X138962500Y-82055000D02*
X139482500Y-82575000D01*
X139482500Y-82575000D02*
X140465000Y-82575000D01*
X136395000Y-79950000D02*
X137625000Y-79950000D01*
X135257500Y-79737500D02*
X135470000Y-79950000D01*
X136395000Y-78950000D02*
X135470000Y-78950000D01*
%TO.N,/USBD_N*%
X136395000Y-78450000D02*
X137537500Y-78450000D01*
X140007586Y-81507586D02*
X140370000Y-81870000D01*
X137537500Y-79450000D02*
X136395000Y-79450000D01*
X140007586Y-80126545D02*
X140007586Y-81507586D01*
X140370000Y-81870000D02*
X140830000Y-81870000D01*
X140830000Y-81870000D02*
X141525000Y-82565000D01*
X138962500Y-79395000D02*
X139276041Y-79395000D01*
X142525000Y-82565000D02*
X142550000Y-82590000D01*
X139276041Y-79395000D02*
X140007586Y-80126545D01*
X137775000Y-79212500D02*
X137537500Y-79450000D01*
X137957500Y-79395000D02*
X137775000Y-79212500D01*
X137537500Y-78450000D02*
X137775000Y-78687500D01*
X138962500Y-79395000D02*
X137957500Y-79395000D01*
X141525000Y-82565000D02*
X142525000Y-82565000D01*
X137775000Y-78687500D02*
X137775000Y-79212500D01*
%TO.N,+3V3*%
X140675000Y-96195000D02*
X141675000Y-96195000D01*
X136892268Y-86117350D02*
X136904809Y-86104809D01*
X141675000Y-96195000D02*
X141895000Y-96195000D01*
X130850000Y-94675000D02*
X130887500Y-94712500D01*
X141895000Y-96195000D02*
X142900000Y-97200000D01*
X140650000Y-85412500D02*
X140650000Y-84625000D01*
X130850000Y-94675000D02*
X130850000Y-95650000D01*
X140675000Y-96195000D02*
X140425000Y-95945000D01*
X140650000Y-85909619D02*
X140650000Y-85412500D01*
X130675000Y-95825000D02*
X130850000Y-95650000D01*
D40*
X145440000Y-77490000D02*
X145450000Y-77500000D01*
X142875000Y-75895000D02*
X143530000Y-76550000D01*
D39*
X133425000Y-87775000D02*
X131670000Y-87775000D01*
X131670000Y-87775000D02*
X130120000Y-86225000D01*
D40*
X144400000Y-76550000D02*
X145350000Y-76550000D01*
D39*
X141149975Y-84455000D02*
X141454974Y-84150000D01*
D40*
X143530000Y-76550000D02*
X144400000Y-76550000D01*
D39*
X143087500Y-88650000D02*
X144155000Y-88650000D01*
X140434619Y-86125000D02*
X140650000Y-85909619D01*
X136904809Y-86104809D02*
X137050000Y-85959619D01*
X136759619Y-86250000D02*
X136904809Y-86104809D01*
X136212500Y-88250000D02*
X136212500Y-88650000D01*
X140820000Y-84455000D02*
X141149975Y-84455000D01*
X136904809Y-86104809D02*
X136925000Y-86125000D01*
X142950000Y-84150000D02*
X143550000Y-83550000D01*
X130887500Y-94712500D02*
X135281556Y-94712500D01*
X130675000Y-97175000D02*
X130675000Y-95825000D01*
X136925000Y-86125000D02*
X140434619Y-86125000D01*
X142900000Y-97200000D02*
X143400000Y-97200000D01*
X147510000Y-78110000D02*
X147500000Y-78100000D01*
X130120000Y-86225000D02*
X130120000Y-85700000D01*
X144155000Y-88650000D02*
X144350000Y-88455000D01*
X137050000Y-92944056D02*
X137050000Y-92287500D01*
D40*
X145350000Y-76550000D02*
X145400000Y-76600000D01*
D39*
X137050000Y-92287500D02*
X137050000Y-91861091D01*
X142475500Y-88650000D02*
X142050500Y-89075000D01*
X140650000Y-94400000D02*
X140425000Y-94625000D01*
X135281556Y-94712500D02*
X137050000Y-92944056D01*
X136212500Y-86250000D02*
X136759619Y-86250000D01*
X147510000Y-79220000D02*
X147510000Y-78110000D01*
X137611091Y-91300000D02*
X137750000Y-91300000D01*
D40*
X144400000Y-77490000D02*
X145440000Y-77490000D01*
X144400000Y-77490000D02*
X144400000Y-76550000D01*
D39*
X137050000Y-91861091D02*
X137611091Y-91300000D01*
X140650000Y-84625000D02*
X140820000Y-84455000D01*
X141454974Y-84150000D02*
X142950000Y-84150000D01*
X136833308Y-86117350D02*
X136892268Y-86117350D01*
X137050000Y-85959619D02*
X137050000Y-85412500D01*
X140650000Y-92287500D02*
X140650000Y-94400000D01*
X143087500Y-88650000D02*
X142475500Y-88650000D01*
X136212500Y-86650000D02*
X136212500Y-86250000D01*
X137150500Y-88245911D02*
X136616589Y-88245911D01*
X140425000Y-95945000D02*
X140425000Y-95050000D01*
D38*
X130025000Y-97175000D02*
X130675000Y-97175000D01*
D41*
%TO.N,+5V*%
X133657500Y-78875000D02*
X133657500Y-77975000D01*
X133607500Y-78925000D02*
X133657500Y-78875000D01*
X135260660Y-81340000D02*
X134172500Y-81340000D01*
X134247500Y-77060000D02*
X135260660Y-77060000D01*
D39*
X142975000Y-102925000D02*
X142955000Y-102905000D01*
X139575000Y-102237500D02*
X139575000Y-103350000D01*
X139575000Y-98162500D02*
X139575000Y-102237500D01*
D41*
X134172500Y-81340000D02*
X133657500Y-80825000D01*
D39*
X141000000Y-77675000D02*
X141000000Y-76845000D01*
X140615000Y-103450000D02*
X139675000Y-103450000D01*
D41*
X133657500Y-77975000D02*
X133632500Y-77950000D01*
D39*
X140650000Y-102237500D02*
X140650000Y-103415000D01*
X142132170Y-79693160D02*
X142132170Y-78807170D01*
D40*
X138495000Y-77045000D02*
X138495000Y-76757807D01*
D39*
X141480330Y-80345000D02*
X142132170Y-79693160D01*
X138025000Y-96725000D02*
X138137500Y-96725000D01*
D41*
X135570660Y-81650000D02*
X135260660Y-81340000D01*
X136395000Y-81650000D02*
X135570660Y-81650000D01*
X133632500Y-77950000D02*
X133657500Y-77925000D01*
D40*
X136395000Y-76750000D02*
X137650000Y-76750000D01*
D41*
X133582500Y-79875000D02*
X133657500Y-79800000D01*
D40*
X138495000Y-76757807D02*
X139455000Y-75797807D01*
X137945000Y-77045000D02*
X138495000Y-77045000D01*
D39*
X138137500Y-96725000D02*
X139575000Y-98162500D01*
X140650000Y-98162500D02*
X139575000Y-98162500D01*
X140650000Y-103415000D02*
X140615000Y-103450000D01*
D40*
X140495000Y-76845000D02*
X141000000Y-76845000D01*
X139455000Y-75797807D02*
X139455000Y-75575000D01*
D39*
X130025000Y-102900000D02*
X130025000Y-104245000D01*
X139575000Y-103350000D02*
X139675000Y-103450000D01*
D41*
X133657500Y-80825000D02*
X133657500Y-79950000D01*
D39*
X129845000Y-105400000D02*
X129870000Y-105425000D01*
X130025000Y-101600000D02*
X130100000Y-101525000D01*
X141160000Y-102905000D02*
X140615000Y-103450000D01*
D41*
X135260660Y-77060000D02*
X135570660Y-76750000D01*
D39*
X141237500Y-80345000D02*
X141480330Y-80345000D01*
X140650000Y-98162500D02*
X140650000Y-102237500D01*
D41*
X133657500Y-77650000D02*
X134247500Y-77060000D01*
X133657500Y-79950000D02*
X133582500Y-79875000D01*
X133657500Y-78975000D02*
X133607500Y-78925000D01*
D39*
X130025000Y-104245000D02*
X129845000Y-104425000D01*
D40*
X137650000Y-76750000D02*
X137945000Y-77045000D01*
X139455000Y-75805000D02*
X140495000Y-76845000D01*
D39*
X142132170Y-78807170D02*
X141000000Y-77675000D01*
D41*
X133657500Y-79800000D02*
X133657500Y-78975000D01*
X135570660Y-76750000D02*
X136395000Y-76750000D01*
D39*
X142955000Y-102905000D02*
X141160000Y-102905000D01*
X130025000Y-102900000D02*
X130025000Y-101600000D01*
D40*
X139455000Y-75575000D02*
X139455000Y-75805000D01*
D41*
X133657500Y-77925000D02*
X133657500Y-77650000D01*
D39*
X129845000Y-104425000D02*
X129845000Y-105400000D01*
%TO.N,Net-(J101-CC1)*%
X136395000Y-77950000D02*
X138345000Y-77950000D01*
X138345000Y-77950000D02*
X138465000Y-78070000D01*
%TO.N,Net-(J101-CC2)*%
X137950000Y-81412500D02*
X137950000Y-82012500D01*
X137487500Y-80950000D02*
X137950000Y-81412500D01*
X136395000Y-80950000D02*
X137487500Y-80950000D01*
X137950000Y-82012500D02*
X138492500Y-82555000D01*
%TO.N,/IO4*%
X134861091Y-104312500D02*
X135679719Y-104312500D01*
X138575000Y-100737500D02*
X135611091Y-100737500D01*
X138450000Y-107082781D02*
X138450000Y-108225000D01*
X135679719Y-104312500D02*
X138450000Y-107082781D01*
X133925000Y-102423591D02*
X133925000Y-102900000D01*
X133925000Y-102900000D02*
X133925000Y-103376409D01*
X133925000Y-103376409D02*
X134861091Y-104312500D01*
X135611091Y-100737500D02*
X133925000Y-102423591D01*
%TO.N,/IO5*%
X138850000Y-107129227D02*
X138850000Y-108225000D01*
X134575000Y-103376409D02*
X135261091Y-104062500D01*
X135783273Y-104062500D02*
X138850000Y-107129227D01*
X134575000Y-102423591D02*
X134575000Y-102900000D01*
X138575000Y-101237500D02*
X135761091Y-101237500D01*
X134575000Y-102900000D02*
X134575000Y-103376409D01*
X135261091Y-104062500D02*
X135783273Y-104062500D01*
X135761091Y-101237500D02*
X134575000Y-102423591D01*
%TO.N,/IO6*%
X135961091Y-101687500D02*
X135225000Y-102423591D01*
X135225000Y-102900000D02*
X135225000Y-103376409D01*
X135661091Y-103812500D02*
X135886827Y-103812500D01*
X139250000Y-107175673D02*
X139250000Y-108225000D01*
X135225000Y-103376409D02*
X135661091Y-103812500D01*
X135886827Y-103812500D02*
X139250000Y-107175673D01*
X135225000Y-102423591D02*
X135225000Y-102900000D01*
X138575000Y-101737500D02*
X138525000Y-101687500D01*
X138525000Y-101687500D02*
X135961091Y-101687500D01*
%TO.N,/IO7*%
X135875000Y-102900000D02*
X135875000Y-103447119D01*
X137709619Y-102237500D02*
X137409619Y-101937500D01*
X139650000Y-107222119D02*
X139650000Y-108225000D01*
X135875000Y-102352881D02*
X135875000Y-102900000D01*
X135875000Y-103447119D02*
X139650000Y-107222119D01*
X136290381Y-101937500D02*
X135875000Y-102352881D01*
X138575000Y-102237500D02*
X137709619Y-102237500D01*
X137409619Y-101937500D02*
X136290381Y-101937500D01*
%TO.N,/xIO7*%
X140237500Y-111837500D02*
X140187500Y-111787500D01*
X140187500Y-111192628D02*
X139650000Y-110655128D01*
X140187500Y-111787500D02*
X140187500Y-111192628D01*
X140237500Y-112655000D02*
X140237500Y-111837500D01*
X139650000Y-110655128D02*
X139650000Y-109425000D01*
%TO.N,/xIO6*%
X139737500Y-111237602D02*
X139250000Y-110750102D01*
X139250000Y-110750102D02*
X139250000Y-109425000D01*
X139737500Y-112655000D02*
X139737500Y-111237602D01*
%TO.N,/xIO5*%
X139237500Y-112084987D02*
X139187500Y-112034987D01*
X139237500Y-112655000D02*
X139237500Y-112084987D01*
X139187500Y-112034987D02*
X139187500Y-111182576D01*
X139187500Y-111182576D02*
X138850000Y-110845076D01*
X138850000Y-110845076D02*
X138850000Y-109425000D01*
%TO.N,/xIO4*%
X138450000Y-110940050D02*
X138450000Y-109425000D01*
X138737500Y-112655000D02*
X138737500Y-111227550D01*
X138737500Y-111227550D02*
X138450000Y-110940050D01*
%TO.N,/IO8*%
X144275000Y-103700000D02*
X144275000Y-102925000D01*
X141650000Y-102237500D02*
X142337500Y-102237500D01*
X142337500Y-102237500D02*
X142612500Y-101962500D01*
X142612500Y-101962500D02*
X143837500Y-101962500D01*
X143837500Y-101962500D02*
X144275000Y-102400000D01*
X144275000Y-102400000D02*
X144275000Y-102925000D01*
X140725000Y-107250000D02*
X144275000Y-103700000D01*
X140725000Y-108225000D02*
X140725000Y-107250000D01*
%TO.N,/IO9*%
X141650000Y-101737500D02*
X141675000Y-101712500D01*
X144262500Y-101712500D02*
X144925000Y-102375000D01*
X141675000Y-101712500D02*
X144262500Y-101712500D01*
X144925000Y-102375000D02*
X144925000Y-102925000D01*
X141125000Y-108225000D02*
X141125000Y-107203554D01*
X144925000Y-103403554D02*
X144925000Y-102925000D01*
X141125000Y-107203554D02*
X144925000Y-103403554D01*
%TO.N,/IO10*%
X141525000Y-108225000D02*
X141525000Y-107157108D01*
X141650000Y-101237500D02*
X144437500Y-101237500D01*
X145575000Y-103401409D02*
X145575000Y-102925000D01*
X144437500Y-101237500D02*
X145575000Y-102375000D01*
X144888909Y-104087500D02*
X145575000Y-103401409D01*
X141525000Y-107157108D02*
X144594608Y-104087500D01*
X145575000Y-102375000D02*
X145575000Y-102925000D01*
X144594608Y-104087500D02*
X144888909Y-104087500D01*
%TO.N,/IO11*%
X144698162Y-104337500D02*
X145288909Y-104337500D01*
X141925000Y-107110662D02*
X144698162Y-104337500D01*
X144537500Y-100737500D02*
X146225000Y-102425000D01*
X141650000Y-100737500D02*
X144537500Y-100737500D01*
X146225000Y-103401409D02*
X146225000Y-102925000D01*
X141925000Y-108225000D02*
X141925000Y-107110662D01*
X145288909Y-104337500D02*
X146225000Y-103401409D01*
X146225000Y-102425000D02*
X146225000Y-102925000D01*
%TO.N,/xIO11*%
X142237500Y-111262731D02*
X141925000Y-110950231D01*
X141925000Y-110950231D02*
X141925000Y-109425000D01*
X142237500Y-112655000D02*
X142237500Y-111262731D01*
%TO.N,/xIO10*%
X141525000Y-111045205D02*
X141525000Y-109425000D01*
X141737500Y-112655000D02*
X141737500Y-111257705D01*
X141737500Y-111257705D02*
X141525000Y-111045205D01*
%TO.N,/xIO9*%
X141125000Y-111140179D02*
X141125000Y-109425000D01*
X141237500Y-111737500D02*
X141187500Y-111687500D01*
X141237500Y-112655000D02*
X141237500Y-111737500D01*
X141187500Y-111687500D02*
X141187500Y-111202679D01*
X141187500Y-111202679D02*
X141125000Y-111140179D01*
%TO.N,/xIO8*%
X140737500Y-112655000D02*
X140737500Y-111247654D01*
X140725000Y-111235154D02*
X140725000Y-109425000D01*
X140737500Y-111247654D02*
X140725000Y-111235154D01*
%TO.N,/IO12*%
X146875000Y-102400000D02*
X146875000Y-102925000D01*
X142325000Y-107064216D02*
X144801716Y-104587500D01*
X146875000Y-103401409D02*
X146875000Y-102925000D01*
X142325000Y-108225000D02*
X142325000Y-107064216D01*
X141650000Y-99662500D02*
X144137500Y-99662500D01*
X144801716Y-104587500D02*
X145688909Y-104587500D01*
X144137500Y-99662500D02*
X146875000Y-102400000D01*
X145688909Y-104587500D02*
X146875000Y-103401409D01*
%TO.N,/IO13*%
X142725000Y-108225000D02*
X142725000Y-107017770D01*
X144905270Y-104837500D02*
X146088909Y-104837500D01*
X146088909Y-104837500D02*
X147525000Y-103401409D01*
X144287500Y-99162500D02*
X147525000Y-102400000D01*
X141650000Y-99162500D02*
X144287500Y-99162500D01*
X147525000Y-102400000D02*
X147525000Y-102925000D01*
X142725000Y-107017770D02*
X144905270Y-104837500D01*
X147525000Y-103401409D02*
X147525000Y-102925000D01*
%TO.N,/IO14*%
X148175000Y-102425000D02*
X148175000Y-102925000D01*
X143125000Y-108225000D02*
X143125000Y-106971324D01*
X148175000Y-103401409D02*
X148175000Y-102925000D01*
X141650000Y-98662500D02*
X144412500Y-98662500D01*
X144412500Y-98662500D02*
X148175000Y-102425000D01*
X143125000Y-106971324D02*
X145008824Y-105087500D01*
X145008824Y-105087500D02*
X146488909Y-105087500D01*
X146488909Y-105087500D02*
X148175000Y-103401409D01*
%TO.N,/IO15*%
X144587500Y-98162500D02*
X148825000Y-102400000D01*
X143525000Y-108225000D02*
X143525000Y-106924878D01*
X143525000Y-106924878D02*
X145112378Y-105337500D01*
X141650000Y-98162500D02*
X144587500Y-98162500D01*
X148825000Y-103401409D02*
X148825000Y-102925000D01*
X145112378Y-105337500D02*
X146888909Y-105337500D01*
X146888909Y-105337500D02*
X148825000Y-103401409D01*
X148825000Y-102400000D02*
X148825000Y-102925000D01*
%TO.N,/xIO15*%
X144237500Y-111282835D02*
X143525000Y-110570335D01*
X144237500Y-112655000D02*
X144237500Y-111282835D01*
X143525000Y-110570335D02*
X143525000Y-109425000D01*
%TO.N,/xIO14*%
X143737500Y-111277809D02*
X143125000Y-110665309D01*
X143125000Y-110665309D02*
X143125000Y-109425000D01*
X143737500Y-112655000D02*
X143737500Y-111277809D01*
%TO.N,/xIO13*%
X143187500Y-111222783D02*
X142725000Y-110760283D01*
X143237500Y-112655000D02*
X143237500Y-112137500D01*
X143237500Y-112137500D02*
X143187500Y-112087500D01*
X142725000Y-110760283D02*
X142725000Y-109425000D01*
X143187500Y-112087500D02*
X143187500Y-111222783D01*
%TO.N,/xIO12*%
X142737500Y-111267757D02*
X142325000Y-110855257D01*
X142737500Y-112655000D02*
X142737500Y-111267757D01*
X142325000Y-110855257D02*
X142325000Y-109425000D01*
%TO.N,/IO0*%
X135586091Y-98162500D02*
X131325000Y-102423591D01*
X138575000Y-98162500D02*
X135586091Y-98162500D01*
X136850000Y-108225000D02*
X136850000Y-106896997D01*
X135265503Y-105312500D02*
X133261091Y-105312500D01*
X131325000Y-103376409D02*
X131325000Y-102900000D01*
X136850000Y-106896997D02*
X135265503Y-105312500D01*
X131325000Y-102423591D02*
X131325000Y-102900000D01*
X133261091Y-105312500D02*
X131325000Y-103376409D01*
%TO.N,/IO1*%
X131975000Y-102423591D02*
X131975000Y-102900000D01*
X137250000Y-108225000D02*
X137250000Y-106943443D01*
X135736091Y-98662500D02*
X131975000Y-102423591D01*
X137250000Y-106943443D02*
X135369057Y-105062500D01*
X135369057Y-105062500D02*
X133661091Y-105062500D01*
X131975000Y-103376409D02*
X131975000Y-102900000D01*
X138575000Y-98662500D02*
X135736091Y-98662500D01*
X133661091Y-105062500D02*
X131975000Y-103376409D01*
%TO.N,/IO2*%
X137650000Y-106989889D02*
X135472611Y-104812500D01*
X132625000Y-103376409D02*
X132625000Y-102900000D01*
X135886091Y-99162500D02*
X132625000Y-102423591D01*
X135472611Y-104812500D02*
X134061091Y-104812500D01*
X138575000Y-99162500D02*
X135886091Y-99162500D01*
X137650000Y-108225000D02*
X137650000Y-106989889D01*
X132625000Y-102423591D02*
X132625000Y-102900000D01*
X134061091Y-104812500D02*
X132625000Y-103376409D01*
%TO.N,/IO3*%
X136036091Y-99662500D02*
X133275000Y-102423591D01*
X133275000Y-103376409D02*
X134461091Y-104562500D01*
X134461091Y-104562500D02*
X135576165Y-104562500D01*
X133275000Y-102423591D02*
X133275000Y-102900000D01*
X138575000Y-99662500D02*
X136036091Y-99662500D01*
X135576165Y-104562500D02*
X138050000Y-107036335D01*
X138050000Y-107036335D02*
X138050000Y-108225000D01*
X133275000Y-102900000D02*
X133275000Y-103376409D01*
%TO.N,/xIO3*%
X138237500Y-112655000D02*
X138237500Y-111222525D01*
X138050000Y-111035025D02*
X138050000Y-109425000D01*
X138237500Y-111222525D02*
X138050000Y-111035025D01*
%TO.N,/xIO2*%
X137737500Y-112655000D02*
X137737500Y-111217500D01*
X137650000Y-111130000D02*
X137650000Y-109425000D01*
X137737500Y-111217500D02*
X137650000Y-111130000D01*
%TO.N,/xIO1*%
X137237500Y-112655000D02*
X137250000Y-112642500D01*
X137250000Y-112642500D02*
X137250000Y-109425000D01*
%TO.N,/xIO0*%
X136737500Y-112655000D02*
X136737500Y-111242500D01*
X136850000Y-111130000D02*
X136850000Y-109425000D01*
X136737500Y-111242500D02*
X136850000Y-111130000D01*
%TO.N,Net-(R101-Pad1)*%
X149645000Y-80320000D02*
X149895000Y-80570000D01*
X148530000Y-80320000D02*
X149645000Y-80320000D01*
%TO.N,Net-(U102-USB_DP)*%
X136568516Y-84295000D02*
X135930000Y-84295000D01*
X135930000Y-84295000D02*
X135100000Y-85125000D01*
X135100000Y-87329593D02*
X135620407Y-87850000D01*
X135620407Y-87850000D02*
X136212500Y-87850000D01*
X135100000Y-85125000D02*
X135100000Y-87329593D01*
X136743516Y-84120000D02*
X136568516Y-84295000D01*
X139940000Y-84120000D02*
X136743516Y-84120000D01*
X140500000Y-83560000D02*
X139940000Y-84120000D01*
%TO.N,Net-(U102-USB_DM)*%
X140449974Y-84105000D02*
X140084974Y-84470000D01*
X136888491Y-84470000D02*
X136713491Y-84645000D01*
X135715381Y-87450000D02*
X136212500Y-87450000D01*
X136713491Y-84645000D02*
X136074974Y-84645000D01*
X140084974Y-84470000D02*
X136888491Y-84470000D01*
X135450000Y-87184619D02*
X135715381Y-87450000D01*
X136074974Y-84645000D02*
X135450000Y-85269974D01*
X141525000Y-83585000D02*
X141005000Y-84105000D01*
X141005000Y-84105000D02*
X140449974Y-84105000D01*
X135450000Y-85269974D02*
X135450000Y-87184619D01*
%TO.N,Net-(U102-RUN)*%
X143087500Y-87050000D02*
X143725000Y-87050000D01*
X145175000Y-85600000D02*
X146550000Y-85600000D01*
X150700000Y-79750000D02*
X149920000Y-78970000D01*
X148530000Y-79220000D02*
X149670000Y-79220000D01*
X146550000Y-85600000D02*
X150700000Y-81450000D01*
X149670000Y-79220000D02*
X149920000Y-78970000D01*
X150700000Y-81450000D02*
X150700000Y-79750000D01*
X143725000Y-87050000D02*
X145175000Y-85600000D01*
%TO.N,/BANK1_DIR*%
X144889645Y-84850000D02*
X143489645Y-86250000D01*
X130750000Y-102975000D02*
X130750000Y-104310000D01*
X130675000Y-102100000D02*
X130675000Y-102900000D01*
X146272930Y-83911133D02*
X145334063Y-84850000D01*
X143489645Y-86250000D02*
X143087500Y-86250000D01*
X131225000Y-101550000D02*
X130675000Y-102100000D01*
X130675000Y-102900000D02*
X130750000Y-102975000D01*
X145334063Y-84850000D02*
X144889645Y-84850000D01*
X130750000Y-104310000D02*
X130865000Y-104425000D01*
%TO.N,/BANK2_DIR*%
X143584619Y-86650000D02*
X143087500Y-86650000D01*
X146285556Y-84910556D02*
X145996112Y-85200000D01*
X143625000Y-102925000D02*
X143625000Y-103472119D01*
X145034619Y-85200000D02*
X143584619Y-86650000D01*
X142400000Y-104215000D02*
X141635000Y-103450000D01*
X143625000Y-103472119D02*
X142822119Y-104275000D01*
X142822119Y-104275000D02*
X142400000Y-104275000D01*
X142400000Y-104275000D02*
X142400000Y-104215000D01*
X145996112Y-85200000D02*
X145034619Y-85200000D01*
%TO.N,/GPIO0*%
X131975000Y-96350000D02*
X133312500Y-95012500D01*
X137450000Y-92968320D02*
X137450000Y-92287500D01*
X133312500Y-95012500D02*
X135405820Y-95012500D01*
X131975000Y-97175000D02*
X131975000Y-96350000D01*
X135405820Y-95012500D02*
X137450000Y-92968320D01*
%TO.N,/GPIO1*%
X135509374Y-95262500D02*
X137850000Y-92921874D01*
X137850000Y-92921874D02*
X137850000Y-92287500D01*
X132625000Y-96402145D02*
X133764645Y-95262500D01*
X133764645Y-95262500D02*
X135509374Y-95262500D01*
X132625000Y-97175000D02*
X132625000Y-96402145D01*
%TO.N,/GPIO2*%
X134062500Y-95512500D02*
X135612928Y-95512500D01*
X135612928Y-95512500D02*
X138250000Y-92875428D01*
X133275000Y-97175000D02*
X133275000Y-96300000D01*
X138250000Y-92875428D02*
X138250000Y-92287500D01*
X133275000Y-96300000D02*
X134062500Y-95512500D01*
%TO.N,/GPIO3*%
X135716482Y-95762500D02*
X138650000Y-92828982D01*
X133925000Y-96275000D02*
X134437500Y-95762500D01*
X134437500Y-95762500D02*
X135716482Y-95762500D01*
X138650000Y-92828982D02*
X138650000Y-92287500D01*
X133925000Y-97175000D02*
X133925000Y-96275000D01*
%TO.N,/GPIO4*%
X134575000Y-97175000D02*
X134575000Y-96325000D01*
X139050000Y-92782536D02*
X139050000Y-92287500D01*
X135820036Y-96012500D02*
X139050000Y-92782536D01*
X134575000Y-96325000D02*
X134887500Y-96012500D01*
X134887500Y-96012500D02*
X135820036Y-96012500D01*
%TO.N,/GPIO5*%
X135923590Y-96262500D02*
X139450000Y-92736090D01*
X135225000Y-96698591D02*
X135661091Y-96262500D01*
X135225000Y-97175000D02*
X135225000Y-96698591D01*
X135661091Y-96262500D02*
X135923590Y-96262500D01*
X139450000Y-92736090D02*
X139450000Y-92287500D01*
%TO.N,/GPIO6*%
X135875000Y-97175000D02*
X135875000Y-96664644D01*
X135875000Y-96664644D02*
X139850000Y-92689644D01*
X139850000Y-92689644D02*
X139850000Y-92287500D01*
%TO.N,/GPIO7*%
X140250000Y-92643198D02*
X140250000Y-92287500D01*
X136525000Y-96368198D02*
X140250000Y-92643198D01*
X136525000Y-97175000D02*
X136525000Y-96368198D01*
%TO.N,/GPIO8*%
X143381802Y-94975000D02*
X144658639Y-94975000D01*
X144658639Y-94975000D02*
X144925000Y-95241361D01*
X141050000Y-92643198D02*
X143381802Y-94975000D01*
X144925000Y-95241361D02*
X144925000Y-97200000D01*
X141050000Y-92287500D02*
X141050000Y-92643198D01*
%TO.N,/GPIO9*%
X145575000Y-95537807D02*
X145575000Y-97200000D01*
X144737193Y-94700000D02*
X145575000Y-95537807D01*
X143506802Y-94700000D02*
X144737193Y-94700000D01*
X141450000Y-92643198D02*
X143506802Y-94700000D01*
X141450000Y-92287500D02*
X141450000Y-92643198D01*
%TO.N,/GPIO10*%
X144840747Y-94450000D02*
X146225000Y-95834253D01*
X141850000Y-92287500D02*
X141850000Y-92643198D01*
X143656802Y-94450000D02*
X144840747Y-94450000D01*
X141850000Y-92643198D02*
X143656802Y-94450000D01*
X146225000Y-95834253D02*
X146225000Y-97200000D01*
%TO.N,/GPIO11*%
X142250000Y-92650000D02*
X143800000Y-94200000D01*
X146875000Y-96130699D02*
X146875000Y-97200000D01*
X143800000Y-94200000D02*
X144944301Y-94200000D01*
X142250000Y-92287500D02*
X142250000Y-92650000D01*
X144944301Y-94200000D02*
X146875000Y-96130699D01*
%TO.N,/GPIO12*%
X143087500Y-91450000D02*
X143087500Y-91989645D01*
X143087500Y-91989645D02*
X147525000Y-96427145D01*
X147525000Y-96427145D02*
X147525000Y-97200000D01*
%TO.N,/GPIO13*%
X143700000Y-92248591D02*
X148175000Y-96723591D01*
X143700000Y-91306802D02*
X143700000Y-92248591D01*
X143087500Y-91050000D02*
X143443198Y-91050000D01*
X148175000Y-96723591D02*
X148175000Y-97200000D01*
X143443198Y-91050000D02*
X143700000Y-91306802D01*
%TO.N,/GPIO14*%
X143443198Y-90650000D02*
X143950000Y-91156802D01*
X148388909Y-96287500D02*
X148825000Y-96723591D01*
X143087500Y-90650000D02*
X143443198Y-90650000D01*
X143950000Y-92145037D02*
X148092463Y-96287500D01*
X143950000Y-91156802D02*
X143950000Y-92145037D01*
X148092463Y-96287500D02*
X148388909Y-96287500D01*
X148825000Y-96723591D02*
X148825000Y-97200000D01*
%TO.N,/GPIO15*%
X148212500Y-96037500D02*
X148788909Y-96037500D01*
X143087500Y-90250000D02*
X143443198Y-90250000D01*
X144200000Y-91006802D02*
X144200000Y-92025000D01*
X143443198Y-90250000D02*
X144200000Y-91006802D01*
X144200000Y-92025000D02*
X148212500Y-96037500D01*
X149475000Y-96723591D02*
X149475000Y-97200000D01*
X148788909Y-96037500D02*
X149475000Y-96723591D01*
%TO.N,Net-(U102-VREG_VOUT)*%
X142200000Y-88250000D02*
X143087500Y-88250000D01*
X137325000Y-89050000D02*
X137775000Y-88600000D01*
X137175000Y-86750000D02*
X141150000Y-86750000D01*
X136212500Y-89050000D02*
X137325000Y-89050000D01*
X136875000Y-87050000D02*
X137175000Y-86750000D01*
X141150000Y-86750000D02*
X141750000Y-87350000D01*
X141750000Y-87800000D02*
X142200000Y-88250000D01*
X141750000Y-87350000D02*
X141750000Y-87800000D01*
X137775000Y-88600000D02*
X137775000Y-87525000D01*
X137775000Y-87525000D02*
X137300000Y-87050000D01*
X137300000Y-87050000D02*
X136875000Y-87050000D01*
X136875000Y-87050000D02*
X136212500Y-87050000D01*
%TO.N,/QSPI_CS*%
X134950000Y-94029264D02*
X134950000Y-92712500D01*
X130670000Y-94075000D02*
X131515736Y-94075000D01*
X131515736Y-94075000D02*
X131815736Y-94375000D01*
X136568198Y-91450000D02*
X137343198Y-90675000D01*
X137343198Y-90675000D02*
X141350000Y-90675000D01*
X143215283Y-85465282D02*
X143734718Y-85465282D01*
X134604264Y-94375000D02*
X134950000Y-94029264D01*
X130120000Y-93000000D02*
X130120000Y-93525000D01*
X143734718Y-85465282D02*
X147510000Y-81690000D01*
X134950000Y-92712500D02*
X136212500Y-91450000D01*
X131815736Y-94375000D02*
X134604264Y-94375000D01*
X141350000Y-90675000D02*
X141825000Y-91150000D01*
X130120000Y-93525000D02*
X130670000Y-94075000D01*
X147510000Y-81690000D02*
X147510000Y-80320000D01*
X136212500Y-91450000D02*
X136568198Y-91450000D01*
%TO.N,/QSPI_D1*%
X131390000Y-93525000D02*
X131990000Y-94125000D01*
X131990000Y-94125000D02*
X134430000Y-94125000D01*
X131390000Y-93000000D02*
X131390000Y-93525000D01*
X134700000Y-92136091D02*
X135786091Y-91050000D01*
X134700000Y-93855000D02*
X134700000Y-92136091D01*
X135786091Y-91050000D02*
X136212500Y-91050000D01*
X134430000Y-94125000D02*
X134700000Y-93855000D01*
%TO.N,/QSPI_D2*%
X132660000Y-91415000D02*
X133425000Y-90650000D01*
X133425000Y-90650000D02*
X136212500Y-90650000D01*
X132660000Y-93000000D02*
X132660000Y-91415000D01*
%TO.N,/QSPI_D0*%
X134175000Y-89274264D02*
X135150736Y-90250000D01*
X135150736Y-90250000D02*
X136212500Y-90250000D01*
X133930000Y-85700000D02*
X134175000Y-85945000D01*
X134175000Y-85945000D02*
X134175000Y-89274264D01*
%TO.N,/QSPI_CLK*%
X132660000Y-85700000D02*
X132660000Y-85175000D01*
X133260000Y-84575000D02*
X134350000Y-84575000D01*
X132660000Y-85175000D02*
X133260000Y-84575000D01*
X134500000Y-84725000D02*
X134500000Y-89175000D01*
X134500000Y-89175000D02*
X135175000Y-89850000D01*
X134350000Y-84575000D02*
X134500000Y-84725000D01*
X135175000Y-89850000D02*
X136212500Y-89850000D01*
%TO.N,/QSPI_D3*%
X134800000Y-89050736D02*
X135199264Y-89450000D01*
X132290000Y-84275000D02*
X134474264Y-84275000D01*
X131390000Y-85175000D02*
X132290000Y-84275000D01*
X134800000Y-84600736D02*
X134800000Y-89050736D01*
X135199264Y-89450000D02*
X136212500Y-89450000D01*
X131390000Y-85700000D02*
X131390000Y-85175000D01*
X134474264Y-84275000D02*
X134800000Y-84600736D01*
%TO.N,Net-(D101-A)*%
X144575000Y-82590000D02*
X144575000Y-81650000D01*
X144575000Y-81650000D02*
X144300000Y-81375000D01*
%TO.N,Net-(U102-GPIO18)*%
X144080000Y-84105000D02*
X144575000Y-83610000D01*
X143557500Y-84105000D02*
X144080000Y-84105000D01*
X142250000Y-85412500D02*
X143557500Y-84105000D01*
%TD*%
%TA.AperFunction,Conductor*%
%TO.N,GND*%
G36*
X150926272Y-98082493D02*
G01*
X150973883Y-98133629D01*
X150987000Y-98189135D01*
X150987000Y-101935864D01*
X150967315Y-102002903D01*
X150914511Y-102048658D01*
X150845353Y-102058602D01*
X150781797Y-102029577D01*
X150754222Y-101991338D01*
X150753163Y-101991950D01*
X150749101Y-101984914D01*
X150652924Y-101859575D01*
X150527586Y-101763399D01*
X150381631Y-101702944D01*
X150325000Y-101695487D01*
X150325000Y-104154510D01*
X150325001Y-104154511D01*
X150381627Y-104147057D01*
X150381633Y-104147055D01*
X150527585Y-104086600D01*
X150652924Y-103990424D01*
X150749101Y-103865085D01*
X150753163Y-103858050D01*
X150754686Y-103858929D01*
X150792279Y-103812280D01*
X150858573Y-103790214D01*
X150926272Y-103807493D01*
X150973883Y-103858629D01*
X150987000Y-103914135D01*
X150987000Y-109695240D01*
X150985466Y-109714686D01*
X150985230Y-109716173D01*
X150984805Y-109718547D01*
X150977302Y-109756264D01*
X150966177Y-109788351D01*
X150962886Y-109794813D01*
X150959187Y-109801124D01*
X150944119Y-109823673D01*
X150928700Y-109842460D01*
X150924960Y-109846200D01*
X150906173Y-109861619D01*
X150883624Y-109876687D01*
X150877318Y-109880382D01*
X150875670Y-109881222D01*
X150870851Y-109883677D01*
X150838764Y-109894802D01*
X150801047Y-109902305D01*
X150798673Y-109902730D01*
X150797186Y-109902966D01*
X150777740Y-109904500D01*
X150520436Y-109904500D01*
X150495937Y-109897306D01*
X150445330Y-109903969D01*
X150437228Y-109904500D01*
X150381104Y-109904500D01*
X150373430Y-109906252D01*
X150349708Y-109904797D01*
X150322441Y-109916092D01*
X150302585Y-109922420D01*
X150271150Y-109929595D01*
X150271147Y-109929596D01*
X150249506Y-109940018D01*
X150223604Y-109944282D01*
X150205026Y-109958538D01*
X150183344Y-109971881D01*
X150169534Y-109978531D01*
X150169527Y-109978536D01*
X150140144Y-110001968D01*
X150113594Y-110012806D01*
X150102378Y-110027424D01*
X150086228Y-110043880D01*
X150086278Y-110043930D01*
X150076430Y-110053778D01*
X150076380Y-110053728D01*
X150059924Y-110069878D01*
X150051257Y-110076527D01*
X150050618Y-110081173D01*
X150034468Y-110107644D01*
X150011036Y-110137027D01*
X150011031Y-110137034D01*
X150004381Y-110150844D01*
X149991038Y-110172526D01*
X149982613Y-110183504D01*
X149982808Y-110185325D01*
X149972518Y-110217006D01*
X149962096Y-110238647D01*
X149962095Y-110238650D01*
X149954920Y-110270085D01*
X149948592Y-110289941D01*
X149941471Y-110307133D01*
X149938752Y-110340930D01*
X149937000Y-110348604D01*
X149937000Y-110404727D01*
X149936469Y-110412828D01*
X149931371Y-110451545D01*
X149937000Y-110487936D01*
X149937000Y-110924713D01*
X149917315Y-110991752D01*
X149864511Y-111037507D01*
X149795353Y-111047451D01*
X149738689Y-111023980D01*
X149713335Y-111005000D01*
X149654831Y-110961204D01*
X149654829Y-110961203D01*
X149654828Y-110961202D01*
X149519986Y-110910910D01*
X149519985Y-110910909D01*
X149519983Y-110910909D01*
X149460373Y-110904500D01*
X149460363Y-110904500D01*
X149014633Y-110904500D01*
X149014621Y-110904501D01*
X149000748Y-110905992D01*
X148974256Y-110905991D01*
X148960389Y-110904501D01*
X148960375Y-110904500D01*
X148960373Y-110904500D01*
X148960370Y-110904500D01*
X148514633Y-110904500D01*
X148514621Y-110904501D01*
X148500748Y-110905992D01*
X148474256Y-110905991D01*
X148460389Y-110904501D01*
X148460375Y-110904500D01*
X148460373Y-110904500D01*
X148460370Y-110904500D01*
X148014633Y-110904500D01*
X148014621Y-110904501D01*
X148000748Y-110905992D01*
X147974256Y-110905991D01*
X147960389Y-110904501D01*
X147960375Y-110904500D01*
X147960373Y-110904500D01*
X147960370Y-110904500D01*
X147514633Y-110904500D01*
X147514621Y-110904501D01*
X147500748Y-110905992D01*
X147474256Y-110905991D01*
X147460389Y-110904501D01*
X147460375Y-110904500D01*
X147460373Y-110904500D01*
X147460370Y-110904500D01*
X147014633Y-110904500D01*
X147014621Y-110904501D01*
X147000748Y-110905992D01*
X146974256Y-110905991D01*
X146960389Y-110904501D01*
X146960375Y-110904500D01*
X146960373Y-110904500D01*
X146960370Y-110904500D01*
X146514629Y-110904500D01*
X146514623Y-110904501D01*
X146455015Y-110910909D01*
X146339652Y-110953936D01*
X146269961Y-110958920D01*
X146208638Y-110925434D01*
X146181759Y-110885206D01*
X146173160Y-110864446D01*
X146166830Y-110844585D01*
X146157891Y-110805420D01*
X146157890Y-110805416D01*
X146157889Y-110805415D01*
X146157889Y-110805412D01*
X146136689Y-110761391D01*
X146132947Y-110738667D01*
X146121400Y-110723618D01*
X146108058Y-110701936D01*
X146099177Y-110683496D01*
X146099175Y-110683493D01*
X146058616Y-110632633D01*
X146049135Y-110609411D01*
X146037866Y-110600764D01*
X146016404Y-110579699D01*
X146014808Y-110577697D01*
X146013946Y-110577010D01*
X146012800Y-110576096D01*
X145991733Y-110554632D01*
X145988423Y-110550318D01*
X145986331Y-110550030D01*
X145959866Y-110533883D01*
X145909007Y-110493325D01*
X145909006Y-110493324D01*
X145909003Y-110493322D01*
X145890565Y-110484443D01*
X145868880Y-110471099D01*
X145862055Y-110465862D01*
X145831105Y-110455808D01*
X145787092Y-110434612D01*
X145787080Y-110434608D01*
X145747912Y-110425669D01*
X145728051Y-110419339D01*
X145713754Y-110413417D01*
X145683589Y-110410988D01*
X145648373Y-110402951D01*
X145648741Y-110401337D01*
X145640769Y-110397986D01*
X145603684Y-110402869D01*
X145571314Y-110402869D01*
X145542710Y-110399103D01*
X145541884Y-110399660D01*
X145526619Y-110402906D01*
X145526629Y-110402950D01*
X145491411Y-110410988D01*
X145470239Y-110409690D01*
X145446943Y-110419340D01*
X145427086Y-110425669D01*
X145387917Y-110434609D01*
X145387911Y-110434611D01*
X145343891Y-110455810D01*
X145321166Y-110459551D01*
X145306113Y-110471102D01*
X145284433Y-110484444D01*
X145265994Y-110493324D01*
X145215134Y-110533883D01*
X145191910Y-110543363D01*
X145183262Y-110554635D01*
X145162205Y-110576091D01*
X145160194Y-110577694D01*
X145158591Y-110579705D01*
X145137135Y-110600762D01*
X145132820Y-110604072D01*
X145132533Y-110606163D01*
X145116383Y-110632634D01*
X145075824Y-110683494D01*
X145066944Y-110701933D01*
X145053602Y-110723613D01*
X145048362Y-110730441D01*
X145038310Y-110761391D01*
X145017111Y-110805411D01*
X145017109Y-110805417D01*
X145008169Y-110844586D01*
X145001840Y-110864443D01*
X144995916Y-110878744D01*
X144993488Y-110908911D01*
X144987000Y-110937333D01*
X144987000Y-110965044D01*
X144967315Y-111032083D01*
X144914511Y-111077838D01*
X144845353Y-111087782D01*
X144781797Y-111058757D01*
X144748439Y-111012496D01*
X144740200Y-110992606D01*
X144740198Y-110992602D01*
X144720916Y-110967473D01*
X144720913Y-110967470D01*
X144714352Y-110958920D01*
X144673740Y-110905992D01*
X144668640Y-110899345D01*
X144668639Y-110899345D01*
X144663996Y-110893294D01*
X144647951Y-110872384D01*
X144647949Y-110872383D01*
X144647949Y-110872382D01*
X144635842Y-110863092D01*
X144620990Y-110851696D01*
X144614900Y-110846355D01*
X144256481Y-110487936D01*
X144136819Y-110368273D01*
X144103334Y-110306950D01*
X144100500Y-110280592D01*
X144100500Y-109804700D01*
X144108318Y-109761366D01*
X144119090Y-109732485D01*
X144119089Y-109732485D01*
X144119091Y-109732483D01*
X144125500Y-109672873D01*
X144125499Y-109177128D01*
X144119091Y-109117517D01*
X144068796Y-108982669D01*
X144050023Y-108957591D01*
X144006394Y-108899310D01*
X143981977Y-108833845D01*
X143996829Y-108765572D01*
X144006394Y-108750689D01*
X144068796Y-108667331D01*
X144119091Y-108532483D01*
X144125500Y-108472873D01*
X144125499Y-107977128D01*
X144119091Y-107917517D01*
X144108317Y-107888632D01*
X144100500Y-107845300D01*
X144100500Y-107214620D01*
X144120185Y-107147581D01*
X144136819Y-107126939D01*
X145314439Y-105949319D01*
X145375762Y-105915834D01*
X145402120Y-105913000D01*
X146847128Y-105913000D01*
X146855226Y-105913530D01*
X146872722Y-105915834D01*
X146888908Y-105917965D01*
X146888909Y-105917965D01*
X146924694Y-105913254D01*
X146924718Y-105913251D01*
X146926624Y-105913000D01*
X146926629Y-105913000D01*
X147039145Y-105898187D01*
X147179142Y-105840198D01*
X147185328Y-105835451D01*
X147269177Y-105771112D01*
X147269177Y-105771111D01*
X147277270Y-105764902D01*
X147277273Y-105764898D01*
X147299360Y-105747951D01*
X147320047Y-105720989D01*
X147325389Y-105714898D01*
X148840970Y-104199317D01*
X148902293Y-104165833D01*
X148928651Y-104162999D01*
X148964362Y-104162999D01*
X148988829Y-104159777D01*
X149081762Y-104147544D01*
X149103200Y-104138663D01*
X149172668Y-104131194D01*
X149198106Y-104138663D01*
X149218365Y-104147054D01*
X149218377Y-104147058D01*
X149274998Y-104154511D01*
X149275000Y-104154510D01*
X149275000Y-104111999D01*
X149294685Y-104044960D01*
X149323512Y-104013625D01*
X149353282Y-103990782D01*
X149449536Y-103865341D01*
X149449536Y-103865339D01*
X149452624Y-103861316D01*
X149509052Y-103820113D01*
X149578798Y-103815958D01*
X149639718Y-103850170D01*
X149672471Y-103911887D01*
X149675000Y-103936802D01*
X149675000Y-104154510D01*
X149675001Y-104154511D01*
X149731622Y-104147058D01*
X149731631Y-104147055D01*
X149752547Y-104138392D01*
X149822017Y-104130923D01*
X149847453Y-104138392D01*
X149868368Y-104147055D01*
X149868377Y-104147058D01*
X149924998Y-104154511D01*
X149925000Y-104154510D01*
X149925000Y-103125000D01*
X149649500Y-103125000D01*
X149582461Y-103105315D01*
X149536706Y-103052511D01*
X149525500Y-103001001D01*
X149525499Y-102849001D01*
X149545183Y-102781961D01*
X149597987Y-102736206D01*
X149649499Y-102725000D01*
X149925000Y-102725000D01*
X149925000Y-101695487D01*
X149868370Y-101702943D01*
X149847449Y-101711609D01*
X149777980Y-101719075D01*
X149752551Y-101711609D01*
X149731629Y-101702943D01*
X149675000Y-101695487D01*
X149675000Y-101913197D01*
X149655315Y-101980236D01*
X149602511Y-102025991D01*
X149533353Y-102035935D01*
X149469797Y-102006910D01*
X149452624Y-101988684D01*
X149379421Y-101893284D01*
X149353282Y-101859218D01*
X149353280Y-101859217D01*
X149353280Y-101859216D01*
X149323511Y-101836373D01*
X149282310Y-101779944D01*
X149275000Y-101737999D01*
X149275000Y-101695487D01*
X149218370Y-101702943D01*
X149198103Y-101711338D01*
X149128633Y-101718804D01*
X149103203Y-101711337D01*
X149097035Y-101708782D01*
X149081762Y-101702456D01*
X149062329Y-101699897D01*
X148961776Y-101686659D01*
X148897880Y-101658392D01*
X148890281Y-101651401D01*
X145873207Y-98634327D01*
X145839722Y-98573004D01*
X145844706Y-98503312D01*
X145886578Y-98447379D01*
X145952042Y-98422962D01*
X145977071Y-98423706D01*
X146085639Y-98438000D01*
X146364360Y-98437999D01*
X146364361Y-98437999D01*
X146403494Y-98432847D01*
X146481762Y-98422544D01*
X146502545Y-98413934D01*
X146572012Y-98406465D01*
X146597449Y-98413932D01*
X146618238Y-98422544D01*
X146735639Y-98438000D01*
X147014360Y-98437999D01*
X147014361Y-98437999D01*
X147026594Y-98436388D01*
X147131762Y-98422544D01*
X147152545Y-98413934D01*
X147222014Y-98406465D01*
X147247453Y-98413934D01*
X147268238Y-98422544D01*
X147385639Y-98438000D01*
X147664360Y-98437999D01*
X147664361Y-98437999D01*
X147676594Y-98436388D01*
X147781762Y-98422544D01*
X147802545Y-98413934D01*
X147872014Y-98406465D01*
X147897453Y-98413934D01*
X147918238Y-98422544D01*
X148035639Y-98438000D01*
X148314360Y-98437999D01*
X148314361Y-98437999D01*
X148326594Y-98436388D01*
X148431762Y-98422544D01*
X148452545Y-98413934D01*
X148522014Y-98406465D01*
X148547453Y-98413934D01*
X148568238Y-98422544D01*
X148685639Y-98438000D01*
X148964360Y-98437999D01*
X148964361Y-98437999D01*
X148976594Y-98436388D01*
X149081762Y-98422544D01*
X149102545Y-98413934D01*
X149172014Y-98406465D01*
X149197453Y-98413934D01*
X149218238Y-98422544D01*
X149335639Y-98438000D01*
X149614360Y-98437999D01*
X149614361Y-98437999D01*
X149628018Y-98436201D01*
X149731762Y-98422544D01*
X149753200Y-98413663D01*
X149822668Y-98406194D01*
X149848106Y-98413663D01*
X149868365Y-98422054D01*
X149868377Y-98422058D01*
X149924998Y-98429511D01*
X149925000Y-98429510D01*
X149925000Y-98386999D01*
X149944685Y-98319960D01*
X149973512Y-98288625D01*
X150003282Y-98265782D01*
X150099536Y-98140341D01*
X150099536Y-98140339D01*
X150102624Y-98136316D01*
X150159052Y-98095113D01*
X150228798Y-98090958D01*
X150289718Y-98125170D01*
X150322471Y-98186887D01*
X150325000Y-98211802D01*
X150325000Y-98429510D01*
X150325001Y-98429511D01*
X150381627Y-98422057D01*
X150381633Y-98422055D01*
X150527585Y-98361600D01*
X150652924Y-98265424D01*
X150749101Y-98140085D01*
X150753163Y-98133050D01*
X150754686Y-98133929D01*
X150792279Y-98087280D01*
X150858573Y-98065214D01*
X150926272Y-98082493D01*
G37*
%TD.AperFunction*%
%TA.AperFunction,Conductor*%
G36*
X131792216Y-104668737D02*
G01*
X131828708Y-104693997D01*
X132824611Y-105689900D01*
X132829952Y-105695990D01*
X132841348Y-105710842D01*
X132849139Y-105720996D01*
X132850640Y-105722951D01*
X132862002Y-105731669D01*
X132878588Y-105744397D01*
X132880822Y-105746111D01*
X132880823Y-105746112D01*
X132964669Y-105810449D01*
X132964671Y-105810451D01*
X132964672Y-105810451D01*
X132970858Y-105815198D01*
X133110855Y-105873187D01*
X133223371Y-105888000D01*
X133223372Y-105888000D01*
X133225385Y-105888265D01*
X133225404Y-105888266D01*
X133261091Y-105892965D01*
X133261092Y-105892965D01*
X133274356Y-105891218D01*
X133294773Y-105888530D01*
X133302872Y-105888000D01*
X134975761Y-105888000D01*
X135042800Y-105907685D01*
X135063442Y-105924319D01*
X136238181Y-107099057D01*
X136271666Y-107160380D01*
X136274500Y-107186738D01*
X136274500Y-107845299D01*
X136266682Y-107888632D01*
X136255909Y-107917517D01*
X136249500Y-107977127D01*
X136249500Y-107977134D01*
X136249500Y-107977135D01*
X136249500Y-108472870D01*
X136249501Y-108472876D01*
X136255908Y-108532483D01*
X136306202Y-108667328D01*
X136306203Y-108667330D01*
X136306204Y-108667331D01*
X136368604Y-108750687D01*
X136368606Y-108750689D01*
X136393023Y-108816153D01*
X136378172Y-108884426D01*
X136368606Y-108899311D01*
X136306203Y-108982669D01*
X136306202Y-108982671D01*
X136255910Y-109117513D01*
X136255909Y-109117517D01*
X136249500Y-109177127D01*
X136249500Y-109177134D01*
X136249500Y-109177135D01*
X136249500Y-109672870D01*
X136249501Y-109672876D01*
X136255908Y-109732481D01*
X136266682Y-109761366D01*
X136274500Y-109804700D01*
X136274500Y-110780500D01*
X136254815Y-110847539D01*
X136202011Y-110893294D01*
X136150501Y-110904500D01*
X136014634Y-110904500D01*
X136014621Y-110904501D01*
X136000748Y-110905992D01*
X135974256Y-110905991D01*
X135960389Y-110904501D01*
X135960375Y-110904500D01*
X135960373Y-110904500D01*
X135960370Y-110904500D01*
X135514633Y-110904500D01*
X135514621Y-110904501D01*
X135500748Y-110905992D01*
X135474256Y-110905991D01*
X135460389Y-110904501D01*
X135460375Y-110904500D01*
X135460373Y-110904500D01*
X135460370Y-110904500D01*
X135014633Y-110904500D01*
X135014621Y-110904501D01*
X135000748Y-110905992D01*
X134974256Y-110905991D01*
X134960389Y-110904501D01*
X134960375Y-110904500D01*
X134960373Y-110904500D01*
X134960370Y-110904500D01*
X134514633Y-110904500D01*
X134514621Y-110904501D01*
X134500748Y-110905992D01*
X134474256Y-110905991D01*
X134460389Y-110904501D01*
X134460375Y-110904500D01*
X134460373Y-110904500D01*
X134460370Y-110904500D01*
X134014633Y-110904500D01*
X134014621Y-110904501D01*
X134000748Y-110905992D01*
X133974256Y-110905991D01*
X133960389Y-110904501D01*
X133960375Y-110904500D01*
X133960373Y-110904500D01*
X133960370Y-110904500D01*
X133514633Y-110904500D01*
X133514621Y-110904501D01*
X133500748Y-110905992D01*
X133474256Y-110905991D01*
X133460389Y-110904501D01*
X133460375Y-110904500D01*
X133460373Y-110904500D01*
X133460370Y-110904500D01*
X133014633Y-110904500D01*
X133014621Y-110904501D01*
X133000748Y-110905992D01*
X132974256Y-110905991D01*
X132960389Y-110904501D01*
X132960375Y-110904500D01*
X132960373Y-110904500D01*
X132960370Y-110904500D01*
X132514633Y-110904500D01*
X132514621Y-110904501D01*
X132500748Y-110905992D01*
X132474256Y-110905991D01*
X132460389Y-110904501D01*
X132460375Y-110904500D01*
X132460373Y-110904500D01*
X132460370Y-110904500D01*
X132014633Y-110904500D01*
X132014621Y-110904501D01*
X132000748Y-110905992D01*
X131974256Y-110905991D01*
X131960389Y-110904501D01*
X131960375Y-110904500D01*
X131960373Y-110904500D01*
X131960370Y-110904500D01*
X131514633Y-110904500D01*
X131514621Y-110904501D01*
X131500748Y-110905992D01*
X131474256Y-110905991D01*
X131460389Y-110904501D01*
X131460375Y-110904500D01*
X131460373Y-110904500D01*
X131460370Y-110904500D01*
X131014633Y-110904500D01*
X131014621Y-110904501D01*
X131000748Y-110905992D01*
X130974256Y-110905991D01*
X130960389Y-110904501D01*
X130960375Y-110904500D01*
X130960373Y-110904500D01*
X130960370Y-110904500D01*
X130514629Y-110904500D01*
X130514623Y-110904501D01*
X130455016Y-110910908D01*
X130320171Y-110961202D01*
X130320169Y-110961204D01*
X130236311Y-111023980D01*
X130170847Y-111048397D01*
X130102574Y-111033545D01*
X130053168Y-110984140D01*
X130038000Y-110924713D01*
X130038000Y-110487939D01*
X130045193Y-110463442D01*
X130038531Y-110412838D01*
X130038000Y-110404737D01*
X130038000Y-110348608D01*
X130037999Y-110348601D01*
X130036251Y-110340942D01*
X130037704Y-110317220D01*
X130026409Y-110289952D01*
X130020080Y-110270095D01*
X130012903Y-110238649D01*
X130002485Y-110217015D01*
X129998219Y-110191108D01*
X129983964Y-110172531D01*
X129970618Y-110150844D01*
X129963967Y-110137034D01*
X129963967Y-110137033D01*
X129963966Y-110137031D01*
X129940534Y-110107649D01*
X129929693Y-110081097D01*
X129915078Y-110069882D01*
X129898619Y-110053728D01*
X129898570Y-110053778D01*
X129888722Y-110043930D01*
X129888771Y-110043880D01*
X129872615Y-110027420D01*
X129865966Y-110018755D01*
X129861323Y-110018116D01*
X129834850Y-110001965D01*
X129805468Y-109978533D01*
X129805464Y-109978531D01*
X129791654Y-109971880D01*
X129769972Y-109958537D01*
X129758988Y-109950108D01*
X129757159Y-109950304D01*
X129725485Y-109940015D01*
X129703850Y-109929596D01*
X129672410Y-109922420D01*
X129652552Y-109916090D01*
X129635365Y-109908971D01*
X129601557Y-109906249D01*
X129593895Y-109904500D01*
X129593893Y-109904500D01*
X129537770Y-109904500D01*
X129529669Y-109903969D01*
X129490951Y-109898871D01*
X129454560Y-109904500D01*
X129197257Y-109904500D01*
X129177702Y-109902948D01*
X129177521Y-109902919D01*
X129176249Y-109902716D01*
X129173931Y-109902301D01*
X129136235Y-109894802D01*
X129104147Y-109883677D01*
X129103487Y-109883341D01*
X129097666Y-109880375D01*
X129091374Y-109876687D01*
X129068825Y-109861619D01*
X129050038Y-109846200D01*
X129046298Y-109842460D01*
X129030879Y-109823673D01*
X129018201Y-109804700D01*
X129015804Y-109801113D01*
X129012130Y-109794844D01*
X129008819Y-109788345D01*
X128997698Y-109756270D01*
X128990165Y-109718398D01*
X128989758Y-109716102D01*
X128989512Y-109714550D01*
X128989470Y-109714276D01*
X128988000Y-109695242D01*
X128988000Y-107888632D01*
X128988000Y-106051858D01*
X129007684Y-105984823D01*
X129060488Y-105939068D01*
X129129646Y-105929124D01*
X129193202Y-105958149D01*
X129218726Y-105988733D01*
X129219876Y-105990678D01*
X129219887Y-105990692D01*
X129334307Y-106105112D01*
X129334311Y-106105115D01*
X129334313Y-106105117D01*
X129473605Y-106187494D01*
X129514587Y-106199400D01*
X129629002Y-106232642D01*
X129629005Y-106232642D01*
X129629007Y-106232643D01*
X129665310Y-106235500D01*
X129665318Y-106235500D01*
X130074682Y-106235500D01*
X130074690Y-106235500D01*
X130110993Y-106232643D01*
X130110995Y-106232642D01*
X130110997Y-106232642D01*
X130151975Y-106220736D01*
X130266395Y-106187494D01*
X130287369Y-106175089D01*
X130355088Y-106157906D01*
X130413613Y-106175090D01*
X130433803Y-106187031D01*
X130580000Y-106229504D01*
X130580000Y-105923352D01*
X130597267Y-105860233D01*
X130602494Y-105851395D01*
X130605748Y-105840197D01*
X130647642Y-105695997D01*
X130647643Y-105695991D01*
X130647649Y-105695912D01*
X130649295Y-105675000D01*
X131080000Y-105675000D01*
X131080000Y-106229503D01*
X131226195Y-106187031D01*
X131365374Y-106104721D01*
X131365383Y-106104714D01*
X131479714Y-105990383D01*
X131479721Y-105990374D01*
X131562031Y-105851195D01*
X131562033Y-105851190D01*
X131607144Y-105695918D01*
X131607145Y-105695912D01*
X131608790Y-105675000D01*
X131080000Y-105675000D01*
X130649295Y-105675000D01*
X130650500Y-105659690D01*
X130650499Y-105369495D01*
X130670183Y-105302460D01*
X130722987Y-105256705D01*
X130774495Y-105245499D01*
X131064180Y-105245499D01*
X131100204Y-105242665D01*
X131254393Y-105197869D01*
X131259838Y-105194648D01*
X131263866Y-105192267D01*
X131326985Y-105175000D01*
X131608790Y-105175000D01*
X131607145Y-105154089D01*
X131559855Y-104991312D01*
X131562742Y-104990473D01*
X131555885Y-104935106D01*
X131571521Y-104892035D01*
X131587869Y-104864393D01*
X131621951Y-104747081D01*
X131659557Y-104688198D01*
X131723029Y-104658991D01*
X131792216Y-104668737D01*
G37*
%TD.AperFunction*%
%TA.AperFunction,Conductor*%
G36*
X138837539Y-103219685D02*
G01*
X138883294Y-103272489D01*
X138894500Y-103324000D01*
X138894500Y-103684697D01*
X138897356Y-103720991D01*
X138897357Y-103720997D01*
X138942503Y-103876389D01*
X138942505Y-103876393D01*
X138942506Y-103876395D01*
X138947732Y-103885233D01*
X138965000Y-103948352D01*
X138965000Y-104254503D01*
X139111194Y-104212032D01*
X139131384Y-104200091D01*
X139199108Y-104182906D01*
X139257629Y-104200089D01*
X139278605Y-104212494D01*
X139319587Y-104224400D01*
X139434002Y-104257642D01*
X139434005Y-104257642D01*
X139434007Y-104257643D01*
X139470310Y-104260500D01*
X139470318Y-104260500D01*
X139879682Y-104260500D01*
X139879690Y-104260500D01*
X139915993Y-104257643D01*
X139915995Y-104257642D01*
X139915997Y-104257642D01*
X139956975Y-104245736D01*
X140071395Y-104212494D01*
X140076602Y-104209413D01*
X140144321Y-104192227D01*
X140202847Y-104209408D01*
X140225607Y-104222869D01*
X140225614Y-104222871D01*
X140379791Y-104267664D01*
X140379794Y-104267664D01*
X140379796Y-104267665D01*
X140415819Y-104270500D01*
X140814180Y-104270499D01*
X140850204Y-104267665D01*
X141004393Y-104222869D01*
X141061882Y-104188869D01*
X141129602Y-104171688D01*
X141188117Y-104188869D01*
X141245607Y-104222869D01*
X141245610Y-104222869D01*
X141245612Y-104222871D01*
X141399791Y-104267664D01*
X141404265Y-104268481D01*
X141466678Y-104299887D01*
X141502204Y-104360051D01*
X141505313Y-104377502D01*
X141514326Y-104463256D01*
X141514327Y-104463259D01*
X141572818Y-104643277D01*
X141572821Y-104643284D01*
X141667467Y-104807216D01*
X141782620Y-104935106D01*
X141794129Y-104947888D01*
X141919412Y-105038911D01*
X141962078Y-105094241D01*
X141968057Y-105163854D01*
X141935452Y-105225649D01*
X141934208Y-105226910D01*
X140347608Y-106813510D01*
X140341507Y-106818861D01*
X140314547Y-106839550D01*
X140314546Y-106839551D01*
X140296567Y-106862980D01*
X140240137Y-106904180D01*
X140170391Y-106908330D01*
X140109472Y-106874114D01*
X140099819Y-106862972D01*
X140081923Y-106839649D01*
X140081897Y-106839616D01*
X140060449Y-106811666D01*
X140048342Y-106802376D01*
X140033490Y-106790980D01*
X140027400Y-106785639D01*
X137514903Y-104273141D01*
X137481418Y-104211819D01*
X137486402Y-104142127D01*
X137528274Y-104086194D01*
X137555136Y-104070898D01*
X137577587Y-104061599D01*
X137702926Y-103965423D01*
X137779175Y-103866053D01*
X137835603Y-103824850D01*
X137905349Y-103820695D01*
X137966269Y-103854907D01*
X137984283Y-103878418D01*
X138065278Y-104015374D01*
X138065285Y-104015383D01*
X138179616Y-104129714D01*
X138179625Y-104129721D01*
X138318804Y-104212031D01*
X138465000Y-104254504D01*
X138465000Y-103324000D01*
X138484685Y-103256961D01*
X138537489Y-103211206D01*
X138589000Y-103200000D01*
X138770500Y-103200000D01*
X138837539Y-103219685D01*
G37*
%TD.AperFunction*%
%TA.AperFunction,Conductor*%
G36*
X137318039Y-102719685D02*
G01*
X137363794Y-102772489D01*
X137375000Y-102824000D01*
X137375000Y-102976000D01*
X137355315Y-103043039D01*
X137302511Y-103088794D01*
X137251000Y-103100000D01*
X136699499Y-103100000D01*
X136632460Y-103080315D01*
X136586705Y-103027511D01*
X136575499Y-102976000D01*
X136575499Y-102824000D01*
X136595184Y-102756961D01*
X136647988Y-102711206D01*
X136699499Y-102700000D01*
X137251000Y-102700000D01*
X137318039Y-102719685D01*
G37*
%TD.AperFunction*%
%TA.AperFunction,Conductor*%
G36*
X129193203Y-96148349D02*
G01*
X129218732Y-96178941D01*
X129240278Y-96215374D01*
X129240285Y-96215383D01*
X129304357Y-96279455D01*
X129337842Y-96340778D01*
X129339615Y-96383320D01*
X129324501Y-96498126D01*
X129324500Y-96498145D01*
X129324500Y-97851863D01*
X129339953Y-97969253D01*
X129339956Y-97969262D01*
X129400464Y-98115341D01*
X129496718Y-98240782D01*
X129622159Y-98337036D01*
X129768238Y-98397544D01*
X129885639Y-98413000D01*
X130164360Y-98412999D01*
X130164361Y-98412999D01*
X130176594Y-98411388D01*
X130281762Y-98397544D01*
X130302545Y-98388934D01*
X130372014Y-98381465D01*
X130397453Y-98388934D01*
X130418238Y-98397544D01*
X130535639Y-98413000D01*
X130814360Y-98412999D01*
X130814361Y-98412999D01*
X130828018Y-98411201D01*
X130931762Y-98397544D01*
X130953200Y-98388663D01*
X131022668Y-98381194D01*
X131048106Y-98388663D01*
X131068365Y-98397054D01*
X131068377Y-98397058D01*
X131124998Y-98404511D01*
X131125000Y-98404510D01*
X131125000Y-98361999D01*
X131144685Y-98294960D01*
X131173512Y-98263625D01*
X131203282Y-98240782D01*
X131226625Y-98210360D01*
X131283051Y-98169158D01*
X131352797Y-98165003D01*
X131413718Y-98199214D01*
X131423368Y-98210351D01*
X131446718Y-98240782D01*
X131476485Y-98263623D01*
X131517688Y-98320049D01*
X131524999Y-98361998D01*
X131524999Y-98404510D01*
X131525000Y-98404511D01*
X131581627Y-98397057D01*
X131581629Y-98397056D01*
X131601887Y-98388665D01*
X131671356Y-98381193D01*
X131696797Y-98388663D01*
X131697454Y-98388935D01*
X131718238Y-98397544D01*
X131835639Y-98413000D01*
X132114360Y-98412999D01*
X132114361Y-98412999D01*
X132153494Y-98407847D01*
X132231762Y-98397544D01*
X132252545Y-98388934D01*
X132322012Y-98381465D01*
X132347449Y-98388932D01*
X132368238Y-98397544D01*
X132485639Y-98413000D01*
X132764360Y-98412999D01*
X132764361Y-98412999D01*
X132776594Y-98411388D01*
X132881762Y-98397544D01*
X132902545Y-98388934D01*
X132972014Y-98381465D01*
X132997453Y-98388934D01*
X133018238Y-98397544D01*
X133135639Y-98413000D01*
X133414360Y-98412999D01*
X133414361Y-98412999D01*
X133426594Y-98411388D01*
X133531762Y-98397544D01*
X133552545Y-98388934D01*
X133622014Y-98381465D01*
X133647453Y-98388934D01*
X133668238Y-98397544D01*
X133785639Y-98413000D01*
X134064360Y-98412999D01*
X134064361Y-98412999D01*
X134076594Y-98411388D01*
X134181762Y-98397544D01*
X134202545Y-98388934D01*
X134272014Y-98381465D01*
X134297452Y-98388934D01*
X134301590Y-98390648D01*
X134355994Y-98434489D01*
X134378059Y-98500783D01*
X134360780Y-98568482D01*
X134341819Y-98592890D01*
X132030690Y-100904019D01*
X131969367Y-100937504D01*
X131899675Y-100932520D01*
X131850861Y-100899312D01*
X131830872Y-100877113D01*
X131830864Y-100877106D01*
X131677734Y-100765851D01*
X131677729Y-100765848D01*
X131504807Y-100688857D01*
X131504802Y-100688855D01*
X131359000Y-100657865D01*
X131319646Y-100649500D01*
X131130354Y-100649500D01*
X131097897Y-100656398D01*
X130945197Y-100688855D01*
X130945192Y-100688857D01*
X130772268Y-100765849D01*
X130752586Y-100780149D01*
X130686779Y-100803627D01*
X130618726Y-100787800D01*
X130606827Y-100780152D01*
X130552730Y-100740849D01*
X130552729Y-100740848D01*
X130379807Y-100663857D01*
X130379802Y-100663855D01*
X130234000Y-100632865D01*
X130194646Y-100624500D01*
X130005354Y-100624500D01*
X129972897Y-100631398D01*
X129820197Y-100663855D01*
X129820192Y-100663857D01*
X129647270Y-100740848D01*
X129647265Y-100740851D01*
X129494129Y-100852111D01*
X129367466Y-100992785D01*
X129272821Y-101156715D01*
X129272819Y-101156719D01*
X129229930Y-101288717D01*
X129190492Y-101346392D01*
X129126133Y-101373590D01*
X129057287Y-101361675D01*
X129005811Y-101314430D01*
X128988000Y-101250401D01*
X128988000Y-96242062D01*
X129007685Y-96175023D01*
X129060489Y-96129268D01*
X129129647Y-96119324D01*
X129193203Y-96148349D01*
G37*
%TD.AperFunction*%
%TA.AperFunction,Conductor*%
G36*
X139454330Y-94355261D02*
G01*
X139510263Y-94397133D01*
X139534680Y-94462597D01*
X139534317Y-94484402D01*
X139519540Y-94625000D01*
X139539326Y-94813256D01*
X139539327Y-94813259D01*
X139597818Y-94993277D01*
X139597821Y-94993284D01*
X139692467Y-95157216D01*
X139810226Y-95288000D01*
X139817650Y-95296245D01*
X139847880Y-95359236D01*
X139849500Y-95379217D01*
X139849500Y-95903219D01*
X139848969Y-95911316D01*
X139847078Y-95925681D01*
X139844535Y-95944998D01*
X139848970Y-95978696D01*
X139863969Y-96092623D01*
X139864500Y-96100725D01*
X139864500Y-96399697D01*
X139867356Y-96435991D01*
X139867357Y-96435997D01*
X139912504Y-96591390D01*
X139912507Y-96591397D01*
X139924910Y-96612370D01*
X139942093Y-96680094D01*
X139924912Y-96738608D01*
X139912968Y-96758804D01*
X139870496Y-96905000D01*
X140176648Y-96905000D01*
X140239766Y-96922267D01*
X140248605Y-96927494D01*
X140248608Y-96927494D01*
X140248610Y-96927496D01*
X140404002Y-96972642D01*
X140404005Y-96972642D01*
X140404007Y-96972643D01*
X140440310Y-96975500D01*
X140440318Y-96975500D01*
X140909682Y-96975500D01*
X140909690Y-96975500D01*
X140945993Y-96972643D01*
X140945995Y-96972642D01*
X140945997Y-96972642D01*
X141101389Y-96927496D01*
X141101389Y-96927495D01*
X141101395Y-96927494D01*
X141110233Y-96922267D01*
X141173352Y-96905000D01*
X141176648Y-96905000D01*
X141239766Y-96922267D01*
X141248605Y-96927494D01*
X141248608Y-96927494D01*
X141248610Y-96927496D01*
X141404002Y-96972642D01*
X141404005Y-96972642D01*
X141404007Y-96972643D01*
X141440310Y-96975500D01*
X141801000Y-96975500D01*
X141868039Y-96995185D01*
X141913794Y-97047989D01*
X141925000Y-97099500D01*
X141925000Y-97281000D01*
X141905315Y-97348039D01*
X141852511Y-97393794D01*
X141801000Y-97405000D01*
X139870494Y-97405000D01*
X139853750Y-97427301D01*
X139797757Y-97469092D01*
X139728058Y-97473976D01*
X139666909Y-97440529D01*
X138959053Y-96732673D01*
X138925568Y-96671350D01*
X138923413Y-96657954D01*
X138918622Y-96612370D01*
X138910674Y-96536744D01*
X138852179Y-96356716D01*
X138757533Y-96192784D01*
X138630871Y-96052112D01*
X138611398Y-96037964D01*
X138477734Y-95940851D01*
X138477729Y-95940848D01*
X138304807Y-95863857D01*
X138304802Y-95863855D01*
X138147522Y-95830425D01*
X138086040Y-95797233D01*
X138052264Y-95736070D01*
X138056916Y-95666355D01*
X138085620Y-95621457D01*
X139323316Y-94383761D01*
X139384638Y-94350277D01*
X139454330Y-94355261D01*
G37*
%TD.AperFunction*%
%TA.AperFunction,Conductor*%
G36*
X150906334Y-82160059D02*
G01*
X150962267Y-82201931D01*
X150986684Y-82267395D01*
X150987000Y-82276241D01*
X150987000Y-85872871D01*
X150967315Y-85939910D01*
X150914511Y-85985665D01*
X150845353Y-85995609D01*
X150781797Y-85966584D01*
X150746818Y-85916204D01*
X150713797Y-85827671D01*
X150713793Y-85827664D01*
X150627547Y-85712455D01*
X150627544Y-85712452D01*
X150512335Y-85626206D01*
X150512328Y-85626202D01*
X150377482Y-85575908D01*
X150377483Y-85575908D01*
X150317883Y-85569501D01*
X150317881Y-85569500D01*
X150317873Y-85569500D01*
X150317864Y-85569500D01*
X149472129Y-85569500D01*
X149472123Y-85569501D01*
X149412516Y-85575908D01*
X149277671Y-85626202D01*
X149277664Y-85626206D01*
X149162455Y-85712452D01*
X149162452Y-85712455D01*
X149076206Y-85827664D01*
X149076202Y-85827671D01*
X149023950Y-85967767D01*
X148982079Y-86023701D01*
X148916614Y-86048118D01*
X148881469Y-86044390D01*
X148880000Y-86045494D01*
X148880000Y-87185000D01*
X148926000Y-87185000D01*
X148993039Y-87204685D01*
X149038794Y-87257489D01*
X149050000Y-87309000D01*
X149050000Y-88175000D01*
X149900000Y-88175000D01*
X149900000Y-87694499D01*
X149919685Y-87627460D01*
X149972489Y-87581705D01*
X150023998Y-87570499D01*
X150317872Y-87570499D01*
X150377483Y-87564091D01*
X150512331Y-87513796D01*
X150627546Y-87427546D01*
X150713796Y-87312331D01*
X150727199Y-87276395D01*
X150746818Y-87223795D01*
X150788689Y-87167861D01*
X150854153Y-87143444D01*
X150922426Y-87158295D01*
X150971832Y-87207700D01*
X150987000Y-87267128D01*
X150987000Y-96210864D01*
X150967315Y-96277903D01*
X150914511Y-96323658D01*
X150845353Y-96333602D01*
X150781797Y-96304577D01*
X150754222Y-96266338D01*
X150753163Y-96266950D01*
X150749101Y-96259914D01*
X150652924Y-96134575D01*
X150527586Y-96038399D01*
X150381631Y-95977944D01*
X150325000Y-95970487D01*
X150325000Y-96188197D01*
X150305315Y-96255236D01*
X150252511Y-96300991D01*
X150183353Y-96310935D01*
X150119797Y-96281910D01*
X150102624Y-96263684D01*
X150080352Y-96234659D01*
X150003282Y-96134218D01*
X150003280Y-96134217D01*
X150003280Y-96134216D01*
X149973511Y-96111373D01*
X149932310Y-96054944D01*
X149925000Y-96012999D01*
X149925000Y-95970487D01*
X149868370Y-95977943D01*
X149848103Y-95986338D01*
X149778633Y-95993804D01*
X149753203Y-95986337D01*
X149731762Y-95977456D01*
X149731760Y-95977455D01*
X149614370Y-95962001D01*
X149614367Y-95962000D01*
X149614361Y-95962000D01*
X149614354Y-95962000D01*
X149578651Y-95962000D01*
X149511612Y-95942315D01*
X149490970Y-95925681D01*
X149225398Y-95660109D01*
X149220045Y-95654006D01*
X149217395Y-95650553D01*
X149199360Y-95627049D01*
X149199358Y-95627047D01*
X149199357Y-95627046D01*
X149171640Y-95605778D01*
X149171614Y-95605758D01*
X149079140Y-95534800D01*
X149031815Y-95515198D01*
X148961051Y-95485887D01*
X148939145Y-95476813D01*
X148872665Y-95468060D01*
X148822604Y-95461470D01*
X148822604Y-95461469D01*
X148793001Y-95457573D01*
X148788909Y-95457035D01*
X148788908Y-95457035D01*
X148788907Y-95457035D01*
X148769874Y-95459540D01*
X148755226Y-95461469D01*
X148747128Y-95462000D01*
X148502242Y-95462000D01*
X148435203Y-95442315D01*
X148414561Y-95425681D01*
X145413880Y-92425000D01*
X147466210Y-92425000D01*
X147467854Y-92445910D01*
X147512968Y-92601195D01*
X147595278Y-92740374D01*
X147595285Y-92740383D01*
X147709616Y-92854714D01*
X147709625Y-92854721D01*
X147848804Y-92937031D01*
X147995000Y-92979504D01*
X147995000Y-92425000D01*
X147466210Y-92425000D01*
X145413880Y-92425000D01*
X144811819Y-91822939D01*
X144778334Y-91761616D01*
X144775500Y-91735258D01*
X144775500Y-91048588D01*
X144776031Y-91040487D01*
X144776574Y-91036367D01*
X144780466Y-91006802D01*
X144780169Y-91004549D01*
X144763113Y-90875000D01*
X146000000Y-90875000D01*
X146000000Y-91372844D01*
X146006401Y-91432372D01*
X146006403Y-91432379D01*
X146056645Y-91567086D01*
X146056649Y-91567093D01*
X146142809Y-91682187D01*
X146142812Y-91682190D01*
X146257906Y-91768350D01*
X146257913Y-91768354D01*
X146392620Y-91818596D01*
X146392627Y-91818598D01*
X146452155Y-91824999D01*
X146452172Y-91825000D01*
X146850000Y-91825000D01*
X146850000Y-90875000D01*
X146000000Y-90875000D01*
X144763113Y-90875000D01*
X144760687Y-90856569D01*
X144760687Y-90856567D01*
X144759753Y-90854313D01*
X144729683Y-90781716D01*
X144702699Y-90716570D01*
X144702699Y-90716569D01*
X144631911Y-90624316D01*
X144631897Y-90624299D01*
X144610449Y-90596349D01*
X144598342Y-90587059D01*
X144583490Y-90575663D01*
X144577400Y-90570322D01*
X144244259Y-90237181D01*
X144210774Y-90175858D01*
X144215758Y-90106166D01*
X144257630Y-90050233D01*
X144323094Y-90025816D01*
X144331940Y-90025500D01*
X145876000Y-90025500D01*
X145943039Y-90045185D01*
X145988794Y-90097989D01*
X146000000Y-90149500D01*
X146000000Y-90375000D01*
X147226000Y-90375000D01*
X147293039Y-90394685D01*
X147338794Y-90447489D01*
X147350000Y-90499000D01*
X147350000Y-91825000D01*
X147354183Y-91829183D01*
X147406976Y-91844685D01*
X147452731Y-91897489D01*
X147455556Y-91913474D01*
X147466210Y-91925000D01*
X148300500Y-91925000D01*
X148367539Y-91944685D01*
X148413294Y-91997489D01*
X148424500Y-92049000D01*
X148424500Y-92409697D01*
X148427356Y-92445991D01*
X148427357Y-92445997D01*
X148472503Y-92601389D01*
X148472505Y-92601393D01*
X148472506Y-92601395D01*
X148477732Y-92610233D01*
X148495000Y-92673352D01*
X148495000Y-92979503D01*
X148641194Y-92937032D01*
X148661384Y-92925091D01*
X148729108Y-92907906D01*
X148787629Y-92925089D01*
X148808605Y-92937494D01*
X148849587Y-92949400D01*
X148964002Y-92982642D01*
X148964005Y-92982642D01*
X148964007Y-92982643D01*
X149000310Y-92985500D01*
X149000318Y-92985500D01*
X149409682Y-92985500D01*
X149409690Y-92985500D01*
X149445993Y-92982643D01*
X149445995Y-92982642D01*
X149445997Y-92982642D01*
X149486975Y-92970736D01*
X149601395Y-92937494D01*
X149740687Y-92855117D01*
X149855117Y-92740687D01*
X149937494Y-92601395D01*
X149982643Y-92445993D01*
X149985500Y-92409690D01*
X149985500Y-91940310D01*
X149982643Y-91904007D01*
X149980749Y-91897489D01*
X149943232Y-91768354D01*
X149937494Y-91748605D01*
X149896302Y-91678954D01*
X149868716Y-91632307D01*
X149851533Y-91564583D01*
X149859265Y-91525855D01*
X149894091Y-91432483D01*
X149900500Y-91372873D01*
X149900499Y-89877128D01*
X149894091Y-89817517D01*
X149870099Y-89753192D01*
X149843797Y-89682671D01*
X149843795Y-89682668D01*
X149822734Y-89654534D01*
X149781081Y-89598893D01*
X149756664Y-89533431D01*
X149771515Y-89465158D01*
X149781082Y-89450271D01*
X149843352Y-89367089D01*
X149843354Y-89367086D01*
X149893596Y-89232379D01*
X149893598Y-89232372D01*
X149899999Y-89172844D01*
X149900000Y-89172827D01*
X149900000Y-88675000D01*
X148674000Y-88675000D01*
X148606961Y-88655315D01*
X148561206Y-88602511D01*
X148550000Y-88551000D01*
X148550000Y-87700000D01*
X148504000Y-87700000D01*
X148436961Y-87680315D01*
X148391206Y-87627511D01*
X148380000Y-87576000D01*
X148380000Y-87348352D01*
X148397267Y-87285233D01*
X148402494Y-87276395D01*
X148405187Y-87267128D01*
X148447642Y-87120997D01*
X148447643Y-87120991D01*
X148450500Y-87084690D01*
X148450500Y-86615310D01*
X148447643Y-86579007D01*
X148441221Y-86556903D01*
X148402495Y-86423608D01*
X148402492Y-86423600D01*
X148397266Y-86414763D01*
X148380000Y-86351645D01*
X148380000Y-86045494D01*
X148379998Y-86045493D01*
X148233809Y-86087965D01*
X148233806Y-86087967D01*
X148213608Y-86099912D01*
X148145884Y-86117092D01*
X148087370Y-86099910D01*
X148066397Y-86087507D01*
X148066390Y-86087504D01*
X147910997Y-86042357D01*
X147910991Y-86042356D01*
X147874697Y-86039500D01*
X147874690Y-86039500D01*
X147465310Y-86039500D01*
X147465302Y-86039500D01*
X147429008Y-86042356D01*
X147429002Y-86042357D01*
X147273609Y-86087504D01*
X147273608Y-86087504D01*
X147207120Y-86126825D01*
X147139396Y-86144007D01*
X147073134Y-86121847D01*
X147029371Y-86067380D01*
X147021058Y-86025431D01*
X147020459Y-86025463D01*
X147020356Y-86025475D01*
X147020355Y-86025469D01*
X147020177Y-86025479D01*
X147019999Y-86022155D01*
X147018742Y-86010464D01*
X147031147Y-85941705D01*
X147054344Y-85909534D01*
X150775321Y-82188558D01*
X150836642Y-82155075D01*
X150906334Y-82160059D01*
G37*
%TD.AperFunction*%
%TA.AperFunction,Conductor*%
G36*
X141430703Y-93838227D02*
G01*
X141437181Y-93844259D01*
X142945322Y-95352400D01*
X142950663Y-95358490D01*
X142971351Y-95385451D01*
X142982713Y-95394169D01*
X142999299Y-95406897D01*
X143001533Y-95408611D01*
X143001534Y-95408612D01*
X143090401Y-95476801D01*
X143090409Y-95476813D01*
X143090412Y-95476810D01*
X143090416Y-95476813D01*
X143091569Y-95477698D01*
X143231566Y-95535687D01*
X143344082Y-95550500D01*
X143344083Y-95550500D01*
X143346096Y-95550765D01*
X143346119Y-95550767D01*
X143381802Y-95555465D01*
X143381803Y-95555465D01*
X143395067Y-95553718D01*
X143415484Y-95551030D01*
X143423583Y-95550500D01*
X144225500Y-95550500D01*
X144292539Y-95570185D01*
X144338294Y-95622989D01*
X144349500Y-95674500D01*
X144349500Y-96033334D01*
X144329815Y-96100373D01*
X144277011Y-96146128D01*
X144207853Y-96156072D01*
X144150012Y-96131708D01*
X144123512Y-96111373D01*
X144082310Y-96054945D01*
X144075000Y-96012999D01*
X144075000Y-95970487D01*
X144018370Y-95977943D01*
X143998103Y-95986338D01*
X143928633Y-95993804D01*
X143903203Y-95986337D01*
X143881762Y-95977456D01*
X143881760Y-95977455D01*
X143764361Y-95962000D01*
X143485636Y-95962000D01*
X143368246Y-95977453D01*
X143368234Y-95977457D01*
X143347450Y-95986066D01*
X143277981Y-95993533D01*
X143252550Y-95986066D01*
X143231765Y-95977457D01*
X143231760Y-95977455D01*
X143114361Y-95962000D01*
X142835636Y-95962000D01*
X142718246Y-95977453D01*
X142718234Y-95977457D01*
X142641933Y-96009062D01*
X142572464Y-96016531D01*
X142509985Y-95985256D01*
X142475406Y-95929099D01*
X142437494Y-95798605D01*
X142355117Y-95659313D01*
X142355115Y-95659311D01*
X142355112Y-95659307D01*
X142240692Y-95544887D01*
X142240684Y-95544881D01*
X142127083Y-95477698D01*
X142101395Y-95462506D01*
X142101394Y-95462505D01*
X142101393Y-95462505D01*
X142101390Y-95462504D01*
X141945997Y-95417357D01*
X141945991Y-95417356D01*
X141909697Y-95414500D01*
X141909690Y-95414500D01*
X141440310Y-95414500D01*
X141440302Y-95414500D01*
X141404008Y-95417356D01*
X141404002Y-95417357D01*
X141248605Y-95462505D01*
X141248602Y-95462506D01*
X141238113Y-95468709D01*
X141170387Y-95485887D01*
X141111882Y-95468707D01*
X141094684Y-95458537D01*
X141095474Y-95457199D01*
X141048640Y-95418222D01*
X141027625Y-95351588D01*
X141045970Y-95284170D01*
X141059441Y-95266157D01*
X141157533Y-95157216D01*
X141252179Y-94993284D01*
X141310674Y-94813256D01*
X141330460Y-94625000D01*
X141310674Y-94436744D01*
X141252179Y-94256716D01*
X141252178Y-94256715D01*
X141252178Y-94256713D01*
X141242112Y-94239277D01*
X141225500Y-94177279D01*
X141225500Y-93931940D01*
X141245185Y-93864901D01*
X141297989Y-93819146D01*
X141367147Y-93809202D01*
X141430703Y-93838227D01*
G37*
%TD.AperFunction*%
%TA.AperFunction,Conductor*%
G36*
X130012539Y-94444685D02*
G01*
X130058294Y-94497489D01*
X130069500Y-94549000D01*
X130069500Y-94909697D01*
X130072356Y-94945991D01*
X130072357Y-94945997D01*
X130117504Y-95101390D01*
X130120603Y-95108551D01*
X130118836Y-95109315D01*
X130133495Y-95167109D01*
X130119190Y-95215830D01*
X130120605Y-95216443D01*
X130117504Y-95223608D01*
X130072357Y-95379002D01*
X130072356Y-95379008D01*
X130069500Y-95415302D01*
X130069500Y-95776000D01*
X130049815Y-95843039D01*
X129997011Y-95888794D01*
X129945500Y-95900000D01*
X129764000Y-95900000D01*
X129696961Y-95880315D01*
X129651206Y-95827511D01*
X129640000Y-95776000D01*
X129640000Y-94549000D01*
X129659685Y-94481961D01*
X129712489Y-94436206D01*
X129764000Y-94425000D01*
X129945500Y-94425000D01*
X130012539Y-94444685D01*
G37*
%TD.AperFunction*%
%TA.AperFunction,Conductor*%
G36*
X136681833Y-71925185D02*
G01*
X136727588Y-71977989D01*
X136738612Y-72022786D01*
X136741540Y-72076779D01*
X136751309Y-72256957D01*
X136778394Y-72422172D01*
X136808333Y-72604793D01*
X136808334Y-72604796D01*
X136902626Y-72944408D01*
X136902627Y-72944410D01*
X137033088Y-73271844D01*
X137033097Y-73271862D01*
X137198195Y-73583269D01*
X137395998Y-73875006D01*
X137396005Y-73875016D01*
X137601830Y-74117331D01*
X137624186Y-74143650D01*
X137880080Y-74386046D01*
X138150781Y-74591827D01*
X138192238Y-74648067D01*
X138196707Y-74717794D01*
X138162770Y-74778868D01*
X138110335Y-74809618D01*
X138098808Y-74812966D01*
X138098804Y-74812968D01*
X137959625Y-74895278D01*
X137959616Y-74895285D01*
X137845285Y-75009616D01*
X137845278Y-75009625D01*
X137762968Y-75148804D01*
X137762966Y-75148810D01*
X137722285Y-75288834D01*
X137684679Y-75347720D01*
X137621206Y-75376926D01*
X137552020Y-75367180D01*
X137503942Y-75328549D01*
X137477188Y-75292810D01*
X137477187Y-75292809D01*
X137362093Y-75206649D01*
X137362086Y-75206645D01*
X137227379Y-75156403D01*
X137227372Y-75156401D01*
X137167844Y-75150000D01*
X137074552Y-75150000D01*
X137007513Y-75130315D01*
X137007169Y-75130000D01*
X136645000Y-75130000D01*
X136645000Y-75825500D01*
X136625315Y-75892539D01*
X136572511Y-75938294D01*
X136521000Y-75949500D01*
X135622129Y-75949500D01*
X135622123Y-75949501D01*
X135562516Y-75955908D01*
X135524932Y-75969926D01*
X135455240Y-75974908D01*
X135393918Y-75941422D01*
X135383227Y-75929230D01*
X135360404Y-75899487D01*
X135335209Y-75834318D01*
X135349247Y-75765873D01*
X135398060Y-75715883D01*
X135458779Y-75700000D01*
X136145000Y-75700000D01*
X136145000Y-75161646D01*
X136235610Y-75105543D01*
X136303201Y-75016038D01*
X136333895Y-74908160D01*
X136323546Y-74796479D01*
X136273552Y-74696078D01*
X136201069Y-74630000D01*
X137003366Y-74630000D01*
X137003068Y-74628053D01*
X137003066Y-74628047D01*
X136932437Y-74437342D01*
X136932434Y-74437335D01*
X136824850Y-74264732D01*
X136684735Y-74117331D01*
X136684733Y-74117330D01*
X136517804Y-74001143D01*
X136330907Y-73920940D01*
X136131690Y-73880000D01*
X135730000Y-73880000D01*
X135730000Y-74580000D01*
X135230000Y-74580000D01*
X135230000Y-73880000D01*
X134879287Y-73880000D01*
X134727661Y-73895418D01*
X134533618Y-73956299D01*
X134533608Y-73956304D01*
X134355784Y-74055005D01*
X134355783Y-74055005D01*
X134201469Y-74187478D01*
X134201468Y-74187479D01*
X134076981Y-74348304D01*
X133987411Y-74530906D01*
X133961754Y-74630000D01*
X134763889Y-74630000D01*
X134724390Y-74654457D01*
X134656799Y-74743962D01*
X134626105Y-74851840D01*
X134636454Y-74963521D01*
X134686448Y-75063922D01*
X134758931Y-75130000D01*
X133956634Y-75130000D01*
X133956931Y-75131946D01*
X133956933Y-75131952D01*
X134027562Y-75322657D01*
X134027565Y-75322664D01*
X134135149Y-75495267D01*
X134275264Y-75642668D01*
X134275266Y-75642669D01*
X134442197Y-75758857D01*
X134450071Y-75762236D01*
X134503917Y-75806760D01*
X134525142Y-75873328D01*
X134507009Y-75940804D01*
X134499551Y-75951674D01*
X134447302Y-76019766D01*
X134447300Y-76019769D01*
X134389313Y-76159763D01*
X134389313Y-76159764D01*
X134374083Y-76275445D01*
X134345816Y-76339341D01*
X134287492Y-76377812D01*
X134243659Y-76383033D01*
X134206419Y-76380780D01*
X134206409Y-76380781D01*
X134147671Y-76391545D01*
X134143970Y-76392108D01*
X134084656Y-76399311D01*
X134075881Y-76402639D01*
X134054278Y-76408660D01*
X134049759Y-76409488D01*
X134045060Y-76410350D01*
X133990575Y-76434869D01*
X133987118Y-76436301D01*
X133931274Y-76457481D01*
X133931270Y-76457484D01*
X133923556Y-76462808D01*
X133904025Y-76473824D01*
X133895470Y-76477674D01*
X133848443Y-76514517D01*
X133845428Y-76516736D01*
X133796272Y-76550667D01*
X133796269Y-76550670D01*
X133756664Y-76595373D01*
X133754097Y-76598100D01*
X133195600Y-77156597D01*
X133192873Y-77159164D01*
X133148170Y-77198769D01*
X133148167Y-77198772D01*
X133114236Y-77247928D01*
X133112017Y-77250943D01*
X133075174Y-77297970D01*
X133071324Y-77306525D01*
X133060308Y-77326056D01*
X133054984Y-77333770D01*
X133054979Y-77333778D01*
X133040909Y-77370876D01*
X133017120Y-77409872D01*
X132942466Y-77492785D01*
X132847821Y-77656715D01*
X132847818Y-77656722D01*
X132789327Y-77836740D01*
X132789326Y-77836744D01*
X132769540Y-78025000D01*
X132789326Y-78213256D01*
X132789327Y-78213259D01*
X132847818Y-78393277D01*
X132847820Y-78393281D01*
X132847821Y-78393284D01*
X132864473Y-78422127D01*
X132868354Y-78428848D01*
X132884827Y-78496749D01*
X132868355Y-78552847D01*
X132822820Y-78631716D01*
X132765812Y-78807170D01*
X132764326Y-78811744D01*
X132744540Y-79000000D01*
X132764326Y-79188256D01*
X132764327Y-79188259D01*
X132822821Y-79368285D01*
X132836137Y-79391349D01*
X132852610Y-79459249D01*
X132836137Y-79515349D01*
X132797821Y-79581714D01*
X132749983Y-79728945D01*
X132739326Y-79761744D01*
X132719540Y-79950000D01*
X132739326Y-80138256D01*
X132739327Y-80138259D01*
X132797818Y-80318277D01*
X132797821Y-80318284D01*
X132892467Y-80482216D01*
X132950150Y-80546279D01*
X132980380Y-80609270D01*
X132982000Y-80629251D01*
X132982000Y-80802722D01*
X132981887Y-80806466D01*
X132978281Y-80866082D01*
X132978281Y-80866085D01*
X132989045Y-80924828D01*
X132989608Y-80928529D01*
X132996811Y-80987845D01*
X133000137Y-80996614D01*
X133006161Y-81018223D01*
X133007850Y-81027440D01*
X133032363Y-81081907D01*
X133033796Y-81085366D01*
X133054981Y-81141224D01*
X133054981Y-81141225D01*
X133060305Y-81148938D01*
X133071324Y-81168476D01*
X133075171Y-81177023D01*
X133075172Y-81177025D01*
X133075173Y-81177026D01*
X133075174Y-81177028D01*
X133112015Y-81224051D01*
X133114230Y-81227061D01*
X133148168Y-81276229D01*
X133192892Y-81315851D01*
X133195584Y-81318385D01*
X133679111Y-81801912D01*
X133681663Y-81804624D01*
X133704383Y-81830270D01*
X133721272Y-81849333D01*
X133770432Y-81883265D01*
X133773449Y-81885486D01*
X133800595Y-81906753D01*
X133820472Y-81922326D01*
X133829015Y-81926171D01*
X133848566Y-81937198D01*
X133852963Y-81940233D01*
X133856274Y-81942518D01*
X133912139Y-81963705D01*
X133915570Y-81965126D01*
X133970061Y-81989650D01*
X133979276Y-81991338D01*
X134000889Y-81997363D01*
X134009655Y-82000688D01*
X134068971Y-82007890D01*
X134072658Y-82008451D01*
X134131415Y-82019219D01*
X134131416Y-82019218D01*
X134131417Y-82019219D01*
X134191034Y-82015613D01*
X134194778Y-82015500D01*
X134250981Y-82015500D01*
X134318020Y-82035185D01*
X134363775Y-82087989D01*
X134373920Y-82123315D01*
X134389312Y-82240234D01*
X134389313Y-82240236D01*
X134447300Y-82380230D01*
X134447302Y-82380234D01*
X134480081Y-82422951D01*
X134501219Y-82450499D01*
X134501799Y-82451254D01*
X134526994Y-82516423D01*
X134512956Y-82584868D01*
X134464143Y-82634858D01*
X134463603Y-82635159D01*
X134355788Y-82695002D01*
X134355783Y-82695005D01*
X134201469Y-82827478D01*
X134201468Y-82827479D01*
X134076981Y-82988304D01*
X133987411Y-83170906D01*
X133961754Y-83270000D01*
X134763889Y-83270000D01*
X134724390Y-83294457D01*
X134656799Y-83383962D01*
X134626105Y-83491840D01*
X134636454Y-83603521D01*
X134686448Y-83703922D01*
X134752044Y-83763721D01*
X134736154Y-83760561D01*
X134624503Y-83714314D01*
X134624501Y-83714313D01*
X134624500Y-83714313D01*
X134558020Y-83705560D01*
X134507959Y-83698970D01*
X134507959Y-83698969D01*
X134478356Y-83695073D01*
X134474264Y-83694535D01*
X134474263Y-83694535D01*
X134474262Y-83694535D01*
X134455229Y-83697040D01*
X134440581Y-83698969D01*
X134432483Y-83699500D01*
X132331781Y-83699500D01*
X132323682Y-83698969D01*
X132303265Y-83696281D01*
X132290001Y-83694535D01*
X132290000Y-83694535D01*
X132280560Y-83695777D01*
X132256316Y-83698969D01*
X132256315Y-83698968D01*
X132091539Y-83720661D01*
X132068994Y-83742940D01*
X132057672Y-83748316D01*
X132028114Y-83760560D01*
X131980659Y-83770000D01*
X131766111Y-83770000D01*
X131805610Y-83745543D01*
X131873201Y-83656038D01*
X131903895Y-83548160D01*
X131893546Y-83436479D01*
X131843552Y-83336078D01*
X131771069Y-83270000D01*
X132573366Y-83270000D01*
X132573068Y-83268053D01*
X132573066Y-83268047D01*
X132502437Y-83077342D01*
X132502434Y-83077335D01*
X132394850Y-82904732D01*
X132254735Y-82757331D01*
X132254733Y-82757330D01*
X132087804Y-82641143D01*
X131900907Y-82560940D01*
X131701690Y-82520000D01*
X131550000Y-82520000D01*
X131550000Y-83220000D01*
X131050000Y-83220000D01*
X131050000Y-82520000D01*
X130949287Y-82520000D01*
X130797661Y-82535418D01*
X130603618Y-82596299D01*
X130603608Y-82596304D01*
X130425784Y-82695005D01*
X130425783Y-82695005D01*
X130271469Y-82827478D01*
X130271468Y-82827479D01*
X130146981Y-82988304D01*
X130057411Y-83170906D01*
X130031754Y-83270000D01*
X130833889Y-83270000D01*
X130794390Y-83294457D01*
X130726799Y-83383962D01*
X130696105Y-83491840D01*
X130706454Y-83603521D01*
X130756448Y-83703922D01*
X130828931Y-83770000D01*
X130026634Y-83770000D01*
X130026931Y-83771946D01*
X130026933Y-83771952D01*
X130097562Y-83962657D01*
X130097565Y-83962664D01*
X130205149Y-84135267D01*
X130209714Y-84140069D01*
X130241634Y-84202221D01*
X130234885Y-84271764D01*
X130191610Y-84326619D01*
X130125548Y-84349369D01*
X130119839Y-84349500D01*
X129747130Y-84349500D01*
X129747123Y-84349501D01*
X129687516Y-84355908D01*
X129552671Y-84406202D01*
X129552664Y-84406206D01*
X129437455Y-84492452D01*
X129437452Y-84492455D01*
X129351206Y-84607664D01*
X129351202Y-84607671D01*
X129300908Y-84742517D01*
X129294501Y-84802116D01*
X129294500Y-84802135D01*
X129294500Y-86597870D01*
X129294501Y-86597876D01*
X129300908Y-86657483D01*
X129351202Y-86792328D01*
X129351206Y-86792335D01*
X129437452Y-86907544D01*
X129437455Y-86907547D01*
X129552664Y-86993793D01*
X129552671Y-86993797D01*
X129586355Y-87006360D01*
X129687517Y-87044091D01*
X129747127Y-87050500D01*
X130080257Y-87050499D01*
X130147296Y-87070183D01*
X130167938Y-87086818D01*
X131233520Y-88152400D01*
X131238861Y-88158490D01*
X131250257Y-88173342D01*
X131251529Y-88175000D01*
X131259549Y-88185451D01*
X131270911Y-88194169D01*
X131287497Y-88206897D01*
X131287514Y-88206910D01*
X131289731Y-88208611D01*
X131289732Y-88208612D01*
X131375945Y-88274765D01*
X131379767Y-88277698D01*
X131519764Y-88335687D01*
X131632280Y-88350500D01*
X131632281Y-88350500D01*
X131634294Y-88350765D01*
X131634317Y-88350767D01*
X131670000Y-88355465D01*
X131670001Y-88355465D01*
X131683265Y-88353718D01*
X131703682Y-88351030D01*
X131711781Y-88350500D01*
X132676232Y-88350500D01*
X132743271Y-88370185D01*
X132768381Y-88391527D01*
X132819128Y-88447887D01*
X132819129Y-88447888D01*
X132819135Y-88447893D01*
X132972265Y-88559148D01*
X132972270Y-88559151D01*
X133145192Y-88636142D01*
X133145197Y-88636144D01*
X133330354Y-88675500D01*
X133330355Y-88675500D01*
X133475499Y-88675500D01*
X133542538Y-88695185D01*
X133588293Y-88747989D01*
X133599499Y-88799500D01*
X133599499Y-89232483D01*
X133598968Y-89240582D01*
X133594535Y-89274263D01*
X133598970Y-89307959D01*
X133614313Y-89424501D01*
X133649153Y-89508612D01*
X133649154Y-89508613D01*
X133672301Y-89564497D01*
X133743258Y-89656969D01*
X133743278Y-89656995D01*
X133764546Y-89684712D01*
X133764547Y-89684713D01*
X133764549Y-89684715D01*
X133769890Y-89688813D01*
X133791506Y-89705400D01*
X133797609Y-89710753D01*
X133949675Y-89862819D01*
X133983160Y-89924142D01*
X133978176Y-89993834D01*
X133936304Y-90049767D01*
X133870840Y-90074184D01*
X133861994Y-90074500D01*
X133466781Y-90074500D01*
X133458682Y-90073969D01*
X133438265Y-90071281D01*
X133425001Y-90069535D01*
X133424999Y-90069535D01*
X133389654Y-90074188D01*
X133389625Y-90074190D01*
X133253437Y-90092119D01*
X133252630Y-90093267D01*
X133222857Y-90110813D01*
X133134766Y-90147302D01*
X133046366Y-90215132D01*
X133046367Y-90215133D01*
X133014548Y-90239550D01*
X132993861Y-90266507D01*
X132988510Y-90272608D01*
X132282608Y-90978510D01*
X132276507Y-90983861D01*
X132249550Y-91004548D01*
X132225133Y-91036367D01*
X132225132Y-91036366D01*
X132167296Y-91111743D01*
X132157300Y-91124769D01*
X132099313Y-91264763D01*
X132099313Y-91264764D01*
X132083968Y-91381315D01*
X132083969Y-91381316D01*
X132079535Y-91415000D01*
X132081836Y-91432481D01*
X132083969Y-91448678D01*
X132084500Y-91456780D01*
X132084499Y-91575042D01*
X132064814Y-91642081D01*
X132012009Y-91687836D01*
X131942851Y-91697779D01*
X131917166Y-91691223D01*
X131822486Y-91655910D01*
X131822485Y-91655909D01*
X131822483Y-91655909D01*
X131762873Y-91649500D01*
X131762863Y-91649500D01*
X131017129Y-91649500D01*
X131017123Y-91649501D01*
X130957516Y-91655908D01*
X130822671Y-91706202D01*
X130814886Y-91710454D01*
X130813153Y-91707280D01*
X130763698Y-91725659D01*
X130695443Y-91710725D01*
X130694497Y-91710117D01*
X130687328Y-91706202D01*
X130552486Y-91655910D01*
X130552485Y-91655909D01*
X130552483Y-91655909D01*
X130492873Y-91649500D01*
X130492863Y-91649500D01*
X129747129Y-91649500D01*
X129747123Y-91649501D01*
X129687516Y-91655908D01*
X129552671Y-91706202D01*
X129552664Y-91706206D01*
X129437455Y-91792452D01*
X129437452Y-91792455D01*
X129351206Y-91907664D01*
X129351202Y-91907671D01*
X129300908Y-92042517D01*
X129294501Y-92102116D01*
X129294500Y-92102135D01*
X129294500Y-93897870D01*
X129294501Y-93897876D01*
X129300908Y-93957481D01*
X129302497Y-93964203D01*
X129298756Y-94033973D01*
X129269504Y-94080398D01*
X129240282Y-94109621D01*
X129240277Y-94109627D01*
X129218732Y-94146059D01*
X129167663Y-94193743D01*
X129098921Y-94206246D01*
X129034332Y-94179601D01*
X128994402Y-94122265D01*
X128988000Y-94082938D01*
X128988000Y-75130000D01*
X130026634Y-75130000D01*
X130026931Y-75131946D01*
X130026933Y-75131952D01*
X130097562Y-75322657D01*
X130097565Y-75322664D01*
X130205149Y-75495267D01*
X130345264Y-75642668D01*
X130345266Y-75642669D01*
X130512195Y-75758856D01*
X130699092Y-75839059D01*
X130898310Y-75880000D01*
X131050000Y-75880000D01*
X131050000Y-75180000D01*
X131550000Y-75180000D01*
X131550000Y-75880000D01*
X131650713Y-75880000D01*
X131802338Y-75864581D01*
X131996381Y-75803700D01*
X131996391Y-75803695D01*
X132174215Y-75704994D01*
X132174216Y-75704994D01*
X132328530Y-75572521D01*
X132328531Y-75572520D01*
X132453018Y-75411695D01*
X132542588Y-75229093D01*
X132568246Y-75130000D01*
X131766111Y-75130000D01*
X131805610Y-75105543D01*
X131873201Y-75016038D01*
X131903895Y-74908160D01*
X131893546Y-74796479D01*
X131843552Y-74696078D01*
X131771069Y-74630000D01*
X132573366Y-74630000D01*
X132573068Y-74628053D01*
X132573066Y-74628047D01*
X132502437Y-74437342D01*
X132502434Y-74437335D01*
X132394850Y-74264732D01*
X132254735Y-74117331D01*
X132254733Y-74117330D01*
X132087804Y-74001143D01*
X131900907Y-73920940D01*
X131701690Y-73880000D01*
X131550000Y-73880000D01*
X131550000Y-74580000D01*
X131050000Y-74580000D01*
X131050000Y-73880000D01*
X130949287Y-73880000D01*
X130797661Y-73895418D01*
X130603618Y-73956299D01*
X130603608Y-73956304D01*
X130425784Y-74055005D01*
X130425783Y-74055005D01*
X130271469Y-74187478D01*
X130271468Y-74187479D01*
X130146981Y-74348304D01*
X130057411Y-74530906D01*
X130031754Y-74630000D01*
X130833889Y-74630000D01*
X130794390Y-74654457D01*
X130726799Y-74743962D01*
X130696105Y-74851840D01*
X130706454Y-74963521D01*
X130756448Y-75063922D01*
X130828931Y-75130000D01*
X130026634Y-75130000D01*
X128988000Y-75130000D01*
X128988000Y-72408487D01*
X128988390Y-72401543D01*
X128989058Y-72395603D01*
X128990972Y-72378618D01*
X129001434Y-72299153D01*
X129007326Y-72274409D01*
X129019286Y-72240229D01*
X129020493Y-72237069D01*
X129042972Y-72182799D01*
X129052524Y-72164309D01*
X129074413Y-72129473D01*
X129077693Y-72124758D01*
X129114508Y-72076779D01*
X129119827Y-72070714D01*
X129153214Y-72037327D01*
X129159279Y-72032008D01*
X129207258Y-71995193D01*
X129211973Y-71991913D01*
X129246809Y-71970024D01*
X129265299Y-71960472D01*
X129319569Y-71937993D01*
X129322729Y-71936786D01*
X129356909Y-71924826D01*
X129381656Y-71918934D01*
X129461093Y-71908475D01*
X129484043Y-71905889D01*
X129490981Y-71905500D01*
X136614794Y-71905500D01*
X136681833Y-71925185D01*
G37*
%TD.AperFunction*%
%TA.AperFunction,Conductor*%
G36*
X134564387Y-91245185D02*
G01*
X134610142Y-91297989D01*
X134620086Y-91367147D01*
X134591061Y-91430703D01*
X134585029Y-91437182D01*
X134407424Y-91614785D01*
X134346100Y-91648269D01*
X134306497Y-91650393D01*
X134302850Y-91650001D01*
X134302828Y-91650000D01*
X134180000Y-91650000D01*
X134180000Y-91862962D01*
X134170561Y-91910414D01*
X134139314Y-91985851D01*
X134139313Y-91985855D01*
X134130803Y-92050500D01*
X134124655Y-92097196D01*
X134124645Y-92097260D01*
X134119535Y-92136091D01*
X134123968Y-92169776D01*
X134124499Y-92177875D01*
X134124499Y-92855118D01*
X134124500Y-93126000D01*
X134104816Y-93193039D01*
X134052012Y-93238794D01*
X134000500Y-93250000D01*
X133804000Y-93250000D01*
X133736961Y-93230315D01*
X133691206Y-93177511D01*
X133680000Y-93126000D01*
X133680000Y-91650000D01*
X133557164Y-91650000D01*
X133550014Y-91650769D01*
X133481255Y-91638362D01*
X133430119Y-91590750D01*
X133412841Y-91523050D01*
X133434907Y-91456757D01*
X133449081Y-91439798D01*
X133451698Y-91437182D01*
X133627060Y-91261819D01*
X133688384Y-91228334D01*
X133714742Y-91225500D01*
X134497348Y-91225500D01*
X134564387Y-91245185D01*
G37*
%TD.AperFunction*%
%TA.AperFunction,Conductor*%
G36*
X145283480Y-87264685D02*
G01*
X145321138Y-87305133D01*
X145321331Y-87304989D01*
X145322671Y-87306779D01*
X145325274Y-87309575D01*
X145326648Y-87312091D01*
X145412809Y-87427187D01*
X145412812Y-87427190D01*
X145527906Y-87513350D01*
X145527913Y-87513354D01*
X145662620Y-87563596D01*
X145662627Y-87563598D01*
X145722155Y-87569999D01*
X145722172Y-87570000D01*
X145875500Y-87570000D01*
X145942539Y-87589685D01*
X145988294Y-87642489D01*
X145999500Y-87694000D01*
X145999500Y-88058609D01*
X145999501Y-88350500D01*
X145979817Y-88417539D01*
X145927013Y-88463294D01*
X145875501Y-88474500D01*
X145284500Y-88474500D01*
X145217461Y-88454815D01*
X145171706Y-88402011D01*
X145160500Y-88350500D01*
X145160500Y-88250317D01*
X145160499Y-88250302D01*
X145159185Y-88233609D01*
X145157643Y-88214007D01*
X145155581Y-88206910D01*
X145112495Y-88058609D01*
X145112494Y-88058605D01*
X145100089Y-88037630D01*
X145082906Y-87969909D01*
X145100091Y-87911384D01*
X145112032Y-87891194D01*
X145154504Y-87745000D01*
X144848352Y-87745000D01*
X144785233Y-87727732D01*
X144776395Y-87722506D01*
X144776393Y-87722505D01*
X144776389Y-87722503D01*
X144620997Y-87677357D01*
X144620991Y-87677356D01*
X144584697Y-87674500D01*
X144584690Y-87674500D01*
X144224000Y-87674500D01*
X144156961Y-87654815D01*
X144111206Y-87602011D01*
X144100000Y-87550500D01*
X144100000Y-87547265D01*
X144119685Y-87480226D01*
X144132075Y-87464850D01*
X144135449Y-87460452D01*
X144135451Y-87460451D01*
X144156138Y-87433489D01*
X144161480Y-87427398D01*
X144307562Y-87281316D01*
X144368883Y-87247834D01*
X144395241Y-87245000D01*
X145216441Y-87245000D01*
X145283480Y-87264685D01*
G37*
%TD.AperFunction*%
%TA.AperFunction,Conductor*%
G36*
X146338039Y-86339685D02*
G01*
X146383794Y-86392489D01*
X146395000Y-86444000D01*
X146395000Y-86696000D01*
X146375315Y-86763039D01*
X146322511Y-86808794D01*
X146271000Y-86820000D01*
X145270000Y-86820000D01*
X145270000Y-86912647D01*
X145250315Y-86979686D01*
X145197511Y-87025441D01*
X145128353Y-87035385D01*
X145064797Y-87006360D01*
X145039268Y-86975768D01*
X145029721Y-86959625D01*
X145029714Y-86959616D01*
X144917169Y-86847071D01*
X144883684Y-86785748D01*
X144888668Y-86716056D01*
X144917166Y-86671713D01*
X145232561Y-86356317D01*
X145293883Y-86322834D01*
X145320241Y-86320000D01*
X146271000Y-86320000D01*
X146338039Y-86339685D01*
G37*
%TD.AperFunction*%
%TA.AperFunction,Conductor*%
G36*
X137689896Y-83059408D02*
G01*
X137723381Y-83120731D01*
X137721291Y-83181684D01*
X137675333Y-83339870D01*
X137675332Y-83339876D01*
X137672500Y-83375864D01*
X137672500Y-83420500D01*
X137652815Y-83487539D01*
X137600011Y-83533294D01*
X137548500Y-83544500D01*
X137151870Y-83544500D01*
X137084831Y-83524815D01*
X137039076Y-83472011D01*
X137029300Y-83439278D01*
X137022176Y-83392778D01*
X137031481Y-83323531D01*
X137076747Y-83270307D01*
X137143602Y-83250005D01*
X137144746Y-83250000D01*
X137167828Y-83250000D01*
X137167844Y-83249999D01*
X137227372Y-83243598D01*
X137227379Y-83243596D01*
X137362086Y-83193354D01*
X137362093Y-83193350D01*
X137477187Y-83107190D01*
X137477188Y-83107189D01*
X137502948Y-83072779D01*
X137558881Y-83030907D01*
X137628573Y-83025923D01*
X137689896Y-83059408D01*
G37*
%TD.AperFunction*%
%TA.AperFunction,Conductor*%
G36*
X146363039Y-78739685D02*
G01*
X146408794Y-78792489D01*
X146420000Y-78844000D01*
X146420000Y-79933637D01*
X146400315Y-80000676D01*
X146395000Y-80007271D01*
X146395000Y-81570000D01*
X146516757Y-81570000D01*
X146583796Y-81589685D01*
X146629551Y-81642489D01*
X146639495Y-81711647D01*
X146610470Y-81775203D01*
X146604438Y-81781681D01*
X145607180Y-82778938D01*
X145545857Y-82812423D01*
X145476165Y-82807439D01*
X145420232Y-82765567D01*
X145395815Y-82700103D01*
X145395499Y-82691278D01*
X145395499Y-82390820D01*
X145392665Y-82354796D01*
X145347869Y-82200607D01*
X145266135Y-82062402D01*
X145266133Y-82062400D01*
X145266130Y-82062396D01*
X145239271Y-82035537D01*
X145205786Y-81974214D01*
X145210610Y-81906753D01*
X145210277Y-81906643D01*
X145210712Y-81905329D01*
X145210770Y-81904522D01*
X145211771Y-81902131D01*
X145212546Y-81899791D01*
X145212549Y-81899787D01*
X145265436Y-81740185D01*
X145275500Y-81641674D01*
X145275500Y-81572120D01*
X145295185Y-81505081D01*
X145347989Y-81459326D01*
X145417147Y-81449382D01*
X145473812Y-81472854D01*
X145527910Y-81513352D01*
X145527913Y-81513354D01*
X145662620Y-81563596D01*
X145662627Y-81563598D01*
X145722155Y-81569999D01*
X145722172Y-81570000D01*
X145895000Y-81570000D01*
X145895000Y-79606362D01*
X145914685Y-79539323D01*
X145920000Y-79532727D01*
X145920000Y-78844000D01*
X145939685Y-78776961D01*
X145992489Y-78731206D01*
X146044000Y-78720000D01*
X146296000Y-78720000D01*
X146363039Y-78739685D01*
G37*
%TD.AperFunction*%
%TA.AperFunction,Conductor*%
G36*
X135524935Y-82430074D02*
G01*
X135562517Y-82444091D01*
X135562516Y-82444091D01*
X135569444Y-82444835D01*
X135622127Y-82450500D01*
X136521001Y-82450499D01*
X136588039Y-82470183D01*
X136633794Y-82522987D01*
X136645000Y-82574499D01*
X136645000Y-82576000D01*
X136625315Y-82643039D01*
X136572511Y-82688794D01*
X136521000Y-82700000D01*
X135458778Y-82700000D01*
X135391739Y-82680315D01*
X135345984Y-82627511D01*
X135336040Y-82558353D01*
X135360403Y-82500512D01*
X135360448Y-82500453D01*
X135360451Y-82500451D01*
X135383228Y-82470766D01*
X135439656Y-82429566D01*
X135509402Y-82425412D01*
X135524935Y-82430074D01*
G37*
%TD.AperFunction*%
%TA.AperFunction,Conductor*%
G36*
X143068039Y-77564685D02*
G01*
X143113794Y-77617489D01*
X143125000Y-77669000D01*
X143125000Y-78595000D01*
X143471934Y-78595000D01*
X143538973Y-78614685D01*
X143584728Y-78667489D01*
X143590245Y-78685073D01*
X143591088Y-78684829D01*
X143637969Y-78846197D01*
X143641066Y-78853353D01*
X143639442Y-78854055D01*
X143654234Y-78912384D01*
X143632067Y-78978644D01*
X143600264Y-79008723D01*
X143600588Y-79009132D01*
X143595983Y-79012773D01*
X143595423Y-79013303D01*
X143594923Y-79013611D01*
X143594920Y-79013613D01*
X143476114Y-79132419D01*
X143387908Y-79275422D01*
X143387906Y-79275427D01*
X143335057Y-79434916D01*
X143325000Y-79533349D01*
X143325000Y-79550000D01*
X144050000Y-79550000D01*
X144050000Y-78946500D01*
X144069685Y-78879461D01*
X144122489Y-78833706D01*
X144143327Y-78829172D01*
X144150000Y-78822500D01*
X144150000Y-78394500D01*
X144169685Y-78327461D01*
X144222489Y-78281706D01*
X144274000Y-78270500D01*
X144526000Y-78270500D01*
X144593039Y-78290185D01*
X144638794Y-78342989D01*
X144650000Y-78394500D01*
X144650000Y-79146000D01*
X144630315Y-79213039D01*
X144577511Y-79258794D01*
X144556672Y-79263327D01*
X144550000Y-79270000D01*
X144550000Y-79926000D01*
X144530315Y-79993039D01*
X144477511Y-80038794D01*
X144426000Y-80050000D01*
X143325001Y-80050000D01*
X143325001Y-80066652D01*
X143335056Y-80165083D01*
X143387906Y-80324572D01*
X143387908Y-80324577D01*
X143476114Y-80467580D01*
X143508000Y-80499467D01*
X143541485Y-80560791D01*
X143536499Y-80630482D01*
X143508000Y-80674827D01*
X143475719Y-80707107D01*
X143475716Y-80707112D01*
X143387455Y-80850204D01*
X143387450Y-80850215D01*
X143376054Y-80884606D01*
X143334564Y-81009815D01*
X143334564Y-81009816D01*
X143334563Y-81009816D01*
X143324500Y-81108318D01*
X143324500Y-81641686D01*
X143329668Y-81692270D01*
X143316898Y-81760963D01*
X143269017Y-81811847D01*
X143240905Y-81823947D01*
X143123809Y-81857966D01*
X143123805Y-81857968D01*
X143113607Y-81863999D01*
X143045882Y-81881178D01*
X142987371Y-81863997D01*
X142976395Y-81857506D01*
X142976393Y-81857505D01*
X142976391Y-81857504D01*
X142820997Y-81812357D01*
X142820991Y-81812356D01*
X142784697Y-81809500D01*
X142784690Y-81809500D01*
X142486652Y-81809500D01*
X142419613Y-81789815D01*
X142373858Y-81737011D01*
X142363914Y-81667853D01*
X142367576Y-81650905D01*
X142397597Y-81547573D01*
X142397598Y-81547567D01*
X142400500Y-81510697D01*
X142400500Y-81079313D01*
X142400499Y-81079298D01*
X142399002Y-81060278D01*
X142397598Y-81042431D01*
X142395051Y-81033665D01*
X142351745Y-80884606D01*
X142351744Y-80884602D01*
X142350871Y-80883126D01*
X142350538Y-80881816D01*
X142348646Y-80877443D01*
X142349351Y-80877137D01*
X142333685Y-80815403D01*
X142349139Y-80762770D01*
X142348646Y-80762557D01*
X142350376Y-80758558D01*
X142350871Y-80756874D01*
X142351744Y-80755398D01*
X142394199Y-80609270D01*
X142397597Y-80597573D01*
X142397598Y-80597567D01*
X142398334Y-80588219D01*
X142400500Y-80560694D01*
X142400500Y-80290072D01*
X142420185Y-80223033D01*
X142436815Y-80202394D01*
X142509565Y-80129643D01*
X142515663Y-80124295D01*
X142542621Y-80103611D01*
X142559564Y-80081530D01*
X142559575Y-80081518D01*
X142634868Y-79983393D01*
X142649998Y-79946865D01*
X142677443Y-79880607D01*
X142692857Y-79843396D01*
X142707670Y-79730880D01*
X142707670Y-79730874D01*
X142712635Y-79693160D01*
X142708200Y-79659476D01*
X142707670Y-79651379D01*
X142707670Y-78848950D01*
X142708201Y-78840848D01*
X142709142Y-78833706D01*
X142712635Y-78807170D01*
X142707936Y-78771483D01*
X142707935Y-78771464D01*
X142702330Y-78728890D01*
X142692857Y-78656934D01*
X142634868Y-78516937D01*
X142634439Y-78515901D01*
X142625000Y-78468448D01*
X142625000Y-77669000D01*
X142644685Y-77601961D01*
X142697489Y-77556206D01*
X142749000Y-77545000D01*
X143001000Y-77545000D01*
X143068039Y-77564685D01*
G37*
%TD.AperFunction*%
%TA.AperFunction,Conductor*%
G36*
X139494735Y-76921950D02*
G01*
X139539079Y-76950447D01*
X139668683Y-77080051D01*
X139702166Y-77141372D01*
X139705000Y-77167730D01*
X139705000Y-77215251D01*
X139732166Y-77265001D01*
X139735000Y-77291361D01*
X139735000Y-77820000D01*
X140259505Y-77820000D01*
X140309233Y-77790254D01*
X140379066Y-77792498D01*
X140436601Y-77832141D01*
X140454889Y-77862839D01*
X140482406Y-77929270D01*
X140497301Y-77965233D01*
X140568258Y-78057705D01*
X140568278Y-78057731D01*
X140589546Y-78085448D01*
X140589547Y-78085449D01*
X140589549Y-78085451D01*
X140608508Y-78099999D01*
X140616506Y-78106136D01*
X140622609Y-78111489D01*
X140893939Y-78382819D01*
X140927424Y-78444142D01*
X140922440Y-78513834D01*
X140880568Y-78569767D01*
X140815104Y-78594184D01*
X140806258Y-78594500D01*
X140659298Y-78594500D01*
X140622432Y-78597401D01*
X140622426Y-78597402D01*
X140464606Y-78643254D01*
X140464599Y-78643257D01*
X140362829Y-78703443D01*
X140295105Y-78720626D01*
X140228843Y-78698466D01*
X140185080Y-78643999D01*
X140177711Y-78574519D01*
X140192978Y-78533589D01*
X140207405Y-78509193D01*
X140207407Y-78509188D01*
X140252166Y-78355128D01*
X140252167Y-78355122D01*
X140254931Y-78320000D01*
X139359500Y-78320000D01*
X139292461Y-78300315D01*
X139246706Y-78247511D01*
X139235500Y-78196000D01*
X139235499Y-77820830D01*
X139235498Y-77820808D01*
X139235434Y-77820000D01*
X139232665Y-77784796D01*
X139209924Y-77706520D01*
X139205000Y-77671925D01*
X139205000Y-77543352D01*
X139222269Y-77480229D01*
X139227494Y-77471395D01*
X139267478Y-77333770D01*
X139272642Y-77315997D01*
X139272643Y-77315991D01*
X139274061Y-77297970D01*
X139275500Y-77279690D01*
X139275500Y-77090036D01*
X139295185Y-77022997D01*
X139311818Y-77002356D01*
X139319490Y-76994684D01*
X139363723Y-76950450D01*
X139425044Y-76916966D01*
X139494735Y-76921950D01*
G37*
%TD.AperFunction*%
%TA.AperFunction,Conductor*%
G36*
X145412799Y-71925185D02*
G01*
X145458554Y-71977989D01*
X145468498Y-72047147D01*
X145442102Y-72104946D01*
X145443125Y-72105712D01*
X145439604Y-72110414D01*
X145439473Y-72110703D01*
X145439043Y-72111164D01*
X145351649Y-72227906D01*
X145351645Y-72227913D01*
X145301403Y-72362620D01*
X145301401Y-72362627D01*
X145295000Y-72422155D01*
X145295000Y-72720000D01*
X147045000Y-72720000D01*
X147045000Y-72422172D01*
X147044999Y-72422155D01*
X147038598Y-72362627D01*
X147038596Y-72362620D01*
X146988354Y-72227913D01*
X146988350Y-72227906D01*
X146896875Y-72105712D01*
X146899303Y-72103893D01*
X146873074Y-72055858D01*
X146878058Y-71986166D01*
X146919930Y-71930233D01*
X146985394Y-71905816D01*
X146994240Y-71905500D01*
X149095046Y-71905500D01*
X149162085Y-71925185D01*
X149207840Y-71977989D01*
X149217784Y-72047147D01*
X149191600Y-72104480D01*
X149192768Y-72105355D01*
X149101206Y-72227664D01*
X149101202Y-72227671D01*
X149050908Y-72362517D01*
X149044501Y-72422116D01*
X149044500Y-72422135D01*
X149044500Y-73517870D01*
X149044501Y-73517876D01*
X149050908Y-73577483D01*
X149101202Y-73712328D01*
X149101206Y-73712335D01*
X149187452Y-73827544D01*
X149187455Y-73827547D01*
X149302664Y-73913793D01*
X149302671Y-73913797D01*
X149437517Y-73964091D01*
X149437516Y-73964091D01*
X149444444Y-73964835D01*
X149497127Y-73970500D01*
X150342872Y-73970499D01*
X150402483Y-73964091D01*
X150537331Y-73913796D01*
X150652546Y-73827546D01*
X150738796Y-73712331D01*
X150738885Y-73712093D01*
X150746818Y-73690824D01*
X150788688Y-73634890D01*
X150854152Y-73610472D01*
X150922425Y-73625323D01*
X150971831Y-73674727D01*
X150987000Y-73734156D01*
X150987000Y-78205843D01*
X150967315Y-78272882D01*
X150914511Y-78318637D01*
X150845353Y-78328581D01*
X150781797Y-78299556D01*
X150746818Y-78249176D01*
X150738797Y-78227671D01*
X150738793Y-78227664D01*
X150652547Y-78112455D01*
X150652544Y-78112452D01*
X150537335Y-78026206D01*
X150537328Y-78026202D01*
X150402482Y-77975908D01*
X150402483Y-77975908D01*
X150342883Y-77969501D01*
X150342881Y-77969500D01*
X150342873Y-77969500D01*
X150342864Y-77969500D01*
X149497129Y-77969500D01*
X149497123Y-77969501D01*
X149437516Y-77975908D01*
X149302671Y-78026202D01*
X149302664Y-78026206D01*
X149187455Y-78112452D01*
X149187452Y-78112455D01*
X149101206Y-78227664D01*
X149101203Y-78227669D01*
X149049806Y-78365472D01*
X149007934Y-78421405D01*
X148942470Y-78445822D01*
X148899029Y-78441214D01*
X148765208Y-78402335D01*
X148765202Y-78402334D01*
X148729188Y-78399500D01*
X148729181Y-78399500D01*
X148511697Y-78399500D01*
X148444658Y-78379815D01*
X148398903Y-78327011D01*
X148388376Y-78262541D01*
X148405460Y-78100000D01*
X148385674Y-77911744D01*
X148327179Y-77731716D01*
X148232533Y-77567784D01*
X148105871Y-77427112D01*
X148105870Y-77427111D01*
X147952734Y-77315851D01*
X147952729Y-77315848D01*
X147779807Y-77238857D01*
X147779802Y-77238855D01*
X147634001Y-77207865D01*
X147594646Y-77199500D01*
X147405354Y-77199500D01*
X147372897Y-77206398D01*
X147220197Y-77238855D01*
X147220192Y-77238857D01*
X147047270Y-77315848D01*
X147047265Y-77315851D01*
X146894129Y-77427111D01*
X146767466Y-77567785D01*
X146672821Y-77731715D01*
X146672818Y-77731722D01*
X146623237Y-77884318D01*
X146583799Y-77941994D01*
X146519441Y-77969192D01*
X146505306Y-77970000D01*
X146414801Y-77970000D01*
X146347762Y-77950315D01*
X146302007Y-77897511D01*
X146292063Y-77828353D01*
X146296870Y-77807682D01*
X146300205Y-77797416D01*
X146335674Y-77688256D01*
X146355460Y-77500000D01*
X146335674Y-77311744D01*
X146277179Y-77131716D01*
X146238808Y-77065256D01*
X146222336Y-76997358D01*
X146228263Y-76964945D01*
X146285674Y-76788256D01*
X146305460Y-76600000D01*
X146285674Y-76411744D01*
X146227179Y-76231716D01*
X146132533Y-76067784D01*
X146005871Y-75927112D01*
X146005870Y-75927111D01*
X145852734Y-75815851D01*
X145852729Y-75815848D01*
X145679807Y-75738857D01*
X145679802Y-75738855D01*
X145520493Y-75704994D01*
X145494646Y-75699500D01*
X145305354Y-75699500D01*
X145279507Y-75704994D01*
X145120197Y-75738855D01*
X145120192Y-75738857D01*
X145008069Y-75788779D01*
X144957633Y-75799500D01*
X144782066Y-75799500D01*
X144747471Y-75794576D01*
X144717929Y-75785993D01*
X144670994Y-75772357D01*
X144670991Y-75772356D01*
X144634697Y-75769500D01*
X144634690Y-75769500D01*
X144274000Y-75769500D01*
X144206961Y-75749815D01*
X144161206Y-75697011D01*
X144150000Y-75645500D01*
X144150000Y-74811210D01*
X144149999Y-74811209D01*
X144650000Y-74811209D01*
X144650000Y-75340000D01*
X145204504Y-75340000D01*
X145162031Y-75193804D01*
X145079721Y-75054625D01*
X145079714Y-75054616D01*
X144965383Y-74940285D01*
X144965374Y-74940278D01*
X144826195Y-74857968D01*
X144826190Y-74857966D01*
X144670918Y-74812855D01*
X144670912Y-74812854D01*
X144650000Y-74811209D01*
X144149999Y-74811209D01*
X144129087Y-74812854D01*
X144129081Y-74812855D01*
X143973809Y-74857966D01*
X143973804Y-74857968D01*
X143834625Y-74940278D01*
X143834616Y-74940285D01*
X143720283Y-75054618D01*
X143716302Y-75059751D01*
X143659658Y-75100656D01*
X143589891Y-75104443D01*
X143583745Y-75102828D01*
X143565069Y-75097402D01*
X143565066Y-75097401D01*
X143565067Y-75097401D01*
X143528201Y-75094500D01*
X143528194Y-75094500D01*
X142221806Y-75094500D01*
X142221798Y-75094500D01*
X142184932Y-75097401D01*
X142184926Y-75097402D01*
X142027106Y-75143254D01*
X142027103Y-75143255D01*
X141885637Y-75226917D01*
X141885629Y-75226923D01*
X141769423Y-75343129D01*
X141769417Y-75343137D01*
X141685755Y-75484603D01*
X141685754Y-75484606D01*
X141639902Y-75642426D01*
X141639901Y-75642432D01*
X141637000Y-75679298D01*
X141637000Y-75920500D01*
X141617315Y-75987539D01*
X141564511Y-76033294D01*
X141513000Y-76044500D01*
X140807230Y-76044500D01*
X140740191Y-76024815D01*
X140719549Y-76008181D01*
X140271819Y-75560451D01*
X140238334Y-75499128D01*
X140235500Y-75472770D01*
X140235500Y-75340317D01*
X140235499Y-75340302D01*
X140235475Y-75340000D01*
X140232643Y-75304007D01*
X140229933Y-75294679D01*
X140230130Y-75224810D01*
X140268070Y-75166139D01*
X140331708Y-75137294D01*
X140335570Y-75136811D01*
X140514145Y-75117391D01*
X140858378Y-75041619D01*
X141192401Y-74929074D01*
X141192408Y-74929070D01*
X141192411Y-74929070D01*
X141450601Y-74809618D01*
X141512298Y-74781074D01*
X141814318Y-74599354D01*
X142094920Y-74386046D01*
X142350814Y-74143650D01*
X142579001Y-73875008D01*
X142776805Y-73583269D01*
X142941907Y-73271854D01*
X142962568Y-73220000D01*
X145295000Y-73220000D01*
X145295000Y-73517844D01*
X145301401Y-73577372D01*
X145301403Y-73577379D01*
X145351645Y-73712086D01*
X145351649Y-73712093D01*
X145437809Y-73827187D01*
X145437812Y-73827190D01*
X145552906Y-73913350D01*
X145552913Y-73913354D01*
X145687620Y-73963596D01*
X145687627Y-73963598D01*
X145747155Y-73969999D01*
X145747172Y-73970000D01*
X145920000Y-73970000D01*
X145920000Y-73220000D01*
X146420000Y-73220000D01*
X146420000Y-73970000D01*
X146592828Y-73970000D01*
X146592844Y-73969999D01*
X146652372Y-73963598D01*
X146652379Y-73963596D01*
X146787086Y-73913354D01*
X146787093Y-73913350D01*
X146902187Y-73827190D01*
X146902190Y-73827187D01*
X146988350Y-73712093D01*
X146988354Y-73712086D01*
X147038596Y-73577379D01*
X147038598Y-73577372D01*
X147044999Y-73517844D01*
X147045000Y-73517827D01*
X147045000Y-73220000D01*
X146420000Y-73220000D01*
X145920000Y-73220000D01*
X145295000Y-73220000D01*
X142962568Y-73220000D01*
X143072371Y-72944414D01*
X143166668Y-72604788D01*
X143223691Y-72256957D01*
X143235888Y-72032008D01*
X143236388Y-72022786D01*
X143259673Y-71956911D01*
X143314877Y-71914082D01*
X143360206Y-71905500D01*
X145345760Y-71905500D01*
X145412799Y-71925185D01*
G37*
%TD.AperFunction*%
%TA.AperFunction,Conductor*%
G36*
X142629809Y-76715185D02*
G01*
X142650451Y-76731819D01*
X142701951Y-76783319D01*
X142735436Y-76844642D01*
X142730452Y-76914334D01*
X142688580Y-76970267D01*
X142623116Y-76994684D01*
X142614270Y-76995000D01*
X142362000Y-76995000D01*
X142294961Y-76975315D01*
X142249206Y-76922511D01*
X142238000Y-76871000D01*
X142238000Y-76819500D01*
X142257685Y-76752461D01*
X142310489Y-76706706D01*
X142362000Y-76695500D01*
X142562770Y-76695500D01*
X142629809Y-76715185D01*
G37*
%TD.AperFunction*%
%TD*%
M02*
