%TF.GenerationSoftware,KiCad,Pcbnew,7.0.5-0*%
%TF.CreationDate,2023-07-31T19:13:09-04:00*%
%TF.ProjectId,mula,6d756c61-2e6b-4696-9361-645f70636258,rev?*%
%TF.SameCoordinates,Original*%
%TF.FileFunction,Drillmap*%
%TF.FilePolarity,Positive*%
%FSLAX45Y45*%
G04 Gerber Fmt 4.5, Leading zero omitted, Abs format (unit mm)*
G04 Created by KiCad (PCBNEW 7.0.5-0) date 2023-07-31 19:13:09*
%MOMM*%
%LPD*%
G01*
G04 APERTURE LIST*
%ADD10C,0.200000*%
%ADD11C,0.040000*%
%ADD12C,0.060000*%
%ADD13C,0.350000*%
G04 APERTURE END LIST*
D10*
D11*
X12990000Y-10132500D02*
X13030000Y-10172500D01*
X13030000Y-10132500D02*
X12990000Y-10172500D01*
X13002500Y-9910000D02*
X13042500Y-9950000D01*
X13042500Y-9910000D02*
X13002500Y-9950000D01*
X13042500Y-7270000D02*
X13082500Y-7310000D01*
X13082500Y-7270000D02*
X13042500Y-7310000D01*
X13065000Y-11012500D02*
X13105000Y-11052500D01*
X13105000Y-11012500D02*
X13065000Y-11052500D01*
X13102500Y-10135000D02*
X13142500Y-10175000D01*
X13142500Y-10135000D02*
X13102500Y-10175000D01*
X13220000Y-7270000D02*
X13260000Y-7310000D01*
X13260000Y-7270000D02*
X13220000Y-7310000D01*
X13302500Y-11012500D02*
X13342500Y-11052500D01*
X13342500Y-11012500D02*
X13302500Y-11052500D01*
X13322500Y-8757500D02*
X13362500Y-8797500D01*
X13362500Y-8757500D02*
X13322500Y-8797500D01*
X13342500Y-7975000D02*
X13382500Y-8015000D01*
X13382500Y-7975000D02*
X13342500Y-8015000D01*
X13345000Y-7880000D02*
X13385000Y-7920000D01*
X13385000Y-7880000D02*
X13345000Y-7920000D01*
X13347500Y-7782500D02*
X13387500Y-7822500D01*
X13387500Y-7782500D02*
X13347500Y-7822500D01*
X13375000Y-9120000D02*
X13415000Y-9160000D01*
X13415000Y-9120000D02*
X13375000Y-9160000D01*
X13417500Y-7270000D02*
X13457500Y-7310000D01*
X13457500Y-7270000D02*
X13417500Y-7310000D01*
X13535000Y-11012500D02*
X13575000Y-11052500D01*
X13575000Y-11012500D02*
X13535000Y-11052500D01*
X13663331Y-8591735D02*
X13703331Y-8631735D01*
X13703331Y-8591735D02*
X13663331Y-8631735D01*
X13695050Y-8804591D02*
X13735050Y-8844591D01*
X13735050Y-8804591D02*
X13695050Y-8844591D01*
X13722500Y-8329550D02*
X13762500Y-8369550D01*
X13762500Y-8329550D02*
X13722500Y-8369550D01*
X13755000Y-9110000D02*
X13795000Y-9150000D01*
X13795000Y-9110000D02*
X13755000Y-9150000D01*
X13755000Y-10400000D02*
X13795000Y-10440000D01*
X13795000Y-10400000D02*
X13755000Y-10440000D01*
X13782500Y-9652500D02*
X13822500Y-9692500D01*
X13822500Y-9652500D02*
X13782500Y-9692500D01*
X13835000Y-8762500D02*
X13875000Y-8802500D01*
X13875000Y-8762500D02*
X13835000Y-8802500D01*
X13837500Y-8965000D02*
X13877500Y-9005000D01*
X13877500Y-8965000D02*
X13837500Y-9005000D01*
X13852500Y-9497500D02*
X13892500Y-9537500D01*
X13892500Y-9497500D02*
X13852500Y-9537500D01*
X13875000Y-8015000D02*
X13915000Y-8055000D01*
X13915000Y-8015000D02*
X13875000Y-8055000D01*
X13947500Y-8865000D02*
X13987500Y-8905000D01*
X13987500Y-8865000D02*
X13947500Y-8905000D01*
X14022500Y-9442500D02*
X14062500Y-9482500D01*
X14062500Y-9442500D02*
X14022500Y-9482500D01*
X14027500Y-7822500D02*
X14067500Y-7862500D01*
X14067500Y-7822500D02*
X14027500Y-7862500D01*
X14047500Y-8965000D02*
X14087500Y-9005000D01*
X14087500Y-8965000D02*
X14047500Y-9005000D01*
X14050000Y-8760000D02*
X14090000Y-8800000D01*
X14090000Y-8760000D02*
X14050000Y-8800000D01*
X14162500Y-9095000D02*
X14202500Y-9135000D01*
X14202500Y-9095000D02*
X14162500Y-9135000D01*
X14185050Y-8887500D02*
X14225050Y-8927500D01*
X14225050Y-8887500D02*
X14185050Y-8927500D01*
X14220000Y-10407500D02*
X14260000Y-10447500D01*
X14260000Y-10407500D02*
X14220000Y-10447500D01*
X14232500Y-7667500D02*
X14272500Y-7707500D01*
X14272500Y-7667500D02*
X14232500Y-7707500D01*
X14301528Y-8526528D02*
X14341528Y-8566528D01*
X14341528Y-8526528D02*
X14301528Y-8566528D01*
X14372500Y-9545000D02*
X14412500Y-9585000D01*
X14412500Y-9545000D02*
X14372500Y-9585000D01*
X14405000Y-7265000D02*
X14445000Y-7305000D01*
X14445000Y-7265000D02*
X14405000Y-7305000D01*
X14410000Y-7960000D02*
X14450000Y-8000000D01*
X14450000Y-7960000D02*
X14410000Y-8000000D01*
X14520000Y-7539000D02*
X14560000Y-7579000D01*
X14560000Y-7539000D02*
X14520000Y-7579000D01*
X14520000Y-7640000D02*
X14560000Y-7680000D01*
X14560000Y-7640000D02*
X14520000Y-7680000D01*
X14525000Y-7730000D02*
X14565000Y-7770000D01*
X14565000Y-7730000D02*
X14525000Y-7770000D01*
X14535000Y-8780000D02*
X14575000Y-8820000D01*
X14575000Y-8780000D02*
X14535000Y-8820000D01*
X14535000Y-9030000D02*
X14575000Y-9070000D01*
X14575000Y-9030000D02*
X14535000Y-9070000D01*
X14595000Y-8035000D02*
X14635000Y-8075000D01*
X14635000Y-8035000D02*
X14595000Y-8075000D01*
X14597500Y-7877500D02*
X14637500Y-7917500D01*
X14637500Y-7877500D02*
X14597500Y-7917500D01*
X14607293Y-8371113D02*
X14647293Y-8411113D01*
X14647293Y-8371113D02*
X14607293Y-8411113D01*
X14608556Y-8471056D02*
X14648556Y-8511056D01*
X14648556Y-8471056D02*
X14608556Y-8511056D01*
X14657500Y-11012500D02*
X14697500Y-11052500D01*
X14697500Y-11012500D02*
X14657500Y-11052500D01*
X14670000Y-9250000D02*
X14710000Y-9290000D01*
X14710000Y-9250000D02*
X14670000Y-9290000D01*
X14730000Y-7790000D02*
X14770000Y-7830000D01*
X14770000Y-7790000D02*
X14730000Y-7830000D01*
X14737500Y-7550000D02*
X14777500Y-7590000D01*
X14777500Y-7550000D02*
X14737500Y-7590000D01*
X14777500Y-8542500D02*
X14817500Y-8582500D01*
X14817500Y-8542500D02*
X14777500Y-8582500D01*
X14880000Y-11007500D02*
X14920000Y-11047500D01*
X14920000Y-11007500D02*
X14880000Y-11047500D01*
X14925000Y-9870000D02*
X14965000Y-9910000D01*
X14965000Y-9870000D02*
X14925000Y-9910000D01*
X14925000Y-10120000D02*
X14965000Y-10160000D01*
X14965000Y-10120000D02*
X14925000Y-10160000D01*
D12*
X13160000Y-7488000D02*
G75*
G03*
X13160000Y-7488000I-30000J0D01*
G01*
D10*
X13160000Y-7458000D02*
X13100000Y-7458000D01*
X13100000Y-7458000D02*
G75*
G03*
X13100000Y-7518000I0J-30000D01*
G01*
X13100000Y-7518000D02*
X13160000Y-7518000D01*
X13160000Y-7518000D02*
G75*
G03*
X13160000Y-7458000I0J30000D01*
G01*
D12*
X13160000Y-8352000D02*
G75*
G03*
X13160000Y-8352000I-30000J0D01*
G01*
D10*
X13160000Y-8322000D02*
X13100000Y-8322000D01*
X13100000Y-8322000D02*
G75*
G03*
X13100000Y-8382000I0J-30000D01*
G01*
X13100000Y-8382000D02*
X13160000Y-8382000D01*
X13160000Y-8382000D02*
G75*
G03*
X13160000Y-8322000I0J30000D01*
G01*
D12*
X13578000Y-7488000D02*
G75*
G03*
X13578000Y-7488000I-30000J0D01*
G01*
D10*
X13603000Y-7458000D02*
X13493000Y-7458000D01*
X13493000Y-7458000D02*
G75*
G03*
X13493000Y-7518000I0J-30000D01*
G01*
X13493000Y-7518000D02*
X13603000Y-7518000D01*
X13603000Y-7518000D02*
G75*
G03*
X13603000Y-7458000I0J30000D01*
G01*
D12*
X13578000Y-8352000D02*
G75*
G03*
X13578000Y-8352000I-30000J0D01*
G01*
D10*
X13603000Y-8322000D02*
X13493000Y-8322000D01*
X13493000Y-8322000D02*
G75*
G03*
X13493000Y-8382000I0J-30000D01*
G01*
X13493000Y-8382000D02*
X13603000Y-8382000D01*
X13603000Y-8382000D02*
G75*
G03*
X13603000Y-8322000I0J30000D01*
G01*
D13*
X13998750Y-7015500D02*
X13998750Y-7365500D01*
X13823750Y-7190500D02*
X14173750Y-7190500D01*
D10*
X13157027Y-11704484D02*
X13157027Y-11504484D01*
X13157027Y-11504484D02*
X13204646Y-11504484D01*
X13204646Y-11504484D02*
X13233217Y-11514008D01*
X13233217Y-11514008D02*
X13252265Y-11533055D01*
X13252265Y-11533055D02*
X13261789Y-11552103D01*
X13261789Y-11552103D02*
X13271312Y-11590198D01*
X13271312Y-11590198D02*
X13271312Y-11618769D01*
X13271312Y-11618769D02*
X13261789Y-11656865D01*
X13261789Y-11656865D02*
X13252265Y-11675912D01*
X13252265Y-11675912D02*
X13233217Y-11694960D01*
X13233217Y-11694960D02*
X13204646Y-11704484D01*
X13204646Y-11704484D02*
X13157027Y-11704484D01*
X13357027Y-11704484D02*
X13357027Y-11571150D01*
X13357027Y-11609246D02*
X13366551Y-11590198D01*
X13366551Y-11590198D02*
X13376074Y-11580674D01*
X13376074Y-11580674D02*
X13395122Y-11571150D01*
X13395122Y-11571150D02*
X13414170Y-11571150D01*
X13480836Y-11704484D02*
X13480836Y-11571150D01*
X13480836Y-11504484D02*
X13471312Y-11514008D01*
X13471312Y-11514008D02*
X13480836Y-11523531D01*
X13480836Y-11523531D02*
X13490360Y-11514008D01*
X13490360Y-11514008D02*
X13480836Y-11504484D01*
X13480836Y-11504484D02*
X13480836Y-11523531D01*
X13604646Y-11704484D02*
X13585598Y-11694960D01*
X13585598Y-11694960D02*
X13576074Y-11675912D01*
X13576074Y-11675912D02*
X13576074Y-11504484D01*
X13709408Y-11704484D02*
X13690360Y-11694960D01*
X13690360Y-11694960D02*
X13680836Y-11675912D01*
X13680836Y-11675912D02*
X13680836Y-11504484D01*
X13937979Y-11704484D02*
X13937979Y-11504484D01*
X13937979Y-11504484D02*
X14004646Y-11647341D01*
X14004646Y-11647341D02*
X14071312Y-11504484D01*
X14071312Y-11504484D02*
X14071312Y-11704484D01*
X14252265Y-11704484D02*
X14252265Y-11599722D01*
X14252265Y-11599722D02*
X14242741Y-11580674D01*
X14242741Y-11580674D02*
X14223693Y-11571150D01*
X14223693Y-11571150D02*
X14185598Y-11571150D01*
X14185598Y-11571150D02*
X14166551Y-11580674D01*
X14252265Y-11694960D02*
X14233217Y-11704484D01*
X14233217Y-11704484D02*
X14185598Y-11704484D01*
X14185598Y-11704484D02*
X14166551Y-11694960D01*
X14166551Y-11694960D02*
X14157027Y-11675912D01*
X14157027Y-11675912D02*
X14157027Y-11656865D01*
X14157027Y-11656865D02*
X14166551Y-11637817D01*
X14166551Y-11637817D02*
X14185598Y-11628293D01*
X14185598Y-11628293D02*
X14233217Y-11628293D01*
X14233217Y-11628293D02*
X14252265Y-11618769D01*
X14347503Y-11571150D02*
X14347503Y-11771150D01*
X14347503Y-11580674D02*
X14366551Y-11571150D01*
X14366551Y-11571150D02*
X14404646Y-11571150D01*
X14404646Y-11571150D02*
X14423693Y-11580674D01*
X14423693Y-11580674D02*
X14433217Y-11590198D01*
X14433217Y-11590198D02*
X14442741Y-11609246D01*
X14442741Y-11609246D02*
X14442741Y-11666388D01*
X14442741Y-11666388D02*
X14433217Y-11685436D01*
X14433217Y-11685436D02*
X14423693Y-11694960D01*
X14423693Y-11694960D02*
X14404646Y-11704484D01*
X14404646Y-11704484D02*
X14366551Y-11704484D01*
X14366551Y-11704484D02*
X14347503Y-11694960D01*
X14528455Y-11685436D02*
X14537979Y-11694960D01*
X14537979Y-11694960D02*
X14528455Y-11704484D01*
X14528455Y-11704484D02*
X14518932Y-11694960D01*
X14518932Y-11694960D02*
X14528455Y-11685436D01*
X14528455Y-11685436D02*
X14528455Y-11704484D01*
X14528455Y-11580674D02*
X14537979Y-11590198D01*
X14537979Y-11590198D02*
X14528455Y-11599722D01*
X14528455Y-11599722D02*
X14518932Y-11590198D01*
X14518932Y-11590198D02*
X14528455Y-11580674D01*
X14528455Y-11580674D02*
X14528455Y-11599722D01*
D11*
X12856250Y-12013000D02*
X12896250Y-12053000D01*
X12896250Y-12013000D02*
X12856250Y-12053000D01*
D10*
X13195122Y-11924484D02*
X13214170Y-11924484D01*
X13214170Y-11924484D02*
X13233217Y-11934008D01*
X13233217Y-11934008D02*
X13242741Y-11943531D01*
X13242741Y-11943531D02*
X13252265Y-11962579D01*
X13252265Y-11962579D02*
X13261789Y-12000674D01*
X13261789Y-12000674D02*
X13261789Y-12048293D01*
X13261789Y-12048293D02*
X13252265Y-12086388D01*
X13252265Y-12086388D02*
X13242741Y-12105436D01*
X13242741Y-12105436D02*
X13233217Y-12114960D01*
X13233217Y-12114960D02*
X13214170Y-12124484D01*
X13214170Y-12124484D02*
X13195122Y-12124484D01*
X13195122Y-12124484D02*
X13176074Y-12114960D01*
X13176074Y-12114960D02*
X13166551Y-12105436D01*
X13166551Y-12105436D02*
X13157027Y-12086388D01*
X13157027Y-12086388D02*
X13147503Y-12048293D01*
X13147503Y-12048293D02*
X13147503Y-12000674D01*
X13147503Y-12000674D02*
X13157027Y-11962579D01*
X13157027Y-11962579D02*
X13166551Y-11943531D01*
X13166551Y-11943531D02*
X13176074Y-11934008D01*
X13176074Y-11934008D02*
X13195122Y-11924484D01*
X13347503Y-12105436D02*
X13357027Y-12114960D01*
X13357027Y-12114960D02*
X13347503Y-12124484D01*
X13347503Y-12124484D02*
X13337979Y-12114960D01*
X13337979Y-12114960D02*
X13347503Y-12105436D01*
X13347503Y-12105436D02*
X13347503Y-12124484D01*
X13528455Y-11991150D02*
X13528455Y-12124484D01*
X13480836Y-11914960D02*
X13433217Y-12057817D01*
X13433217Y-12057817D02*
X13557027Y-12057817D01*
X13671312Y-11924484D02*
X13690360Y-11924484D01*
X13690360Y-11924484D02*
X13709408Y-11934008D01*
X13709408Y-11934008D02*
X13718932Y-11943531D01*
X13718932Y-11943531D02*
X13728455Y-11962579D01*
X13728455Y-11962579D02*
X13737979Y-12000674D01*
X13737979Y-12000674D02*
X13737979Y-12048293D01*
X13737979Y-12048293D02*
X13728455Y-12086388D01*
X13728455Y-12086388D02*
X13718932Y-12105436D01*
X13718932Y-12105436D02*
X13709408Y-12114960D01*
X13709408Y-12114960D02*
X13690360Y-12124484D01*
X13690360Y-12124484D02*
X13671312Y-12124484D01*
X13671312Y-12124484D02*
X13652265Y-12114960D01*
X13652265Y-12114960D02*
X13642741Y-12105436D01*
X13642741Y-12105436D02*
X13633217Y-12086388D01*
X13633217Y-12086388D02*
X13623693Y-12048293D01*
X13623693Y-12048293D02*
X13623693Y-12000674D01*
X13623693Y-12000674D02*
X13633217Y-11962579D01*
X13633217Y-11962579D02*
X13642741Y-11943531D01*
X13642741Y-11943531D02*
X13652265Y-11934008D01*
X13652265Y-11934008D02*
X13671312Y-11924484D01*
X13861789Y-11924484D02*
X13880836Y-11924484D01*
X13880836Y-11924484D02*
X13899884Y-11934008D01*
X13899884Y-11934008D02*
X13909408Y-11943531D01*
X13909408Y-11943531D02*
X13918932Y-11962579D01*
X13918932Y-11962579D02*
X13928455Y-12000674D01*
X13928455Y-12000674D02*
X13928455Y-12048293D01*
X13928455Y-12048293D02*
X13918932Y-12086388D01*
X13918932Y-12086388D02*
X13909408Y-12105436D01*
X13909408Y-12105436D02*
X13899884Y-12114960D01*
X13899884Y-12114960D02*
X13880836Y-12124484D01*
X13880836Y-12124484D02*
X13861789Y-12124484D01*
X13861789Y-12124484D02*
X13842741Y-12114960D01*
X13842741Y-12114960D02*
X13833217Y-12105436D01*
X13833217Y-12105436D02*
X13823693Y-12086388D01*
X13823693Y-12086388D02*
X13814170Y-12048293D01*
X13814170Y-12048293D02*
X13814170Y-12000674D01*
X13814170Y-12000674D02*
X13823693Y-11962579D01*
X13823693Y-11962579D02*
X13833217Y-11943531D01*
X13833217Y-11943531D02*
X13842741Y-11934008D01*
X13842741Y-11934008D02*
X13861789Y-11924484D01*
X14014170Y-12124484D02*
X14014170Y-11991150D01*
X14014170Y-12010198D02*
X14023693Y-12000674D01*
X14023693Y-12000674D02*
X14042741Y-11991150D01*
X14042741Y-11991150D02*
X14071313Y-11991150D01*
X14071313Y-11991150D02*
X14090360Y-12000674D01*
X14090360Y-12000674D02*
X14099884Y-12019722D01*
X14099884Y-12019722D02*
X14099884Y-12124484D01*
X14099884Y-12019722D02*
X14109408Y-12000674D01*
X14109408Y-12000674D02*
X14128455Y-11991150D01*
X14128455Y-11991150D02*
X14157027Y-11991150D01*
X14157027Y-11991150D02*
X14176074Y-12000674D01*
X14176074Y-12000674D02*
X14185598Y-12019722D01*
X14185598Y-12019722D02*
X14185598Y-12124484D01*
X14280836Y-12124484D02*
X14280836Y-11991150D01*
X14280836Y-12010198D02*
X14290360Y-12000674D01*
X14290360Y-12000674D02*
X14309408Y-11991150D01*
X14309408Y-11991150D02*
X14337979Y-11991150D01*
X14337979Y-11991150D02*
X14357027Y-12000674D01*
X14357027Y-12000674D02*
X14366551Y-12019722D01*
X14366551Y-12019722D02*
X14366551Y-12124484D01*
X14366551Y-12019722D02*
X14376074Y-12000674D01*
X14376074Y-12000674D02*
X14395122Y-11991150D01*
X14395122Y-11991150D02*
X14423693Y-11991150D01*
X14423693Y-11991150D02*
X14442741Y-12000674D01*
X14442741Y-12000674D02*
X14452265Y-12019722D01*
X14452265Y-12019722D02*
X14452265Y-12124484D01*
X14842741Y-11914960D02*
X14671313Y-12172103D01*
X15099884Y-11924484D02*
X15118932Y-11924484D01*
X15118932Y-11924484D02*
X15137979Y-11934008D01*
X15137979Y-11934008D02*
X15147503Y-11943531D01*
X15147503Y-11943531D02*
X15157027Y-11962579D01*
X15157027Y-11962579D02*
X15166551Y-12000674D01*
X15166551Y-12000674D02*
X15166551Y-12048293D01*
X15166551Y-12048293D02*
X15157027Y-12086388D01*
X15157027Y-12086388D02*
X15147503Y-12105436D01*
X15147503Y-12105436D02*
X15137979Y-12114960D01*
X15137979Y-12114960D02*
X15118932Y-12124484D01*
X15118932Y-12124484D02*
X15099884Y-12124484D01*
X15099884Y-12124484D02*
X15080836Y-12114960D01*
X15080836Y-12114960D02*
X15071313Y-12105436D01*
X15071313Y-12105436D02*
X15061789Y-12086388D01*
X15061789Y-12086388D02*
X15052265Y-12048293D01*
X15052265Y-12048293D02*
X15052265Y-12000674D01*
X15052265Y-12000674D02*
X15061789Y-11962579D01*
X15061789Y-11962579D02*
X15071313Y-11943531D01*
X15071313Y-11943531D02*
X15080836Y-11934008D01*
X15080836Y-11934008D02*
X15099884Y-11924484D01*
X15252265Y-12105436D02*
X15261789Y-12114960D01*
X15261789Y-12114960D02*
X15252265Y-12124484D01*
X15252265Y-12124484D02*
X15242741Y-12114960D01*
X15242741Y-12114960D02*
X15252265Y-12105436D01*
X15252265Y-12105436D02*
X15252265Y-12124484D01*
X15385598Y-11924484D02*
X15404646Y-11924484D01*
X15404646Y-11924484D02*
X15423694Y-11934008D01*
X15423694Y-11934008D02*
X15433217Y-11943531D01*
X15433217Y-11943531D02*
X15442741Y-11962579D01*
X15442741Y-11962579D02*
X15452265Y-12000674D01*
X15452265Y-12000674D02*
X15452265Y-12048293D01*
X15452265Y-12048293D02*
X15442741Y-12086388D01*
X15442741Y-12086388D02*
X15433217Y-12105436D01*
X15433217Y-12105436D02*
X15423694Y-12114960D01*
X15423694Y-12114960D02*
X15404646Y-12124484D01*
X15404646Y-12124484D02*
X15385598Y-12124484D01*
X15385598Y-12124484D02*
X15366551Y-12114960D01*
X15366551Y-12114960D02*
X15357027Y-12105436D01*
X15357027Y-12105436D02*
X15347503Y-12086388D01*
X15347503Y-12086388D02*
X15337979Y-12048293D01*
X15337979Y-12048293D02*
X15337979Y-12000674D01*
X15337979Y-12000674D02*
X15347503Y-11962579D01*
X15347503Y-11962579D02*
X15357027Y-11943531D01*
X15357027Y-11943531D02*
X15366551Y-11934008D01*
X15366551Y-11934008D02*
X15385598Y-11924484D01*
X15642741Y-12124484D02*
X15528456Y-12124484D01*
X15585598Y-12124484D02*
X15585598Y-11924484D01*
X15585598Y-11924484D02*
X15566551Y-11953055D01*
X15566551Y-11953055D02*
X15547503Y-11972103D01*
X15547503Y-11972103D02*
X15528456Y-11981627D01*
X15823694Y-11924484D02*
X15728456Y-11924484D01*
X15728456Y-11924484D02*
X15718932Y-12019722D01*
X15718932Y-12019722D02*
X15728456Y-12010198D01*
X15728456Y-12010198D02*
X15747503Y-12000674D01*
X15747503Y-12000674D02*
X15795122Y-12000674D01*
X15795122Y-12000674D02*
X15814170Y-12010198D01*
X15814170Y-12010198D02*
X15823694Y-12019722D01*
X15823694Y-12019722D02*
X15833217Y-12038769D01*
X15833217Y-12038769D02*
X15833217Y-12086388D01*
X15833217Y-12086388D02*
X15823694Y-12105436D01*
X15823694Y-12105436D02*
X15814170Y-12114960D01*
X15814170Y-12114960D02*
X15795122Y-12124484D01*
X15795122Y-12124484D02*
X15747503Y-12124484D01*
X15747503Y-12124484D02*
X15728456Y-12114960D01*
X15728456Y-12114960D02*
X15718932Y-12105436D01*
X15899884Y-11924484D02*
X16033217Y-11924484D01*
X16033217Y-11924484D02*
X15947503Y-12124484D01*
X16099884Y-11924484D02*
X16099884Y-11962579D01*
X16176075Y-11924484D02*
X16176075Y-11962579D01*
X16471313Y-12200674D02*
X16461789Y-12191150D01*
X16461789Y-12191150D02*
X16442741Y-12162579D01*
X16442741Y-12162579D02*
X16433218Y-12143531D01*
X16433218Y-12143531D02*
X16423694Y-12114960D01*
X16423694Y-12114960D02*
X16414170Y-12067341D01*
X16414170Y-12067341D02*
X16414170Y-12029246D01*
X16414170Y-12029246D02*
X16423694Y-11981627D01*
X16423694Y-11981627D02*
X16433218Y-11953055D01*
X16433218Y-11953055D02*
X16442741Y-11934008D01*
X16442741Y-11934008D02*
X16461789Y-11905436D01*
X16461789Y-11905436D02*
X16471313Y-11895912D01*
X16642741Y-11924484D02*
X16547503Y-11924484D01*
X16547503Y-11924484D02*
X16537979Y-12019722D01*
X16537979Y-12019722D02*
X16547503Y-12010198D01*
X16547503Y-12010198D02*
X16566551Y-12000674D01*
X16566551Y-12000674D02*
X16614170Y-12000674D01*
X16614170Y-12000674D02*
X16633218Y-12010198D01*
X16633218Y-12010198D02*
X16642741Y-12019722D01*
X16642741Y-12019722D02*
X16652265Y-12038769D01*
X16652265Y-12038769D02*
X16652265Y-12086388D01*
X16652265Y-12086388D02*
X16642741Y-12105436D01*
X16642741Y-12105436D02*
X16633218Y-12114960D01*
X16633218Y-12114960D02*
X16614170Y-12124484D01*
X16614170Y-12124484D02*
X16566551Y-12124484D01*
X16566551Y-12124484D02*
X16547503Y-12114960D01*
X16547503Y-12114960D02*
X16537979Y-12105436D01*
X16823694Y-11991150D02*
X16823694Y-12124484D01*
X16776075Y-11914960D02*
X16728456Y-12057817D01*
X16728456Y-12057817D02*
X16852265Y-12057817D01*
X17080837Y-12124484D02*
X17080837Y-11924484D01*
X17166551Y-12124484D02*
X17166551Y-12019722D01*
X17166551Y-12019722D02*
X17157027Y-12000674D01*
X17157027Y-12000674D02*
X17137980Y-11991150D01*
X17137980Y-11991150D02*
X17109408Y-11991150D01*
X17109408Y-11991150D02*
X17090361Y-12000674D01*
X17090361Y-12000674D02*
X17080837Y-12010198D01*
X17290361Y-12124484D02*
X17271313Y-12114960D01*
X17271313Y-12114960D02*
X17261789Y-12105436D01*
X17261789Y-12105436D02*
X17252265Y-12086388D01*
X17252265Y-12086388D02*
X17252265Y-12029246D01*
X17252265Y-12029246D02*
X17261789Y-12010198D01*
X17261789Y-12010198D02*
X17271313Y-12000674D01*
X17271313Y-12000674D02*
X17290361Y-11991150D01*
X17290361Y-11991150D02*
X17318932Y-11991150D01*
X17318932Y-11991150D02*
X17337980Y-12000674D01*
X17337980Y-12000674D02*
X17347503Y-12010198D01*
X17347503Y-12010198D02*
X17357027Y-12029246D01*
X17357027Y-12029246D02*
X17357027Y-12086388D01*
X17357027Y-12086388D02*
X17347503Y-12105436D01*
X17347503Y-12105436D02*
X17337980Y-12114960D01*
X17337980Y-12114960D02*
X17318932Y-12124484D01*
X17318932Y-12124484D02*
X17290361Y-12124484D01*
X17471313Y-12124484D02*
X17452265Y-12114960D01*
X17452265Y-12114960D02*
X17442742Y-12095912D01*
X17442742Y-12095912D02*
X17442742Y-11924484D01*
X17623694Y-12114960D02*
X17604646Y-12124484D01*
X17604646Y-12124484D02*
X17566551Y-12124484D01*
X17566551Y-12124484D02*
X17547503Y-12114960D01*
X17547503Y-12114960D02*
X17537980Y-12095912D01*
X17537980Y-12095912D02*
X17537980Y-12019722D01*
X17537980Y-12019722D02*
X17547503Y-12000674D01*
X17547503Y-12000674D02*
X17566551Y-11991150D01*
X17566551Y-11991150D02*
X17604646Y-11991150D01*
X17604646Y-11991150D02*
X17623694Y-12000674D01*
X17623694Y-12000674D02*
X17633218Y-12019722D01*
X17633218Y-12019722D02*
X17633218Y-12038769D01*
X17633218Y-12038769D02*
X17537980Y-12057817D01*
X17709408Y-12114960D02*
X17728456Y-12124484D01*
X17728456Y-12124484D02*
X17766551Y-12124484D01*
X17766551Y-12124484D02*
X17785599Y-12114960D01*
X17785599Y-12114960D02*
X17795123Y-12095912D01*
X17795123Y-12095912D02*
X17795123Y-12086388D01*
X17795123Y-12086388D02*
X17785599Y-12067341D01*
X17785599Y-12067341D02*
X17766551Y-12057817D01*
X17766551Y-12057817D02*
X17737980Y-12057817D01*
X17737980Y-12057817D02*
X17718932Y-12048293D01*
X17718932Y-12048293D02*
X17709408Y-12029246D01*
X17709408Y-12029246D02*
X17709408Y-12019722D01*
X17709408Y-12019722D02*
X17718932Y-12000674D01*
X17718932Y-12000674D02*
X17737980Y-11991150D01*
X17737980Y-11991150D02*
X17766551Y-11991150D01*
X17766551Y-11991150D02*
X17785599Y-12000674D01*
X17861789Y-12200674D02*
X17871313Y-12191150D01*
X17871313Y-12191150D02*
X17890361Y-12162579D01*
X17890361Y-12162579D02*
X17899884Y-12143531D01*
X17899884Y-12143531D02*
X17909408Y-12114960D01*
X17909408Y-12114960D02*
X17918932Y-12067341D01*
X17918932Y-12067341D02*
X17918932Y-12029246D01*
X17918932Y-12029246D02*
X17909408Y-11981627D01*
X17909408Y-11981627D02*
X17899884Y-11953055D01*
X17899884Y-11953055D02*
X17890361Y-11934008D01*
X17890361Y-11934008D02*
X17871313Y-11905436D01*
X17871313Y-11905436D02*
X17861789Y-11895912D01*
D12*
X12896250Y-12297000D02*
G75*
G03*
X12896250Y-12297000I-30000J0D01*
G01*
D10*
X13195122Y-12188484D02*
X13214170Y-12188484D01*
X13214170Y-12188484D02*
X13233217Y-12198008D01*
X13233217Y-12198008D02*
X13242741Y-12207531D01*
X13242741Y-12207531D02*
X13252265Y-12226579D01*
X13252265Y-12226579D02*
X13261789Y-12264674D01*
X13261789Y-12264674D02*
X13261789Y-12312293D01*
X13261789Y-12312293D02*
X13252265Y-12350388D01*
X13252265Y-12350388D02*
X13242741Y-12369436D01*
X13242741Y-12369436D02*
X13233217Y-12378960D01*
X13233217Y-12378960D02*
X13214170Y-12388484D01*
X13214170Y-12388484D02*
X13195122Y-12388484D01*
X13195122Y-12388484D02*
X13176074Y-12378960D01*
X13176074Y-12378960D02*
X13166551Y-12369436D01*
X13166551Y-12369436D02*
X13157027Y-12350388D01*
X13157027Y-12350388D02*
X13147503Y-12312293D01*
X13147503Y-12312293D02*
X13147503Y-12264674D01*
X13147503Y-12264674D02*
X13157027Y-12226579D01*
X13157027Y-12226579D02*
X13166551Y-12207531D01*
X13166551Y-12207531D02*
X13176074Y-12198008D01*
X13176074Y-12198008D02*
X13195122Y-12188484D01*
X13347503Y-12369436D02*
X13357027Y-12378960D01*
X13357027Y-12378960D02*
X13347503Y-12388484D01*
X13347503Y-12388484D02*
X13337979Y-12378960D01*
X13337979Y-12378960D02*
X13347503Y-12369436D01*
X13347503Y-12369436D02*
X13347503Y-12388484D01*
X13528455Y-12188484D02*
X13490360Y-12188484D01*
X13490360Y-12188484D02*
X13471312Y-12198008D01*
X13471312Y-12198008D02*
X13461789Y-12207531D01*
X13461789Y-12207531D02*
X13442741Y-12236103D01*
X13442741Y-12236103D02*
X13433217Y-12274198D01*
X13433217Y-12274198D02*
X13433217Y-12350388D01*
X13433217Y-12350388D02*
X13442741Y-12369436D01*
X13442741Y-12369436D02*
X13452265Y-12378960D01*
X13452265Y-12378960D02*
X13471312Y-12388484D01*
X13471312Y-12388484D02*
X13509408Y-12388484D01*
X13509408Y-12388484D02*
X13528455Y-12378960D01*
X13528455Y-12378960D02*
X13537979Y-12369436D01*
X13537979Y-12369436D02*
X13547503Y-12350388D01*
X13547503Y-12350388D02*
X13547503Y-12302769D01*
X13547503Y-12302769D02*
X13537979Y-12283722D01*
X13537979Y-12283722D02*
X13528455Y-12274198D01*
X13528455Y-12274198D02*
X13509408Y-12264674D01*
X13509408Y-12264674D02*
X13471312Y-12264674D01*
X13471312Y-12264674D02*
X13452265Y-12274198D01*
X13452265Y-12274198D02*
X13442741Y-12283722D01*
X13442741Y-12283722D02*
X13433217Y-12302769D01*
X13671312Y-12188484D02*
X13690360Y-12188484D01*
X13690360Y-12188484D02*
X13709408Y-12198008D01*
X13709408Y-12198008D02*
X13718932Y-12207531D01*
X13718932Y-12207531D02*
X13728455Y-12226579D01*
X13728455Y-12226579D02*
X13737979Y-12264674D01*
X13737979Y-12264674D02*
X13737979Y-12312293D01*
X13737979Y-12312293D02*
X13728455Y-12350388D01*
X13728455Y-12350388D02*
X13718932Y-12369436D01*
X13718932Y-12369436D02*
X13709408Y-12378960D01*
X13709408Y-12378960D02*
X13690360Y-12388484D01*
X13690360Y-12388484D02*
X13671312Y-12388484D01*
X13671312Y-12388484D02*
X13652265Y-12378960D01*
X13652265Y-12378960D02*
X13642741Y-12369436D01*
X13642741Y-12369436D02*
X13633217Y-12350388D01*
X13633217Y-12350388D02*
X13623693Y-12312293D01*
X13623693Y-12312293D02*
X13623693Y-12264674D01*
X13623693Y-12264674D02*
X13633217Y-12226579D01*
X13633217Y-12226579D02*
X13642741Y-12207531D01*
X13642741Y-12207531D02*
X13652265Y-12198008D01*
X13652265Y-12198008D02*
X13671312Y-12188484D01*
X13861789Y-12188484D02*
X13880836Y-12188484D01*
X13880836Y-12188484D02*
X13899884Y-12198008D01*
X13899884Y-12198008D02*
X13909408Y-12207531D01*
X13909408Y-12207531D02*
X13918932Y-12226579D01*
X13918932Y-12226579D02*
X13928455Y-12264674D01*
X13928455Y-12264674D02*
X13928455Y-12312293D01*
X13928455Y-12312293D02*
X13918932Y-12350388D01*
X13918932Y-12350388D02*
X13909408Y-12369436D01*
X13909408Y-12369436D02*
X13899884Y-12378960D01*
X13899884Y-12378960D02*
X13880836Y-12388484D01*
X13880836Y-12388484D02*
X13861789Y-12388484D01*
X13861789Y-12388484D02*
X13842741Y-12378960D01*
X13842741Y-12378960D02*
X13833217Y-12369436D01*
X13833217Y-12369436D02*
X13823693Y-12350388D01*
X13823693Y-12350388D02*
X13814170Y-12312293D01*
X13814170Y-12312293D02*
X13814170Y-12264674D01*
X13814170Y-12264674D02*
X13823693Y-12226579D01*
X13823693Y-12226579D02*
X13833217Y-12207531D01*
X13833217Y-12207531D02*
X13842741Y-12198008D01*
X13842741Y-12198008D02*
X13861789Y-12188484D01*
X14014170Y-12388484D02*
X14014170Y-12255150D01*
X14014170Y-12274198D02*
X14023693Y-12264674D01*
X14023693Y-12264674D02*
X14042741Y-12255150D01*
X14042741Y-12255150D02*
X14071313Y-12255150D01*
X14071313Y-12255150D02*
X14090360Y-12264674D01*
X14090360Y-12264674D02*
X14099884Y-12283722D01*
X14099884Y-12283722D02*
X14099884Y-12388484D01*
X14099884Y-12283722D02*
X14109408Y-12264674D01*
X14109408Y-12264674D02*
X14128455Y-12255150D01*
X14128455Y-12255150D02*
X14157027Y-12255150D01*
X14157027Y-12255150D02*
X14176074Y-12264674D01*
X14176074Y-12264674D02*
X14185598Y-12283722D01*
X14185598Y-12283722D02*
X14185598Y-12388484D01*
X14280836Y-12388484D02*
X14280836Y-12255150D01*
X14280836Y-12274198D02*
X14290360Y-12264674D01*
X14290360Y-12264674D02*
X14309408Y-12255150D01*
X14309408Y-12255150D02*
X14337979Y-12255150D01*
X14337979Y-12255150D02*
X14357027Y-12264674D01*
X14357027Y-12264674D02*
X14366551Y-12283722D01*
X14366551Y-12283722D02*
X14366551Y-12388484D01*
X14366551Y-12283722D02*
X14376074Y-12264674D01*
X14376074Y-12264674D02*
X14395122Y-12255150D01*
X14395122Y-12255150D02*
X14423693Y-12255150D01*
X14423693Y-12255150D02*
X14442741Y-12264674D01*
X14442741Y-12264674D02*
X14452265Y-12283722D01*
X14452265Y-12283722D02*
X14452265Y-12388484D01*
X14842741Y-12178960D02*
X14671313Y-12436103D01*
X15099884Y-12188484D02*
X15118932Y-12188484D01*
X15118932Y-12188484D02*
X15137979Y-12198008D01*
X15137979Y-12198008D02*
X15147503Y-12207531D01*
X15147503Y-12207531D02*
X15157027Y-12226579D01*
X15157027Y-12226579D02*
X15166551Y-12264674D01*
X15166551Y-12264674D02*
X15166551Y-12312293D01*
X15166551Y-12312293D02*
X15157027Y-12350388D01*
X15157027Y-12350388D02*
X15147503Y-12369436D01*
X15147503Y-12369436D02*
X15137979Y-12378960D01*
X15137979Y-12378960D02*
X15118932Y-12388484D01*
X15118932Y-12388484D02*
X15099884Y-12388484D01*
X15099884Y-12388484D02*
X15080836Y-12378960D01*
X15080836Y-12378960D02*
X15071313Y-12369436D01*
X15071313Y-12369436D02*
X15061789Y-12350388D01*
X15061789Y-12350388D02*
X15052265Y-12312293D01*
X15052265Y-12312293D02*
X15052265Y-12264674D01*
X15052265Y-12264674D02*
X15061789Y-12226579D01*
X15061789Y-12226579D02*
X15071313Y-12207531D01*
X15071313Y-12207531D02*
X15080836Y-12198008D01*
X15080836Y-12198008D02*
X15099884Y-12188484D01*
X15252265Y-12369436D02*
X15261789Y-12378960D01*
X15261789Y-12378960D02*
X15252265Y-12388484D01*
X15252265Y-12388484D02*
X15242741Y-12378960D01*
X15242741Y-12378960D02*
X15252265Y-12369436D01*
X15252265Y-12369436D02*
X15252265Y-12388484D01*
X15385598Y-12188484D02*
X15404646Y-12188484D01*
X15404646Y-12188484D02*
X15423694Y-12198008D01*
X15423694Y-12198008D02*
X15433217Y-12207531D01*
X15433217Y-12207531D02*
X15442741Y-12226579D01*
X15442741Y-12226579D02*
X15452265Y-12264674D01*
X15452265Y-12264674D02*
X15452265Y-12312293D01*
X15452265Y-12312293D02*
X15442741Y-12350388D01*
X15442741Y-12350388D02*
X15433217Y-12369436D01*
X15433217Y-12369436D02*
X15423694Y-12378960D01*
X15423694Y-12378960D02*
X15404646Y-12388484D01*
X15404646Y-12388484D02*
X15385598Y-12388484D01*
X15385598Y-12388484D02*
X15366551Y-12378960D01*
X15366551Y-12378960D02*
X15357027Y-12369436D01*
X15357027Y-12369436D02*
X15347503Y-12350388D01*
X15347503Y-12350388D02*
X15337979Y-12312293D01*
X15337979Y-12312293D02*
X15337979Y-12264674D01*
X15337979Y-12264674D02*
X15347503Y-12226579D01*
X15347503Y-12226579D02*
X15357027Y-12207531D01*
X15357027Y-12207531D02*
X15366551Y-12198008D01*
X15366551Y-12198008D02*
X15385598Y-12188484D01*
X15528456Y-12207531D02*
X15537979Y-12198008D01*
X15537979Y-12198008D02*
X15557027Y-12188484D01*
X15557027Y-12188484D02*
X15604646Y-12188484D01*
X15604646Y-12188484D02*
X15623694Y-12198008D01*
X15623694Y-12198008D02*
X15633217Y-12207531D01*
X15633217Y-12207531D02*
X15642741Y-12226579D01*
X15642741Y-12226579D02*
X15642741Y-12245627D01*
X15642741Y-12245627D02*
X15633217Y-12274198D01*
X15633217Y-12274198D02*
X15518932Y-12388484D01*
X15518932Y-12388484D02*
X15642741Y-12388484D01*
X15709408Y-12188484D02*
X15833217Y-12188484D01*
X15833217Y-12188484D02*
X15766551Y-12264674D01*
X15766551Y-12264674D02*
X15795122Y-12264674D01*
X15795122Y-12264674D02*
X15814170Y-12274198D01*
X15814170Y-12274198D02*
X15823694Y-12283722D01*
X15823694Y-12283722D02*
X15833217Y-12302769D01*
X15833217Y-12302769D02*
X15833217Y-12350388D01*
X15833217Y-12350388D02*
X15823694Y-12369436D01*
X15823694Y-12369436D02*
X15814170Y-12378960D01*
X15814170Y-12378960D02*
X15795122Y-12388484D01*
X15795122Y-12388484D02*
X15737979Y-12388484D01*
X15737979Y-12388484D02*
X15718932Y-12378960D01*
X15718932Y-12378960D02*
X15709408Y-12369436D01*
X16004646Y-12188484D02*
X15966551Y-12188484D01*
X15966551Y-12188484D02*
X15947503Y-12198008D01*
X15947503Y-12198008D02*
X15937979Y-12207531D01*
X15937979Y-12207531D02*
X15918932Y-12236103D01*
X15918932Y-12236103D02*
X15909408Y-12274198D01*
X15909408Y-12274198D02*
X15909408Y-12350388D01*
X15909408Y-12350388D02*
X15918932Y-12369436D01*
X15918932Y-12369436D02*
X15928456Y-12378960D01*
X15928456Y-12378960D02*
X15947503Y-12388484D01*
X15947503Y-12388484D02*
X15985598Y-12388484D01*
X15985598Y-12388484D02*
X16004646Y-12378960D01*
X16004646Y-12378960D02*
X16014170Y-12369436D01*
X16014170Y-12369436D02*
X16023694Y-12350388D01*
X16023694Y-12350388D02*
X16023694Y-12302769D01*
X16023694Y-12302769D02*
X16014170Y-12283722D01*
X16014170Y-12283722D02*
X16004646Y-12274198D01*
X16004646Y-12274198D02*
X15985598Y-12264674D01*
X15985598Y-12264674D02*
X15947503Y-12264674D01*
X15947503Y-12264674D02*
X15928456Y-12274198D01*
X15928456Y-12274198D02*
X15918932Y-12283722D01*
X15918932Y-12283722D02*
X15909408Y-12302769D01*
X16099884Y-12188484D02*
X16099884Y-12226579D01*
X16176075Y-12188484D02*
X16176075Y-12226579D01*
X16471313Y-12464674D02*
X16461789Y-12455150D01*
X16461789Y-12455150D02*
X16442741Y-12426579D01*
X16442741Y-12426579D02*
X16433218Y-12407531D01*
X16433218Y-12407531D02*
X16423694Y-12378960D01*
X16423694Y-12378960D02*
X16414170Y-12331341D01*
X16414170Y-12331341D02*
X16414170Y-12293246D01*
X16414170Y-12293246D02*
X16423694Y-12245627D01*
X16423694Y-12245627D02*
X16433218Y-12217055D01*
X16433218Y-12217055D02*
X16442741Y-12198008D01*
X16442741Y-12198008D02*
X16461789Y-12169436D01*
X16461789Y-12169436D02*
X16471313Y-12159912D01*
X16585598Y-12188484D02*
X16604646Y-12188484D01*
X16604646Y-12188484D02*
X16623694Y-12198008D01*
X16623694Y-12198008D02*
X16633218Y-12207531D01*
X16633218Y-12207531D02*
X16642741Y-12226579D01*
X16642741Y-12226579D02*
X16652265Y-12264674D01*
X16652265Y-12264674D02*
X16652265Y-12312293D01*
X16652265Y-12312293D02*
X16642741Y-12350388D01*
X16642741Y-12350388D02*
X16633218Y-12369436D01*
X16633218Y-12369436D02*
X16623694Y-12378960D01*
X16623694Y-12378960D02*
X16604646Y-12388484D01*
X16604646Y-12388484D02*
X16585598Y-12388484D01*
X16585598Y-12388484D02*
X16566551Y-12378960D01*
X16566551Y-12378960D02*
X16557027Y-12369436D01*
X16557027Y-12369436D02*
X16547503Y-12350388D01*
X16547503Y-12350388D02*
X16537979Y-12312293D01*
X16537979Y-12312293D02*
X16537979Y-12264674D01*
X16537979Y-12264674D02*
X16547503Y-12226579D01*
X16547503Y-12226579D02*
X16557027Y-12207531D01*
X16557027Y-12207531D02*
X16566551Y-12198008D01*
X16566551Y-12198008D02*
X16585598Y-12188484D01*
X16890361Y-12388484D02*
X16890361Y-12188484D01*
X16976075Y-12388484D02*
X16976075Y-12283722D01*
X16976075Y-12283722D02*
X16966551Y-12264674D01*
X16966551Y-12264674D02*
X16947503Y-12255150D01*
X16947503Y-12255150D02*
X16918932Y-12255150D01*
X16918932Y-12255150D02*
X16899884Y-12264674D01*
X16899884Y-12264674D02*
X16890361Y-12274198D01*
X17099884Y-12388484D02*
X17080837Y-12378960D01*
X17080837Y-12378960D02*
X17071313Y-12369436D01*
X17071313Y-12369436D02*
X17061789Y-12350388D01*
X17061789Y-12350388D02*
X17061789Y-12293246D01*
X17061789Y-12293246D02*
X17071313Y-12274198D01*
X17071313Y-12274198D02*
X17080837Y-12264674D01*
X17080837Y-12264674D02*
X17099884Y-12255150D01*
X17099884Y-12255150D02*
X17128456Y-12255150D01*
X17128456Y-12255150D02*
X17147503Y-12264674D01*
X17147503Y-12264674D02*
X17157027Y-12274198D01*
X17157027Y-12274198D02*
X17166551Y-12293246D01*
X17166551Y-12293246D02*
X17166551Y-12350388D01*
X17166551Y-12350388D02*
X17157027Y-12369436D01*
X17157027Y-12369436D02*
X17147503Y-12378960D01*
X17147503Y-12378960D02*
X17128456Y-12388484D01*
X17128456Y-12388484D02*
X17099884Y-12388484D01*
X17280837Y-12388484D02*
X17261789Y-12378960D01*
X17261789Y-12378960D02*
X17252265Y-12359912D01*
X17252265Y-12359912D02*
X17252265Y-12188484D01*
X17433218Y-12378960D02*
X17414170Y-12388484D01*
X17414170Y-12388484D02*
X17376075Y-12388484D01*
X17376075Y-12388484D02*
X17357027Y-12378960D01*
X17357027Y-12378960D02*
X17347503Y-12359912D01*
X17347503Y-12359912D02*
X17347503Y-12283722D01*
X17347503Y-12283722D02*
X17357027Y-12264674D01*
X17357027Y-12264674D02*
X17376075Y-12255150D01*
X17376075Y-12255150D02*
X17414170Y-12255150D01*
X17414170Y-12255150D02*
X17433218Y-12264674D01*
X17433218Y-12264674D02*
X17442742Y-12283722D01*
X17442742Y-12283722D02*
X17442742Y-12302769D01*
X17442742Y-12302769D02*
X17347503Y-12321817D01*
X17518932Y-12378960D02*
X17537980Y-12388484D01*
X17537980Y-12388484D02*
X17576075Y-12388484D01*
X17576075Y-12388484D02*
X17595123Y-12378960D01*
X17595123Y-12378960D02*
X17604646Y-12359912D01*
X17604646Y-12359912D02*
X17604646Y-12350388D01*
X17604646Y-12350388D02*
X17595123Y-12331341D01*
X17595123Y-12331341D02*
X17576075Y-12321817D01*
X17576075Y-12321817D02*
X17547503Y-12321817D01*
X17547503Y-12321817D02*
X17528456Y-12312293D01*
X17528456Y-12312293D02*
X17518932Y-12293246D01*
X17518932Y-12293246D02*
X17518932Y-12283722D01*
X17518932Y-12283722D02*
X17528456Y-12264674D01*
X17528456Y-12264674D02*
X17547503Y-12255150D01*
X17547503Y-12255150D02*
X17576075Y-12255150D01*
X17576075Y-12255150D02*
X17595123Y-12264674D01*
X17842742Y-12312293D02*
X17995123Y-12312293D01*
X17918932Y-12388484D02*
X17918932Y-12236103D01*
X18328456Y-12255150D02*
X18328456Y-12388484D01*
X18280837Y-12178960D02*
X18233218Y-12321817D01*
X18233218Y-12321817D02*
X18357027Y-12321817D01*
X18576075Y-12378960D02*
X18595123Y-12388484D01*
X18595123Y-12388484D02*
X18633218Y-12388484D01*
X18633218Y-12388484D02*
X18652266Y-12378960D01*
X18652266Y-12378960D02*
X18661789Y-12359912D01*
X18661789Y-12359912D02*
X18661789Y-12350388D01*
X18661789Y-12350388D02*
X18652266Y-12331341D01*
X18652266Y-12331341D02*
X18633218Y-12321817D01*
X18633218Y-12321817D02*
X18604646Y-12321817D01*
X18604646Y-12321817D02*
X18585599Y-12312293D01*
X18585599Y-12312293D02*
X18576075Y-12293246D01*
X18576075Y-12293246D02*
X18576075Y-12283722D01*
X18576075Y-12283722D02*
X18585599Y-12264674D01*
X18585599Y-12264674D02*
X18604646Y-12255150D01*
X18604646Y-12255150D02*
X18633218Y-12255150D01*
X18633218Y-12255150D02*
X18652266Y-12264674D01*
X18776075Y-12388484D02*
X18757027Y-12378960D01*
X18757027Y-12378960D02*
X18747504Y-12359912D01*
X18747504Y-12359912D02*
X18747504Y-12188484D01*
X18880837Y-12388484D02*
X18861789Y-12378960D01*
X18861789Y-12378960D02*
X18852266Y-12369436D01*
X18852266Y-12369436D02*
X18842742Y-12350388D01*
X18842742Y-12350388D02*
X18842742Y-12293246D01*
X18842742Y-12293246D02*
X18852266Y-12274198D01*
X18852266Y-12274198D02*
X18861789Y-12264674D01*
X18861789Y-12264674D02*
X18880837Y-12255150D01*
X18880837Y-12255150D02*
X18909408Y-12255150D01*
X18909408Y-12255150D02*
X18928456Y-12264674D01*
X18928456Y-12264674D02*
X18937980Y-12274198D01*
X18937980Y-12274198D02*
X18947504Y-12293246D01*
X18947504Y-12293246D02*
X18947504Y-12350388D01*
X18947504Y-12350388D02*
X18937980Y-12369436D01*
X18937980Y-12369436D02*
X18928456Y-12378960D01*
X18928456Y-12378960D02*
X18909408Y-12388484D01*
X18909408Y-12388484D02*
X18880837Y-12388484D01*
X19004647Y-12255150D02*
X19080837Y-12255150D01*
X19033218Y-12188484D02*
X19033218Y-12359912D01*
X19033218Y-12359912D02*
X19042742Y-12378960D01*
X19042742Y-12378960D02*
X19061789Y-12388484D01*
X19061789Y-12388484D02*
X19080837Y-12388484D01*
X19137980Y-12378960D02*
X19157027Y-12388484D01*
X19157027Y-12388484D02*
X19195123Y-12388484D01*
X19195123Y-12388484D02*
X19214170Y-12378960D01*
X19214170Y-12378960D02*
X19223694Y-12359912D01*
X19223694Y-12359912D02*
X19223694Y-12350388D01*
X19223694Y-12350388D02*
X19214170Y-12331341D01*
X19214170Y-12331341D02*
X19195123Y-12321817D01*
X19195123Y-12321817D02*
X19166551Y-12321817D01*
X19166551Y-12321817D02*
X19147504Y-12312293D01*
X19147504Y-12312293D02*
X19137980Y-12293246D01*
X19137980Y-12293246D02*
X19137980Y-12283722D01*
X19137980Y-12283722D02*
X19147504Y-12264674D01*
X19147504Y-12264674D02*
X19166551Y-12255150D01*
X19166551Y-12255150D02*
X19195123Y-12255150D01*
X19195123Y-12255150D02*
X19214170Y-12264674D01*
X19290361Y-12464674D02*
X19299885Y-12455150D01*
X19299885Y-12455150D02*
X19318932Y-12426579D01*
X19318932Y-12426579D02*
X19328456Y-12407531D01*
X19328456Y-12407531D02*
X19337980Y-12378960D01*
X19337980Y-12378960D02*
X19347504Y-12331341D01*
X19347504Y-12331341D02*
X19347504Y-12293246D01*
X19347504Y-12293246D02*
X19337980Y-12245627D01*
X19337980Y-12245627D02*
X19328456Y-12217055D01*
X19328456Y-12217055D02*
X19318932Y-12198008D01*
X19318932Y-12198008D02*
X19299885Y-12169436D01*
X19299885Y-12169436D02*
X19290361Y-12159912D01*
X12796250Y-12461000D02*
X12796250Y-12661000D01*
X12696250Y-12561000D02*
X12896250Y-12561000D01*
X13137979Y-12452484D02*
X13261789Y-12452484D01*
X13261789Y-12452484D02*
X13195122Y-12528674D01*
X13195122Y-12528674D02*
X13223693Y-12528674D01*
X13223693Y-12528674D02*
X13242741Y-12538198D01*
X13242741Y-12538198D02*
X13252265Y-12547722D01*
X13252265Y-12547722D02*
X13261789Y-12566769D01*
X13261789Y-12566769D02*
X13261789Y-12614388D01*
X13261789Y-12614388D02*
X13252265Y-12633436D01*
X13252265Y-12633436D02*
X13242741Y-12642960D01*
X13242741Y-12642960D02*
X13223693Y-12652484D01*
X13223693Y-12652484D02*
X13166551Y-12652484D01*
X13166551Y-12652484D02*
X13147503Y-12642960D01*
X13147503Y-12642960D02*
X13137979Y-12633436D01*
X13347503Y-12633436D02*
X13357027Y-12642960D01*
X13357027Y-12642960D02*
X13347503Y-12652484D01*
X13347503Y-12652484D02*
X13337979Y-12642960D01*
X13337979Y-12642960D02*
X13347503Y-12633436D01*
X13347503Y-12633436D02*
X13347503Y-12652484D01*
X13537979Y-12452484D02*
X13442741Y-12452484D01*
X13442741Y-12452484D02*
X13433217Y-12547722D01*
X13433217Y-12547722D02*
X13442741Y-12538198D01*
X13442741Y-12538198D02*
X13461789Y-12528674D01*
X13461789Y-12528674D02*
X13509408Y-12528674D01*
X13509408Y-12528674D02*
X13528455Y-12538198D01*
X13528455Y-12538198D02*
X13537979Y-12547722D01*
X13537979Y-12547722D02*
X13547503Y-12566769D01*
X13547503Y-12566769D02*
X13547503Y-12614388D01*
X13547503Y-12614388D02*
X13537979Y-12633436D01*
X13537979Y-12633436D02*
X13528455Y-12642960D01*
X13528455Y-12642960D02*
X13509408Y-12652484D01*
X13509408Y-12652484D02*
X13461789Y-12652484D01*
X13461789Y-12652484D02*
X13442741Y-12642960D01*
X13442741Y-12642960D02*
X13433217Y-12633436D01*
X13671312Y-12452484D02*
X13690360Y-12452484D01*
X13690360Y-12452484D02*
X13709408Y-12462008D01*
X13709408Y-12462008D02*
X13718932Y-12471531D01*
X13718932Y-12471531D02*
X13728455Y-12490579D01*
X13728455Y-12490579D02*
X13737979Y-12528674D01*
X13737979Y-12528674D02*
X13737979Y-12576293D01*
X13737979Y-12576293D02*
X13728455Y-12614388D01*
X13728455Y-12614388D02*
X13718932Y-12633436D01*
X13718932Y-12633436D02*
X13709408Y-12642960D01*
X13709408Y-12642960D02*
X13690360Y-12652484D01*
X13690360Y-12652484D02*
X13671312Y-12652484D01*
X13671312Y-12652484D02*
X13652265Y-12642960D01*
X13652265Y-12642960D02*
X13642741Y-12633436D01*
X13642741Y-12633436D02*
X13633217Y-12614388D01*
X13633217Y-12614388D02*
X13623693Y-12576293D01*
X13623693Y-12576293D02*
X13623693Y-12528674D01*
X13623693Y-12528674D02*
X13633217Y-12490579D01*
X13633217Y-12490579D02*
X13642741Y-12471531D01*
X13642741Y-12471531D02*
X13652265Y-12462008D01*
X13652265Y-12462008D02*
X13671312Y-12452484D01*
X13861789Y-12452484D02*
X13880836Y-12452484D01*
X13880836Y-12452484D02*
X13899884Y-12462008D01*
X13899884Y-12462008D02*
X13909408Y-12471531D01*
X13909408Y-12471531D02*
X13918932Y-12490579D01*
X13918932Y-12490579D02*
X13928455Y-12528674D01*
X13928455Y-12528674D02*
X13928455Y-12576293D01*
X13928455Y-12576293D02*
X13918932Y-12614388D01*
X13918932Y-12614388D02*
X13909408Y-12633436D01*
X13909408Y-12633436D02*
X13899884Y-12642960D01*
X13899884Y-12642960D02*
X13880836Y-12652484D01*
X13880836Y-12652484D02*
X13861789Y-12652484D01*
X13861789Y-12652484D02*
X13842741Y-12642960D01*
X13842741Y-12642960D02*
X13833217Y-12633436D01*
X13833217Y-12633436D02*
X13823693Y-12614388D01*
X13823693Y-12614388D02*
X13814170Y-12576293D01*
X13814170Y-12576293D02*
X13814170Y-12528674D01*
X13814170Y-12528674D02*
X13823693Y-12490579D01*
X13823693Y-12490579D02*
X13833217Y-12471531D01*
X13833217Y-12471531D02*
X13842741Y-12462008D01*
X13842741Y-12462008D02*
X13861789Y-12452484D01*
X14014170Y-12652484D02*
X14014170Y-12519150D01*
X14014170Y-12538198D02*
X14023693Y-12528674D01*
X14023693Y-12528674D02*
X14042741Y-12519150D01*
X14042741Y-12519150D02*
X14071313Y-12519150D01*
X14071313Y-12519150D02*
X14090360Y-12528674D01*
X14090360Y-12528674D02*
X14099884Y-12547722D01*
X14099884Y-12547722D02*
X14099884Y-12652484D01*
X14099884Y-12547722D02*
X14109408Y-12528674D01*
X14109408Y-12528674D02*
X14128455Y-12519150D01*
X14128455Y-12519150D02*
X14157027Y-12519150D01*
X14157027Y-12519150D02*
X14176074Y-12528674D01*
X14176074Y-12528674D02*
X14185598Y-12547722D01*
X14185598Y-12547722D02*
X14185598Y-12652484D01*
X14280836Y-12652484D02*
X14280836Y-12519150D01*
X14280836Y-12538198D02*
X14290360Y-12528674D01*
X14290360Y-12528674D02*
X14309408Y-12519150D01*
X14309408Y-12519150D02*
X14337979Y-12519150D01*
X14337979Y-12519150D02*
X14357027Y-12528674D01*
X14357027Y-12528674D02*
X14366551Y-12547722D01*
X14366551Y-12547722D02*
X14366551Y-12652484D01*
X14366551Y-12547722D02*
X14376074Y-12528674D01*
X14376074Y-12528674D02*
X14395122Y-12519150D01*
X14395122Y-12519150D02*
X14423693Y-12519150D01*
X14423693Y-12519150D02*
X14442741Y-12528674D01*
X14442741Y-12528674D02*
X14452265Y-12547722D01*
X14452265Y-12547722D02*
X14452265Y-12652484D01*
X14842741Y-12442960D02*
X14671313Y-12700103D01*
X15099884Y-12452484D02*
X15118932Y-12452484D01*
X15118932Y-12452484D02*
X15137979Y-12462008D01*
X15137979Y-12462008D02*
X15147503Y-12471531D01*
X15147503Y-12471531D02*
X15157027Y-12490579D01*
X15157027Y-12490579D02*
X15166551Y-12528674D01*
X15166551Y-12528674D02*
X15166551Y-12576293D01*
X15166551Y-12576293D02*
X15157027Y-12614388D01*
X15157027Y-12614388D02*
X15147503Y-12633436D01*
X15147503Y-12633436D02*
X15137979Y-12642960D01*
X15137979Y-12642960D02*
X15118932Y-12652484D01*
X15118932Y-12652484D02*
X15099884Y-12652484D01*
X15099884Y-12652484D02*
X15080836Y-12642960D01*
X15080836Y-12642960D02*
X15071313Y-12633436D01*
X15071313Y-12633436D02*
X15061789Y-12614388D01*
X15061789Y-12614388D02*
X15052265Y-12576293D01*
X15052265Y-12576293D02*
X15052265Y-12528674D01*
X15052265Y-12528674D02*
X15061789Y-12490579D01*
X15061789Y-12490579D02*
X15071313Y-12471531D01*
X15071313Y-12471531D02*
X15080836Y-12462008D01*
X15080836Y-12462008D02*
X15099884Y-12452484D01*
X15252265Y-12633436D02*
X15261789Y-12642960D01*
X15261789Y-12642960D02*
X15252265Y-12652484D01*
X15252265Y-12652484D02*
X15242741Y-12642960D01*
X15242741Y-12642960D02*
X15252265Y-12633436D01*
X15252265Y-12633436D02*
X15252265Y-12652484D01*
X15452265Y-12652484D02*
X15337979Y-12652484D01*
X15395122Y-12652484D02*
X15395122Y-12452484D01*
X15395122Y-12452484D02*
X15376075Y-12481055D01*
X15376075Y-12481055D02*
X15357027Y-12500103D01*
X15357027Y-12500103D02*
X15337979Y-12509627D01*
X15518932Y-12452484D02*
X15642741Y-12452484D01*
X15642741Y-12452484D02*
X15576075Y-12528674D01*
X15576075Y-12528674D02*
X15604646Y-12528674D01*
X15604646Y-12528674D02*
X15623694Y-12538198D01*
X15623694Y-12538198D02*
X15633217Y-12547722D01*
X15633217Y-12547722D02*
X15642741Y-12566769D01*
X15642741Y-12566769D02*
X15642741Y-12614388D01*
X15642741Y-12614388D02*
X15633217Y-12633436D01*
X15633217Y-12633436D02*
X15623694Y-12642960D01*
X15623694Y-12642960D02*
X15604646Y-12652484D01*
X15604646Y-12652484D02*
X15547503Y-12652484D01*
X15547503Y-12652484D02*
X15528456Y-12642960D01*
X15528456Y-12642960D02*
X15518932Y-12633436D01*
X15709408Y-12452484D02*
X15842741Y-12452484D01*
X15842741Y-12452484D02*
X15757027Y-12652484D01*
X15947503Y-12538198D02*
X15928456Y-12528674D01*
X15928456Y-12528674D02*
X15918932Y-12519150D01*
X15918932Y-12519150D02*
X15909408Y-12500103D01*
X15909408Y-12500103D02*
X15909408Y-12490579D01*
X15909408Y-12490579D02*
X15918932Y-12471531D01*
X15918932Y-12471531D02*
X15928456Y-12462008D01*
X15928456Y-12462008D02*
X15947503Y-12452484D01*
X15947503Y-12452484D02*
X15985598Y-12452484D01*
X15985598Y-12452484D02*
X16004646Y-12462008D01*
X16004646Y-12462008D02*
X16014170Y-12471531D01*
X16014170Y-12471531D02*
X16023694Y-12490579D01*
X16023694Y-12490579D02*
X16023694Y-12500103D01*
X16023694Y-12500103D02*
X16014170Y-12519150D01*
X16014170Y-12519150D02*
X16004646Y-12528674D01*
X16004646Y-12528674D02*
X15985598Y-12538198D01*
X15985598Y-12538198D02*
X15947503Y-12538198D01*
X15947503Y-12538198D02*
X15928456Y-12547722D01*
X15928456Y-12547722D02*
X15918932Y-12557246D01*
X15918932Y-12557246D02*
X15909408Y-12576293D01*
X15909408Y-12576293D02*
X15909408Y-12614388D01*
X15909408Y-12614388D02*
X15918932Y-12633436D01*
X15918932Y-12633436D02*
X15928456Y-12642960D01*
X15928456Y-12642960D02*
X15947503Y-12652484D01*
X15947503Y-12652484D02*
X15985598Y-12652484D01*
X15985598Y-12652484D02*
X16004646Y-12642960D01*
X16004646Y-12642960D02*
X16014170Y-12633436D01*
X16014170Y-12633436D02*
X16023694Y-12614388D01*
X16023694Y-12614388D02*
X16023694Y-12576293D01*
X16023694Y-12576293D02*
X16014170Y-12557246D01*
X16014170Y-12557246D02*
X16004646Y-12547722D01*
X16004646Y-12547722D02*
X15985598Y-12538198D01*
X16099884Y-12452484D02*
X16099884Y-12490579D01*
X16176075Y-12452484D02*
X16176075Y-12490579D01*
X16471313Y-12728674D02*
X16461789Y-12719150D01*
X16461789Y-12719150D02*
X16442741Y-12690579D01*
X16442741Y-12690579D02*
X16433218Y-12671531D01*
X16433218Y-12671531D02*
X16423694Y-12642960D01*
X16423694Y-12642960D02*
X16414170Y-12595341D01*
X16414170Y-12595341D02*
X16414170Y-12557246D01*
X16414170Y-12557246D02*
X16423694Y-12509627D01*
X16423694Y-12509627D02*
X16433218Y-12481055D01*
X16433218Y-12481055D02*
X16442741Y-12462008D01*
X16442741Y-12462008D02*
X16461789Y-12433436D01*
X16461789Y-12433436D02*
X16471313Y-12423912D01*
X16652265Y-12652484D02*
X16537979Y-12652484D01*
X16595122Y-12652484D02*
X16595122Y-12452484D01*
X16595122Y-12452484D02*
X16576075Y-12481055D01*
X16576075Y-12481055D02*
X16557027Y-12500103D01*
X16557027Y-12500103D02*
X16537979Y-12509627D01*
X16890361Y-12652484D02*
X16890361Y-12452484D01*
X16976075Y-12652484D02*
X16976075Y-12547722D01*
X16976075Y-12547722D02*
X16966551Y-12528674D01*
X16966551Y-12528674D02*
X16947503Y-12519150D01*
X16947503Y-12519150D02*
X16918932Y-12519150D01*
X16918932Y-12519150D02*
X16899884Y-12528674D01*
X16899884Y-12528674D02*
X16890361Y-12538198D01*
X17099884Y-12652484D02*
X17080837Y-12642960D01*
X17080837Y-12642960D02*
X17071313Y-12633436D01*
X17071313Y-12633436D02*
X17061789Y-12614388D01*
X17061789Y-12614388D02*
X17061789Y-12557246D01*
X17061789Y-12557246D02*
X17071313Y-12538198D01*
X17071313Y-12538198D02*
X17080837Y-12528674D01*
X17080837Y-12528674D02*
X17099884Y-12519150D01*
X17099884Y-12519150D02*
X17128456Y-12519150D01*
X17128456Y-12519150D02*
X17147503Y-12528674D01*
X17147503Y-12528674D02*
X17157027Y-12538198D01*
X17157027Y-12538198D02*
X17166551Y-12557246D01*
X17166551Y-12557246D02*
X17166551Y-12614388D01*
X17166551Y-12614388D02*
X17157027Y-12633436D01*
X17157027Y-12633436D02*
X17147503Y-12642960D01*
X17147503Y-12642960D02*
X17128456Y-12652484D01*
X17128456Y-12652484D02*
X17099884Y-12652484D01*
X17280837Y-12652484D02*
X17261789Y-12642960D01*
X17261789Y-12642960D02*
X17252265Y-12623912D01*
X17252265Y-12623912D02*
X17252265Y-12452484D01*
X17433218Y-12642960D02*
X17414170Y-12652484D01*
X17414170Y-12652484D02*
X17376075Y-12652484D01*
X17376075Y-12652484D02*
X17357027Y-12642960D01*
X17357027Y-12642960D02*
X17347503Y-12623912D01*
X17347503Y-12623912D02*
X17347503Y-12547722D01*
X17347503Y-12547722D02*
X17357027Y-12528674D01*
X17357027Y-12528674D02*
X17376075Y-12519150D01*
X17376075Y-12519150D02*
X17414170Y-12519150D01*
X17414170Y-12519150D02*
X17433218Y-12528674D01*
X17433218Y-12528674D02*
X17442742Y-12547722D01*
X17442742Y-12547722D02*
X17442742Y-12566769D01*
X17442742Y-12566769D02*
X17347503Y-12585817D01*
X17509408Y-12728674D02*
X17518932Y-12719150D01*
X17518932Y-12719150D02*
X17537980Y-12690579D01*
X17537980Y-12690579D02*
X17547503Y-12671531D01*
X17547503Y-12671531D02*
X17557027Y-12642960D01*
X17557027Y-12642960D02*
X17566551Y-12595341D01*
X17566551Y-12595341D02*
X17566551Y-12557246D01*
X17566551Y-12557246D02*
X17557027Y-12509627D01*
X17557027Y-12509627D02*
X17547503Y-12481055D01*
X17547503Y-12481055D02*
X17537980Y-12462008D01*
X17537980Y-12462008D02*
X17518932Y-12433436D01*
X17518932Y-12433436D02*
X17509408Y-12423912D01*
M02*
