%TF.GenerationSoftware,KiCad,Pcbnew,7.0.5-0*%
%TF.CreationDate,2023-07-31T19:13:05-04:00*%
%TF.ProjectId,mula,6d756c61-2e6b-4696-9361-645f70636258,rev?*%
%TF.SameCoordinates,Original*%
%TF.FileFunction,Soldermask,Bot*%
%TF.FilePolarity,Negative*%
%FSLAX46Y46*%
G04 Gerber Fmt 4.6, Leading zero omitted, Abs format (unit mm)*
G04 Created by KiCad (PCBNEW 7.0.5-0) date 2023-07-31 19:13:05*
%MOMM*%
%LPD*%
G01*
G04 APERTURE LIST*
G04 Aperture macros list*
%AMRoundRect*
0 Rectangle with rounded corners*
0 $1 Rounding radius*
0 $2 $3 $4 $5 $6 $7 $8 $9 X,Y pos of 4 corners*
0 Add a 4 corners polygon primitive as box body*
4,1,4,$2,$3,$4,$5,$6,$7,$8,$9,$2,$3,0*
0 Add four circle primitives for the rounded corners*
1,1,$1+$1,$2,$3*
1,1,$1+$1,$4,$5*
1,1,$1+$1,$6,$7*
1,1,$1+$1,$8,$9*
0 Add four rect primitives between the rounded corners*
20,1,$1+$1,$2,$3,$4,$5,0*
20,1,$1+$1,$4,$5,$6,$7,0*
20,1,$1+$1,$6,$7,$8,$9,0*
20,1,$1+$1,$8,$9,$2,$3,0*%
G04 Aperture macros list end*
%ADD10C,0.300000*%
%ADD11C,5.703200*%
%ADD12RoundRect,0.101600X-0.175000X-1.250000X0.175000X-1.250000X0.175000X1.250000X-0.175000X1.250000X0*%
%ADD13C,0.650000*%
%ADD14O,2.100000X1.000000*%
%ADD15O,1.600000X1.000000*%
G04 APERTURE END LIST*
D10*
X150095489Y-108750828D02*
X150095489Y-107750828D01*
X150095489Y-107893685D02*
X150024060Y-107822257D01*
X150024060Y-107822257D02*
X149881203Y-107750828D01*
X149881203Y-107750828D02*
X149666917Y-107750828D01*
X149666917Y-107750828D02*
X149524060Y-107822257D01*
X149524060Y-107822257D02*
X149452632Y-107965114D01*
X149452632Y-107965114D02*
X149452632Y-108750828D01*
X149452632Y-107965114D02*
X149381203Y-107822257D01*
X149381203Y-107822257D02*
X149238346Y-107750828D01*
X149238346Y-107750828D02*
X149024060Y-107750828D01*
X149024060Y-107750828D02*
X148881203Y-107822257D01*
X148881203Y-107822257D02*
X148809774Y-107965114D01*
X148809774Y-107965114D02*
X148809774Y-108750828D01*
X147452632Y-108750828D02*
X147452632Y-107965114D01*
X147452632Y-107965114D02*
X147524060Y-107822257D01*
X147524060Y-107822257D02*
X147666917Y-107750828D01*
X147666917Y-107750828D02*
X147952632Y-107750828D01*
X147952632Y-107750828D02*
X148095489Y-107822257D01*
X147452632Y-108679400D02*
X147595489Y-108750828D01*
X147595489Y-108750828D02*
X147952632Y-108750828D01*
X147952632Y-108750828D02*
X148095489Y-108679400D01*
X148095489Y-108679400D02*
X148166917Y-108536542D01*
X148166917Y-108536542D02*
X148166917Y-108393685D01*
X148166917Y-108393685D02*
X148095489Y-108250828D01*
X148095489Y-108250828D02*
X147952632Y-108179400D01*
X147952632Y-108179400D02*
X147595489Y-108179400D01*
X147595489Y-108179400D02*
X147452632Y-108107971D01*
X146952631Y-107750828D02*
X146381203Y-107750828D01*
X146738346Y-107250828D02*
X146738346Y-108536542D01*
X146738346Y-108536542D02*
X146666917Y-108679400D01*
X146666917Y-108679400D02*
X146524060Y-108750828D01*
X146524060Y-108750828D02*
X146381203Y-108750828D01*
X145309774Y-108679400D02*
X145452631Y-108750828D01*
X145452631Y-108750828D02*
X145738346Y-108750828D01*
X145738346Y-108750828D02*
X145881203Y-108679400D01*
X145881203Y-108679400D02*
X145952631Y-108536542D01*
X145952631Y-108536542D02*
X145952631Y-107965114D01*
X145952631Y-107965114D02*
X145881203Y-107822257D01*
X145881203Y-107822257D02*
X145738346Y-107750828D01*
X145738346Y-107750828D02*
X145452631Y-107750828D01*
X145452631Y-107750828D02*
X145309774Y-107822257D01*
X145309774Y-107822257D02*
X145238346Y-107965114D01*
X145238346Y-107965114D02*
X145238346Y-108107971D01*
X145238346Y-108107971D02*
X145952631Y-108250828D01*
X144595489Y-108750828D02*
X144595489Y-107750828D01*
X144595489Y-107250828D02*
X144666917Y-107322257D01*
X144666917Y-107322257D02*
X144595489Y-107393685D01*
X144595489Y-107393685D02*
X144524060Y-107322257D01*
X144524060Y-107322257D02*
X144595489Y-107250828D01*
X144595489Y-107250828D02*
X144595489Y-107393685D01*
X143881203Y-107750828D02*
X143881203Y-109036542D01*
X143881203Y-109036542D02*
X143952631Y-109179400D01*
X143952631Y-109179400D02*
X144095488Y-109250828D01*
X144095488Y-109250828D02*
X144166917Y-109250828D01*
X143881203Y-107250828D02*
X143952631Y-107322257D01*
X143952631Y-107322257D02*
X143881203Y-107393685D01*
X143881203Y-107393685D02*
X143809774Y-107322257D01*
X143809774Y-107322257D02*
X143881203Y-107250828D01*
X143881203Y-107250828D02*
X143881203Y-107393685D01*
X142952631Y-108750828D02*
X143095488Y-108679400D01*
X143095488Y-108679400D02*
X143166917Y-108607971D01*
X143166917Y-108607971D02*
X143238345Y-108465114D01*
X143238345Y-108465114D02*
X143238345Y-108036542D01*
X143238345Y-108036542D02*
X143166917Y-107893685D01*
X143166917Y-107893685D02*
X143095488Y-107822257D01*
X143095488Y-107822257D02*
X142952631Y-107750828D01*
X142952631Y-107750828D02*
X142738345Y-107750828D01*
X142738345Y-107750828D02*
X142595488Y-107822257D01*
X142595488Y-107822257D02*
X142524060Y-107893685D01*
X142524060Y-107893685D02*
X142452631Y-108036542D01*
X142452631Y-108036542D02*
X142452631Y-108465114D01*
X142452631Y-108465114D02*
X142524060Y-108607971D01*
X142524060Y-108607971D02*
X142595488Y-108679400D01*
X142595488Y-108679400D02*
X142738345Y-108750828D01*
X142738345Y-108750828D02*
X142952631Y-108750828D01*
X141809774Y-108750828D02*
X141809774Y-107750828D01*
X141809774Y-108036542D02*
X141738345Y-107893685D01*
X141738345Y-107893685D02*
X141666917Y-107822257D01*
X141666917Y-107822257D02*
X141524059Y-107750828D01*
X141524059Y-107750828D02*
X141381202Y-107750828D01*
X140238346Y-108750828D02*
X140238346Y-107250828D01*
X140238346Y-108679400D02*
X140381203Y-108750828D01*
X140381203Y-108750828D02*
X140666917Y-108750828D01*
X140666917Y-108750828D02*
X140809774Y-108679400D01*
X140809774Y-108679400D02*
X140881203Y-108607971D01*
X140881203Y-108607971D02*
X140952631Y-108465114D01*
X140952631Y-108465114D02*
X140952631Y-108036542D01*
X140952631Y-108036542D02*
X140881203Y-107893685D01*
X140881203Y-107893685D02*
X140809774Y-107822257D01*
X140809774Y-107822257D02*
X140666917Y-107750828D01*
X140666917Y-107750828D02*
X140381203Y-107750828D01*
X140381203Y-107750828D02*
X140238346Y-107822257D01*
X138881203Y-108750828D02*
X138881203Y-107965114D01*
X138881203Y-107965114D02*
X138952631Y-107822257D01*
X138952631Y-107822257D02*
X139095488Y-107750828D01*
X139095488Y-107750828D02*
X139381203Y-107750828D01*
X139381203Y-107750828D02*
X139524060Y-107822257D01*
X138881203Y-108679400D02*
X139024060Y-108750828D01*
X139024060Y-108750828D02*
X139381203Y-108750828D01*
X139381203Y-108750828D02*
X139524060Y-108679400D01*
X139524060Y-108679400D02*
X139595488Y-108536542D01*
X139595488Y-108536542D02*
X139595488Y-108393685D01*
X139595488Y-108393685D02*
X139524060Y-108250828D01*
X139524060Y-108250828D02*
X139381203Y-108179400D01*
X139381203Y-108179400D02*
X139024060Y-108179400D01*
X139024060Y-108179400D02*
X138881203Y-108107971D01*
X137524060Y-108679400D02*
X137666917Y-108750828D01*
X137666917Y-108750828D02*
X137952631Y-108750828D01*
X137952631Y-108750828D02*
X138095488Y-108679400D01*
X138095488Y-108679400D02*
X138166917Y-108607971D01*
X138166917Y-108607971D02*
X138238345Y-108465114D01*
X138238345Y-108465114D02*
X138238345Y-108036542D01*
X138238345Y-108036542D02*
X138166917Y-107893685D01*
X138166917Y-107893685D02*
X138095488Y-107822257D01*
X138095488Y-107822257D02*
X137952631Y-107750828D01*
X137952631Y-107750828D02*
X137666917Y-107750828D01*
X137666917Y-107750828D02*
X137524060Y-107822257D01*
X136881203Y-108750828D02*
X136881203Y-107250828D01*
X136238346Y-108750828D02*
X136238346Y-107965114D01*
X136238346Y-107965114D02*
X136309774Y-107822257D01*
X136309774Y-107822257D02*
X136452631Y-107750828D01*
X136452631Y-107750828D02*
X136666917Y-107750828D01*
X136666917Y-107750828D02*
X136809774Y-107822257D01*
X136809774Y-107822257D02*
X136881203Y-107893685D01*
X134952631Y-108679400D02*
X135095488Y-108750828D01*
X135095488Y-108750828D02*
X135381203Y-108750828D01*
X135381203Y-108750828D02*
X135524060Y-108679400D01*
X135524060Y-108679400D02*
X135595488Y-108536542D01*
X135595488Y-108536542D02*
X135595488Y-107965114D01*
X135595488Y-107965114D02*
X135524060Y-107822257D01*
X135524060Y-107822257D02*
X135381203Y-107750828D01*
X135381203Y-107750828D02*
X135095488Y-107750828D01*
X135095488Y-107750828D02*
X134952631Y-107822257D01*
X134952631Y-107822257D02*
X134881203Y-107965114D01*
X134881203Y-107965114D02*
X134881203Y-108107971D01*
X134881203Y-108107971D02*
X135595488Y-108250828D01*
X134238346Y-108607971D02*
X134166917Y-108679400D01*
X134166917Y-108679400D02*
X134238346Y-108750828D01*
X134238346Y-108750828D02*
X134309774Y-108679400D01*
X134309774Y-108679400D02*
X134238346Y-108607971D01*
X134238346Y-108607971D02*
X134238346Y-108750828D01*
X133524060Y-108750828D02*
X133524060Y-107750828D01*
X133524060Y-107250828D02*
X133595488Y-107322257D01*
X133595488Y-107322257D02*
X133524060Y-107393685D01*
X133524060Y-107393685D02*
X133452631Y-107322257D01*
X133452631Y-107322257D02*
X133524060Y-107250828D01*
X133524060Y-107250828D02*
X133524060Y-107393685D01*
X132809774Y-107750828D02*
X132809774Y-108750828D01*
X132809774Y-107893685D02*
X132738345Y-107822257D01*
X132738345Y-107822257D02*
X132595488Y-107750828D01*
X132595488Y-107750828D02*
X132381202Y-107750828D01*
X132381202Y-107750828D02*
X132238345Y-107822257D01*
X132238345Y-107822257D02*
X132166917Y-107965114D01*
X132166917Y-107965114D02*
X132166917Y-108750828D01*
X131666916Y-107750828D02*
X131095488Y-107750828D01*
X131452631Y-108750828D02*
X131452631Y-107465114D01*
X131452631Y-107465114D02*
X131381202Y-107322257D01*
X131381202Y-107322257D02*
X131238345Y-107250828D01*
X131238345Y-107250828D02*
X131095488Y-107250828D01*
X130381202Y-108750828D02*
X130524059Y-108679400D01*
X130524059Y-108679400D02*
X130595488Y-108607971D01*
X130595488Y-108607971D02*
X130666916Y-108465114D01*
X130666916Y-108465114D02*
X130666916Y-108036542D01*
X130666916Y-108036542D02*
X130595488Y-107893685D01*
X130595488Y-107893685D02*
X130524059Y-107822257D01*
X130524059Y-107822257D02*
X130381202Y-107750828D01*
X130381202Y-107750828D02*
X130166916Y-107750828D01*
X130166916Y-107750828D02*
X130024059Y-107822257D01*
X130024059Y-107822257D02*
X129952631Y-107893685D01*
X129952631Y-107893685D02*
X129881202Y-108036542D01*
X129881202Y-108036542D02*
X129881202Y-108465114D01*
X129881202Y-108465114D02*
X129952631Y-108607971D01*
X129952631Y-108607971D02*
X130024059Y-108679400D01*
X130024059Y-108679400D02*
X130166916Y-108750828D01*
X130166916Y-108750828D02*
X130381202Y-108750828D01*
D11*
%TO.C,J102*%
X139987500Y-71905000D03*
D12*
X148987500Y-112655000D03*
X148487500Y-112655000D03*
X147987500Y-112655000D03*
X147487500Y-112655000D03*
X146987500Y-112655000D03*
X144487500Y-112655000D03*
X143987500Y-112655000D03*
X143487500Y-112655000D03*
X142987500Y-112655000D03*
X142487500Y-112655000D03*
X141987500Y-112655000D03*
X141487500Y-112655000D03*
X140987500Y-112655000D03*
X140487500Y-112655000D03*
X139987500Y-112655000D03*
X139487500Y-112655000D03*
X138987500Y-112655000D03*
X138487500Y-112655000D03*
X137987500Y-112655000D03*
X137487500Y-112655000D03*
X136987500Y-112655000D03*
X136487500Y-112655000D03*
X135987500Y-112655000D03*
X135487500Y-112655000D03*
X134987500Y-112655000D03*
X134487500Y-112655000D03*
X133987500Y-112655000D03*
X133487500Y-112655000D03*
X132987500Y-112655000D03*
X132487500Y-112655000D03*
X131987500Y-112655000D03*
X131487500Y-112655000D03*
X130987500Y-112655000D03*
%TD*%
D13*
%TO.C,J101*%
X134950000Y-76310000D03*
X134950000Y-82090000D03*
D14*
X135480000Y-74880000D03*
D15*
X131300000Y-74880000D03*
D14*
X135480000Y-83520000D03*
D15*
X131300000Y-83520000D03*
%TD*%
M02*
