M48
; DRILL file {KiCad 7.0.5-0} date 2023 July 31, Monday 19:13:08
; FORMAT={-:-/ absolute / inch / decimal}
; #@! TF.CreationDate,2023-07-31T19:13:08-04:00
; #@! TF.GenerationSoftware,Kicad,Pcbnew,7.0.5-0
; #@! TF.FileFunction,Plated,1,4,PTH
FMAT,2
INCH
; #@! TA.AperFunction,Plated,PTH,ViaDrill
T1C0.0157
; #@! TA.AperFunction,Plated,PTH,ComponentDrill
T2C0.0236
; #@! TA.AperFunction,Plated,PTH,ComponentDrill
T3C0.1378
%
G90
G05
T1
X5.122Y-3.997
X5.127Y-3.9094
X5.1427Y-2.8701
X5.1516Y-4.3435
X5.1663Y-3.998
X5.2126Y-2.8701
X5.2451Y-4.3435
X5.253Y-3.4557
X5.2608Y-3.1476
X5.2618Y-3.1102
X5.2628Y-3.0719
X5.2736Y-3.5984
X5.2904Y-2.8701
X5.3366Y-4.3435
X5.3871Y-3.3904
X5.3996Y-3.4742
X5.4104Y-3.2872
X5.4232Y-3.5945
X5.4232Y-4.1024
X5.4341Y-3.8081
X5.4547Y-3.4577
X5.4557Y-3.5374
X5.4616Y-3.747
X5.4705Y-3.1634
X5.499Y-3.498
X5.5285Y-3.7254
X5.5305Y-3.0876
X5.5384Y-3.5374
X5.5394Y-3.4567
X5.5837Y-3.5886
X5.5925Y-3.5069
X5.6063Y-4.1053
X5.6112Y-3.0266
X5.6384Y-3.3648
X5.6663Y-3.7657
X5.6791Y-2.8681
X5.6811Y-3.1417
X5.7244Y-2.976
X5.7244Y-3.0157
X5.7264Y-3.0512
X5.7303Y-3.4646
X5.7303Y-3.563
X5.7539Y-3.1713
X5.7549Y-3.1093
X5.7588Y-3.3036
X5.7593Y-3.3429
X5.7785Y-4.3435
X5.7835Y-3.6496
X5.8071Y-3.0748
X5.81Y-2.9803
X5.8258Y-3.3711
X5.8661Y-4.3415
X5.8839Y-3.8937
X5.8839Y-3.9921
T3
X5.5113Y-2.8309
T2
G00X5.1811Y-2.948
M15
G01X5.1575Y-2.948
M16
G05
G00X5.1811Y-3.2882
M15
G01X5.1575Y-3.2882
M16
G05
G00X5.3555Y-2.948
M15
G01X5.3122Y-2.948
M16
G05
G00X5.3555Y-3.2882
M15
G01X5.3122Y-3.2882
M16
G05
T0
M30
