%TF.GenerationSoftware,KiCad,Pcbnew,7.0.5-0*%
%TF.CreationDate,2023-07-31T19:13:05-04:00*%
%TF.ProjectId,mula,6d756c61-2e6b-4696-9361-645f70636258,rev?*%
%TF.SameCoordinates,Original*%
%TF.FileFunction,Copper,L3,Inr*%
%TF.FilePolarity,Positive*%
%FSLAX46Y46*%
G04 Gerber Fmt 4.6, Leading zero omitted, Abs format (unit mm)*
G04 Created by KiCad (PCBNEW 7.0.5-0) date 2023-07-31 19:13:05*
%MOMM*%
%LPD*%
G01*
G04 APERTURE LIST*
%TA.AperFunction,ComponentPad*%
%ADD10C,5.500000*%
%TD*%
%TA.AperFunction,ComponentPad*%
%ADD11O,2.100000X1.000000*%
%TD*%
%TA.AperFunction,ComponentPad*%
%ADD12O,1.600000X1.000000*%
%TD*%
%TA.AperFunction,ViaPad*%
%ADD13C,0.800000*%
%TD*%
%TA.AperFunction,Conductor*%
%ADD14C,0.150000*%
%TD*%
G04 APERTURE END LIST*
D10*
%TO.N,N/C*%
%TO.C,J102*%
X139987500Y-71905000D03*
%TD*%
D11*
%TO.N,GND*%
%TO.C,J101*%
X135480000Y-74880000D03*
D12*
X131300000Y-74880000D03*
D11*
X135480000Y-83520000D03*
D12*
X131300000Y-83520000D03*
%TD*%
D13*
%TO.N,GND*%
X135550000Y-110325000D03*
X146150000Y-80550000D03*
X146775000Y-110325000D03*
X132400000Y-72900000D03*
X138950000Y-80350000D03*
X146175000Y-78975000D03*
X145400000Y-75590000D03*
X147575000Y-75700000D03*
X149000000Y-110275000D03*
X143925000Y-95650000D03*
X145550000Y-88000000D03*
X138575000Y-89850000D03*
X149450000Y-98900000D03*
X134375000Y-72900000D03*
X140475000Y-78425000D03*
X140700000Y-87800000D03*
X138725000Y-95175000D03*
X130625000Y-72900000D03*
X149450000Y-101400000D03*
X146900000Y-92700000D03*
X144300000Y-79800000D03*
X140675000Y-89850000D03*
X144250000Y-72850000D03*
X130850000Y-110325000D03*
X139675000Y-88850000D03*
X137425000Y-83495500D03*
X133225000Y-110325000D03*
X142525000Y-76875000D03*
X145550000Y-90500000D03*
X138550000Y-87825000D03*
X133950000Y-91400000D03*
X147975000Y-85625000D03*
X130225000Y-99300000D03*
X137750000Y-104200000D03*
%TO.N,+3V3*%
X136833308Y-86117350D03*
X142050500Y-89075000D03*
X137750000Y-91300000D03*
X145450000Y-77500000D03*
X140425000Y-94625000D03*
X133425000Y-87775000D03*
X145400000Y-76600000D03*
X137150500Y-88245911D03*
X147500000Y-78100000D03*
%TO.N,+5V*%
X130100000Y-101525000D03*
X133675000Y-78025000D03*
X133625000Y-79950000D03*
X133650000Y-79000000D03*
X138025000Y-96725000D03*
%TO.N,/BANK1_DIR*%
X146272930Y-83911133D03*
X131225000Y-101550000D03*
%TO.N,/BANK2_DIR*%
X142400000Y-104275000D03*
X146285556Y-84910556D03*
%TO.N,/QSPI_CS*%
X143215283Y-85465282D03*
X141825000Y-91150000D03*
%TD*%
D14*
%TO.N,+5V*%
X130100000Y-101525000D02*
X132375000Y-99250000D01*
X132375000Y-99250000D02*
X132375000Y-97400000D01*
%TD*%
%TA.AperFunction,Conductor*%
%TO.N,+3V3*%
G36*
X130147197Y-71925185D02*
G01*
X130192952Y-71977989D01*
X130202896Y-72047147D01*
X130173871Y-72110703D01*
X130153043Y-72129818D01*
X130019129Y-72227111D01*
X129892466Y-72367785D01*
X129797821Y-72531715D01*
X129797818Y-72531722D01*
X129755573Y-72661740D01*
X129739326Y-72711744D01*
X129719540Y-72900000D01*
X129739326Y-73088256D01*
X129739327Y-73088259D01*
X129797818Y-73268277D01*
X129797821Y-73268284D01*
X129892467Y-73432216D01*
X129974109Y-73522888D01*
X130019129Y-73572888D01*
X130172265Y-73684148D01*
X130172270Y-73684151D01*
X130345191Y-73761142D01*
X130345193Y-73761142D01*
X130345197Y-73761144D01*
X130461428Y-73785849D01*
X130522906Y-73819040D01*
X130556683Y-73880202D01*
X130552031Y-73949917D01*
X130510427Y-74006050D01*
X130495823Y-74015556D01*
X130425500Y-74054589D01*
X130425495Y-74054592D01*
X130271106Y-74187132D01*
X130271104Y-74187134D01*
X130146554Y-74348037D01*
X130146553Y-74348040D01*
X130056940Y-74530728D01*
X130005937Y-74727714D01*
X129995631Y-74930936D01*
X130026442Y-75132063D01*
X130026445Y-75132075D01*
X130097111Y-75322881D01*
X130097113Y-75322884D01*
X130097114Y-75322887D01*
X130102617Y-75331716D01*
X130204745Y-75495567D01*
X130204747Y-75495569D01*
X130204748Y-75495571D01*
X130344941Y-75643053D01*
X130473344Y-75732424D01*
X130511949Y-75759294D01*
X130511950Y-75759294D01*
X130511951Y-75759295D01*
X130698942Y-75839540D01*
X130898259Y-75880500D01*
X131650743Y-75880500D01*
X131802439Y-75865074D01*
X131996579Y-75804162D01*
X131996580Y-75804161D01*
X131996588Y-75804159D01*
X132174502Y-75705409D01*
X132328895Y-75572866D01*
X132453448Y-75411958D01*
X132543060Y-75229271D01*
X132594063Y-75032285D01*
X132604369Y-74829064D01*
X132573556Y-74627929D01*
X132502886Y-74437113D01*
X132395252Y-74264429D01*
X132255059Y-74116947D01*
X132088049Y-74000705D01*
X132088048Y-74000704D01*
X132082888Y-73997113D01*
X132084416Y-73994916D01*
X132043581Y-73953465D01*
X132029242Y-73885082D01*
X132054149Y-73819803D01*
X132110394Y-73778352D01*
X132178634Y-73773565D01*
X132305354Y-73800500D01*
X132305355Y-73800500D01*
X132494644Y-73800500D01*
X132494646Y-73800500D01*
X132679803Y-73761144D01*
X132852730Y-73684151D01*
X133005871Y-73572888D01*
X133132533Y-73432216D01*
X133227179Y-73268284D01*
X133269569Y-73137821D01*
X133309005Y-73080147D01*
X133373363Y-73052948D01*
X133442210Y-73064862D01*
X133493686Y-73112106D01*
X133505430Y-73137821D01*
X133547819Y-73268280D01*
X133547821Y-73268284D01*
X133642467Y-73432216D01*
X133724109Y-73522888D01*
X133769129Y-73572888D01*
X133922265Y-73684148D01*
X133922270Y-73684151D01*
X134095192Y-73761142D01*
X134095197Y-73761144D01*
X134280354Y-73800500D01*
X134280355Y-73800500D01*
X134334366Y-73800500D01*
X134401405Y-73820185D01*
X134447160Y-73872989D01*
X134457104Y-73942147D01*
X134428079Y-74005703D01*
X134394544Y-74032919D01*
X134355496Y-74054592D01*
X134355495Y-74054592D01*
X134201106Y-74187132D01*
X134201104Y-74187134D01*
X134076554Y-74348037D01*
X134076553Y-74348040D01*
X133986940Y-74530728D01*
X133935937Y-74727714D01*
X133925631Y-74930936D01*
X133956442Y-75132063D01*
X133956445Y-75132075D01*
X134027111Y-75322881D01*
X134027113Y-75322884D01*
X134027114Y-75322887D01*
X134032617Y-75331716D01*
X134134745Y-75495567D01*
X134134747Y-75495569D01*
X134134748Y-75495571D01*
X134274941Y-75643053D01*
X134441951Y-75759295D01*
X134449758Y-75762645D01*
X134503603Y-75807170D01*
X134524828Y-75873737D01*
X134506695Y-75941213D01*
X134499237Y-75952083D01*
X134447302Y-76019766D01*
X134447300Y-76019769D01*
X134389313Y-76159763D01*
X134389312Y-76159765D01*
X134369534Y-76309999D01*
X134369534Y-76310000D01*
X134389312Y-76460234D01*
X134389313Y-76460236D01*
X134431110Y-76561144D01*
X134447302Y-76600233D01*
X134539549Y-76720451D01*
X134659767Y-76812698D01*
X134799764Y-76870687D01*
X134912280Y-76885500D01*
X134912287Y-76885500D01*
X134987713Y-76885500D01*
X134987720Y-76885500D01*
X135067475Y-76875000D01*
X141619540Y-76875000D01*
X141639326Y-77063256D01*
X141639327Y-77063259D01*
X141697818Y-77243277D01*
X141697821Y-77243284D01*
X141792467Y-77407216D01*
X141898070Y-77524500D01*
X141919129Y-77547888D01*
X142072265Y-77659148D01*
X142072270Y-77659151D01*
X142245192Y-77736142D01*
X142245197Y-77736144D01*
X142430354Y-77775500D01*
X142430355Y-77775500D01*
X142619644Y-77775500D01*
X142619646Y-77775500D01*
X142804803Y-77736144D01*
X142977730Y-77659151D01*
X143130871Y-77547888D01*
X143257533Y-77407216D01*
X143352179Y-77243284D01*
X143410674Y-77063256D01*
X143430460Y-76875000D01*
X143410674Y-76686744D01*
X143352179Y-76506716D01*
X143257533Y-76342784D01*
X143130871Y-76202112D01*
X143130870Y-76202111D01*
X142977734Y-76090851D01*
X142977729Y-76090848D01*
X142804807Y-76013857D01*
X142804802Y-76013855D01*
X142657203Y-75982483D01*
X142619646Y-75974500D01*
X142430354Y-75974500D01*
X142397897Y-75981398D01*
X142245197Y-76013855D01*
X142245192Y-76013857D01*
X142072270Y-76090848D01*
X142072265Y-76090851D01*
X141919129Y-76202111D01*
X141792466Y-76342785D01*
X141697821Y-76506715D01*
X141697818Y-76506722D01*
X141639327Y-76686740D01*
X141639326Y-76686744D01*
X141619540Y-76875000D01*
X135067475Y-76875000D01*
X135100236Y-76870687D01*
X135240233Y-76812698D01*
X135360451Y-76720451D01*
X135452698Y-76600233D01*
X135510687Y-76460236D01*
X135530466Y-76310000D01*
X135510687Y-76159764D01*
X135466030Y-76051953D01*
X135458561Y-75982483D01*
X135489836Y-75920004D01*
X135549925Y-75884352D01*
X135580591Y-75880500D01*
X136080743Y-75880500D01*
X136232439Y-75865074D01*
X136426579Y-75804162D01*
X136426580Y-75804161D01*
X136426588Y-75804159D01*
X136604502Y-75705409D01*
X136738936Y-75590000D01*
X144494540Y-75590000D01*
X144514326Y-75778256D01*
X144514327Y-75778259D01*
X144572818Y-75958277D01*
X144572821Y-75958284D01*
X144667467Y-76122216D01*
X144739405Y-76202111D01*
X144794129Y-76262888D01*
X144947265Y-76374148D01*
X144947270Y-76374151D01*
X145120192Y-76451142D01*
X145120197Y-76451144D01*
X145305354Y-76490500D01*
X145305355Y-76490500D01*
X145494644Y-76490500D01*
X145494646Y-76490500D01*
X145679803Y-76451144D01*
X145852730Y-76374151D01*
X146005871Y-76262888D01*
X146132533Y-76122216D01*
X146227179Y-75958284D01*
X146285674Y-75778256D01*
X146293899Y-75700000D01*
X146669540Y-75700000D01*
X146689326Y-75888256D01*
X146689327Y-75888259D01*
X146747818Y-76068277D01*
X146747821Y-76068284D01*
X146842467Y-76232216D01*
X146942023Y-76342784D01*
X146969129Y-76372888D01*
X147122265Y-76484148D01*
X147122270Y-76484151D01*
X147295192Y-76561142D01*
X147295197Y-76561144D01*
X147480354Y-76600500D01*
X147480355Y-76600500D01*
X147669644Y-76600500D01*
X147669646Y-76600500D01*
X147854803Y-76561144D01*
X148027730Y-76484151D01*
X148180871Y-76372888D01*
X148307533Y-76232216D01*
X148402179Y-76068284D01*
X148460674Y-75888256D01*
X148480460Y-75700000D01*
X148460674Y-75511744D01*
X148402179Y-75331716D01*
X148307533Y-75167784D01*
X148180871Y-75027112D01*
X148180870Y-75027111D01*
X148027734Y-74915851D01*
X148027729Y-74915848D01*
X147854807Y-74838857D01*
X147854802Y-74838855D01*
X147699511Y-74805848D01*
X147669646Y-74799500D01*
X147480354Y-74799500D01*
X147450489Y-74805848D01*
X147295197Y-74838855D01*
X147295192Y-74838857D01*
X147122270Y-74915848D01*
X147122265Y-74915851D01*
X146969129Y-75027111D01*
X146842466Y-75167785D01*
X146747821Y-75331715D01*
X146747818Y-75331722D01*
X146689327Y-75511740D01*
X146689326Y-75511744D01*
X146669540Y-75700000D01*
X146293899Y-75700000D01*
X146305460Y-75590000D01*
X146285674Y-75401744D01*
X146227179Y-75221716D01*
X146132533Y-75057784D01*
X146005871Y-74917112D01*
X146005870Y-74917111D01*
X145852734Y-74805851D01*
X145852729Y-74805848D01*
X145679807Y-74728857D01*
X145679802Y-74728855D01*
X145534000Y-74697865D01*
X145494646Y-74689500D01*
X145305354Y-74689500D01*
X145272897Y-74696398D01*
X145120197Y-74728855D01*
X145120192Y-74728857D01*
X144947270Y-74805848D01*
X144947265Y-74805851D01*
X144794129Y-74917111D01*
X144667466Y-75057785D01*
X144572821Y-75221715D01*
X144572818Y-75221722D01*
X144514327Y-75401740D01*
X144514326Y-75401744D01*
X144494540Y-75590000D01*
X136738936Y-75590000D01*
X136758895Y-75572866D01*
X136883448Y-75411958D01*
X136973060Y-75229271D01*
X137024063Y-75032285D01*
X137034369Y-74829064D01*
X137003556Y-74627929D01*
X136932886Y-74437113D01*
X136825252Y-74264429D01*
X136685059Y-74116947D01*
X136586587Y-74048409D01*
X136518050Y-74000705D01*
X136331056Y-73920459D01*
X136131741Y-73879500D01*
X134940488Y-73879500D01*
X134873449Y-73859815D01*
X134827694Y-73807011D01*
X134817750Y-73737853D01*
X134846775Y-73674297D01*
X134867603Y-73655182D01*
X134901725Y-73630390D01*
X134980871Y-73572888D01*
X135107533Y-73432216D01*
X135202179Y-73268284D01*
X135260674Y-73088256D01*
X135280460Y-72900000D01*
X135260674Y-72711744D01*
X135202179Y-72531716D01*
X135107533Y-72367784D01*
X134980871Y-72227112D01*
X134927416Y-72188275D01*
X134846957Y-72129818D01*
X134804291Y-72074488D01*
X134798312Y-72004875D01*
X134830918Y-71943080D01*
X134891756Y-71908723D01*
X134919842Y-71905500D01*
X136614794Y-71905500D01*
X136681833Y-71925185D01*
X136727588Y-71977989D01*
X136738612Y-72022786D01*
X136744807Y-72137033D01*
X136751309Y-72256957D01*
X136796354Y-72531722D01*
X136808333Y-72604793D01*
X136808334Y-72604796D01*
X136902626Y-72944408D01*
X136902627Y-72944410D01*
X137033088Y-73271844D01*
X137033097Y-73271862D01*
X137118112Y-73432216D01*
X137198195Y-73583269D01*
X137390403Y-73866755D01*
X137395998Y-73875006D01*
X137396005Y-73875016D01*
X137548538Y-74054591D01*
X137624186Y-74143650D01*
X137880080Y-74386046D01*
X138160682Y-74599354D01*
X138462702Y-74781074D01*
X138462706Y-74781075D01*
X138462710Y-74781078D01*
X138782588Y-74929070D01*
X138782592Y-74929070D01*
X138782599Y-74929074D01*
X139116622Y-75041619D01*
X139460855Y-75117391D01*
X139811263Y-75155500D01*
X139811269Y-75155500D01*
X140163731Y-75155500D01*
X140163737Y-75155500D01*
X140514145Y-75117391D01*
X140858378Y-75041619D01*
X141192401Y-74929074D01*
X141192408Y-74929070D01*
X141192411Y-74929070D01*
X141512289Y-74781078D01*
X141512298Y-74781074D01*
X141814318Y-74599354D01*
X142094920Y-74386046D01*
X142350814Y-74143650D01*
X142579001Y-73875008D01*
X142776805Y-73583269D01*
X142941907Y-73271854D01*
X143072371Y-72944414D01*
X143102413Y-72836210D01*
X143139315Y-72776880D01*
X143202435Y-72746919D01*
X143271733Y-72755840D01*
X143325208Y-72800810D01*
X143345214Y-72856420D01*
X143364326Y-73038256D01*
X143364327Y-73038259D01*
X143422818Y-73218277D01*
X143422821Y-73218284D01*
X143517467Y-73382216D01*
X143644128Y-73522887D01*
X143644129Y-73522888D01*
X143797265Y-73634148D01*
X143797270Y-73634151D01*
X143970192Y-73711142D01*
X143970197Y-73711144D01*
X144155354Y-73750500D01*
X144155355Y-73750500D01*
X144344644Y-73750500D01*
X144344646Y-73750500D01*
X144529803Y-73711144D01*
X144702730Y-73634151D01*
X144855871Y-73522888D01*
X144982533Y-73382216D01*
X145077179Y-73218284D01*
X145135674Y-73038256D01*
X145155460Y-72850000D01*
X145135674Y-72661744D01*
X145077179Y-72481716D01*
X144982533Y-72317784D01*
X144855871Y-72177112D01*
X144790775Y-72129817D01*
X144748111Y-72074488D01*
X144742132Y-72004874D01*
X144774738Y-71943080D01*
X144835577Y-71908722D01*
X144863662Y-71905500D01*
X150484019Y-71905500D01*
X150490956Y-71905889D01*
X150513854Y-71908469D01*
X150593331Y-71918932D01*
X150618097Y-71924829D01*
X150652235Y-71936775D01*
X150655484Y-71938015D01*
X150709695Y-71960469D01*
X150728195Y-71970027D01*
X150763020Y-71991909D01*
X150767767Y-71995212D01*
X150815700Y-72031993D01*
X150821795Y-72037337D01*
X150855160Y-72070702D01*
X150860505Y-72076798D01*
X150897286Y-72124731D01*
X150900597Y-72129490D01*
X150922467Y-72164296D01*
X150932036Y-72182818D01*
X150954483Y-72237014D01*
X150955723Y-72240263D01*
X150967669Y-72274401D01*
X150973566Y-72299169D01*
X150984028Y-72378632D01*
X150986610Y-72401537D01*
X150987000Y-72408486D01*
X150987000Y-109695240D01*
X150985466Y-109714686D01*
X150985230Y-109716173D01*
X150984805Y-109718547D01*
X150977302Y-109756264D01*
X150966177Y-109788351D01*
X150962886Y-109794813D01*
X150959187Y-109801124D01*
X150944119Y-109823673D01*
X150928700Y-109842460D01*
X150924960Y-109846200D01*
X150906173Y-109861619D01*
X150883624Y-109876687D01*
X150877318Y-109880382D01*
X150875670Y-109881222D01*
X150870851Y-109883677D01*
X150838764Y-109894802D01*
X150801047Y-109902305D01*
X150798673Y-109902730D01*
X150797186Y-109902966D01*
X150777740Y-109904500D01*
X150520436Y-109904500D01*
X150495937Y-109897306D01*
X150445330Y-109903969D01*
X150437228Y-109904500D01*
X150381104Y-109904500D01*
X150373430Y-109906252D01*
X150349708Y-109904797D01*
X150322441Y-109916092D01*
X150302585Y-109922420D01*
X150271150Y-109929595D01*
X150271147Y-109929596D01*
X150249506Y-109940018D01*
X150223604Y-109944282D01*
X150205026Y-109958538D01*
X150183344Y-109971881D01*
X150169534Y-109978531D01*
X150169527Y-109978536D01*
X150140144Y-110001968D01*
X150113594Y-110012806D01*
X150102378Y-110027424D01*
X150086228Y-110043880D01*
X150086278Y-110043930D01*
X150076430Y-110053778D01*
X150076380Y-110053728D01*
X150059923Y-110069879D01*
X150055260Y-110073457D01*
X149990090Y-110098651D01*
X149921646Y-110084612D01*
X149871656Y-110035798D01*
X149861843Y-110013399D01*
X149827181Y-109906722D01*
X149827180Y-109906721D01*
X149827179Y-109906716D01*
X149732533Y-109742784D01*
X149605871Y-109602112D01*
X149605870Y-109602111D01*
X149452734Y-109490851D01*
X149452729Y-109490848D01*
X149279807Y-109413857D01*
X149279802Y-109413855D01*
X149134000Y-109382865D01*
X149094646Y-109374500D01*
X148905354Y-109374500D01*
X148872897Y-109381398D01*
X148720197Y-109413855D01*
X148720192Y-109413857D01*
X148547270Y-109490848D01*
X148547265Y-109490851D01*
X148394129Y-109602111D01*
X148267466Y-109742785D01*
X148172821Y-109906715D01*
X148172818Y-109906722D01*
X148114327Y-110086740D01*
X148114326Y-110086744D01*
X148094540Y-110275000D01*
X148114326Y-110463256D01*
X148114327Y-110463259D01*
X148172818Y-110643277D01*
X148172821Y-110643284D01*
X148267467Y-110807216D01*
X148359034Y-110908911D01*
X148394129Y-110947888D01*
X148547265Y-111059148D01*
X148547270Y-111059151D01*
X148720192Y-111136142D01*
X148720197Y-111136144D01*
X148905354Y-111175500D01*
X148905355Y-111175500D01*
X149094644Y-111175500D01*
X149094646Y-111175500D01*
X149279803Y-111136144D01*
X149452730Y-111059151D01*
X149605871Y-110947888D01*
X149720850Y-110820190D01*
X149780337Y-110783542D01*
X149850194Y-110784873D01*
X149908242Y-110823759D01*
X149936052Y-110887856D01*
X149937000Y-110903163D01*
X149937000Y-113695240D01*
X149935466Y-113714686D01*
X149935230Y-113716173D01*
X149934805Y-113718547D01*
X149927302Y-113756264D01*
X149916177Y-113788351D01*
X149912886Y-113794813D01*
X149909187Y-113801124D01*
X149894119Y-113823673D01*
X149878700Y-113842460D01*
X149874960Y-113846200D01*
X149856173Y-113861619D01*
X149833624Y-113876687D01*
X149827318Y-113880382D01*
X149825670Y-113881222D01*
X149820851Y-113883677D01*
X149788764Y-113894802D01*
X149751047Y-113902305D01*
X149748673Y-113902730D01*
X149747186Y-113902966D01*
X149727740Y-113904500D01*
X146312000Y-113904500D01*
X146244961Y-113884815D01*
X146199206Y-113832011D01*
X146188000Y-113780500D01*
X146188000Y-111240313D01*
X146207685Y-111173274D01*
X146260489Y-111127519D01*
X146329647Y-111117575D01*
X146362434Y-111127033D01*
X146495197Y-111186144D01*
X146680354Y-111225500D01*
X146680355Y-111225500D01*
X146869644Y-111225500D01*
X146869646Y-111225500D01*
X147054803Y-111186144D01*
X147227730Y-111109151D01*
X147380871Y-110997888D01*
X147507533Y-110857216D01*
X147602179Y-110693284D01*
X147660674Y-110513256D01*
X147680460Y-110325000D01*
X147660674Y-110136744D01*
X147602179Y-109956716D01*
X147507533Y-109792784D01*
X147380871Y-109652112D01*
X147312052Y-109602112D01*
X147227734Y-109540851D01*
X147227729Y-109540848D01*
X147054807Y-109463857D01*
X147054802Y-109463855D01*
X146909001Y-109432865D01*
X146869646Y-109424500D01*
X146680354Y-109424500D01*
X146647897Y-109431398D01*
X146495197Y-109463855D01*
X146495192Y-109463857D01*
X146322270Y-109540848D01*
X146322265Y-109540851D01*
X146169129Y-109652111D01*
X146042466Y-109792785D01*
X145947821Y-109956715D01*
X145947818Y-109956722D01*
X145905573Y-110086740D01*
X145889326Y-110136744D01*
X145889296Y-110137033D01*
X145871493Y-110306419D01*
X145844908Y-110371033D01*
X145787611Y-110411018D01*
X145719733Y-110413604D01*
X145719072Y-110413845D01*
X145683589Y-110410988D01*
X145648373Y-110402951D01*
X145648741Y-110401337D01*
X145640769Y-110397986D01*
X145603684Y-110402869D01*
X145571314Y-110402869D01*
X145542710Y-110399103D01*
X145541884Y-110399660D01*
X145526619Y-110402906D01*
X145526629Y-110402950D01*
X145491411Y-110410988D01*
X145470239Y-110409690D01*
X145446943Y-110419340D01*
X145427086Y-110425669D01*
X145387917Y-110434609D01*
X145387911Y-110434611D01*
X145343891Y-110455810D01*
X145321166Y-110459551D01*
X145306113Y-110471102D01*
X145284433Y-110484444D01*
X145265994Y-110493324D01*
X145215134Y-110533883D01*
X145191910Y-110543363D01*
X145183262Y-110554635D01*
X145162205Y-110576091D01*
X145160194Y-110577694D01*
X145158591Y-110579705D01*
X145137135Y-110600762D01*
X145132820Y-110604072D01*
X145132533Y-110606163D01*
X145116383Y-110632634D01*
X145075824Y-110683494D01*
X145066944Y-110701933D01*
X145053602Y-110723613D01*
X145048362Y-110730441D01*
X145038310Y-110761391D01*
X145017111Y-110805411D01*
X145017109Y-110805417D01*
X145008169Y-110844586D01*
X145001840Y-110864443D01*
X144995916Y-110878744D01*
X144993488Y-110908911D01*
X144987000Y-110937333D01*
X144987000Y-111004730D01*
X144986469Y-111012831D01*
X144981371Y-111051551D01*
X144987000Y-111087947D01*
X144987000Y-113780500D01*
X144967315Y-113847539D01*
X144914511Y-113893294D01*
X144863000Y-113904500D01*
X130247257Y-113904500D01*
X130227702Y-113902948D01*
X130227521Y-113902919D01*
X130226249Y-113902716D01*
X130223931Y-113902301D01*
X130186235Y-113894802D01*
X130154147Y-113883677D01*
X130153487Y-113883341D01*
X130147666Y-113880375D01*
X130141374Y-113876687D01*
X130118825Y-113861619D01*
X130100038Y-113846200D01*
X130096298Y-113842460D01*
X130080879Y-113823673D01*
X130080193Y-113822646D01*
X130065804Y-113801113D01*
X130062130Y-113794844D01*
X130058819Y-113788345D01*
X130047698Y-113756270D01*
X130040165Y-113718398D01*
X130039758Y-113716102D01*
X130039512Y-113714550D01*
X130039470Y-113714276D01*
X130038000Y-113695242D01*
X130038000Y-111090797D01*
X130057685Y-111023758D01*
X130110489Y-110978003D01*
X130179647Y-110968059D01*
X130238304Y-110994847D01*
X130238871Y-110994068D01*
X130242716Y-110996861D01*
X130243203Y-110997084D01*
X130244039Y-110997823D01*
X130397265Y-111109148D01*
X130397270Y-111109151D01*
X130570192Y-111186142D01*
X130570197Y-111186144D01*
X130755354Y-111225500D01*
X130755355Y-111225500D01*
X130944644Y-111225500D01*
X130944646Y-111225500D01*
X131129803Y-111186144D01*
X131302730Y-111109151D01*
X131455871Y-110997888D01*
X131582533Y-110857216D01*
X131677179Y-110693284D01*
X131735674Y-110513256D01*
X131755460Y-110325000D01*
X132319540Y-110325000D01*
X132339326Y-110513256D01*
X132339327Y-110513259D01*
X132397818Y-110693277D01*
X132397821Y-110693284D01*
X132492467Y-110857216D01*
X132615689Y-110994068D01*
X132619129Y-110997888D01*
X132772265Y-111109148D01*
X132772270Y-111109151D01*
X132945192Y-111186142D01*
X132945197Y-111186144D01*
X133130354Y-111225500D01*
X133130355Y-111225500D01*
X133319644Y-111225500D01*
X133319646Y-111225500D01*
X133504803Y-111186144D01*
X133677730Y-111109151D01*
X133830871Y-110997888D01*
X133957533Y-110857216D01*
X134052179Y-110693284D01*
X134110674Y-110513256D01*
X134130460Y-110325000D01*
X134644540Y-110325000D01*
X134664326Y-110513256D01*
X134664327Y-110513259D01*
X134722818Y-110693277D01*
X134722821Y-110693284D01*
X134817467Y-110857216D01*
X134940689Y-110994068D01*
X134944129Y-110997888D01*
X135097265Y-111109148D01*
X135097270Y-111109151D01*
X135270192Y-111186142D01*
X135270197Y-111186144D01*
X135455354Y-111225500D01*
X135455355Y-111225500D01*
X135644644Y-111225500D01*
X135644646Y-111225500D01*
X135829803Y-111186144D01*
X136002730Y-111109151D01*
X136155871Y-110997888D01*
X136282533Y-110857216D01*
X136377179Y-110693284D01*
X136435674Y-110513256D01*
X136455460Y-110325000D01*
X136435674Y-110136744D01*
X136377179Y-109956716D01*
X136282533Y-109792784D01*
X136155871Y-109652112D01*
X136087052Y-109602112D01*
X136002734Y-109540851D01*
X136002729Y-109540848D01*
X135829807Y-109463857D01*
X135829802Y-109463855D01*
X135684001Y-109432865D01*
X135644646Y-109424500D01*
X135455354Y-109424500D01*
X135422897Y-109431398D01*
X135270197Y-109463855D01*
X135270192Y-109463857D01*
X135097270Y-109540848D01*
X135097265Y-109540851D01*
X134944129Y-109652111D01*
X134817466Y-109792785D01*
X134722821Y-109956715D01*
X134722818Y-109956722D01*
X134680573Y-110086740D01*
X134664326Y-110136744D01*
X134644540Y-110325000D01*
X134130460Y-110325000D01*
X134110674Y-110136744D01*
X134052179Y-109956716D01*
X133957533Y-109792784D01*
X133830871Y-109652112D01*
X133762052Y-109602112D01*
X133677734Y-109540851D01*
X133677729Y-109540848D01*
X133504807Y-109463857D01*
X133504802Y-109463855D01*
X133359000Y-109432865D01*
X133319646Y-109424500D01*
X133130354Y-109424500D01*
X133097897Y-109431398D01*
X132945197Y-109463855D01*
X132945192Y-109463857D01*
X132772270Y-109540848D01*
X132772265Y-109540851D01*
X132619129Y-109652111D01*
X132492466Y-109792785D01*
X132397821Y-109956715D01*
X132397818Y-109956722D01*
X132355573Y-110086740D01*
X132339326Y-110136744D01*
X132319540Y-110325000D01*
X131755460Y-110325000D01*
X131735674Y-110136744D01*
X131677179Y-109956716D01*
X131582533Y-109792784D01*
X131455871Y-109652112D01*
X131387052Y-109602112D01*
X131302734Y-109540851D01*
X131302729Y-109540848D01*
X131129807Y-109463857D01*
X131129802Y-109463855D01*
X130984000Y-109432865D01*
X130944646Y-109424500D01*
X130755354Y-109424500D01*
X130722897Y-109431398D01*
X130570197Y-109463855D01*
X130570192Y-109463857D01*
X130397270Y-109540848D01*
X130397265Y-109540851D01*
X130244129Y-109652111D01*
X130117466Y-109792785D01*
X130086627Y-109846200D01*
X130023832Y-109954966D01*
X130019572Y-109962344D01*
X130017873Y-109961363D01*
X129978657Y-110007489D01*
X129911805Y-110027801D01*
X129844584Y-110008745D01*
X129833329Y-110000752D01*
X129805469Y-109978533D01*
X129805464Y-109978531D01*
X129791654Y-109971880D01*
X129769972Y-109958537D01*
X129758988Y-109950108D01*
X129757159Y-109950304D01*
X129725485Y-109940015D01*
X129703850Y-109929596D01*
X129672410Y-109922420D01*
X129652552Y-109916090D01*
X129635365Y-109908971D01*
X129601557Y-109906249D01*
X129593895Y-109904500D01*
X129593893Y-109904500D01*
X129537770Y-109904500D01*
X129529669Y-109903969D01*
X129490951Y-109898871D01*
X129454560Y-109904500D01*
X129197257Y-109904500D01*
X129177702Y-109902948D01*
X129177521Y-109902919D01*
X129176249Y-109902716D01*
X129173931Y-109902301D01*
X129136235Y-109894802D01*
X129104147Y-109883677D01*
X129103487Y-109883341D01*
X129097666Y-109880375D01*
X129091374Y-109876687D01*
X129068825Y-109861619D01*
X129050038Y-109846200D01*
X129046298Y-109842460D01*
X129030879Y-109823673D01*
X129030193Y-109822646D01*
X129015804Y-109801113D01*
X129012130Y-109794844D01*
X129008819Y-109788345D01*
X128997698Y-109756270D01*
X128990165Y-109718398D01*
X128989758Y-109716102D01*
X128989512Y-109714550D01*
X128989470Y-109714276D01*
X128988000Y-109695242D01*
X128988000Y-109374500D01*
X128988000Y-104200000D01*
X136844540Y-104200000D01*
X136864326Y-104388256D01*
X136864327Y-104388259D01*
X136922818Y-104568277D01*
X136922821Y-104568284D01*
X137017467Y-104732216D01*
X137144128Y-104872887D01*
X137144129Y-104872888D01*
X137297265Y-104984148D01*
X137297270Y-104984151D01*
X137470192Y-105061142D01*
X137470197Y-105061144D01*
X137655354Y-105100500D01*
X137655355Y-105100500D01*
X137844644Y-105100500D01*
X137844646Y-105100500D01*
X138029803Y-105061144D01*
X138202730Y-104984151D01*
X138355871Y-104872888D01*
X138482533Y-104732216D01*
X138577179Y-104568284D01*
X138635674Y-104388256D01*
X138647577Y-104275000D01*
X141494540Y-104275000D01*
X141514326Y-104463256D01*
X141514327Y-104463259D01*
X141572818Y-104643277D01*
X141572821Y-104643284D01*
X141667467Y-104807216D01*
X141726599Y-104872888D01*
X141794129Y-104947888D01*
X141947265Y-105059148D01*
X141947270Y-105059151D01*
X142120192Y-105136142D01*
X142120197Y-105136144D01*
X142305354Y-105175500D01*
X142305355Y-105175500D01*
X142494644Y-105175500D01*
X142494646Y-105175500D01*
X142679803Y-105136144D01*
X142852730Y-105059151D01*
X143005871Y-104947888D01*
X143132533Y-104807216D01*
X143227179Y-104643284D01*
X143285674Y-104463256D01*
X143305460Y-104275000D01*
X143285674Y-104086744D01*
X143227179Y-103906716D01*
X143132533Y-103742784D01*
X143005871Y-103602112D01*
X143005870Y-103602111D01*
X142852734Y-103490851D01*
X142852729Y-103490848D01*
X142679807Y-103413857D01*
X142679802Y-103413855D01*
X142534000Y-103382865D01*
X142494646Y-103374500D01*
X142305354Y-103374500D01*
X142272897Y-103381398D01*
X142120197Y-103413855D01*
X142120192Y-103413857D01*
X141947270Y-103490848D01*
X141947265Y-103490851D01*
X141794129Y-103602111D01*
X141667466Y-103742785D01*
X141572821Y-103906715D01*
X141572818Y-103906722D01*
X141538696Y-104011740D01*
X141514326Y-104086744D01*
X141494540Y-104275000D01*
X138647577Y-104275000D01*
X138655460Y-104200000D01*
X138635674Y-104011744D01*
X138577179Y-103831716D01*
X138482533Y-103667784D01*
X138355871Y-103527112D01*
X138305962Y-103490851D01*
X138202734Y-103415851D01*
X138202729Y-103415848D01*
X138029807Y-103338857D01*
X138029802Y-103338855D01*
X137884000Y-103307865D01*
X137844646Y-103299500D01*
X137655354Y-103299500D01*
X137622897Y-103306398D01*
X137470197Y-103338855D01*
X137470192Y-103338857D01*
X137297270Y-103415848D01*
X137297265Y-103415851D01*
X137144129Y-103527111D01*
X137017466Y-103667785D01*
X136922821Y-103831715D01*
X136922818Y-103831722D01*
X136864327Y-104011740D01*
X136864326Y-104011744D01*
X136844540Y-104200000D01*
X128988000Y-104200000D01*
X128988000Y-101799597D01*
X129007684Y-101732562D01*
X129060488Y-101686807D01*
X129129646Y-101676863D01*
X129193202Y-101705888D01*
X129229930Y-101761282D01*
X129272819Y-101893280D01*
X129272821Y-101893284D01*
X129367467Y-102057216D01*
X129481757Y-102184148D01*
X129494129Y-102197888D01*
X129647265Y-102309148D01*
X129647270Y-102309151D01*
X129820192Y-102386142D01*
X129820197Y-102386144D01*
X130005354Y-102425500D01*
X130005355Y-102425500D01*
X130194644Y-102425500D01*
X130194646Y-102425500D01*
X130379803Y-102386144D01*
X130552730Y-102309151D01*
X130572409Y-102294852D01*
X130638212Y-102271372D01*
X130706266Y-102287196D01*
X130718181Y-102294853D01*
X130772264Y-102334147D01*
X130772270Y-102334151D01*
X130945192Y-102411142D01*
X130945197Y-102411144D01*
X131130354Y-102450500D01*
X131130355Y-102450500D01*
X131319644Y-102450500D01*
X131319646Y-102450500D01*
X131504803Y-102411144D01*
X131677730Y-102334151D01*
X131830871Y-102222888D01*
X131957533Y-102082216D01*
X132052179Y-101918284D01*
X132110674Y-101738256D01*
X132130460Y-101550000D01*
X132114695Y-101400000D01*
X148544540Y-101400000D01*
X148564326Y-101588256D01*
X148564327Y-101588259D01*
X148622818Y-101768277D01*
X148622821Y-101768284D01*
X148717467Y-101932216D01*
X148830016Y-102057214D01*
X148844129Y-102072888D01*
X148997265Y-102184148D01*
X148997270Y-102184151D01*
X149170192Y-102261142D01*
X149170197Y-102261144D01*
X149355354Y-102300500D01*
X149355355Y-102300500D01*
X149544644Y-102300500D01*
X149544646Y-102300500D01*
X149729803Y-102261144D01*
X149902730Y-102184151D01*
X150055871Y-102072888D01*
X150182533Y-101932216D01*
X150277179Y-101768284D01*
X150335674Y-101588256D01*
X150355460Y-101400000D01*
X150335674Y-101211744D01*
X150277179Y-101031716D01*
X150182533Y-100867784D01*
X150055871Y-100727112D01*
X149968808Y-100663857D01*
X149902734Y-100615851D01*
X149902729Y-100615848D01*
X149729807Y-100538857D01*
X149729802Y-100538855D01*
X149584001Y-100507865D01*
X149544646Y-100499500D01*
X149355354Y-100499500D01*
X149322897Y-100506398D01*
X149170197Y-100538855D01*
X149170192Y-100538857D01*
X148997270Y-100615848D01*
X148997265Y-100615851D01*
X148844129Y-100727111D01*
X148717466Y-100867785D01*
X148622821Y-101031715D01*
X148622818Y-101031722D01*
X148564327Y-101211740D01*
X148564326Y-101211744D01*
X148544540Y-101400000D01*
X132114695Y-101400000D01*
X132110674Y-101361744D01*
X132052179Y-101181716D01*
X131957533Y-101017784D01*
X131830871Y-100877112D01*
X131792463Y-100849207D01*
X131749799Y-100793878D01*
X131743820Y-100724264D01*
X131776426Y-100662469D01*
X131777595Y-100661283D01*
X132752398Y-99686480D01*
X132758489Y-99681138D01*
X132785451Y-99660451D01*
X132802405Y-99638356D01*
X132808610Y-99630269D01*
X132808612Y-99630268D01*
X132877699Y-99540233D01*
X132935687Y-99400235D01*
X132948883Y-99300000D01*
X132948884Y-99299998D01*
X132951700Y-99278606D01*
X132951700Y-99278592D01*
X132955465Y-99250003D01*
X132955465Y-99250000D01*
X132951030Y-99216317D01*
X132950499Y-99208215D01*
X132950499Y-98900000D01*
X148544540Y-98900000D01*
X148564326Y-99088256D01*
X148564327Y-99088259D01*
X148622818Y-99268277D01*
X148622821Y-99268284D01*
X148717467Y-99432216D01*
X148788628Y-99511248D01*
X148844129Y-99572888D01*
X148997265Y-99684148D01*
X148997270Y-99684151D01*
X149170192Y-99761142D01*
X149170197Y-99761144D01*
X149355354Y-99800500D01*
X149355355Y-99800500D01*
X149544644Y-99800500D01*
X149544646Y-99800500D01*
X149729803Y-99761144D01*
X149902730Y-99684151D01*
X150055871Y-99572888D01*
X150182533Y-99432216D01*
X150277179Y-99268284D01*
X150335674Y-99088256D01*
X150355460Y-98900000D01*
X150335674Y-98711744D01*
X150277179Y-98531716D01*
X150182533Y-98367784D01*
X150055871Y-98227112D01*
X150055870Y-98227111D01*
X149902734Y-98115851D01*
X149902729Y-98115848D01*
X149729807Y-98038857D01*
X149729802Y-98038855D01*
X149584000Y-98007865D01*
X149544646Y-97999500D01*
X149355354Y-97999500D01*
X149322897Y-98006398D01*
X149170197Y-98038855D01*
X149170192Y-98038857D01*
X148997270Y-98115848D01*
X148997265Y-98115851D01*
X148844129Y-98227111D01*
X148717466Y-98367785D01*
X148622821Y-98531715D01*
X148622818Y-98531722D01*
X148564327Y-98711740D01*
X148564326Y-98711744D01*
X148544540Y-98900000D01*
X132950499Y-98900000D01*
X132950500Y-98179500D01*
X132970185Y-98112460D01*
X133022989Y-98066706D01*
X133074500Y-98055500D01*
X138062178Y-98055500D01*
X138063627Y-98055422D01*
X138089216Y-98054051D01*
X138098405Y-98053062D01*
X138129038Y-98049769D01*
X138146840Y-98046884D01*
X138182448Y-98041114D01*
X138317257Y-97990832D01*
X138378580Y-97957347D01*
X138493761Y-97871123D01*
X138980697Y-97384188D01*
X138998792Y-97364043D01*
X138998797Y-97364035D01*
X138998803Y-97364030D01*
X139023917Y-97332864D01*
X139023922Y-97332858D01*
X139055567Y-97288974D01*
X139115338Y-97158097D01*
X139135023Y-97091058D01*
X139135024Y-97091054D01*
X139155500Y-96948638D01*
X139155500Y-96387823D01*
X139154051Y-96360784D01*
X139149769Y-96320964D01*
X139141114Y-96267552D01*
X139090832Y-96132743D01*
X139090831Y-96132742D01*
X139089284Y-96128593D01*
X139090715Y-96128059D01*
X139081691Y-96065372D01*
X139110704Y-96001811D01*
X139153995Y-95969718D01*
X139177730Y-95959151D01*
X139330871Y-95847888D01*
X139457533Y-95707216D01*
X139490567Y-95650000D01*
X143019540Y-95650000D01*
X143039326Y-95838256D01*
X143039327Y-95838259D01*
X143097818Y-96018277D01*
X143097821Y-96018284D01*
X143192467Y-96182216D01*
X143269304Y-96267552D01*
X143319129Y-96322888D01*
X143472265Y-96434148D01*
X143472270Y-96434151D01*
X143645192Y-96511142D01*
X143645197Y-96511144D01*
X143830354Y-96550500D01*
X143830355Y-96550500D01*
X144019644Y-96550500D01*
X144019646Y-96550500D01*
X144204803Y-96511144D01*
X144377730Y-96434151D01*
X144530871Y-96322888D01*
X144657533Y-96182216D01*
X144752179Y-96018284D01*
X144810674Y-95838256D01*
X144830460Y-95650000D01*
X144810674Y-95461744D01*
X144752179Y-95281716D01*
X144657533Y-95117784D01*
X144530871Y-94977112D01*
X144530870Y-94977111D01*
X144377734Y-94865851D01*
X144377729Y-94865848D01*
X144204807Y-94788857D01*
X144204802Y-94788855D01*
X144059001Y-94757865D01*
X144019646Y-94749500D01*
X143830354Y-94749500D01*
X143797897Y-94756398D01*
X143645197Y-94788855D01*
X143645192Y-94788857D01*
X143472270Y-94865848D01*
X143472265Y-94865851D01*
X143319129Y-94977111D01*
X143192466Y-95117785D01*
X143097821Y-95281715D01*
X143097818Y-95281722D01*
X143039327Y-95461740D01*
X143039326Y-95461744D01*
X143019540Y-95650000D01*
X139490567Y-95650000D01*
X139552179Y-95543284D01*
X139610674Y-95363256D01*
X139630460Y-95175000D01*
X139610674Y-94986744D01*
X139552179Y-94806716D01*
X139457533Y-94642784D01*
X139330871Y-94502112D01*
X139330870Y-94502111D01*
X139177734Y-94390851D01*
X139177729Y-94390848D01*
X139004807Y-94313857D01*
X139004802Y-94313855D01*
X138859001Y-94282865D01*
X138819646Y-94274500D01*
X138630354Y-94274500D01*
X138597897Y-94281398D01*
X138445197Y-94313855D01*
X138445192Y-94313857D01*
X138272270Y-94390848D01*
X138272265Y-94390851D01*
X138119129Y-94502111D01*
X137992466Y-94642785D01*
X137897821Y-94806715D01*
X137897818Y-94806722D01*
X137839327Y-94986740D01*
X137839326Y-94986744D01*
X137819540Y-95175000D01*
X137825587Y-95232540D01*
X137813019Y-95301268D01*
X137765287Y-95352292D01*
X137702267Y-95369500D01*
X133360746Y-95369500D01*
X133293707Y-95349815D01*
X133273065Y-95333181D01*
X132541819Y-94601934D01*
X132508334Y-94540611D01*
X132505500Y-94514253D01*
X132505500Y-92700000D01*
X145994540Y-92700000D01*
X146014326Y-92888256D01*
X146014327Y-92888259D01*
X146072818Y-93068277D01*
X146072821Y-93068284D01*
X146167467Y-93232216D01*
X146294129Y-93372887D01*
X146294129Y-93372888D01*
X146447265Y-93484148D01*
X146447270Y-93484151D01*
X146620192Y-93561142D01*
X146620197Y-93561144D01*
X146805354Y-93600500D01*
X146805355Y-93600500D01*
X146994644Y-93600500D01*
X146994646Y-93600500D01*
X147179803Y-93561144D01*
X147352730Y-93484151D01*
X147505871Y-93372888D01*
X147632533Y-93232216D01*
X147727179Y-93068284D01*
X147785674Y-92888256D01*
X147805460Y-92700000D01*
X147785674Y-92511744D01*
X147727179Y-92331716D01*
X147632533Y-92167784D01*
X147505871Y-92027112D01*
X147483893Y-92011144D01*
X147352734Y-91915851D01*
X147352729Y-91915848D01*
X147179807Y-91838857D01*
X147179802Y-91838855D01*
X147034000Y-91807865D01*
X146994646Y-91799500D01*
X146805354Y-91799500D01*
X146772897Y-91806398D01*
X146620197Y-91838855D01*
X146620192Y-91838857D01*
X146447270Y-91915848D01*
X146447265Y-91915851D01*
X146294129Y-92027111D01*
X146167466Y-92167785D01*
X146072821Y-92331715D01*
X146072818Y-92331722D01*
X146014327Y-92511740D01*
X146014326Y-92511744D01*
X145994540Y-92700000D01*
X132505500Y-92700000D01*
X132505500Y-91400000D01*
X133044540Y-91400000D01*
X133064326Y-91588256D01*
X133064327Y-91588259D01*
X133122818Y-91768277D01*
X133122821Y-91768284D01*
X133217467Y-91932216D01*
X133302911Y-92027111D01*
X133344129Y-92072888D01*
X133497265Y-92184148D01*
X133497270Y-92184151D01*
X133670192Y-92261142D01*
X133670197Y-92261144D01*
X133855354Y-92300500D01*
X133855355Y-92300500D01*
X134044644Y-92300500D01*
X134044646Y-92300500D01*
X134229803Y-92261144D01*
X134402730Y-92184151D01*
X134555871Y-92072888D01*
X134682533Y-91932216D01*
X134777179Y-91768284D01*
X134835674Y-91588256D01*
X134855460Y-91400000D01*
X134835674Y-91211744D01*
X134781112Y-91043823D01*
X134777181Y-91031722D01*
X134777180Y-91031721D01*
X134777179Y-91031716D01*
X134682533Y-90867784D01*
X134555871Y-90727112D01*
X134533893Y-90711144D01*
X134402734Y-90615851D01*
X134402729Y-90615848D01*
X134229807Y-90538857D01*
X134229802Y-90538855D01*
X134084001Y-90507865D01*
X134044646Y-90499500D01*
X133855354Y-90499500D01*
X133822897Y-90506398D01*
X133670197Y-90538855D01*
X133670192Y-90538857D01*
X133497270Y-90615848D01*
X133497265Y-90615851D01*
X133344129Y-90727111D01*
X133217466Y-90867785D01*
X133122821Y-91031715D01*
X133122818Y-91031722D01*
X133076951Y-91172888D01*
X133064326Y-91211744D01*
X133044540Y-91400000D01*
X132505500Y-91400000D01*
X132505500Y-87825000D01*
X137644540Y-87825000D01*
X137664326Y-88013256D01*
X137664327Y-88013259D01*
X137722818Y-88193277D01*
X137722821Y-88193284D01*
X137817467Y-88357216D01*
X137827433Y-88368284D01*
X137944129Y-88497888D01*
X138097265Y-88609148D01*
X138097270Y-88609151D01*
X138270191Y-88686142D01*
X138270193Y-88686142D01*
X138270197Y-88686144D01*
X138424152Y-88718867D01*
X138485629Y-88752058D01*
X138519406Y-88813220D01*
X138514754Y-88882935D01*
X138473150Y-88939068D01*
X138424148Y-88961446D01*
X138295197Y-88988855D01*
X138295192Y-88988857D01*
X138122270Y-89065848D01*
X138122265Y-89065851D01*
X137969129Y-89177111D01*
X137842466Y-89317785D01*
X137747821Y-89481715D01*
X137747818Y-89481722D01*
X137696762Y-89638857D01*
X137689326Y-89661744D01*
X137669540Y-89850000D01*
X137689326Y-90038256D01*
X137689327Y-90038259D01*
X137747818Y-90218277D01*
X137747821Y-90218284D01*
X137842467Y-90382216D01*
X137969129Y-90522888D01*
X138122265Y-90634148D01*
X138122270Y-90634151D01*
X138295192Y-90711142D01*
X138295197Y-90711144D01*
X138480354Y-90750500D01*
X138480355Y-90750500D01*
X138669644Y-90750500D01*
X138669646Y-90750500D01*
X138854803Y-90711144D01*
X139027730Y-90634151D01*
X139180871Y-90522888D01*
X139307533Y-90382216D01*
X139402179Y-90218284D01*
X139460674Y-90038256D01*
X139479247Y-89861536D01*
X139505832Y-89796924D01*
X139563129Y-89756939D01*
X139602568Y-89750500D01*
X139647432Y-89750500D01*
X139714471Y-89770185D01*
X139760226Y-89822989D01*
X139770752Y-89861535D01*
X139789326Y-90038256D01*
X139789327Y-90038259D01*
X139847818Y-90218277D01*
X139847821Y-90218284D01*
X139942467Y-90382216D01*
X140069129Y-90522887D01*
X140069129Y-90522888D01*
X140222265Y-90634148D01*
X140222270Y-90634151D01*
X140395192Y-90711142D01*
X140395197Y-90711144D01*
X140580354Y-90750500D01*
X140580355Y-90750500D01*
X140769644Y-90750500D01*
X140769646Y-90750500D01*
X140815563Y-90740740D01*
X140885229Y-90746056D01*
X140940963Y-90788193D01*
X140965068Y-90853773D01*
X140959274Y-90900347D01*
X140939327Y-90961738D01*
X140939327Y-90961740D01*
X140939326Y-90961744D01*
X140919540Y-91150000D01*
X140939326Y-91338256D01*
X140939327Y-91338259D01*
X140997818Y-91518277D01*
X140997821Y-91518284D01*
X141092467Y-91682216D01*
X141198070Y-91799500D01*
X141219129Y-91822888D01*
X141372265Y-91934148D01*
X141372270Y-91934151D01*
X141545192Y-92011142D01*
X141545197Y-92011144D01*
X141730354Y-92050500D01*
X141730355Y-92050500D01*
X141919644Y-92050500D01*
X141919646Y-92050500D01*
X142104803Y-92011144D01*
X142277730Y-91934151D01*
X142430871Y-91822888D01*
X142557533Y-91682216D01*
X142652179Y-91518284D01*
X142710674Y-91338256D01*
X142730460Y-91150000D01*
X142710674Y-90961744D01*
X142652179Y-90781716D01*
X142557533Y-90617784D01*
X142451480Y-90500000D01*
X144644540Y-90500000D01*
X144664326Y-90688256D01*
X144664327Y-90688259D01*
X144722818Y-90868277D01*
X144722821Y-90868284D01*
X144817467Y-91032216D01*
X144944128Y-91172887D01*
X144944129Y-91172888D01*
X145097265Y-91284148D01*
X145097270Y-91284151D01*
X145270192Y-91361142D01*
X145270197Y-91361144D01*
X145455354Y-91400500D01*
X145455355Y-91400500D01*
X145644644Y-91400500D01*
X145644646Y-91400500D01*
X145829803Y-91361144D01*
X146002730Y-91284151D01*
X146155871Y-91172888D01*
X146282533Y-91032216D01*
X146377179Y-90868284D01*
X146435674Y-90688256D01*
X146455460Y-90500000D01*
X146435674Y-90311744D01*
X146377179Y-90131716D01*
X146282533Y-89967784D01*
X146155871Y-89827112D01*
X146155870Y-89827111D01*
X146002734Y-89715851D01*
X146002729Y-89715848D01*
X145829807Y-89638857D01*
X145829802Y-89638855D01*
X145684001Y-89607865D01*
X145644646Y-89599500D01*
X145455354Y-89599500D01*
X145422897Y-89606398D01*
X145270197Y-89638855D01*
X145270192Y-89638857D01*
X145097270Y-89715848D01*
X145097265Y-89715851D01*
X144944129Y-89827111D01*
X144817466Y-89967785D01*
X144722821Y-90131715D01*
X144722818Y-90131722D01*
X144671762Y-90288857D01*
X144664326Y-90311744D01*
X144647577Y-90471101D01*
X144644593Y-90499500D01*
X144644540Y-90500000D01*
X142451480Y-90500000D01*
X142430871Y-90477112D01*
X142430870Y-90477111D01*
X142277734Y-90365851D01*
X142277729Y-90365848D01*
X142104807Y-90288857D01*
X142104802Y-90288855D01*
X141940544Y-90253942D01*
X141919646Y-90249500D01*
X141730354Y-90249500D01*
X141709571Y-90253917D01*
X141684434Y-90259260D01*
X141614767Y-90253942D01*
X141559035Y-90211804D01*
X141534931Y-90146224D01*
X141540724Y-90099653D01*
X141560674Y-90038256D01*
X141580460Y-89850000D01*
X141560674Y-89661744D01*
X141502179Y-89481716D01*
X141407533Y-89317784D01*
X141280871Y-89177112D01*
X141280870Y-89177111D01*
X141127734Y-89065851D01*
X141127729Y-89065848D01*
X140954807Y-88988857D01*
X140954802Y-88988855D01*
X140809000Y-88957865D01*
X140769646Y-88949500D01*
X140702568Y-88949500D01*
X140635529Y-88929815D01*
X140589774Y-88877011D01*
X140579246Y-88838449D01*
X140579141Y-88837449D01*
X140591717Y-88768720D01*
X140639455Y-88717701D01*
X140702463Y-88700500D01*
X140794644Y-88700500D01*
X140794646Y-88700500D01*
X140979803Y-88661144D01*
X141152730Y-88584151D01*
X141305871Y-88472888D01*
X141432533Y-88332216D01*
X141527179Y-88168284D01*
X141581858Y-88000000D01*
X144644540Y-88000000D01*
X144664326Y-88188256D01*
X144664327Y-88188259D01*
X144722818Y-88368277D01*
X144722821Y-88368284D01*
X144817467Y-88532216D01*
X144864227Y-88584148D01*
X144944129Y-88672888D01*
X145097265Y-88784148D01*
X145097270Y-88784151D01*
X145270192Y-88861142D01*
X145270197Y-88861144D01*
X145455354Y-88900500D01*
X145455355Y-88900500D01*
X145644644Y-88900500D01*
X145644646Y-88900500D01*
X145829803Y-88861144D01*
X146002730Y-88784151D01*
X146155871Y-88672888D01*
X146282533Y-88532216D01*
X146377179Y-88368284D01*
X146435674Y-88188256D01*
X146455460Y-88000000D01*
X146435674Y-87811744D01*
X146377179Y-87631716D01*
X146282533Y-87467784D01*
X146155871Y-87327112D01*
X146108624Y-87292785D01*
X146002734Y-87215851D01*
X146002729Y-87215848D01*
X145829807Y-87138857D01*
X145829802Y-87138855D01*
X145684001Y-87107865D01*
X145644646Y-87099500D01*
X145455354Y-87099500D01*
X145422897Y-87106398D01*
X145270197Y-87138855D01*
X145270192Y-87138857D01*
X145097270Y-87215848D01*
X145097265Y-87215851D01*
X144944129Y-87327111D01*
X144817466Y-87467785D01*
X144722821Y-87631715D01*
X144722818Y-87631722D01*
X144672773Y-87785746D01*
X144664326Y-87811744D01*
X144644540Y-88000000D01*
X141581858Y-88000000D01*
X141585674Y-87988256D01*
X141605460Y-87800000D01*
X141585674Y-87611744D01*
X141527179Y-87431716D01*
X141432533Y-87267784D01*
X141305871Y-87127112D01*
X141305870Y-87127111D01*
X141152734Y-87015851D01*
X141152729Y-87015848D01*
X140979807Y-86938857D01*
X140979802Y-86938855D01*
X140834000Y-86907865D01*
X140794646Y-86899500D01*
X140605354Y-86899500D01*
X140572897Y-86906398D01*
X140420197Y-86938855D01*
X140420192Y-86938857D01*
X140247270Y-87015848D01*
X140247265Y-87015851D01*
X140094129Y-87127111D01*
X139967466Y-87267785D01*
X139872821Y-87431715D01*
X139872818Y-87431722D01*
X139814327Y-87611740D01*
X139814326Y-87611744D01*
X139796038Y-87785746D01*
X139794540Y-87800000D01*
X139795858Y-87812540D01*
X139783288Y-87881269D01*
X139735555Y-87932293D01*
X139672537Y-87949500D01*
X139579460Y-87949500D01*
X139512421Y-87929815D01*
X139466666Y-87877011D01*
X139456743Y-87831399D01*
X139456139Y-87831463D01*
X139455561Y-87825964D01*
X139455460Y-87825500D01*
X139455460Y-87825002D01*
X139454150Y-87812540D01*
X139435674Y-87636744D01*
X139377179Y-87456716D01*
X139282533Y-87292784D01*
X139155871Y-87152112D01*
X139155870Y-87152111D01*
X139002734Y-87040851D01*
X139002729Y-87040848D01*
X138829807Y-86963857D01*
X138829802Y-86963855D01*
X138684000Y-86932865D01*
X138644646Y-86924500D01*
X138455354Y-86924500D01*
X138422897Y-86931398D01*
X138270197Y-86963855D01*
X138270192Y-86963857D01*
X138097270Y-87040848D01*
X138097265Y-87040851D01*
X137944129Y-87152111D01*
X137817466Y-87292785D01*
X137722821Y-87456715D01*
X137722818Y-87456722D01*
X137664327Y-87636740D01*
X137664326Y-87636744D01*
X137644540Y-87825000D01*
X132505500Y-87825000D01*
X132505500Y-87785746D01*
X132525185Y-87718707D01*
X132541819Y-87698065D01*
X133714384Y-86525500D01*
X134774603Y-85465282D01*
X142309823Y-85465282D01*
X142329609Y-85653538D01*
X142329610Y-85653541D01*
X142388101Y-85833559D01*
X142388104Y-85833566D01*
X142482750Y-85997498D01*
X142609411Y-86138170D01*
X142609412Y-86138170D01*
X142762548Y-86249430D01*
X142762553Y-86249433D01*
X142935475Y-86326424D01*
X142935480Y-86326426D01*
X143120637Y-86365782D01*
X143120638Y-86365782D01*
X143309927Y-86365782D01*
X143309929Y-86365782D01*
X143495086Y-86326426D01*
X143668013Y-86249433D01*
X143821154Y-86138170D01*
X143947816Y-85997498D01*
X144042462Y-85833566D01*
X144100957Y-85653538D01*
X144120743Y-85465282D01*
X144100957Y-85277026D01*
X144042462Y-85096998D01*
X143947816Y-84933066D01*
X143821154Y-84792394D01*
X143821153Y-84792393D01*
X143668017Y-84681133D01*
X143668012Y-84681130D01*
X143495090Y-84604139D01*
X143495085Y-84604137D01*
X143349284Y-84573147D01*
X143309929Y-84564782D01*
X143120637Y-84564782D01*
X143088180Y-84571680D01*
X142935480Y-84604137D01*
X142935475Y-84604139D01*
X142762553Y-84681130D01*
X142762548Y-84681133D01*
X142609412Y-84792393D01*
X142482749Y-84933067D01*
X142388104Y-85096997D01*
X142388101Y-85097004D01*
X142333827Y-85264043D01*
X142329609Y-85277026D01*
X142309823Y-85465282D01*
X134774603Y-85465282D01*
X134955697Y-85284188D01*
X134973792Y-85264043D01*
X134973797Y-85264035D01*
X134973803Y-85264030D01*
X134998917Y-85232864D01*
X134998922Y-85232858D01*
X135030567Y-85188974D01*
X135090338Y-85058097D01*
X135110023Y-84991058D01*
X135110024Y-84991054D01*
X135130500Y-84848638D01*
X135130500Y-84644500D01*
X135150185Y-84577461D01*
X135202989Y-84531706D01*
X135254500Y-84520500D01*
X136080743Y-84520500D01*
X136232439Y-84505074D01*
X136426579Y-84444162D01*
X136426580Y-84444161D01*
X136426588Y-84444159D01*
X136604502Y-84345409D01*
X136740203Y-84228912D01*
X136803888Y-84200181D01*
X136873000Y-84210443D01*
X136893856Y-84222681D01*
X136972265Y-84279648D01*
X136972270Y-84279651D01*
X137145192Y-84356642D01*
X137145197Y-84356644D01*
X137330354Y-84396000D01*
X137330355Y-84396000D01*
X137519644Y-84396000D01*
X137519646Y-84396000D01*
X137704803Y-84356644D01*
X137877730Y-84279651D01*
X138030871Y-84168388D01*
X138157533Y-84027716D01*
X138224842Y-83911133D01*
X145367470Y-83911133D01*
X145387256Y-84099389D01*
X145387257Y-84099392D01*
X145445748Y-84279410D01*
X145445749Y-84279412D01*
X145445751Y-84279417D01*
X145483852Y-84345410D01*
X145492148Y-84359779D01*
X145508620Y-84427679D01*
X145492148Y-84483776D01*
X145458377Y-84542269D01*
X145458376Y-84542273D01*
X145413258Y-84681133D01*
X145399882Y-84722300D01*
X145380096Y-84910556D01*
X145399882Y-85098812D01*
X145399883Y-85098815D01*
X145458374Y-85278833D01*
X145458377Y-85278840D01*
X145553023Y-85442772D01*
X145666614Y-85568927D01*
X145679685Y-85583444D01*
X145832821Y-85694704D01*
X145832826Y-85694707D01*
X146005748Y-85771698D01*
X146005753Y-85771700D01*
X146190910Y-85811056D01*
X146190911Y-85811056D01*
X146380200Y-85811056D01*
X146380202Y-85811056D01*
X146565359Y-85771700D01*
X146738286Y-85694707D01*
X146879091Y-85592405D01*
X146944896Y-85568927D01*
X147012950Y-85584752D01*
X147061645Y-85634858D01*
X147075295Y-85679761D01*
X147089326Y-85813256D01*
X147089327Y-85813259D01*
X147147818Y-85993277D01*
X147147821Y-85993284D01*
X147242467Y-86157216D01*
X147325497Y-86249430D01*
X147369129Y-86297888D01*
X147522265Y-86409148D01*
X147522270Y-86409151D01*
X147695192Y-86486142D01*
X147695197Y-86486144D01*
X147880354Y-86525500D01*
X147880355Y-86525500D01*
X148069644Y-86525500D01*
X148069646Y-86525500D01*
X148254803Y-86486144D01*
X148427730Y-86409151D01*
X148580871Y-86297888D01*
X148707533Y-86157216D01*
X148802179Y-85993284D01*
X148860674Y-85813256D01*
X148880460Y-85625000D01*
X148860674Y-85436744D01*
X148802179Y-85256716D01*
X148707533Y-85092784D01*
X148580871Y-84952112D01*
X148579068Y-84950802D01*
X148427734Y-84840851D01*
X148427729Y-84840848D01*
X148254807Y-84763857D01*
X148254802Y-84763855D01*
X148109000Y-84732865D01*
X148069646Y-84724500D01*
X147880354Y-84724500D01*
X147847897Y-84731398D01*
X147695197Y-84763855D01*
X147695192Y-84763857D01*
X147522271Y-84840848D01*
X147381465Y-84943149D01*
X147315658Y-84966628D01*
X147247605Y-84950802D01*
X147198910Y-84900696D01*
X147185260Y-84855796D01*
X147171230Y-84722300D01*
X147112735Y-84542272D01*
X147066335Y-84461906D01*
X147049864Y-84394011D01*
X147066335Y-84337914D01*
X147100109Y-84279417D01*
X147158604Y-84099389D01*
X147178390Y-83911133D01*
X147158604Y-83722877D01*
X147100109Y-83542849D01*
X147005463Y-83378917D01*
X146878801Y-83238245D01*
X146878800Y-83238244D01*
X146725664Y-83126984D01*
X146725659Y-83126981D01*
X146552737Y-83049990D01*
X146552732Y-83049988D01*
X146406930Y-83018998D01*
X146367576Y-83010633D01*
X146178284Y-83010633D01*
X146145827Y-83017531D01*
X145993127Y-83049988D01*
X145993122Y-83049990D01*
X145820200Y-83126981D01*
X145820195Y-83126984D01*
X145667059Y-83238244D01*
X145540396Y-83378918D01*
X145445751Y-83542848D01*
X145445748Y-83542855D01*
X145399967Y-83683756D01*
X145387256Y-83722877D01*
X145367470Y-83911133D01*
X138224842Y-83911133D01*
X138252179Y-83863784D01*
X138310674Y-83683756D01*
X138330460Y-83495500D01*
X138310674Y-83307244D01*
X138252179Y-83127216D01*
X138157533Y-82963284D01*
X138030871Y-82822612D01*
X138030870Y-82822611D01*
X137877734Y-82711351D01*
X137877729Y-82711348D01*
X137704807Y-82634357D01*
X137704802Y-82634355D01*
X137559000Y-82603365D01*
X137519646Y-82595000D01*
X137330354Y-82595000D01*
X137297897Y-82601898D01*
X137145197Y-82634355D01*
X137145192Y-82634357D01*
X136972270Y-82711348D01*
X136972265Y-82711351D01*
X136864649Y-82789539D01*
X136798843Y-82813019D01*
X136730789Y-82797193D01*
X136701889Y-82774652D01*
X136685061Y-82756948D01*
X136518050Y-82640705D01*
X136331056Y-82560459D01*
X136131741Y-82519500D01*
X135580591Y-82519500D01*
X135513552Y-82499815D01*
X135467797Y-82447011D01*
X135457853Y-82377853D01*
X135466030Y-82348047D01*
X135467879Y-82343580D01*
X135510687Y-82240236D01*
X135530466Y-82090000D01*
X135510687Y-81939764D01*
X135452698Y-81799767D01*
X135360451Y-81679549D01*
X135240233Y-81587302D01*
X135233292Y-81584427D01*
X135207043Y-81573553D01*
X135152641Y-81529711D01*
X135130579Y-81463416D01*
X135130500Y-81458994D01*
X135130500Y-80350000D01*
X138044540Y-80350000D01*
X138064326Y-80538256D01*
X138064327Y-80538259D01*
X138122818Y-80718277D01*
X138122821Y-80718284D01*
X138217467Y-80882216D01*
X138249937Y-80918277D01*
X138344129Y-81022888D01*
X138497265Y-81134148D01*
X138497270Y-81134151D01*
X138670192Y-81211142D01*
X138670197Y-81211144D01*
X138855354Y-81250500D01*
X138855355Y-81250500D01*
X139044644Y-81250500D01*
X139044646Y-81250500D01*
X139229803Y-81211144D01*
X139402730Y-81134151D01*
X139555871Y-81022888D01*
X139682533Y-80882216D01*
X139777179Y-80718284D01*
X139835674Y-80538256D01*
X139855460Y-80350000D01*
X139835674Y-80161744D01*
X139777179Y-79981716D01*
X139682533Y-79817784D01*
X139666520Y-79800000D01*
X143394540Y-79800000D01*
X143414326Y-79988256D01*
X143414327Y-79988259D01*
X143472818Y-80168277D01*
X143472821Y-80168284D01*
X143567467Y-80332216D01*
X143641525Y-80414465D01*
X143694129Y-80472888D01*
X143847265Y-80584148D01*
X143847270Y-80584151D01*
X144020192Y-80661142D01*
X144020197Y-80661144D01*
X144205354Y-80700500D01*
X144205355Y-80700500D01*
X144394644Y-80700500D01*
X144394646Y-80700500D01*
X144579803Y-80661144D01*
X144752730Y-80584151D01*
X144905871Y-80472888D01*
X145032533Y-80332216D01*
X145032537Y-80332207D01*
X145035143Y-80328623D01*
X145090471Y-80285955D01*
X145160084Y-80279973D01*
X145221881Y-80312576D01*
X145256240Y-80373414D01*
X145258784Y-80414464D01*
X145244540Y-80550000D01*
X145264326Y-80738256D01*
X145264327Y-80738259D01*
X145322818Y-80918277D01*
X145322821Y-80918284D01*
X145417467Y-81082216D01*
X145464227Y-81134148D01*
X145544129Y-81222888D01*
X145697265Y-81334148D01*
X145697270Y-81334151D01*
X145870192Y-81411142D01*
X145870197Y-81411144D01*
X146055354Y-81450500D01*
X146055355Y-81450500D01*
X146244644Y-81450500D01*
X146244646Y-81450500D01*
X146429803Y-81411144D01*
X146602730Y-81334151D01*
X146755871Y-81222888D01*
X146882533Y-81082216D01*
X146977179Y-80918284D01*
X147035674Y-80738256D01*
X147055460Y-80550000D01*
X147035674Y-80361744D01*
X146977179Y-80181716D01*
X146882533Y-80017784D01*
X146755871Y-79877112D01*
X146748692Y-79871896D01*
X146706029Y-79816565D01*
X146700053Y-79746952D01*
X146732660Y-79685158D01*
X146748691Y-79671267D01*
X146780871Y-79647888D01*
X146907533Y-79507216D01*
X147002179Y-79343284D01*
X147060674Y-79163256D01*
X147080460Y-78975000D01*
X147060674Y-78786744D01*
X147002179Y-78606716D01*
X146907533Y-78442784D01*
X146780871Y-78302112D01*
X146780870Y-78302111D01*
X146627734Y-78190851D01*
X146627729Y-78190848D01*
X146454807Y-78113857D01*
X146454802Y-78113855D01*
X146309001Y-78082865D01*
X146269646Y-78074500D01*
X146080354Y-78074500D01*
X146047897Y-78081398D01*
X145895197Y-78113855D01*
X145895192Y-78113857D01*
X145722270Y-78190848D01*
X145722265Y-78190851D01*
X145569129Y-78302111D01*
X145442466Y-78442785D01*
X145347821Y-78606715D01*
X145347818Y-78606722D01*
X145289327Y-78786740D01*
X145289326Y-78786744D01*
X145269540Y-78975000D01*
X145289326Y-79163256D01*
X145289327Y-79163259D01*
X145332968Y-79297574D01*
X145334358Y-79346252D01*
X145362320Y-79369116D01*
X145367345Y-79377100D01*
X145442467Y-79507216D01*
X145536581Y-79611740D01*
X145569128Y-79647887D01*
X145576304Y-79653101D01*
X145618969Y-79708432D01*
X145624947Y-79778045D01*
X145592340Y-79839840D01*
X145576304Y-79853735D01*
X145544128Y-79877112D01*
X145417465Y-80017786D01*
X145414847Y-80021389D01*
X145359513Y-80064050D01*
X145289899Y-80070023D01*
X145228107Y-80037412D01*
X145193755Y-79976570D01*
X145191214Y-79935540D01*
X145205460Y-79800000D01*
X145185674Y-79611744D01*
X145142031Y-79477425D01*
X145140640Y-79428747D01*
X145112678Y-79405883D01*
X145107663Y-79397913D01*
X145032533Y-79267784D01*
X144905871Y-79127112D01*
X144905870Y-79127111D01*
X144752734Y-79015851D01*
X144752729Y-79015848D01*
X144579807Y-78938857D01*
X144579802Y-78938855D01*
X144434000Y-78907865D01*
X144394646Y-78899500D01*
X144205354Y-78899500D01*
X144172897Y-78906398D01*
X144020197Y-78938855D01*
X144020192Y-78938857D01*
X143847270Y-79015848D01*
X143847265Y-79015851D01*
X143694129Y-79127111D01*
X143567466Y-79267785D01*
X143472821Y-79431715D01*
X143472818Y-79431722D01*
X143414327Y-79611740D01*
X143414326Y-79611744D01*
X143399122Y-79756402D01*
X143396848Y-79778045D01*
X143394540Y-79800000D01*
X139666520Y-79800000D01*
X139555871Y-79677112D01*
X139555870Y-79677111D01*
X139402734Y-79565851D01*
X139402729Y-79565848D01*
X139229807Y-79488857D01*
X139229802Y-79488855D01*
X139084000Y-79457865D01*
X139044646Y-79449500D01*
X138855354Y-79449500D01*
X138822897Y-79456398D01*
X138670197Y-79488855D01*
X138670192Y-79488857D01*
X138497270Y-79565848D01*
X138497265Y-79565851D01*
X138344129Y-79677111D01*
X138217466Y-79817785D01*
X138122821Y-79981715D01*
X138122818Y-79981722D01*
X138064327Y-80161740D01*
X138064326Y-80161744D01*
X138044540Y-80350000D01*
X135130500Y-80350000D01*
X135130500Y-78425000D01*
X139569540Y-78425000D01*
X139589326Y-78613256D01*
X139589327Y-78613259D01*
X139647818Y-78793277D01*
X139647821Y-78793284D01*
X139742467Y-78957216D01*
X139869129Y-79097887D01*
X139869129Y-79097888D01*
X140022265Y-79209148D01*
X140022270Y-79209151D01*
X140195192Y-79286142D01*
X140195197Y-79286144D01*
X140380354Y-79325500D01*
X140380355Y-79325500D01*
X140569644Y-79325500D01*
X140569646Y-79325500D01*
X140754803Y-79286144D01*
X140927730Y-79209151D01*
X141080871Y-79097888D01*
X141207533Y-78957216D01*
X141302179Y-78793284D01*
X141360674Y-78613256D01*
X141380460Y-78425000D01*
X141360674Y-78236744D01*
X141302179Y-78056716D01*
X141207533Y-77892784D01*
X141080871Y-77752112D01*
X141058893Y-77736144D01*
X140927734Y-77640851D01*
X140927729Y-77640848D01*
X140754807Y-77563857D01*
X140754802Y-77563855D01*
X140609001Y-77532865D01*
X140569646Y-77524500D01*
X140380354Y-77524500D01*
X140347897Y-77531398D01*
X140195197Y-77563855D01*
X140195192Y-77563857D01*
X140022270Y-77640848D01*
X140022265Y-77640851D01*
X139869129Y-77752111D01*
X139742466Y-77892785D01*
X139647821Y-78056715D01*
X139647818Y-78056722D01*
X139600822Y-78201363D01*
X139589326Y-78236744D01*
X139569540Y-78425000D01*
X135130500Y-78425000D01*
X135130500Y-78137821D01*
X135130344Y-78134923D01*
X135129051Y-78110784D01*
X135129049Y-78110765D01*
X135124769Y-78070961D01*
X135116114Y-78017555D01*
X135116114Y-78017552D01*
X135106543Y-77991891D01*
X135065832Y-77882743D01*
X135032347Y-77821420D01*
X134946123Y-77706239D01*
X134946117Y-77706233D01*
X134946113Y-77706228D01*
X134234201Y-76994316D01*
X134234200Y-76994315D01*
X134234188Y-76994303D01*
X134214043Y-76976208D01*
X134214030Y-76976196D01*
X134182864Y-76951082D01*
X134138974Y-76919433D01*
X134008098Y-76859662D01*
X133941061Y-76839978D01*
X133941063Y-76839978D01*
X133941058Y-76839977D01*
X133941054Y-76839976D01*
X133798638Y-76819500D01*
X132812823Y-76819500D01*
X132812822Y-76819500D01*
X132785782Y-76820949D01*
X132785765Y-76820950D01*
X132745961Y-76825230D01*
X132692555Y-76833885D01*
X132692552Y-76833885D01*
X132557747Y-76884166D01*
X132557744Y-76884167D01*
X132557743Y-76884168D01*
X132555304Y-76885500D01*
X132496422Y-76917651D01*
X132381240Y-77003876D01*
X132381228Y-77003886D01*
X131619316Y-77765798D01*
X131619300Y-77765815D01*
X131601200Y-77785965D01*
X131576074Y-77817146D01*
X131544437Y-77861019D01*
X131544436Y-77861020D01*
X131484666Y-77991891D01*
X131465297Y-78057849D01*
X131465039Y-78058671D01*
X131464974Y-78058946D01*
X131446010Y-78190849D01*
X131444499Y-78201361D01*
X131444499Y-80350000D01*
X131444500Y-82395500D01*
X131424815Y-82462539D01*
X131372011Y-82508294D01*
X131320500Y-82519500D01*
X130949257Y-82519500D01*
X130797560Y-82534925D01*
X130603420Y-82595837D01*
X130603405Y-82595844D01*
X130425500Y-82694589D01*
X130425495Y-82694592D01*
X130271106Y-82827132D01*
X130271104Y-82827134D01*
X130146554Y-82988037D01*
X130146553Y-82988040D01*
X130056940Y-83170728D01*
X130005937Y-83367714D01*
X129995631Y-83570936D01*
X130026442Y-83772063D01*
X130026445Y-83772075D01*
X130097111Y-83962881D01*
X130097115Y-83962888D01*
X130204745Y-84135567D01*
X130204747Y-84135569D01*
X130204748Y-84135571D01*
X130344941Y-84283053D01*
X130455177Y-84359779D01*
X130511949Y-84399294D01*
X130511950Y-84399294D01*
X130511951Y-84399295D01*
X130698942Y-84479540D01*
X130898259Y-84520500D01*
X131320499Y-84520500D01*
X131387538Y-84540185D01*
X131433293Y-84592989D01*
X131444499Y-84644500D01*
X131444499Y-85614252D01*
X131424814Y-85681291D01*
X131408180Y-85701933D01*
X130186593Y-86923519D01*
X130186585Y-86923527D01*
X130168498Y-86943664D01*
X130143361Y-86974860D01*
X130111725Y-87018732D01*
X130051952Y-87149611D01*
X130051218Y-87152111D01*
X130032267Y-87216652D01*
X130032266Y-87216656D01*
X130021321Y-87292785D01*
X130011790Y-87359073D01*
X130011790Y-95754468D01*
X130013239Y-95781507D01*
X130013240Y-95781524D01*
X130017520Y-95821328D01*
X130026175Y-95874734D01*
X130026175Y-95874737D01*
X130076456Y-96009542D01*
X130076458Y-96009547D01*
X130109943Y-96070870D01*
X130196167Y-96186051D01*
X130196171Y-96186055D01*
X130196176Y-96186061D01*
X131763180Y-97753064D01*
X131796665Y-97814387D01*
X131799499Y-97840745D01*
X131799499Y-98960257D01*
X131779814Y-99027296D01*
X131763180Y-99047938D01*
X131333355Y-99477763D01*
X131272032Y-99511248D01*
X131202340Y-99506264D01*
X131146407Y-99464392D01*
X131121990Y-99398928D01*
X131122352Y-99377137D01*
X131130460Y-99300000D01*
X131110674Y-99111744D01*
X131052179Y-98931716D01*
X130957533Y-98767784D01*
X130830871Y-98627112D01*
X130830870Y-98627111D01*
X130677734Y-98515851D01*
X130677729Y-98515848D01*
X130504807Y-98438857D01*
X130504802Y-98438855D01*
X130359001Y-98407865D01*
X130319646Y-98399500D01*
X130130354Y-98399500D01*
X130097897Y-98406398D01*
X129945197Y-98438855D01*
X129945192Y-98438857D01*
X129772270Y-98515848D01*
X129772265Y-98515851D01*
X129619129Y-98627111D01*
X129492466Y-98767785D01*
X129397821Y-98931715D01*
X129397818Y-98931722D01*
X129339327Y-99111740D01*
X129339326Y-99111744D01*
X129319540Y-99300000D01*
X129339326Y-99488256D01*
X129339327Y-99488259D01*
X129397818Y-99668277D01*
X129397821Y-99668284D01*
X129492467Y-99832216D01*
X129619128Y-99972887D01*
X129619129Y-99972888D01*
X129772265Y-100084148D01*
X129772270Y-100084151D01*
X129945192Y-100161142D01*
X129945197Y-100161144D01*
X130130354Y-100200500D01*
X130130355Y-100200500D01*
X130311258Y-100200500D01*
X130378297Y-100220185D01*
X130424052Y-100272989D01*
X130433996Y-100342147D01*
X130404971Y-100405703D01*
X130398939Y-100412181D01*
X130222939Y-100588181D01*
X130161616Y-100621666D01*
X130135258Y-100624500D01*
X130005354Y-100624500D01*
X129972897Y-100631398D01*
X129820197Y-100663855D01*
X129820192Y-100663857D01*
X129647270Y-100740848D01*
X129647265Y-100740851D01*
X129494129Y-100852111D01*
X129367466Y-100992785D01*
X129272821Y-101156715D01*
X129272819Y-101156719D01*
X129229930Y-101288717D01*
X129190492Y-101346392D01*
X129126133Y-101373590D01*
X129057287Y-101361675D01*
X129005811Y-101314430D01*
X128988000Y-101250401D01*
X128988000Y-72408486D01*
X128988390Y-72401543D01*
X128989058Y-72395603D01*
X128990972Y-72378618D01*
X129001434Y-72299153D01*
X129007326Y-72274409D01*
X129019286Y-72240229D01*
X129020493Y-72237069D01*
X129042972Y-72182799D01*
X129052524Y-72164309D01*
X129074413Y-72129473D01*
X129077693Y-72124758D01*
X129114508Y-72076779D01*
X129119827Y-72070714D01*
X129153214Y-72037327D01*
X129159279Y-72032008D01*
X129207258Y-71995193D01*
X129211973Y-71991913D01*
X129246809Y-71970024D01*
X129265299Y-71960472D01*
X129319569Y-71937993D01*
X129322729Y-71936786D01*
X129356909Y-71924826D01*
X129381656Y-71918934D01*
X129461093Y-71908475D01*
X129484043Y-71905889D01*
X129490981Y-71905500D01*
X130080158Y-71905500D01*
X130147197Y-71925185D01*
G37*
%TD.AperFunction*%
%TD*%
%TA.AperFunction,Conductor*%
%TO.N,+5V*%
G36*
X133865677Y-77344685D02*
G01*
X133886319Y-77361319D01*
X134588681Y-78063681D01*
X134622166Y-78125004D01*
X134625000Y-78151362D01*
X134625000Y-81552829D01*
X134605315Y-81619868D01*
X134576487Y-81651204D01*
X134539553Y-81679545D01*
X134539551Y-81679547D01*
X134539549Y-81679549D01*
X134447302Y-81799767D01*
X134447300Y-81799770D01*
X134389313Y-81939763D01*
X134389312Y-81939765D01*
X134369534Y-82089999D01*
X134369534Y-82090000D01*
X134389312Y-82240234D01*
X134389313Y-82240236D01*
X134447300Y-82380230D01*
X134447302Y-82380234D01*
X134501491Y-82450853D01*
X134526686Y-82516022D01*
X134512648Y-82584467D01*
X134463834Y-82634457D01*
X134463294Y-82634759D01*
X134355496Y-82694592D01*
X134355495Y-82694592D01*
X134201106Y-82827132D01*
X134201104Y-82827134D01*
X134076554Y-82988037D01*
X134076553Y-82988040D01*
X133986940Y-83170728D01*
X133935937Y-83367714D01*
X133925631Y-83570936D01*
X133956442Y-83772063D01*
X133956445Y-83772075D01*
X134027111Y-83962881D01*
X134027115Y-83962888D01*
X134134745Y-84135567D01*
X134134747Y-84135569D01*
X134134748Y-84135571D01*
X134274941Y-84283053D01*
X134441951Y-84399295D01*
X134549902Y-84445621D01*
X134603744Y-84490146D01*
X134624967Y-84556714D01*
X134625000Y-84559570D01*
X134625000Y-84848638D01*
X134605315Y-84915677D01*
X134588681Y-84936319D01*
X132000000Y-87524999D01*
X132000000Y-87525000D01*
X132000000Y-94775000D01*
X133100000Y-95875000D01*
X138116157Y-95875000D01*
X138183196Y-95894685D01*
X138189028Y-95898673D01*
X138216402Y-95918561D01*
X138231195Y-95931195D01*
X138613681Y-96313681D01*
X138647166Y-96375004D01*
X138650000Y-96401362D01*
X138650000Y-96948638D01*
X138630315Y-97015677D01*
X138613681Y-97036319D01*
X138136319Y-97513681D01*
X138074996Y-97547166D01*
X138048638Y-97550000D01*
X132326362Y-97550000D01*
X132259323Y-97530315D01*
X132238681Y-97513681D01*
X130553609Y-95828609D01*
X130520124Y-95767286D01*
X130517290Y-95740928D01*
X130517290Y-87359072D01*
X130536975Y-87292033D01*
X130553609Y-87271391D01*
X130553609Y-87271390D01*
X131950000Y-85875000D01*
X131949999Y-84543012D01*
X131969685Y-84475973D01*
X132013823Y-84434593D01*
X132047113Y-84416114D01*
X132174502Y-84345409D01*
X132328895Y-84212866D01*
X132453448Y-84051958D01*
X132543060Y-83869271D01*
X132594063Y-83672285D01*
X132604369Y-83469064D01*
X132573556Y-83267929D01*
X132502886Y-83077113D01*
X132395252Y-82904429D01*
X132255059Y-82756947D01*
X132088049Y-82640705D01*
X132088050Y-82640705D01*
X132088048Y-82640704D01*
X132025098Y-82613690D01*
X131971255Y-82569163D01*
X131950032Y-82502595D01*
X131950000Y-82499826D01*
X131949999Y-78201361D01*
X131969685Y-78134323D01*
X131986319Y-78113681D01*
X132738681Y-77361319D01*
X132800004Y-77327834D01*
X132826362Y-77325000D01*
X133798638Y-77325000D01*
X133865677Y-77344685D01*
G37*
%TD.AperFunction*%
%TD*%
M02*
