%TF.GenerationSoftware,KiCad,Pcbnew,7.0.5-0*%
%TF.CreationDate,2023-07-31T19:13:09-04:00*%
%TF.ProjectId,mula,6d756c61-2e6b-4696-9361-645f70636258,rev?*%
%TF.SameCoordinates,Original*%
%TF.FileFunction,Drillmap*%
%TF.FilePolarity,Positive*%
%FSLAX45Y45*%
G04 Gerber Fmt 4.5, Leading zero omitted, Abs format (unit mm)*
G04 Created by KiCad (PCBNEW 7.0.5-0) date 2023-07-31 19:13:09*
%MOMM*%
%LPD*%
G01*
G04 APERTURE LIST*
%ADD10C,0.200000*%
%ADD11C,0.065000*%
G04 APERTURE END LIST*
D10*
D11*
X13462500Y-7598500D02*
X13527500Y-7663500D01*
X13527500Y-7598500D02*
X13462500Y-7663500D01*
X13462500Y-8176500D02*
X13527500Y-8241500D01*
X13527500Y-8176500D02*
X13462500Y-8241500D01*
D10*
X13157027Y-11704484D02*
X13157027Y-11504484D01*
X13157027Y-11504484D02*
X13204646Y-11504484D01*
X13204646Y-11504484D02*
X13233217Y-11514008D01*
X13233217Y-11514008D02*
X13252265Y-11533055D01*
X13252265Y-11533055D02*
X13261789Y-11552103D01*
X13261789Y-11552103D02*
X13271312Y-11590198D01*
X13271312Y-11590198D02*
X13271312Y-11618769D01*
X13271312Y-11618769D02*
X13261789Y-11656865D01*
X13261789Y-11656865D02*
X13252265Y-11675912D01*
X13252265Y-11675912D02*
X13233217Y-11694960D01*
X13233217Y-11694960D02*
X13204646Y-11704484D01*
X13204646Y-11704484D02*
X13157027Y-11704484D01*
X13357027Y-11704484D02*
X13357027Y-11571150D01*
X13357027Y-11609246D02*
X13366551Y-11590198D01*
X13366551Y-11590198D02*
X13376074Y-11580674D01*
X13376074Y-11580674D02*
X13395122Y-11571150D01*
X13395122Y-11571150D02*
X13414170Y-11571150D01*
X13480836Y-11704484D02*
X13480836Y-11571150D01*
X13480836Y-11504484D02*
X13471312Y-11514008D01*
X13471312Y-11514008D02*
X13480836Y-11523531D01*
X13480836Y-11523531D02*
X13490360Y-11514008D01*
X13490360Y-11514008D02*
X13480836Y-11504484D01*
X13480836Y-11504484D02*
X13480836Y-11523531D01*
X13604646Y-11704484D02*
X13585598Y-11694960D01*
X13585598Y-11694960D02*
X13576074Y-11675912D01*
X13576074Y-11675912D02*
X13576074Y-11504484D01*
X13709408Y-11704484D02*
X13690360Y-11694960D01*
X13690360Y-11694960D02*
X13680836Y-11675912D01*
X13680836Y-11675912D02*
X13680836Y-11504484D01*
X13937979Y-11704484D02*
X13937979Y-11504484D01*
X13937979Y-11504484D02*
X14004646Y-11647341D01*
X14004646Y-11647341D02*
X14071312Y-11504484D01*
X14071312Y-11504484D02*
X14071312Y-11704484D01*
X14252265Y-11704484D02*
X14252265Y-11599722D01*
X14252265Y-11599722D02*
X14242741Y-11580674D01*
X14242741Y-11580674D02*
X14223693Y-11571150D01*
X14223693Y-11571150D02*
X14185598Y-11571150D01*
X14185598Y-11571150D02*
X14166551Y-11580674D01*
X14252265Y-11694960D02*
X14233217Y-11704484D01*
X14233217Y-11704484D02*
X14185598Y-11704484D01*
X14185598Y-11704484D02*
X14166551Y-11694960D01*
X14166551Y-11694960D02*
X14157027Y-11675912D01*
X14157027Y-11675912D02*
X14157027Y-11656865D01*
X14157027Y-11656865D02*
X14166551Y-11637817D01*
X14166551Y-11637817D02*
X14185598Y-11628293D01*
X14185598Y-11628293D02*
X14233217Y-11628293D01*
X14233217Y-11628293D02*
X14252265Y-11618769D01*
X14347503Y-11571150D02*
X14347503Y-11771150D01*
X14347503Y-11580674D02*
X14366551Y-11571150D01*
X14366551Y-11571150D02*
X14404646Y-11571150D01*
X14404646Y-11571150D02*
X14423693Y-11580674D01*
X14423693Y-11580674D02*
X14433217Y-11590198D01*
X14433217Y-11590198D02*
X14442741Y-11609246D01*
X14442741Y-11609246D02*
X14442741Y-11666388D01*
X14442741Y-11666388D02*
X14433217Y-11685436D01*
X14433217Y-11685436D02*
X14423693Y-11694960D01*
X14423693Y-11694960D02*
X14404646Y-11704484D01*
X14404646Y-11704484D02*
X14366551Y-11704484D01*
X14366551Y-11704484D02*
X14347503Y-11694960D01*
X14528455Y-11685436D02*
X14537979Y-11694960D01*
X14537979Y-11694960D02*
X14528455Y-11704484D01*
X14528455Y-11704484D02*
X14518932Y-11694960D01*
X14518932Y-11694960D02*
X14528455Y-11685436D01*
X14528455Y-11685436D02*
X14528455Y-11704484D01*
X14528455Y-11580674D02*
X14537979Y-11590198D01*
X14537979Y-11590198D02*
X14528455Y-11599722D01*
X14528455Y-11599722D02*
X14518932Y-11590198D01*
X14518932Y-11590198D02*
X14528455Y-11580674D01*
X14528455Y-11580674D02*
X14528455Y-11599722D01*
D11*
X12831250Y-12000500D02*
X12896250Y-12065500D01*
X12896250Y-12000500D02*
X12831250Y-12065500D01*
D10*
X13195122Y-11924484D02*
X13214170Y-11924484D01*
X13214170Y-11924484D02*
X13233217Y-11934008D01*
X13233217Y-11934008D02*
X13242741Y-11943531D01*
X13242741Y-11943531D02*
X13252265Y-11962579D01*
X13252265Y-11962579D02*
X13261789Y-12000674D01*
X13261789Y-12000674D02*
X13261789Y-12048293D01*
X13261789Y-12048293D02*
X13252265Y-12086388D01*
X13252265Y-12086388D02*
X13242741Y-12105436D01*
X13242741Y-12105436D02*
X13233217Y-12114960D01*
X13233217Y-12114960D02*
X13214170Y-12124484D01*
X13214170Y-12124484D02*
X13195122Y-12124484D01*
X13195122Y-12124484D02*
X13176074Y-12114960D01*
X13176074Y-12114960D02*
X13166551Y-12105436D01*
X13166551Y-12105436D02*
X13157027Y-12086388D01*
X13157027Y-12086388D02*
X13147503Y-12048293D01*
X13147503Y-12048293D02*
X13147503Y-12000674D01*
X13147503Y-12000674D02*
X13157027Y-11962579D01*
X13157027Y-11962579D02*
X13166551Y-11943531D01*
X13166551Y-11943531D02*
X13176074Y-11934008D01*
X13176074Y-11934008D02*
X13195122Y-11924484D01*
X13347503Y-12105436D02*
X13357027Y-12114960D01*
X13357027Y-12114960D02*
X13347503Y-12124484D01*
X13347503Y-12124484D02*
X13337979Y-12114960D01*
X13337979Y-12114960D02*
X13347503Y-12105436D01*
X13347503Y-12105436D02*
X13347503Y-12124484D01*
X13528455Y-11924484D02*
X13490360Y-11924484D01*
X13490360Y-11924484D02*
X13471312Y-11934008D01*
X13471312Y-11934008D02*
X13461789Y-11943531D01*
X13461789Y-11943531D02*
X13442741Y-11972103D01*
X13442741Y-11972103D02*
X13433217Y-12010198D01*
X13433217Y-12010198D02*
X13433217Y-12086388D01*
X13433217Y-12086388D02*
X13442741Y-12105436D01*
X13442741Y-12105436D02*
X13452265Y-12114960D01*
X13452265Y-12114960D02*
X13471312Y-12124484D01*
X13471312Y-12124484D02*
X13509408Y-12124484D01*
X13509408Y-12124484D02*
X13528455Y-12114960D01*
X13528455Y-12114960D02*
X13537979Y-12105436D01*
X13537979Y-12105436D02*
X13547503Y-12086388D01*
X13547503Y-12086388D02*
X13547503Y-12038769D01*
X13547503Y-12038769D02*
X13537979Y-12019722D01*
X13537979Y-12019722D02*
X13528455Y-12010198D01*
X13528455Y-12010198D02*
X13509408Y-12000674D01*
X13509408Y-12000674D02*
X13471312Y-12000674D01*
X13471312Y-12000674D02*
X13452265Y-12010198D01*
X13452265Y-12010198D02*
X13442741Y-12019722D01*
X13442741Y-12019722D02*
X13433217Y-12038769D01*
X13728455Y-11924484D02*
X13633217Y-11924484D01*
X13633217Y-11924484D02*
X13623693Y-12019722D01*
X13623693Y-12019722D02*
X13633217Y-12010198D01*
X13633217Y-12010198D02*
X13652265Y-12000674D01*
X13652265Y-12000674D02*
X13699884Y-12000674D01*
X13699884Y-12000674D02*
X13718932Y-12010198D01*
X13718932Y-12010198D02*
X13728455Y-12019722D01*
X13728455Y-12019722D02*
X13737979Y-12038769D01*
X13737979Y-12038769D02*
X13737979Y-12086388D01*
X13737979Y-12086388D02*
X13728455Y-12105436D01*
X13728455Y-12105436D02*
X13718932Y-12114960D01*
X13718932Y-12114960D02*
X13699884Y-12124484D01*
X13699884Y-12124484D02*
X13652265Y-12124484D01*
X13652265Y-12124484D02*
X13633217Y-12114960D01*
X13633217Y-12114960D02*
X13623693Y-12105436D01*
X13861789Y-11924484D02*
X13880836Y-11924484D01*
X13880836Y-11924484D02*
X13899884Y-11934008D01*
X13899884Y-11934008D02*
X13909408Y-11943531D01*
X13909408Y-11943531D02*
X13918932Y-11962579D01*
X13918932Y-11962579D02*
X13928455Y-12000674D01*
X13928455Y-12000674D02*
X13928455Y-12048293D01*
X13928455Y-12048293D02*
X13918932Y-12086388D01*
X13918932Y-12086388D02*
X13909408Y-12105436D01*
X13909408Y-12105436D02*
X13899884Y-12114960D01*
X13899884Y-12114960D02*
X13880836Y-12124484D01*
X13880836Y-12124484D02*
X13861789Y-12124484D01*
X13861789Y-12124484D02*
X13842741Y-12114960D01*
X13842741Y-12114960D02*
X13833217Y-12105436D01*
X13833217Y-12105436D02*
X13823693Y-12086388D01*
X13823693Y-12086388D02*
X13814170Y-12048293D01*
X13814170Y-12048293D02*
X13814170Y-12000674D01*
X13814170Y-12000674D02*
X13823693Y-11962579D01*
X13823693Y-11962579D02*
X13833217Y-11943531D01*
X13833217Y-11943531D02*
X13842741Y-11934008D01*
X13842741Y-11934008D02*
X13861789Y-11924484D01*
X14014170Y-12124484D02*
X14014170Y-11991150D01*
X14014170Y-12010198D02*
X14023693Y-12000674D01*
X14023693Y-12000674D02*
X14042741Y-11991150D01*
X14042741Y-11991150D02*
X14071313Y-11991150D01*
X14071313Y-11991150D02*
X14090360Y-12000674D01*
X14090360Y-12000674D02*
X14099884Y-12019722D01*
X14099884Y-12019722D02*
X14099884Y-12124484D01*
X14099884Y-12019722D02*
X14109408Y-12000674D01*
X14109408Y-12000674D02*
X14128455Y-11991150D01*
X14128455Y-11991150D02*
X14157027Y-11991150D01*
X14157027Y-11991150D02*
X14176074Y-12000674D01*
X14176074Y-12000674D02*
X14185598Y-12019722D01*
X14185598Y-12019722D02*
X14185598Y-12124484D01*
X14280836Y-12124484D02*
X14280836Y-11991150D01*
X14280836Y-12010198D02*
X14290360Y-12000674D01*
X14290360Y-12000674D02*
X14309408Y-11991150D01*
X14309408Y-11991150D02*
X14337979Y-11991150D01*
X14337979Y-11991150D02*
X14357027Y-12000674D01*
X14357027Y-12000674D02*
X14366551Y-12019722D01*
X14366551Y-12019722D02*
X14366551Y-12124484D01*
X14366551Y-12019722D02*
X14376074Y-12000674D01*
X14376074Y-12000674D02*
X14395122Y-11991150D01*
X14395122Y-11991150D02*
X14423693Y-11991150D01*
X14423693Y-11991150D02*
X14442741Y-12000674D01*
X14442741Y-12000674D02*
X14452265Y-12019722D01*
X14452265Y-12019722D02*
X14452265Y-12124484D01*
X14842741Y-11914960D02*
X14671313Y-12172103D01*
X15099884Y-11924484D02*
X15118932Y-11924484D01*
X15118932Y-11924484D02*
X15137979Y-11934008D01*
X15137979Y-11934008D02*
X15147503Y-11943531D01*
X15147503Y-11943531D02*
X15157027Y-11962579D01*
X15157027Y-11962579D02*
X15166551Y-12000674D01*
X15166551Y-12000674D02*
X15166551Y-12048293D01*
X15166551Y-12048293D02*
X15157027Y-12086388D01*
X15157027Y-12086388D02*
X15147503Y-12105436D01*
X15147503Y-12105436D02*
X15137979Y-12114960D01*
X15137979Y-12114960D02*
X15118932Y-12124484D01*
X15118932Y-12124484D02*
X15099884Y-12124484D01*
X15099884Y-12124484D02*
X15080836Y-12114960D01*
X15080836Y-12114960D02*
X15071313Y-12105436D01*
X15071313Y-12105436D02*
X15061789Y-12086388D01*
X15061789Y-12086388D02*
X15052265Y-12048293D01*
X15052265Y-12048293D02*
X15052265Y-12000674D01*
X15052265Y-12000674D02*
X15061789Y-11962579D01*
X15061789Y-11962579D02*
X15071313Y-11943531D01*
X15071313Y-11943531D02*
X15080836Y-11934008D01*
X15080836Y-11934008D02*
X15099884Y-11924484D01*
X15252265Y-12105436D02*
X15261789Y-12114960D01*
X15261789Y-12114960D02*
X15252265Y-12124484D01*
X15252265Y-12124484D02*
X15242741Y-12114960D01*
X15242741Y-12114960D02*
X15252265Y-12105436D01*
X15252265Y-12105436D02*
X15252265Y-12124484D01*
X15385598Y-11924484D02*
X15404646Y-11924484D01*
X15404646Y-11924484D02*
X15423694Y-11934008D01*
X15423694Y-11934008D02*
X15433217Y-11943531D01*
X15433217Y-11943531D02*
X15442741Y-11962579D01*
X15442741Y-11962579D02*
X15452265Y-12000674D01*
X15452265Y-12000674D02*
X15452265Y-12048293D01*
X15452265Y-12048293D02*
X15442741Y-12086388D01*
X15442741Y-12086388D02*
X15433217Y-12105436D01*
X15433217Y-12105436D02*
X15423694Y-12114960D01*
X15423694Y-12114960D02*
X15404646Y-12124484D01*
X15404646Y-12124484D02*
X15385598Y-12124484D01*
X15385598Y-12124484D02*
X15366551Y-12114960D01*
X15366551Y-12114960D02*
X15357027Y-12105436D01*
X15357027Y-12105436D02*
X15347503Y-12086388D01*
X15347503Y-12086388D02*
X15337979Y-12048293D01*
X15337979Y-12048293D02*
X15337979Y-12000674D01*
X15337979Y-12000674D02*
X15347503Y-11962579D01*
X15347503Y-11962579D02*
X15357027Y-11943531D01*
X15357027Y-11943531D02*
X15366551Y-11934008D01*
X15366551Y-11934008D02*
X15385598Y-11924484D01*
X15528456Y-11943531D02*
X15537979Y-11934008D01*
X15537979Y-11934008D02*
X15557027Y-11924484D01*
X15557027Y-11924484D02*
X15604646Y-11924484D01*
X15604646Y-11924484D02*
X15623694Y-11934008D01*
X15623694Y-11934008D02*
X15633217Y-11943531D01*
X15633217Y-11943531D02*
X15642741Y-11962579D01*
X15642741Y-11962579D02*
X15642741Y-11981627D01*
X15642741Y-11981627D02*
X15633217Y-12010198D01*
X15633217Y-12010198D02*
X15518932Y-12124484D01*
X15518932Y-12124484D02*
X15642741Y-12124484D01*
X15823694Y-11924484D02*
X15728456Y-11924484D01*
X15728456Y-11924484D02*
X15718932Y-12019722D01*
X15718932Y-12019722D02*
X15728456Y-12010198D01*
X15728456Y-12010198D02*
X15747503Y-12000674D01*
X15747503Y-12000674D02*
X15795122Y-12000674D01*
X15795122Y-12000674D02*
X15814170Y-12010198D01*
X15814170Y-12010198D02*
X15823694Y-12019722D01*
X15823694Y-12019722D02*
X15833217Y-12038769D01*
X15833217Y-12038769D02*
X15833217Y-12086388D01*
X15833217Y-12086388D02*
X15823694Y-12105436D01*
X15823694Y-12105436D02*
X15814170Y-12114960D01*
X15814170Y-12114960D02*
X15795122Y-12124484D01*
X15795122Y-12124484D02*
X15747503Y-12124484D01*
X15747503Y-12124484D02*
X15728456Y-12114960D01*
X15728456Y-12114960D02*
X15718932Y-12105436D01*
X16004646Y-11924484D02*
X15966551Y-11924484D01*
X15966551Y-11924484D02*
X15947503Y-11934008D01*
X15947503Y-11934008D02*
X15937979Y-11943531D01*
X15937979Y-11943531D02*
X15918932Y-11972103D01*
X15918932Y-11972103D02*
X15909408Y-12010198D01*
X15909408Y-12010198D02*
X15909408Y-12086388D01*
X15909408Y-12086388D02*
X15918932Y-12105436D01*
X15918932Y-12105436D02*
X15928456Y-12114960D01*
X15928456Y-12114960D02*
X15947503Y-12124484D01*
X15947503Y-12124484D02*
X15985598Y-12124484D01*
X15985598Y-12124484D02*
X16004646Y-12114960D01*
X16004646Y-12114960D02*
X16014170Y-12105436D01*
X16014170Y-12105436D02*
X16023694Y-12086388D01*
X16023694Y-12086388D02*
X16023694Y-12038769D01*
X16023694Y-12038769D02*
X16014170Y-12019722D01*
X16014170Y-12019722D02*
X16004646Y-12010198D01*
X16004646Y-12010198D02*
X15985598Y-12000674D01*
X15985598Y-12000674D02*
X15947503Y-12000674D01*
X15947503Y-12000674D02*
X15928456Y-12010198D01*
X15928456Y-12010198D02*
X15918932Y-12019722D01*
X15918932Y-12019722D02*
X15909408Y-12038769D01*
X16099884Y-11924484D02*
X16099884Y-11962579D01*
X16176075Y-11924484D02*
X16176075Y-11962579D01*
X16471313Y-12200674D02*
X16461789Y-12191150D01*
X16461789Y-12191150D02*
X16442741Y-12162579D01*
X16442741Y-12162579D02*
X16433218Y-12143531D01*
X16433218Y-12143531D02*
X16423694Y-12114960D01*
X16423694Y-12114960D02*
X16414170Y-12067341D01*
X16414170Y-12067341D02*
X16414170Y-12029246D01*
X16414170Y-12029246D02*
X16423694Y-11981627D01*
X16423694Y-11981627D02*
X16433218Y-11953055D01*
X16433218Y-11953055D02*
X16442741Y-11934008D01*
X16442741Y-11934008D02*
X16461789Y-11905436D01*
X16461789Y-11905436D02*
X16471313Y-11895912D01*
X16537979Y-11943531D02*
X16547503Y-11934008D01*
X16547503Y-11934008D02*
X16566551Y-11924484D01*
X16566551Y-11924484D02*
X16614170Y-11924484D01*
X16614170Y-11924484D02*
X16633218Y-11934008D01*
X16633218Y-11934008D02*
X16642741Y-11943531D01*
X16642741Y-11943531D02*
X16652265Y-11962579D01*
X16652265Y-11962579D02*
X16652265Y-11981627D01*
X16652265Y-11981627D02*
X16642741Y-12010198D01*
X16642741Y-12010198D02*
X16528456Y-12124484D01*
X16528456Y-12124484D02*
X16652265Y-12124484D01*
X16890361Y-12124484D02*
X16890361Y-11924484D01*
X16976075Y-12124484D02*
X16976075Y-12019722D01*
X16976075Y-12019722D02*
X16966551Y-12000674D01*
X16966551Y-12000674D02*
X16947503Y-11991150D01*
X16947503Y-11991150D02*
X16918932Y-11991150D01*
X16918932Y-11991150D02*
X16899884Y-12000674D01*
X16899884Y-12000674D02*
X16890361Y-12010198D01*
X17099884Y-12124484D02*
X17080837Y-12114960D01*
X17080837Y-12114960D02*
X17071313Y-12105436D01*
X17071313Y-12105436D02*
X17061789Y-12086388D01*
X17061789Y-12086388D02*
X17061789Y-12029246D01*
X17061789Y-12029246D02*
X17071313Y-12010198D01*
X17071313Y-12010198D02*
X17080837Y-12000674D01*
X17080837Y-12000674D02*
X17099884Y-11991150D01*
X17099884Y-11991150D02*
X17128456Y-11991150D01*
X17128456Y-11991150D02*
X17147503Y-12000674D01*
X17147503Y-12000674D02*
X17157027Y-12010198D01*
X17157027Y-12010198D02*
X17166551Y-12029246D01*
X17166551Y-12029246D02*
X17166551Y-12086388D01*
X17166551Y-12086388D02*
X17157027Y-12105436D01*
X17157027Y-12105436D02*
X17147503Y-12114960D01*
X17147503Y-12114960D02*
X17128456Y-12124484D01*
X17128456Y-12124484D02*
X17099884Y-12124484D01*
X17280837Y-12124484D02*
X17261789Y-12114960D01*
X17261789Y-12114960D02*
X17252265Y-12095912D01*
X17252265Y-12095912D02*
X17252265Y-11924484D01*
X17433218Y-12114960D02*
X17414170Y-12124484D01*
X17414170Y-12124484D02*
X17376075Y-12124484D01*
X17376075Y-12124484D02*
X17357027Y-12114960D01*
X17357027Y-12114960D02*
X17347503Y-12095912D01*
X17347503Y-12095912D02*
X17347503Y-12019722D01*
X17347503Y-12019722D02*
X17357027Y-12000674D01*
X17357027Y-12000674D02*
X17376075Y-11991150D01*
X17376075Y-11991150D02*
X17414170Y-11991150D01*
X17414170Y-11991150D02*
X17433218Y-12000674D01*
X17433218Y-12000674D02*
X17442742Y-12019722D01*
X17442742Y-12019722D02*
X17442742Y-12038769D01*
X17442742Y-12038769D02*
X17347503Y-12057817D01*
X17518932Y-12114960D02*
X17537980Y-12124484D01*
X17537980Y-12124484D02*
X17576075Y-12124484D01*
X17576075Y-12124484D02*
X17595123Y-12114960D01*
X17595123Y-12114960D02*
X17604646Y-12095912D01*
X17604646Y-12095912D02*
X17604646Y-12086388D01*
X17604646Y-12086388D02*
X17595123Y-12067341D01*
X17595123Y-12067341D02*
X17576075Y-12057817D01*
X17576075Y-12057817D02*
X17547503Y-12057817D01*
X17547503Y-12057817D02*
X17528456Y-12048293D01*
X17528456Y-12048293D02*
X17518932Y-12029246D01*
X17518932Y-12029246D02*
X17518932Y-12019722D01*
X17518932Y-12019722D02*
X17528456Y-12000674D01*
X17528456Y-12000674D02*
X17547503Y-11991150D01*
X17547503Y-11991150D02*
X17576075Y-11991150D01*
X17576075Y-11991150D02*
X17595123Y-12000674D01*
X17671313Y-12200674D02*
X17680837Y-12191150D01*
X17680837Y-12191150D02*
X17699884Y-12162579D01*
X17699884Y-12162579D02*
X17709408Y-12143531D01*
X17709408Y-12143531D02*
X17718932Y-12114960D01*
X17718932Y-12114960D02*
X17728456Y-12067341D01*
X17728456Y-12067341D02*
X17728456Y-12029246D01*
X17728456Y-12029246D02*
X17718932Y-11981627D01*
X17718932Y-11981627D02*
X17709408Y-11953055D01*
X17709408Y-11953055D02*
X17699884Y-11934008D01*
X17699884Y-11934008D02*
X17680837Y-11905436D01*
X17680837Y-11905436D02*
X17671313Y-11895912D01*
X18033218Y-12200674D02*
X18023694Y-12191150D01*
X18023694Y-12191150D02*
X18004646Y-12162579D01*
X18004646Y-12162579D02*
X17995123Y-12143531D01*
X17995123Y-12143531D02*
X17985599Y-12114960D01*
X17985599Y-12114960D02*
X17976075Y-12067341D01*
X17976075Y-12067341D02*
X17976075Y-12029246D01*
X17976075Y-12029246D02*
X17985599Y-11981627D01*
X17985599Y-11981627D02*
X17995123Y-11953055D01*
X17995123Y-11953055D02*
X18004646Y-11934008D01*
X18004646Y-11934008D02*
X18023694Y-11905436D01*
X18023694Y-11905436D02*
X18033218Y-11895912D01*
X18109408Y-11991150D02*
X18109408Y-12124484D01*
X18109408Y-12010198D02*
X18118932Y-12000674D01*
X18118932Y-12000674D02*
X18137980Y-11991150D01*
X18137980Y-11991150D02*
X18166551Y-11991150D01*
X18166551Y-11991150D02*
X18185599Y-12000674D01*
X18185599Y-12000674D02*
X18195123Y-12019722D01*
X18195123Y-12019722D02*
X18195123Y-12124484D01*
X18318932Y-12124484D02*
X18299884Y-12114960D01*
X18299884Y-12114960D02*
X18290361Y-12105436D01*
X18290361Y-12105436D02*
X18280837Y-12086388D01*
X18280837Y-12086388D02*
X18280837Y-12029246D01*
X18280837Y-12029246D02*
X18290361Y-12010198D01*
X18290361Y-12010198D02*
X18299884Y-12000674D01*
X18299884Y-12000674D02*
X18318932Y-11991150D01*
X18318932Y-11991150D02*
X18347504Y-11991150D01*
X18347504Y-11991150D02*
X18366551Y-12000674D01*
X18366551Y-12000674D02*
X18376075Y-12010198D01*
X18376075Y-12010198D02*
X18385599Y-12029246D01*
X18385599Y-12029246D02*
X18385599Y-12086388D01*
X18385599Y-12086388D02*
X18376075Y-12105436D01*
X18376075Y-12105436D02*
X18366551Y-12114960D01*
X18366551Y-12114960D02*
X18347504Y-12124484D01*
X18347504Y-12124484D02*
X18318932Y-12124484D01*
X18442742Y-11991150D02*
X18518932Y-11991150D01*
X18471313Y-11924484D02*
X18471313Y-12095912D01*
X18471313Y-12095912D02*
X18480837Y-12114960D01*
X18480837Y-12114960D02*
X18499884Y-12124484D01*
X18499884Y-12124484D02*
X18518932Y-12124484D01*
X18737980Y-11991150D02*
X18737980Y-12191150D01*
X18737980Y-12000674D02*
X18757027Y-11991150D01*
X18757027Y-11991150D02*
X18795123Y-11991150D01*
X18795123Y-11991150D02*
X18814170Y-12000674D01*
X18814170Y-12000674D02*
X18823694Y-12010198D01*
X18823694Y-12010198D02*
X18833218Y-12029246D01*
X18833218Y-12029246D02*
X18833218Y-12086388D01*
X18833218Y-12086388D02*
X18823694Y-12105436D01*
X18823694Y-12105436D02*
X18814170Y-12114960D01*
X18814170Y-12114960D02*
X18795123Y-12124484D01*
X18795123Y-12124484D02*
X18757027Y-12124484D01*
X18757027Y-12124484D02*
X18737980Y-12114960D01*
X18947504Y-12124484D02*
X18928456Y-12114960D01*
X18928456Y-12114960D02*
X18918932Y-12095912D01*
X18918932Y-12095912D02*
X18918932Y-11924484D01*
X19109408Y-12124484D02*
X19109408Y-12019722D01*
X19109408Y-12019722D02*
X19099885Y-12000674D01*
X19099885Y-12000674D02*
X19080837Y-11991150D01*
X19080837Y-11991150D02*
X19042742Y-11991150D01*
X19042742Y-11991150D02*
X19023694Y-12000674D01*
X19109408Y-12114960D02*
X19090361Y-12124484D01*
X19090361Y-12124484D02*
X19042742Y-12124484D01*
X19042742Y-12124484D02*
X19023694Y-12114960D01*
X19023694Y-12114960D02*
X19014170Y-12095912D01*
X19014170Y-12095912D02*
X19014170Y-12076865D01*
X19014170Y-12076865D02*
X19023694Y-12057817D01*
X19023694Y-12057817D02*
X19042742Y-12048293D01*
X19042742Y-12048293D02*
X19090361Y-12048293D01*
X19090361Y-12048293D02*
X19109408Y-12038769D01*
X19176075Y-11991150D02*
X19252265Y-11991150D01*
X19204646Y-11924484D02*
X19204646Y-12095912D01*
X19204646Y-12095912D02*
X19214170Y-12114960D01*
X19214170Y-12114960D02*
X19233218Y-12124484D01*
X19233218Y-12124484D02*
X19252265Y-12124484D01*
X19395123Y-12114960D02*
X19376075Y-12124484D01*
X19376075Y-12124484D02*
X19337980Y-12124484D01*
X19337980Y-12124484D02*
X19318932Y-12114960D01*
X19318932Y-12114960D02*
X19309408Y-12095912D01*
X19309408Y-12095912D02*
X19309408Y-12019722D01*
X19309408Y-12019722D02*
X19318932Y-12000674D01*
X19318932Y-12000674D02*
X19337980Y-11991150D01*
X19337980Y-11991150D02*
X19376075Y-11991150D01*
X19376075Y-11991150D02*
X19395123Y-12000674D01*
X19395123Y-12000674D02*
X19404646Y-12019722D01*
X19404646Y-12019722D02*
X19404646Y-12038769D01*
X19404646Y-12038769D02*
X19309408Y-12057817D01*
X19576075Y-12124484D02*
X19576075Y-11924484D01*
X19576075Y-12114960D02*
X19557027Y-12124484D01*
X19557027Y-12124484D02*
X19518932Y-12124484D01*
X19518932Y-12124484D02*
X19499885Y-12114960D01*
X19499885Y-12114960D02*
X19490361Y-12105436D01*
X19490361Y-12105436D02*
X19480837Y-12086388D01*
X19480837Y-12086388D02*
X19480837Y-12029246D01*
X19480837Y-12029246D02*
X19490361Y-12010198D01*
X19490361Y-12010198D02*
X19499885Y-12000674D01*
X19499885Y-12000674D02*
X19518932Y-11991150D01*
X19518932Y-11991150D02*
X19557027Y-11991150D01*
X19557027Y-11991150D02*
X19576075Y-12000674D01*
X19652266Y-12200674D02*
X19661789Y-12191150D01*
X19661789Y-12191150D02*
X19680837Y-12162579D01*
X19680837Y-12162579D02*
X19690361Y-12143531D01*
X19690361Y-12143531D02*
X19699885Y-12114960D01*
X19699885Y-12114960D02*
X19709408Y-12067341D01*
X19709408Y-12067341D02*
X19709408Y-12029246D01*
X19709408Y-12029246D02*
X19699885Y-11981627D01*
X19699885Y-11981627D02*
X19690361Y-11953055D01*
X19690361Y-11953055D02*
X19680837Y-11934008D01*
X19680837Y-11934008D02*
X19661789Y-11905436D01*
X19661789Y-11905436D02*
X19652266Y-11895912D01*
M02*
