%TF.GenerationSoftware,KiCad,Pcbnew,7.0.5-0*%
%TF.CreationDate,2023-07-31T19:13:05-04:00*%
%TF.ProjectId,mula,6d756c61-2e6b-4696-9361-645f70636258,rev?*%
%TF.SameCoordinates,Original*%
%TF.FileFunction,Soldermask,Top*%
%TF.FilePolarity,Negative*%
%FSLAX46Y46*%
G04 Gerber Fmt 4.6, Leading zero omitted, Abs format (unit mm)*
G04 Created by KiCad (PCBNEW 7.0.5-0) date 2023-07-31 19:13:05*
%MOMM*%
%LPD*%
G01*
G04 APERTURE LIST*
G04 Aperture macros list*
%AMRoundRect*
0 Rectangle with rounded corners*
0 $1 Rounding radius*
0 $2 $3 $4 $5 $6 $7 $8 $9 X,Y pos of 4 corners*
0 Add a 4 corners polygon primitive as box body*
4,1,4,$2,$3,$4,$5,$6,$7,$8,$9,$2,$3,0*
0 Add four circle primitives for the rounded corners*
1,1,$1+$1,$2,$3*
1,1,$1+$1,$4,$5*
1,1,$1+$1,$6,$7*
1,1,$1+$1,$8,$9*
0 Add four rect primitives between the rounded corners*
20,1,$1+$1,$2,$3,$4,$5,0*
20,1,$1+$1,$4,$5,$6,$7,0*
20,1,$1+$1,$6,$7,$8,$9,0*
20,1,$1+$1,$8,$9,$2,$3,0*%
G04 Aperture macros list end*
%ADD10RoundRect,0.140000X-0.140000X-0.170000X0.140000X-0.170000X0.140000X0.170000X-0.140000X0.170000X0*%
%ADD11RoundRect,0.218750X-0.256250X0.218750X-0.256250X-0.218750X0.256250X-0.218750X0.256250X0.218750X0*%
%ADD12R,0.750000X1.000000*%
%ADD13RoundRect,0.135000X-0.185000X0.135000X-0.185000X-0.135000X0.185000X-0.135000X0.185000X0.135000X0*%
%ADD14RoundRect,0.100000X0.100000X-0.637500X0.100000X0.637500X-0.100000X0.637500X-0.100000X-0.637500X0*%
%ADD15C,5.703200*%
%ADD16RoundRect,0.101600X-0.175000X-1.250000X0.175000X-1.250000X0.175000X1.250000X-0.175000X1.250000X0*%
%ADD17RoundRect,0.140000X0.170000X-0.140000X0.170000X0.140000X-0.170000X0.140000X-0.170000X-0.140000X0*%
%ADD18R,0.650000X1.700000*%
%ADD19RoundRect,0.135000X-0.135000X-0.185000X0.135000X-0.185000X0.135000X0.185000X-0.135000X0.185000X0*%
%ADD20RoundRect,0.150000X0.587500X0.150000X-0.587500X0.150000X-0.587500X-0.150000X0.587500X-0.150000X0*%
%ADD21RoundRect,0.135000X0.185000X-0.135000X0.185000X0.135000X-0.185000X0.135000X-0.185000X-0.135000X0*%
%ADD22RoundRect,0.140000X0.140000X0.170000X-0.140000X0.170000X-0.140000X-0.170000X0.140000X-0.170000X0*%
%ADD23RoundRect,0.140000X-0.170000X0.140000X-0.170000X-0.140000X0.170000X-0.140000X0.170000X0.140000X0*%
%ADD24R,0.200000X0.400000*%
%ADD25R,2.800000X0.400000*%
%ADD26RoundRect,0.150000X-0.512500X-0.150000X0.512500X-0.150000X0.512500X0.150000X-0.512500X0.150000X0*%
%ADD27R,0.500000X0.320000*%
%ADD28RoundRect,0.135000X0.135000X0.185000X-0.135000X0.185000X-0.135000X-0.185000X0.135000X-0.185000X0*%
%ADD29R,1.200000X1.400000*%
%ADD30RoundRect,0.050000X0.050000X-0.387500X0.050000X0.387500X-0.050000X0.387500X-0.050000X-0.387500X0*%
%ADD31RoundRect,0.050000X0.387500X-0.050000X0.387500X0.050000X-0.387500X0.050000X-0.387500X-0.050000X0*%
%ADD32R,3.200000X3.200000*%
%ADD33C,0.650000*%
%ADD34R,1.450000X0.600000*%
%ADD35R,1.450000X0.300000*%
%ADD36O,2.100000X1.000000*%
%ADD37O,1.600000X1.000000*%
G04 APERTURE END LIST*
D10*
%TO.C,C115*%
X129870000Y-105425000D03*
X130830000Y-105425000D03*
%TD*%
D11*
%TO.C,D101*%
X144300000Y-79800000D03*
X144300000Y-81375000D03*
%TD*%
D12*
%TO.C,SW102*%
X146170000Y-78970000D03*
X146170000Y-72970000D03*
X149920000Y-78970000D03*
X149920000Y-72970000D03*
%TD*%
D13*
%TO.C,R105*%
X141525000Y-82565000D03*
X141525000Y-83585000D03*
%TD*%
D10*
%TO.C,C101*%
X148245000Y-92175000D03*
X149205000Y-92175000D03*
%TD*%
D13*
%TO.C,R104*%
X140500000Y-82540000D03*
X140500000Y-83560000D03*
%TD*%
D14*
%TO.C,U106*%
X142975000Y-102925000D03*
X143625000Y-102925000D03*
X144275000Y-102925000D03*
X144925000Y-102925000D03*
X145575000Y-102925000D03*
X146225000Y-102925000D03*
X146875000Y-102925000D03*
X147525000Y-102925000D03*
X148175000Y-102925000D03*
X148825000Y-102925000D03*
X149475000Y-102925000D03*
X150125000Y-102925000D03*
X150125000Y-97200000D03*
X149475000Y-97200000D03*
X148825000Y-97200000D03*
X148175000Y-97200000D03*
X147525000Y-97200000D03*
X146875000Y-97200000D03*
X146225000Y-97200000D03*
X145575000Y-97200000D03*
X144925000Y-97200000D03*
X144275000Y-97200000D03*
X143625000Y-97200000D03*
X142975000Y-97200000D03*
%TD*%
D15*
%TO.C,J102*%
X139987500Y-71905000D03*
D16*
X149237500Y-112655000D03*
X148737500Y-112655000D03*
X148237500Y-112655000D03*
X147737500Y-112655000D03*
X147237500Y-112655000D03*
X146737500Y-112655000D03*
X144237500Y-112655000D03*
X143737500Y-112655000D03*
X143237500Y-112655000D03*
X142737500Y-112655000D03*
X142237500Y-112655000D03*
X141737500Y-112655000D03*
X141237500Y-112655000D03*
X140737500Y-112655000D03*
X140237500Y-112655000D03*
X139737500Y-112655000D03*
X139237500Y-112655000D03*
X138737500Y-112655000D03*
X138237500Y-112655000D03*
X137737500Y-112655000D03*
X137237500Y-112655000D03*
X136737500Y-112655000D03*
X136237500Y-112655000D03*
X135737500Y-112655000D03*
X135237500Y-112655000D03*
X134737500Y-112655000D03*
X134237500Y-112655000D03*
X133737500Y-112655000D03*
X133237500Y-112655000D03*
X132737500Y-112655000D03*
X132237500Y-112655000D03*
X131737500Y-112655000D03*
X131237500Y-112655000D03*
X130737500Y-112655000D03*
%TD*%
D17*
%TO.C,C114*%
X144400000Y-76550000D03*
X144400000Y-75590000D03*
%TD*%
D18*
%TO.C,U101*%
X130120000Y-93000000D03*
X131390000Y-93000000D03*
X132660000Y-93000000D03*
X133930000Y-93000000D03*
X133930000Y-85700000D03*
X132660000Y-85700000D03*
X131390000Y-85700000D03*
X130120000Y-85700000D03*
%TD*%
D19*
%TO.C,R107*%
X129845000Y-104425000D03*
X130865000Y-104425000D03*
%TD*%
D20*
%TO.C,U104*%
X142875000Y-77795000D03*
X142875000Y-75895000D03*
X141000000Y-76845000D03*
%TD*%
D21*
%TO.C,R109*%
X144575000Y-83610000D03*
X144575000Y-82590000D03*
%TD*%
D22*
%TO.C,C105*%
X130850000Y-95650000D03*
X129890000Y-95650000D03*
%TD*%
D13*
%TO.C,R103*%
X138492500Y-82555000D03*
X138492500Y-83575000D03*
%TD*%
D14*
%TO.C,U105*%
X130025000Y-102900000D03*
X130675000Y-102900000D03*
X131325000Y-102900000D03*
X131975000Y-102900000D03*
X132625000Y-102900000D03*
X133275000Y-102900000D03*
X133925000Y-102900000D03*
X134575000Y-102900000D03*
X135225000Y-102900000D03*
X135875000Y-102900000D03*
X136525000Y-102900000D03*
X137175000Y-102900000D03*
X137175000Y-97175000D03*
X136525000Y-97175000D03*
X135875000Y-97175000D03*
X135225000Y-97175000D03*
X134575000Y-97175000D03*
X133925000Y-97175000D03*
X133275000Y-97175000D03*
X132625000Y-97175000D03*
X131975000Y-97175000D03*
X131325000Y-97175000D03*
X130675000Y-97175000D03*
X130025000Y-97175000D03*
%TD*%
D12*
%TO.C,SW101*%
X146145000Y-86570000D03*
X146145000Y-80570000D03*
X149895000Y-86570000D03*
X149895000Y-80570000D03*
%TD*%
D22*
%TO.C,C106*%
X130850000Y-94675000D03*
X129890000Y-94675000D03*
%TD*%
D23*
%TO.C,C103*%
X142550000Y-82590000D03*
X142550000Y-83550000D03*
%TD*%
%TO.C,C112*%
X141675000Y-96195000D03*
X141675000Y-97155000D03*
%TD*%
%TO.C,C104*%
X139482500Y-82575000D03*
X139482500Y-83535000D03*
%TD*%
D19*
%TO.C,R106*%
X147510000Y-79220000D03*
X148530000Y-79220000D03*
%TD*%
D24*
%TO.C,L101*%
X136850000Y-109425000D03*
X137250000Y-109425000D03*
X137650000Y-109425000D03*
X138050000Y-109425000D03*
X138450000Y-109425000D03*
X138850000Y-109425000D03*
X139250000Y-109425000D03*
X139650000Y-109425000D03*
X139650000Y-108225000D03*
X139250000Y-108225000D03*
X138850000Y-108225000D03*
X138450000Y-108225000D03*
X138050000Y-108225000D03*
X137650000Y-108225000D03*
X137250000Y-108225000D03*
X136850000Y-108225000D03*
D25*
X138250000Y-108825000D03*
%TD*%
D23*
%TO.C,C107*%
X140675000Y-96195000D03*
X140675000Y-97155000D03*
%TD*%
D26*
%TO.C,U103*%
X138962500Y-79395000D03*
X138962500Y-80345000D03*
X138962500Y-81295000D03*
X141237500Y-81295000D03*
X141237500Y-80345000D03*
X141237500Y-79395000D03*
%TD*%
D27*
%TO.C,RN101*%
X141650000Y-99662500D03*
X141650000Y-99162500D03*
X141650000Y-98662500D03*
X141650000Y-98162500D03*
X140650000Y-98162500D03*
X140650000Y-98662500D03*
X140650000Y-99162500D03*
X140650000Y-99662500D03*
%TD*%
D22*
%TO.C,C102*%
X148630000Y-86850000D03*
X147670000Y-86850000D03*
%TD*%
D28*
%TO.C,R101*%
X148530000Y-80320000D03*
X147510000Y-80320000D03*
%TD*%
D27*
%TO.C,RN104*%
X138575000Y-98162500D03*
X138575000Y-98662500D03*
X138575000Y-99162500D03*
X138575000Y-99662500D03*
X139575000Y-99662500D03*
X139575000Y-99162500D03*
X139575000Y-98662500D03*
X139575000Y-98162500D03*
%TD*%
D17*
%TO.C,C111*%
X143550000Y-83550000D03*
X143550000Y-82590000D03*
%TD*%
%TO.C,C109*%
X144350000Y-88455000D03*
X144350000Y-87495000D03*
%TD*%
D10*
%TO.C,C110*%
X138495000Y-77045000D03*
X139455000Y-77045000D03*
%TD*%
D24*
%TO.C,L102*%
X140725000Y-109425000D03*
X141125000Y-109425000D03*
X141525000Y-109425000D03*
X141925000Y-109425000D03*
X142325000Y-109425000D03*
X142725000Y-109425000D03*
X143125000Y-109425000D03*
X143525000Y-109425000D03*
X143525000Y-108225000D03*
X143125000Y-108225000D03*
X142725000Y-108225000D03*
X142325000Y-108225000D03*
X141925000Y-108225000D03*
X141525000Y-108225000D03*
X141125000Y-108225000D03*
X140725000Y-108225000D03*
D25*
X142125000Y-108825000D03*
%TD*%
D29*
%TO.C,Y101*%
X147100000Y-88425000D03*
X147100000Y-90625000D03*
X148800000Y-90625000D03*
X148800000Y-88425000D03*
%TD*%
D27*
%TO.C,RN102*%
X138575000Y-100737500D03*
X138575000Y-101237500D03*
X138575000Y-101737500D03*
X138575000Y-102237500D03*
X139575000Y-102237500D03*
X139575000Y-101737500D03*
X139575000Y-101237500D03*
X139575000Y-100737500D03*
%TD*%
D19*
%TO.C,R102*%
X138465000Y-78070000D03*
X139485000Y-78070000D03*
%TD*%
%TO.C,R108*%
X140615000Y-103450000D03*
X141635000Y-103450000D03*
%TD*%
D30*
%TO.C,U102*%
X137050000Y-92287500D03*
X137450000Y-92287500D03*
X137850000Y-92287500D03*
X138250000Y-92287500D03*
X138650000Y-92287500D03*
X139050000Y-92287500D03*
X139450000Y-92287500D03*
X139850000Y-92287500D03*
X140250000Y-92287500D03*
X140650000Y-92287500D03*
X141050000Y-92287500D03*
X141450000Y-92287500D03*
X141850000Y-92287500D03*
X142250000Y-92287500D03*
D31*
X143087500Y-91450000D03*
X143087500Y-91050000D03*
X143087500Y-90650000D03*
X143087500Y-90250000D03*
X143087500Y-89850000D03*
X143087500Y-89450000D03*
X143087500Y-89050000D03*
X143087500Y-88650000D03*
X143087500Y-88250000D03*
X143087500Y-87850000D03*
X143087500Y-87450000D03*
X143087500Y-87050000D03*
X143087500Y-86650000D03*
X143087500Y-86250000D03*
D30*
X142250000Y-85412500D03*
X141850000Y-85412500D03*
X141450000Y-85412500D03*
X141050000Y-85412500D03*
X140650000Y-85412500D03*
X140250000Y-85412500D03*
X139850000Y-85412500D03*
X139450000Y-85412500D03*
X139050000Y-85412500D03*
X138650000Y-85412500D03*
X138250000Y-85412500D03*
X137850000Y-85412500D03*
X137450000Y-85412500D03*
X137050000Y-85412500D03*
D31*
X136212500Y-86250000D03*
X136212500Y-86650000D03*
X136212500Y-87050000D03*
X136212500Y-87450000D03*
X136212500Y-87850000D03*
X136212500Y-88250000D03*
X136212500Y-88650000D03*
X136212500Y-89050000D03*
X136212500Y-89450000D03*
X136212500Y-89850000D03*
X136212500Y-90250000D03*
X136212500Y-90650000D03*
X136212500Y-91050000D03*
X136212500Y-91450000D03*
D32*
X139650000Y-88850000D03*
%TD*%
D22*
%TO.C,C116*%
X139675000Y-103450000D03*
X138715000Y-103450000D03*
%TD*%
%TO.C,C108*%
X139455000Y-75575000D03*
X138495000Y-75575000D03*
%TD*%
D23*
%TO.C,C113*%
X144400000Y-77490000D03*
X144400000Y-78450000D03*
%TD*%
D27*
%TO.C,RN103*%
X141650000Y-102237500D03*
X141650000Y-101737500D03*
X141650000Y-101237500D03*
X141650000Y-100737500D03*
X140650000Y-100737500D03*
X140650000Y-101237500D03*
X140650000Y-101737500D03*
X140650000Y-102237500D03*
%TD*%
D33*
%TO.C,J101*%
X134950000Y-76310000D03*
X134950000Y-82090000D03*
D34*
X136395000Y-75950000D03*
X136395000Y-76750000D03*
D35*
X136395000Y-77950000D03*
X136395000Y-78950000D03*
X136395000Y-79450000D03*
X136395000Y-80450000D03*
D34*
X136395000Y-81650000D03*
X136395000Y-82450000D03*
X136395000Y-82450000D03*
X136395000Y-81650000D03*
D35*
X136395000Y-80950000D03*
X136395000Y-79950000D03*
X136395000Y-78450000D03*
X136395000Y-77450000D03*
D34*
X136395000Y-76750000D03*
X136395000Y-75950000D03*
D36*
X135480000Y-74880000D03*
D37*
X131300000Y-74880000D03*
D36*
X135480000Y-83520000D03*
D37*
X131300000Y-83520000D03*
%TD*%
M02*
