%TF.GenerationSoftware,KiCad,Pcbnew,7.0.5-0*%
%TF.CreationDate,2023-07-31T19:13:05-04:00*%
%TF.ProjectId,mula,6d756c61-2e6b-4696-9361-645f70636258,rev?*%
%TF.SameCoordinates,Original*%
%TF.FileFunction,Copper,L4,Bot*%
%TF.FilePolarity,Positive*%
%FSLAX46Y46*%
G04 Gerber Fmt 4.6, Leading zero omitted, Abs format (unit mm)*
G04 Created by KiCad (PCBNEW 7.0.5-0) date 2023-07-31 19:13:05*
%MOMM*%
%LPD*%
G01*
G04 APERTURE LIST*
%TA.AperFunction,EtchedComponent*%
%ADD10C,1.250000*%
%TD*%
%TA.AperFunction,ComponentPad*%
%ADD11C,5.500000*%
%TD*%
%TA.AperFunction,SMDPad,CuDef*%
%ADD12R,0.350000X2.500000*%
%TD*%
%TA.AperFunction,ComponentPad*%
%ADD13O,2.100000X1.000000*%
%TD*%
%TA.AperFunction,ComponentPad*%
%ADD14O,1.600000X1.000000*%
%TD*%
%TA.AperFunction,ViaPad*%
%ADD15C,0.800000*%
%TD*%
%TA.AperFunction,Conductor*%
%ADD16C,0.150000*%
%TD*%
G04 APERTURE END LIST*
D10*
%TO.C,J102*%
X142987500Y-72905000D02*
G75*
G03*
X142987500Y-72905000I-3000000J0D01*
G01*
%TA.AperFunction,EtchedComponent*%
G36*
X142537500Y-75455000D02*
G01*
X137437500Y-75455000D01*
X137437500Y-70355000D01*
X142537500Y-70355000D01*
X142537500Y-75455000D01*
G37*
%TD.AperFunction*%
%TD*%
D11*
%TO.P,J102,MOUNTING-HOLE*%
%TO.N,N/C*%
X139987500Y-71905000D03*
D12*
%TO.P,J102,P$2*%
X148987500Y-112655000D03*
%TO.P,J102,P$4*%
X148487500Y-112655000D03*
%TO.P,J102,P$6*%
X147987500Y-112655000D03*
%TO.P,J102,P$8*%
X147487500Y-112655000D03*
%TO.P,J102,P$10*%
X146987500Y-112655000D03*
%TO.P,J102,P$20,Pin_1*%
%TO.N,GND*%
X144487500Y-112655000D03*
%TO.P,J102,P$22,Pin_2*%
X143987500Y-112655000D03*
%TO.P,J102,P$24,Pin_3*%
X143487500Y-112655000D03*
%TO.P,J102,P$26,Pin_4*%
X142987500Y-112655000D03*
%TO.P,J102,P$28,Pin_5*%
X142487500Y-112655000D03*
%TO.P,J102,P$30,Pin_6*%
X141987500Y-112655000D03*
%TO.P,J102,P$32,Pin_7*%
X141487500Y-112655000D03*
%TO.P,J102,P$34,Pin_8*%
X140987500Y-112655000D03*
%TO.P,J102,P$36,Pin_9*%
X140487500Y-112655000D03*
%TO.P,J102,P$38,Pin_10*%
X139987500Y-112655000D03*
%TO.P,J102,P$40,Pin_11*%
X139487500Y-112655000D03*
%TO.P,J102,P$42,Pin_12*%
X138987500Y-112655000D03*
%TO.P,J102,P$44,Pin_13*%
X138487500Y-112655000D03*
%TO.P,J102,P$46,Pin_14*%
X137987500Y-112655000D03*
%TO.P,J102,P$48,Pin_15*%
X137487500Y-112655000D03*
%TO.P,J102,P$50,Pin_16*%
X136987500Y-112655000D03*
%TO.P,J102,P$52*%
%TO.N,N/C*%
X136487500Y-112655000D03*
%TO.P,J102,P$54*%
X135987500Y-112655000D03*
%TO.P,J102,P$56*%
X135487500Y-112655000D03*
%TO.P,J102,P$58*%
X134987500Y-112655000D03*
%TO.P,J102,P$60*%
X134487500Y-112655000D03*
%TO.P,J102,P$62*%
X133987500Y-112655000D03*
%TO.P,J102,P$64*%
X133487500Y-112655000D03*
%TO.P,J102,P$66*%
X132987500Y-112655000D03*
%TO.P,J102,P$68*%
X132487500Y-112655000D03*
%TO.P,J102,P$70*%
X131987500Y-112655000D03*
%TO.P,J102,P$72*%
X131487500Y-112655000D03*
%TO.P,J102,P$74*%
X130987500Y-112655000D03*
%TD*%
D13*
%TO.P,J101,S1,SHIELD*%
%TO.N,GND*%
X135480000Y-74880000D03*
D14*
X131300000Y-74880000D03*
D13*
X135480000Y-83520000D03*
D14*
X131300000Y-83520000D03*
%TD*%
D15*
%TO.N,GND*%
X135550000Y-110325000D03*
X146150000Y-80550000D03*
X146775000Y-110325000D03*
X132400000Y-72900000D03*
X138950000Y-80350000D03*
X146175000Y-78975000D03*
X145400000Y-75590000D03*
X147575000Y-75700000D03*
X149000000Y-110275000D03*
X143925000Y-95650000D03*
X145550000Y-88000000D03*
X138575000Y-89850000D03*
X149450000Y-98900000D03*
X134375000Y-72900000D03*
X140475000Y-78425000D03*
X140700000Y-87800000D03*
X138725000Y-95175000D03*
X130625000Y-72900000D03*
X149450000Y-101400000D03*
X146900000Y-92700000D03*
X144300000Y-79800000D03*
X140675000Y-89850000D03*
X144250000Y-72850000D03*
X130850000Y-110325000D03*
X139675000Y-88850000D03*
X137425000Y-83495500D03*
X133225000Y-110325000D03*
X142525000Y-76875000D03*
X145550000Y-90500000D03*
X138550000Y-87825000D03*
X133950000Y-91400000D03*
X147975000Y-85625000D03*
X130225000Y-99300000D03*
X137750000Y-104200000D03*
%TO.N,+3V3*%
X136833308Y-86117350D03*
X142050500Y-89075000D03*
X137750000Y-91300000D03*
X145450000Y-77500000D03*
X140425000Y-94625000D03*
X133425000Y-87775000D03*
X145400000Y-76600000D03*
X137150500Y-88245911D03*
X147500000Y-78100000D03*
%TO.N,+5V*%
X130100000Y-101525000D03*
X133675000Y-78025000D03*
X133625000Y-79950000D03*
X133650000Y-79000000D03*
X138025000Y-96725000D03*
%TO.N,/BANK1_DIR*%
X146272930Y-83911133D03*
X131225000Y-101550000D03*
%TO.N,/BANK2_DIR*%
X142400000Y-104275000D03*
X146285556Y-84910556D03*
%TO.N,/QSPI_CS*%
X143215283Y-85465282D03*
X141825000Y-91150000D03*
%TD*%
D16*
%TO.N,GND*%
X136425000Y-110325000D02*
X135550000Y-110325000D01*
X136987500Y-112655000D02*
X136987500Y-110887500D01*
X136987500Y-110887500D02*
X136425000Y-110325000D01*
%TO.N,/BANK1_DIR*%
X143550000Y-86634063D02*
X143550000Y-90775000D01*
X143550000Y-90775000D02*
X142275000Y-92050000D01*
X142275000Y-98850000D02*
X139575000Y-101550000D01*
X146272930Y-83911133D02*
X143550000Y-86634063D01*
X139575000Y-101550000D02*
X131225000Y-101550000D01*
X142275000Y-92050000D02*
X142275000Y-98850000D01*
%TO.N,/BANK2_DIR*%
X143900000Y-87296112D02*
X143900000Y-90919974D01*
X143900000Y-90919974D02*
X142625000Y-92194974D01*
X142625000Y-92194974D02*
X142625000Y-104175000D01*
X146285556Y-84910556D02*
X143900000Y-87296112D01*
%TO.N,/QSPI_CS*%
X142675000Y-91150000D02*
X141825000Y-91150000D01*
X143215283Y-85465282D02*
X143200000Y-85480565D01*
X143200000Y-85480565D02*
X143200000Y-90625000D01*
X143200000Y-90625000D02*
X142675000Y-91150000D01*
%TD*%
%TA.AperFunction,Conductor*%
%TO.N,GND*%
G36*
X135893054Y-71925185D02*
G01*
X135938809Y-71977989D01*
X135948753Y-72047147D01*
X135946301Y-72059620D01*
X135943528Y-72070690D01*
X135936391Y-72099180D01*
X135876915Y-72500133D01*
X135876914Y-72500143D01*
X135857025Y-72905000D01*
X135876914Y-73309857D01*
X135876914Y-73309862D01*
X135876915Y-73309866D01*
X135936392Y-73710824D01*
X135940161Y-73725867D01*
X135937357Y-73795681D01*
X135897255Y-73852896D01*
X135832586Y-73879347D01*
X135819878Y-73880000D01*
X135730000Y-73880000D01*
X135730000Y-74580000D01*
X135230000Y-74580000D01*
X135230000Y-73880000D01*
X134879287Y-73880000D01*
X134727661Y-73895418D01*
X134533618Y-73956299D01*
X134533608Y-73956304D01*
X134355784Y-74055005D01*
X134355783Y-74055005D01*
X134201469Y-74187478D01*
X134201468Y-74187479D01*
X134076981Y-74348304D01*
X133987411Y-74530906D01*
X133961754Y-74630000D01*
X134763889Y-74630000D01*
X134724390Y-74654457D01*
X134656799Y-74743962D01*
X134626105Y-74851840D01*
X134636454Y-74963521D01*
X134686448Y-75063922D01*
X134758931Y-75130000D01*
X133956634Y-75130000D01*
X133956931Y-75131946D01*
X133956933Y-75131952D01*
X134027562Y-75322657D01*
X134027565Y-75322664D01*
X134135149Y-75495267D01*
X134275264Y-75642668D01*
X134275266Y-75642669D01*
X134442197Y-75758857D01*
X134450071Y-75762236D01*
X134503917Y-75806760D01*
X134525142Y-75873328D01*
X134507009Y-75940804D01*
X134499551Y-75951674D01*
X134447302Y-76019766D01*
X134447300Y-76019769D01*
X134389313Y-76159763D01*
X134389312Y-76159765D01*
X134369534Y-76309999D01*
X134369534Y-76310000D01*
X134389312Y-76460234D01*
X134389313Y-76460236D01*
X134447302Y-76600233D01*
X134539549Y-76720451D01*
X134659767Y-76812698D01*
X134799764Y-76870687D01*
X134912280Y-76885500D01*
X134912287Y-76885500D01*
X134987713Y-76885500D01*
X134987720Y-76885500D01*
X135100236Y-76870687D01*
X135240233Y-76812698D01*
X135360451Y-76720451D01*
X135452698Y-76600233D01*
X135510687Y-76460236D01*
X135530466Y-76310000D01*
X135510687Y-76159764D01*
X135465823Y-76051453D01*
X135458354Y-75981983D01*
X135489629Y-75919504D01*
X135549718Y-75883852D01*
X135580384Y-75880000D01*
X136080713Y-75880000D01*
X136232338Y-75864581D01*
X136426381Y-75803700D01*
X136426391Y-75803695D01*
X136604215Y-75704994D01*
X136604216Y-75704994D01*
X136711276Y-75613087D01*
X136774965Y-75584355D01*
X136844077Y-75594617D01*
X136883924Y-75623900D01*
X137066812Y-75825687D01*
X137333926Y-76067784D01*
X137367154Y-76097900D01*
X137692731Y-76339364D01*
X138040408Y-76547754D01*
X138406836Y-76721061D01*
X138406850Y-76721066D01*
X138406855Y-76721068D01*
X138594641Y-76788259D01*
X138788486Y-76857618D01*
X139181684Y-76956109D01*
X139582643Y-77015586D01*
X139987500Y-77035475D01*
X140392357Y-77015586D01*
X140793316Y-76956109D01*
X141186514Y-76857618D01*
X141568164Y-76721061D01*
X141824127Y-76600000D01*
X144494540Y-76600000D01*
X144514326Y-76788256D01*
X144514327Y-76788259D01*
X144572821Y-76968285D01*
X144611190Y-77034742D01*
X144627663Y-77102642D01*
X144621734Y-77135060D01*
X144564327Y-77311740D01*
X144564326Y-77311744D01*
X144544540Y-77500000D01*
X144564326Y-77688256D01*
X144564327Y-77688259D01*
X144622818Y-77868277D01*
X144622821Y-77868284D01*
X144717467Y-78032216D01*
X144844129Y-78172887D01*
X144844129Y-78172888D01*
X144997265Y-78284148D01*
X144997270Y-78284151D01*
X145170192Y-78361142D01*
X145170197Y-78361144D01*
X145355354Y-78400500D01*
X145355355Y-78400500D01*
X145544644Y-78400500D01*
X145544646Y-78400500D01*
X145729803Y-78361144D01*
X145902730Y-78284151D01*
X146055871Y-78172888D01*
X146121500Y-78100000D01*
X146594540Y-78100000D01*
X146614326Y-78288256D01*
X146614327Y-78288259D01*
X146672818Y-78468277D01*
X146672821Y-78468284D01*
X146767467Y-78632216D01*
X146894128Y-78772887D01*
X146894129Y-78772888D01*
X147047265Y-78884148D01*
X147047270Y-78884151D01*
X147220192Y-78961142D01*
X147220197Y-78961144D01*
X147405354Y-79000500D01*
X147405355Y-79000500D01*
X147594644Y-79000500D01*
X147594646Y-79000500D01*
X147779803Y-78961144D01*
X147952730Y-78884151D01*
X148105871Y-78772888D01*
X148232533Y-78632216D01*
X148327179Y-78468284D01*
X148385674Y-78288256D01*
X148405460Y-78100000D01*
X148385674Y-77911744D01*
X148327179Y-77731716D01*
X148232533Y-77567784D01*
X148105871Y-77427112D01*
X148105870Y-77427111D01*
X147952734Y-77315851D01*
X147952729Y-77315848D01*
X147779807Y-77238857D01*
X147779802Y-77238855D01*
X147634001Y-77207865D01*
X147594646Y-77199500D01*
X147405354Y-77199500D01*
X147372897Y-77206398D01*
X147220197Y-77238855D01*
X147220192Y-77238857D01*
X147047270Y-77315848D01*
X147047265Y-77315851D01*
X146894129Y-77427111D01*
X146767466Y-77567785D01*
X146672821Y-77731715D01*
X146672818Y-77731722D01*
X146638696Y-77836740D01*
X146614326Y-77911744D01*
X146594540Y-78100000D01*
X146121500Y-78100000D01*
X146182533Y-78032216D01*
X146277179Y-77868284D01*
X146335674Y-77688256D01*
X146355460Y-77500000D01*
X146335674Y-77311744D01*
X146277179Y-77131716D01*
X146238808Y-77065256D01*
X146222336Y-76997358D01*
X146228263Y-76964945D01*
X146285674Y-76788256D01*
X146305460Y-76600000D01*
X146285674Y-76411744D01*
X146227179Y-76231716D01*
X146132533Y-76067784D01*
X146005871Y-75927112D01*
X146005870Y-75927111D01*
X145852734Y-75815851D01*
X145852729Y-75815848D01*
X145679807Y-75738857D01*
X145679802Y-75738855D01*
X145520493Y-75704994D01*
X145494646Y-75699500D01*
X145305354Y-75699500D01*
X145279507Y-75704994D01*
X145120197Y-75738855D01*
X145120192Y-75738857D01*
X144947270Y-75815848D01*
X144947265Y-75815851D01*
X144794129Y-75927111D01*
X144667466Y-76067785D01*
X144572821Y-76231715D01*
X144572818Y-76231722D01*
X144514327Y-76411740D01*
X144514326Y-76411744D01*
X144494540Y-76600000D01*
X141824127Y-76600000D01*
X141934592Y-76547754D01*
X142282269Y-76339364D01*
X142607846Y-76097900D01*
X142908187Y-75825687D01*
X143180400Y-75525346D01*
X143421864Y-75199769D01*
X143630254Y-74852092D01*
X143803561Y-74485664D01*
X143940118Y-74104014D01*
X144038609Y-73710816D01*
X144098086Y-73309857D01*
X144117975Y-72905000D01*
X144098086Y-72500143D01*
X144038609Y-72099184D01*
X144028701Y-72059629D01*
X144031506Y-71989818D01*
X144071609Y-71932603D01*
X144136279Y-71906153D01*
X144148985Y-71905500D01*
X150484019Y-71905500D01*
X150490956Y-71905889D01*
X150513854Y-71908469D01*
X150593331Y-71918932D01*
X150618097Y-71924829D01*
X150652235Y-71936775D01*
X150655484Y-71938015D01*
X150709695Y-71960469D01*
X150728195Y-71970027D01*
X150763020Y-71991909D01*
X150767767Y-71995212D01*
X150815700Y-72031993D01*
X150821795Y-72037337D01*
X150855160Y-72070702D01*
X150860505Y-72076798D01*
X150897286Y-72124731D01*
X150900597Y-72129490D01*
X150922467Y-72164296D01*
X150932036Y-72182818D01*
X150954483Y-72237014D01*
X150955723Y-72240263D01*
X150967669Y-72274401D01*
X150973566Y-72299169D01*
X150984028Y-72378632D01*
X150986610Y-72401537D01*
X150987000Y-72408486D01*
X150987000Y-109695240D01*
X150985466Y-109714686D01*
X150985230Y-109716173D01*
X150984805Y-109718547D01*
X150977302Y-109756264D01*
X150966177Y-109788351D01*
X150962886Y-109794813D01*
X150959187Y-109801124D01*
X150944119Y-109823673D01*
X150928700Y-109842460D01*
X150924960Y-109846200D01*
X150906173Y-109861619D01*
X150883624Y-109876687D01*
X150877318Y-109880382D01*
X150875670Y-109881222D01*
X150870851Y-109883677D01*
X150838764Y-109894802D01*
X150801047Y-109902305D01*
X150798673Y-109902730D01*
X150797186Y-109902966D01*
X150777740Y-109904500D01*
X150520436Y-109904500D01*
X150495937Y-109897306D01*
X150445330Y-109903969D01*
X150437228Y-109904500D01*
X150381104Y-109904500D01*
X150373430Y-109906252D01*
X150349708Y-109904797D01*
X150322441Y-109916092D01*
X150302585Y-109922420D01*
X150271150Y-109929595D01*
X150271147Y-109929596D01*
X150249506Y-109940018D01*
X150223604Y-109944282D01*
X150205026Y-109958538D01*
X150183344Y-109971881D01*
X150169534Y-109978531D01*
X150169527Y-109978536D01*
X150140144Y-110001968D01*
X150113594Y-110012806D01*
X150102378Y-110027424D01*
X150086228Y-110043880D01*
X150086278Y-110043930D01*
X150076430Y-110053778D01*
X150076380Y-110053728D01*
X150059924Y-110069878D01*
X150051257Y-110076527D01*
X150050618Y-110081173D01*
X150034468Y-110107644D01*
X150011036Y-110137027D01*
X150011031Y-110137034D01*
X150004381Y-110150844D01*
X149991038Y-110172526D01*
X149982613Y-110183504D01*
X149982808Y-110185325D01*
X149972518Y-110217006D01*
X149962096Y-110238647D01*
X149962095Y-110238650D01*
X149954920Y-110270085D01*
X149948592Y-110289941D01*
X149941471Y-110307133D01*
X149938752Y-110340930D01*
X149937000Y-110348604D01*
X149937000Y-110404727D01*
X149936469Y-110412828D01*
X149931371Y-110451545D01*
X149937000Y-110487936D01*
X149937000Y-113695240D01*
X149935466Y-113714686D01*
X149935230Y-113716173D01*
X149934805Y-113718547D01*
X149927302Y-113756264D01*
X149916177Y-113788351D01*
X149912886Y-113794813D01*
X149909187Y-113801124D01*
X149894119Y-113823673D01*
X149878700Y-113842460D01*
X149874960Y-113846200D01*
X149856147Y-113861637D01*
X149855867Y-113861824D01*
X149789185Y-113882687D01*
X149721809Y-113864187D01*
X149675130Y-113812198D01*
X149662999Y-113758710D01*
X149662999Y-111357128D01*
X149656591Y-111297517D01*
X149606296Y-111162669D01*
X149606295Y-111162668D01*
X149606293Y-111162664D01*
X149520047Y-111047455D01*
X149520044Y-111047452D01*
X149404835Y-110961206D01*
X149404828Y-110961202D01*
X149269986Y-110910910D01*
X149269985Y-110910909D01*
X149269983Y-110910909D01*
X149210373Y-110904500D01*
X149210363Y-110904500D01*
X148764633Y-110904500D01*
X148764621Y-110904501D01*
X148750748Y-110905992D01*
X148724256Y-110905991D01*
X148710389Y-110904501D01*
X148710375Y-110904500D01*
X148710373Y-110904500D01*
X148710370Y-110904500D01*
X148264633Y-110904500D01*
X148264621Y-110904501D01*
X148250748Y-110905992D01*
X148224256Y-110905991D01*
X148210389Y-110904501D01*
X148210375Y-110904500D01*
X148210373Y-110904500D01*
X148210370Y-110904500D01*
X147764633Y-110904500D01*
X147764621Y-110904501D01*
X147750748Y-110905992D01*
X147724256Y-110905991D01*
X147710389Y-110904501D01*
X147710375Y-110904500D01*
X147710373Y-110904500D01*
X147710370Y-110904500D01*
X147264633Y-110904500D01*
X147264621Y-110904501D01*
X147250748Y-110905992D01*
X147224256Y-110905991D01*
X147210389Y-110904501D01*
X147210375Y-110904500D01*
X147210373Y-110904500D01*
X147210370Y-110904500D01*
X146764629Y-110904500D01*
X146764623Y-110904501D01*
X146705016Y-110910908D01*
X146570171Y-110961202D01*
X146570164Y-110961206D01*
X146454955Y-111047452D01*
X146454953Y-111047454D01*
X146414715Y-111101204D01*
X146358780Y-111143074D01*
X146289089Y-111148057D01*
X146227766Y-111114570D01*
X146194283Y-111053246D01*
X146192510Y-111043072D01*
X146188531Y-111012837D01*
X146188000Y-111004737D01*
X146188000Y-110937341D01*
X146184936Y-110923917D01*
X146181511Y-110908910D01*
X146182808Y-110887737D01*
X146173161Y-110864448D01*
X146166830Y-110844585D01*
X146157891Y-110805420D01*
X146157890Y-110805416D01*
X146157889Y-110805415D01*
X146157889Y-110805412D01*
X146136689Y-110761391D01*
X146132947Y-110738667D01*
X146121400Y-110723618D01*
X146108058Y-110701936D01*
X146099177Y-110683496D01*
X146099175Y-110683493D01*
X146058616Y-110632633D01*
X146049135Y-110609411D01*
X146037866Y-110600764D01*
X146016404Y-110579699D01*
X146014808Y-110577697D01*
X146013946Y-110577010D01*
X146012800Y-110576096D01*
X145991733Y-110554632D01*
X145988423Y-110550318D01*
X145986331Y-110550030D01*
X145959866Y-110533883D01*
X145909007Y-110493325D01*
X145909006Y-110493324D01*
X145909003Y-110493322D01*
X145890565Y-110484443D01*
X145868880Y-110471099D01*
X145862055Y-110465862D01*
X145831105Y-110455808D01*
X145787092Y-110434612D01*
X145787080Y-110434608D01*
X145747912Y-110425669D01*
X145728051Y-110419339D01*
X145713754Y-110413417D01*
X145683589Y-110410988D01*
X145648373Y-110402951D01*
X145648741Y-110401337D01*
X145640769Y-110397986D01*
X145603684Y-110402869D01*
X145571314Y-110402869D01*
X145542710Y-110399103D01*
X145541884Y-110399660D01*
X145526619Y-110402906D01*
X145526629Y-110402950D01*
X145491411Y-110410988D01*
X145470239Y-110409690D01*
X145446943Y-110419340D01*
X145427086Y-110425669D01*
X145387917Y-110434609D01*
X145387911Y-110434611D01*
X145343891Y-110455810D01*
X145321166Y-110459551D01*
X145306113Y-110471102D01*
X145284433Y-110484444D01*
X145265994Y-110493324D01*
X145215134Y-110533883D01*
X145191910Y-110543363D01*
X145183262Y-110554635D01*
X145162205Y-110576091D01*
X145160194Y-110577694D01*
X145158591Y-110579705D01*
X145137135Y-110600762D01*
X145132820Y-110604072D01*
X145132533Y-110606163D01*
X145116383Y-110632634D01*
X145075824Y-110683494D01*
X145066944Y-110701933D01*
X145053602Y-110723613D01*
X145048362Y-110730441D01*
X145038310Y-110761391D01*
X145017111Y-110805411D01*
X145017109Y-110805417D01*
X145008169Y-110844586D01*
X145001840Y-110864444D01*
X144999740Y-110869514D01*
X144955899Y-110923917D01*
X144889605Y-110945983D01*
X144841846Y-110938244D01*
X144769882Y-110911403D01*
X144769872Y-110911401D01*
X144710344Y-110905000D01*
X144662500Y-110905000D01*
X144662500Y-112706000D01*
X144642815Y-112773039D01*
X144590011Y-112818794D01*
X144538500Y-112830000D01*
X137287000Y-112830000D01*
X137219961Y-112810315D01*
X137174206Y-112757511D01*
X137163000Y-112706001D01*
X137162999Y-112604001D01*
X137182683Y-112536962D01*
X137235486Y-112491206D01*
X137286999Y-112480000D01*
X137312500Y-112480000D01*
X137312500Y-110905000D01*
X137662500Y-110905000D01*
X137662500Y-112480000D01*
X137812500Y-112480000D01*
X137812500Y-110905000D01*
X138162500Y-110905000D01*
X138162500Y-112480000D01*
X138312500Y-112480000D01*
X138312500Y-110905000D01*
X138662500Y-110905000D01*
X138662500Y-112480000D01*
X138812500Y-112480000D01*
X138812500Y-110905000D01*
X139162500Y-110905000D01*
X139162500Y-112480000D01*
X139312500Y-112480000D01*
X139312500Y-110905000D01*
X139662500Y-110905000D01*
X139662500Y-112480000D01*
X139812500Y-112480000D01*
X139812500Y-110905000D01*
X140162500Y-110905000D01*
X140162500Y-112480000D01*
X140312500Y-112480000D01*
X140312500Y-110905000D01*
X140662500Y-110905000D01*
X140662500Y-112480000D01*
X140812500Y-112480000D01*
X140812500Y-110905000D01*
X141162500Y-110905000D01*
X141162500Y-112480000D01*
X141312500Y-112480000D01*
X141312500Y-110905000D01*
X141662500Y-110905000D01*
X141662500Y-112480000D01*
X141812500Y-112480000D01*
X141812500Y-110905000D01*
X142162500Y-110905000D01*
X142162500Y-112480000D01*
X142312500Y-112480000D01*
X142312500Y-110905000D01*
X142662500Y-110905000D01*
X142662500Y-112480000D01*
X142812500Y-112480000D01*
X142812500Y-110905000D01*
X143162500Y-110905000D01*
X143162500Y-112480000D01*
X143312500Y-112480000D01*
X143312500Y-110905000D01*
X143662500Y-110905000D01*
X143662500Y-112480000D01*
X143812500Y-112480000D01*
X143812500Y-110905000D01*
X144162500Y-110905000D01*
X144162500Y-112480000D01*
X144312500Y-112480000D01*
X144312500Y-110905000D01*
X144264667Y-110905000D01*
X144250753Y-110906496D01*
X144224247Y-110906496D01*
X144210332Y-110905000D01*
X144162500Y-110905000D01*
X143812500Y-110905000D01*
X143764667Y-110905000D01*
X143750753Y-110906496D01*
X143724247Y-110906496D01*
X143710332Y-110905000D01*
X143662500Y-110905000D01*
X143312500Y-110905000D01*
X143264667Y-110905000D01*
X143250753Y-110906496D01*
X143224247Y-110906496D01*
X143210332Y-110905000D01*
X143162500Y-110905000D01*
X142812500Y-110905000D01*
X142764667Y-110905000D01*
X142750753Y-110906496D01*
X142724247Y-110906496D01*
X142710332Y-110905000D01*
X142662500Y-110905000D01*
X142312500Y-110905000D01*
X142264667Y-110905000D01*
X142250753Y-110906496D01*
X142224247Y-110906496D01*
X142210332Y-110905000D01*
X142162500Y-110905000D01*
X141812500Y-110905000D01*
X141764667Y-110905000D01*
X141750753Y-110906496D01*
X141724247Y-110906496D01*
X141710332Y-110905000D01*
X141662500Y-110905000D01*
X141312500Y-110905000D01*
X141264667Y-110905000D01*
X141250753Y-110906496D01*
X141224247Y-110906496D01*
X141210332Y-110905000D01*
X141162500Y-110905000D01*
X140812500Y-110905000D01*
X140764667Y-110905000D01*
X140750753Y-110906496D01*
X140724247Y-110906496D01*
X140710332Y-110905000D01*
X140662500Y-110905000D01*
X140312500Y-110905000D01*
X140264667Y-110905000D01*
X140250753Y-110906496D01*
X140224247Y-110906496D01*
X140210332Y-110905000D01*
X140162500Y-110905000D01*
X139812500Y-110905000D01*
X139764667Y-110905000D01*
X139750753Y-110906496D01*
X139724247Y-110906496D01*
X139710332Y-110905000D01*
X139662500Y-110905000D01*
X139312500Y-110905000D01*
X139264667Y-110905000D01*
X139250753Y-110906496D01*
X139224247Y-110906496D01*
X139210332Y-110905000D01*
X139162500Y-110905000D01*
X138812500Y-110905000D01*
X138764667Y-110905000D01*
X138750753Y-110906496D01*
X138724247Y-110906496D01*
X138710332Y-110905000D01*
X138662500Y-110905000D01*
X138312500Y-110905000D01*
X138264667Y-110905000D01*
X138250753Y-110906496D01*
X138224247Y-110906496D01*
X138210332Y-110905000D01*
X138162500Y-110905000D01*
X137812500Y-110905000D01*
X137764667Y-110905000D01*
X137750753Y-110906496D01*
X137724247Y-110906496D01*
X137710332Y-110905000D01*
X137662500Y-110905000D01*
X137312500Y-110905000D01*
X137264667Y-110905000D01*
X137250753Y-110906496D01*
X137224247Y-110906496D01*
X137210332Y-110905000D01*
X137162500Y-110905000D01*
X137162500Y-110906372D01*
X137142815Y-110973411D01*
X137090011Y-111019166D01*
X137020853Y-111029110D01*
X136964189Y-111005639D01*
X136904832Y-110961204D01*
X136872484Y-110949139D01*
X136828139Y-110920639D01*
X136812500Y-110905000D01*
X136764669Y-110905000D01*
X136753094Y-110906244D01*
X136726600Y-110906243D01*
X136710389Y-110904501D01*
X136710375Y-110904500D01*
X136710373Y-110904500D01*
X136710370Y-110904500D01*
X136264633Y-110904500D01*
X136264621Y-110904501D01*
X136250748Y-110905992D01*
X136224256Y-110905991D01*
X136210389Y-110904501D01*
X136210375Y-110904500D01*
X136210373Y-110904500D01*
X136210370Y-110904500D01*
X135764633Y-110904500D01*
X135764621Y-110904501D01*
X135750748Y-110905992D01*
X135724256Y-110905991D01*
X135710389Y-110904501D01*
X135710375Y-110904500D01*
X135710373Y-110904500D01*
X135710370Y-110904500D01*
X135264633Y-110904500D01*
X135264621Y-110904501D01*
X135250748Y-110905992D01*
X135224256Y-110905991D01*
X135210389Y-110904501D01*
X135210375Y-110904500D01*
X135210373Y-110904500D01*
X135210370Y-110904500D01*
X134764633Y-110904500D01*
X134764621Y-110904501D01*
X134750748Y-110905992D01*
X134724256Y-110905991D01*
X134710389Y-110904501D01*
X134710375Y-110904500D01*
X134710373Y-110904500D01*
X134710370Y-110904500D01*
X134264633Y-110904500D01*
X134264621Y-110904501D01*
X134250748Y-110905992D01*
X134224256Y-110905991D01*
X134210389Y-110904501D01*
X134210375Y-110904500D01*
X134210373Y-110904500D01*
X134210370Y-110904500D01*
X133764633Y-110904500D01*
X133764621Y-110904501D01*
X133750748Y-110905992D01*
X133724256Y-110905991D01*
X133710389Y-110904501D01*
X133710375Y-110904500D01*
X133710373Y-110904500D01*
X133710370Y-110904500D01*
X133264633Y-110904500D01*
X133264621Y-110904501D01*
X133250748Y-110905992D01*
X133224256Y-110905991D01*
X133210389Y-110904501D01*
X133210375Y-110904500D01*
X133210373Y-110904500D01*
X133210370Y-110904500D01*
X132764633Y-110904500D01*
X132764621Y-110904501D01*
X132750748Y-110905992D01*
X132724256Y-110905991D01*
X132710389Y-110904501D01*
X132710375Y-110904500D01*
X132710373Y-110904500D01*
X132710370Y-110904500D01*
X132264633Y-110904500D01*
X132264621Y-110904501D01*
X132250748Y-110905992D01*
X132224256Y-110905991D01*
X132210389Y-110904501D01*
X132210375Y-110904500D01*
X132210373Y-110904500D01*
X132210370Y-110904500D01*
X131764633Y-110904500D01*
X131764621Y-110904501D01*
X131750748Y-110905992D01*
X131724256Y-110905991D01*
X131710389Y-110904501D01*
X131710375Y-110904500D01*
X131710373Y-110904500D01*
X131710370Y-110904500D01*
X131264633Y-110904500D01*
X131264621Y-110904501D01*
X131250748Y-110905992D01*
X131224256Y-110905991D01*
X131210389Y-110904501D01*
X131210375Y-110904500D01*
X131210373Y-110904500D01*
X131210370Y-110904500D01*
X130764629Y-110904500D01*
X130764623Y-110904501D01*
X130705016Y-110910908D01*
X130570171Y-110961202D01*
X130570164Y-110961206D01*
X130454955Y-111047452D01*
X130454952Y-111047455D01*
X130368706Y-111162664D01*
X130368702Y-111162671D01*
X130318408Y-111297517D01*
X130312001Y-111357116D01*
X130312001Y-111357123D01*
X130312000Y-111357135D01*
X130312000Y-113758707D01*
X130292315Y-113825746D01*
X130239511Y-113871501D01*
X130170353Y-113881445D01*
X130119048Y-113861768D01*
X130118767Y-113861580D01*
X130100038Y-113846200D01*
X130096298Y-113842460D01*
X130080879Y-113823673D01*
X130073211Y-113812198D01*
X130065804Y-113801113D01*
X130062130Y-113794844D01*
X130058819Y-113788345D01*
X130047698Y-113756270D01*
X130040165Y-113718398D01*
X130039758Y-113716102D01*
X130039512Y-113714550D01*
X130039470Y-113714276D01*
X130038000Y-113695242D01*
X130038000Y-110487939D01*
X130045193Y-110463442D01*
X130038531Y-110412838D01*
X130038000Y-110404737D01*
X130038000Y-110348608D01*
X130037999Y-110348601D01*
X130036251Y-110340942D01*
X130037704Y-110317220D01*
X130026409Y-110289952D01*
X130020080Y-110270095D01*
X130012903Y-110238649D01*
X130002485Y-110217015D01*
X129998219Y-110191108D01*
X129983964Y-110172531D01*
X129970618Y-110150844D01*
X129963967Y-110137034D01*
X129963967Y-110137033D01*
X129963966Y-110137031D01*
X129940534Y-110107649D01*
X129929693Y-110081097D01*
X129915078Y-110069882D01*
X129898619Y-110053728D01*
X129898570Y-110053778D01*
X129888722Y-110043930D01*
X129888771Y-110043880D01*
X129872615Y-110027420D01*
X129865966Y-110018755D01*
X129861323Y-110018116D01*
X129834850Y-110001965D01*
X129805468Y-109978533D01*
X129805464Y-109978531D01*
X129791654Y-109971880D01*
X129769972Y-109958537D01*
X129758988Y-109950108D01*
X129757159Y-109950304D01*
X129725485Y-109940015D01*
X129703850Y-109929596D01*
X129672410Y-109922420D01*
X129652552Y-109916090D01*
X129635365Y-109908971D01*
X129601557Y-109906249D01*
X129593895Y-109904500D01*
X129593893Y-109904500D01*
X129537770Y-109904500D01*
X129529669Y-109903969D01*
X129490951Y-109898871D01*
X129454560Y-109904500D01*
X129197257Y-109904500D01*
X129177702Y-109902948D01*
X129177521Y-109902919D01*
X129176249Y-109902716D01*
X129173931Y-109902301D01*
X129136235Y-109894802D01*
X129104147Y-109883677D01*
X129103487Y-109883341D01*
X129097666Y-109880375D01*
X129091374Y-109876687D01*
X129068825Y-109861619D01*
X129050038Y-109846200D01*
X129046298Y-109842460D01*
X129030879Y-109823673D01*
X129030193Y-109822646D01*
X129015804Y-109801113D01*
X129012130Y-109794844D01*
X129008819Y-109788345D01*
X128997698Y-109756270D01*
X128990165Y-109718398D01*
X128989758Y-109716102D01*
X128989512Y-109714550D01*
X128989470Y-109714276D01*
X128988000Y-109695242D01*
X128988000Y-109695240D01*
X128988000Y-101799597D01*
X129007684Y-101732562D01*
X129060488Y-101686807D01*
X129129646Y-101676863D01*
X129193202Y-101705888D01*
X129229930Y-101761282D01*
X129272819Y-101893280D01*
X129272821Y-101893284D01*
X129367467Y-102057216D01*
X129433421Y-102130465D01*
X129494129Y-102197888D01*
X129647265Y-102309148D01*
X129647270Y-102309151D01*
X129820192Y-102386142D01*
X129820197Y-102386144D01*
X130005354Y-102425500D01*
X130005355Y-102425500D01*
X130194644Y-102425500D01*
X130194646Y-102425500D01*
X130379803Y-102386144D01*
X130552730Y-102309151D01*
X130572409Y-102294852D01*
X130638212Y-102271372D01*
X130706266Y-102287196D01*
X130718181Y-102294853D01*
X130772264Y-102334147D01*
X130772270Y-102334151D01*
X130945192Y-102411142D01*
X130945197Y-102411144D01*
X131130354Y-102450500D01*
X131130355Y-102450500D01*
X131319644Y-102450500D01*
X131319646Y-102450500D01*
X131504803Y-102411144D01*
X131677730Y-102334151D01*
X131830871Y-102222888D01*
X131881618Y-102166527D01*
X131941105Y-102129879D01*
X131973768Y-102125500D01*
X139533219Y-102125500D01*
X139541317Y-102126030D01*
X139561734Y-102128718D01*
X139574999Y-102130465D01*
X139575000Y-102130465D01*
X139610785Y-102125754D01*
X139610809Y-102125751D01*
X139612715Y-102125500D01*
X139612720Y-102125500D01*
X139725236Y-102110687D01*
X139865233Y-102052698D01*
X139910545Y-102017929D01*
X139923516Y-102007975D01*
X139963362Y-101977402D01*
X139963370Y-101977394D01*
X139985449Y-101960453D01*
X139985451Y-101960451D01*
X140006138Y-101933489D01*
X140011480Y-101927398D01*
X141837820Y-100101058D01*
X141899142Y-100067575D01*
X141968834Y-100072559D01*
X142024767Y-100114431D01*
X142049184Y-100179895D01*
X142049500Y-100188741D01*
X142049500Y-103364806D01*
X142029815Y-103431845D01*
X141977011Y-103477600D01*
X141975937Y-103478085D01*
X141947268Y-103490849D01*
X141794129Y-103602111D01*
X141667466Y-103742785D01*
X141572821Y-103906715D01*
X141572818Y-103906722D01*
X141514327Y-104086740D01*
X141514326Y-104086744D01*
X141494540Y-104275000D01*
X141514326Y-104463256D01*
X141514327Y-104463259D01*
X141572818Y-104643277D01*
X141572821Y-104643284D01*
X141667467Y-104807216D01*
X141794129Y-104947887D01*
X141794129Y-104947888D01*
X141947265Y-105059148D01*
X141947270Y-105059151D01*
X142120192Y-105136142D01*
X142120197Y-105136144D01*
X142305354Y-105175500D01*
X142305355Y-105175500D01*
X142494644Y-105175500D01*
X142494646Y-105175500D01*
X142679803Y-105136144D01*
X142852730Y-105059151D01*
X143005871Y-104947888D01*
X143132533Y-104807216D01*
X143227179Y-104643284D01*
X143285674Y-104463256D01*
X143305460Y-104275000D01*
X143285674Y-104086744D01*
X143227179Y-103906716D01*
X143227178Y-103906715D01*
X143227178Y-103906713D01*
X143217112Y-103889277D01*
X143200500Y-103827279D01*
X143200500Y-92484715D01*
X143220185Y-92417676D01*
X143236814Y-92397038D01*
X144277398Y-91356454D01*
X144283489Y-91351112D01*
X144310451Y-91330425D01*
X144327394Y-91308344D01*
X144327405Y-91308332D01*
X144402698Y-91210207D01*
X144460687Y-91070210D01*
X144465263Y-91035451D01*
X144475500Y-90957694D01*
X144475500Y-90957688D01*
X144480465Y-90919974D01*
X144476030Y-90886290D01*
X144475500Y-90878193D01*
X144475500Y-87585854D01*
X144495185Y-87518815D01*
X144511819Y-87498173D01*
X146162617Y-85847375D01*
X146223940Y-85813890D01*
X146250298Y-85811056D01*
X146380200Y-85811056D01*
X146380202Y-85811056D01*
X146565359Y-85771700D01*
X146738286Y-85694707D01*
X146891427Y-85583444D01*
X147018089Y-85442772D01*
X147112735Y-85278840D01*
X147171230Y-85098812D01*
X147191016Y-84910556D01*
X147171230Y-84722300D01*
X147112735Y-84542272D01*
X147066335Y-84461906D01*
X147049864Y-84394011D01*
X147066335Y-84337914D01*
X147100109Y-84279417D01*
X147158604Y-84099389D01*
X147178390Y-83911133D01*
X147158604Y-83722877D01*
X147100109Y-83542849D01*
X147005463Y-83378917D01*
X146878801Y-83238245D01*
X146853689Y-83220000D01*
X146725664Y-83126984D01*
X146725659Y-83126981D01*
X146552737Y-83049990D01*
X146552732Y-83049988D01*
X146406930Y-83018998D01*
X146367576Y-83010633D01*
X146178284Y-83010633D01*
X146145827Y-83017531D01*
X145993127Y-83049988D01*
X145993122Y-83049990D01*
X145820200Y-83126981D01*
X145820195Y-83126984D01*
X145667059Y-83238244D01*
X145540396Y-83378918D01*
X145445751Y-83542848D01*
X145445748Y-83542855D01*
X145426037Y-83603521D01*
X145387256Y-83722877D01*
X145367470Y-83911132D01*
X145367470Y-83911135D01*
X145369997Y-83935185D01*
X145357426Y-84003915D01*
X145334357Y-84035824D01*
X144241116Y-85129065D01*
X144179793Y-85162550D01*
X144110101Y-85157566D01*
X144054168Y-85115694D01*
X144046302Y-85102284D01*
X144045711Y-85102626D01*
X144042461Y-85096997D01*
X143947816Y-84933066D01*
X143821154Y-84792394D01*
X143821153Y-84792393D01*
X143668017Y-84681133D01*
X143668012Y-84681130D01*
X143495090Y-84604139D01*
X143495085Y-84604137D01*
X143349284Y-84573147D01*
X143309929Y-84564782D01*
X143120637Y-84564782D01*
X143088180Y-84571680D01*
X142935480Y-84604137D01*
X142935475Y-84604139D01*
X142762553Y-84681130D01*
X142762548Y-84681133D01*
X142609412Y-84792393D01*
X142482749Y-84933067D01*
X142388104Y-85096997D01*
X142388101Y-85097004D01*
X142331522Y-85271138D01*
X142329609Y-85277026D01*
X142309823Y-85465282D01*
X142329609Y-85653538D01*
X142329610Y-85653541D01*
X142388101Y-85833559D01*
X142388104Y-85833566D01*
X142482750Y-85997498D01*
X142592652Y-86119556D01*
X142622880Y-86182544D01*
X142624500Y-86202525D01*
X142624500Y-88153898D01*
X142604815Y-88220937D01*
X142552011Y-88266692D01*
X142482853Y-88276636D01*
X142450064Y-88267177D01*
X142330307Y-88213857D01*
X142330302Y-88213855D01*
X142184500Y-88182865D01*
X142145146Y-88174500D01*
X141955854Y-88174500D01*
X141923397Y-88181398D01*
X141770697Y-88213855D01*
X141770692Y-88213857D01*
X141597770Y-88290848D01*
X141597765Y-88290851D01*
X141444629Y-88402111D01*
X141317966Y-88542785D01*
X141223321Y-88706715D01*
X141223318Y-88706722D01*
X141164827Y-88886740D01*
X141164826Y-88886744D01*
X141145040Y-89075000D01*
X141164826Y-89263256D01*
X141164827Y-89263259D01*
X141223318Y-89443277D01*
X141223321Y-89443284D01*
X141317967Y-89607216D01*
X141444629Y-89747887D01*
X141444629Y-89747888D01*
X141597765Y-89859148D01*
X141597770Y-89859151D01*
X141770692Y-89936142D01*
X141770697Y-89936144D01*
X141955854Y-89975500D01*
X141955855Y-89975500D01*
X142145144Y-89975500D01*
X142145146Y-89975500D01*
X142330303Y-89936144D01*
X142450065Y-89882821D01*
X142519313Y-89873536D01*
X142582590Y-89903164D01*
X142619804Y-89962299D01*
X142624500Y-89996101D01*
X142624500Y-90335256D01*
X142604815Y-90402295D01*
X142588181Y-90422937D01*
X142565493Y-90445625D01*
X142504170Y-90479110D01*
X142434478Y-90474126D01*
X142404927Y-90458262D01*
X142277734Y-90365851D01*
X142277729Y-90365848D01*
X142104807Y-90288857D01*
X142104802Y-90288855D01*
X141959001Y-90257865D01*
X141919646Y-90249500D01*
X141730354Y-90249500D01*
X141697897Y-90256398D01*
X141545197Y-90288855D01*
X141545192Y-90288857D01*
X141372270Y-90365848D01*
X141372265Y-90365851D01*
X141219129Y-90477111D01*
X141092466Y-90617785D01*
X140997821Y-90781715D01*
X140997818Y-90781722D01*
X140941263Y-90955783D01*
X140939326Y-90961744D01*
X140919540Y-91150000D01*
X140939326Y-91338256D01*
X140939327Y-91338259D01*
X140997818Y-91518277D01*
X140997821Y-91518284D01*
X141092467Y-91682216D01*
X141219128Y-91822888D01*
X141219129Y-91822888D01*
X141372265Y-91934148D01*
X141372270Y-91934151D01*
X141545192Y-92011142D01*
X141545197Y-92011144D01*
X141601281Y-92023065D01*
X141662763Y-92056257D01*
X141696539Y-92117420D01*
X141699500Y-92144355D01*
X141699500Y-98560258D01*
X141679815Y-98627297D01*
X141663181Y-98647939D01*
X139372939Y-100938181D01*
X139311616Y-100971666D01*
X139285258Y-100974500D01*
X131973768Y-100974500D01*
X131906729Y-100954815D01*
X131881618Y-100933472D01*
X131830870Y-100877111D01*
X131830864Y-100877106D01*
X131677734Y-100765851D01*
X131677729Y-100765848D01*
X131504807Y-100688857D01*
X131504802Y-100688855D01*
X131359000Y-100657865D01*
X131319646Y-100649500D01*
X131130354Y-100649500D01*
X131097897Y-100656398D01*
X130945197Y-100688855D01*
X130945192Y-100688857D01*
X130772268Y-100765849D01*
X130752586Y-100780149D01*
X130686779Y-100803627D01*
X130618726Y-100787800D01*
X130606827Y-100780152D01*
X130552730Y-100740849D01*
X130552729Y-100740848D01*
X130379807Y-100663857D01*
X130379802Y-100663855D01*
X130234000Y-100632865D01*
X130194646Y-100624500D01*
X130005354Y-100624500D01*
X129972897Y-100631398D01*
X129820197Y-100663855D01*
X129820192Y-100663857D01*
X129647270Y-100740848D01*
X129647265Y-100740851D01*
X129494129Y-100852111D01*
X129367466Y-100992785D01*
X129272821Y-101156715D01*
X129272819Y-101156719D01*
X129229930Y-101288717D01*
X129190492Y-101346392D01*
X129126133Y-101373590D01*
X129057287Y-101361675D01*
X129005811Y-101314430D01*
X128988000Y-101250401D01*
X128988000Y-96725000D01*
X137119540Y-96725000D01*
X137139326Y-96913256D01*
X137139327Y-96913259D01*
X137197818Y-97093277D01*
X137197821Y-97093284D01*
X137292467Y-97257216D01*
X137419128Y-97397888D01*
X137419129Y-97397888D01*
X137572265Y-97509148D01*
X137572270Y-97509151D01*
X137745192Y-97586142D01*
X137745197Y-97586144D01*
X137930354Y-97625500D01*
X137930355Y-97625500D01*
X138119644Y-97625500D01*
X138119646Y-97625500D01*
X138304803Y-97586144D01*
X138477730Y-97509151D01*
X138630871Y-97397888D01*
X138757533Y-97257216D01*
X138852179Y-97093284D01*
X138910674Y-96913256D01*
X138930460Y-96725000D01*
X138910674Y-96536744D01*
X138852179Y-96356716D01*
X138757533Y-96192784D01*
X138630871Y-96052112D01*
X138630870Y-96052111D01*
X138477734Y-95940851D01*
X138477729Y-95940848D01*
X138304807Y-95863857D01*
X138304802Y-95863855D01*
X138159000Y-95832865D01*
X138119646Y-95824500D01*
X137930354Y-95824500D01*
X137897897Y-95831398D01*
X137745197Y-95863855D01*
X137745192Y-95863857D01*
X137572270Y-95940848D01*
X137572265Y-95940851D01*
X137419129Y-96052111D01*
X137292466Y-96192785D01*
X137197821Y-96356715D01*
X137197818Y-96356722D01*
X137139327Y-96536740D01*
X137139326Y-96536744D01*
X137119540Y-96725000D01*
X128988000Y-96725000D01*
X128988000Y-94625000D01*
X139519540Y-94625000D01*
X139539326Y-94813256D01*
X139539327Y-94813259D01*
X139597818Y-94993277D01*
X139597821Y-94993284D01*
X139692467Y-95157216D01*
X139819128Y-95297888D01*
X139819129Y-95297888D01*
X139972265Y-95409148D01*
X139972270Y-95409151D01*
X140145192Y-95486142D01*
X140145197Y-95486144D01*
X140330354Y-95525500D01*
X140330355Y-95525500D01*
X140519644Y-95525500D01*
X140519646Y-95525500D01*
X140704803Y-95486144D01*
X140877730Y-95409151D01*
X141030871Y-95297888D01*
X141157533Y-95157216D01*
X141252179Y-94993284D01*
X141310674Y-94813256D01*
X141330460Y-94625000D01*
X141310674Y-94436744D01*
X141252179Y-94256716D01*
X141157533Y-94092784D01*
X141030871Y-93952112D01*
X141030870Y-93952111D01*
X140877734Y-93840851D01*
X140877729Y-93840848D01*
X140704807Y-93763857D01*
X140704802Y-93763855D01*
X140559000Y-93732865D01*
X140519646Y-93724500D01*
X140330354Y-93724500D01*
X140297897Y-93731398D01*
X140145197Y-93763855D01*
X140145192Y-93763857D01*
X139972270Y-93840848D01*
X139972265Y-93840851D01*
X139819129Y-93952111D01*
X139692466Y-94092785D01*
X139597821Y-94256715D01*
X139597818Y-94256722D01*
X139539327Y-94436740D01*
X139539326Y-94436744D01*
X139519540Y-94625000D01*
X128988000Y-94625000D01*
X128988000Y-91300000D01*
X136844540Y-91300000D01*
X136864326Y-91488256D01*
X136864327Y-91488259D01*
X136922818Y-91668277D01*
X136922821Y-91668284D01*
X137017467Y-91832216D01*
X137109247Y-91934148D01*
X137144129Y-91972888D01*
X137297265Y-92084148D01*
X137297270Y-92084151D01*
X137470192Y-92161142D01*
X137470197Y-92161144D01*
X137655354Y-92200500D01*
X137655355Y-92200500D01*
X137844644Y-92200500D01*
X137844646Y-92200500D01*
X138029803Y-92161144D01*
X138202730Y-92084151D01*
X138355871Y-91972888D01*
X138482533Y-91832216D01*
X138577179Y-91668284D01*
X138635674Y-91488256D01*
X138655460Y-91300000D01*
X138635674Y-91111744D01*
X138577179Y-90931716D01*
X138482533Y-90767784D01*
X138355871Y-90627112D01*
X138355870Y-90627111D01*
X138202734Y-90515851D01*
X138202729Y-90515848D01*
X138029807Y-90438857D01*
X138029802Y-90438855D01*
X137884000Y-90407865D01*
X137844646Y-90399500D01*
X137655354Y-90399500D01*
X137622897Y-90406398D01*
X137470197Y-90438855D01*
X137470192Y-90438857D01*
X137297270Y-90515848D01*
X137297265Y-90515851D01*
X137144129Y-90627111D01*
X137017466Y-90767785D01*
X136922821Y-90931715D01*
X136922818Y-90931722D01*
X136877821Y-91070210D01*
X136864326Y-91111744D01*
X136844540Y-91300000D01*
X128988000Y-91300000D01*
X128988000Y-87775000D01*
X132519540Y-87775000D01*
X132539326Y-87963256D01*
X132539327Y-87963259D01*
X132597818Y-88143277D01*
X132597821Y-88143284D01*
X132692467Y-88307216D01*
X132777911Y-88402111D01*
X132819129Y-88447888D01*
X132972265Y-88559148D01*
X132972270Y-88559151D01*
X133145192Y-88636142D01*
X133145197Y-88636144D01*
X133330354Y-88675500D01*
X133330355Y-88675500D01*
X133519644Y-88675500D01*
X133519646Y-88675500D01*
X133704803Y-88636144D01*
X133877730Y-88559151D01*
X134030871Y-88447888D01*
X134157533Y-88307216D01*
X134192927Y-88245911D01*
X136245040Y-88245911D01*
X136264826Y-88434167D01*
X136264827Y-88434170D01*
X136323318Y-88614188D01*
X136323321Y-88614195D01*
X136417967Y-88778127D01*
X136544629Y-88918798D01*
X136544629Y-88918799D01*
X136697765Y-89030059D01*
X136697770Y-89030062D01*
X136870692Y-89107053D01*
X136870697Y-89107055D01*
X137055854Y-89146411D01*
X137055855Y-89146411D01*
X137245144Y-89146411D01*
X137245146Y-89146411D01*
X137430303Y-89107055D01*
X137603230Y-89030062D01*
X137756371Y-88918799D01*
X137883033Y-88778127D01*
X137977679Y-88614195D01*
X138036174Y-88434167D01*
X138055960Y-88245911D01*
X138036174Y-88057655D01*
X137977679Y-87877627D01*
X137883033Y-87713695D01*
X137756371Y-87573023D01*
X137756370Y-87573022D01*
X137603234Y-87461762D01*
X137603229Y-87461759D01*
X137430307Y-87384768D01*
X137430302Y-87384766D01*
X137284500Y-87353776D01*
X137245146Y-87345411D01*
X137055854Y-87345411D01*
X137023397Y-87352309D01*
X136870697Y-87384766D01*
X136870692Y-87384768D01*
X136697770Y-87461759D01*
X136697765Y-87461762D01*
X136544629Y-87573022D01*
X136417966Y-87713696D01*
X136323321Y-87877626D01*
X136323318Y-87877633D01*
X136295498Y-87963256D01*
X136264826Y-88057655D01*
X136245040Y-88245911D01*
X134192927Y-88245911D01*
X134252179Y-88143284D01*
X134310674Y-87963256D01*
X134330460Y-87775000D01*
X134310674Y-87586744D01*
X134252179Y-87406716D01*
X134157533Y-87242784D01*
X134030871Y-87102112D01*
X134030870Y-87102111D01*
X133877734Y-86990851D01*
X133877729Y-86990848D01*
X133704807Y-86913857D01*
X133704802Y-86913855D01*
X133559000Y-86882865D01*
X133519646Y-86874500D01*
X133330354Y-86874500D01*
X133297897Y-86881398D01*
X133145197Y-86913855D01*
X133145192Y-86913857D01*
X132972270Y-86990848D01*
X132972265Y-86990851D01*
X132819129Y-87102111D01*
X132692466Y-87242785D01*
X132597821Y-87406715D01*
X132597818Y-87406722D01*
X132543784Y-87573023D01*
X132539326Y-87586744D01*
X132519540Y-87775000D01*
X128988000Y-87775000D01*
X128988000Y-86117350D01*
X135927848Y-86117350D01*
X135947634Y-86305606D01*
X135947635Y-86305609D01*
X136006126Y-86485627D01*
X136006129Y-86485634D01*
X136100775Y-86649566D01*
X136227436Y-86790238D01*
X136227437Y-86790238D01*
X136380573Y-86901498D01*
X136380578Y-86901501D01*
X136553500Y-86978492D01*
X136553505Y-86978494D01*
X136738662Y-87017850D01*
X136738663Y-87017850D01*
X136927952Y-87017850D01*
X136927954Y-87017850D01*
X137113111Y-86978494D01*
X137286038Y-86901501D01*
X137439179Y-86790238D01*
X137565841Y-86649566D01*
X137660487Y-86485634D01*
X137718982Y-86305606D01*
X137738768Y-86117350D01*
X137718982Y-85929094D01*
X137660487Y-85749066D01*
X137565841Y-85585134D01*
X137439179Y-85444462D01*
X137436853Y-85442772D01*
X137286042Y-85333201D01*
X137286037Y-85333198D01*
X137113115Y-85256207D01*
X137113110Y-85256205D01*
X136967308Y-85225215D01*
X136927954Y-85216850D01*
X136738662Y-85216850D01*
X136706205Y-85223748D01*
X136553505Y-85256205D01*
X136553500Y-85256207D01*
X136380578Y-85333198D01*
X136380573Y-85333201D01*
X136227437Y-85444461D01*
X136100774Y-85585135D01*
X136006129Y-85749065D01*
X136006126Y-85749072D01*
X135974186Y-85847375D01*
X135947634Y-85929094D01*
X135927848Y-86117350D01*
X128988000Y-86117350D01*
X128988000Y-83770000D01*
X130026634Y-83770000D01*
X130026931Y-83771946D01*
X130026933Y-83771952D01*
X130097562Y-83962657D01*
X130097565Y-83962664D01*
X130205149Y-84135267D01*
X130345264Y-84282668D01*
X130345266Y-84282669D01*
X130512195Y-84398856D01*
X130699092Y-84479059D01*
X130898310Y-84520000D01*
X131050000Y-84520000D01*
X131050000Y-83820000D01*
X131550000Y-83820000D01*
X131550000Y-84520000D01*
X131650713Y-84520000D01*
X131802338Y-84504581D01*
X131996381Y-84443700D01*
X131996391Y-84443695D01*
X132174215Y-84344994D01*
X132174216Y-84344994D01*
X132328530Y-84212521D01*
X132328531Y-84212520D01*
X132453018Y-84051695D01*
X132542588Y-83869093D01*
X132568246Y-83770000D01*
X133956634Y-83770000D01*
X133956931Y-83771946D01*
X133956933Y-83771952D01*
X134027562Y-83962657D01*
X134027565Y-83962664D01*
X134135149Y-84135267D01*
X134275264Y-84282668D01*
X134275266Y-84282669D01*
X134442195Y-84398856D01*
X134629092Y-84479059D01*
X134828310Y-84520000D01*
X135230000Y-84520000D01*
X135230000Y-83820000D01*
X135730000Y-83820000D01*
X135730000Y-84520000D01*
X136080713Y-84520000D01*
X136232338Y-84504581D01*
X136426381Y-84443700D01*
X136426391Y-84443695D01*
X136604215Y-84344994D01*
X136604216Y-84344994D01*
X136758530Y-84212521D01*
X136758531Y-84212520D01*
X136883018Y-84051695D01*
X136972588Y-83869093D01*
X136998246Y-83770000D01*
X136196111Y-83770000D01*
X136235610Y-83745543D01*
X136303201Y-83656038D01*
X136333895Y-83548160D01*
X136323546Y-83436479D01*
X136273552Y-83336078D01*
X136201069Y-83270000D01*
X137003366Y-83270000D01*
X137003068Y-83268053D01*
X137003066Y-83268047D01*
X136932437Y-83077342D01*
X136932434Y-83077335D01*
X136824850Y-82904732D01*
X136684735Y-82757331D01*
X136684733Y-82757330D01*
X136517804Y-82641143D01*
X136330907Y-82560940D01*
X136131690Y-82520000D01*
X135580384Y-82520000D01*
X135513345Y-82500315D01*
X135467590Y-82447511D01*
X135457646Y-82378353D01*
X135465823Y-82348547D01*
X135471716Y-82334319D01*
X135510687Y-82240236D01*
X135530466Y-82090000D01*
X135510687Y-81939764D01*
X135452698Y-81799767D01*
X135360451Y-81679549D01*
X135240233Y-81587302D01*
X135240229Y-81587300D01*
X135176801Y-81561027D01*
X135100236Y-81529313D01*
X135086171Y-81527461D01*
X134987727Y-81514500D01*
X134987720Y-81514500D01*
X134912280Y-81514500D01*
X134912272Y-81514500D01*
X134799764Y-81529313D01*
X134799763Y-81529313D01*
X134659770Y-81587300D01*
X134539549Y-81679549D01*
X134447300Y-81799770D01*
X134389313Y-81939763D01*
X134389312Y-81939765D01*
X134369534Y-82089999D01*
X134369534Y-82090000D01*
X134389312Y-82240234D01*
X134389313Y-82240236D01*
X134447300Y-82380230D01*
X134447302Y-82380234D01*
X134483624Y-82427568D01*
X134498926Y-82447511D01*
X134501799Y-82451254D01*
X134526994Y-82516423D01*
X134512956Y-82584868D01*
X134464143Y-82634858D01*
X134463603Y-82635159D01*
X134355788Y-82695002D01*
X134355783Y-82695005D01*
X134201469Y-82827478D01*
X134201468Y-82827479D01*
X134076981Y-82988304D01*
X133987411Y-83170906D01*
X133961754Y-83270000D01*
X134763889Y-83270000D01*
X134724390Y-83294457D01*
X134656799Y-83383962D01*
X134626105Y-83491840D01*
X134636454Y-83603521D01*
X134686448Y-83703922D01*
X134758931Y-83770000D01*
X133956634Y-83770000D01*
X132568246Y-83770000D01*
X131766111Y-83770000D01*
X131805610Y-83745543D01*
X131873201Y-83656038D01*
X131903895Y-83548160D01*
X131893546Y-83436479D01*
X131843552Y-83336078D01*
X131771069Y-83270000D01*
X132573366Y-83270000D01*
X132573068Y-83268053D01*
X132573066Y-83268047D01*
X132502437Y-83077342D01*
X132502434Y-83077335D01*
X132394850Y-82904732D01*
X132254735Y-82757331D01*
X132254733Y-82757330D01*
X132087804Y-82641143D01*
X131900907Y-82560940D01*
X131701690Y-82520000D01*
X131550000Y-82520000D01*
X131550000Y-83220000D01*
X131050000Y-83220000D01*
X131050000Y-82520000D01*
X130949287Y-82520000D01*
X130797661Y-82535418D01*
X130603618Y-82596299D01*
X130603608Y-82596304D01*
X130425784Y-82695005D01*
X130425783Y-82695005D01*
X130271469Y-82827478D01*
X130271468Y-82827479D01*
X130146981Y-82988304D01*
X130057411Y-83170906D01*
X130031754Y-83270000D01*
X130833889Y-83270000D01*
X130794390Y-83294457D01*
X130726799Y-83383962D01*
X130696105Y-83491840D01*
X130706454Y-83603521D01*
X130756448Y-83703922D01*
X130828931Y-83770000D01*
X130026634Y-83770000D01*
X128988000Y-83770000D01*
X128988000Y-79950000D01*
X132719540Y-79950000D01*
X132739326Y-80138256D01*
X132739327Y-80138259D01*
X132797818Y-80318277D01*
X132797821Y-80318284D01*
X132892467Y-80482216D01*
X133019128Y-80622888D01*
X133019129Y-80622888D01*
X133172265Y-80734148D01*
X133172270Y-80734151D01*
X133345192Y-80811142D01*
X133345197Y-80811144D01*
X133530354Y-80850500D01*
X133530355Y-80850500D01*
X133719644Y-80850500D01*
X133719646Y-80850500D01*
X133904803Y-80811144D01*
X134077730Y-80734151D01*
X134230871Y-80622888D01*
X134357533Y-80482216D01*
X134452179Y-80318284D01*
X134510674Y-80138256D01*
X134530460Y-79950000D01*
X134510674Y-79761744D01*
X134452179Y-79581716D01*
X134438860Y-79558648D01*
X134422390Y-79490748D01*
X134438861Y-79434651D01*
X134477179Y-79368284D01*
X134535674Y-79188256D01*
X134555460Y-79000000D01*
X134535674Y-78811744D01*
X134481112Y-78643823D01*
X134477181Y-78631722D01*
X134477180Y-78631721D01*
X134477179Y-78631716D01*
X134456643Y-78596148D01*
X134440172Y-78528249D01*
X134456644Y-78472151D01*
X134502179Y-78393284D01*
X134560674Y-78213256D01*
X134580460Y-78025000D01*
X134560674Y-77836744D01*
X134502179Y-77656716D01*
X134407533Y-77492784D01*
X134280871Y-77352112D01*
X134230962Y-77315851D01*
X134127734Y-77240851D01*
X134127729Y-77240848D01*
X133954807Y-77163857D01*
X133954802Y-77163855D01*
X133803590Y-77131715D01*
X133769646Y-77124500D01*
X133580354Y-77124500D01*
X133547897Y-77131398D01*
X133395197Y-77163855D01*
X133395192Y-77163857D01*
X133222270Y-77240848D01*
X133222265Y-77240851D01*
X133069129Y-77352111D01*
X132942466Y-77492785D01*
X132847821Y-77656715D01*
X132847818Y-77656722D01*
X132789327Y-77836740D01*
X132789326Y-77836744D01*
X132769540Y-78025000D01*
X132789326Y-78213256D01*
X132789327Y-78213259D01*
X132847818Y-78393277D01*
X132847821Y-78393284D01*
X132868354Y-78428848D01*
X132884827Y-78496749D01*
X132868355Y-78552847D01*
X132822820Y-78631716D01*
X132776951Y-78772888D01*
X132764326Y-78811744D01*
X132744540Y-79000000D01*
X132764326Y-79188256D01*
X132764327Y-79188259D01*
X132822821Y-79368285D01*
X132836137Y-79391349D01*
X132852610Y-79459249D01*
X132836137Y-79515349D01*
X132797821Y-79581714D01*
X132739327Y-79761740D01*
X132739326Y-79761744D01*
X132719540Y-79950000D01*
X128988000Y-79950000D01*
X128988000Y-75130000D01*
X130026634Y-75130000D01*
X130026931Y-75131946D01*
X130026933Y-75131952D01*
X130097562Y-75322657D01*
X130097565Y-75322664D01*
X130205149Y-75495267D01*
X130345264Y-75642668D01*
X130345266Y-75642669D01*
X130512195Y-75758856D01*
X130699092Y-75839059D01*
X130898310Y-75880000D01*
X131050000Y-75880000D01*
X131050000Y-75180000D01*
X131550000Y-75180000D01*
X131550000Y-75880000D01*
X131650713Y-75880000D01*
X131802338Y-75864581D01*
X131996381Y-75803700D01*
X131996391Y-75803695D01*
X132174215Y-75704994D01*
X132174216Y-75704994D01*
X132328530Y-75572521D01*
X132328531Y-75572520D01*
X132453018Y-75411695D01*
X132542588Y-75229093D01*
X132568246Y-75130000D01*
X131766111Y-75130000D01*
X131805610Y-75105543D01*
X131873201Y-75016038D01*
X131903895Y-74908160D01*
X131893546Y-74796479D01*
X131843552Y-74696078D01*
X131771069Y-74630000D01*
X132573366Y-74630000D01*
X132573068Y-74628053D01*
X132573066Y-74628047D01*
X132502437Y-74437342D01*
X132502434Y-74437335D01*
X132394850Y-74264732D01*
X132254735Y-74117331D01*
X132254733Y-74117330D01*
X132087804Y-74001143D01*
X131900907Y-73920940D01*
X131701690Y-73880000D01*
X131550000Y-73880000D01*
X131550000Y-74580000D01*
X131050000Y-74580000D01*
X131050000Y-73880000D01*
X130949287Y-73880000D01*
X130797661Y-73895418D01*
X130603618Y-73956299D01*
X130603608Y-73956304D01*
X130425784Y-74055005D01*
X130425783Y-74055005D01*
X130271469Y-74187478D01*
X130271468Y-74187479D01*
X130146981Y-74348304D01*
X130057411Y-74530906D01*
X130031754Y-74630000D01*
X130833889Y-74630000D01*
X130794390Y-74654457D01*
X130726799Y-74743962D01*
X130696105Y-74851840D01*
X130706454Y-74963521D01*
X130756448Y-75063922D01*
X130828931Y-75130000D01*
X130026634Y-75130000D01*
X128988000Y-75130000D01*
X128988000Y-72408486D01*
X128988390Y-72401543D01*
X128989058Y-72395603D01*
X128990972Y-72378618D01*
X129001434Y-72299153D01*
X129007326Y-72274409D01*
X129019286Y-72240229D01*
X129020493Y-72237069D01*
X129042972Y-72182799D01*
X129052524Y-72164309D01*
X129074413Y-72129473D01*
X129077693Y-72124758D01*
X129114508Y-72076779D01*
X129119827Y-72070714D01*
X129153214Y-72037327D01*
X129159279Y-72032008D01*
X129207258Y-71995193D01*
X129211973Y-71991913D01*
X129246809Y-71970024D01*
X129265299Y-71960472D01*
X129319569Y-71937993D01*
X129322729Y-71936786D01*
X129356909Y-71924826D01*
X129381656Y-71918934D01*
X129461093Y-71908475D01*
X129484043Y-71905889D01*
X129490981Y-71905500D01*
X135826015Y-71905500D01*
X135893054Y-71925185D01*
G37*
%TD.AperFunction*%
%TD*%
M02*
