%TF.GenerationSoftware,KiCad,Pcbnew,7.0.5-0*%
%TF.CreationDate,2023-07-31T21:43:18-04:00*%
%TF.ProjectId,carrier-arm14,63617272-6965-4722-9d61-726d31342e6b,rev?*%
%TF.SameCoordinates,Original*%
%TF.FileFunction,Copper,L1,Top*%
%TF.FilePolarity,Positive*%
%FSLAX46Y46*%
G04 Gerber Fmt 4.6, Leading zero omitted, Abs format (unit mm)*
G04 Created by KiCad (PCBNEW 7.0.5-0) date 2023-07-31 21:43:18*
%MOMM*%
%LPD*%
G01*
G04 APERTURE LIST*
G04 Aperture macros list*
%AMRoundRect*
0 Rectangle with rounded corners*
0 $1 Rounding radius*
0 $2 $3 $4 $5 $6 $7 $8 $9 X,Y pos of 4 corners*
0 Add a 4 corners polygon primitive as box body*
4,1,4,$2,$3,$4,$5,$6,$7,$8,$9,$2,$3,0*
0 Add four circle primitives for the rounded corners*
1,1,$1+$1,$2,$3*
1,1,$1+$1,$4,$5*
1,1,$1+$1,$6,$7*
1,1,$1+$1,$8,$9*
0 Add four rect primitives between the rounded corners*
20,1,$1+$1,$2,$3,$4,$5,0*
20,1,$1+$1,$4,$5,$6,$7,0*
20,1,$1+$1,$6,$7,$8,$9,0*
20,1,$1+$1,$8,$9,$2,$3,0*%
G04 Aperture macros list end*
%TA.AperFunction,ComponentPad*%
%ADD10C,6.000000*%
%TD*%
%TA.AperFunction,SMDPad,CuDef*%
%ADD11RoundRect,0.185000X0.915000X0.185000X-0.915000X0.185000X-0.915000X-0.185000X0.915000X-0.185000X0*%
%TD*%
%TA.AperFunction,SMDPad,CuDef*%
%ADD12R,2.200000X0.740000*%
%TD*%
%TA.AperFunction,ComponentPad*%
%ADD13C,1.100000*%
%TD*%
%TA.AperFunction,ComponentPad*%
%ADD14C,1.600000*%
%TD*%
%TA.AperFunction,SMDPad,CuDef*%
%ADD15R,0.300000X1.550000*%
%TD*%
%TA.AperFunction,SMDPad,CuDef*%
%ADD16R,0.330000X1.600000*%
%TD*%
%TA.AperFunction,SMDPad,CuDef*%
%ADD17R,1.200000X2.750000*%
%TD*%
%TA.AperFunction,ComponentPad*%
%ADD18C,3.800000*%
%TD*%
%TA.AperFunction,ViaPad*%
%ADD19C,0.800000*%
%TD*%
%TA.AperFunction,Conductor*%
%ADD20C,0.150000*%
%TD*%
%TA.AperFunction,Conductor*%
%ADD21C,0.250000*%
%TD*%
G04 APERTURE END LIST*
%TA.AperFunction,EtchedComponent*%
%TO.C,kibuzzard-64C85072*%
G36*
X135866213Y-108829744D02*
G01*
X135893994Y-108888481D01*
X135833669Y-108939281D01*
X135633644Y-108939281D01*
X135684444Y-108849588D01*
X135786838Y-108807519D01*
X135866213Y-108829744D01*
G37*
%TD.AperFunction*%
%TA.AperFunction,EtchedComponent*%
G36*
X142935350Y-108829744D02*
G01*
X142963131Y-108888481D01*
X142902806Y-108939281D01*
X142702781Y-108939281D01*
X142753581Y-108849588D01*
X142855975Y-108807519D01*
X142935350Y-108829744D01*
G37*
%TD.AperFunction*%
%TA.AperFunction,EtchedComponent*%
G36*
X134197750Y-108896419D02*
G01*
X134235056Y-108992463D01*
X134196162Y-109086919D01*
X134098531Y-109129781D01*
X133998519Y-109087713D01*
X133957244Y-108993256D01*
X133996137Y-108896419D01*
X134097737Y-108851969D01*
X134197750Y-108896419D01*
G37*
%TD.AperFunction*%
%TA.AperFunction,EtchedComponent*%
G36*
X139257113Y-108898006D02*
G01*
X139294419Y-108994050D01*
X139255525Y-109088506D01*
X139157894Y-109131369D01*
X139057881Y-109088506D01*
X139016606Y-108993256D01*
X139054706Y-108897213D01*
X139156306Y-108853556D01*
X139257113Y-108898006D01*
G37*
%TD.AperFunction*%
%TA.AperFunction,EtchedComponent*%
G36*
X140198500Y-108896419D02*
G01*
X140235806Y-108992463D01*
X140196913Y-109086919D01*
X140099281Y-109129781D01*
X139999269Y-109087713D01*
X139957994Y-108993256D01*
X139996888Y-108896419D01*
X140098488Y-108851969D01*
X140198500Y-108896419D01*
G37*
%TD.AperFunction*%
%TA.AperFunction,EtchedComponent*%
G36*
X137595794Y-108872606D02*
G01*
X137632703Y-108920628D01*
X137645006Y-108988494D01*
X137631909Y-109056756D01*
X137592619Y-109105969D01*
X137487844Y-109145656D01*
X137384656Y-109106763D01*
X137346556Y-109058344D01*
X137333856Y-108990875D01*
X137346159Y-108923208D01*
X137383069Y-108874194D01*
X137489431Y-108834506D01*
X137595794Y-108872606D01*
G37*
%TD.AperFunction*%
%TA.AperFunction,EtchedComponent*%
G36*
X146317519Y-108872606D02*
G01*
X146354428Y-108920628D01*
X146366731Y-108988494D01*
X146353634Y-109056756D01*
X146314344Y-109105969D01*
X146209569Y-109145656D01*
X146106381Y-109106763D01*
X146068281Y-109058344D01*
X146055581Y-108990875D01*
X146067884Y-108923208D01*
X146104794Y-108874194D01*
X146211156Y-108834506D01*
X146317519Y-108872606D01*
G37*
%TD.AperFunction*%
%TA.AperFunction,EtchedComponent*%
G36*
X146738697Y-108052628D02*
G01*
X146828668Y-108065973D01*
X146916897Y-108088074D01*
X147002536Y-108118716D01*
X147084758Y-108157604D01*
X147162773Y-108204365D01*
X147235829Y-108258547D01*
X147303223Y-108319628D01*
X147364305Y-108387022D01*
X147418487Y-108460078D01*
X147465247Y-108538093D01*
X147504135Y-108620315D01*
X147534777Y-108705954D01*
X147556878Y-108794183D01*
X147570223Y-108884154D01*
X147574686Y-108975000D01*
X147570223Y-109065846D01*
X147556878Y-109155817D01*
X147534777Y-109244046D01*
X147504135Y-109329685D01*
X147465247Y-109411907D01*
X147418487Y-109489922D01*
X147364305Y-109562978D01*
X147303223Y-109630372D01*
X147235829Y-109691453D01*
X147162773Y-109745635D01*
X147084758Y-109792396D01*
X147002536Y-109831284D01*
X146916897Y-109861926D01*
X146828668Y-109884027D01*
X146738697Y-109897372D01*
X146647851Y-109901835D01*
X146647719Y-109901835D01*
X146211156Y-109901835D01*
X145328506Y-109901835D01*
X144817331Y-109901835D01*
X143855306Y-109901835D01*
X143475100Y-109901835D01*
X142858356Y-109901835D01*
X142164619Y-109901835D01*
X141058131Y-109901835D01*
X140398525Y-109901835D01*
X139425388Y-109901835D01*
X138167294Y-109901835D01*
X137489431Y-109901835D01*
X136538519Y-109901835D01*
X135789219Y-109901835D01*
X135092306Y-109901835D01*
X134397775Y-109901835D01*
X133436544Y-109901835D01*
X132352281Y-109901835D01*
X132352149Y-109901835D01*
X132261303Y-109897372D01*
X132171332Y-109884027D01*
X132083103Y-109861926D01*
X131997464Y-109831284D01*
X131915242Y-109792396D01*
X131837227Y-109745635D01*
X131764171Y-109691453D01*
X131704952Y-109637781D01*
X136403581Y-109637781D01*
X136413900Y-109713584D01*
X136444856Y-109753669D01*
X136484544Y-109767163D01*
X136538519Y-109769544D01*
X136638355Y-109757197D01*
X136732547Y-109720155D01*
X136821094Y-109658419D01*
X136892531Y-109576045D01*
X136935394Y-109477091D01*
X136949681Y-109361556D01*
X136949681Y-108993256D01*
X137052869Y-108993256D01*
X137069736Y-109113708D01*
X137120338Y-109221063D01*
X137195545Y-109309566D01*
X137286231Y-109373463D01*
X137386244Y-109412158D01*
X137489431Y-109425056D01*
X137592420Y-109412952D01*
X137691838Y-109376638D01*
X137780969Y-109315519D01*
X138029181Y-109315519D01*
X138057756Y-109383781D01*
X138167294Y-109410769D01*
X138248256Y-109400450D01*
X138291119Y-109369494D01*
X138306200Y-109327425D01*
X138308581Y-109272656D01*
X138308581Y-108992463D01*
X138738794Y-108992463D01*
X138751847Y-109098472D01*
X138791005Y-109195310D01*
X138856269Y-109282975D01*
X138937408Y-109352208D01*
X139024191Y-109393747D01*
X139116619Y-109407594D01*
X139222584Y-109388544D01*
X139302356Y-109331394D01*
X139339464Y-109389734D01*
X139425388Y-109409181D01*
X139514089Y-109398466D01*
X139559531Y-109366319D01*
X139574613Y-109325838D01*
X139576994Y-109271069D01*
X139576994Y-108990875D01*
X139680181Y-108990875D01*
X139693234Y-109096973D01*
X139732392Y-109194075D01*
X139797656Y-109282181D01*
X139878178Y-109351855D01*
X139963109Y-109393659D01*
X140052450Y-109407594D01*
X140170123Y-109386559D01*
X140248506Y-109323456D01*
X140282638Y-109386163D01*
X140398525Y-109407594D01*
X140468970Y-109397275D01*
X140507269Y-109366319D01*
X140520763Y-109324250D01*
X140523144Y-109269481D01*
X140523144Y-108989288D01*
X140626331Y-108989288D01*
X140636650Y-109087316D01*
X140667606Y-109176613D01*
X140714834Y-109253011D01*
X140773969Y-109312344D01*
X140866220Y-109371434D01*
X140960941Y-109406888D01*
X141058131Y-109418706D01*
X141179575Y-109402831D01*
X141280381Y-109355206D01*
X141345866Y-109300834D01*
X141357003Y-109271069D01*
X141470881Y-109271069D01*
X141473263Y-109326631D01*
X141486756Y-109367906D01*
X141528428Y-109400053D01*
X141608994Y-109410769D01*
X141690353Y-109400450D01*
X141731231Y-109369494D01*
X141746313Y-109327425D01*
X141748694Y-109272656D01*
X141748694Y-108964681D01*
X141797906Y-108887687D01*
X141897125Y-108853556D01*
X141989994Y-108890069D01*
X142026506Y-108991669D01*
X142026506Y-109269481D01*
X142028888Y-109326631D01*
X142043969Y-109369494D01*
X142086038Y-109400450D01*
X142164619Y-109410769D01*
X142245978Y-109400450D01*
X142286856Y-109369494D01*
X142301938Y-109327425D01*
X142304319Y-109272656D01*
X142304319Y-108996431D01*
X142407506Y-108996431D01*
X142418619Y-109098913D01*
X142451956Y-109194692D01*
X142507519Y-109283769D01*
X142568439Y-109343895D01*
X142649600Y-109390925D01*
X142747430Y-109421286D01*
X142858356Y-109431406D01*
X143006291Y-109422576D01*
X143111959Y-109396084D01*
X143175360Y-109351932D01*
X143196494Y-109290119D01*
X143190213Y-109267894D01*
X143317144Y-109267894D01*
X143348100Y-109382194D01*
X143395328Y-109404816D01*
X143475100Y-109412356D01*
X143553086Y-109400847D01*
X143594956Y-109366319D01*
X143611625Y-109322663D01*
X143613805Y-109271069D01*
X143717194Y-109271069D01*
X143719575Y-109326631D01*
X143733069Y-109367906D01*
X143774741Y-109400053D01*
X143855306Y-109410769D01*
X143936666Y-109400450D01*
X143977544Y-109369494D01*
X143992625Y-109327425D01*
X143995006Y-109272656D01*
X143995006Y-109269481D01*
X144122006Y-109269481D01*
X144124388Y-109324250D01*
X144137881Y-109366319D01*
X144179553Y-109398466D01*
X144260119Y-109409181D01*
X144341478Y-109398466D01*
X144382356Y-109366319D01*
X144397438Y-109325838D01*
X144399819Y-109271069D01*
X144399819Y-108990081D01*
X144438713Y-108890069D01*
X144540313Y-108851969D01*
X144640325Y-108888481D01*
X144677631Y-108990081D01*
X144677631Y-109269481D01*
X144687156Y-109350444D01*
X144728431Y-109394497D01*
X144817331Y-109409181D01*
X144899088Y-109398466D01*
X144941156Y-109366319D01*
X144954650Y-109325838D01*
X144957031Y-109271069D01*
X144957031Y-108991669D01*
X144945301Y-108881161D01*
X144910112Y-108782472D01*
X144864860Y-108715444D01*
X145044344Y-108715444D01*
X145074506Y-108831331D01*
X145133244Y-108850381D01*
X145190394Y-108850381D01*
X145190394Y-109271069D01*
X145192775Y-109326631D01*
X145207856Y-109368700D01*
X145249925Y-109402037D01*
X145328506Y-109412356D01*
X145408675Y-109402831D01*
X145454713Y-109363938D01*
X145469794Y-109274244D01*
X145469794Y-108993256D01*
X145774594Y-108993256D01*
X145791461Y-109113708D01*
X145842063Y-109221063D01*
X145917270Y-109309566D01*
X146007956Y-109373463D01*
X146107969Y-109412158D01*
X146211156Y-109425056D01*
X146314145Y-109412952D01*
X146413563Y-109376638D01*
X146503852Y-109314725D01*
X146579456Y-109225825D01*
X146630653Y-109116089D01*
X146647719Y-108991669D01*
X146633078Y-108872165D01*
X146589158Y-108767655D01*
X146515956Y-108678137D01*
X146423705Y-108609787D01*
X146322634Y-108568776D01*
X146212744Y-108555106D01*
X146102677Y-108568865D01*
X146001077Y-108610140D01*
X145907944Y-108678931D01*
X145833860Y-108768890D01*
X145789410Y-108873665D01*
X145774594Y-108993256D01*
X145469794Y-108993256D01*
X145469794Y-108848794D01*
X145571394Y-108855144D01*
X145668231Y-108836094D01*
X145700775Y-108794025D01*
X145711094Y-108715444D01*
X145701569Y-108636069D01*
X145659897Y-108590825D01*
X145572981Y-108575744D01*
X145469794Y-108585269D01*
X145469794Y-108497956D01*
X145528531Y-108458269D01*
X145572981Y-108458269D01*
X145642831Y-108429694D01*
X145669819Y-108320156D01*
X145659103Y-108238797D01*
X145626956Y-108197919D01*
X145584888Y-108182837D01*
X145530119Y-108180456D01*
X145428695Y-108191481D01*
X145344558Y-108224553D01*
X145277706Y-108279675D01*
X145212222Y-108384648D01*
X145190394Y-108501131D01*
X145190394Y-108585269D01*
X145138006Y-108585269D01*
X145067759Y-108617813D01*
X145044344Y-108715444D01*
X144864860Y-108715444D01*
X144851463Y-108695600D01*
X144775174Y-108628131D01*
X144687068Y-108587650D01*
X144587144Y-108574156D01*
X144468081Y-108610669D01*
X144425219Y-108644006D01*
X144396644Y-108675756D01*
X144380769Y-108610669D01*
X144339891Y-108583284D01*
X144261706Y-108574156D01*
X144181141Y-108584078D01*
X144139469Y-108613844D01*
X144124388Y-108654325D01*
X144122006Y-108707506D01*
X144122006Y-109269481D01*
X143995006Y-109269481D01*
X143995006Y-108717031D01*
X143993419Y-108670994D01*
X143964844Y-108602731D01*
X143856894Y-108575744D01*
X143856100Y-108575844D01*
X143775138Y-108586063D01*
X143733069Y-108617019D01*
X143719575Y-108659087D01*
X143717194Y-108713856D01*
X143717194Y-109271069D01*
X143613805Y-109271069D01*
X143614006Y-109266306D01*
X143614006Y-109259956D01*
X143587019Y-109148831D01*
X143535623Y-109123828D01*
X143454463Y-109115494D01*
X143376477Y-109127400D01*
X143334606Y-109163119D01*
X143319525Y-109205981D01*
X143317144Y-109261544D01*
X143317144Y-109267894D01*
X143190213Y-109267894D01*
X143175856Y-109217094D01*
X143088544Y-109145656D01*
X143025044Y-109163119D01*
X143007581Y-109169469D01*
X142945272Y-109183756D01*
X142863119Y-109188519D01*
X142758344Y-109158356D01*
X142705956Y-109083744D01*
X143082194Y-109083744D01*
X143189350Y-109036912D01*
X143225664Y-108977381D01*
X143237769Y-108892450D01*
X143224275Y-108798589D01*
X143183794Y-108712269D01*
X143124858Y-108644205D01*
X143051238Y-108595587D01*
X142962933Y-108566417D01*
X142859944Y-108556694D01*
X142737971Y-108570011D01*
X142630285Y-108609963D01*
X142536888Y-108676550D01*
X142465009Y-108765362D01*
X142421882Y-108871989D01*
X142407506Y-108996431D01*
X142304319Y-108996431D01*
X142304319Y-108993256D01*
X142292589Y-108882837D01*
X142257399Y-108784412D01*
X142198750Y-108697981D01*
X142122462Y-108630953D01*
X142034356Y-108590737D01*
X141934431Y-108577331D01*
X141834816Y-108601541D01*
X141748694Y-108674169D01*
X141748694Y-108323331D01*
X141748625Y-108321744D01*
X143717194Y-108321744D01*
X143719575Y-108376512D01*
X143733863Y-108418581D01*
X143775931Y-108451919D01*
X143856100Y-108461444D01*
X143936269Y-108451919D01*
X143978338Y-108419375D01*
X143992625Y-108378100D01*
X143995006Y-108323331D01*
X143992625Y-108268563D01*
X143977544Y-108226494D01*
X143937063Y-108194347D01*
X143856894Y-108183631D01*
X143775138Y-108194347D01*
X143733069Y-108226494D01*
X143719575Y-108266975D01*
X143717194Y-108321744D01*
X141748625Y-108321744D01*
X141746313Y-108268563D01*
X141731231Y-108226494D01*
X141690750Y-108194347D01*
X141610581Y-108183631D01*
X141528825Y-108194347D01*
X141486756Y-108226494D01*
X141473263Y-108266975D01*
X141470881Y-108321744D01*
X141470881Y-109271069D01*
X141357003Y-109271069D01*
X141367694Y-109242494D01*
X141331181Y-109159944D01*
X141268078Y-109096841D01*
X141215294Y-109075806D01*
X141144650Y-109105175D01*
X141050988Y-109134544D01*
X140956531Y-109097237D01*
X140912081Y-108992463D01*
X140958119Y-108886894D01*
X141057338Y-108848794D01*
X141139094Y-108875781D01*
X141224819Y-108910706D01*
X141278397Y-108888878D01*
X141334356Y-108823394D01*
X141367694Y-108732113D01*
X141326419Y-108659881D01*
X141281969Y-108629719D01*
X141256569Y-108613844D01*
X141172431Y-108581300D01*
X141054956Y-108564631D01*
X140957413Y-108576273D01*
X140863751Y-108611198D01*
X140773969Y-108669406D01*
X140714834Y-108728342D01*
X140667606Y-108803550D01*
X140636650Y-108891656D01*
X140626331Y-108989288D01*
X140523144Y-108989288D01*
X140523144Y-108713856D01*
X140520763Y-108659087D01*
X140506475Y-108617019D01*
X140464406Y-108583681D01*
X140372331Y-108574156D01*
X140283034Y-108596381D01*
X140246919Y-108663056D01*
X140218344Y-108630513D01*
X140156431Y-108594794D01*
X140058006Y-108575744D01*
X139966372Y-108589590D01*
X139879853Y-108631130D01*
X139798450Y-108700362D01*
X139732745Y-108788028D01*
X139693322Y-108884865D01*
X139680181Y-108990875D01*
X139576994Y-108990875D01*
X139576994Y-108323331D01*
X139574613Y-108268563D01*
X139560325Y-108226494D01*
X139518256Y-108193156D01*
X139438088Y-108183631D01*
X139357919Y-108193156D01*
X139315850Y-108225700D01*
X139301563Y-108266975D01*
X139299181Y-108321744D01*
X139299181Y-108655119D01*
X139220997Y-108595587D01*
X139116619Y-108575744D01*
X139024985Y-108589678D01*
X138938466Y-108631483D01*
X138857063Y-108701156D01*
X138791358Y-108789263D01*
X138751935Y-108886365D01*
X138738794Y-108992463D01*
X138308581Y-108992463D01*
X138308581Y-108939281D01*
X138345888Y-108866256D01*
X138426056Y-108836094D01*
X138495113Y-108848794D01*
X138549881Y-108861494D01*
X138637194Y-108801169D01*
X138667356Y-108690044D01*
X138647513Y-108616225D01*
X138597506Y-108583681D01*
X138541944Y-108570188D01*
X138479238Y-108566219D01*
X138392719Y-108593206D01*
X138328425Y-108636069D01*
X138305406Y-108663056D01*
X138287944Y-108610669D01*
X138246272Y-108583284D01*
X138168881Y-108574156D01*
X138087125Y-108584872D01*
X138045056Y-108617019D01*
X138031563Y-108657500D01*
X138029181Y-108712269D01*
X138029181Y-109269481D01*
X138029181Y-109315519D01*
X137780969Y-109315519D01*
X137782127Y-109314725D01*
X137857731Y-109225825D01*
X137908928Y-109116089D01*
X137925994Y-108991669D01*
X137911353Y-108872165D01*
X137867433Y-108767655D01*
X137794231Y-108678137D01*
X137701980Y-108609787D01*
X137600909Y-108568776D01*
X137491019Y-108555106D01*
X137380952Y-108568865D01*
X137279352Y-108610140D01*
X137186219Y-108678931D01*
X137112135Y-108768890D01*
X137067685Y-108873665D01*
X137052869Y-108993256D01*
X136949681Y-108993256D01*
X136949681Y-108707506D01*
X136947300Y-108652737D01*
X136933013Y-108611463D01*
X136892531Y-108578919D01*
X136814744Y-108569394D01*
X136811569Y-108569779D01*
X136736163Y-108578919D01*
X136691713Y-108614638D01*
X136676631Y-108696394D01*
X136676631Y-109350444D01*
X136665519Y-109420294D01*
X136632181Y-109464744D01*
X136529788Y-109496494D01*
X136437713Y-109520306D01*
X136412114Y-109561581D01*
X136409931Y-109581074D01*
X136403581Y-109637781D01*
X131704952Y-109637781D01*
X131696777Y-109630372D01*
X131635695Y-109562978D01*
X131581513Y-109489922D01*
X131534753Y-109411907D01*
X131495865Y-109329685D01*
X131474892Y-109271069D01*
X132352281Y-109271069D01*
X132354662Y-109326631D01*
X132368156Y-109367906D01*
X132409828Y-109400053D01*
X132490394Y-109410769D01*
X132571356Y-109400450D01*
X132614219Y-109369494D01*
X132629300Y-109327425D01*
X132631681Y-109272656D01*
X132631681Y-108991669D01*
X132655494Y-108888084D01*
X132726931Y-108853556D01*
X132800750Y-108888084D01*
X132825356Y-108991669D01*
X132825356Y-109269481D01*
X132827737Y-109324250D01*
X132841231Y-109366319D01*
X132882903Y-109399656D01*
X132963469Y-109410769D01*
X133045225Y-109400053D01*
X133087294Y-109367906D01*
X133102375Y-109326631D01*
X133104756Y-109271069D01*
X133104756Y-108993256D01*
X133124600Y-108890069D01*
X133200006Y-108853556D01*
X133273825Y-108888084D01*
X133298431Y-108991669D01*
X133298431Y-109269481D01*
X133300812Y-109324250D01*
X133314306Y-109366319D01*
X133355978Y-109399656D01*
X133436544Y-109410769D01*
X133517903Y-109400053D01*
X133558781Y-109367906D01*
X133573862Y-109325838D01*
X133576244Y-109271069D01*
X133576244Y-108993256D01*
X133576077Y-108990875D01*
X133679431Y-108990875D01*
X133692484Y-109096973D01*
X133731642Y-109194075D01*
X133796906Y-109282181D01*
X133877428Y-109351855D01*
X133962359Y-109393659D01*
X134051700Y-109407594D01*
X134169373Y-109386559D01*
X134247756Y-109323456D01*
X134281887Y-109386163D01*
X134397775Y-109407594D01*
X134468220Y-109397275D01*
X134506519Y-109366319D01*
X134520012Y-109324250D01*
X134522394Y-109269481D01*
X134522394Y-108734494D01*
X134609706Y-108734494D01*
X134632725Y-108826569D01*
X134690669Y-108853556D01*
X134755756Y-108848794D01*
X134755756Y-109083744D01*
X134765281Y-109190812D01*
X134793856Y-109274949D01*
X134841481Y-109336156D01*
X134907451Y-109377608D01*
X134991059Y-109402478D01*
X135092306Y-109410769D01*
X135145488Y-109408388D01*
X135187556Y-109394894D01*
X135220894Y-109353222D01*
X135232006Y-109272656D01*
X135195494Y-109166294D01*
X135153425Y-109151213D01*
X135096275Y-109148831D01*
X135045475Y-109129781D01*
X135031981Y-109067869D01*
X135031981Y-108996431D01*
X135338369Y-108996431D01*
X135349481Y-109098913D01*
X135382819Y-109194692D01*
X135438381Y-109283769D01*
X135499302Y-109343895D01*
X135580463Y-109390925D01*
X135678292Y-109421286D01*
X135789219Y-109431406D01*
X135937154Y-109422576D01*
X136042822Y-109396084D01*
X136106223Y-109351932D01*
X136127356Y-109290119D01*
X136121972Y-109271069D01*
X136271819Y-109271069D01*
X136274200Y-109326631D01*
X136287694Y-109367906D01*
X136329366Y-109400053D01*
X136409931Y-109410769D01*
X136491291Y-109400450D01*
X136532169Y-109369494D01*
X136547250Y-109327425D01*
X136549631Y-109272656D01*
X136549631Y-108717031D01*
X136548044Y-108670994D01*
X136519469Y-108602731D01*
X136411519Y-108575744D01*
X136410725Y-108575844D01*
X136329763Y-108586063D01*
X136287694Y-108617019D01*
X136274200Y-108659087D01*
X136271819Y-108713856D01*
X136271819Y-109271069D01*
X136121972Y-109271069D01*
X136106719Y-109217094D01*
X136019406Y-109145656D01*
X135955906Y-109163119D01*
X135938444Y-109169469D01*
X135876134Y-109183756D01*
X135793981Y-109188519D01*
X135689206Y-109158356D01*
X135636819Y-109083744D01*
X136013056Y-109083744D01*
X136120213Y-109036912D01*
X136156527Y-108977381D01*
X136168631Y-108892450D01*
X136155138Y-108798589D01*
X136114656Y-108712269D01*
X136055720Y-108644205D01*
X135982100Y-108595587D01*
X135893795Y-108566417D01*
X135790806Y-108556694D01*
X135668833Y-108570011D01*
X135561148Y-108609963D01*
X135467750Y-108676550D01*
X135395872Y-108765362D01*
X135352744Y-108871989D01*
X135338369Y-108996431D01*
X135031981Y-108996431D01*
X135031981Y-108848794D01*
X135135169Y-108855144D01*
X135189937Y-108852763D01*
X135232006Y-108839269D01*
X135264153Y-108797597D01*
X135274869Y-108717031D01*
X135264550Y-108635672D01*
X135233594Y-108594794D01*
X135191525Y-108579713D01*
X135137550Y-108577331D01*
X135031981Y-108583681D01*
X135031981Y-108428106D01*
X135024044Y-108347144D01*
X134999559Y-108321744D01*
X136271819Y-108321744D01*
X136274200Y-108376512D01*
X136288488Y-108418581D01*
X136330556Y-108451919D01*
X136410725Y-108461444D01*
X136490894Y-108451919D01*
X136532963Y-108419375D01*
X136547250Y-108378100D01*
X136549631Y-108323331D01*
X136549493Y-108320156D01*
X136676631Y-108320156D01*
X136679013Y-108374925D01*
X136693300Y-108416200D01*
X136733781Y-108448744D01*
X136811569Y-108458269D01*
X136890150Y-108449537D01*
X136932219Y-108418581D01*
X136947300Y-108378894D01*
X136949681Y-108326506D01*
X136949681Y-108316981D01*
X136947300Y-108264594D01*
X136933806Y-108226494D01*
X136892134Y-108195537D01*
X136814744Y-108185219D01*
X136734178Y-108195537D01*
X136692506Y-108226494D01*
X136679013Y-108266181D01*
X136676631Y-108320156D01*
X136549493Y-108320156D01*
X136547250Y-108268563D01*
X136532169Y-108226494D01*
X136491688Y-108194347D01*
X136411519Y-108183631D01*
X136329763Y-108194347D01*
X136287694Y-108226494D01*
X136274200Y-108266975D01*
X136271819Y-108321744D01*
X134999559Y-108321744D01*
X134981578Y-108303091D01*
X134895456Y-108288406D01*
X134814097Y-108298328D01*
X134773219Y-108328094D01*
X134758138Y-108366194D01*
X134755756Y-108420169D01*
X134755756Y-108583681D01*
X134703369Y-108577331D01*
X134639869Y-108597969D01*
X134617644Y-108640037D01*
X134609706Y-108734494D01*
X134522394Y-108734494D01*
X134522394Y-108713856D01*
X134520012Y-108659087D01*
X134505725Y-108617019D01*
X134463656Y-108583681D01*
X134371581Y-108574156D01*
X134282284Y-108596381D01*
X134246169Y-108663056D01*
X134217594Y-108630513D01*
X134155681Y-108594794D01*
X134057256Y-108575744D01*
X133965622Y-108589590D01*
X133879103Y-108631130D01*
X133797700Y-108700362D01*
X133731995Y-108788028D01*
X133692572Y-108884865D01*
X133679431Y-108990875D01*
X133576077Y-108990875D01*
X133566719Y-108857172D01*
X133538144Y-108749487D01*
X133490519Y-108670200D01*
X133394475Y-108596977D01*
X133277794Y-108572569D01*
X133166669Y-108603525D01*
X133088087Y-108660675D01*
X133046019Y-108710681D01*
X132983930Y-108633952D01*
X132903497Y-108587915D01*
X132804719Y-108572569D01*
X132707484Y-108600747D01*
X132625331Y-108685281D01*
X132598344Y-108602731D01*
X132482456Y-108574156D01*
X132409828Y-108584872D01*
X132369744Y-108617019D01*
X132354662Y-108657500D01*
X132352281Y-108712269D01*
X132352281Y-109271069D01*
X131474892Y-109271069D01*
X131465223Y-109244046D01*
X131443122Y-109155817D01*
X131429777Y-109065846D01*
X131425314Y-108975000D01*
X131429777Y-108884154D01*
X131443122Y-108794183D01*
X131465223Y-108705954D01*
X131495865Y-108620315D01*
X131534753Y-108538093D01*
X131581513Y-108460078D01*
X131635695Y-108387022D01*
X131696777Y-108319628D01*
X131764171Y-108258547D01*
X131837227Y-108204365D01*
X131915242Y-108157604D01*
X131997464Y-108118716D01*
X132083103Y-108088074D01*
X132171332Y-108065973D01*
X132261303Y-108052628D01*
X132352149Y-108048165D01*
X132352281Y-108048165D01*
X146647719Y-108048165D01*
X146647851Y-108048165D01*
X146738697Y-108052628D01*
G37*
%TD.AperFunction*%
%TD*%
D10*
%TO.P,H104,1,1*%
%TO.N,GND*%
X127450000Y-107750000D03*
%TD*%
%TO.P,H102,1,1*%
%TO.N,GND*%
X151450000Y-57750000D03*
%TD*%
D11*
%TO.P,J101,1,Pin_1*%
%TO.N,/IO0*%
X154200000Y-94675000D03*
D12*
%TO.P,J101,2,Pin_2*%
%TO.N,/IO1*%
X150600000Y-94675000D03*
%TO.P,J101,3,Pin_3*%
%TO.N,/IO2*%
X154200000Y-93405000D03*
%TO.P,J101,4,Pin_4*%
%TO.N,/IO3*%
X150600000Y-93405000D03*
%TO.P,J101,5,Pin_5*%
%TO.N,/IO4*%
X154200000Y-92135000D03*
%TO.P,J101,6,Pin_6*%
%TO.N,/IO5*%
X150600000Y-92135000D03*
%TO.P,J101,7,Pin_7*%
%TO.N,/IO6*%
X154200000Y-90865000D03*
%TO.P,J101,8,Pin_8*%
%TO.N,/IO7*%
X150600000Y-90865000D03*
%TO.P,J101,9,Pin_9*%
%TO.N,GND*%
X154200000Y-89595000D03*
%TO.P,J101,10,Pin_10*%
X150600000Y-89595000D03*
%TO.P,J101,11,Pin_11*%
%TO.N,unconnected-(J101-Pin_11-Pad11)*%
X154200000Y-88325000D03*
%TO.P,J101,12,Pin_12*%
%TO.N,unconnected-(J101-Pin_12-Pad12)*%
X150600000Y-88325000D03*
%TO.P,J101,13,Pin_13*%
%TO.N,unconnected-(J101-Pin_13-Pad13)*%
X154200000Y-87055000D03*
%TO.P,J101,14,Pin_14*%
%TO.N,unconnected-(J101-Pin_14-Pad14)*%
X150600000Y-87055000D03*
%TD*%
D13*
%TO.P,CN101,*%
%TO.N,*%
X144425000Y-96650000D03*
D14*
X124425000Y-96650000D03*
D15*
%TO.P,CN101,1,1*%
%TO.N,unconnected-(CN101-Pad1)*%
X143675000Y-101920000D03*
%TO.P,CN101,2,2*%
%TO.N,unconnected-(CN101-Pad2)*%
X143425000Y-94380000D03*
%TO.P,CN101,3,3*%
%TO.N,unconnected-(CN101-Pad3)*%
X143175000Y-101920000D03*
%TO.P,CN101,4,4*%
%TO.N,unconnected-(CN101-Pad4)*%
X142925000Y-94380000D03*
%TO.P,CN101,5,5*%
%TO.N,unconnected-(CN101-Pad5)*%
X142675000Y-101920000D03*
%TO.P,CN101,6,6*%
%TO.N,unconnected-(CN101-Pad6)*%
X142425000Y-94380000D03*
%TO.P,CN101,7,7*%
%TO.N,unconnected-(CN101-Pad7)*%
X142175000Y-101920000D03*
%TO.P,CN101,8,8*%
%TO.N,unconnected-(CN101-Pad8)*%
X141925000Y-94380000D03*
%TO.P,CN101,9,9*%
%TO.N,unconnected-(CN101-Pad9)*%
X141675000Y-101920000D03*
%TO.P,CN101,10,10*%
%TO.N,unconnected-(CN101-Pad10)*%
X141425000Y-94380000D03*
%TO.P,CN101,11,11*%
%TO.N,unconnected-(CN101-Pad11)*%
X141175000Y-101920000D03*
%TO.P,CN101,20,20*%
%TO.N,GND*%
X138925000Y-94380000D03*
%TO.P,CN101,21,21*%
%TO.N,/IO15*%
X138675000Y-101920000D03*
%TO.P,CN101,22,22*%
%TO.N,GND*%
X138425000Y-94380000D03*
%TO.P,CN101,23,23*%
%TO.N,/IO14*%
X138175000Y-101920000D03*
%TO.P,CN101,24,24*%
%TO.N,GND*%
X137925000Y-94380000D03*
%TO.P,CN101,25,25*%
%TO.N,/IO13*%
X137675000Y-101920000D03*
%TO.P,CN101,26,26*%
%TO.N,GND*%
X137425000Y-94380000D03*
%TO.P,CN101,27,27*%
%TO.N,/IO12*%
X137175000Y-101920000D03*
%TO.P,CN101,28,28*%
%TO.N,GND*%
X136925000Y-94380000D03*
%TO.P,CN101,29,29*%
%TO.N,/IO11*%
X136675000Y-101920000D03*
%TO.P,CN101,30,30*%
%TO.N,GND*%
X136425000Y-94380000D03*
%TO.P,CN101,31,31*%
%TO.N,/IO10*%
X136175000Y-101920000D03*
%TO.P,CN101,32,32*%
%TO.N,GND*%
X135925000Y-94380000D03*
%TO.P,CN101,33,33*%
%TO.N,/IO9*%
X135675000Y-101920000D03*
%TO.P,CN101,34,34*%
%TO.N,GND*%
X135425000Y-94380000D03*
%TO.P,CN101,35,35*%
%TO.N,/IO8*%
X135175000Y-101920000D03*
%TO.P,CN101,36,36*%
%TO.N,GND*%
X134925000Y-94380000D03*
%TO.P,CN101,37,37*%
%TO.N,/IO7*%
X134675000Y-101920000D03*
%TO.P,CN101,38,38*%
%TO.N,GND*%
X134425000Y-94380000D03*
%TO.P,CN101,39,39*%
%TO.N,/IO6*%
X134175000Y-101920000D03*
%TO.P,CN101,40,40*%
%TO.N,GND*%
X133925000Y-94380000D03*
%TO.P,CN101,41,41*%
%TO.N,/IO5*%
X133675000Y-101920000D03*
%TO.P,CN101,42,42*%
%TO.N,GND*%
X133425000Y-94380000D03*
%TO.P,CN101,43,43*%
%TO.N,/IO4*%
X133175000Y-101920000D03*
%TO.P,CN101,44,44*%
%TO.N,GND*%
X132925000Y-94380000D03*
%TO.P,CN101,45,45*%
%TO.N,/IO3*%
X132675000Y-101920000D03*
%TO.P,CN101,46,46*%
%TO.N,GND*%
X132425000Y-94380000D03*
%TO.P,CN101,47,47*%
%TO.N,/IO2*%
X132175000Y-101920000D03*
%TO.P,CN101,48,48*%
%TO.N,GND*%
X131925000Y-94380000D03*
%TO.P,CN101,49,49*%
%TO.N,/IO1*%
X131675000Y-101920000D03*
%TO.P,CN101,50,50*%
%TO.N,GND*%
X131425000Y-94380000D03*
%TO.P,CN101,51,51*%
%TO.N,/IO0*%
X131175000Y-101920000D03*
%TO.P,CN101,52,52*%
%TO.N,unconnected-(CN101-Pad52)*%
X130925000Y-94380000D03*
%TO.P,CN101,53,53*%
%TO.N,unconnected-(CN101-Pad53)*%
X130675000Y-101920000D03*
%TO.P,CN101,54,54*%
%TO.N,unconnected-(CN101-Pad54)*%
X130425000Y-94380000D03*
%TO.P,CN101,55,55*%
%TO.N,unconnected-(CN101-Pad55)*%
X130175000Y-101920000D03*
%TO.P,CN101,56,56*%
%TO.N,unconnected-(CN101-Pad56)*%
X129925000Y-94380000D03*
%TO.P,CN101,57,57*%
%TO.N,unconnected-(CN101-Pad57)*%
X129675000Y-101920000D03*
%TO.P,CN101,58,58*%
%TO.N,unconnected-(CN101-Pad58)*%
X129425000Y-94380000D03*
%TO.P,CN101,59,59*%
%TO.N,unconnected-(CN101-Pad59)*%
X129175000Y-101920000D03*
%TO.P,CN101,60,60*%
%TO.N,unconnected-(CN101-Pad60)*%
X128925000Y-94380000D03*
%TO.P,CN101,61,61*%
%TO.N,unconnected-(CN101-Pad61)*%
X128675000Y-101920000D03*
%TO.P,CN101,62,62*%
%TO.N,unconnected-(CN101-Pad62)*%
X128425000Y-94380000D03*
%TO.P,CN101,63,63*%
%TO.N,unconnected-(CN101-Pad63)*%
X128175000Y-101920000D03*
%TO.P,CN101,64,64*%
%TO.N,unconnected-(CN101-Pad64)*%
X127925000Y-94380000D03*
%TO.P,CN101,65,65*%
%TO.N,unconnected-(CN101-Pad65)*%
X127675000Y-101920000D03*
%TO.P,CN101,66,66*%
%TO.N,unconnected-(CN101-Pad66)*%
X127425000Y-94380000D03*
%TO.P,CN101,67,67*%
%TO.N,unconnected-(CN101-Pad67)*%
X127175000Y-101920000D03*
%TO.P,CN101,68,68*%
%TO.N,unconnected-(CN101-Pad68)*%
X126925000Y-94380000D03*
%TO.P,CN101,69,69*%
%TO.N,unconnected-(CN101-Pad69)*%
X126675000Y-101920000D03*
%TO.P,CN101,70,70*%
%TO.N,unconnected-(CN101-Pad70)*%
X126425000Y-94380000D03*
%TO.P,CN101,71,71*%
%TO.N,unconnected-(CN101-Pad71)*%
X126175000Y-101920000D03*
%TO.P,CN101,72,72*%
%TO.N,unconnected-(CN101-Pad72)*%
X125925000Y-94380000D03*
%TO.P,CN101,73,73*%
%TO.N,unconnected-(CN101-Pad73)*%
X125675000Y-101920000D03*
%TO.P,CN101,74,74*%
%TO.N,unconnected-(CN101-Pad74)*%
X125425000Y-94380000D03*
D16*
%TO.P,CN101,75,75*%
%TO.N,unconnected-(CN101-Pad75)*%
X125175000Y-101920000D03*
D17*
%TO.P,CN101,76,76*%
%TO.N,GND*%
X124025000Y-101150000D03*
%TO.P,CN101,77,77*%
X144825000Y-101150000D03*
%TD*%
D11*
%TO.P,J102,1,Pin_1*%
%TO.N,/IO8*%
X154200000Y-79675000D03*
D12*
%TO.P,J102,2,Pin_2*%
%TO.N,/IO9*%
X150600000Y-79675000D03*
%TO.P,J102,3,Pin_3*%
%TO.N,/IO10*%
X154200000Y-78405000D03*
%TO.P,J102,4,Pin_4*%
%TO.N,/IO11*%
X150600000Y-78405000D03*
%TO.P,J102,5,Pin_5*%
%TO.N,/IO12*%
X154200000Y-77135000D03*
%TO.P,J102,6,Pin_6*%
%TO.N,/IO13*%
X150600000Y-77135000D03*
%TO.P,J102,7,Pin_7*%
%TO.N,/IO14*%
X154200000Y-75865000D03*
%TO.P,J102,8,Pin_8*%
%TO.N,/IO15*%
X150600000Y-75865000D03*
%TO.P,J102,9,Pin_9*%
%TO.N,GND*%
X154200000Y-74595000D03*
%TO.P,J102,10,Pin_10*%
X150600000Y-74595000D03*
%TO.P,J102,11,Pin_11*%
%TO.N,unconnected-(J102-Pin_11-Pad11)*%
X154200000Y-73325000D03*
%TO.P,J102,12,Pin_12*%
%TO.N,unconnected-(J102-Pin_12-Pad12)*%
X150600000Y-73325000D03*
%TO.P,J102,13,Pin_13*%
%TO.N,unconnected-(J102-Pin_13-Pad13)*%
X154200000Y-72055000D03*
%TO.P,J102,14,Pin_14*%
%TO.N,unconnected-(J102-Pin_14-Pad14)*%
X150600000Y-72055000D03*
%TD*%
D10*
%TO.P,H103,1,1*%
%TO.N,GND*%
X151450000Y-107750000D03*
%TD*%
D18*
%TO.P,H105,1,1*%
%TO.N,GND*%
X134450000Y-57075000D03*
%TD*%
D19*
%TO.N,GND*%
X152375000Y-74575000D03*
X152350000Y-89600000D03*
X140175000Y-94075000D03*
X139900000Y-101775000D03*
%TD*%
D20*
%TO.N,/IO0*%
X135600000Y-107050000D02*
X146578302Y-107050000D01*
X152700000Y-94675000D02*
X154200000Y-94675000D01*
X151925000Y-95450000D02*
X152700000Y-94675000D01*
X150100000Y-95450000D02*
X151925000Y-95450000D01*
X149500000Y-96050000D02*
X150100000Y-95450000D01*
X131175000Y-101920000D02*
X131175000Y-102625000D01*
X131175000Y-102625000D02*
X135600000Y-107050000D01*
X149500000Y-104128295D02*
X149500000Y-96050000D01*
X146578302Y-107050000D02*
X149500000Y-104128295D01*
D21*
%TO.N,GND*%
X131425000Y-94380000D02*
X131425000Y-96150000D01*
D20*
%TO.N,/IO1*%
X131675000Y-101920000D02*
X131675000Y-102625000D01*
X135850000Y-106800000D02*
X146474750Y-106799998D01*
X149450000Y-94675000D02*
X150600000Y-94675000D01*
X149250000Y-104024742D02*
X149250000Y-94875000D01*
X131675000Y-102625000D02*
X135850000Y-106800000D01*
X146474750Y-106799998D02*
X149250000Y-104024742D01*
X149250000Y-94875000D02*
X149450000Y-94675000D01*
%TO.N,/IO2*%
X132175000Y-101920000D02*
X132175000Y-102625000D01*
X136100000Y-106550000D02*
X146371196Y-106549999D01*
X149000000Y-103921189D02*
X149000000Y-94455000D01*
X149505000Y-93950000D02*
X152100000Y-93950000D01*
X146371196Y-106549999D02*
X149000000Y-103921189D01*
X152645000Y-93405000D02*
X154200000Y-93405000D01*
X152100000Y-93950000D02*
X152645000Y-93405000D01*
X149000000Y-94455000D02*
X149505000Y-93950000D01*
X132175000Y-102625000D02*
X136100000Y-106550000D01*
%TO.N,/IO3*%
X148750000Y-94050000D02*
X149395000Y-93405000D01*
X132675000Y-101920000D02*
X132675000Y-102625000D01*
X149395000Y-93405000D02*
X150600000Y-93405000D01*
X132675000Y-102625000D02*
X136350000Y-106300000D01*
X148750000Y-103817636D02*
X148750000Y-94050000D01*
X146267642Y-106300000D02*
X148750000Y-103817636D01*
X136350000Y-106300000D02*
X146267642Y-106300000D01*
%TO.N,/IO4*%
X133175000Y-101920000D02*
X133175000Y-102625000D01*
X148500000Y-103714083D02*
X148500000Y-93685000D01*
X133175000Y-102625000D02*
X136600000Y-106050000D01*
X152715000Y-92135000D02*
X154200000Y-92135000D01*
X146164090Y-106049998D02*
X148500000Y-103714083D01*
X148500000Y-93685000D02*
X149505000Y-92680000D01*
X149505000Y-92680000D02*
X152170000Y-92680000D01*
X152170000Y-92680000D02*
X152715000Y-92135000D01*
X136600000Y-106050000D02*
X146164090Y-106049998D01*
%TO.N,/IO5*%
X146060536Y-105799999D02*
X148250000Y-103610530D01*
X149350000Y-92135000D02*
X150600000Y-92135000D01*
X148250000Y-103610530D02*
X148250000Y-93235000D01*
X136825000Y-105800000D02*
X146060536Y-105799999D01*
X133675000Y-101920000D02*
X133675000Y-102650000D01*
X148250000Y-93235000D02*
X149350000Y-92135000D01*
X133675000Y-102650000D02*
X136825000Y-105800000D01*
%TO.N,/IO6*%
X152097500Y-91410000D02*
X152642500Y-90865000D01*
X148000000Y-103506977D02*
X148000000Y-92915000D01*
X145956982Y-105550000D02*
X148000000Y-103506977D01*
X134175000Y-101920000D02*
X134175000Y-102625000D01*
X137100000Y-105550000D02*
X145956982Y-105550000D01*
X148000000Y-92915000D02*
X149505000Y-91410000D01*
X152642500Y-90865000D02*
X154200000Y-90865000D01*
X134175000Y-102625000D02*
X137100000Y-105550000D01*
X149505000Y-91410000D02*
X152097500Y-91410000D01*
%TO.N,/IO7*%
X134675000Y-102625000D02*
X137350000Y-105300000D01*
X147750000Y-103403424D02*
X147750000Y-92465000D01*
X145853430Y-105299998D02*
X147750000Y-103403424D01*
X137350000Y-105300000D02*
X145853430Y-105299998D01*
X149350000Y-90865000D02*
X150600000Y-90865000D01*
X134675000Y-101920000D02*
X134675000Y-102625000D01*
X147750000Y-92465000D02*
X149350000Y-90865000D01*
%TO.N,/IO8*%
X135175000Y-101920000D02*
X135175000Y-102625000D01*
X147500000Y-103299871D02*
X147500000Y-81825000D01*
X145749876Y-105049999D02*
X147500000Y-103299871D01*
X152225000Y-80500000D02*
X153050000Y-79675000D01*
X135175000Y-102625000D02*
X137600000Y-105050000D01*
X153050000Y-79675000D02*
X154200000Y-79675000D01*
X137600000Y-105050000D02*
X145749876Y-105049999D01*
X147500000Y-81825000D02*
X148825000Y-80500000D01*
X148825000Y-80500000D02*
X152225000Y-80500000D01*
%TO.N,/IO9*%
X137825000Y-104800000D02*
X145646322Y-104800000D01*
X135675000Y-101920000D02*
X135675000Y-102650000D01*
X147250000Y-81541777D02*
X149116777Y-79675000D01*
X145646322Y-104800000D02*
X147250000Y-103196318D01*
X149116777Y-79675000D02*
X150600000Y-79675000D01*
X147250000Y-103196318D02*
X147250000Y-81541777D01*
X135675000Y-102650000D02*
X137825000Y-104800000D01*
%TO.N,/IO10*%
X136175000Y-102675000D02*
X138050000Y-104550000D01*
X145542770Y-104549998D02*
X147000000Y-103092765D01*
X149150000Y-79025000D02*
X152100000Y-79025000D01*
X147000000Y-103092765D02*
X147000000Y-81175000D01*
X152100000Y-79025000D02*
X152720000Y-78405000D01*
X136175000Y-101920000D02*
X136175000Y-102675000D01*
X138050000Y-104550000D02*
X145542770Y-104549998D01*
X152720000Y-78405000D02*
X154200000Y-78405000D01*
X147000000Y-81175000D02*
X149150000Y-79025000D01*
%TO.N,/IO11*%
X138325000Y-104300000D02*
X145439216Y-104299999D01*
X145439216Y-104299999D02*
X146750000Y-102989212D01*
X146750000Y-80775000D02*
X149120000Y-78405000D01*
X146750000Y-102989212D02*
X146750000Y-80775000D01*
X136675000Y-102650000D02*
X138325000Y-104300000D01*
X136675000Y-101920000D02*
X136675000Y-102650000D01*
X149120000Y-78405000D02*
X150600000Y-78405000D01*
%TO.N,/IO12*%
X137175000Y-101920000D02*
X137175000Y-102625000D01*
X138600000Y-104050000D02*
X145335662Y-104050000D01*
X152175000Y-77725000D02*
X152765000Y-77135000D01*
X146500000Y-80425000D02*
X149200000Y-77725000D01*
X149200000Y-77725000D02*
X152175000Y-77725000D01*
X137175000Y-102625000D02*
X138600000Y-104050000D01*
X146500000Y-102885659D02*
X146500000Y-80425000D01*
X152765000Y-77135000D02*
X154200000Y-77135000D01*
X145335662Y-104050000D02*
X146500000Y-102885659D01*
%TO.N,/IO13*%
X138850000Y-103800000D02*
X145232108Y-103800000D01*
X137675000Y-102625000D02*
X138850000Y-103800000D01*
X146250000Y-80150000D02*
X149265000Y-77135000D01*
X146250000Y-102782106D02*
X146250000Y-80150000D01*
X137675000Y-101920000D02*
X137675000Y-102625000D01*
X145232108Y-103800000D02*
X146250000Y-102782106D01*
X149265000Y-77135000D02*
X150600000Y-77135000D01*
%TO.N,/IO14*%
X138175000Y-102650000D02*
X139075000Y-103550000D01*
X152050000Y-76475000D02*
X152660000Y-75865000D01*
X149200000Y-76475000D02*
X152050000Y-76475000D01*
X145128554Y-103550000D02*
X146000000Y-102678553D01*
X146000000Y-79675000D02*
X149200000Y-76475000D01*
X138175000Y-101920000D02*
X138175000Y-102650000D01*
X139075000Y-103550000D02*
X145128554Y-103550000D01*
X152660000Y-75865000D02*
X154200000Y-75865000D01*
X146000000Y-102678553D02*
X146000000Y-79675000D01*
%TO.N,/IO15*%
X138675000Y-101920000D02*
X138675000Y-102600000D01*
X149185000Y-75865000D02*
X150600000Y-75865000D01*
X145025000Y-103300000D02*
X145750000Y-102575000D01*
X145750000Y-79300000D02*
X149185000Y-75865000D01*
X145750000Y-102575000D02*
X145750000Y-79300000D01*
X139375000Y-103300000D02*
X145025000Y-103300000D01*
X138675000Y-102600000D02*
X139375000Y-103300000D01*
%TD*%
%TA.AperFunction,Conductor*%
%TO.N,GND*%
G36*
X151378689Y-52997905D02*
G01*
X151571872Y-53006341D01*
X151750797Y-53014615D01*
X151802127Y-53016989D01*
X151807341Y-53017451D01*
X152017768Y-53045156D01*
X152231757Y-53075007D01*
X152236568Y-53075875D01*
X152446784Y-53122480D01*
X152654378Y-53171307D01*
X152658823Y-53172529D01*
X152865422Y-53237671D01*
X153066680Y-53305127D01*
X153070649Y-53306612D01*
X153270992Y-53389598D01*
X153272086Y-53390066D01*
X153419510Y-53455161D01*
X153465239Y-53475353D01*
X153468811Y-53477068D01*
X153661341Y-53577294D01*
X153662873Y-53578119D01*
X153846926Y-53680638D01*
X153850070Y-53682512D01*
X153949660Y-53745957D01*
X154033349Y-53799273D01*
X154035016Y-53800376D01*
X154208656Y-53919322D01*
X154211348Y-53921275D01*
X154383843Y-54053636D01*
X154385680Y-54055101D01*
X154517387Y-54164470D01*
X154547495Y-54189472D01*
X154549774Y-54191460D01*
X154710108Y-54338380D01*
X154712062Y-54340250D01*
X154786410Y-54414597D01*
X154860775Y-54488963D01*
X154862630Y-54490901D01*
X155009530Y-54651215D01*
X155011518Y-54653493D01*
X155145911Y-54815337D01*
X155147400Y-54817203D01*
X155279719Y-54989644D01*
X155281674Y-54992340D01*
X155400619Y-55165977D01*
X155401745Y-55167681D01*
X155518495Y-55350943D01*
X155520370Y-55354086D01*
X155622880Y-55538129D01*
X155623710Y-55539670D01*
X155723926Y-55732180D01*
X155725649Y-55735766D01*
X155810894Y-55928825D01*
X155811440Y-55930102D01*
X155836237Y-55989965D01*
X155894378Y-56130329D01*
X155895884Y-56134354D01*
X155963339Y-56335611D01*
X156028472Y-56542183D01*
X156029695Y-56546633D01*
X156078523Y-56754235D01*
X156125121Y-56964423D01*
X156125996Y-56969278D01*
X156155853Y-57183306D01*
X156183547Y-57393655D01*
X156184011Y-57398885D01*
X156194569Y-57627088D01*
X156203106Y-57822575D01*
X156203165Y-57825280D01*
X156203165Y-107798646D01*
X156203106Y-107801351D01*
X156194679Y-107994348D01*
X156184025Y-108224783D01*
X156183561Y-108230015D01*
X156155861Y-108440414D01*
X156126012Y-108654398D01*
X156125137Y-108659254D01*
X156078540Y-108869435D01*
X156029709Y-109077051D01*
X156028486Y-109081501D01*
X155963360Y-109288058D01*
X155895903Y-109489326D01*
X155894397Y-109493351D01*
X155811476Y-109693539D01*
X155810913Y-109694855D01*
X155725671Y-109887911D01*
X155723948Y-109891497D01*
X155623722Y-110084032D01*
X155622892Y-110085573D01*
X155520383Y-110269612D01*
X155518508Y-110272755D01*
X155401781Y-110455982D01*
X155400640Y-110457708D01*
X155281695Y-110631347D01*
X155279733Y-110634053D01*
X155147395Y-110806518D01*
X155145906Y-110808383D01*
X155011545Y-110970191D01*
X155009557Y-110972470D01*
X154862649Y-111132792D01*
X154860778Y-111134746D01*
X154712073Y-111283453D01*
X154710119Y-111285324D01*
X154549803Y-111432227D01*
X154547525Y-111434215D01*
X154385727Y-111568572D01*
X154383862Y-111570061D01*
X154211352Y-111702433D01*
X154208647Y-111704395D01*
X154035070Y-111823299D01*
X154033344Y-111824439D01*
X153850089Y-111941187D01*
X153846945Y-111943062D01*
X153662899Y-112045577D01*
X153661358Y-112046407D01*
X153468827Y-112146634D01*
X153465241Y-112148357D01*
X153272206Y-112233591D01*
X153270889Y-112234155D01*
X153070691Y-112317082D01*
X153066666Y-112318588D01*
X152865406Y-112386044D01*
X152658827Y-112451179D01*
X152654377Y-112452402D01*
X152446753Y-112501236D01*
X152236596Y-112547828D01*
X152231740Y-112548704D01*
X152017715Y-112578561D01*
X151807376Y-112606254D01*
X151802139Y-112606719D01*
X151563282Y-112617743D01*
X151379548Y-112625768D01*
X151376842Y-112625827D01*
X127428690Y-112625827D01*
X127425986Y-112625768D01*
X127232973Y-112617341D01*
X127002550Y-112606690D01*
X126997318Y-112606226D01*
X126786935Y-112578530D01*
X126572933Y-112548679D01*
X126568077Y-112547804D01*
X126357942Y-112501219D01*
X126150282Y-112452380D01*
X126145831Y-112451157D01*
X125939233Y-112386018D01*
X125738000Y-112318572D01*
X125733976Y-112317066D01*
X125533834Y-112234166D01*
X125532518Y-112233603D01*
X125339412Y-112148340D01*
X125335826Y-112146617D01*
X125143287Y-112046390D01*
X125141745Y-112045559D01*
X124957729Y-111943064D01*
X124954585Y-111941189D01*
X124771311Y-111824432D01*
X124769585Y-111823291D01*
X124595994Y-111704380D01*
X124593289Y-111702418D01*
X124420812Y-111570074D01*
X124418947Y-111568584D01*
X124348576Y-111510150D01*
X124257110Y-111434198D01*
X124254856Y-111432231D01*
X124094529Y-111285319D01*
X124092575Y-111283448D01*
X123943869Y-111134743D01*
X123941998Y-111132789D01*
X123795101Y-110972480D01*
X123793113Y-110970201D01*
X123658741Y-110808385D01*
X123657252Y-110806520D01*
X123524900Y-110634036D01*
X123522938Y-110631331D01*
X123403966Y-110457654D01*
X123402925Y-110456080D01*
X123286100Y-110272701D01*
X123284287Y-110269660D01*
X123189422Y-110099346D01*
X123181754Y-110085579D01*
X123180924Y-110084038D01*
X123125295Y-109977178D01*
X123080689Y-109891491D01*
X123078971Y-109887915D01*
X123078969Y-109887911D01*
X122993723Y-109694849D01*
X122993196Y-109693617D01*
X122910231Y-109493323D01*
X122908744Y-109489350D01*
X122841286Y-109288081D01*
X122833729Y-109264112D01*
X122776146Y-109081483D01*
X122774931Y-109077062D01*
X122726097Y-108869435D01*
X122720839Y-108845717D01*
X122679495Y-108659229D01*
X122678625Y-108654398D01*
X122648776Y-108440414D01*
X122621077Y-108230021D01*
X122620614Y-108224810D01*
X122609586Y-107985832D01*
X122608778Y-107967335D01*
X122601570Y-107802232D01*
X122601511Y-107799528D01*
X122601511Y-107750000D01*
X123945197Y-107750000D01*
X123964397Y-108116353D01*
X124021784Y-108478684D01*
X124021784Y-108478686D01*
X124116736Y-108833051D01*
X124248204Y-109175535D01*
X124414754Y-109502406D01*
X124614549Y-109810064D01*
X124803297Y-110043147D01*
X126226389Y-108620056D01*
X126342632Y-108769404D01*
X126525523Y-108937768D01*
X126580116Y-108973435D01*
X125156851Y-110396701D01*
X125389935Y-110585450D01*
X125697593Y-110785245D01*
X126024464Y-110951795D01*
X126366948Y-111083263D01*
X126721314Y-111178215D01*
X127083646Y-111235602D01*
X127449999Y-111254803D01*
X127450001Y-111254803D01*
X127816353Y-111235602D01*
X128178684Y-111178215D01*
X128178686Y-111178215D01*
X128533051Y-111083263D01*
X128875535Y-110951795D01*
X129202406Y-110785245D01*
X129510065Y-110585450D01*
X129743148Y-110396702D01*
X129743148Y-110396701D01*
X128319883Y-108973435D01*
X128374477Y-108937768D01*
X128557368Y-108769404D01*
X128673610Y-108620057D01*
X130096701Y-110043148D01*
X130096702Y-110043148D01*
X130285450Y-109810065D01*
X130485245Y-109502406D01*
X130651796Y-109175532D01*
X130690562Y-109074545D01*
X130732964Y-109019012D01*
X130798658Y-108995219D01*
X130866786Y-109010720D01*
X130915719Y-109060594D01*
X130928984Y-109100790D01*
X130930639Y-109111945D01*
X130931235Y-109118002D01*
X130931636Y-109126164D01*
X130936071Y-109148994D01*
X130936537Y-109151719D01*
X130946196Y-109216834D01*
X130946540Y-109219577D01*
X130948922Y-109242699D01*
X130948924Y-109242709D01*
X130950905Y-109250619D01*
X130952092Y-109256582D01*
X130953291Y-109264662D01*
X130958854Y-109283301D01*
X130959936Y-109286926D01*
X130960667Y-109289591D01*
X130976674Y-109353490D01*
X130977286Y-109356187D01*
X130981919Y-109378947D01*
X130981922Y-109378960D01*
X130984672Y-109386645D01*
X130986436Y-109392462D01*
X130988423Y-109400391D01*
X130988425Y-109400398D01*
X130997229Y-109421919D01*
X130998211Y-109424482D01*
X131020391Y-109486474D01*
X131021258Y-109489080D01*
X131028111Y-109511310D01*
X131028117Y-109511327D01*
X131031606Y-109518705D01*
X131033932Y-109524321D01*
X131036680Y-109532001D01*
X131047546Y-109552550D01*
X131048783Y-109555022D01*
X131076944Y-109614564D01*
X131078061Y-109617069D01*
X131087055Y-109638508D01*
X131091252Y-109645510D01*
X131094117Y-109650871D01*
X131097610Y-109658257D01*
X131110450Y-109677660D01*
X131111925Y-109680001D01*
X131145763Y-109736459D01*
X131147131Y-109738861D01*
X131158182Y-109759315D01*
X131163047Y-109765875D01*
X131166424Y-109770930D01*
X131168845Y-109774968D01*
X131170622Y-109777934D01*
X131170629Y-109777943D01*
X131175643Y-109784108D01*
X131185308Y-109795993D01*
X131186985Y-109798153D01*
X131226207Y-109851036D01*
X131227805Y-109853294D01*
X131240806Y-109872566D01*
X131240809Y-109872569D01*
X131246292Y-109878619D01*
X131250151Y-109883322D01*
X131253555Y-109887911D01*
X131255015Y-109889879D01*
X131256619Y-109891497D01*
X131271380Y-109906392D01*
X131273283Y-109908399D01*
X131317496Y-109957181D01*
X131319307Y-109959271D01*
X131334137Y-109977178D01*
X131334138Y-109977179D01*
X131334140Y-109977181D01*
X131338714Y-109981327D01*
X131340184Y-109982659D01*
X131344491Y-109986966D01*
X131349971Y-109993012D01*
X131362775Y-110003616D01*
X131367880Y-110007844D01*
X131369970Y-110009655D01*
X131418768Y-110053881D01*
X131420736Y-110055745D01*
X131437265Y-110072128D01*
X131437270Y-110072133D01*
X131437275Y-110072137D01*
X131443826Y-110076996D01*
X131448522Y-110080849D01*
X131454585Y-110086344D01*
X131459076Y-110089373D01*
X131473862Y-110099350D01*
X131476121Y-110100948D01*
X131503146Y-110120990D01*
X131529017Y-110140178D01*
X131531152Y-110141836D01*
X131544178Y-110152429D01*
X131549207Y-110156520D01*
X131549209Y-110156521D01*
X131549210Y-110156522D01*
X131556224Y-110160726D01*
X131561249Y-110164082D01*
X131567833Y-110168966D01*
X131587562Y-110179625D01*
X131588294Y-110180020D01*
X131590698Y-110181389D01*
X131647168Y-110215236D01*
X131649462Y-110216681D01*
X131668889Y-110229537D01*
X131668894Y-110229540D01*
X131676273Y-110233029D01*
X131681636Y-110235895D01*
X131688637Y-110240092D01*
X131710060Y-110249079D01*
X131712584Y-110250204D01*
X131736813Y-110261663D01*
X131772148Y-110278375D01*
X131774568Y-110279586D01*
X131795145Y-110290467D01*
X131802815Y-110293211D01*
X131802824Y-110293214D01*
X131808451Y-110295544D01*
X131815835Y-110299037D01*
X131838075Y-110305891D01*
X131840679Y-110306759D01*
X131902643Y-110328929D01*
X131905230Y-110329920D01*
X131926758Y-110338726D01*
X131926759Y-110338726D01*
X131926761Y-110338727D01*
X131934698Y-110340715D01*
X131940486Y-110342470D01*
X131948197Y-110345229D01*
X131971006Y-110349871D01*
X131973654Y-110350472D01*
X131991776Y-110355012D01*
X132037552Y-110366479D01*
X132040221Y-110367212D01*
X132057982Y-110372513D01*
X132062487Y-110373858D01*
X132070554Y-110375054D01*
X132076522Y-110376241D01*
X132084442Y-110378225D01*
X132107571Y-110380607D01*
X132107581Y-110380608D01*
X132110321Y-110380952D01*
X132175433Y-110390610D01*
X132178142Y-110391074D01*
X132200989Y-110395513D01*
X132209160Y-110395914D01*
X132215196Y-110396508D01*
X132223281Y-110397708D01*
X132246549Y-110397811D01*
X132249247Y-110397883D01*
X132301248Y-110400437D01*
X132307034Y-110400995D01*
X132316348Y-110402335D01*
X132316350Y-110402335D01*
X132316482Y-110402335D01*
X132338327Y-110402335D01*
X132341369Y-110402410D01*
X132350481Y-110402856D01*
X132363347Y-110403489D01*
X132372731Y-110402606D01*
X132378534Y-110402335D01*
X133364583Y-110402335D01*
X133400745Y-110402335D01*
X134325814Y-110402335D01*
X134361976Y-110402335D01*
X135020345Y-110402335D01*
X135056507Y-110402335D01*
X135717258Y-110402335D01*
X135753420Y-110402335D01*
X136466558Y-110402335D01*
X136502720Y-110402335D01*
X137417470Y-110402335D01*
X137453632Y-110402335D01*
X138095333Y-110402335D01*
X138131495Y-110402335D01*
X139353427Y-110402335D01*
X139389589Y-110402335D01*
X140326564Y-110402335D01*
X140362726Y-110402335D01*
X140986170Y-110402335D01*
X141022332Y-110402335D01*
X142092658Y-110402335D01*
X142128820Y-110402335D01*
X142786395Y-110402335D01*
X142822557Y-110402335D01*
X143403139Y-110402335D01*
X143439301Y-110402335D01*
X143783345Y-110402335D01*
X143819507Y-110402335D01*
X144745370Y-110402335D01*
X144781532Y-110402335D01*
X145256545Y-110402335D01*
X145292707Y-110402335D01*
X146139195Y-110402335D01*
X146175357Y-110402335D01*
X146611920Y-110402335D01*
X146621467Y-110402335D01*
X146627269Y-110402606D01*
X146636654Y-110403489D01*
X146649786Y-110402843D01*
X146658632Y-110402410D01*
X146661674Y-110402335D01*
X146683643Y-110402335D01*
X146683650Y-110402335D01*
X146692993Y-110400990D01*
X146698731Y-110400438D01*
X146750751Y-110397883D01*
X146753448Y-110397811D01*
X146776719Y-110397708D01*
X146784785Y-110396511D01*
X146790844Y-110395913D01*
X146799012Y-110395513D01*
X146821869Y-110391072D01*
X146824545Y-110390614D01*
X146889710Y-110380947D01*
X146892406Y-110380609D01*
X146915558Y-110378225D01*
X146923470Y-110376242D01*
X146929443Y-110375055D01*
X146937503Y-110373860D01*
X146937505Y-110373859D01*
X146937513Y-110373858D01*
X146959787Y-110367208D01*
X146962451Y-110366478D01*
X146994395Y-110358475D01*
X147026358Y-110350469D01*
X147028997Y-110349870D01*
X147051803Y-110345229D01*
X147059488Y-110342479D01*
X147065301Y-110340715D01*
X147073239Y-110338727D01*
X147094784Y-110329913D01*
X147097307Y-110328946D01*
X147159341Y-110306751D01*
X147161896Y-110305900D01*
X147184165Y-110299037D01*
X147191557Y-110295540D01*
X147197154Y-110293221D01*
X147204855Y-110290467D01*
X147225413Y-110279595D01*
X147227876Y-110278363D01*
X147239732Y-110272756D01*
X147251686Y-110267101D01*
X147287402Y-110250210D01*
X147289928Y-110249083D01*
X147289938Y-110249079D01*
X147311363Y-110240092D01*
X147318373Y-110235889D01*
X147323726Y-110233029D01*
X147331111Y-110229537D01*
X147350561Y-110216664D01*
X147352802Y-110215252D01*
X147409337Y-110181367D01*
X147411667Y-110180039D01*
X147432166Y-110168966D01*
X147438734Y-110164093D01*
X147443776Y-110160724D01*
X147450790Y-110156522D01*
X147468839Y-110141841D01*
X147471011Y-110140155D01*
X147523919Y-110100916D01*
X147526092Y-110099378D01*
X147545415Y-110086344D01*
X147551490Y-110080836D01*
X147556157Y-110077006D01*
X147562730Y-110072133D01*
X147579227Y-110055781D01*
X147581232Y-110053881D01*
X147630040Y-110009644D01*
X147632118Y-110007844D01*
X147650029Y-109993012D01*
X147655516Y-109986956D01*
X147659819Y-109982655D01*
X147665860Y-109977181D01*
X147680727Y-109959228D01*
X147682475Y-109957211D01*
X147726748Y-109908363D01*
X147728592Y-109906418D01*
X147744985Y-109889879D01*
X147749841Y-109883329D01*
X147753707Y-109878619D01*
X147759193Y-109872567D01*
X147772196Y-109853291D01*
X147773771Y-109851065D01*
X147813036Y-109798122D01*
X147814673Y-109796014D01*
X147829377Y-109777935D01*
X147833581Y-109770920D01*
X147836941Y-109765891D01*
X147841818Y-109759316D01*
X147852888Y-109738823D01*
X147854235Y-109736459D01*
X147888094Y-109679967D01*
X147889549Y-109677660D01*
X147902388Y-109658260D01*
X147905884Y-109650866D01*
X147908755Y-109645497D01*
X147912945Y-109638508D01*
X147921948Y-109617040D01*
X147923065Y-109614539D01*
X147951234Y-109554981D01*
X147952427Y-109552598D01*
X147963318Y-109532004D01*
X147966067Y-109524317D01*
X147968398Y-109518693D01*
X147971887Y-109511316D01*
X147974633Y-109502406D01*
X147978747Y-109489057D01*
X147979596Y-109486505D01*
X148001801Y-109424444D01*
X148002753Y-109421960D01*
X148011578Y-109400388D01*
X148013566Y-109392450D01*
X148015332Y-109386631D01*
X148018080Y-109378952D01*
X148022721Y-109356146D01*
X148023324Y-109353490D01*
X148039329Y-109289600D01*
X148040061Y-109286932D01*
X148040063Y-109286926D01*
X148046709Y-109264662D01*
X148046710Y-109264648D01*
X148046831Y-109264112D01*
X148046922Y-109263946D01*
X148047976Y-109260417D01*
X148048743Y-109260646D01*
X148080592Y-109202941D01*
X148142066Y-109169733D01*
X148211734Y-109175032D01*
X148267478Y-109217155D01*
X148278362Y-109234722D01*
X148414754Y-109502406D01*
X148614549Y-109810064D01*
X148803297Y-110043147D01*
X150226389Y-108620056D01*
X150342632Y-108769404D01*
X150525523Y-108937768D01*
X150580116Y-108973435D01*
X149156851Y-110396701D01*
X149389935Y-110585450D01*
X149697593Y-110785245D01*
X150024464Y-110951795D01*
X150366948Y-111083263D01*
X150721314Y-111178215D01*
X151083646Y-111235602D01*
X151449999Y-111254803D01*
X151450001Y-111254803D01*
X151816353Y-111235602D01*
X152178684Y-111178215D01*
X152178686Y-111178215D01*
X152533051Y-111083263D01*
X152875535Y-110951795D01*
X153202406Y-110785245D01*
X153510065Y-110585450D01*
X153743148Y-110396702D01*
X153743148Y-110396701D01*
X152319883Y-108973435D01*
X152374477Y-108937768D01*
X152557368Y-108769404D01*
X152673610Y-108620057D01*
X154096701Y-110043148D01*
X154096702Y-110043148D01*
X154285450Y-109810065D01*
X154485245Y-109502406D01*
X154651795Y-109175535D01*
X154783263Y-108833051D01*
X154878215Y-108478686D01*
X154878215Y-108478684D01*
X154935602Y-108116353D01*
X154954803Y-107750000D01*
X154954803Y-107749999D01*
X154935602Y-107383646D01*
X154878215Y-107021315D01*
X154878215Y-107021313D01*
X154783263Y-106666948D01*
X154651795Y-106324464D01*
X154485245Y-105997594D01*
X154285450Y-105689935D01*
X154096701Y-105456851D01*
X152673609Y-106879942D01*
X152557368Y-106730596D01*
X152374477Y-106562232D01*
X152319882Y-106526563D01*
X153743148Y-105103297D01*
X153510064Y-104914549D01*
X153202406Y-104714754D01*
X152875535Y-104548204D01*
X152533051Y-104416736D01*
X152178685Y-104321784D01*
X151816353Y-104264397D01*
X151450001Y-104245197D01*
X151449999Y-104245197D01*
X151083646Y-104264397D01*
X150721315Y-104321784D01*
X150721313Y-104321784D01*
X150366945Y-104416737D01*
X150204161Y-104479224D01*
X150134520Y-104484872D01*
X150072881Y-104451972D01*
X150038814Y-104390970D01*
X150043135Y-104321234D01*
X150045164Y-104316005D01*
X150060687Y-104278531D01*
X150075500Y-104166015D01*
X150075500Y-104166014D01*
X150075723Y-104164321D01*
X150075726Y-104164290D01*
X150080465Y-104128294D01*
X150080465Y-104128293D01*
X150076031Y-104094615D01*
X150075500Y-104086513D01*
X150075500Y-96339741D01*
X150095185Y-96272702D01*
X150111819Y-96252060D01*
X150302061Y-96061819D01*
X150363384Y-96028334D01*
X150389742Y-96025500D01*
X151883219Y-96025500D01*
X151891317Y-96026030D01*
X151908813Y-96028334D01*
X151924999Y-96030465D01*
X151925000Y-96030465D01*
X151960785Y-96025754D01*
X151960809Y-96025751D01*
X151962715Y-96025500D01*
X151962720Y-96025500D01*
X152075236Y-96010687D01*
X152215233Y-95952698D01*
X152215232Y-95952697D01*
X152234173Y-95944852D01*
X152238509Y-95936563D01*
X152252249Y-95924293D01*
X152305268Y-95883612D01*
X152305268Y-95883610D01*
X152313362Y-95877401D01*
X152313364Y-95877398D01*
X152335451Y-95860451D01*
X152356138Y-95833489D01*
X152361480Y-95827398D01*
X152744425Y-95444453D01*
X152805747Y-95410970D01*
X152875439Y-95415954D01*
X152896254Y-95426019D01*
X152982601Y-95478216D01*
X153001596Y-95489699D01*
X153160528Y-95539224D01*
X153229592Y-95545500D01*
X153229595Y-95545500D01*
X155170405Y-95545500D01*
X155170408Y-95545500D01*
X155239472Y-95539224D01*
X155398404Y-95489699D01*
X155520394Y-95415954D01*
X155540860Y-95403582D01*
X155540861Y-95403580D01*
X155540866Y-95403578D01*
X155658578Y-95285866D01*
X155672714Y-95262483D01*
X155708749Y-95202872D01*
X155744699Y-95143404D01*
X155794224Y-94984472D01*
X155800500Y-94915408D01*
X155800500Y-94434592D01*
X155794224Y-94365528D01*
X155744699Y-94206596D01*
X155724243Y-94172759D01*
X155706407Y-94105205D01*
X155727924Y-94038731D01*
X155731096Y-94034295D01*
X155743796Y-94017331D01*
X155794091Y-93882483D01*
X155800500Y-93822873D01*
X155800499Y-92987128D01*
X155794091Y-92927517D01*
X155751503Y-92813332D01*
X155746519Y-92743640D01*
X155751499Y-92726676D01*
X155794091Y-92612483D01*
X155800500Y-92552873D01*
X155800499Y-91717128D01*
X155794091Y-91657517D01*
X155751502Y-91543332D01*
X155746519Y-91473642D01*
X155751503Y-91456667D01*
X155794091Y-91342482D01*
X155795904Y-91325619D01*
X155800500Y-91282873D01*
X155800499Y-90447128D01*
X155794091Y-90387517D01*
X155751235Y-90272616D01*
X155746252Y-90202927D01*
X155751236Y-90185951D01*
X155793597Y-90072376D01*
X155793598Y-90072372D01*
X155799999Y-90012844D01*
X155800000Y-90012827D01*
X155800000Y-89845000D01*
X152600000Y-89845000D01*
X152600000Y-90012844D01*
X152606401Y-90072372D01*
X152606404Y-90072383D01*
X152629084Y-90133193D01*
X152634068Y-90202885D01*
X152600582Y-90264207D01*
X152539259Y-90297692D01*
X152529086Y-90299464D01*
X152478457Y-90306129D01*
X152465550Y-90315378D01*
X152352263Y-90362303D01*
X152345230Y-90366364D01*
X152344101Y-90364409D01*
X152289841Y-90385375D01*
X152221398Y-90371324D01*
X152171418Y-90322501D01*
X152163366Y-90305140D01*
X152151235Y-90272616D01*
X152146252Y-90202925D01*
X152151236Y-90185951D01*
X152193597Y-90072376D01*
X152193598Y-90072372D01*
X152199999Y-90012844D01*
X152200000Y-90012827D01*
X152200000Y-89845000D01*
X149000000Y-89845000D01*
X149000000Y-90012844D01*
X149006401Y-90072372D01*
X149006403Y-90072379D01*
X149048763Y-90185952D01*
X149053747Y-90255644D01*
X149048763Y-90272619D01*
X149009934Y-90376723D01*
X148969244Y-90431760D01*
X148939551Y-90454546D01*
X148939550Y-90454547D01*
X148918861Y-90481507D01*
X148913511Y-90487608D01*
X148287181Y-91113938D01*
X148225858Y-91147423D01*
X148156167Y-91142439D01*
X148100233Y-91100568D01*
X148075816Y-91035103D01*
X148075500Y-91026257D01*
X148075500Y-88742870D01*
X148999500Y-88742870D01*
X148999501Y-88742876D01*
X149005908Y-88802483D01*
X149048763Y-88917381D01*
X149053747Y-88987073D01*
X149048763Y-89004047D01*
X149006403Y-89117620D01*
X149006401Y-89117627D01*
X149000000Y-89177155D01*
X149000000Y-89345000D01*
X152200000Y-89345000D01*
X152200000Y-89177172D01*
X152199999Y-89177155D01*
X152193598Y-89117627D01*
X152193597Y-89117623D01*
X152151236Y-89004049D01*
X152146252Y-88934357D01*
X152151232Y-88917391D01*
X152194091Y-88802483D01*
X152200500Y-88742873D01*
X152200500Y-88742870D01*
X152599500Y-88742870D01*
X152599501Y-88742876D01*
X152605908Y-88802483D01*
X152648763Y-88917381D01*
X152653747Y-88987073D01*
X152648763Y-89004047D01*
X152606403Y-89117620D01*
X152606401Y-89117627D01*
X152600000Y-89177155D01*
X152600000Y-89345000D01*
X155800000Y-89345000D01*
X155800000Y-89177172D01*
X155799999Y-89177155D01*
X155793598Y-89117627D01*
X155793597Y-89117623D01*
X155751236Y-89004049D01*
X155746252Y-88934357D01*
X155751232Y-88917391D01*
X155794091Y-88802483D01*
X155800500Y-88742873D01*
X155800499Y-87907128D01*
X155794091Y-87847517D01*
X155751503Y-87733332D01*
X155746519Y-87663640D01*
X155751499Y-87646676D01*
X155794091Y-87532483D01*
X155800500Y-87472873D01*
X155800499Y-86637128D01*
X155794091Y-86577517D01*
X155743796Y-86442669D01*
X155743795Y-86442668D01*
X155743793Y-86442664D01*
X155657547Y-86327455D01*
X155657544Y-86327452D01*
X155542335Y-86241206D01*
X155542328Y-86241202D01*
X155407482Y-86190908D01*
X155407483Y-86190908D01*
X155347883Y-86184501D01*
X155347881Y-86184500D01*
X155347873Y-86184500D01*
X155347864Y-86184500D01*
X153052129Y-86184500D01*
X153052123Y-86184501D01*
X152992516Y-86190908D01*
X152857671Y-86241202D01*
X152857664Y-86241206D01*
X152742455Y-86327452D01*
X152742452Y-86327455D01*
X152656206Y-86442664D01*
X152656202Y-86442671D01*
X152605908Y-86577517D01*
X152599501Y-86637116D01*
X152599501Y-86637123D01*
X152599500Y-86637135D01*
X152599500Y-87472870D01*
X152599501Y-87472876D01*
X152605908Y-87532481D01*
X152605909Y-87532483D01*
X152648497Y-87646668D01*
X152653481Y-87716357D01*
X152648497Y-87733332D01*
X152605908Y-87847517D01*
X152599501Y-87907116D01*
X152599501Y-87907123D01*
X152599500Y-87907135D01*
X152599500Y-88742870D01*
X152200500Y-88742870D01*
X152200499Y-87907128D01*
X152194091Y-87847517D01*
X152151503Y-87733332D01*
X152146519Y-87663640D01*
X152151499Y-87646676D01*
X152194091Y-87532483D01*
X152200500Y-87472873D01*
X152200499Y-86637128D01*
X152194091Y-86577517D01*
X152143796Y-86442669D01*
X152143795Y-86442668D01*
X152143793Y-86442664D01*
X152057547Y-86327455D01*
X152057544Y-86327452D01*
X151942335Y-86241206D01*
X151942328Y-86241202D01*
X151807482Y-86190908D01*
X151807483Y-86190908D01*
X151747883Y-86184501D01*
X151747881Y-86184500D01*
X151747873Y-86184500D01*
X151747864Y-86184500D01*
X149452129Y-86184500D01*
X149452123Y-86184501D01*
X149392516Y-86190908D01*
X149257671Y-86241202D01*
X149257664Y-86241206D01*
X149142455Y-86327452D01*
X149142452Y-86327455D01*
X149056206Y-86442664D01*
X149056202Y-86442671D01*
X149005908Y-86577517D01*
X148999501Y-86637116D01*
X148999501Y-86637123D01*
X148999500Y-86637135D01*
X148999500Y-87472870D01*
X148999501Y-87472876D01*
X149005908Y-87532483D01*
X149048496Y-87646666D01*
X149053480Y-87716358D01*
X149048496Y-87733331D01*
X149005909Y-87847514D01*
X149005908Y-87847516D01*
X148999501Y-87907116D01*
X148999501Y-87907123D01*
X148999500Y-87907135D01*
X148999500Y-88742870D01*
X148075500Y-88742870D01*
X148075500Y-82114741D01*
X148095185Y-82047702D01*
X148111819Y-82027060D01*
X149027061Y-81111819D01*
X149088384Y-81078334D01*
X149114742Y-81075500D01*
X152183219Y-81075500D01*
X152191317Y-81076030D01*
X152208813Y-81078334D01*
X152224999Y-81080465D01*
X152225000Y-81080465D01*
X152260785Y-81075754D01*
X152260809Y-81075751D01*
X152262715Y-81075500D01*
X152262720Y-81075500D01*
X152375236Y-81060687D01*
X152515233Y-81002698D01*
X152543393Y-80981090D01*
X152605268Y-80933612D01*
X152605268Y-80933611D01*
X152613361Y-80927402D01*
X152613364Y-80927398D01*
X152635451Y-80910451D01*
X152656138Y-80883489D01*
X152661480Y-80877398D01*
X152984872Y-80554006D01*
X153046193Y-80520523D01*
X153109437Y-80523303D01*
X153160528Y-80539224D01*
X153229592Y-80545500D01*
X153229595Y-80545500D01*
X155170405Y-80545500D01*
X155170408Y-80545500D01*
X155239472Y-80539224D01*
X155398404Y-80489699D01*
X155495219Y-80431172D01*
X155540860Y-80403582D01*
X155540861Y-80403580D01*
X155540866Y-80403578D01*
X155658578Y-80285866D01*
X155744699Y-80143404D01*
X155794224Y-79984472D01*
X155800500Y-79915408D01*
X155800500Y-79434592D01*
X155794224Y-79365528D01*
X155744699Y-79206596D01*
X155724243Y-79172759D01*
X155706407Y-79105205D01*
X155727924Y-79038731D01*
X155731096Y-79034295D01*
X155743796Y-79017331D01*
X155794091Y-78882483D01*
X155800500Y-78822873D01*
X155800499Y-77987128D01*
X155794091Y-77927517D01*
X155751502Y-77813332D01*
X155746519Y-77743642D01*
X155751503Y-77726667D01*
X155794091Y-77612482D01*
X155800500Y-77552873D01*
X155800499Y-76717128D01*
X155794091Y-76657517D01*
X155751503Y-76543332D01*
X155746519Y-76473640D01*
X155751499Y-76456676D01*
X155794091Y-76342483D01*
X155800500Y-76282873D01*
X155800499Y-75447128D01*
X155794091Y-75387517D01*
X155751235Y-75272616D01*
X155746252Y-75202927D01*
X155751236Y-75185951D01*
X155793597Y-75072376D01*
X155793598Y-75072372D01*
X155799999Y-75012844D01*
X155800000Y-75012827D01*
X155800000Y-74845000D01*
X152600000Y-74845000D01*
X152600000Y-75012844D01*
X152606401Y-75072372D01*
X152606404Y-75072383D01*
X152629903Y-75135389D01*
X152634887Y-75205081D01*
X152601401Y-75266403D01*
X152540077Y-75299888D01*
X152529905Y-75301660D01*
X152495957Y-75306129D01*
X152483050Y-75315378D01*
X152369765Y-75362302D01*
X152358922Y-75370622D01*
X152293751Y-75395814D01*
X152225307Y-75381772D01*
X152175320Y-75332956D01*
X152167258Y-75315575D01*
X152163057Y-75304312D01*
X152151235Y-75272616D01*
X152146252Y-75202926D01*
X152151236Y-75185951D01*
X152193597Y-75072376D01*
X152193598Y-75072372D01*
X152199999Y-75012844D01*
X152200000Y-75012827D01*
X152200000Y-74845000D01*
X149000000Y-74845000D01*
X149000000Y-75012844D01*
X149006401Y-75072372D01*
X149006403Y-75072383D01*
X149043314Y-75171346D01*
X149048298Y-75241037D01*
X149014812Y-75302360D01*
X148974585Y-75329239D01*
X148894770Y-75362299D01*
X148894767Y-75362301D01*
X148806366Y-75430132D01*
X148806367Y-75430133D01*
X148804732Y-75431388D01*
X148804729Y-75431390D01*
X148784219Y-75447129D01*
X148774548Y-75454550D01*
X148753861Y-75481507D01*
X148748510Y-75487608D01*
X145372608Y-78863510D01*
X145366507Y-78868861D01*
X145339550Y-78889548D01*
X145315133Y-78921367D01*
X145315132Y-78921366D01*
X145281126Y-78965686D01*
X145247302Y-79009766D01*
X145247300Y-79009769D01*
X145189313Y-79149763D01*
X145189313Y-79149764D01*
X145173968Y-79266315D01*
X145173969Y-79266316D01*
X145169535Y-79300000D01*
X145173969Y-79333678D01*
X145174500Y-79341780D01*
X145174500Y-95652585D01*
X145154815Y-95719624D01*
X145102011Y-95765379D01*
X145032853Y-95775323D01*
X144992047Y-95761943D01*
X144828958Y-95674769D01*
X144712320Y-95639388D01*
X144630934Y-95614700D01*
X144630932Y-95614699D01*
X144630934Y-95614699D01*
X144425000Y-95594417D01*
X144219065Y-95614699D01*
X144111327Y-95647381D01*
X144041460Y-95648004D01*
X143982348Y-95610755D01*
X143952757Y-95547461D01*
X143962084Y-95478216D01*
X143976062Y-95454415D01*
X144018796Y-95397331D01*
X144069091Y-95262483D01*
X144075500Y-95202873D01*
X144075499Y-93557128D01*
X144069091Y-93497517D01*
X144018884Y-93362906D01*
X144018797Y-93362671D01*
X144018793Y-93362664D01*
X143932547Y-93247455D01*
X143932544Y-93247452D01*
X143817335Y-93161206D01*
X143817328Y-93161202D01*
X143682486Y-93110910D01*
X143682485Y-93110909D01*
X143682483Y-93110909D01*
X143622873Y-93104500D01*
X143622863Y-93104500D01*
X143227130Y-93104500D01*
X143227119Y-93104501D01*
X143188253Y-93108679D01*
X143161748Y-93108679D01*
X143122874Y-93104500D01*
X142727130Y-93104500D01*
X142727119Y-93104501D01*
X142688253Y-93108679D01*
X142661748Y-93108679D01*
X142622874Y-93104500D01*
X142227130Y-93104500D01*
X142227119Y-93104501D01*
X142188253Y-93108679D01*
X142161748Y-93108679D01*
X142122874Y-93104500D01*
X141727130Y-93104500D01*
X141727119Y-93104501D01*
X141688253Y-93108679D01*
X141661748Y-93108679D01*
X141622874Y-93104500D01*
X141227129Y-93104500D01*
X141227123Y-93104501D01*
X141167516Y-93110908D01*
X141032671Y-93161202D01*
X141032664Y-93161206D01*
X140917455Y-93247452D01*
X140917452Y-93247455D01*
X140831206Y-93362664D01*
X140831202Y-93362671D01*
X140780908Y-93497517D01*
X140774501Y-93557116D01*
X140774501Y-93557123D01*
X140774500Y-93557135D01*
X140774500Y-95202870D01*
X140774501Y-95202876D01*
X140780908Y-95262483D01*
X140831202Y-95397328D01*
X140831206Y-95397335D01*
X140917452Y-95512544D01*
X140917455Y-95512547D01*
X141032664Y-95598793D01*
X141032671Y-95598797D01*
X141064733Y-95610755D01*
X141167517Y-95649091D01*
X141227127Y-95655500D01*
X141622872Y-95655499D01*
X141622873Y-95655498D01*
X141622885Y-95655498D01*
X141661744Y-95651320D01*
X141688252Y-95651320D01*
X141727127Y-95655500D01*
X142122872Y-95655499D01*
X142122873Y-95655498D01*
X142122885Y-95655498D01*
X142161744Y-95651320D01*
X142188252Y-95651320D01*
X142227127Y-95655500D01*
X142622872Y-95655499D01*
X142622873Y-95655498D01*
X142622885Y-95655498D01*
X142661744Y-95651320D01*
X142688252Y-95651320D01*
X142727127Y-95655500D01*
X143122872Y-95655499D01*
X143122873Y-95655498D01*
X143122885Y-95655498D01*
X143161744Y-95651320D01*
X143188252Y-95651320D01*
X143227127Y-95655500D01*
X143622872Y-95655499D01*
X143622873Y-95655498D01*
X143626195Y-95655321D01*
X143626254Y-95656429D01*
X143690516Y-95667996D01*
X143741673Y-95715586D01*
X143758980Y-95783278D01*
X143736942Y-95849581D01*
X143713724Y-95874755D01*
X143678589Y-95903590D01*
X143547317Y-96063547D01*
X143449769Y-96246043D01*
X143389699Y-96444067D01*
X143369417Y-96649999D01*
X143389699Y-96855932D01*
X143395998Y-96876697D01*
X143449768Y-97053954D01*
X143547315Y-97236450D01*
X143547317Y-97236452D01*
X143678589Y-97396410D01*
X143775209Y-97475702D01*
X143838550Y-97527685D01*
X144021046Y-97625232D01*
X144219066Y-97685300D01*
X144219065Y-97685300D01*
X144239348Y-97687297D01*
X144425000Y-97705583D01*
X144630934Y-97685300D01*
X144828954Y-97625232D01*
X144992048Y-97538055D01*
X145060449Y-97523814D01*
X145125693Y-97548814D01*
X145167064Y-97605118D01*
X145174500Y-97647414D01*
X145174500Y-99151000D01*
X145154815Y-99218039D01*
X145102011Y-99263794D01*
X145081811Y-99268188D01*
X145075000Y-99275000D01*
X145075000Y-101276000D01*
X145055315Y-101343039D01*
X145002511Y-101388794D01*
X144951000Y-101400000D01*
X144699000Y-101400000D01*
X144631961Y-101380315D01*
X144586206Y-101327511D01*
X144575000Y-101276000D01*
X144575000Y-99275000D01*
X144177155Y-99275000D01*
X144117627Y-99281401D01*
X144117620Y-99281403D01*
X143982913Y-99331645D01*
X143982906Y-99331649D01*
X143867812Y-99417809D01*
X143867809Y-99417812D01*
X143781649Y-99532906D01*
X143781645Y-99532913D01*
X143731403Y-99667620D01*
X143731401Y-99667627D01*
X143725000Y-99727155D01*
X143725000Y-100520500D01*
X143705315Y-100587539D01*
X143652511Y-100633294D01*
X143601001Y-100644500D01*
X143477131Y-100644500D01*
X143477119Y-100644501D01*
X143438253Y-100648679D01*
X143411748Y-100648679D01*
X143372874Y-100644500D01*
X142977130Y-100644500D01*
X142977119Y-100644501D01*
X142938253Y-100648679D01*
X142911748Y-100648679D01*
X142872874Y-100644500D01*
X142477130Y-100644500D01*
X142477119Y-100644501D01*
X142438253Y-100648679D01*
X142411748Y-100648679D01*
X142372874Y-100644500D01*
X141977130Y-100644500D01*
X141977119Y-100644501D01*
X141938253Y-100648679D01*
X141911748Y-100648679D01*
X141872874Y-100644500D01*
X141477130Y-100644500D01*
X141477119Y-100644501D01*
X141438253Y-100648679D01*
X141411748Y-100648679D01*
X141372874Y-100644500D01*
X140977129Y-100644500D01*
X140977123Y-100644501D01*
X140917516Y-100650908D01*
X140782671Y-100701202D01*
X140782664Y-100701206D01*
X140667455Y-100787452D01*
X140667452Y-100787455D01*
X140581206Y-100902664D01*
X140581202Y-100902671D01*
X140530908Y-101037517D01*
X140524501Y-101097116D01*
X140524501Y-101097123D01*
X140524500Y-101097135D01*
X140524501Y-102600500D01*
X140504816Y-102667539D01*
X140452013Y-102713294D01*
X140400501Y-102724500D01*
X139664742Y-102724500D01*
X139597703Y-102704815D01*
X139577061Y-102688181D01*
X139361818Y-102472938D01*
X139328333Y-102411615D01*
X139325499Y-102385257D01*
X139325499Y-101097129D01*
X139325498Y-101097123D01*
X139325497Y-101097116D01*
X139319091Y-101037517D01*
X139268796Y-100902669D01*
X139268795Y-100902668D01*
X139268793Y-100902664D01*
X139182547Y-100787455D01*
X139182544Y-100787452D01*
X139067335Y-100701206D01*
X139067328Y-100701202D01*
X138932486Y-100650910D01*
X138932485Y-100650909D01*
X138932483Y-100650909D01*
X138872873Y-100644500D01*
X138872863Y-100644500D01*
X138477130Y-100644500D01*
X138477119Y-100644501D01*
X138438253Y-100648679D01*
X138411748Y-100648679D01*
X138372874Y-100644500D01*
X137977130Y-100644500D01*
X137977119Y-100644501D01*
X137938253Y-100648679D01*
X137911748Y-100648679D01*
X137872874Y-100644500D01*
X137477130Y-100644500D01*
X137477119Y-100644501D01*
X137438253Y-100648679D01*
X137411748Y-100648679D01*
X137372874Y-100644500D01*
X136977130Y-100644500D01*
X136977119Y-100644501D01*
X136938253Y-100648679D01*
X136911748Y-100648679D01*
X136872874Y-100644500D01*
X136477130Y-100644500D01*
X136477119Y-100644501D01*
X136438253Y-100648679D01*
X136411748Y-100648679D01*
X136372874Y-100644500D01*
X135977130Y-100644500D01*
X135977119Y-100644501D01*
X135938253Y-100648679D01*
X135911748Y-100648679D01*
X135872874Y-100644500D01*
X135477130Y-100644500D01*
X135477119Y-100644501D01*
X135438253Y-100648679D01*
X135411748Y-100648679D01*
X135372874Y-100644500D01*
X134977130Y-100644500D01*
X134977119Y-100644501D01*
X134938253Y-100648679D01*
X134911748Y-100648679D01*
X134872874Y-100644500D01*
X134477130Y-100644500D01*
X134477119Y-100644501D01*
X134438253Y-100648679D01*
X134411748Y-100648679D01*
X134372874Y-100644500D01*
X133977130Y-100644500D01*
X133977119Y-100644501D01*
X133938253Y-100648679D01*
X133911748Y-100648679D01*
X133872874Y-100644500D01*
X133477130Y-100644500D01*
X133477119Y-100644501D01*
X133438253Y-100648679D01*
X133411748Y-100648679D01*
X133372874Y-100644500D01*
X132977130Y-100644500D01*
X132977119Y-100644501D01*
X132938253Y-100648679D01*
X132911748Y-100648679D01*
X132872874Y-100644500D01*
X132477130Y-100644500D01*
X132477119Y-100644501D01*
X132438253Y-100648679D01*
X132411748Y-100648679D01*
X132372874Y-100644500D01*
X131977130Y-100644500D01*
X131977119Y-100644501D01*
X131938253Y-100648679D01*
X131911748Y-100648679D01*
X131872874Y-100644500D01*
X131477130Y-100644500D01*
X131477119Y-100644501D01*
X131438253Y-100648679D01*
X131411748Y-100648679D01*
X131372874Y-100644500D01*
X130977130Y-100644500D01*
X130977119Y-100644501D01*
X130938253Y-100648679D01*
X130911748Y-100648679D01*
X130872874Y-100644500D01*
X130477130Y-100644500D01*
X130477119Y-100644501D01*
X130438253Y-100648679D01*
X130411748Y-100648679D01*
X130372874Y-100644500D01*
X129977130Y-100644500D01*
X129977119Y-100644501D01*
X129938253Y-100648679D01*
X129911748Y-100648679D01*
X129872874Y-100644500D01*
X129477130Y-100644500D01*
X129477119Y-100644501D01*
X129438253Y-100648679D01*
X129411748Y-100648679D01*
X129372874Y-100644500D01*
X128977130Y-100644500D01*
X128977119Y-100644501D01*
X128938253Y-100648679D01*
X128911748Y-100648679D01*
X128872874Y-100644500D01*
X128477130Y-100644500D01*
X128477119Y-100644501D01*
X128438253Y-100648679D01*
X128411748Y-100648679D01*
X128372874Y-100644500D01*
X127977130Y-100644500D01*
X127977119Y-100644501D01*
X127938253Y-100648679D01*
X127911748Y-100648679D01*
X127872874Y-100644500D01*
X127477130Y-100644500D01*
X127477119Y-100644501D01*
X127438253Y-100648679D01*
X127411748Y-100648679D01*
X127372874Y-100644500D01*
X126977130Y-100644500D01*
X126977119Y-100644501D01*
X126938253Y-100648679D01*
X126911748Y-100648679D01*
X126872874Y-100644500D01*
X126477130Y-100644500D01*
X126477119Y-100644501D01*
X126438253Y-100648679D01*
X126411748Y-100648679D01*
X126372874Y-100644500D01*
X125977130Y-100644500D01*
X125977119Y-100644501D01*
X125938253Y-100648679D01*
X125911748Y-100648679D01*
X125872875Y-100644500D01*
X125872873Y-100644500D01*
X125519702Y-100644500D01*
X125476372Y-100636683D01*
X125447483Y-100625909D01*
X125447482Y-100625908D01*
X125387883Y-100619501D01*
X125387881Y-100619500D01*
X125387873Y-100619500D01*
X125387865Y-100619500D01*
X125249000Y-100619500D01*
X125181961Y-100599815D01*
X125136206Y-100547011D01*
X125125000Y-100495500D01*
X125125000Y-99727172D01*
X125124999Y-99727155D01*
X125118598Y-99667627D01*
X125118596Y-99667620D01*
X125068354Y-99532913D01*
X125068350Y-99532906D01*
X124982190Y-99417812D01*
X124982187Y-99417809D01*
X124867093Y-99331649D01*
X124867086Y-99331645D01*
X124732379Y-99281403D01*
X124732372Y-99281401D01*
X124672844Y-99275000D01*
X124275000Y-99275000D01*
X124275000Y-103025000D01*
X124551049Y-103025000D01*
X124618088Y-103044685D01*
X124650313Y-103074686D01*
X124652454Y-103077546D01*
X124652455Y-103077546D01*
X124652456Y-103077548D01*
X124767664Y-103163793D01*
X124767671Y-103163797D01*
X124812618Y-103180560D01*
X124902517Y-103214091D01*
X124962127Y-103220500D01*
X125387872Y-103220499D01*
X125447483Y-103214091D01*
X125476365Y-103203317D01*
X125519700Y-103195499D01*
X125872872Y-103195499D01*
X125872885Y-103195498D01*
X125911744Y-103191320D01*
X125938252Y-103191320D01*
X125977127Y-103195500D01*
X126372872Y-103195499D01*
X126372873Y-103195498D01*
X126372885Y-103195498D01*
X126411744Y-103191320D01*
X126438252Y-103191320D01*
X126477127Y-103195500D01*
X126872872Y-103195499D01*
X126872873Y-103195498D01*
X126872885Y-103195498D01*
X126911744Y-103191320D01*
X126938252Y-103191320D01*
X126977127Y-103195500D01*
X127372872Y-103195499D01*
X127372873Y-103195498D01*
X127372885Y-103195498D01*
X127411744Y-103191320D01*
X127438252Y-103191320D01*
X127477127Y-103195500D01*
X127872872Y-103195499D01*
X127872873Y-103195498D01*
X127872885Y-103195498D01*
X127911744Y-103191320D01*
X127938252Y-103191320D01*
X127977127Y-103195500D01*
X128372872Y-103195499D01*
X128372873Y-103195498D01*
X128372885Y-103195498D01*
X128411744Y-103191320D01*
X128438252Y-103191320D01*
X128477127Y-103195500D01*
X128872872Y-103195499D01*
X128872873Y-103195498D01*
X128872885Y-103195498D01*
X128911744Y-103191320D01*
X128938252Y-103191320D01*
X128977127Y-103195500D01*
X129372872Y-103195499D01*
X129372873Y-103195498D01*
X129372885Y-103195498D01*
X129411744Y-103191320D01*
X129438252Y-103191320D01*
X129477127Y-103195500D01*
X129872872Y-103195499D01*
X129872873Y-103195498D01*
X129872885Y-103195498D01*
X129911744Y-103191320D01*
X129938252Y-103191320D01*
X129977127Y-103195500D01*
X130372872Y-103195499D01*
X130372873Y-103195498D01*
X130372885Y-103195498D01*
X130411744Y-103191320D01*
X130438252Y-103191320D01*
X130477127Y-103195500D01*
X130872872Y-103195499D01*
X130872879Y-103195498D01*
X130873405Y-103195470D01*
X130873527Y-103195499D01*
X130876193Y-103195499D01*
X130876192Y-103196128D01*
X130941403Y-103211534D01*
X130967731Y-103231611D01*
X135072104Y-107335984D01*
X135105589Y-107397307D01*
X135100605Y-107466999D01*
X135058733Y-107522932D01*
X134993269Y-107547349D01*
X134984423Y-107547665D01*
X132378534Y-107547665D01*
X132372731Y-107547393D01*
X132372263Y-107547349D01*
X132363347Y-107546511D01*
X132363346Y-107546511D01*
X132341369Y-107547590D01*
X132338327Y-107547665D01*
X132316347Y-107547665D01*
X132307025Y-107549005D01*
X132301248Y-107549560D01*
X132249282Y-107552113D01*
X132246518Y-107552188D01*
X132223281Y-107552292D01*
X132215197Y-107553490D01*
X132209154Y-107554085D01*
X132200988Y-107554486D01*
X132200986Y-107554487D01*
X132178150Y-107558923D01*
X132175425Y-107559389D01*
X132110315Y-107569047D01*
X132107572Y-107569391D01*
X132084448Y-107571773D01*
X132084437Y-107571775D01*
X132076519Y-107573758D01*
X132070570Y-107574941D01*
X132062499Y-107576139D01*
X132062480Y-107576143D01*
X132040206Y-107582791D01*
X132037540Y-107583522D01*
X131973660Y-107599523D01*
X131970965Y-107600135D01*
X131948203Y-107604769D01*
X131948189Y-107604773D01*
X131940503Y-107607523D01*
X131934696Y-107609284D01*
X131926765Y-107611271D01*
X131926754Y-107611275D01*
X131905229Y-107620079D01*
X131902644Y-107621069D01*
X131840669Y-107643243D01*
X131838048Y-107644115D01*
X131815844Y-107650960D01*
X131815828Y-107650965D01*
X131808446Y-107654456D01*
X131802835Y-107656780D01*
X131795159Y-107659526D01*
X131795136Y-107659537D01*
X131774595Y-107670397D01*
X131772125Y-107671633D01*
X131712587Y-107699793D01*
X131710066Y-107700917D01*
X131688641Y-107709906D01*
X131688633Y-107709910D01*
X131681634Y-107714104D01*
X131676276Y-107716968D01*
X131668892Y-107720461D01*
X131668878Y-107720469D01*
X131649486Y-107733302D01*
X131647163Y-107734765D01*
X131623299Y-107749069D01*
X131590702Y-107768607D01*
X131588300Y-107769975D01*
X131567844Y-107781027D01*
X131567823Y-107781040D01*
X131561259Y-107785908D01*
X131556212Y-107789280D01*
X131549208Y-107793479D01*
X131549205Y-107793481D01*
X131531172Y-107808145D01*
X131528990Y-107809841D01*
X131476122Y-107849050D01*
X131473866Y-107850646D01*
X131454583Y-107863657D01*
X131448520Y-107869151D01*
X131443829Y-107873000D01*
X131437275Y-107877862D01*
X131437266Y-107877870D01*
X131420773Y-107894216D01*
X131418766Y-107896118D01*
X131369965Y-107940349D01*
X131367875Y-107942159D01*
X131349971Y-107956987D01*
X131349967Y-107956991D01*
X131344487Y-107963037D01*
X131340189Y-107967335D01*
X131334142Y-107972815D01*
X131324030Y-107985024D01*
X131319297Y-107990739D01*
X131317500Y-107992813D01*
X131273282Y-108041600D01*
X131271383Y-108043604D01*
X131255013Y-108060123D01*
X131255012Y-108060124D01*
X131250156Y-108066672D01*
X131246296Y-108071375D01*
X131240808Y-108077430D01*
X131240805Y-108077434D01*
X131227809Y-108096696D01*
X131226212Y-108098953D01*
X131186989Y-108151840D01*
X131185295Y-108154021D01*
X131170626Y-108172060D01*
X131170619Y-108172071D01*
X131166428Y-108179063D01*
X131163052Y-108184116D01*
X131159445Y-108188981D01*
X131103704Y-108231109D01*
X131034036Y-108236414D01*
X130972560Y-108203211D01*
X130938793Y-108142043D01*
X130936007Y-108108638D01*
X130954803Y-107750000D01*
X130954803Y-107749999D01*
X130935602Y-107383646D01*
X130878215Y-107021315D01*
X130878215Y-107021313D01*
X130783263Y-106666948D01*
X130651795Y-106324464D01*
X130485245Y-105997594D01*
X130285450Y-105689935D01*
X130096701Y-105456851D01*
X128673609Y-106879942D01*
X128557368Y-106730596D01*
X128374477Y-106562232D01*
X128319882Y-106526563D01*
X129743148Y-105103297D01*
X129510064Y-104914549D01*
X129202406Y-104714754D01*
X128875535Y-104548204D01*
X128533051Y-104416736D01*
X128178685Y-104321784D01*
X127816353Y-104264397D01*
X127450001Y-104245197D01*
X127449999Y-104245197D01*
X127083646Y-104264397D01*
X126721315Y-104321784D01*
X126721313Y-104321784D01*
X126366948Y-104416736D01*
X126024464Y-104548204D01*
X125697594Y-104714754D01*
X125389929Y-104914553D01*
X125156851Y-105103297D01*
X126580117Y-106526563D01*
X126525523Y-106562232D01*
X126342632Y-106730596D01*
X126226389Y-106879943D01*
X124803297Y-105456851D01*
X124614553Y-105689929D01*
X124414754Y-105997594D01*
X124248204Y-106324464D01*
X124116736Y-106666948D01*
X124021784Y-107021313D01*
X124021784Y-107021315D01*
X123964397Y-107383646D01*
X123945197Y-107749999D01*
X123945197Y-107750000D01*
X122601511Y-107750000D01*
X122601511Y-101400000D01*
X122925000Y-101400000D01*
X122925000Y-102572844D01*
X122931401Y-102632372D01*
X122931403Y-102632379D01*
X122981645Y-102767086D01*
X122981649Y-102767093D01*
X123067809Y-102882187D01*
X123067812Y-102882190D01*
X123182906Y-102968350D01*
X123182913Y-102968354D01*
X123317620Y-103018596D01*
X123317627Y-103018598D01*
X123377155Y-103024999D01*
X123377172Y-103025000D01*
X123774999Y-103025000D01*
X123775000Y-101400000D01*
X122925000Y-101400000D01*
X122601511Y-101400000D01*
X122601511Y-100900000D01*
X122925000Y-100900000D01*
X123774999Y-100900000D01*
X123775000Y-99275000D01*
X123377155Y-99275000D01*
X123317627Y-99281401D01*
X123317620Y-99281403D01*
X123182913Y-99331645D01*
X123182906Y-99331649D01*
X123067812Y-99417809D01*
X123067809Y-99417812D01*
X122981649Y-99532906D01*
X122981645Y-99532913D01*
X122931403Y-99667620D01*
X122931401Y-99667627D01*
X122925000Y-99727155D01*
X122925000Y-100900000D01*
X122601511Y-100900000D01*
X122601511Y-96650001D01*
X123119532Y-96650001D01*
X123139364Y-96876686D01*
X123139366Y-96876697D01*
X123198258Y-97096488D01*
X123198261Y-97096497D01*
X123294431Y-97302732D01*
X123294432Y-97302734D01*
X123424954Y-97489141D01*
X123585858Y-97650045D01*
X123585861Y-97650047D01*
X123772266Y-97780568D01*
X123978504Y-97876739D01*
X124198308Y-97935635D01*
X124360230Y-97949801D01*
X124424998Y-97955468D01*
X124425000Y-97955468D01*
X124425002Y-97955468D01*
X124481672Y-97950509D01*
X124651692Y-97935635D01*
X124871496Y-97876739D01*
X125077734Y-97780568D01*
X125264139Y-97650047D01*
X125425047Y-97489139D01*
X125555568Y-97302734D01*
X125651739Y-97096496D01*
X125710635Y-96876692D01*
X125730468Y-96650000D01*
X125710635Y-96423308D01*
X125651739Y-96203504D01*
X125555568Y-95997266D01*
X125489976Y-95903590D01*
X125452888Y-95850622D01*
X125430561Y-95784415D01*
X125447572Y-95716648D01*
X125498520Y-95668836D01*
X125554463Y-95655499D01*
X125622872Y-95655499D01*
X125622885Y-95655498D01*
X125661744Y-95651320D01*
X125688252Y-95651320D01*
X125727127Y-95655500D01*
X126122872Y-95655499D01*
X126122873Y-95655498D01*
X126122885Y-95655498D01*
X126161744Y-95651320D01*
X126188252Y-95651320D01*
X126227127Y-95655500D01*
X126622872Y-95655499D01*
X126622873Y-95655498D01*
X126622885Y-95655498D01*
X126661744Y-95651320D01*
X126688252Y-95651320D01*
X126727127Y-95655500D01*
X127122872Y-95655499D01*
X127122873Y-95655498D01*
X127122885Y-95655498D01*
X127161744Y-95651320D01*
X127188252Y-95651320D01*
X127227127Y-95655500D01*
X127622872Y-95655499D01*
X127622873Y-95655498D01*
X127622885Y-95655498D01*
X127661744Y-95651320D01*
X127688252Y-95651320D01*
X127727127Y-95655500D01*
X128122872Y-95655499D01*
X128122873Y-95655498D01*
X128122885Y-95655498D01*
X128161744Y-95651320D01*
X128188252Y-95651320D01*
X128227127Y-95655500D01*
X128622872Y-95655499D01*
X128622873Y-95655498D01*
X128622885Y-95655498D01*
X128661744Y-95651320D01*
X128688252Y-95651320D01*
X128727127Y-95655500D01*
X129122872Y-95655499D01*
X129122873Y-95655498D01*
X129122885Y-95655498D01*
X129161744Y-95651320D01*
X129188252Y-95651320D01*
X129227127Y-95655500D01*
X129622872Y-95655499D01*
X129622873Y-95655498D01*
X129622885Y-95655498D01*
X129661744Y-95651320D01*
X129688252Y-95651320D01*
X129727127Y-95655500D01*
X130122872Y-95655499D01*
X130122873Y-95655498D01*
X130122885Y-95655498D01*
X130161744Y-95651320D01*
X130188252Y-95651320D01*
X130227127Y-95655500D01*
X130622872Y-95655499D01*
X130622873Y-95655498D01*
X130622885Y-95655498D01*
X130661744Y-95651320D01*
X130688252Y-95651320D01*
X130727127Y-95655500D01*
X131122872Y-95655499D01*
X131131711Y-95654548D01*
X131164094Y-95651068D01*
X131190606Y-95651068D01*
X131227166Y-95654999D01*
X131227182Y-95655000D01*
X131275000Y-95655000D01*
X131290611Y-95639388D01*
X131294685Y-95625515D01*
X131324686Y-95593289D01*
X131376690Y-95554359D01*
X131442154Y-95529943D01*
X131510426Y-95544795D01*
X131559832Y-95594200D01*
X131575000Y-95653627D01*
X131575000Y-95655000D01*
X131622821Y-95655000D01*
X131622831Y-95654999D01*
X131661742Y-95650815D01*
X131688258Y-95650815D01*
X131727168Y-95654999D01*
X131727179Y-95655000D01*
X131775000Y-95655000D01*
X131775000Y-94530000D01*
X132075000Y-94530000D01*
X132075000Y-95655000D01*
X132122821Y-95655000D01*
X132122831Y-95654999D01*
X132161742Y-95650815D01*
X132188258Y-95650815D01*
X132227168Y-95654999D01*
X132227179Y-95655000D01*
X132275000Y-95655000D01*
X132275000Y-94530000D01*
X132575000Y-94530000D01*
X132575000Y-95655000D01*
X132622821Y-95655000D01*
X132622831Y-95654999D01*
X132661742Y-95650815D01*
X132688258Y-95650815D01*
X132727168Y-95654999D01*
X132727179Y-95655000D01*
X132775000Y-95655000D01*
X132774999Y-95654999D01*
X132775000Y-94530000D01*
X133075000Y-94530000D01*
X133075000Y-95655000D01*
X133122821Y-95655000D01*
X133122831Y-95654999D01*
X133161742Y-95650815D01*
X133188258Y-95650815D01*
X133227168Y-95654999D01*
X133227179Y-95655000D01*
X133275000Y-95655000D01*
X133275000Y-95654999D01*
X133574999Y-95654999D01*
X133575000Y-95655000D01*
X133622821Y-95655000D01*
X133622829Y-95654999D01*
X133661740Y-95650815D01*
X133688257Y-95650815D01*
X133727168Y-95654999D01*
X133727179Y-95655000D01*
X133775000Y-95655000D01*
X133775000Y-94530000D01*
X134075000Y-94530000D01*
X134075000Y-95655000D01*
X134122821Y-95655000D01*
X134122829Y-95654999D01*
X134161740Y-95650815D01*
X134188257Y-95650815D01*
X134227168Y-95654999D01*
X134227179Y-95655000D01*
X134275000Y-95655000D01*
X134275000Y-94530000D01*
X134575000Y-94530000D01*
X134575000Y-95655000D01*
X134622821Y-95655000D01*
X134622829Y-95654999D01*
X134661740Y-95650815D01*
X134688257Y-95650815D01*
X134727168Y-95654999D01*
X134727179Y-95655000D01*
X134775000Y-95655000D01*
X134775000Y-94530000D01*
X135075000Y-94530000D01*
X135075000Y-95655000D01*
X135122821Y-95655000D01*
X135122829Y-95654999D01*
X135161740Y-95650815D01*
X135188257Y-95650815D01*
X135227168Y-95654999D01*
X135227179Y-95655000D01*
X135275000Y-95655000D01*
X135275000Y-94530000D01*
X135575000Y-94530000D01*
X135575000Y-95655000D01*
X135622821Y-95655000D01*
X135622829Y-95654999D01*
X135661740Y-95650815D01*
X135688257Y-95650815D01*
X135727168Y-95654999D01*
X135727179Y-95655000D01*
X135775000Y-95655000D01*
X135775000Y-94530000D01*
X136075000Y-94530000D01*
X136075000Y-95655000D01*
X136122821Y-95655000D01*
X136122829Y-95654999D01*
X136161740Y-95650815D01*
X136188257Y-95650815D01*
X136227168Y-95654999D01*
X136227179Y-95655000D01*
X136275000Y-95655000D01*
X136275000Y-94530000D01*
X136575000Y-94530000D01*
X136575000Y-95655000D01*
X136622821Y-95655000D01*
X136622829Y-95654999D01*
X136661740Y-95650815D01*
X136688257Y-95650815D01*
X136727168Y-95654999D01*
X136727179Y-95655000D01*
X136775000Y-95655000D01*
X136775000Y-94530000D01*
X137075000Y-94530000D01*
X137075000Y-95655000D01*
X137122821Y-95655000D01*
X137122829Y-95654999D01*
X137161740Y-95650815D01*
X137188257Y-95650815D01*
X137227168Y-95654999D01*
X137227179Y-95655000D01*
X137275000Y-95655000D01*
X137275000Y-94530000D01*
X137575000Y-94530000D01*
X137575000Y-95655000D01*
X137622821Y-95655000D01*
X137622829Y-95654999D01*
X137661740Y-95650815D01*
X137688257Y-95650815D01*
X137727168Y-95654999D01*
X137727179Y-95655000D01*
X137775000Y-95655000D01*
X137775000Y-94530000D01*
X138075000Y-94530000D01*
X138075000Y-95655000D01*
X138122821Y-95655000D01*
X138122829Y-95654999D01*
X138161740Y-95650815D01*
X138188257Y-95650815D01*
X138227168Y-95654999D01*
X138227179Y-95655000D01*
X138275000Y-95655000D01*
X138275000Y-94530000D01*
X138575000Y-94530000D01*
X138575000Y-95655000D01*
X138622821Y-95655000D01*
X138622829Y-95654999D01*
X138661740Y-95650815D01*
X138688257Y-95650815D01*
X138727168Y-95654999D01*
X138727179Y-95655000D01*
X138775000Y-95655000D01*
X138775000Y-94530000D01*
X139075000Y-94530000D01*
X139075000Y-95655000D01*
X139122828Y-95655000D01*
X139122844Y-95654999D01*
X139182372Y-95648598D01*
X139182379Y-95648596D01*
X139317086Y-95598354D01*
X139317093Y-95598350D01*
X139432187Y-95512190D01*
X139432190Y-95512187D01*
X139518350Y-95397093D01*
X139518354Y-95397086D01*
X139568596Y-95262379D01*
X139568598Y-95262372D01*
X139574999Y-95202844D01*
X139575000Y-95202827D01*
X139575000Y-94530000D01*
X139075000Y-94530000D01*
X138775000Y-94530000D01*
X138575000Y-94530000D01*
X138275000Y-94530000D01*
X138075000Y-94530000D01*
X137775000Y-94530000D01*
X137575000Y-94530000D01*
X137275000Y-94530000D01*
X137075000Y-94530000D01*
X136775000Y-94530000D01*
X136575000Y-94530000D01*
X136275000Y-94530000D01*
X136075000Y-94530000D01*
X135775000Y-94530000D01*
X135575000Y-94530000D01*
X135275000Y-94530000D01*
X135075000Y-94530000D01*
X134775000Y-94530000D01*
X134575000Y-94530000D01*
X134275000Y-94530000D01*
X134075000Y-94530000D01*
X133775000Y-94530000D01*
X133575000Y-94530000D01*
X133574999Y-95654999D01*
X133275000Y-95654999D01*
X133275000Y-94530000D01*
X133075000Y-94530000D01*
X132775000Y-94530000D01*
X132575000Y-94530000D01*
X132275000Y-94530000D01*
X132075000Y-94530000D01*
X131775000Y-94530000D01*
X131699500Y-94530000D01*
X131632461Y-94510315D01*
X131586706Y-94457511D01*
X131575500Y-94406002D01*
X131575499Y-94354002D01*
X131595182Y-94286963D01*
X131647985Y-94241207D01*
X131699499Y-94230000D01*
X131775000Y-94230000D01*
X131775000Y-93105000D01*
X132075000Y-93105000D01*
X132075000Y-94230000D01*
X132275000Y-94230000D01*
X132275000Y-93105000D01*
X132575000Y-93105000D01*
X132575000Y-94230000D01*
X132774999Y-94230000D01*
X132775000Y-93105000D01*
X133075000Y-93105000D01*
X133075000Y-94230000D01*
X133275000Y-94230000D01*
X133574999Y-94230000D01*
X133775000Y-94230000D01*
X133775000Y-93105000D01*
X134075000Y-93105000D01*
X134075000Y-94230000D01*
X134275000Y-94230000D01*
X134275000Y-93105000D01*
X134575000Y-93105000D01*
X134575000Y-94230000D01*
X134775000Y-94230000D01*
X134775000Y-93105000D01*
X135075000Y-93105000D01*
X135075000Y-94230000D01*
X135275000Y-94230000D01*
X135275000Y-93105000D01*
X135575000Y-93105000D01*
X135575000Y-94230000D01*
X135775000Y-94230000D01*
X135775000Y-93105000D01*
X136075000Y-93105000D01*
X136075000Y-94230000D01*
X136275000Y-94230000D01*
X136275000Y-93105000D01*
X136575000Y-93105000D01*
X136575000Y-94230000D01*
X136775000Y-94230000D01*
X136775000Y-93105000D01*
X137075000Y-93105000D01*
X137075000Y-94230000D01*
X137275000Y-94230000D01*
X137275000Y-93105000D01*
X137575000Y-93105000D01*
X137575000Y-94230000D01*
X137775000Y-94230000D01*
X137775000Y-93105000D01*
X138075000Y-93105000D01*
X138075000Y-94230000D01*
X138275000Y-94230000D01*
X138275000Y-93105000D01*
X138575000Y-93105000D01*
X138575000Y-94230000D01*
X138775000Y-94230000D01*
X138775000Y-93105000D01*
X139075000Y-93105000D01*
X139075000Y-94230000D01*
X139575000Y-94230000D01*
X139575000Y-93557172D01*
X139574999Y-93557155D01*
X139568598Y-93497627D01*
X139568596Y-93497620D01*
X139518354Y-93362913D01*
X139518350Y-93362906D01*
X139432190Y-93247812D01*
X139432187Y-93247809D01*
X139317093Y-93161649D01*
X139317086Y-93161645D01*
X139182379Y-93111403D01*
X139182372Y-93111401D01*
X139122844Y-93105000D01*
X139075000Y-93105000D01*
X138775000Y-93105000D01*
X138727164Y-93105000D01*
X138688252Y-93109183D01*
X138661748Y-93109183D01*
X138622835Y-93105000D01*
X138575000Y-93105000D01*
X138275000Y-93105000D01*
X138227164Y-93105000D01*
X138188252Y-93109183D01*
X138161748Y-93109183D01*
X138122835Y-93105000D01*
X138075000Y-93105000D01*
X137775000Y-93105000D01*
X137727164Y-93105000D01*
X137688252Y-93109183D01*
X137661748Y-93109183D01*
X137622835Y-93105000D01*
X137575000Y-93105000D01*
X137275000Y-93105000D01*
X137227164Y-93105000D01*
X137188252Y-93109183D01*
X137161748Y-93109183D01*
X137122835Y-93105000D01*
X137075000Y-93105000D01*
X136775000Y-93105000D01*
X136727164Y-93105000D01*
X136688252Y-93109183D01*
X136661748Y-93109183D01*
X136622835Y-93105000D01*
X136575000Y-93105000D01*
X136275000Y-93105000D01*
X136227164Y-93105000D01*
X136188252Y-93109183D01*
X136161748Y-93109183D01*
X136122835Y-93105000D01*
X136075000Y-93105000D01*
X135775000Y-93105000D01*
X135727164Y-93105000D01*
X135688252Y-93109183D01*
X135661748Y-93109183D01*
X135622835Y-93105000D01*
X135575000Y-93105000D01*
X135275000Y-93105000D01*
X135227164Y-93105000D01*
X135188252Y-93109183D01*
X135161748Y-93109183D01*
X135122835Y-93105000D01*
X135075000Y-93105000D01*
X134775000Y-93105000D01*
X134727164Y-93105000D01*
X134688252Y-93109183D01*
X134661748Y-93109183D01*
X134622835Y-93105000D01*
X134575000Y-93105000D01*
X134275000Y-93105000D01*
X134227164Y-93105000D01*
X134188252Y-93109183D01*
X134161748Y-93109183D01*
X134122835Y-93105000D01*
X134075000Y-93105000D01*
X133775000Y-93105000D01*
X133727164Y-93105000D01*
X133688252Y-93109183D01*
X133661748Y-93109183D01*
X133622835Y-93105000D01*
X133575000Y-93105000D01*
X133574999Y-94230000D01*
X133275000Y-94230000D01*
X133275000Y-93105000D01*
X133227164Y-93105000D01*
X133188252Y-93109183D01*
X133161748Y-93109183D01*
X133122835Y-93105000D01*
X133075000Y-93105000D01*
X132775000Y-93105000D01*
X132727164Y-93105000D01*
X132688252Y-93109183D01*
X132661748Y-93109183D01*
X132622835Y-93105000D01*
X132575000Y-93105000D01*
X132275000Y-93105000D01*
X132227164Y-93105000D01*
X132188252Y-93109183D01*
X132161748Y-93109183D01*
X132122835Y-93105000D01*
X132075000Y-93105000D01*
X131775000Y-93105000D01*
X131727164Y-93105000D01*
X131688252Y-93109183D01*
X131661748Y-93109183D01*
X131622835Y-93105000D01*
X131575000Y-93105000D01*
X131575000Y-93106373D01*
X131555315Y-93173412D01*
X131502511Y-93219167D01*
X131433353Y-93229111D01*
X131376690Y-93205640D01*
X131324687Y-93166711D01*
X131288888Y-93118888D01*
X131275000Y-93105000D01*
X131227165Y-93105000D01*
X131190598Y-93108931D01*
X131164092Y-93108931D01*
X131122873Y-93104500D01*
X130727130Y-93104500D01*
X130727119Y-93104501D01*
X130688253Y-93108679D01*
X130661748Y-93108679D01*
X130622874Y-93104500D01*
X130227130Y-93104500D01*
X130227119Y-93104501D01*
X130188253Y-93108679D01*
X130161748Y-93108679D01*
X130122874Y-93104500D01*
X129727130Y-93104500D01*
X129727119Y-93104501D01*
X129688253Y-93108679D01*
X129661748Y-93108679D01*
X129622874Y-93104500D01*
X129227130Y-93104500D01*
X129227119Y-93104501D01*
X129188253Y-93108679D01*
X129161748Y-93108679D01*
X129122874Y-93104500D01*
X128727130Y-93104500D01*
X128727119Y-93104501D01*
X128688253Y-93108679D01*
X128661748Y-93108679D01*
X128622874Y-93104500D01*
X128227130Y-93104500D01*
X128227119Y-93104501D01*
X128188253Y-93108679D01*
X128161748Y-93108679D01*
X128122874Y-93104500D01*
X127727130Y-93104500D01*
X127727119Y-93104501D01*
X127688253Y-93108679D01*
X127661748Y-93108679D01*
X127622874Y-93104500D01*
X127227130Y-93104500D01*
X127227119Y-93104501D01*
X127188253Y-93108679D01*
X127161748Y-93108679D01*
X127122874Y-93104500D01*
X126727130Y-93104500D01*
X126727119Y-93104501D01*
X126688253Y-93108679D01*
X126661748Y-93108679D01*
X126622874Y-93104500D01*
X126227130Y-93104500D01*
X126227119Y-93104501D01*
X126188253Y-93108679D01*
X126161748Y-93108679D01*
X126122874Y-93104500D01*
X125727130Y-93104500D01*
X125727119Y-93104501D01*
X125688253Y-93108679D01*
X125661748Y-93108679D01*
X125622874Y-93104500D01*
X125227129Y-93104500D01*
X125227123Y-93104501D01*
X125167516Y-93110908D01*
X125032671Y-93161202D01*
X125032664Y-93161206D01*
X124917455Y-93247452D01*
X124917452Y-93247455D01*
X124831206Y-93362664D01*
X124831202Y-93362671D01*
X124780908Y-93497517D01*
X124774501Y-93557116D01*
X124774501Y-93557123D01*
X124774500Y-93557135D01*
X124774500Y-95202870D01*
X124774501Y-95202879D01*
X124777075Y-95226822D01*
X124764668Y-95295581D01*
X124717056Y-95346717D01*
X124649356Y-95363995D01*
X124642978Y-95363602D01*
X124425002Y-95344532D01*
X124424998Y-95344532D01*
X124198313Y-95364364D01*
X124198302Y-95364366D01*
X123978511Y-95423258D01*
X123978502Y-95423261D01*
X123772267Y-95519431D01*
X123772265Y-95519432D01*
X123585858Y-95649954D01*
X123424954Y-95810858D01*
X123294432Y-95997265D01*
X123294431Y-95997267D01*
X123198261Y-96203502D01*
X123198258Y-96203511D01*
X123139366Y-96423302D01*
X123139364Y-96423313D01*
X123119532Y-96649998D01*
X123119532Y-96650001D01*
X122601511Y-96650001D01*
X122601511Y-73742870D01*
X148999500Y-73742870D01*
X148999501Y-73742876D01*
X149005908Y-73802483D01*
X149048763Y-73917381D01*
X149053747Y-73987073D01*
X149048763Y-74004047D01*
X149006403Y-74117620D01*
X149006401Y-74117627D01*
X149000000Y-74177155D01*
X149000000Y-74345000D01*
X152200000Y-74345000D01*
X152200000Y-74177172D01*
X152199999Y-74177155D01*
X152193598Y-74117627D01*
X152193597Y-74117623D01*
X152151236Y-74004049D01*
X152146252Y-73934357D01*
X152151232Y-73917391D01*
X152194091Y-73802483D01*
X152200500Y-73742873D01*
X152200500Y-73742870D01*
X152599500Y-73742870D01*
X152599501Y-73742876D01*
X152605908Y-73802483D01*
X152648763Y-73917381D01*
X152653747Y-73987073D01*
X152648763Y-74004047D01*
X152606403Y-74117620D01*
X152606401Y-74117627D01*
X152600000Y-74177155D01*
X152600000Y-74345000D01*
X155800000Y-74345000D01*
X155800000Y-74177172D01*
X155799999Y-74177155D01*
X155793598Y-74117627D01*
X155793597Y-74117623D01*
X155751236Y-74004049D01*
X155746252Y-73934357D01*
X155751232Y-73917391D01*
X155794091Y-73802483D01*
X155800500Y-73742873D01*
X155800499Y-72907128D01*
X155794091Y-72847517D01*
X155751503Y-72733332D01*
X155746519Y-72663640D01*
X155751499Y-72646676D01*
X155794091Y-72532483D01*
X155800500Y-72472873D01*
X155800499Y-71637128D01*
X155794091Y-71577517D01*
X155743796Y-71442669D01*
X155743795Y-71442668D01*
X155743793Y-71442664D01*
X155657547Y-71327455D01*
X155657544Y-71327452D01*
X155542335Y-71241206D01*
X155542328Y-71241202D01*
X155407482Y-71190908D01*
X155407483Y-71190908D01*
X155347883Y-71184501D01*
X155347881Y-71184500D01*
X155347873Y-71184500D01*
X155347864Y-71184500D01*
X153052129Y-71184500D01*
X153052123Y-71184501D01*
X152992516Y-71190908D01*
X152857671Y-71241202D01*
X152857664Y-71241206D01*
X152742455Y-71327452D01*
X152742452Y-71327455D01*
X152656206Y-71442664D01*
X152656202Y-71442671D01*
X152605908Y-71577517D01*
X152599501Y-71637116D01*
X152599501Y-71637123D01*
X152599500Y-71637135D01*
X152599500Y-72472870D01*
X152599501Y-72472876D01*
X152605908Y-72532483D01*
X152648496Y-72646667D01*
X152653480Y-72716359D01*
X152648496Y-72733333D01*
X152605908Y-72847516D01*
X152599501Y-72907116D01*
X152599501Y-72907123D01*
X152599500Y-72907135D01*
X152599500Y-73742870D01*
X152200500Y-73742870D01*
X152200499Y-72907128D01*
X152194091Y-72847517D01*
X152151503Y-72733332D01*
X152146519Y-72663640D01*
X152151499Y-72646676D01*
X152194091Y-72532483D01*
X152200500Y-72472873D01*
X152200499Y-71637128D01*
X152194091Y-71577517D01*
X152143796Y-71442669D01*
X152143795Y-71442668D01*
X152143793Y-71442664D01*
X152057547Y-71327455D01*
X152057544Y-71327452D01*
X151942335Y-71241206D01*
X151942328Y-71241202D01*
X151807482Y-71190908D01*
X151807483Y-71190908D01*
X151747883Y-71184501D01*
X151747881Y-71184500D01*
X151747873Y-71184500D01*
X151747864Y-71184500D01*
X149452129Y-71184500D01*
X149452123Y-71184501D01*
X149392516Y-71190908D01*
X149257671Y-71241202D01*
X149257664Y-71241206D01*
X149142455Y-71327452D01*
X149142452Y-71327455D01*
X149056206Y-71442664D01*
X149056202Y-71442671D01*
X149005908Y-71577517D01*
X148999501Y-71637116D01*
X148999501Y-71637123D01*
X148999500Y-71637135D01*
X148999500Y-72472870D01*
X148999501Y-72472876D01*
X149005908Y-72532483D01*
X149048496Y-72646667D01*
X149053480Y-72716359D01*
X149048496Y-72733333D01*
X149005908Y-72847516D01*
X148999501Y-72907116D01*
X148999501Y-72907123D01*
X148999500Y-72907135D01*
X148999500Y-73742870D01*
X122601511Y-73742870D01*
X122601511Y-57825028D01*
X122601570Y-57822323D01*
X122602605Y-57798624D01*
X122610000Y-57629295D01*
X122610365Y-57621385D01*
X122620656Y-57398868D01*
X122621115Y-57393691D01*
X122648818Y-57183285D01*
X122663924Y-57075005D01*
X132045254Y-57075005D01*
X132064215Y-57376383D01*
X132064216Y-57376390D01*
X132120805Y-57673040D01*
X132214125Y-57960247D01*
X132214127Y-57960252D01*
X132342704Y-58233491D01*
X132342707Y-58233497D01*
X132504513Y-58488464D01*
X132585312Y-58586133D01*
X133514210Y-57657234D01*
X133614894Y-57798624D01*
X133766932Y-57943592D01*
X133869222Y-58009329D01*
X132936564Y-58941986D01*
X133161474Y-59105393D01*
X133161485Y-59105400D01*
X133426109Y-59250878D01*
X133426117Y-59250882D01*
X133706889Y-59362047D01*
X133706892Y-59362048D01*
X133999399Y-59437150D01*
X134298995Y-59474999D01*
X134299007Y-59475000D01*
X134600993Y-59475000D01*
X134601004Y-59474999D01*
X134900600Y-59437150D01*
X135193107Y-59362048D01*
X135193110Y-59362047D01*
X135473882Y-59250882D01*
X135473890Y-59250878D01*
X135738514Y-59105400D01*
X135738525Y-59105393D01*
X135963433Y-58941986D01*
X135963434Y-58941986D01*
X135033306Y-58011859D01*
X135047410Y-58004589D01*
X135212540Y-57874729D01*
X135350110Y-57715965D01*
X135384665Y-57656112D01*
X136314686Y-58586133D01*
X136395483Y-58488469D01*
X136557292Y-58233497D01*
X136557295Y-58233491D01*
X136685872Y-57960252D01*
X136685874Y-57960247D01*
X136754188Y-57750000D01*
X147945197Y-57750000D01*
X147964397Y-58116353D01*
X148021784Y-58478684D01*
X148021784Y-58478686D01*
X148116736Y-58833051D01*
X148248204Y-59175535D01*
X148414754Y-59502406D01*
X148614549Y-59810064D01*
X148803297Y-60043147D01*
X150226389Y-58620056D01*
X150342632Y-58769404D01*
X150525523Y-58937768D01*
X150580116Y-58973435D01*
X149156851Y-60396701D01*
X149389935Y-60585450D01*
X149697593Y-60785245D01*
X150024464Y-60951795D01*
X150366948Y-61083263D01*
X150721314Y-61178215D01*
X151083646Y-61235602D01*
X151449999Y-61254803D01*
X151450001Y-61254803D01*
X151816353Y-61235602D01*
X152178684Y-61178215D01*
X152178686Y-61178215D01*
X152533051Y-61083263D01*
X152875535Y-60951795D01*
X153202406Y-60785245D01*
X153510065Y-60585450D01*
X153743148Y-60396702D01*
X153743148Y-60396701D01*
X152319883Y-58973435D01*
X152374477Y-58937768D01*
X152557368Y-58769404D01*
X152673610Y-58620057D01*
X154096701Y-60043148D01*
X154096702Y-60043148D01*
X154285450Y-59810065D01*
X154485245Y-59502406D01*
X154651795Y-59175535D01*
X154783263Y-58833051D01*
X154878215Y-58478686D01*
X154878215Y-58478684D01*
X154935602Y-58116353D01*
X154954803Y-57750000D01*
X154954803Y-57749999D01*
X154935602Y-57383646D01*
X154878215Y-57021315D01*
X154878215Y-57021313D01*
X154783263Y-56666948D01*
X154651795Y-56324464D01*
X154485245Y-55997594D01*
X154285450Y-55689935D01*
X154096701Y-55456851D01*
X152673609Y-56879942D01*
X152557368Y-56730596D01*
X152374477Y-56562232D01*
X152319882Y-56526563D01*
X153743148Y-55103297D01*
X153510064Y-54914549D01*
X153202406Y-54714754D01*
X152875535Y-54548204D01*
X152533051Y-54416736D01*
X152178685Y-54321784D01*
X151816353Y-54264397D01*
X151450001Y-54245197D01*
X151449999Y-54245197D01*
X151083646Y-54264397D01*
X150721315Y-54321784D01*
X150721313Y-54321784D01*
X150366948Y-54416736D01*
X150024464Y-54548204D01*
X149697594Y-54714754D01*
X149389929Y-54914553D01*
X149156851Y-55103297D01*
X150580117Y-56526563D01*
X150525523Y-56562232D01*
X150342632Y-56730596D01*
X150226389Y-56879943D01*
X148803297Y-55456851D01*
X148614553Y-55689929D01*
X148414754Y-55997594D01*
X148248204Y-56324464D01*
X148116736Y-56666948D01*
X148021784Y-57021313D01*
X148021784Y-57021315D01*
X147964397Y-57383646D01*
X147945197Y-57749999D01*
X147945197Y-57750000D01*
X136754188Y-57750000D01*
X136779194Y-57673040D01*
X136835783Y-57376390D01*
X136835784Y-57376383D01*
X136854745Y-57075005D01*
X136854745Y-57074994D01*
X136835784Y-56773616D01*
X136835783Y-56773609D01*
X136779194Y-56476959D01*
X136685874Y-56189752D01*
X136685872Y-56189747D01*
X136557295Y-55916508D01*
X136557292Y-55916502D01*
X136395486Y-55661535D01*
X136314685Y-55563864D01*
X135385787Y-56492762D01*
X135285106Y-56351376D01*
X135133068Y-56206408D01*
X135030776Y-56140669D01*
X135963434Y-55208012D01*
X135738530Y-55044609D01*
X135738520Y-55044602D01*
X135473890Y-54899121D01*
X135473882Y-54899117D01*
X135193110Y-54787952D01*
X135193107Y-54787951D01*
X134900600Y-54712849D01*
X134601004Y-54675000D01*
X134298995Y-54675000D01*
X133999399Y-54712849D01*
X133706892Y-54787951D01*
X133706889Y-54787952D01*
X133426117Y-54899117D01*
X133426109Y-54899121D01*
X133161479Y-55044602D01*
X133161461Y-55044614D01*
X132936565Y-55208010D01*
X132936564Y-55208012D01*
X133866693Y-56138140D01*
X133852590Y-56145411D01*
X133687460Y-56275271D01*
X133549890Y-56434035D01*
X133515334Y-56493886D01*
X132585312Y-55563864D01*
X132504516Y-55661530D01*
X132342707Y-55916502D01*
X132342704Y-55916508D01*
X132214127Y-56189747D01*
X132214125Y-56189752D01*
X132120805Y-56476959D01*
X132064216Y-56773609D01*
X132064215Y-56773616D01*
X132045254Y-57074994D01*
X132045254Y-57075005D01*
X122663924Y-57075005D01*
X122678679Y-56969240D01*
X122679545Y-56964440D01*
X122726149Y-56754235D01*
X122774984Y-56546610D01*
X122776192Y-56542214D01*
X122841360Y-56335532D01*
X122908799Y-56134330D01*
X122910284Y-56130363D01*
X122993287Y-55929979D01*
X122993722Y-55928965D01*
X123079049Y-55735720D01*
X123080719Y-55732244D01*
X123181028Y-55539554D01*
X123181748Y-55538217D01*
X123284334Y-55354043D01*
X123286143Y-55351008D01*
X123402959Y-55167644D01*
X123404009Y-55166055D01*
X123523020Y-54992321D01*
X123524932Y-54989685D01*
X123657328Y-54817144D01*
X123658734Y-54815383D01*
X123793172Y-54653485D01*
X123795097Y-54651278D01*
X123942091Y-54490861D01*
X123943862Y-54489011D01*
X124092694Y-54340179D01*
X124094515Y-54338436D01*
X124254942Y-54191431D01*
X124257140Y-54189515D01*
X124419060Y-54055058D01*
X124420783Y-54053682D01*
X124593368Y-53921252D01*
X124595969Y-53919365D01*
X124769780Y-53800302D01*
X124771222Y-53799348D01*
X124954644Y-53682494D01*
X124957733Y-53680654D01*
X124957762Y-53680638D01*
X125141891Y-53578077D01*
X125143252Y-53577344D01*
X125335895Y-53477058D01*
X125339383Y-53475382D01*
X125532573Y-53390079D01*
X125533730Y-53389583D01*
X125734032Y-53306614D01*
X125737987Y-53305134D01*
X125939255Y-53237673D01*
X126145849Y-53172532D01*
X126150253Y-53171321D01*
X126357907Y-53122478D01*
X126568096Y-53075878D01*
X126572907Y-53075009D01*
X126786793Y-53045170D01*
X126997361Y-53017445D01*
X127002544Y-53016986D01*
X127233638Y-53006300D01*
X127423028Y-52998028D01*
X127425864Y-52997905D01*
X127428569Y-52997846D01*
X151375984Y-52997846D01*
X151378689Y-52997905D01*
G37*
%TD.AperFunction*%
%TD*%
M02*
