%TF.GenerationSoftware,KiCad,Pcbnew,7.0.5-0*%
%TF.CreationDate,2023-07-31T21:43:18-04:00*%
%TF.ProjectId,carrier-arm14,63617272-6965-4722-9d61-726d31342e6b,rev?*%
%TF.SameCoordinates,Original*%
%TF.FileFunction,Copper,L4,Bot*%
%TF.FilePolarity,Positive*%
%FSLAX46Y46*%
G04 Gerber Fmt 4.6, Leading zero omitted, Abs format (unit mm)*
G04 Created by KiCad (PCBNEW 7.0.5-0) date 2023-07-31 21:43:18*
%MOMM*%
%LPD*%
G01*
G04 APERTURE LIST*
%TA.AperFunction,ComponentPad*%
%ADD10C,6.000000*%
%TD*%
%TA.AperFunction,ComponentPad*%
%ADD11C,1.100000*%
%TD*%
%TA.AperFunction,ComponentPad*%
%ADD12C,1.600000*%
%TD*%
%TA.AperFunction,ComponentPad*%
%ADD13C,3.800000*%
%TD*%
%TA.AperFunction,ViaPad*%
%ADD14C,0.800000*%
%TD*%
G04 APERTURE END LIST*
D10*
%TO.P,H104,1,1*%
%TO.N,GND*%
X127450000Y-107750000D03*
%TD*%
%TO.P,H102,1,1*%
%TO.N,GND*%
X151450000Y-57750000D03*
%TD*%
D11*
%TO.P,CN101,*%
%TO.N,*%
X144425000Y-96650000D03*
D12*
X124425000Y-96650000D03*
%TD*%
D10*
%TO.P,H103,1,1*%
%TO.N,GND*%
X151450000Y-107750000D03*
%TD*%
D13*
%TO.P,H105,1,1*%
%TO.N,GND*%
X134450000Y-57075000D03*
%TD*%
D14*
%TO.N,GND*%
X152375000Y-74575000D03*
X152350000Y-89600000D03*
X140175000Y-94075000D03*
X139900000Y-101775000D03*
%TD*%
%TA.AperFunction,Conductor*%
%TO.N,GND*%
G36*
X151378689Y-52997905D02*
G01*
X151571872Y-53006341D01*
X151750797Y-53014615D01*
X151802127Y-53016989D01*
X151807341Y-53017451D01*
X152017768Y-53045156D01*
X152231757Y-53075007D01*
X152236568Y-53075875D01*
X152446784Y-53122480D01*
X152654378Y-53171307D01*
X152658823Y-53172529D01*
X152865422Y-53237671D01*
X153066680Y-53305127D01*
X153070649Y-53306612D01*
X153270992Y-53389598D01*
X153272086Y-53390066D01*
X153419510Y-53455161D01*
X153465239Y-53475353D01*
X153468811Y-53477068D01*
X153661341Y-53577294D01*
X153662873Y-53578119D01*
X153846926Y-53680638D01*
X153850070Y-53682512D01*
X153949660Y-53745957D01*
X154033349Y-53799273D01*
X154035016Y-53800376D01*
X154208656Y-53919322D01*
X154211348Y-53921275D01*
X154383843Y-54053636D01*
X154385680Y-54055101D01*
X154517387Y-54164470D01*
X154547495Y-54189472D01*
X154549774Y-54191460D01*
X154710108Y-54338380D01*
X154712062Y-54340250D01*
X154786410Y-54414597D01*
X154860775Y-54488963D01*
X154862630Y-54490901D01*
X155009530Y-54651215D01*
X155011518Y-54653493D01*
X155145911Y-54815337D01*
X155147400Y-54817203D01*
X155279719Y-54989644D01*
X155281674Y-54992340D01*
X155400619Y-55165977D01*
X155401745Y-55167681D01*
X155518495Y-55350943D01*
X155520370Y-55354086D01*
X155622880Y-55538129D01*
X155623710Y-55539670D01*
X155723926Y-55732180D01*
X155725649Y-55735766D01*
X155810894Y-55928825D01*
X155811440Y-55930102D01*
X155836237Y-55989965D01*
X155894378Y-56130329D01*
X155895884Y-56134354D01*
X155963339Y-56335611D01*
X156028472Y-56542183D01*
X156029695Y-56546633D01*
X156078523Y-56754235D01*
X156125121Y-56964423D01*
X156125996Y-56969278D01*
X156155853Y-57183306D01*
X156183547Y-57393655D01*
X156184011Y-57398885D01*
X156194569Y-57627088D01*
X156203106Y-57822575D01*
X156203165Y-57825280D01*
X156203165Y-107798646D01*
X156203106Y-107801351D01*
X156194679Y-107994348D01*
X156184025Y-108224783D01*
X156183561Y-108230015D01*
X156155861Y-108440414D01*
X156126012Y-108654398D01*
X156125137Y-108659254D01*
X156078540Y-108869435D01*
X156029709Y-109077051D01*
X156028486Y-109081501D01*
X155963360Y-109288058D01*
X155895903Y-109489326D01*
X155894397Y-109493351D01*
X155811476Y-109693539D01*
X155810913Y-109694855D01*
X155725671Y-109887911D01*
X155723948Y-109891497D01*
X155623722Y-110084032D01*
X155622892Y-110085573D01*
X155520383Y-110269612D01*
X155518508Y-110272755D01*
X155401781Y-110455982D01*
X155400640Y-110457708D01*
X155281695Y-110631347D01*
X155279733Y-110634053D01*
X155147395Y-110806518D01*
X155145906Y-110808383D01*
X155011545Y-110970191D01*
X155009557Y-110972470D01*
X154862649Y-111132792D01*
X154860778Y-111134746D01*
X154712073Y-111283453D01*
X154710119Y-111285324D01*
X154549803Y-111432227D01*
X154547525Y-111434215D01*
X154385727Y-111568572D01*
X154383862Y-111570061D01*
X154211352Y-111702433D01*
X154208647Y-111704395D01*
X154035070Y-111823299D01*
X154033344Y-111824439D01*
X153850089Y-111941187D01*
X153846945Y-111943062D01*
X153662899Y-112045577D01*
X153661358Y-112046407D01*
X153468827Y-112146634D01*
X153465241Y-112148357D01*
X153272206Y-112233591D01*
X153270889Y-112234155D01*
X153070691Y-112317082D01*
X153066666Y-112318588D01*
X152865406Y-112386044D01*
X152658827Y-112451179D01*
X152654377Y-112452402D01*
X152446753Y-112501236D01*
X152236596Y-112547828D01*
X152231740Y-112548704D01*
X152017715Y-112578561D01*
X151807376Y-112606254D01*
X151802139Y-112606719D01*
X151563282Y-112617743D01*
X151379548Y-112625768D01*
X151376842Y-112625827D01*
X127428690Y-112625827D01*
X127425986Y-112625768D01*
X127232973Y-112617341D01*
X127002550Y-112606690D01*
X126997318Y-112606226D01*
X126786935Y-112578530D01*
X126572933Y-112548679D01*
X126568077Y-112547804D01*
X126357942Y-112501219D01*
X126150282Y-112452380D01*
X126145831Y-112451157D01*
X125939233Y-112386018D01*
X125738000Y-112318572D01*
X125733976Y-112317066D01*
X125533834Y-112234166D01*
X125532518Y-112233603D01*
X125339412Y-112148340D01*
X125335826Y-112146617D01*
X125143287Y-112046390D01*
X125141745Y-112045559D01*
X124957729Y-111943064D01*
X124954585Y-111941189D01*
X124771311Y-111824432D01*
X124769585Y-111823291D01*
X124595994Y-111704380D01*
X124593289Y-111702418D01*
X124420812Y-111570074D01*
X124418947Y-111568584D01*
X124348576Y-111510150D01*
X124257110Y-111434198D01*
X124254856Y-111432231D01*
X124094529Y-111285319D01*
X124092575Y-111283448D01*
X123943869Y-111134743D01*
X123941998Y-111132789D01*
X123795101Y-110972480D01*
X123793113Y-110970201D01*
X123658741Y-110808385D01*
X123657252Y-110806520D01*
X123524900Y-110634036D01*
X123522938Y-110631331D01*
X123403966Y-110457654D01*
X123402925Y-110456080D01*
X123286100Y-110272701D01*
X123284287Y-110269660D01*
X123181754Y-110085579D01*
X123180924Y-110084038D01*
X123080694Y-109891501D01*
X123078971Y-109887915D01*
X123078969Y-109887911D01*
X122993723Y-109694849D01*
X122993196Y-109693617D01*
X122910231Y-109493323D01*
X122908744Y-109489350D01*
X122841286Y-109288081D01*
X122824428Y-109234613D01*
X122776146Y-109081483D01*
X122774931Y-109077062D01*
X122726097Y-108869435D01*
X122720839Y-108845717D01*
X122679495Y-108659229D01*
X122678625Y-108654398D01*
X122648776Y-108440414D01*
X122621077Y-108230021D01*
X122620614Y-108224810D01*
X122609586Y-107985832D01*
X122601570Y-107802232D01*
X122601511Y-107799528D01*
X122601511Y-107750000D01*
X123945197Y-107750000D01*
X123964397Y-108116353D01*
X124021784Y-108478684D01*
X124021784Y-108478686D01*
X124116736Y-108833051D01*
X124248204Y-109175535D01*
X124414754Y-109502406D01*
X124614549Y-109810064D01*
X124803297Y-110043147D01*
X126226389Y-108620056D01*
X126342632Y-108769404D01*
X126525523Y-108937768D01*
X126580116Y-108973435D01*
X125156851Y-110396701D01*
X125389935Y-110585450D01*
X125697593Y-110785245D01*
X126024464Y-110951795D01*
X126366948Y-111083263D01*
X126721314Y-111178215D01*
X127083646Y-111235602D01*
X127449999Y-111254803D01*
X127450001Y-111254803D01*
X127816353Y-111235602D01*
X128178684Y-111178215D01*
X128178686Y-111178215D01*
X128533051Y-111083263D01*
X128875535Y-110951795D01*
X129202406Y-110785245D01*
X129510065Y-110585450D01*
X129743148Y-110396702D01*
X129743148Y-110396701D01*
X128319883Y-108973435D01*
X128374477Y-108937768D01*
X128557368Y-108769404D01*
X128673610Y-108620057D01*
X130096701Y-110043148D01*
X130096702Y-110043148D01*
X130285450Y-109810065D01*
X130485245Y-109502406D01*
X130651795Y-109175535D01*
X130783263Y-108833051D01*
X130878215Y-108478686D01*
X130878215Y-108478684D01*
X130935602Y-108116353D01*
X130954803Y-107750000D01*
X147945197Y-107750000D01*
X147964397Y-108116353D01*
X148021784Y-108478684D01*
X148021784Y-108478686D01*
X148116736Y-108833051D01*
X148248204Y-109175535D01*
X148414754Y-109502406D01*
X148614549Y-109810064D01*
X148803297Y-110043147D01*
X150226389Y-108620056D01*
X150342632Y-108769404D01*
X150525523Y-108937768D01*
X150580116Y-108973435D01*
X149156851Y-110396701D01*
X149389935Y-110585450D01*
X149697593Y-110785245D01*
X150024464Y-110951795D01*
X150366948Y-111083263D01*
X150721314Y-111178215D01*
X151083646Y-111235602D01*
X151449999Y-111254803D01*
X151450001Y-111254803D01*
X151816353Y-111235602D01*
X152178684Y-111178215D01*
X152178686Y-111178215D01*
X152533051Y-111083263D01*
X152875535Y-110951795D01*
X153202406Y-110785245D01*
X153510065Y-110585450D01*
X153743148Y-110396702D01*
X153743148Y-110396701D01*
X152319883Y-108973435D01*
X152374477Y-108937768D01*
X152557368Y-108769404D01*
X152673610Y-108620057D01*
X154096701Y-110043148D01*
X154096702Y-110043148D01*
X154285450Y-109810065D01*
X154485245Y-109502406D01*
X154651795Y-109175535D01*
X154783263Y-108833051D01*
X154878215Y-108478686D01*
X154878215Y-108478684D01*
X154935602Y-108116353D01*
X154954803Y-107750000D01*
X154954803Y-107749999D01*
X154935602Y-107383646D01*
X154878215Y-107021315D01*
X154878215Y-107021313D01*
X154783263Y-106666948D01*
X154651795Y-106324464D01*
X154485245Y-105997594D01*
X154285450Y-105689935D01*
X154096701Y-105456851D01*
X152673609Y-106879942D01*
X152557368Y-106730596D01*
X152374477Y-106562232D01*
X152319882Y-106526563D01*
X153743148Y-105103297D01*
X153510064Y-104914549D01*
X153202406Y-104714754D01*
X152875535Y-104548204D01*
X152533051Y-104416736D01*
X152178685Y-104321784D01*
X151816353Y-104264397D01*
X151450001Y-104245197D01*
X151449999Y-104245197D01*
X151083646Y-104264397D01*
X150721315Y-104321784D01*
X150721313Y-104321784D01*
X150366948Y-104416736D01*
X150024464Y-104548204D01*
X149697594Y-104714754D01*
X149389929Y-104914553D01*
X149156851Y-105103297D01*
X150580117Y-106526563D01*
X150525523Y-106562232D01*
X150342632Y-106730596D01*
X150226389Y-106879943D01*
X148803297Y-105456851D01*
X148614553Y-105689929D01*
X148414754Y-105997594D01*
X148248204Y-106324464D01*
X148116736Y-106666948D01*
X148021784Y-107021313D01*
X148021784Y-107021315D01*
X147964397Y-107383646D01*
X147945197Y-107749999D01*
X147945197Y-107750000D01*
X130954803Y-107750000D01*
X130954803Y-107749999D01*
X130935602Y-107383646D01*
X130878215Y-107021315D01*
X130878215Y-107021313D01*
X130783263Y-106666948D01*
X130651795Y-106324464D01*
X130485245Y-105997594D01*
X130285450Y-105689935D01*
X130096701Y-105456851D01*
X128673609Y-106879942D01*
X128557368Y-106730596D01*
X128374477Y-106562232D01*
X128319882Y-106526563D01*
X129743148Y-105103297D01*
X129510064Y-104914549D01*
X129202406Y-104714754D01*
X128875535Y-104548204D01*
X128533051Y-104416736D01*
X128178685Y-104321784D01*
X127816353Y-104264397D01*
X127450001Y-104245197D01*
X127449999Y-104245197D01*
X127083646Y-104264397D01*
X126721315Y-104321784D01*
X126721313Y-104321784D01*
X126366948Y-104416736D01*
X126024464Y-104548204D01*
X125697594Y-104714754D01*
X125389929Y-104914553D01*
X125156851Y-105103297D01*
X126580117Y-106526563D01*
X126525523Y-106562232D01*
X126342632Y-106730596D01*
X126226389Y-106879943D01*
X124803297Y-105456851D01*
X124614553Y-105689929D01*
X124414754Y-105997594D01*
X124248204Y-106324464D01*
X124116736Y-106666948D01*
X124021784Y-107021313D01*
X124021784Y-107021315D01*
X123964397Y-107383646D01*
X123945197Y-107749999D01*
X123945197Y-107750000D01*
X122601511Y-107750000D01*
X122601511Y-96650001D01*
X123119532Y-96650001D01*
X123139364Y-96876686D01*
X123139366Y-96876697D01*
X123198258Y-97096488D01*
X123198261Y-97096497D01*
X123294431Y-97302732D01*
X123294432Y-97302734D01*
X123424954Y-97489141D01*
X123585858Y-97650045D01*
X123585861Y-97650047D01*
X123772266Y-97780568D01*
X123978504Y-97876739D01*
X124198308Y-97935635D01*
X124360230Y-97949801D01*
X124424998Y-97955468D01*
X124425000Y-97955468D01*
X124425002Y-97955468D01*
X124481672Y-97950509D01*
X124651692Y-97935635D01*
X124871496Y-97876739D01*
X125077734Y-97780568D01*
X125264139Y-97650047D01*
X125425047Y-97489139D01*
X125555568Y-97302734D01*
X125651739Y-97096496D01*
X125710635Y-96876692D01*
X125730468Y-96650000D01*
X125730468Y-96649999D01*
X143369417Y-96649999D01*
X143389699Y-96855932D01*
X143395998Y-96876697D01*
X143449768Y-97053954D01*
X143547315Y-97236450D01*
X143547317Y-97236452D01*
X143678589Y-97396410D01*
X143775209Y-97475702D01*
X143838550Y-97527685D01*
X144021046Y-97625232D01*
X144219066Y-97685300D01*
X144219065Y-97685300D01*
X144239348Y-97687297D01*
X144425000Y-97705583D01*
X144630934Y-97685300D01*
X144828954Y-97625232D01*
X145011450Y-97527685D01*
X145171410Y-97396410D01*
X145302685Y-97236450D01*
X145400232Y-97053954D01*
X145460300Y-96855934D01*
X145480583Y-96650000D01*
X145460300Y-96444066D01*
X145400232Y-96246046D01*
X145302685Y-96063550D01*
X145248287Y-95997265D01*
X145171410Y-95903589D01*
X145011452Y-95772317D01*
X145011453Y-95772317D01*
X145011450Y-95772315D01*
X144828954Y-95674768D01*
X144630934Y-95614700D01*
X144630932Y-95614699D01*
X144630934Y-95614699D01*
X144425000Y-95594417D01*
X144219067Y-95614699D01*
X144021043Y-95674769D01*
X143910898Y-95733643D01*
X143838550Y-95772315D01*
X143838548Y-95772316D01*
X143838547Y-95772317D01*
X143678589Y-95903589D01*
X143547317Y-96063547D01*
X143449769Y-96246043D01*
X143389699Y-96444067D01*
X143369417Y-96649999D01*
X125730468Y-96649999D01*
X125710635Y-96423308D01*
X125651739Y-96203504D01*
X125555568Y-95997266D01*
X125425047Y-95810861D01*
X125425045Y-95810858D01*
X125264141Y-95649954D01*
X125077734Y-95519432D01*
X125077732Y-95519431D01*
X124871497Y-95423261D01*
X124871488Y-95423258D01*
X124651697Y-95364366D01*
X124651693Y-95364365D01*
X124651692Y-95364365D01*
X124651691Y-95364364D01*
X124651686Y-95364364D01*
X124425002Y-95344532D01*
X124424998Y-95344532D01*
X124198313Y-95364364D01*
X124198302Y-95364366D01*
X123978511Y-95423258D01*
X123978502Y-95423261D01*
X123772267Y-95519431D01*
X123772265Y-95519432D01*
X123585858Y-95649954D01*
X123424954Y-95810858D01*
X123294432Y-95997265D01*
X123294431Y-95997267D01*
X123198261Y-96203502D01*
X123198258Y-96203511D01*
X123139366Y-96423302D01*
X123139364Y-96423313D01*
X123119532Y-96649998D01*
X123119532Y-96650001D01*
X122601511Y-96650001D01*
X122601511Y-57825028D01*
X122601570Y-57822323D01*
X122602605Y-57798624D01*
X122610000Y-57629295D01*
X122610365Y-57621385D01*
X122620656Y-57398868D01*
X122621115Y-57393691D01*
X122648818Y-57183285D01*
X122663924Y-57075005D01*
X132045254Y-57075005D01*
X132064215Y-57376383D01*
X132064216Y-57376390D01*
X132120805Y-57673040D01*
X132214125Y-57960247D01*
X132214127Y-57960252D01*
X132342704Y-58233491D01*
X132342707Y-58233497D01*
X132504513Y-58488464D01*
X132585312Y-58586133D01*
X133514210Y-57657234D01*
X133614894Y-57798624D01*
X133766932Y-57943592D01*
X133869222Y-58009329D01*
X132936564Y-58941986D01*
X133161474Y-59105393D01*
X133161485Y-59105400D01*
X133426109Y-59250878D01*
X133426117Y-59250882D01*
X133706889Y-59362047D01*
X133706892Y-59362048D01*
X133999399Y-59437150D01*
X134298995Y-59474999D01*
X134299007Y-59475000D01*
X134600993Y-59475000D01*
X134601004Y-59474999D01*
X134900600Y-59437150D01*
X135193107Y-59362048D01*
X135193110Y-59362047D01*
X135473882Y-59250882D01*
X135473890Y-59250878D01*
X135738514Y-59105400D01*
X135738525Y-59105393D01*
X135963433Y-58941986D01*
X135963434Y-58941986D01*
X135033306Y-58011859D01*
X135047410Y-58004589D01*
X135212540Y-57874729D01*
X135350110Y-57715965D01*
X135384665Y-57656112D01*
X136314686Y-58586133D01*
X136395483Y-58488469D01*
X136557292Y-58233497D01*
X136557295Y-58233491D01*
X136685872Y-57960252D01*
X136685874Y-57960247D01*
X136754188Y-57750000D01*
X147945197Y-57750000D01*
X147964397Y-58116353D01*
X148021784Y-58478684D01*
X148021784Y-58478686D01*
X148116736Y-58833051D01*
X148248204Y-59175535D01*
X148414754Y-59502406D01*
X148614549Y-59810064D01*
X148803297Y-60043147D01*
X150226389Y-58620056D01*
X150342632Y-58769404D01*
X150525523Y-58937768D01*
X150580116Y-58973435D01*
X149156851Y-60396701D01*
X149389935Y-60585450D01*
X149697593Y-60785245D01*
X150024464Y-60951795D01*
X150366948Y-61083263D01*
X150721314Y-61178215D01*
X151083646Y-61235602D01*
X151449999Y-61254803D01*
X151450001Y-61254803D01*
X151816353Y-61235602D01*
X152178684Y-61178215D01*
X152178686Y-61178215D01*
X152533051Y-61083263D01*
X152875535Y-60951795D01*
X153202406Y-60785245D01*
X153510065Y-60585450D01*
X153743148Y-60396702D01*
X153743148Y-60396701D01*
X152319883Y-58973435D01*
X152374477Y-58937768D01*
X152557368Y-58769404D01*
X152673610Y-58620057D01*
X154096701Y-60043148D01*
X154096702Y-60043148D01*
X154285450Y-59810065D01*
X154485245Y-59502406D01*
X154651795Y-59175535D01*
X154783263Y-58833051D01*
X154878215Y-58478686D01*
X154878215Y-58478684D01*
X154935602Y-58116353D01*
X154954803Y-57750000D01*
X154954803Y-57749999D01*
X154935602Y-57383646D01*
X154878215Y-57021315D01*
X154878215Y-57021313D01*
X154783263Y-56666948D01*
X154651795Y-56324464D01*
X154485245Y-55997594D01*
X154285450Y-55689935D01*
X154096701Y-55456851D01*
X152673609Y-56879942D01*
X152557368Y-56730596D01*
X152374477Y-56562232D01*
X152319882Y-56526563D01*
X153743148Y-55103297D01*
X153510064Y-54914549D01*
X153202406Y-54714754D01*
X152875535Y-54548204D01*
X152533051Y-54416736D01*
X152178685Y-54321784D01*
X151816353Y-54264397D01*
X151450001Y-54245197D01*
X151449999Y-54245197D01*
X151083646Y-54264397D01*
X150721315Y-54321784D01*
X150721313Y-54321784D01*
X150366948Y-54416736D01*
X150024464Y-54548204D01*
X149697594Y-54714754D01*
X149389929Y-54914553D01*
X149156851Y-55103297D01*
X150580117Y-56526563D01*
X150525523Y-56562232D01*
X150342632Y-56730596D01*
X150226389Y-56879943D01*
X148803297Y-55456851D01*
X148614553Y-55689929D01*
X148414754Y-55997594D01*
X148248204Y-56324464D01*
X148116736Y-56666948D01*
X148021784Y-57021313D01*
X148021784Y-57021315D01*
X147964397Y-57383646D01*
X147945197Y-57749999D01*
X147945197Y-57750000D01*
X136754188Y-57750000D01*
X136779194Y-57673040D01*
X136835783Y-57376390D01*
X136835784Y-57376383D01*
X136854745Y-57075005D01*
X136854745Y-57074994D01*
X136835784Y-56773616D01*
X136835783Y-56773609D01*
X136779194Y-56476959D01*
X136685874Y-56189752D01*
X136685872Y-56189747D01*
X136557295Y-55916508D01*
X136557292Y-55916502D01*
X136395486Y-55661535D01*
X136314685Y-55563864D01*
X135385787Y-56492762D01*
X135285106Y-56351376D01*
X135133068Y-56206408D01*
X135030776Y-56140669D01*
X135963434Y-55208012D01*
X135738530Y-55044609D01*
X135738520Y-55044602D01*
X135473890Y-54899121D01*
X135473882Y-54899117D01*
X135193110Y-54787952D01*
X135193107Y-54787951D01*
X134900600Y-54712849D01*
X134601004Y-54675000D01*
X134298995Y-54675000D01*
X133999399Y-54712849D01*
X133706892Y-54787951D01*
X133706889Y-54787952D01*
X133426117Y-54899117D01*
X133426109Y-54899121D01*
X133161479Y-55044602D01*
X133161461Y-55044614D01*
X132936565Y-55208010D01*
X132936564Y-55208012D01*
X133866693Y-56138140D01*
X133852590Y-56145411D01*
X133687460Y-56275271D01*
X133549890Y-56434035D01*
X133515334Y-56493886D01*
X132585312Y-55563864D01*
X132504516Y-55661530D01*
X132342707Y-55916502D01*
X132342704Y-55916508D01*
X132214127Y-56189747D01*
X132214125Y-56189752D01*
X132120805Y-56476959D01*
X132064216Y-56773609D01*
X132064215Y-56773616D01*
X132045254Y-57074994D01*
X132045254Y-57075005D01*
X122663924Y-57075005D01*
X122678679Y-56969240D01*
X122679545Y-56964440D01*
X122726149Y-56754235D01*
X122774984Y-56546610D01*
X122776192Y-56542214D01*
X122841360Y-56335532D01*
X122908799Y-56134330D01*
X122910284Y-56130363D01*
X122993287Y-55929979D01*
X122993722Y-55928965D01*
X123079049Y-55735720D01*
X123080719Y-55732244D01*
X123181028Y-55539554D01*
X123181748Y-55538217D01*
X123284334Y-55354043D01*
X123286143Y-55351008D01*
X123402959Y-55167644D01*
X123404009Y-55166055D01*
X123523020Y-54992321D01*
X123524932Y-54989685D01*
X123657328Y-54817144D01*
X123658734Y-54815383D01*
X123793172Y-54653485D01*
X123795097Y-54651278D01*
X123942091Y-54490861D01*
X123943862Y-54489011D01*
X124092694Y-54340179D01*
X124094515Y-54338436D01*
X124254942Y-54191431D01*
X124257140Y-54189515D01*
X124419060Y-54055058D01*
X124420783Y-54053682D01*
X124593368Y-53921252D01*
X124595969Y-53919365D01*
X124769780Y-53800302D01*
X124771222Y-53799348D01*
X124954644Y-53682494D01*
X124957733Y-53680654D01*
X124957762Y-53680638D01*
X125141891Y-53578077D01*
X125143252Y-53577344D01*
X125335895Y-53477058D01*
X125339383Y-53475382D01*
X125532573Y-53390079D01*
X125533730Y-53389583D01*
X125734032Y-53306614D01*
X125737987Y-53305134D01*
X125939255Y-53237673D01*
X126145849Y-53172532D01*
X126150253Y-53171321D01*
X126357907Y-53122478D01*
X126568096Y-53075878D01*
X126572907Y-53075009D01*
X126786793Y-53045170D01*
X126997361Y-53017445D01*
X127002544Y-53016986D01*
X127233638Y-53006300D01*
X127423028Y-52998028D01*
X127425864Y-52997905D01*
X127428569Y-52997846D01*
X151375984Y-52997846D01*
X151378689Y-52997905D01*
G37*
%TD.AperFunction*%
%TD*%
M02*
