%TF.GenerationSoftware,KiCad,Pcbnew,7.0.5-0*%
%TF.CreationDate,2023-07-31T21:54:07-04:00*%
%TF.ProjectId,carrier-hp,63617272-6965-4722-9d68-702e6b696361,rev?*%
%TF.SameCoordinates,Original*%
%TF.FileFunction,Soldermask,Top*%
%TF.FilePolarity,Negative*%
%FSLAX46Y46*%
G04 Gerber Fmt 4.6, Leading zero omitted, Abs format (unit mm)*
G04 Created by KiCad (PCBNEW 7.0.5-0) date 2023-07-31 21:54:07*
%MOMM*%
%LPD*%
G01*
G04 APERTURE LIST*
G04 Aperture macros list*
%AMRoundRect*
0 Rectangle with rounded corners*
0 $1 Rounding radius*
0 $2 $3 $4 $5 $6 $7 $8 $9 X,Y pos of 4 corners*
0 Add a 4 corners polygon primitive as box body*
4,1,4,$2,$3,$4,$5,$6,$7,$8,$9,$2,$3,0*
0 Add four circle primitives for the rounded corners*
1,1,$1+$1,$2,$3*
1,1,$1+$1,$4,$5*
1,1,$1+$1,$6,$7*
1,1,$1+$1,$8,$9*
0 Add four rect primitives between the rounded corners*
20,1,$1+$1,$2,$3,$4,$5,0*
20,1,$1+$1,$4,$5,$6,$7,0*
20,1,$1+$1,$6,$7,$8,$9,0*
20,1,$1+$1,$8,$9,$2,$3,0*%
G04 Aperture macros list end*
%ADD10C,6.000000*%
%ADD11C,1.100000*%
%ADD12C,1.600000*%
%ADD13R,0.300000X1.550000*%
%ADD14R,0.330000X1.600000*%
%ADD15R,1.200000X2.750000*%
%ADD16RoundRect,0.250000X-0.600000X-0.600000X0.600000X-0.600000X0.600000X0.600000X-0.600000X0.600000X0*%
%ADD17C,1.700000*%
%ADD18C,3.800000*%
G04 APERTURE END LIST*
%TO.C,kibuzzard-64C862C8*%
G36*
X135376450Y-44761100D02*
G01*
X135414550Y-44855556D01*
X135374069Y-44949219D01*
X135275644Y-44990494D01*
X135180394Y-44948425D01*
X135143088Y-44855556D01*
X135179600Y-44761894D01*
X135277231Y-44719031D01*
X135376450Y-44761100D01*
G37*
G36*
X145078456Y-44834919D02*
G01*
X145114175Y-44916675D01*
X145079250Y-44998431D01*
X144974475Y-45036531D01*
X144868113Y-44998431D01*
X144831600Y-44915881D01*
X144868113Y-44834125D01*
X144973681Y-44796819D01*
X145078456Y-44834919D01*
G37*
G36*
X145052263Y-44392800D02*
G01*
X145079250Y-44452331D01*
X145053056Y-44512656D01*
X144975269Y-44541231D01*
X144895894Y-44512656D01*
X144868113Y-44451537D01*
X144893513Y-44392006D01*
X144972094Y-44365019D01*
X145052263Y-44392800D01*
G37*
G36*
X139123744Y-44868256D02*
G01*
X139151525Y-44936519D01*
X139120966Y-45016291D01*
X139029287Y-45042881D01*
X138927687Y-45006369D01*
X138912606Y-44971444D01*
X138908638Y-44925406D01*
X138941181Y-44865875D01*
X139034844Y-44836506D01*
X139123744Y-44868256D01*
G37*
G36*
X141665331Y-44868256D02*
G01*
X141693112Y-44936519D01*
X141662553Y-45016291D01*
X141570875Y-45042881D01*
X141469275Y-45006369D01*
X141454194Y-44971444D01*
X141450225Y-44925406D01*
X141482769Y-44865875D01*
X141576431Y-44836506D01*
X141665331Y-44868256D01*
G37*
G36*
X143200444Y-44868256D02*
G01*
X143228225Y-44936519D01*
X143197666Y-45016291D01*
X143105987Y-45042881D01*
X143004387Y-45006369D01*
X142989306Y-44971444D01*
X142985337Y-44925406D01*
X143017881Y-44865875D01*
X143111544Y-44836506D01*
X143200444Y-44868256D01*
G37*
G36*
X136680780Y-44402424D02*
G01*
X136731381Y-44462253D01*
X136761742Y-44561968D01*
X136771862Y-44701569D01*
X136771862Y-44711094D01*
X136761643Y-44847222D01*
X136730984Y-44944456D01*
X136679887Y-45002797D01*
X136608350Y-45022244D01*
X136538202Y-45002251D01*
X136488097Y-44942273D01*
X136458034Y-44842311D01*
X136448012Y-44702362D01*
X136458133Y-44562414D01*
X136488494Y-44462452D01*
X136539095Y-44402474D01*
X136609937Y-44382481D01*
X136680780Y-44402424D01*
G37*
G36*
X140022467Y-44402424D02*
G01*
X140073069Y-44462253D01*
X140103430Y-44561968D01*
X140113550Y-44701569D01*
X140113550Y-44711094D01*
X140103330Y-44847222D01*
X140072672Y-44944456D01*
X140021574Y-45002797D01*
X139950038Y-45022244D01*
X139879890Y-45002251D01*
X139829784Y-44942273D01*
X139799721Y-44842311D01*
X139789700Y-44702362D01*
X139799820Y-44562414D01*
X139830181Y-44462452D01*
X139880783Y-44402474D01*
X139951625Y-44382481D01*
X140022467Y-44402424D01*
G37*
G36*
X144099167Y-44402424D02*
G01*
X144149769Y-44462253D01*
X144180130Y-44561968D01*
X144190250Y-44701569D01*
X144190250Y-44711094D01*
X144180030Y-44847222D01*
X144149372Y-44944456D01*
X144098274Y-45002797D01*
X144026737Y-45022244D01*
X143956590Y-45002251D01*
X143906484Y-44942273D01*
X143876421Y-44842311D01*
X143866400Y-44702362D01*
X143876520Y-44562414D01*
X143906881Y-44462452D01*
X143957483Y-44402474D01*
X144028325Y-44382481D01*
X144099167Y-44402424D01*
G37*
G36*
X145486141Y-43927628D02*
G01*
X145576111Y-43940973D01*
X145664341Y-43963074D01*
X145749979Y-43993716D01*
X145832202Y-44032604D01*
X145910217Y-44079365D01*
X145983273Y-44133547D01*
X146050666Y-44194628D01*
X146111748Y-44262022D01*
X146165930Y-44335078D01*
X146212691Y-44413093D01*
X146251579Y-44495315D01*
X146282221Y-44580954D01*
X146304321Y-44669183D01*
X146317667Y-44759154D01*
X146322130Y-44850000D01*
X146317667Y-44940846D01*
X146304321Y-45030817D01*
X146282221Y-45119046D01*
X146251579Y-45204685D01*
X146212691Y-45286907D01*
X146165930Y-45364922D01*
X146111748Y-45437978D01*
X146050666Y-45505372D01*
X145983273Y-45566453D01*
X145910217Y-45620635D01*
X145832202Y-45667396D01*
X145749979Y-45706284D01*
X145664341Y-45736926D01*
X145576111Y-45759027D01*
X145486141Y-45772372D01*
X145395295Y-45776835D01*
X145395162Y-45776835D01*
X144972888Y-45776835D01*
X144029912Y-45776835D01*
X143112338Y-45776835D01*
X142451937Y-45776835D01*
X141577225Y-45776835D01*
X140966038Y-45776835D01*
X139953213Y-45776835D01*
X139035638Y-45776835D01*
X138141875Y-45776835D01*
X137533862Y-45776835D01*
X136611525Y-45776835D01*
X135001800Y-45776835D01*
X134598575Y-45776835D01*
X133904837Y-45776835D01*
X133904705Y-45776835D01*
X133813859Y-45772372D01*
X133723889Y-45759027D01*
X133635659Y-45736926D01*
X133550021Y-45706284D01*
X133467798Y-45667396D01*
X133389783Y-45620635D01*
X133316727Y-45566453D01*
X133254006Y-45509606D01*
X134865275Y-45509606D01*
X134867656Y-45563581D01*
X134881944Y-45603269D01*
X134923219Y-45635019D01*
X135001800Y-45644544D01*
X135079587Y-45635019D01*
X135120069Y-45602475D01*
X135134356Y-45561994D01*
X135136737Y-45508019D01*
X135136737Y-45187344D01*
X135213334Y-45242113D01*
X135325650Y-45260369D01*
X135410758Y-45246787D01*
X135492514Y-45206041D01*
X135570919Y-45138131D01*
X135634860Y-45052230D01*
X135673224Y-44957509D01*
X135686012Y-44853969D01*
X135673136Y-44750428D01*
X135653210Y-44701569D01*
X136167025Y-44701569D01*
X136172140Y-44812870D01*
X136187486Y-44916058D01*
X136213062Y-45011131D01*
X136247392Y-45090903D01*
X136290056Y-45158769D01*
X136346016Y-45215720D01*
X136420231Y-45262750D01*
X136509727Y-45294302D01*
X136611525Y-45304819D01*
X136712927Y-45294500D01*
X136801231Y-45263544D01*
X136874058Y-45216712D01*
X136929025Y-45158769D01*
X136983198Y-45067190D01*
X137021894Y-44960728D01*
X137045111Y-44839384D01*
X137052850Y-44703156D01*
X137047558Y-44598205D01*
X137031683Y-44497134D01*
X137029858Y-44490431D01*
X137116350Y-44490431D01*
X137166356Y-44588856D01*
X137262400Y-44644419D01*
X137373525Y-44595206D01*
X137394162Y-44576156D01*
X137394162Y-45142894D01*
X137396544Y-45200837D01*
X137411625Y-45244494D01*
X137454091Y-45275450D01*
X137533862Y-45285769D01*
X137615619Y-45275053D01*
X137657687Y-45242906D01*
X137672769Y-45200837D01*
X137675150Y-45146069D01*
X137675150Y-45093681D01*
X137762462Y-45093681D01*
X137822787Y-45188931D01*
X137835487Y-45200044D01*
X137875175Y-45230206D01*
X137957725Y-45271658D01*
X138046625Y-45296528D01*
X138141875Y-45304819D01*
X138248943Y-45291678D01*
X138343664Y-45252255D01*
X138426037Y-45186550D01*
X138489538Y-45102589D01*
X138527637Y-45008397D01*
X138540338Y-44903975D01*
X138530608Y-44828569D01*
X138619712Y-44828569D01*
X138631354Y-44959714D01*
X138666279Y-45073749D01*
X138724487Y-45170675D01*
X138805626Y-45244317D01*
X138909343Y-45288503D01*
X139035638Y-45303231D01*
X139139266Y-45291237D01*
X139232135Y-45255253D01*
X139314244Y-45195281D01*
X139378185Y-45117494D01*
X139416549Y-45028065D01*
X139429338Y-44926994D01*
X139416902Y-44843121D01*
X139379596Y-44765069D01*
X139324935Y-44701569D01*
X139508712Y-44701569D01*
X139513828Y-44812870D01*
X139529174Y-44916058D01*
X139554750Y-45011131D01*
X139589080Y-45090903D01*
X139631744Y-45158769D01*
X139687703Y-45215720D01*
X139761919Y-45262750D01*
X139851414Y-45294302D01*
X139953213Y-45304819D01*
X140054614Y-45294500D01*
X140142919Y-45263544D01*
X140215745Y-45216712D01*
X140270713Y-45158769D01*
X140324886Y-45067190D01*
X140363581Y-44960728D01*
X140368517Y-44934931D01*
X140473912Y-44934931D01*
X140481850Y-45007956D01*
X140517172Y-45048438D01*
X140588212Y-45061931D01*
X140966038Y-45061931D01*
X141045412Y-45047644D01*
X141073194Y-45008750D01*
X141081925Y-44936519D01*
X141072400Y-44863494D01*
X141042062Y-44828569D01*
X141161300Y-44828569D01*
X141172942Y-44959714D01*
X141207867Y-45073749D01*
X141266075Y-45170675D01*
X141347214Y-45244317D01*
X141450931Y-45288503D01*
X141577225Y-45303231D01*
X141680853Y-45291237D01*
X141773722Y-45255253D01*
X141855831Y-45195281D01*
X141919772Y-45117494D01*
X141958137Y-45028065D01*
X141970925Y-44926994D01*
X141958490Y-44843121D01*
X141921183Y-44765069D01*
X141859006Y-44692837D01*
X141779367Y-44635070D01*
X141689673Y-44600410D01*
X141589925Y-44588856D01*
X141472450Y-44615844D01*
X141480387Y-44593619D01*
X141509756Y-44538056D01*
X141553107Y-44490431D01*
X142034425Y-44490431D01*
X142084431Y-44588856D01*
X142180475Y-44644419D01*
X142291600Y-44595206D01*
X142312237Y-44576156D01*
X142312237Y-45142894D01*
X142314619Y-45200837D01*
X142329700Y-45244494D01*
X142372166Y-45275450D01*
X142451937Y-45285769D01*
X142533694Y-45275053D01*
X142575763Y-45242906D01*
X142590844Y-45200837D01*
X142593225Y-45146069D01*
X142593225Y-44828569D01*
X142696412Y-44828569D01*
X142708054Y-44959714D01*
X142742979Y-45073749D01*
X142801187Y-45170675D01*
X142882326Y-45244317D01*
X142986043Y-45288503D01*
X143112338Y-45303231D01*
X143215966Y-45291237D01*
X143308835Y-45255253D01*
X143390944Y-45195281D01*
X143454885Y-45117494D01*
X143493249Y-45028065D01*
X143506037Y-44926994D01*
X143493602Y-44843121D01*
X143456296Y-44765069D01*
X143401635Y-44701569D01*
X143585412Y-44701569D01*
X143590528Y-44812870D01*
X143605874Y-44916058D01*
X143631450Y-45011131D01*
X143665780Y-45090903D01*
X143708444Y-45158769D01*
X143764403Y-45215720D01*
X143838619Y-45262750D01*
X143928114Y-45294302D01*
X144029912Y-45304819D01*
X144131314Y-45294500D01*
X144219619Y-45263544D01*
X144292445Y-45216712D01*
X144347413Y-45158769D01*
X144401586Y-45067190D01*
X144440281Y-44960728D01*
X144450077Y-44909531D01*
X144550612Y-44909531D01*
X144564988Y-45021185D01*
X144608115Y-45116965D01*
X144679994Y-45196869D01*
X144770040Y-45256841D01*
X144867672Y-45292824D01*
X144972888Y-45304819D01*
X145078103Y-45292736D01*
X145175735Y-45256488D01*
X145265781Y-45196075D01*
X145337660Y-45115906D01*
X145380787Y-45020392D01*
X145395162Y-44909531D01*
X145386233Y-44843253D01*
X145359444Y-44777769D01*
X145302294Y-44691250D01*
X145266575Y-44658706D01*
X145290387Y-44633306D01*
X145337219Y-44558694D01*
X145360238Y-44461856D01*
X145347538Y-44361315D01*
X145309438Y-44273473D01*
X145245938Y-44198331D01*
X145165151Y-44141005D01*
X145075193Y-44106609D01*
X144976063Y-44095144D01*
X144876579Y-44106433D01*
X144785563Y-44140299D01*
X144703012Y-44196744D01*
X144637749Y-44270474D01*
X144598590Y-44356199D01*
X144585538Y-44453919D01*
X144611731Y-44564250D01*
X144653800Y-44633306D01*
X144680788Y-44658706D01*
X144647450Y-44688869D01*
X144583156Y-44780150D01*
X144558748Y-44843848D01*
X144550612Y-44909531D01*
X144450077Y-44909531D01*
X144463498Y-44839384D01*
X144471237Y-44703156D01*
X144465946Y-44598205D01*
X144450071Y-44497134D01*
X144423612Y-44399944D01*
X144390473Y-44319775D01*
X144348206Y-44250719D01*
X144292644Y-44192378D01*
X144219619Y-44144356D01*
X144130917Y-44112209D01*
X144028325Y-44101494D01*
X143925336Y-44112408D01*
X143835444Y-44145150D01*
X143761427Y-44193966D01*
X143706062Y-44253100D01*
X143662208Y-44329498D01*
X143622719Y-44430106D01*
X143601993Y-44510363D01*
X143589558Y-44600851D01*
X143585412Y-44701569D01*
X143401635Y-44701569D01*
X143394119Y-44692837D01*
X143314479Y-44635070D01*
X143224785Y-44600410D01*
X143125038Y-44588856D01*
X143007562Y-44615844D01*
X143015500Y-44593619D01*
X143044869Y-44538056D01*
X143101225Y-44476144D01*
X143197269Y-44422169D01*
X143323475Y-44399944D01*
X143415550Y-44390419D01*
X143447300Y-44369781D01*
X143466350Y-44328506D01*
X143474288Y-44255481D01*
X143464763Y-44179281D01*
X143427456Y-44134037D01*
X143339350Y-44118956D01*
X143225018Y-44127084D01*
X143120783Y-44151468D01*
X143026644Y-44192108D01*
X142942602Y-44249004D01*
X142868656Y-44322156D01*
X142806648Y-44407437D01*
X142758420Y-44500718D01*
X142723971Y-44602001D01*
X142703302Y-44711284D01*
X142696412Y-44828569D01*
X142593225Y-44828569D01*
X142593225Y-44261831D01*
X142585287Y-44177694D01*
X142563062Y-44143563D01*
X142521788Y-44125306D01*
X142446381Y-44117369D01*
X142356687Y-44158644D01*
X142351925Y-44161819D01*
X142091575Y-44396769D01*
X142034425Y-44490431D01*
X141553107Y-44490431D01*
X141566112Y-44476144D01*
X141662156Y-44422169D01*
X141788362Y-44399944D01*
X141880437Y-44390419D01*
X141912187Y-44369781D01*
X141931237Y-44328506D01*
X141939175Y-44255481D01*
X141929650Y-44179281D01*
X141892344Y-44134037D01*
X141804237Y-44118956D01*
X141689906Y-44127084D01*
X141585670Y-44151468D01*
X141491532Y-44192108D01*
X141407489Y-44249004D01*
X141333544Y-44322156D01*
X141271536Y-44407437D01*
X141223308Y-44500718D01*
X141188859Y-44602001D01*
X141168190Y-44711284D01*
X141161300Y-44828569D01*
X141042062Y-44828569D01*
X141038269Y-44824203D01*
X140967625Y-44811106D01*
X140589800Y-44811106D01*
X140513600Y-44825394D01*
X140483437Y-44863494D01*
X140473912Y-44934931D01*
X140368517Y-44934931D01*
X140386798Y-44839384D01*
X140394538Y-44703156D01*
X140389246Y-44598205D01*
X140373371Y-44497134D01*
X140346913Y-44399944D01*
X140313773Y-44319775D01*
X140271506Y-44250719D01*
X140215944Y-44192378D01*
X140142919Y-44144356D01*
X140054217Y-44112209D01*
X139951625Y-44101494D01*
X139848636Y-44112408D01*
X139758744Y-44145150D01*
X139684727Y-44193966D01*
X139629363Y-44253100D01*
X139585508Y-44329498D01*
X139546019Y-44430106D01*
X139525293Y-44510363D01*
X139512858Y-44600851D01*
X139508712Y-44701569D01*
X139324935Y-44701569D01*
X139317419Y-44692837D01*
X139237779Y-44635070D01*
X139148085Y-44600410D01*
X139048337Y-44588856D01*
X138930862Y-44615844D01*
X138938800Y-44593619D01*
X138968169Y-44538056D01*
X139024525Y-44476144D01*
X139120569Y-44422169D01*
X139246775Y-44399944D01*
X139338850Y-44390419D01*
X139370600Y-44369781D01*
X139389650Y-44328506D01*
X139397587Y-44255481D01*
X139388062Y-44179281D01*
X139350756Y-44134037D01*
X139262650Y-44118956D01*
X139148318Y-44127084D01*
X139044083Y-44151468D01*
X138949944Y-44192108D01*
X138865902Y-44249004D01*
X138791956Y-44322156D01*
X138729948Y-44407437D01*
X138681720Y-44500718D01*
X138647271Y-44602001D01*
X138626602Y-44711284D01*
X138619712Y-44828569D01*
X138530608Y-44828569D01*
X138526932Y-44800082D01*
X138486715Y-44707478D01*
X138419688Y-44626162D01*
X138335903Y-44563103D01*
X138245415Y-44525268D01*
X138148225Y-44512656D01*
X138092663Y-44515831D01*
X138108537Y-44395181D01*
X138386350Y-44395181D01*
X138437944Y-44392800D01*
X138476837Y-44377719D01*
X138506603Y-44338428D01*
X138516525Y-44261831D01*
X138505809Y-44177694D01*
X138473662Y-44134831D01*
X138432387Y-44119750D01*
X138376825Y-44117369D01*
X138227600Y-44117369D01*
X137986300Y-44115781D01*
X137922006Y-44130862D01*
X137880731Y-44164994D01*
X137857712Y-44207856D01*
X137846600Y-44241194D01*
X137837472Y-44307075D01*
X137813262Y-44485669D01*
X137789450Y-44667041D01*
X137781513Y-44741256D01*
X137798975Y-44780150D01*
X137872794Y-44828569D01*
X137972806Y-44858731D01*
X138059325Y-44822219D01*
X138135525Y-44793644D01*
X138220456Y-44824600D01*
X138257762Y-44908737D01*
X138223631Y-44992081D01*
X138118856Y-45022244D01*
X138019637Y-44988906D01*
X137913275Y-44938106D01*
X137821200Y-44990494D01*
X137762462Y-45093681D01*
X137675150Y-45093681D01*
X137675150Y-44261831D01*
X137667212Y-44177694D01*
X137644988Y-44143563D01*
X137603712Y-44125306D01*
X137528306Y-44117369D01*
X137438612Y-44158644D01*
X137433850Y-44161819D01*
X137173500Y-44396769D01*
X137116350Y-44490431D01*
X137029858Y-44490431D01*
X137005225Y-44399944D01*
X136972086Y-44319775D01*
X136929819Y-44250719D01*
X136874256Y-44192378D01*
X136801231Y-44144356D01*
X136712530Y-44112209D01*
X136609937Y-44101494D01*
X136506948Y-44112408D01*
X136417056Y-44145150D01*
X136343039Y-44193966D01*
X136287675Y-44253100D01*
X136243820Y-44329498D01*
X136204331Y-44430106D01*
X136183606Y-44510363D01*
X136171170Y-44600851D01*
X136167025Y-44701569D01*
X135653210Y-44701569D01*
X135634507Y-44655708D01*
X135570125Y-44569806D01*
X135491367Y-44501897D01*
X135409611Y-44461151D01*
X135324856Y-44447569D01*
X135212739Y-44468206D01*
X135135150Y-44530119D01*
X135101019Y-44467412D01*
X134987512Y-44445981D01*
X134918853Y-44456697D01*
X134881150Y-44488844D01*
X134867656Y-44528531D01*
X134865275Y-44582506D01*
X134865275Y-45509606D01*
X133254006Y-45509606D01*
X133249334Y-45505372D01*
X133188252Y-45437978D01*
X133134070Y-45364922D01*
X133087309Y-45286907D01*
X133048421Y-45204685D01*
X133026312Y-45142894D01*
X133904837Y-45142894D01*
X133907219Y-45198456D01*
X133920712Y-45239731D01*
X133962384Y-45271878D01*
X134042950Y-45282594D01*
X134124309Y-45272275D01*
X134165187Y-45241319D01*
X134180269Y-45199250D01*
X134182650Y-45144481D01*
X134182650Y-44836506D01*
X134231862Y-44759512D01*
X134331081Y-44725381D01*
X134423950Y-44761894D01*
X134460462Y-44863494D01*
X134460462Y-45141306D01*
X134462844Y-45198456D01*
X134477925Y-45241319D01*
X134519994Y-45272275D01*
X134598575Y-45282594D01*
X134679934Y-45272275D01*
X134720813Y-45241319D01*
X134735894Y-45199250D01*
X134738275Y-45144481D01*
X134738275Y-44865081D01*
X134726545Y-44754662D01*
X134691356Y-44656237D01*
X134632706Y-44569806D01*
X134556418Y-44502778D01*
X134468312Y-44462562D01*
X134368387Y-44449156D01*
X134268772Y-44473366D01*
X134182650Y-44545994D01*
X134182650Y-44195156D01*
X134180269Y-44140387D01*
X134165187Y-44098319D01*
X134124706Y-44066172D01*
X134044537Y-44055456D01*
X133962781Y-44066172D01*
X133920712Y-44098319D01*
X133907219Y-44138800D01*
X133904837Y-44193569D01*
X133904837Y-45142894D01*
X133026312Y-45142894D01*
X133017779Y-45119046D01*
X132995679Y-45030817D01*
X132982333Y-44940846D01*
X132977870Y-44850000D01*
X132982333Y-44759154D01*
X132995679Y-44669183D01*
X133017779Y-44580954D01*
X133048421Y-44495315D01*
X133087309Y-44413093D01*
X133134070Y-44335078D01*
X133188252Y-44262022D01*
X133249334Y-44194628D01*
X133316727Y-44133547D01*
X133389783Y-44079365D01*
X133467798Y-44032604D01*
X133550021Y-43993716D01*
X133635659Y-43963074D01*
X133723889Y-43940973D01*
X133813859Y-43927628D01*
X133904705Y-43923165D01*
X133904837Y-43923165D01*
X133904838Y-43923165D01*
X145395162Y-43923165D01*
X145395295Y-43923165D01*
X145486141Y-43927628D01*
G37*
%TO.C,kibuzzard-64C85072*%
G36*
X135866213Y-108829744D02*
G01*
X135893994Y-108888481D01*
X135833669Y-108939281D01*
X135633644Y-108939281D01*
X135684444Y-108849588D01*
X135786838Y-108807519D01*
X135866213Y-108829744D01*
G37*
G36*
X142935350Y-108829744D02*
G01*
X142963131Y-108888481D01*
X142902806Y-108939281D01*
X142702781Y-108939281D01*
X142753581Y-108849588D01*
X142855975Y-108807519D01*
X142935350Y-108829744D01*
G37*
G36*
X134197750Y-108896419D02*
G01*
X134235056Y-108992463D01*
X134196162Y-109086919D01*
X134098531Y-109129781D01*
X133998519Y-109087713D01*
X133957244Y-108993256D01*
X133996137Y-108896419D01*
X134097737Y-108851969D01*
X134197750Y-108896419D01*
G37*
G36*
X139257113Y-108898006D02*
G01*
X139294419Y-108994050D01*
X139255525Y-109088506D01*
X139157894Y-109131369D01*
X139057881Y-109088506D01*
X139016606Y-108993256D01*
X139054706Y-108897213D01*
X139156306Y-108853556D01*
X139257113Y-108898006D01*
G37*
G36*
X140198500Y-108896419D02*
G01*
X140235806Y-108992463D01*
X140196913Y-109086919D01*
X140099281Y-109129781D01*
X139999269Y-109087713D01*
X139957994Y-108993256D01*
X139996888Y-108896419D01*
X140098488Y-108851969D01*
X140198500Y-108896419D01*
G37*
G36*
X137595794Y-108872606D02*
G01*
X137632703Y-108920628D01*
X137645006Y-108988494D01*
X137631909Y-109056756D01*
X137592619Y-109105969D01*
X137487844Y-109145656D01*
X137384656Y-109106763D01*
X137346556Y-109058344D01*
X137333856Y-108990875D01*
X137346159Y-108923208D01*
X137383069Y-108874194D01*
X137489431Y-108834506D01*
X137595794Y-108872606D01*
G37*
G36*
X146317519Y-108872606D02*
G01*
X146354428Y-108920628D01*
X146366731Y-108988494D01*
X146353634Y-109056756D01*
X146314344Y-109105969D01*
X146209569Y-109145656D01*
X146106381Y-109106763D01*
X146068281Y-109058344D01*
X146055581Y-108990875D01*
X146067884Y-108923208D01*
X146104794Y-108874194D01*
X146211156Y-108834506D01*
X146317519Y-108872606D01*
G37*
G36*
X146738697Y-108052628D02*
G01*
X146828668Y-108065973D01*
X146916897Y-108088074D01*
X147002536Y-108118716D01*
X147084758Y-108157604D01*
X147162773Y-108204365D01*
X147235829Y-108258547D01*
X147303223Y-108319628D01*
X147364305Y-108387022D01*
X147418487Y-108460078D01*
X147465247Y-108538093D01*
X147504135Y-108620315D01*
X147534777Y-108705954D01*
X147556878Y-108794183D01*
X147570223Y-108884154D01*
X147574686Y-108975000D01*
X147570223Y-109065846D01*
X147556878Y-109155817D01*
X147534777Y-109244046D01*
X147504135Y-109329685D01*
X147465247Y-109411907D01*
X147418487Y-109489922D01*
X147364305Y-109562978D01*
X147303223Y-109630372D01*
X147235829Y-109691453D01*
X147162773Y-109745635D01*
X147084758Y-109792396D01*
X147002536Y-109831284D01*
X146916897Y-109861926D01*
X146828668Y-109884027D01*
X146738697Y-109897372D01*
X146647851Y-109901835D01*
X146647719Y-109901835D01*
X146211156Y-109901835D01*
X145328506Y-109901835D01*
X144817331Y-109901835D01*
X143855306Y-109901835D01*
X143475100Y-109901835D01*
X142858356Y-109901835D01*
X142164619Y-109901835D01*
X141058131Y-109901835D01*
X140398525Y-109901835D01*
X139425388Y-109901835D01*
X138167294Y-109901835D01*
X137489431Y-109901835D01*
X136538519Y-109901835D01*
X135789219Y-109901835D01*
X135092306Y-109901835D01*
X134397775Y-109901835D01*
X133436544Y-109901835D01*
X132352281Y-109901835D01*
X132352149Y-109901835D01*
X132261303Y-109897372D01*
X132171332Y-109884027D01*
X132083103Y-109861926D01*
X131997464Y-109831284D01*
X131915242Y-109792396D01*
X131837227Y-109745635D01*
X131764171Y-109691453D01*
X131704952Y-109637781D01*
X136403581Y-109637781D01*
X136413900Y-109713584D01*
X136444856Y-109753669D01*
X136484544Y-109767163D01*
X136538519Y-109769544D01*
X136638355Y-109757197D01*
X136732547Y-109720155D01*
X136821094Y-109658419D01*
X136892531Y-109576045D01*
X136935394Y-109477091D01*
X136949681Y-109361556D01*
X136949681Y-108993256D01*
X137052869Y-108993256D01*
X137069736Y-109113708D01*
X137120338Y-109221063D01*
X137195545Y-109309566D01*
X137286231Y-109373463D01*
X137386244Y-109412158D01*
X137489431Y-109425056D01*
X137592420Y-109412952D01*
X137691838Y-109376638D01*
X137780969Y-109315519D01*
X138029181Y-109315519D01*
X138057756Y-109383781D01*
X138167294Y-109410769D01*
X138248256Y-109400450D01*
X138291119Y-109369494D01*
X138306200Y-109327425D01*
X138308581Y-109272656D01*
X138308581Y-108992463D01*
X138738794Y-108992463D01*
X138751847Y-109098472D01*
X138791005Y-109195310D01*
X138856269Y-109282975D01*
X138937408Y-109352208D01*
X139024191Y-109393747D01*
X139116619Y-109407594D01*
X139222584Y-109388544D01*
X139302356Y-109331394D01*
X139339464Y-109389734D01*
X139425388Y-109409181D01*
X139514089Y-109398466D01*
X139559531Y-109366319D01*
X139574613Y-109325838D01*
X139576994Y-109271069D01*
X139576994Y-108990875D01*
X139680181Y-108990875D01*
X139693234Y-109096973D01*
X139732392Y-109194075D01*
X139797656Y-109282181D01*
X139878178Y-109351855D01*
X139963109Y-109393659D01*
X140052450Y-109407594D01*
X140170123Y-109386559D01*
X140248506Y-109323456D01*
X140282638Y-109386163D01*
X140398525Y-109407594D01*
X140468970Y-109397275D01*
X140507269Y-109366319D01*
X140520763Y-109324250D01*
X140523144Y-109269481D01*
X140523144Y-108989288D01*
X140626331Y-108989288D01*
X140636650Y-109087316D01*
X140667606Y-109176613D01*
X140714834Y-109253011D01*
X140773969Y-109312344D01*
X140866220Y-109371434D01*
X140960941Y-109406888D01*
X141058131Y-109418706D01*
X141179575Y-109402831D01*
X141280381Y-109355206D01*
X141345866Y-109300834D01*
X141357003Y-109271069D01*
X141470881Y-109271069D01*
X141473263Y-109326631D01*
X141486756Y-109367906D01*
X141528428Y-109400053D01*
X141608994Y-109410769D01*
X141690353Y-109400450D01*
X141731231Y-109369494D01*
X141746313Y-109327425D01*
X141748694Y-109272656D01*
X141748694Y-108964681D01*
X141797906Y-108887687D01*
X141897125Y-108853556D01*
X141989994Y-108890069D01*
X142026506Y-108991669D01*
X142026506Y-109269481D01*
X142028888Y-109326631D01*
X142043969Y-109369494D01*
X142086038Y-109400450D01*
X142164619Y-109410769D01*
X142245978Y-109400450D01*
X142286856Y-109369494D01*
X142301938Y-109327425D01*
X142304319Y-109272656D01*
X142304319Y-108996431D01*
X142407506Y-108996431D01*
X142418619Y-109098913D01*
X142451956Y-109194692D01*
X142507519Y-109283769D01*
X142568439Y-109343895D01*
X142649600Y-109390925D01*
X142747430Y-109421286D01*
X142858356Y-109431406D01*
X143006291Y-109422576D01*
X143111959Y-109396084D01*
X143175360Y-109351932D01*
X143196494Y-109290119D01*
X143190213Y-109267894D01*
X143317144Y-109267894D01*
X143348100Y-109382194D01*
X143395328Y-109404816D01*
X143475100Y-109412356D01*
X143553086Y-109400847D01*
X143594956Y-109366319D01*
X143611625Y-109322663D01*
X143613805Y-109271069D01*
X143717194Y-109271069D01*
X143719575Y-109326631D01*
X143733069Y-109367906D01*
X143774741Y-109400053D01*
X143855306Y-109410769D01*
X143936666Y-109400450D01*
X143977544Y-109369494D01*
X143992625Y-109327425D01*
X143995006Y-109272656D01*
X143995006Y-109269481D01*
X144122006Y-109269481D01*
X144124388Y-109324250D01*
X144137881Y-109366319D01*
X144179553Y-109398466D01*
X144260119Y-109409181D01*
X144341478Y-109398466D01*
X144382356Y-109366319D01*
X144397438Y-109325838D01*
X144399819Y-109271069D01*
X144399819Y-108990081D01*
X144438713Y-108890069D01*
X144540313Y-108851969D01*
X144640325Y-108888481D01*
X144677631Y-108990081D01*
X144677631Y-109269481D01*
X144687156Y-109350444D01*
X144728431Y-109394497D01*
X144817331Y-109409181D01*
X144899088Y-109398466D01*
X144941156Y-109366319D01*
X144954650Y-109325838D01*
X144957031Y-109271069D01*
X144957031Y-108991669D01*
X144945301Y-108881161D01*
X144910112Y-108782472D01*
X144864860Y-108715444D01*
X145044344Y-108715444D01*
X145074506Y-108831331D01*
X145133244Y-108850381D01*
X145190394Y-108850381D01*
X145190394Y-109271069D01*
X145192775Y-109326631D01*
X145207856Y-109368700D01*
X145249925Y-109402037D01*
X145328506Y-109412356D01*
X145408675Y-109402831D01*
X145454713Y-109363938D01*
X145469794Y-109274244D01*
X145469794Y-108993256D01*
X145774594Y-108993256D01*
X145791461Y-109113708D01*
X145842063Y-109221063D01*
X145917270Y-109309566D01*
X146007956Y-109373463D01*
X146107969Y-109412158D01*
X146211156Y-109425056D01*
X146314145Y-109412952D01*
X146413563Y-109376638D01*
X146503852Y-109314725D01*
X146579456Y-109225825D01*
X146630653Y-109116089D01*
X146647719Y-108991669D01*
X146633078Y-108872165D01*
X146589158Y-108767655D01*
X146515956Y-108678137D01*
X146423705Y-108609787D01*
X146322634Y-108568776D01*
X146212744Y-108555106D01*
X146102677Y-108568865D01*
X146001077Y-108610140D01*
X145907944Y-108678931D01*
X145833860Y-108768890D01*
X145789410Y-108873665D01*
X145774594Y-108993256D01*
X145469794Y-108993256D01*
X145469794Y-108848794D01*
X145571394Y-108855144D01*
X145668231Y-108836094D01*
X145700775Y-108794025D01*
X145711094Y-108715444D01*
X145701569Y-108636069D01*
X145659897Y-108590825D01*
X145572981Y-108575744D01*
X145469794Y-108585269D01*
X145469794Y-108497956D01*
X145528531Y-108458269D01*
X145572981Y-108458269D01*
X145642831Y-108429694D01*
X145669819Y-108320156D01*
X145659103Y-108238797D01*
X145626956Y-108197919D01*
X145584888Y-108182837D01*
X145530119Y-108180456D01*
X145428695Y-108191481D01*
X145344558Y-108224553D01*
X145277706Y-108279675D01*
X145212222Y-108384648D01*
X145190394Y-108501131D01*
X145190394Y-108585269D01*
X145138006Y-108585269D01*
X145067759Y-108617813D01*
X145044344Y-108715444D01*
X144864860Y-108715444D01*
X144851463Y-108695600D01*
X144775174Y-108628131D01*
X144687068Y-108587650D01*
X144587144Y-108574156D01*
X144468081Y-108610669D01*
X144425219Y-108644006D01*
X144396644Y-108675756D01*
X144380769Y-108610669D01*
X144339891Y-108583284D01*
X144261706Y-108574156D01*
X144181141Y-108584078D01*
X144139469Y-108613844D01*
X144124388Y-108654325D01*
X144122006Y-108707506D01*
X144122006Y-109269481D01*
X143995006Y-109269481D01*
X143995006Y-108717031D01*
X143993419Y-108670994D01*
X143964844Y-108602731D01*
X143856894Y-108575744D01*
X143856100Y-108575844D01*
X143775138Y-108586063D01*
X143733069Y-108617019D01*
X143719575Y-108659087D01*
X143717194Y-108713856D01*
X143717194Y-109271069D01*
X143613805Y-109271069D01*
X143614006Y-109266306D01*
X143614006Y-109259956D01*
X143587019Y-109148831D01*
X143535623Y-109123828D01*
X143454463Y-109115494D01*
X143376477Y-109127400D01*
X143334606Y-109163119D01*
X143319525Y-109205981D01*
X143317144Y-109261544D01*
X143317144Y-109267894D01*
X143190213Y-109267894D01*
X143175856Y-109217094D01*
X143088544Y-109145656D01*
X143025044Y-109163119D01*
X143007581Y-109169469D01*
X142945272Y-109183756D01*
X142863119Y-109188519D01*
X142758344Y-109158356D01*
X142705956Y-109083744D01*
X143082194Y-109083744D01*
X143189350Y-109036912D01*
X143225664Y-108977381D01*
X143237769Y-108892450D01*
X143224275Y-108798589D01*
X143183794Y-108712269D01*
X143124858Y-108644205D01*
X143051238Y-108595587D01*
X142962933Y-108566417D01*
X142859944Y-108556694D01*
X142737971Y-108570011D01*
X142630285Y-108609963D01*
X142536888Y-108676550D01*
X142465009Y-108765362D01*
X142421882Y-108871989D01*
X142407506Y-108996431D01*
X142304319Y-108996431D01*
X142304319Y-108993256D01*
X142292589Y-108882837D01*
X142257399Y-108784412D01*
X142198750Y-108697981D01*
X142122462Y-108630953D01*
X142034356Y-108590737D01*
X141934431Y-108577331D01*
X141834816Y-108601541D01*
X141748694Y-108674169D01*
X141748694Y-108323331D01*
X141748625Y-108321744D01*
X143717194Y-108321744D01*
X143719575Y-108376512D01*
X143733863Y-108418581D01*
X143775931Y-108451919D01*
X143856100Y-108461444D01*
X143936269Y-108451919D01*
X143978338Y-108419375D01*
X143992625Y-108378100D01*
X143995006Y-108323331D01*
X143992625Y-108268563D01*
X143977544Y-108226494D01*
X143937063Y-108194347D01*
X143856894Y-108183631D01*
X143775138Y-108194347D01*
X143733069Y-108226494D01*
X143719575Y-108266975D01*
X143717194Y-108321744D01*
X141748625Y-108321744D01*
X141746313Y-108268563D01*
X141731231Y-108226494D01*
X141690750Y-108194347D01*
X141610581Y-108183631D01*
X141528825Y-108194347D01*
X141486756Y-108226494D01*
X141473263Y-108266975D01*
X141470881Y-108321744D01*
X141470881Y-109271069D01*
X141357003Y-109271069D01*
X141367694Y-109242494D01*
X141331181Y-109159944D01*
X141268078Y-109096841D01*
X141215294Y-109075806D01*
X141144650Y-109105175D01*
X141050988Y-109134544D01*
X140956531Y-109097237D01*
X140912081Y-108992463D01*
X140958119Y-108886894D01*
X141057338Y-108848794D01*
X141139094Y-108875781D01*
X141224819Y-108910706D01*
X141278397Y-108888878D01*
X141334356Y-108823394D01*
X141367694Y-108732113D01*
X141326419Y-108659881D01*
X141281969Y-108629719D01*
X141256569Y-108613844D01*
X141172431Y-108581300D01*
X141054956Y-108564631D01*
X140957413Y-108576273D01*
X140863751Y-108611198D01*
X140773969Y-108669406D01*
X140714834Y-108728342D01*
X140667606Y-108803550D01*
X140636650Y-108891656D01*
X140626331Y-108989288D01*
X140523144Y-108989288D01*
X140523144Y-108713856D01*
X140520763Y-108659087D01*
X140506475Y-108617019D01*
X140464406Y-108583681D01*
X140372331Y-108574156D01*
X140283034Y-108596381D01*
X140246919Y-108663056D01*
X140218344Y-108630513D01*
X140156431Y-108594794D01*
X140058006Y-108575744D01*
X139966372Y-108589590D01*
X139879853Y-108631130D01*
X139798450Y-108700362D01*
X139732745Y-108788028D01*
X139693322Y-108884865D01*
X139680181Y-108990875D01*
X139576994Y-108990875D01*
X139576994Y-108323331D01*
X139574613Y-108268563D01*
X139560325Y-108226494D01*
X139518256Y-108193156D01*
X139438088Y-108183631D01*
X139357919Y-108193156D01*
X139315850Y-108225700D01*
X139301563Y-108266975D01*
X139299181Y-108321744D01*
X139299181Y-108655119D01*
X139220997Y-108595587D01*
X139116619Y-108575744D01*
X139024985Y-108589678D01*
X138938466Y-108631483D01*
X138857063Y-108701156D01*
X138791358Y-108789263D01*
X138751935Y-108886365D01*
X138738794Y-108992463D01*
X138308581Y-108992463D01*
X138308581Y-108939281D01*
X138345888Y-108866256D01*
X138426056Y-108836094D01*
X138495113Y-108848794D01*
X138549881Y-108861494D01*
X138637194Y-108801169D01*
X138667356Y-108690044D01*
X138647513Y-108616225D01*
X138597506Y-108583681D01*
X138541944Y-108570188D01*
X138479238Y-108566219D01*
X138392719Y-108593206D01*
X138328425Y-108636069D01*
X138305406Y-108663056D01*
X138287944Y-108610669D01*
X138246272Y-108583284D01*
X138168881Y-108574156D01*
X138087125Y-108584872D01*
X138045056Y-108617019D01*
X138031563Y-108657500D01*
X138029181Y-108712269D01*
X138029181Y-109269481D01*
X138029181Y-109315519D01*
X137780969Y-109315519D01*
X137782127Y-109314725D01*
X137857731Y-109225825D01*
X137908928Y-109116089D01*
X137925994Y-108991669D01*
X137911353Y-108872165D01*
X137867433Y-108767655D01*
X137794231Y-108678137D01*
X137701980Y-108609787D01*
X137600909Y-108568776D01*
X137491019Y-108555106D01*
X137380952Y-108568865D01*
X137279352Y-108610140D01*
X137186219Y-108678931D01*
X137112135Y-108768890D01*
X137067685Y-108873665D01*
X137052869Y-108993256D01*
X136949681Y-108993256D01*
X136949681Y-108707506D01*
X136947300Y-108652737D01*
X136933013Y-108611463D01*
X136892531Y-108578919D01*
X136814744Y-108569394D01*
X136811569Y-108569779D01*
X136736163Y-108578919D01*
X136691713Y-108614638D01*
X136676631Y-108696394D01*
X136676631Y-109350444D01*
X136665519Y-109420294D01*
X136632181Y-109464744D01*
X136529788Y-109496494D01*
X136437713Y-109520306D01*
X136412114Y-109561581D01*
X136409931Y-109581074D01*
X136403581Y-109637781D01*
X131704952Y-109637781D01*
X131696777Y-109630372D01*
X131635695Y-109562978D01*
X131581513Y-109489922D01*
X131534753Y-109411907D01*
X131495865Y-109329685D01*
X131474892Y-109271069D01*
X132352281Y-109271069D01*
X132354662Y-109326631D01*
X132368156Y-109367906D01*
X132409828Y-109400053D01*
X132490394Y-109410769D01*
X132571356Y-109400450D01*
X132614219Y-109369494D01*
X132629300Y-109327425D01*
X132631681Y-109272656D01*
X132631681Y-108991669D01*
X132655494Y-108888084D01*
X132726931Y-108853556D01*
X132800750Y-108888084D01*
X132825356Y-108991669D01*
X132825356Y-109269481D01*
X132827737Y-109324250D01*
X132841231Y-109366319D01*
X132882903Y-109399656D01*
X132963469Y-109410769D01*
X133045225Y-109400053D01*
X133087294Y-109367906D01*
X133102375Y-109326631D01*
X133104756Y-109271069D01*
X133104756Y-108993256D01*
X133124600Y-108890069D01*
X133200006Y-108853556D01*
X133273825Y-108888084D01*
X133298431Y-108991669D01*
X133298431Y-109269481D01*
X133300812Y-109324250D01*
X133314306Y-109366319D01*
X133355978Y-109399656D01*
X133436544Y-109410769D01*
X133517903Y-109400053D01*
X133558781Y-109367906D01*
X133573862Y-109325838D01*
X133576244Y-109271069D01*
X133576244Y-108993256D01*
X133576077Y-108990875D01*
X133679431Y-108990875D01*
X133692484Y-109096973D01*
X133731642Y-109194075D01*
X133796906Y-109282181D01*
X133877428Y-109351855D01*
X133962359Y-109393659D01*
X134051700Y-109407594D01*
X134169373Y-109386559D01*
X134247756Y-109323456D01*
X134281887Y-109386163D01*
X134397775Y-109407594D01*
X134468220Y-109397275D01*
X134506519Y-109366319D01*
X134520012Y-109324250D01*
X134522394Y-109269481D01*
X134522394Y-108734494D01*
X134609706Y-108734494D01*
X134632725Y-108826569D01*
X134690669Y-108853556D01*
X134755756Y-108848794D01*
X134755756Y-109083744D01*
X134765281Y-109190812D01*
X134793856Y-109274949D01*
X134841481Y-109336156D01*
X134907451Y-109377608D01*
X134991059Y-109402478D01*
X135092306Y-109410769D01*
X135145488Y-109408388D01*
X135187556Y-109394894D01*
X135220894Y-109353222D01*
X135232006Y-109272656D01*
X135195494Y-109166294D01*
X135153425Y-109151213D01*
X135096275Y-109148831D01*
X135045475Y-109129781D01*
X135031981Y-109067869D01*
X135031981Y-108996431D01*
X135338369Y-108996431D01*
X135349481Y-109098913D01*
X135382819Y-109194692D01*
X135438381Y-109283769D01*
X135499302Y-109343895D01*
X135580463Y-109390925D01*
X135678292Y-109421286D01*
X135789219Y-109431406D01*
X135937154Y-109422576D01*
X136042822Y-109396084D01*
X136106223Y-109351932D01*
X136127356Y-109290119D01*
X136121972Y-109271069D01*
X136271819Y-109271069D01*
X136274200Y-109326631D01*
X136287694Y-109367906D01*
X136329366Y-109400053D01*
X136409931Y-109410769D01*
X136491291Y-109400450D01*
X136532169Y-109369494D01*
X136547250Y-109327425D01*
X136549631Y-109272656D01*
X136549631Y-108717031D01*
X136548044Y-108670994D01*
X136519469Y-108602731D01*
X136411519Y-108575744D01*
X136410725Y-108575844D01*
X136329763Y-108586063D01*
X136287694Y-108617019D01*
X136274200Y-108659087D01*
X136271819Y-108713856D01*
X136271819Y-109271069D01*
X136121972Y-109271069D01*
X136106719Y-109217094D01*
X136019406Y-109145656D01*
X135955906Y-109163119D01*
X135938444Y-109169469D01*
X135876134Y-109183756D01*
X135793981Y-109188519D01*
X135689206Y-109158356D01*
X135636819Y-109083744D01*
X136013056Y-109083744D01*
X136120213Y-109036912D01*
X136156527Y-108977381D01*
X136168631Y-108892450D01*
X136155138Y-108798589D01*
X136114656Y-108712269D01*
X136055720Y-108644205D01*
X135982100Y-108595587D01*
X135893795Y-108566417D01*
X135790806Y-108556694D01*
X135668833Y-108570011D01*
X135561148Y-108609963D01*
X135467750Y-108676550D01*
X135395872Y-108765362D01*
X135352744Y-108871989D01*
X135338369Y-108996431D01*
X135031981Y-108996431D01*
X135031981Y-108848794D01*
X135135169Y-108855144D01*
X135189937Y-108852763D01*
X135232006Y-108839269D01*
X135264153Y-108797597D01*
X135274869Y-108717031D01*
X135264550Y-108635672D01*
X135233594Y-108594794D01*
X135191525Y-108579713D01*
X135137550Y-108577331D01*
X135031981Y-108583681D01*
X135031981Y-108428106D01*
X135024044Y-108347144D01*
X134999559Y-108321744D01*
X136271819Y-108321744D01*
X136274200Y-108376512D01*
X136288488Y-108418581D01*
X136330556Y-108451919D01*
X136410725Y-108461444D01*
X136490894Y-108451919D01*
X136532963Y-108419375D01*
X136547250Y-108378100D01*
X136549631Y-108323331D01*
X136549493Y-108320156D01*
X136676631Y-108320156D01*
X136679013Y-108374925D01*
X136693300Y-108416200D01*
X136733781Y-108448744D01*
X136811569Y-108458269D01*
X136890150Y-108449537D01*
X136932219Y-108418581D01*
X136947300Y-108378894D01*
X136949681Y-108326506D01*
X136949681Y-108316981D01*
X136947300Y-108264594D01*
X136933806Y-108226494D01*
X136892134Y-108195537D01*
X136814744Y-108185219D01*
X136734178Y-108195537D01*
X136692506Y-108226494D01*
X136679013Y-108266181D01*
X136676631Y-108320156D01*
X136549493Y-108320156D01*
X136547250Y-108268563D01*
X136532169Y-108226494D01*
X136491688Y-108194347D01*
X136411519Y-108183631D01*
X136329763Y-108194347D01*
X136287694Y-108226494D01*
X136274200Y-108266975D01*
X136271819Y-108321744D01*
X134999559Y-108321744D01*
X134981578Y-108303091D01*
X134895456Y-108288406D01*
X134814097Y-108298328D01*
X134773219Y-108328094D01*
X134758138Y-108366194D01*
X134755756Y-108420169D01*
X134755756Y-108583681D01*
X134703369Y-108577331D01*
X134639869Y-108597969D01*
X134617644Y-108640037D01*
X134609706Y-108734494D01*
X134522394Y-108734494D01*
X134522394Y-108713856D01*
X134520012Y-108659087D01*
X134505725Y-108617019D01*
X134463656Y-108583681D01*
X134371581Y-108574156D01*
X134282284Y-108596381D01*
X134246169Y-108663056D01*
X134217594Y-108630513D01*
X134155681Y-108594794D01*
X134057256Y-108575744D01*
X133965622Y-108589590D01*
X133879103Y-108631130D01*
X133797700Y-108700362D01*
X133731995Y-108788028D01*
X133692572Y-108884865D01*
X133679431Y-108990875D01*
X133576077Y-108990875D01*
X133566719Y-108857172D01*
X133538144Y-108749487D01*
X133490519Y-108670200D01*
X133394475Y-108596977D01*
X133277794Y-108572569D01*
X133166669Y-108603525D01*
X133088087Y-108660675D01*
X133046019Y-108710681D01*
X132983930Y-108633952D01*
X132903497Y-108587915D01*
X132804719Y-108572569D01*
X132707484Y-108600747D01*
X132625331Y-108685281D01*
X132598344Y-108602731D01*
X132482456Y-108574156D01*
X132409828Y-108584872D01*
X132369744Y-108617019D01*
X132354662Y-108657500D01*
X132352281Y-108712269D01*
X132352281Y-109271069D01*
X131474892Y-109271069D01*
X131465223Y-109244046D01*
X131443122Y-109155817D01*
X131429777Y-109065846D01*
X131425314Y-108975000D01*
X131429777Y-108884154D01*
X131443122Y-108794183D01*
X131465223Y-108705954D01*
X131495865Y-108620315D01*
X131534753Y-108538093D01*
X131581513Y-108460078D01*
X131635695Y-108387022D01*
X131696777Y-108319628D01*
X131764171Y-108258547D01*
X131837227Y-108204365D01*
X131915242Y-108157604D01*
X131997464Y-108118716D01*
X132083103Y-108088074D01*
X132171332Y-108065973D01*
X132261303Y-108052628D01*
X132352149Y-108048165D01*
X132352281Y-108048165D01*
X146647719Y-108048165D01*
X146647851Y-108048165D01*
X146738697Y-108052628D01*
G37*
%TD*%
D10*
%TO.C,H104*%
X127450000Y-107750000D03*
%TD*%
%TO.C,H102*%
X151450000Y-44750000D03*
%TD*%
D11*
%TO.C,CN101*%
X144425000Y-96650000D03*
D12*
X124425000Y-96650000D03*
D13*
X143675000Y-101920000D03*
X143425000Y-94380000D03*
X143175000Y-101920000D03*
X142925000Y-94380000D03*
X142675000Y-101920000D03*
X142425000Y-94380000D03*
X142175000Y-101920000D03*
X141925000Y-94380000D03*
X141675000Y-101920000D03*
X141425000Y-94380000D03*
X141175000Y-101920000D03*
X138925000Y-94380000D03*
X138675000Y-101920000D03*
X138425000Y-94380000D03*
X138175000Y-101920000D03*
X137925000Y-94380000D03*
X137675000Y-101920000D03*
X137425000Y-94380000D03*
X137175000Y-101920000D03*
X136925000Y-94380000D03*
X136675000Y-101920000D03*
X136425000Y-94380000D03*
X136175000Y-101920000D03*
X135925000Y-94380000D03*
X135675000Y-101920000D03*
X135425000Y-94380000D03*
X135175000Y-101920000D03*
X134925000Y-94380000D03*
X134675000Y-101920000D03*
X134425000Y-94380000D03*
X134175000Y-101920000D03*
X133925000Y-94380000D03*
X133675000Y-101920000D03*
X133425000Y-94380000D03*
X133175000Y-101920000D03*
X132925000Y-94380000D03*
X132675000Y-101920000D03*
X132425000Y-94380000D03*
X132175000Y-101920000D03*
X131925000Y-94380000D03*
X131675000Y-101920000D03*
X131425000Y-94380000D03*
X131175000Y-101920000D03*
X130925000Y-94380000D03*
X130675000Y-101920000D03*
X130425000Y-94380000D03*
X130175000Y-101920000D03*
X129925000Y-94380000D03*
X129675000Y-101920000D03*
X129425000Y-94380000D03*
X129175000Y-101920000D03*
X128925000Y-94380000D03*
X128675000Y-101920000D03*
X128425000Y-94380000D03*
X128175000Y-101920000D03*
X127925000Y-94380000D03*
X127675000Y-101920000D03*
X127425000Y-94380000D03*
X127175000Y-101920000D03*
X126925000Y-94380000D03*
X126675000Y-101920000D03*
X126425000Y-94380000D03*
X126175000Y-101920000D03*
X125925000Y-94380000D03*
X125675000Y-101920000D03*
X125425000Y-94380000D03*
D14*
X125175000Y-101920000D03*
D15*
X124025000Y-101150000D03*
X144825000Y-101150000D03*
%TD*%
D16*
%TO.C,J101*%
X151950000Y-52050000D03*
D17*
X154490000Y-52050000D03*
X151950000Y-54590000D03*
X154490000Y-54590000D03*
X151950000Y-57130000D03*
X154490000Y-57130000D03*
X151950000Y-59670000D03*
X154490000Y-59670000D03*
X151950000Y-62210000D03*
X154490000Y-62210000D03*
X151950000Y-64750000D03*
X154490000Y-64750000D03*
X151950000Y-67290000D03*
X154490000Y-67290000D03*
X151950000Y-69830000D03*
X154490000Y-69830000D03*
X151950000Y-72370000D03*
X154490000Y-72370000D03*
X151950000Y-74910000D03*
X154490000Y-74910000D03*
X151950000Y-77450000D03*
X154490000Y-77450000D03*
X151950000Y-79990000D03*
X154490000Y-79990000D03*
X151950000Y-82530000D03*
X154490000Y-82530000D03*
X151950000Y-85070000D03*
X154490000Y-85070000D03*
X151950000Y-87610000D03*
X154490000Y-87610000D03*
X151950000Y-90150000D03*
X154490000Y-90150000D03*
X151950000Y-92690000D03*
X154490000Y-92690000D03*
X151950000Y-95230000D03*
X154490000Y-95230000D03*
X151950000Y-97770000D03*
X154490000Y-97770000D03*
X151950000Y-100310000D03*
X154490000Y-100310000D03*
%TD*%
D10*
%TO.C,H103*%
X151450000Y-107750000D03*
%TD*%
D18*
%TO.C,H105*%
X134450000Y-57075000D03*
%TD*%
D10*
%TO.C,H101*%
X127450000Y-44750000D03*
%TD*%
M02*
