%TF.GenerationSoftware,KiCad,Pcbnew,7.0.5-0*%
%TF.CreationDate,2023-07-31T21:54:07-04:00*%
%TF.ProjectId,carrier-hp,63617272-6965-4722-9d68-702e6b696361,rev?*%
%TF.SameCoordinates,Original*%
%TF.FileFunction,Paste,Top*%
%TF.FilePolarity,Positive*%
%FSLAX46Y46*%
G04 Gerber Fmt 4.6, Leading zero omitted, Abs format (unit mm)*
G04 Created by KiCad (PCBNEW 7.0.5-0) date 2023-07-31 21:54:07*
%MOMM*%
%LPD*%
G01*
G04 APERTURE LIST*
%ADD10R,0.300000X1.550000*%
%ADD11R,0.330000X1.600000*%
%ADD12R,1.200000X2.750000*%
G04 APERTURE END LIST*
D10*
%TO.C,CN101*%
X143675000Y-101920000D03*
X143425000Y-94380000D03*
X143175000Y-101920000D03*
X142925000Y-94380000D03*
X142675000Y-101920000D03*
X142425000Y-94380000D03*
X142175000Y-101920000D03*
X141925000Y-94380000D03*
X141675000Y-101920000D03*
X141425000Y-94380000D03*
X141175000Y-101920000D03*
X138925000Y-94380000D03*
X138675000Y-101920000D03*
X138425000Y-94380000D03*
X138175000Y-101920000D03*
X137925000Y-94380000D03*
X137675000Y-101920000D03*
X137425000Y-94380000D03*
X137175000Y-101920000D03*
X136925000Y-94380000D03*
X136675000Y-101920000D03*
X136425000Y-94380000D03*
X136175000Y-101920000D03*
X135925000Y-94380000D03*
X135675000Y-101920000D03*
X135425000Y-94380000D03*
X135175000Y-101920000D03*
X134925000Y-94380000D03*
X134675000Y-101920000D03*
X134425000Y-94380000D03*
X134175000Y-101920000D03*
X133925000Y-94380000D03*
X133675000Y-101920000D03*
X133425000Y-94380000D03*
X133175000Y-101920000D03*
X132925000Y-94380000D03*
X132675000Y-101920000D03*
X132425000Y-94380000D03*
X132175000Y-101920000D03*
X131925000Y-94380000D03*
X131675000Y-101920000D03*
X131425000Y-94380000D03*
X131175000Y-101920000D03*
X130925000Y-94380000D03*
X130675000Y-101920000D03*
X130425000Y-94380000D03*
X130175000Y-101920000D03*
X129925000Y-94380000D03*
X129675000Y-101920000D03*
X129425000Y-94380000D03*
X129175000Y-101920000D03*
X128925000Y-94380000D03*
X128675000Y-101920000D03*
X128425000Y-94380000D03*
X128175000Y-101920000D03*
X127925000Y-94380000D03*
X127675000Y-101920000D03*
X127425000Y-94380000D03*
X127175000Y-101920000D03*
X126925000Y-94380000D03*
X126675000Y-101920000D03*
X126425000Y-94380000D03*
X126175000Y-101920000D03*
X125925000Y-94380000D03*
X125675000Y-101920000D03*
X125425000Y-94380000D03*
D11*
X125175000Y-101920000D03*
D12*
X124025000Y-101150000D03*
X144825000Y-101150000D03*
%TD*%
M02*
