%TF.GenerationSoftware,KiCad,Pcbnew,7.0.5-0*%
%TF.CreationDate,2023-07-31T21:54:10-04:00*%
%TF.ProjectId,carrier-hp,63617272-6965-4722-9d68-702e6b696361,rev?*%
%TF.SameCoordinates,Original*%
%TF.FileFunction,Drillmap*%
%TF.FilePolarity,Positive*%
%FSLAX45Y45*%
G04 Gerber Fmt 4.5, Leading zero omitted, Abs format (unit mm)*
G04 Created by KiCad (PCBNEW 7.0.5-0) date 2023-07-31 21:54:10*
%MOMM*%
%LPD*%
G01*
G04 APERTURE LIST*
%ADD10C,0.100000*%
%ADD11C,0.200000*%
G04 APERTURE END LIST*
D10*
X12742734Y-3999735D02*
X15137734Y-3999735D01*
X12742734Y-3999735D02*
G75*
G03*
X12260101Y-4482367I6J-482639D01*
G01*
X12260097Y-10780000D02*
G75*
G03*
X12742734Y-11262633I482633J0D01*
G01*
X12260101Y-10780000D02*
X12260101Y-4482367D01*
X15137734Y-11262636D02*
G75*
G03*
X15620366Y-10780000I-4J482636D01*
G01*
X12742734Y-11262633D02*
X15137734Y-11262633D01*
X15620365Y-4482367D02*
G75*
G03*
X15137734Y-3999735I-482635J-3D01*
G01*
X15620366Y-4482367D02*
X15620366Y-10780000D01*
D11*
X12515878Y-11579116D02*
X12515878Y-11379116D01*
X12515878Y-11379116D02*
X12563497Y-11379116D01*
X12563497Y-11379116D02*
X12592068Y-11388640D01*
X12592068Y-11388640D02*
X12611116Y-11407688D01*
X12611116Y-11407688D02*
X12620640Y-11426735D01*
X12620640Y-11426735D02*
X12630164Y-11464831D01*
X12630164Y-11464831D02*
X12630164Y-11493402D01*
X12630164Y-11493402D02*
X12620640Y-11531497D01*
X12620640Y-11531497D02*
X12611116Y-11550545D01*
X12611116Y-11550545D02*
X12592068Y-11569593D01*
X12592068Y-11569593D02*
X12563497Y-11579116D01*
X12563497Y-11579116D02*
X12515878Y-11579116D01*
X12715878Y-11579116D02*
X12715878Y-11445783D01*
X12715878Y-11483878D02*
X12725402Y-11464831D01*
X12725402Y-11464831D02*
X12734925Y-11455307D01*
X12734925Y-11455307D02*
X12753973Y-11445783D01*
X12753973Y-11445783D02*
X12773021Y-11445783D01*
X12839687Y-11579116D02*
X12839687Y-11445783D01*
X12839687Y-11379116D02*
X12830164Y-11388640D01*
X12830164Y-11388640D02*
X12839687Y-11398164D01*
X12839687Y-11398164D02*
X12849211Y-11388640D01*
X12849211Y-11388640D02*
X12839687Y-11379116D01*
X12839687Y-11379116D02*
X12839687Y-11398164D01*
X12963497Y-11579116D02*
X12944449Y-11569593D01*
X12944449Y-11569593D02*
X12934925Y-11550545D01*
X12934925Y-11550545D02*
X12934925Y-11379116D01*
X13068259Y-11579116D02*
X13049211Y-11569593D01*
X13049211Y-11569593D02*
X13039687Y-11550545D01*
X13039687Y-11550545D02*
X13039687Y-11379116D01*
X13296830Y-11579116D02*
X13296830Y-11379116D01*
X13296830Y-11379116D02*
X13363497Y-11521974D01*
X13363497Y-11521974D02*
X13430164Y-11379116D01*
X13430164Y-11379116D02*
X13430164Y-11579116D01*
X13611116Y-11579116D02*
X13611116Y-11474355D01*
X13611116Y-11474355D02*
X13601592Y-11455307D01*
X13601592Y-11455307D02*
X13582545Y-11445783D01*
X13582545Y-11445783D02*
X13544449Y-11445783D01*
X13544449Y-11445783D02*
X13525402Y-11455307D01*
X13611116Y-11569593D02*
X13592068Y-11579116D01*
X13592068Y-11579116D02*
X13544449Y-11579116D01*
X13544449Y-11579116D02*
X13525402Y-11569593D01*
X13525402Y-11569593D02*
X13515878Y-11550545D01*
X13515878Y-11550545D02*
X13515878Y-11531497D01*
X13515878Y-11531497D02*
X13525402Y-11512450D01*
X13525402Y-11512450D02*
X13544449Y-11502926D01*
X13544449Y-11502926D02*
X13592068Y-11502926D01*
X13592068Y-11502926D02*
X13611116Y-11493402D01*
X13706354Y-11445783D02*
X13706354Y-11645783D01*
X13706354Y-11455307D02*
X13725402Y-11445783D01*
X13725402Y-11445783D02*
X13763497Y-11445783D01*
X13763497Y-11445783D02*
X13782545Y-11455307D01*
X13782545Y-11455307D02*
X13792068Y-11464831D01*
X13792068Y-11464831D02*
X13801592Y-11483878D01*
X13801592Y-11483878D02*
X13801592Y-11541021D01*
X13801592Y-11541021D02*
X13792068Y-11560069D01*
X13792068Y-11560069D02*
X13782545Y-11569593D01*
X13782545Y-11569593D02*
X13763497Y-11579116D01*
X13763497Y-11579116D02*
X13725402Y-11579116D01*
X13725402Y-11579116D02*
X13706354Y-11569593D01*
X13887306Y-11560069D02*
X13896830Y-11569593D01*
X13896830Y-11569593D02*
X13887306Y-11579116D01*
X13887306Y-11579116D02*
X13877783Y-11569593D01*
X13877783Y-11569593D02*
X13887306Y-11560069D01*
X13887306Y-11560069D02*
X13887306Y-11579116D01*
X13887306Y-11455307D02*
X13896830Y-11464831D01*
X13896830Y-11464831D02*
X13887306Y-11474355D01*
X13887306Y-11474355D02*
X13877783Y-11464831D01*
X13877783Y-11464831D02*
X13887306Y-11455307D01*
X13887306Y-11455307D02*
X13887306Y-11474355D01*
M02*
