%TF.GenerationSoftware,KiCad,Pcbnew,7.0.5-0*%
%TF.CreationDate,2023-07-31T21:54:07-04:00*%
%TF.ProjectId,carrier-hp,63617272-6965-4722-9d68-702e6b696361,rev?*%
%TF.SameCoordinates,Original*%
%TF.FileFunction,Legend,Top*%
%TF.FilePolarity,Positive*%
%FSLAX46Y46*%
G04 Gerber Fmt 4.6, Leading zero omitted, Abs format (unit mm)*
G04 Created by KiCad (PCBNEW 7.0.5-0) date 2023-07-31 21:54:07*
%MOMM*%
%LPD*%
G01*
G04 APERTURE LIST*
%ADD10C,0.300000*%
%ADD11C,0.250000*%
%ADD12C,0.120000*%
G04 APERTURE END LIST*
D10*
G36*
X129597368Y-82154500D02*
G01*
X129597368Y-82411694D01*
X129569101Y-82425828D01*
X129282777Y-82425828D01*
X129216313Y-82392596D01*
X129183082Y-82326132D01*
X129183082Y-82254094D01*
X129216313Y-82187631D01*
X129282778Y-82154400D01*
X129596434Y-82154400D01*
X129597368Y-82154500D01*
G37*
G36*
X132311654Y-82154500D02*
G01*
X132311654Y-82411694D01*
X132283387Y-82425828D01*
X131997063Y-82425828D01*
X131930599Y-82392596D01*
X131897367Y-82326132D01*
X131897367Y-82254094D01*
X131930599Y-82187631D01*
X131997064Y-82154400D01*
X132310720Y-82154400D01*
X132311654Y-82154500D01*
G37*
G36*
X136778422Y-81759060D02*
G01*
X136804597Y-81811411D01*
X136397368Y-81892857D01*
X136397368Y-81825523D01*
X136430599Y-81759060D01*
X136497065Y-81725828D01*
X136711957Y-81725828D01*
X136778422Y-81759060D01*
G37*
G36*
X131740225Y-79324962D02*
G01*
X131740225Y-79996694D01*
X131711958Y-80010828D01*
X131497063Y-80010828D01*
X131407649Y-79966121D01*
X131370644Y-79929116D01*
X131325939Y-79839703D01*
X131325939Y-79481951D01*
X131370645Y-79392538D01*
X131407649Y-79355534D01*
X131497063Y-79310828D01*
X131711957Y-79310828D01*
X131740225Y-79324962D01*
G37*
G36*
X130372800Y-79355535D02*
G01*
X130409803Y-79392538D01*
X130454510Y-79481952D01*
X130454510Y-79839704D01*
X130409803Y-79929117D01*
X130372798Y-79966122D01*
X130283386Y-80010828D01*
X130139920Y-80010828D01*
X130050506Y-79966121D01*
X130013501Y-79929116D01*
X129968796Y-79839703D01*
X129968796Y-79481951D01*
X130013502Y-79392538D01*
X130050506Y-79355534D01*
X130139920Y-79310828D01*
X130283385Y-79310828D01*
X130372800Y-79355535D01*
G37*
G36*
X134515657Y-76940535D02*
G01*
X134552660Y-76977538D01*
X134597367Y-77066952D01*
X134597367Y-77424703D01*
X134552659Y-77514118D01*
X134515655Y-77551122D01*
X134426243Y-77595828D01*
X134282777Y-77595828D01*
X134193363Y-77551121D01*
X134156358Y-77514116D01*
X134111653Y-77424703D01*
X134111653Y-77066951D01*
X134156359Y-76977538D01*
X134193363Y-76940534D01*
X134282777Y-76895828D01*
X134426242Y-76895828D01*
X134515657Y-76940535D01*
G37*
G36*
X133740224Y-74909500D02*
G01*
X133740225Y-75166694D01*
X133711958Y-75180828D01*
X133425634Y-75180828D01*
X133359170Y-75147596D01*
X133325938Y-75081132D01*
X133325938Y-75009094D01*
X133359170Y-74942631D01*
X133425635Y-74909400D01*
X133739291Y-74909400D01*
X133740224Y-74909500D01*
G37*
G36*
X139092857Y-83439286D02*
G01*
X127885714Y-83439286D01*
X127885714Y-83081337D01*
X133662561Y-83081337D01*
X133690340Y-83164930D01*
X133758904Y-83220234D01*
X133846483Y-83229689D01*
X134011913Y-83146974D01*
X134036575Y-83141610D01*
X134065786Y-83112398D01*
X134096066Y-83084233D01*
X134096792Y-83081392D01*
X134130308Y-83047876D01*
X134155996Y-83029573D01*
X134169024Y-82997002D01*
X134185843Y-82966202D01*
X134185160Y-82956661D01*
X134299980Y-82669611D01*
X134302387Y-82667757D01*
X134305484Y-82659083D01*
X134312089Y-82652661D01*
X134319462Y-82620906D01*
X134323221Y-82611511D01*
X134323492Y-82608662D01*
X134340502Y-82561034D01*
X134806021Y-82561034D01*
X134809584Y-82579481D01*
X134806911Y-82598077D01*
X134817771Y-82621858D01*
X134822730Y-82647523D01*
X134835698Y-82661112D01*
X134843504Y-82678204D01*
X134865497Y-82692338D01*
X134883545Y-82711250D01*
X134901805Y-82715671D01*
X134917609Y-82725828D01*
X134943748Y-82725828D01*
X134969158Y-82731981D01*
X134986911Y-82725828D01*
X135768936Y-82725828D01*
X135831888Y-82707344D01*
X135889573Y-82640771D01*
X135902110Y-82553579D01*
X135865517Y-82473452D01*
X135791412Y-82425828D01*
X135270273Y-82425828D01*
X135756576Y-81806896D01*
X136091938Y-81806896D01*
X136097368Y-81819988D01*
X136097368Y-82036197D01*
X136095188Y-82040035D01*
X136097368Y-82079932D01*
X136097368Y-82353469D01*
X136093507Y-82389229D01*
X136107214Y-82416644D01*
X136115852Y-82446062D01*
X136126563Y-82455343D01*
X136167542Y-82537302D01*
X136167337Y-82543131D01*
X136187058Y-82576335D01*
X136194277Y-82590773D01*
X136198029Y-82594807D01*
X136212320Y-82618868D01*
X136227443Y-82626429D01*
X136238962Y-82638813D01*
X136266079Y-82645747D01*
X136387350Y-82706381D01*
X136417610Y-82725828D01*
X136448262Y-82725828D01*
X136478436Y-82731258D01*
X136491528Y-82725828D01*
X136739292Y-82725828D01*
X136775055Y-82729689D01*
X136802469Y-82715981D01*
X136831888Y-82707344D01*
X136841169Y-82696632D01*
X136976598Y-82628919D01*
X137024638Y-82584233D01*
X137046461Y-82498891D01*
X137018681Y-82415297D01*
X136950117Y-82359994D01*
X136862538Y-82350539D01*
X136711958Y-82425828D01*
X136497063Y-82425828D01*
X136430599Y-82392596D01*
X136397368Y-82326132D01*
X136397368Y-82198798D01*
X136965806Y-82085110D01*
X136983903Y-82087713D01*
X137008140Y-82076644D01*
X137012221Y-82075828D01*
X137027685Y-82067718D01*
X137064030Y-82051120D01*
X137066416Y-82047406D01*
X137070325Y-82045357D01*
X137090057Y-82010620D01*
X137111654Y-81977015D01*
X137111654Y-81972601D01*
X137113834Y-81968764D01*
X137111654Y-81928866D01*
X137111654Y-81878323D01*
X137449080Y-81878323D01*
X137454510Y-81891415D01*
X137454510Y-82597396D01*
X137472994Y-82660348D01*
X137539567Y-82718033D01*
X137626759Y-82730570D01*
X137706886Y-82693977D01*
X137754510Y-82619872D01*
X137754510Y-81896953D01*
X137799217Y-81807538D01*
X137836221Y-81770534D01*
X137925635Y-81725828D01*
X138054650Y-81725828D01*
X138117602Y-81707344D01*
X138175287Y-81640771D01*
X138187824Y-81553579D01*
X138151231Y-81473452D01*
X138077126Y-81425828D01*
X137898300Y-81425828D01*
X137862536Y-81421967D01*
X137835120Y-81435675D01*
X137805705Y-81444312D01*
X137796423Y-81455023D01*
X137731572Y-81487449D01*
X137669453Y-81433623D01*
X137582261Y-81421086D01*
X137502134Y-81457679D01*
X137454510Y-81531784D01*
X137454510Y-81848151D01*
X137449080Y-81878323D01*
X137111654Y-81878323D01*
X137111654Y-81798188D01*
X137115515Y-81762425D01*
X137101806Y-81735009D01*
X137093170Y-81705594D01*
X137082458Y-81696312D01*
X137041479Y-81614356D01*
X137041685Y-81608527D01*
X137021957Y-81575313D01*
X137014743Y-81560884D01*
X137010992Y-81556852D01*
X136996701Y-81532790D01*
X136981577Y-81525228D01*
X136970058Y-81512844D01*
X136942942Y-81505910D01*
X136821677Y-81445278D01*
X136791412Y-81425828D01*
X136760759Y-81425828D01*
X136730587Y-81420398D01*
X136717495Y-81425828D01*
X136469730Y-81425828D01*
X136433966Y-81421967D01*
X136406550Y-81435674D01*
X136377134Y-81444312D01*
X136367852Y-81455023D01*
X136285894Y-81496002D01*
X136280066Y-81495797D01*
X136246861Y-81515518D01*
X136232423Y-81522738D01*
X136228388Y-81526490D01*
X136204329Y-81540781D01*
X136196767Y-81555904D01*
X136184383Y-81567424D01*
X136177449Y-81594540D01*
X136116813Y-81715811D01*
X136097368Y-81746070D01*
X136097368Y-81776721D01*
X136091938Y-81806896D01*
X135756576Y-81806896D01*
X135863087Y-81671337D01*
X135889573Y-81640771D01*
X135893293Y-81614898D01*
X135903000Y-81590622D01*
X135899436Y-81572174D01*
X135902110Y-81553579D01*
X135891249Y-81529797D01*
X135886291Y-81504133D01*
X135873322Y-81490543D01*
X135865517Y-81473452D01*
X135843523Y-81459317D01*
X135825476Y-81440406D01*
X135807215Y-81435984D01*
X135791412Y-81425828D01*
X135765273Y-81425828D01*
X135739863Y-81419675D01*
X135722110Y-81425828D01*
X134940085Y-81425828D01*
X134877133Y-81444312D01*
X134819448Y-81510885D01*
X134806911Y-81598077D01*
X134843504Y-81678204D01*
X134917609Y-81725828D01*
X135438748Y-81725828D01*
X134845933Y-82480318D01*
X134819448Y-82510885D01*
X134815727Y-82536757D01*
X134806021Y-82561034D01*
X134340502Y-82561034D01*
X134681597Y-81605967D01*
X134685363Y-81540466D01*
X134642070Y-81463750D01*
X134564175Y-81422618D01*
X134476408Y-81430129D01*
X134406634Y-81483900D01*
X134175939Y-82129846D01*
X133952803Y-81505066D01*
X133914223Y-81451998D01*
X133832127Y-81420065D01*
X133745798Y-81437584D01*
X133682646Y-81498995D01*
X133662721Y-81584800D01*
X134015586Y-82572821D01*
X133905244Y-82848676D01*
X133872798Y-82881122D01*
X133732423Y-82951309D01*
X133684383Y-82995995D01*
X133662561Y-83081337D01*
X127885714Y-83081337D01*
X127885714Y-82235467D01*
X128877652Y-82235467D01*
X128883082Y-82248559D01*
X128883082Y-82353469D01*
X128879221Y-82389229D01*
X128892928Y-82416644D01*
X128901566Y-82446062D01*
X128912277Y-82455343D01*
X128953256Y-82537302D01*
X128953051Y-82543131D01*
X128972772Y-82576335D01*
X128979991Y-82590773D01*
X128983743Y-82594807D01*
X128998034Y-82618868D01*
X129013157Y-82626429D01*
X129024676Y-82638813D01*
X129051793Y-82645747D01*
X129173064Y-82706381D01*
X129203324Y-82725828D01*
X129233976Y-82725828D01*
X129264150Y-82731258D01*
X129277242Y-82725828D01*
X129596437Y-82725828D01*
X129632197Y-82729689D01*
X129659612Y-82715981D01*
X129674882Y-82711497D01*
X129682425Y-82718033D01*
X129769617Y-82730570D01*
X129849744Y-82693977D01*
X129897368Y-82619872D01*
X129897368Y-82523278D01*
X129903604Y-82498891D01*
X129897368Y-82480126D01*
X129897368Y-81951845D01*
X129903603Y-81927462D01*
X129897368Y-81908699D01*
X129897368Y-81798188D01*
X129901229Y-81762425D01*
X129887520Y-81735009D01*
X129878884Y-81705594D01*
X129868172Y-81696312D01*
X129862742Y-81685453D01*
X130308893Y-81685453D01*
X130311653Y-81724043D01*
X130311653Y-82597396D01*
X130330137Y-82660348D01*
X130396710Y-82718033D01*
X130483902Y-82730570D01*
X130564029Y-82693977D01*
X130611653Y-82619872D01*
X130611653Y-81780817D01*
X130621935Y-81770534D01*
X130711349Y-81725828D01*
X130854814Y-81725828D01*
X130921279Y-81759060D01*
X130954511Y-81825523D01*
X130954511Y-82597396D01*
X130972995Y-82660348D01*
X131039568Y-82718033D01*
X131126760Y-82730570D01*
X131206887Y-82693977D01*
X131254511Y-82619872D01*
X131254511Y-82235467D01*
X131591938Y-82235467D01*
X131597368Y-82248559D01*
X131597368Y-82353469D01*
X131593507Y-82389229D01*
X131607214Y-82416644D01*
X131615852Y-82446062D01*
X131626563Y-82455343D01*
X131667542Y-82537302D01*
X131667337Y-82543131D01*
X131687058Y-82576335D01*
X131694277Y-82590773D01*
X131698029Y-82594807D01*
X131712320Y-82618868D01*
X131727443Y-82626429D01*
X131738962Y-82638813D01*
X131766079Y-82645747D01*
X131887350Y-82706381D01*
X131917610Y-82725828D01*
X131948262Y-82725828D01*
X131978436Y-82731258D01*
X131991528Y-82725828D01*
X132310723Y-82725828D01*
X132346483Y-82729689D01*
X132373898Y-82715981D01*
X132389168Y-82711497D01*
X132396711Y-82718033D01*
X132483903Y-82730570D01*
X132564030Y-82693977D01*
X132611654Y-82619872D01*
X132611653Y-82523278D01*
X132617890Y-82498891D01*
X132611654Y-82480126D01*
X132611654Y-82389230D01*
X133022078Y-82389230D01*
X133035785Y-82416645D01*
X133044423Y-82446062D01*
X133055134Y-82455343D01*
X133096113Y-82537301D01*
X133095908Y-82543130D01*
X133115629Y-82576334D01*
X133122849Y-82590773D01*
X133126601Y-82594807D01*
X133140892Y-82618867D01*
X133156015Y-82626428D01*
X133167535Y-82638813D01*
X133194651Y-82645746D01*
X133342435Y-82719638D01*
X133407007Y-82731258D01*
X133488374Y-82697511D01*
X133538581Y-82625130D01*
X133541685Y-82537098D01*
X133496701Y-82461361D01*
X133359171Y-82392596D01*
X133325939Y-82326131D01*
X133325939Y-81054260D01*
X133307455Y-80991308D01*
X133240882Y-80933623D01*
X133153690Y-80921086D01*
X133073563Y-80957679D01*
X133025939Y-81031784D01*
X133025939Y-82353466D01*
X133022078Y-82389230D01*
X132611654Y-82389230D01*
X132611654Y-81951845D01*
X132617889Y-81927462D01*
X132611654Y-81908699D01*
X132611654Y-81798188D01*
X132615515Y-81762425D01*
X132601806Y-81735009D01*
X132593170Y-81705594D01*
X132582458Y-81696312D01*
X132541479Y-81614356D01*
X132541685Y-81608527D01*
X132521957Y-81575313D01*
X132514743Y-81560884D01*
X132510992Y-81556852D01*
X132496701Y-81532790D01*
X132481577Y-81525228D01*
X132470058Y-81512844D01*
X132442942Y-81505910D01*
X132321677Y-81445278D01*
X132291412Y-81425828D01*
X132260759Y-81425828D01*
X132230587Y-81420398D01*
X132217495Y-81425828D01*
X131969730Y-81425828D01*
X131933966Y-81421967D01*
X131906550Y-81435674D01*
X131877134Y-81444312D01*
X131867852Y-81455023D01*
X131732423Y-81522738D01*
X131684383Y-81567424D01*
X131662561Y-81652766D01*
X131690341Y-81736360D01*
X131758904Y-81791663D01*
X131846484Y-81801118D01*
X131997065Y-81725828D01*
X132211957Y-81725828D01*
X132278422Y-81759060D01*
X132311654Y-81825523D01*
X132311654Y-81840265D01*
X132283385Y-81854400D01*
X131969731Y-81854400D01*
X131933967Y-81850539D01*
X131906552Y-81864246D01*
X131877134Y-81872884D01*
X131867852Y-81883595D01*
X131785895Y-81924573D01*
X131780066Y-81924368D01*
X131746855Y-81944093D01*
X131732424Y-81951309D01*
X131728390Y-81955060D01*
X131704329Y-81969352D01*
X131696767Y-81984475D01*
X131684384Y-81995994D01*
X131677450Y-82023109D01*
X131616813Y-82144382D01*
X131597368Y-82174641D01*
X131597368Y-82205292D01*
X131591938Y-82235467D01*
X131254511Y-82235467D01*
X131254510Y-81798188D01*
X131258372Y-81762425D01*
X131244663Y-81735009D01*
X131236027Y-81705594D01*
X131225315Y-81696312D01*
X131184336Y-81614356D01*
X131184542Y-81608527D01*
X131164814Y-81575313D01*
X131157600Y-81560884D01*
X131153849Y-81556852D01*
X131139558Y-81532790D01*
X131124434Y-81525228D01*
X131112915Y-81512844D01*
X131085799Y-81505910D01*
X130964534Y-81445278D01*
X130934269Y-81425828D01*
X130903616Y-81425828D01*
X130873444Y-81420398D01*
X130860352Y-81425828D01*
X130684014Y-81425828D01*
X130648250Y-81421967D01*
X130620834Y-81435675D01*
X130591419Y-81444312D01*
X130582137Y-81455023D01*
X130562579Y-81464802D01*
X130526596Y-81433623D01*
X130439404Y-81421086D01*
X130359277Y-81457679D01*
X130311653Y-81531784D01*
X130311653Y-81680398D01*
X130308893Y-81685453D01*
X129862742Y-81685453D01*
X129827193Y-81614356D01*
X129827399Y-81608527D01*
X129807671Y-81575313D01*
X129800457Y-81560884D01*
X129796706Y-81556852D01*
X129782415Y-81532790D01*
X129767291Y-81525228D01*
X129755772Y-81512844D01*
X129728656Y-81505910D01*
X129607391Y-81445278D01*
X129577126Y-81425828D01*
X129546473Y-81425828D01*
X129516301Y-81420398D01*
X129503209Y-81425828D01*
X129255444Y-81425828D01*
X129219680Y-81421967D01*
X129192264Y-81435674D01*
X129162848Y-81444312D01*
X129153566Y-81455023D01*
X129018137Y-81522738D01*
X128970097Y-81567424D01*
X128948275Y-81652766D01*
X128976055Y-81736360D01*
X129044618Y-81791663D01*
X129132198Y-81801118D01*
X129282779Y-81725828D01*
X129497671Y-81725828D01*
X129564136Y-81759060D01*
X129597368Y-81825523D01*
X129597368Y-81840265D01*
X129569099Y-81854400D01*
X129255445Y-81854400D01*
X129219681Y-81850539D01*
X129192266Y-81864246D01*
X129162848Y-81872884D01*
X129153566Y-81883595D01*
X129071609Y-81924573D01*
X129065780Y-81924368D01*
X129032569Y-81944093D01*
X129018138Y-81951309D01*
X129014104Y-81955060D01*
X128990043Y-81969352D01*
X128982481Y-81984475D01*
X128970098Y-81995994D01*
X128963164Y-82023109D01*
X128902527Y-82144382D01*
X128883082Y-82174641D01*
X128883082Y-82205292D01*
X128877652Y-82235467D01*
X127885714Y-82235467D01*
X127885714Y-79974230D01*
X128950649Y-79974230D01*
X128964356Y-80001645D01*
X128972994Y-80031062D01*
X128983705Y-80040343D01*
X129024684Y-80122301D01*
X129024479Y-80128130D01*
X129044200Y-80161334D01*
X129051420Y-80175773D01*
X129055172Y-80179807D01*
X129069463Y-80203867D01*
X129084586Y-80211428D01*
X129096106Y-80223813D01*
X129123222Y-80230746D01*
X129271006Y-80304638D01*
X129335578Y-80316258D01*
X129416945Y-80282511D01*
X129467152Y-80210130D01*
X129470256Y-80122098D01*
X129425272Y-80046361D01*
X129287742Y-79977596D01*
X129254510Y-79911131D01*
X129254510Y-79463324D01*
X129663366Y-79463324D01*
X129668796Y-79476416D01*
X129668796Y-79867037D01*
X129664935Y-79902801D01*
X129678642Y-79930215D01*
X129687280Y-79959634D01*
X129697991Y-79968915D01*
X129747649Y-80068231D01*
X129753014Y-80092893D01*
X129782219Y-80122098D01*
X129810391Y-80152384D01*
X129813231Y-80153110D01*
X129842288Y-80182167D01*
X129855177Y-80203867D01*
X129892126Y-80222341D01*
X129928422Y-80242161D01*
X129931346Y-80241951D01*
X130030204Y-80291380D01*
X130060466Y-80310828D01*
X130091118Y-80310828D01*
X130121292Y-80316258D01*
X130134384Y-80310828D01*
X130310720Y-80310828D01*
X130346483Y-80314689D01*
X130373897Y-80300981D01*
X130403316Y-80292344D01*
X130412597Y-80281632D01*
X130511913Y-80231974D01*
X130536575Y-80226610D01*
X130565786Y-80197398D01*
X130596066Y-80169233D01*
X130596792Y-80166392D01*
X130625849Y-80137335D01*
X130647549Y-80124447D01*
X130666023Y-80087497D01*
X130685843Y-80051202D01*
X130685633Y-80048277D01*
X130735062Y-79949419D01*
X130754510Y-79919158D01*
X130754510Y-79888506D01*
X130759940Y-79858332D01*
X130754510Y-79845239D01*
X130754510Y-79463324D01*
X131020509Y-79463324D01*
X131025939Y-79476416D01*
X131025939Y-79867037D01*
X131022078Y-79902801D01*
X131035785Y-79930215D01*
X131044423Y-79959634D01*
X131055134Y-79968915D01*
X131104792Y-80068231D01*
X131110157Y-80092893D01*
X131139362Y-80122098D01*
X131167534Y-80152384D01*
X131170374Y-80153110D01*
X131199431Y-80182167D01*
X131212320Y-80203867D01*
X131249269Y-80222341D01*
X131285565Y-80242161D01*
X131288489Y-80241951D01*
X131387347Y-80291380D01*
X131417609Y-80310828D01*
X131448261Y-80310828D01*
X131478435Y-80316258D01*
X131491527Y-80310828D01*
X131739294Y-80310828D01*
X131740225Y-80310928D01*
X131740225Y-80339704D01*
X131695519Y-80429115D01*
X131658512Y-80466122D01*
X131569100Y-80510828D01*
X131425634Y-80510828D01*
X131295157Y-80445590D01*
X131230585Y-80433970D01*
X131149218Y-80467718D01*
X131099011Y-80540098D01*
X131095908Y-80628131D01*
X131140891Y-80703868D01*
X131315921Y-80791381D01*
X131346181Y-80810828D01*
X131376833Y-80810828D01*
X131407007Y-80816258D01*
X131420099Y-80810828D01*
X131596434Y-80810828D01*
X131632197Y-80814689D01*
X131659611Y-80800981D01*
X131689030Y-80792344D01*
X131698311Y-80781632D01*
X131797627Y-80731974D01*
X131822289Y-80726610D01*
X131851500Y-80697398D01*
X131881780Y-80669233D01*
X131882506Y-80666392D01*
X131911561Y-80637337D01*
X131933263Y-80624448D01*
X131951744Y-80587485D01*
X131971557Y-80551202D01*
X131971347Y-80548278D01*
X132020777Y-80449419D01*
X132040225Y-80419158D01*
X132040225Y-80388505D01*
X132045655Y-80358333D01*
X132040225Y-80345240D01*
X132040225Y-80182396D01*
X132454510Y-80182396D01*
X132472994Y-80245348D01*
X132539567Y-80303033D01*
X132626759Y-80315570D01*
X132706886Y-80278977D01*
X132754510Y-80204872D01*
X132754510Y-79463324D01*
X133091938Y-79463324D01*
X133097368Y-79476416D01*
X133097367Y-79867037D01*
X133093507Y-79902801D01*
X133107214Y-79930215D01*
X133115852Y-79959634D01*
X133126563Y-79968915D01*
X133176221Y-80068231D01*
X133181586Y-80092893D01*
X133210791Y-80122098D01*
X133238963Y-80152384D01*
X133241803Y-80153110D01*
X133270860Y-80182167D01*
X133283749Y-80203867D01*
X133320698Y-80222341D01*
X133356994Y-80242161D01*
X133359918Y-80241951D01*
X133458776Y-80291380D01*
X133489038Y-80310828D01*
X133519690Y-80310828D01*
X133549864Y-80316258D01*
X133562956Y-80310828D01*
X133810723Y-80310828D01*
X133846483Y-80314689D01*
X133873898Y-80300981D01*
X133903316Y-80292344D01*
X133912597Y-80281632D01*
X134048027Y-80213919D01*
X134096067Y-80169234D01*
X134117890Y-80083891D01*
X134090110Y-80000298D01*
X134021547Y-79944994D01*
X133933967Y-79935539D01*
X133783387Y-80010828D01*
X133568492Y-80010828D01*
X133479078Y-79966121D01*
X133442073Y-79929116D01*
X133397367Y-79839703D01*
X133397368Y-79481951D01*
X133442074Y-79392538D01*
X133479078Y-79355534D01*
X133568492Y-79310828D01*
X133783386Y-79310828D01*
X133913863Y-79376067D01*
X133978435Y-79387687D01*
X134059803Y-79353940D01*
X134110009Y-79281560D01*
X134113114Y-79193527D01*
X134068130Y-79117790D01*
X133893098Y-79030273D01*
X133862840Y-79010828D01*
X133832189Y-79010828D01*
X133802015Y-79005398D01*
X133788923Y-79010828D01*
X133541157Y-79010828D01*
X133505393Y-79006967D01*
X133477977Y-79020675D01*
X133448562Y-79029312D01*
X133439280Y-79040023D01*
X133339965Y-79089682D01*
X133315304Y-79095047D01*
X133286089Y-79124261D01*
X133255812Y-79152424D01*
X133255085Y-79155264D01*
X133226029Y-79184319D01*
X133204329Y-79197209D01*
X133185848Y-79234169D01*
X133166036Y-79270453D01*
X133166245Y-79273376D01*
X133116813Y-79372239D01*
X133097368Y-79402498D01*
X133097368Y-79433149D01*
X133091938Y-79463324D01*
X132754510Y-79463324D01*
X132754510Y-79139260D01*
X132736026Y-79076308D01*
X132669453Y-79018623D01*
X132582261Y-79006086D01*
X132502134Y-79042679D01*
X132454510Y-79116784D01*
X132454510Y-80182396D01*
X132040225Y-80182396D01*
X132040225Y-80108278D01*
X132046461Y-80083891D01*
X132040225Y-80065126D01*
X132040225Y-79234920D01*
X132041685Y-79193527D01*
X132040225Y-79191068D01*
X132040225Y-79139260D01*
X132021741Y-79076308D01*
X131955168Y-79018623D01*
X131867976Y-79006086D01*
X131818904Y-79028496D01*
X131791411Y-79010828D01*
X131760760Y-79010828D01*
X131730586Y-79005398D01*
X131717494Y-79010828D01*
X131469728Y-79010828D01*
X131433964Y-79006967D01*
X131406548Y-79020675D01*
X131377133Y-79029312D01*
X131367851Y-79040023D01*
X131268536Y-79089682D01*
X131243875Y-79095047D01*
X131214660Y-79124261D01*
X131184383Y-79152424D01*
X131183656Y-79155264D01*
X131154600Y-79184319D01*
X131132900Y-79197209D01*
X131114419Y-79234169D01*
X131094607Y-79270453D01*
X131094816Y-79273376D01*
X131045384Y-79372239D01*
X131025939Y-79402498D01*
X131025939Y-79433149D01*
X131020509Y-79463324D01*
X130754510Y-79463324D01*
X130754510Y-79454618D01*
X130758371Y-79418855D01*
X130744663Y-79391440D01*
X130736026Y-79362022D01*
X130725314Y-79352740D01*
X130675656Y-79253422D01*
X130670291Y-79228762D01*
X130641083Y-79199554D01*
X130612915Y-79169272D01*
X130610074Y-79168545D01*
X130581016Y-79139488D01*
X130568129Y-79117790D01*
X130531179Y-79099315D01*
X130494883Y-79079496D01*
X130491959Y-79079705D01*
X130393105Y-79030278D01*
X130362840Y-79010828D01*
X130332187Y-79010828D01*
X130302015Y-79005398D01*
X130288923Y-79010828D01*
X130112585Y-79010828D01*
X130076821Y-79006967D01*
X130049405Y-79020675D01*
X130019990Y-79029312D01*
X130010708Y-79040023D01*
X129911393Y-79089682D01*
X129886732Y-79095047D01*
X129857517Y-79124261D01*
X129827240Y-79152424D01*
X129826513Y-79155264D01*
X129797457Y-79184319D01*
X129775757Y-79197209D01*
X129757276Y-79234169D01*
X129737464Y-79270453D01*
X129737673Y-79273376D01*
X129688241Y-79372239D01*
X129668796Y-79402498D01*
X129668796Y-79433149D01*
X129663366Y-79463324D01*
X129254510Y-79463324D01*
X129254510Y-78721104D01*
X132377147Y-78721104D01*
X132384229Y-78753661D01*
X132386607Y-78786891D01*
X132393445Y-78796026D01*
X132395872Y-78807179D01*
X132419428Y-78830735D01*
X132439396Y-78857409D01*
X132450090Y-78861397D01*
X132471371Y-78882678D01*
X132472994Y-78888205D01*
X132494092Y-78906486D01*
X132510822Y-78928836D01*
X132526735Y-78934771D01*
X132539567Y-78945890D01*
X132556373Y-78948306D01*
X132571278Y-78956445D01*
X132582660Y-78955630D01*
X132593356Y-78959620D01*
X132609949Y-78956010D01*
X132626759Y-78958427D01*
X132642208Y-78951371D01*
X132659142Y-78950160D01*
X132668277Y-78943321D01*
X132679431Y-78940895D01*
X132691436Y-78928889D01*
X132706886Y-78921834D01*
X132716067Y-78907546D01*
X132729661Y-78897371D01*
X132733649Y-78886677D01*
X132774413Y-78845914D01*
X132801091Y-78825944D01*
X132812735Y-78794723D01*
X132828699Y-78765489D01*
X132827884Y-78754105D01*
X132831874Y-78743410D01*
X132824791Y-78710852D01*
X132822415Y-78677626D01*
X132815575Y-78668489D01*
X132813149Y-78657335D01*
X132789591Y-78633777D01*
X132769626Y-78607106D01*
X132758930Y-78603116D01*
X132737648Y-78581834D01*
X132736026Y-78576308D01*
X132714925Y-78558024D01*
X132698196Y-78535676D01*
X132682284Y-78529741D01*
X132669453Y-78518623D01*
X132652647Y-78516206D01*
X132637741Y-78508067D01*
X132626355Y-78508881D01*
X132615662Y-78504893D01*
X132599069Y-78508502D01*
X132582261Y-78506086D01*
X132566813Y-78513140D01*
X132549878Y-78514352D01*
X132540739Y-78521192D01*
X132529587Y-78523619D01*
X132517582Y-78535624D01*
X132502134Y-78542679D01*
X132492954Y-78556963D01*
X132479358Y-78567141D01*
X132475368Y-78577838D01*
X132434604Y-78618602D01*
X132407930Y-78638570D01*
X132396286Y-78669788D01*
X132380321Y-78699027D01*
X132381135Y-78710410D01*
X132377147Y-78721104D01*
X129254510Y-78721104D01*
X129254510Y-78639260D01*
X129236026Y-78576308D01*
X129169453Y-78518623D01*
X129082261Y-78506086D01*
X129002134Y-78542679D01*
X128954510Y-78616784D01*
X128954510Y-79938466D01*
X128950649Y-79974230D01*
X127885714Y-79974230D01*
X127885714Y-76855453D01*
X128951750Y-76855453D01*
X128954510Y-76894043D01*
X128954510Y-77767396D01*
X128972994Y-77830348D01*
X129039567Y-77888033D01*
X129126759Y-77900570D01*
X129206886Y-77863977D01*
X129254510Y-77789872D01*
X129254510Y-76950817D01*
X129264792Y-76940534D01*
X129354206Y-76895828D01*
X129497671Y-76895828D01*
X129564136Y-76929060D01*
X129597368Y-76995523D01*
X129597368Y-77767396D01*
X129615852Y-77830348D01*
X129682425Y-77888033D01*
X129769617Y-77900570D01*
X129849744Y-77863977D01*
X129897368Y-77789872D01*
X129897368Y-76995523D01*
X129930599Y-76929059D01*
X129997063Y-76895828D01*
X130140528Y-76895828D01*
X130206993Y-76929060D01*
X130240224Y-76995523D01*
X130240225Y-77767396D01*
X130258709Y-77830348D01*
X130325282Y-77888033D01*
X130412474Y-77900570D01*
X130492601Y-77863977D01*
X130540225Y-77789872D01*
X130540225Y-77767396D01*
X130954510Y-77767396D01*
X130972994Y-77830348D01*
X131039567Y-77888033D01*
X131126759Y-77900570D01*
X131206886Y-77863977D01*
X131254510Y-77789872D01*
X131254510Y-77048324D01*
X131591938Y-77048324D01*
X131597368Y-77061416D01*
X131597367Y-77452037D01*
X131593507Y-77487801D01*
X131607214Y-77515215D01*
X131615852Y-77544634D01*
X131626563Y-77553915D01*
X131676221Y-77653231D01*
X131681586Y-77677893D01*
X131710791Y-77707098D01*
X131738963Y-77737384D01*
X131741803Y-77738110D01*
X131770860Y-77767167D01*
X131783749Y-77788867D01*
X131820698Y-77807341D01*
X131856994Y-77827161D01*
X131859918Y-77826951D01*
X131958776Y-77876380D01*
X131989038Y-77895828D01*
X132019690Y-77895828D01*
X132049864Y-77901258D01*
X132062956Y-77895828D01*
X132310723Y-77895828D01*
X132346483Y-77899689D01*
X132373898Y-77885981D01*
X132403316Y-77877344D01*
X132412597Y-77866632D01*
X132548027Y-77798919D01*
X132596067Y-77754234D01*
X132617890Y-77668891D01*
X132590110Y-77585298D01*
X132521547Y-77529994D01*
X132433967Y-77520539D01*
X132283387Y-77595828D01*
X132068492Y-77595828D01*
X131979078Y-77551121D01*
X131942073Y-77514116D01*
X131897368Y-77424703D01*
X131897368Y-77066951D01*
X131906682Y-77048323D01*
X132949080Y-77048323D01*
X132954509Y-77061415D01*
X132954510Y-77767396D01*
X132972994Y-77830348D01*
X133039567Y-77888033D01*
X133126759Y-77900570D01*
X133206886Y-77863977D01*
X133254510Y-77789872D01*
X133254510Y-77066952D01*
X133263824Y-77048324D01*
X133806223Y-77048324D01*
X133811653Y-77061416D01*
X133811653Y-77452037D01*
X133807792Y-77487801D01*
X133821499Y-77515215D01*
X133830137Y-77544634D01*
X133840848Y-77553915D01*
X133890506Y-77653231D01*
X133895871Y-77677893D01*
X133925076Y-77707098D01*
X133953248Y-77737384D01*
X133956088Y-77738110D01*
X133985145Y-77767167D01*
X133998034Y-77788867D01*
X134034983Y-77807341D01*
X134071279Y-77827161D01*
X134074203Y-77826951D01*
X134173061Y-77876380D01*
X134203323Y-77895828D01*
X134233975Y-77895828D01*
X134264149Y-77901258D01*
X134277241Y-77895828D01*
X134453577Y-77895828D01*
X134489340Y-77899689D01*
X134516754Y-77885981D01*
X134546173Y-77877344D01*
X134555454Y-77866632D01*
X134654770Y-77816974D01*
X134679432Y-77811610D01*
X134708643Y-77782398D01*
X134738923Y-77754233D01*
X134739649Y-77751392D01*
X134768706Y-77722335D01*
X134790406Y-77709447D01*
X134808880Y-77672497D01*
X134828700Y-77636202D01*
X134828490Y-77633277D01*
X134877919Y-77534419D01*
X134897367Y-77504158D01*
X134897367Y-77473506D01*
X134902797Y-77443332D01*
X134897367Y-77430239D01*
X134897367Y-77039618D01*
X134901228Y-77003855D01*
X134887520Y-76976440D01*
X134878883Y-76947022D01*
X134868171Y-76937740D01*
X134818513Y-76838422D01*
X134813148Y-76813762D01*
X134783940Y-76784554D01*
X134755772Y-76754272D01*
X134752931Y-76753545D01*
X134723873Y-76724488D01*
X134710986Y-76702790D01*
X134674036Y-76684315D01*
X134637740Y-76664496D01*
X134634816Y-76664705D01*
X134535962Y-76615278D01*
X134505697Y-76595828D01*
X134475044Y-76595828D01*
X134444872Y-76590398D01*
X134431780Y-76595828D01*
X134255442Y-76595828D01*
X134219678Y-76591967D01*
X134192262Y-76605675D01*
X134162847Y-76614312D01*
X134153565Y-76625023D01*
X134054250Y-76674682D01*
X134029589Y-76680047D01*
X134000374Y-76709261D01*
X133970097Y-76737424D01*
X133969370Y-76740264D01*
X133940314Y-76769319D01*
X133918614Y-76782209D01*
X133900133Y-76819169D01*
X133880321Y-76855453D01*
X133880530Y-76858376D01*
X133831098Y-76957239D01*
X133811653Y-76987498D01*
X133811653Y-77018149D01*
X133806223Y-77048324D01*
X133263824Y-77048324D01*
X133299217Y-76977538D01*
X133336221Y-76940534D01*
X133425635Y-76895828D01*
X133554650Y-76895828D01*
X133617602Y-76877344D01*
X133675287Y-76810771D01*
X133687824Y-76723579D01*
X133651231Y-76643452D01*
X133577126Y-76595828D01*
X133398300Y-76595828D01*
X133362536Y-76591967D01*
X133335120Y-76605675D01*
X133305705Y-76614312D01*
X133296423Y-76625023D01*
X133231572Y-76657449D01*
X133169453Y-76603623D01*
X133082261Y-76591086D01*
X133002134Y-76627679D01*
X132954510Y-76701784D01*
X132954510Y-77018151D01*
X132949080Y-77048323D01*
X131906682Y-77048323D01*
X131942074Y-76977538D01*
X131979078Y-76940534D01*
X132068492Y-76895828D01*
X132283386Y-76895828D01*
X132413863Y-76961067D01*
X132478435Y-76972687D01*
X132559803Y-76938940D01*
X132610009Y-76866560D01*
X132613114Y-76778527D01*
X132568130Y-76702790D01*
X132393098Y-76615273D01*
X132362840Y-76595828D01*
X132332189Y-76595828D01*
X132302015Y-76590398D01*
X132288923Y-76595828D01*
X132041157Y-76595828D01*
X132005393Y-76591967D01*
X131977977Y-76605675D01*
X131948562Y-76614312D01*
X131939280Y-76625023D01*
X131839965Y-76674682D01*
X131815304Y-76680047D01*
X131786089Y-76709261D01*
X131755812Y-76737424D01*
X131755085Y-76740264D01*
X131726029Y-76769319D01*
X131704329Y-76782209D01*
X131685848Y-76819169D01*
X131666036Y-76855453D01*
X131666245Y-76858376D01*
X131616813Y-76957239D01*
X131597368Y-76987498D01*
X131597368Y-77018149D01*
X131591938Y-77048324D01*
X131254510Y-77048324D01*
X131254510Y-76724260D01*
X131236026Y-76661308D01*
X131169453Y-76603623D01*
X131082261Y-76591086D01*
X131002134Y-76627679D01*
X130954510Y-76701784D01*
X130954510Y-77767396D01*
X130540225Y-77767396D01*
X130540225Y-76968188D01*
X130544086Y-76932425D01*
X130530377Y-76905009D01*
X130521741Y-76875594D01*
X130511029Y-76866312D01*
X130470050Y-76784356D01*
X130470256Y-76778527D01*
X130450528Y-76745313D01*
X130443314Y-76730884D01*
X130439563Y-76726852D01*
X130425272Y-76702790D01*
X130410148Y-76695228D01*
X130398629Y-76682844D01*
X130371513Y-76675910D01*
X130250248Y-76615278D01*
X130219983Y-76595828D01*
X130189330Y-76595828D01*
X130159158Y-76590398D01*
X130146066Y-76595828D01*
X129969728Y-76595828D01*
X129933964Y-76591967D01*
X129906548Y-76605675D01*
X129877133Y-76614312D01*
X129867851Y-76625023D01*
X129785895Y-76666002D01*
X129780066Y-76665797D01*
X129752691Y-76682056D01*
X129728656Y-76675910D01*
X129607391Y-76615278D01*
X129577126Y-76595828D01*
X129546473Y-76595828D01*
X129516301Y-76590398D01*
X129503209Y-76595828D01*
X129326871Y-76595828D01*
X129291107Y-76591967D01*
X129263691Y-76605675D01*
X129234276Y-76614312D01*
X129224994Y-76625023D01*
X129205436Y-76634802D01*
X129169453Y-76603623D01*
X129082261Y-76591086D01*
X129002134Y-76627679D01*
X128954510Y-76701784D01*
X128954510Y-76850398D01*
X128951750Y-76855453D01*
X127885714Y-76855453D01*
X127885714Y-76306104D01*
X130877147Y-76306104D01*
X130884229Y-76338661D01*
X130886607Y-76371891D01*
X130893445Y-76381026D01*
X130895872Y-76392179D01*
X130919428Y-76415735D01*
X130939396Y-76442409D01*
X130950090Y-76446397D01*
X130971371Y-76467678D01*
X130972994Y-76473205D01*
X130994092Y-76491486D01*
X131010822Y-76513836D01*
X131026735Y-76519771D01*
X131039567Y-76530890D01*
X131056373Y-76533306D01*
X131071278Y-76541445D01*
X131082660Y-76540630D01*
X131093356Y-76544620D01*
X131109949Y-76541010D01*
X131126759Y-76543427D01*
X131142208Y-76536371D01*
X131159142Y-76535160D01*
X131168277Y-76528321D01*
X131179431Y-76525895D01*
X131191436Y-76513889D01*
X131206886Y-76506834D01*
X131216067Y-76492546D01*
X131229661Y-76482371D01*
X131233649Y-76471677D01*
X131274413Y-76430914D01*
X131301091Y-76410944D01*
X131312735Y-76379723D01*
X131328699Y-76350489D01*
X131327884Y-76339105D01*
X131331874Y-76328410D01*
X131324791Y-76295852D01*
X131322415Y-76262626D01*
X131315575Y-76253489D01*
X131313149Y-76242335D01*
X131289591Y-76218777D01*
X131269626Y-76192106D01*
X131258930Y-76188116D01*
X131237648Y-76166834D01*
X131236026Y-76161308D01*
X131214925Y-76143024D01*
X131198196Y-76120676D01*
X131182284Y-76114741D01*
X131169453Y-76103623D01*
X131152647Y-76101206D01*
X131137741Y-76093067D01*
X131126355Y-76093881D01*
X131115662Y-76089893D01*
X131099069Y-76093502D01*
X131082261Y-76091086D01*
X131066813Y-76098140D01*
X131049878Y-76099352D01*
X131040739Y-76106192D01*
X131029587Y-76108619D01*
X131017582Y-76120624D01*
X131002134Y-76127679D01*
X130992954Y-76141963D01*
X130979358Y-76152141D01*
X130975368Y-76162838D01*
X130934604Y-76203602D01*
X130907930Y-76223570D01*
X130896286Y-76254788D01*
X130880321Y-76284027D01*
X130881135Y-76295410D01*
X130877147Y-76306104D01*
X127885714Y-76306104D01*
X127885714Y-74440453D01*
X128951750Y-74440453D01*
X128954510Y-74479043D01*
X128954510Y-75352396D01*
X128972994Y-75415348D01*
X129039567Y-75473033D01*
X129126759Y-75485570D01*
X129206886Y-75448977D01*
X129254510Y-75374872D01*
X129254510Y-74535817D01*
X129264792Y-74525534D01*
X129354206Y-74480828D01*
X129497671Y-74480828D01*
X129564136Y-74514060D01*
X129597368Y-74580523D01*
X129597368Y-75352396D01*
X129615852Y-75415348D01*
X129682425Y-75473033D01*
X129769617Y-75485570D01*
X129849744Y-75448977D01*
X129897368Y-75374872D01*
X129897368Y-74580523D01*
X129930599Y-74514059D01*
X129997063Y-74480828D01*
X130140528Y-74480828D01*
X130206993Y-74514060D01*
X130240224Y-74580523D01*
X130240225Y-75352396D01*
X130258709Y-75415348D01*
X130325282Y-75473033D01*
X130412474Y-75485570D01*
X130492601Y-75448977D01*
X130540225Y-75374872D01*
X130540225Y-75144230D01*
X130950649Y-75144230D01*
X130964356Y-75171645D01*
X130972994Y-75201062D01*
X130983705Y-75210343D01*
X131024684Y-75292301D01*
X131024479Y-75298130D01*
X131044200Y-75331334D01*
X131051420Y-75345773D01*
X131055172Y-75349807D01*
X131069463Y-75373867D01*
X131084586Y-75381428D01*
X131096106Y-75393813D01*
X131123222Y-75400746D01*
X131244490Y-75461380D01*
X131274752Y-75480828D01*
X131305404Y-75480828D01*
X131335578Y-75486258D01*
X131348670Y-75480828D01*
X131525006Y-75480828D01*
X131560769Y-75484689D01*
X131588183Y-75470981D01*
X131617602Y-75462344D01*
X131626883Y-75451632D01*
X131646441Y-75441853D01*
X131682425Y-75473033D01*
X131769617Y-75485570D01*
X131849744Y-75448977D01*
X131897368Y-75374872D01*
X131897368Y-75226258D01*
X131900129Y-75221202D01*
X131897368Y-75182603D01*
X131897368Y-75144230D01*
X132307792Y-75144230D01*
X132321499Y-75171645D01*
X132330137Y-75201062D01*
X132340848Y-75210343D01*
X132381827Y-75292301D01*
X132381622Y-75298130D01*
X132401343Y-75331334D01*
X132408563Y-75345773D01*
X132412315Y-75349807D01*
X132426606Y-75373867D01*
X132441729Y-75381428D01*
X132453249Y-75393813D01*
X132480365Y-75400746D01*
X132628149Y-75474638D01*
X132692721Y-75486258D01*
X132774088Y-75452511D01*
X132824295Y-75380130D01*
X132827399Y-75292098D01*
X132782415Y-75216361D01*
X132644885Y-75147596D01*
X132611653Y-75081131D01*
X132611653Y-74990467D01*
X133020509Y-74990467D01*
X133025939Y-75003559D01*
X133025938Y-75108469D01*
X133022078Y-75144229D01*
X133035785Y-75171644D01*
X133044423Y-75201062D01*
X133055134Y-75210343D01*
X133096113Y-75292302D01*
X133095908Y-75298131D01*
X133115629Y-75331335D01*
X133122848Y-75345773D01*
X133126600Y-75349807D01*
X133140891Y-75373868D01*
X133156014Y-75381429D01*
X133167533Y-75393813D01*
X133194650Y-75400747D01*
X133315921Y-75461381D01*
X133346181Y-75480828D01*
X133376833Y-75480828D01*
X133407007Y-75486258D01*
X133420099Y-75480828D01*
X133739294Y-75480828D01*
X133775054Y-75484689D01*
X133802469Y-75470981D01*
X133817739Y-75466497D01*
X133825282Y-75473033D01*
X133912474Y-75485570D01*
X133992601Y-75448977D01*
X134040225Y-75374872D01*
X134040225Y-75278278D01*
X134046461Y-75253891D01*
X134040225Y-75235126D01*
X134040225Y-74706845D01*
X134046460Y-74682462D01*
X134040225Y-74663699D01*
X134040225Y-74553188D01*
X134044086Y-74517425D01*
X134030377Y-74490009D01*
X134021741Y-74460594D01*
X134011029Y-74451312D01*
X133970050Y-74369356D01*
X133970256Y-74363527D01*
X133950528Y-74330313D01*
X133943314Y-74315884D01*
X133939563Y-74311852D01*
X133925272Y-74287790D01*
X133910148Y-74280228D01*
X133898629Y-74267844D01*
X133871513Y-74260910D01*
X133750248Y-74200278D01*
X133719983Y-74180828D01*
X133689330Y-74180828D01*
X133659158Y-74175398D01*
X133646066Y-74180828D01*
X133398301Y-74180828D01*
X133362537Y-74176967D01*
X133335121Y-74190674D01*
X133305705Y-74199312D01*
X133296423Y-74210023D01*
X133160994Y-74277738D01*
X133112954Y-74322424D01*
X133091132Y-74407766D01*
X133118912Y-74491360D01*
X133187475Y-74546663D01*
X133275055Y-74556118D01*
X133425636Y-74480828D01*
X133640528Y-74480828D01*
X133706993Y-74514060D01*
X133740225Y-74580523D01*
X133740225Y-74595265D01*
X133711956Y-74609400D01*
X133398302Y-74609400D01*
X133362538Y-74605539D01*
X133335123Y-74619246D01*
X133305705Y-74627884D01*
X133296423Y-74638595D01*
X133214466Y-74679573D01*
X133208637Y-74679368D01*
X133175426Y-74699093D01*
X133160995Y-74706309D01*
X133156961Y-74710060D01*
X133132900Y-74724352D01*
X133125338Y-74739475D01*
X133112955Y-74750994D01*
X133106021Y-74778109D01*
X133045384Y-74899382D01*
X133025939Y-74929641D01*
X133025938Y-74960292D01*
X133020509Y-74990467D01*
X132611653Y-74990467D01*
X132611653Y-73809260D01*
X132593169Y-73746308D01*
X132526596Y-73688623D01*
X132439404Y-73676086D01*
X132359277Y-73712679D01*
X132311653Y-73786784D01*
X132311653Y-75108466D01*
X132307792Y-75144230D01*
X131897368Y-75144230D01*
X131897368Y-74309260D01*
X131878884Y-74246308D01*
X131812311Y-74188623D01*
X131725119Y-74176086D01*
X131644992Y-74212679D01*
X131597368Y-74286784D01*
X131597368Y-75125838D01*
X131587084Y-75136122D01*
X131497672Y-75180828D01*
X131354206Y-75180828D01*
X131287742Y-75147596D01*
X131254509Y-75081131D01*
X131254510Y-74309260D01*
X131236026Y-74246308D01*
X131169453Y-74188623D01*
X131082261Y-74176086D01*
X131002134Y-74212679D01*
X130954510Y-74286784D01*
X130954510Y-75108466D01*
X130950649Y-75144230D01*
X130540225Y-75144230D01*
X130540225Y-74553188D01*
X130544086Y-74517425D01*
X130530377Y-74490009D01*
X130521741Y-74460594D01*
X130511029Y-74451312D01*
X130470050Y-74369356D01*
X130470256Y-74363527D01*
X130450528Y-74330313D01*
X130443314Y-74315884D01*
X130439563Y-74311852D01*
X130425272Y-74287790D01*
X130410148Y-74280228D01*
X130398629Y-74267844D01*
X130371513Y-74260910D01*
X130250248Y-74200278D01*
X130219983Y-74180828D01*
X130189330Y-74180828D01*
X130159158Y-74175398D01*
X130146066Y-74180828D01*
X129969728Y-74180828D01*
X129933964Y-74176967D01*
X129906548Y-74190675D01*
X129877133Y-74199312D01*
X129867851Y-74210023D01*
X129785895Y-74251002D01*
X129780066Y-74250797D01*
X129752691Y-74267056D01*
X129728656Y-74260910D01*
X129607391Y-74200278D01*
X129577126Y-74180828D01*
X129546473Y-74180828D01*
X129516301Y-74175398D01*
X129503209Y-74180828D01*
X129326871Y-74180828D01*
X129291107Y-74176967D01*
X129263691Y-74190675D01*
X129234276Y-74199312D01*
X129224994Y-74210023D01*
X129205436Y-74219802D01*
X129169453Y-74188623D01*
X129082261Y-74176086D01*
X129002134Y-74212679D01*
X128954510Y-74286784D01*
X128954510Y-74435398D01*
X128951750Y-74440453D01*
X127885714Y-74440453D01*
X127885714Y-72615714D01*
X139092857Y-72615714D01*
X139092857Y-83439286D01*
G37*
D11*
%TO.C,CN101*%
X145425000Y-94620000D02*
X145425000Y-99260000D01*
X145425000Y-94620000D02*
X143825000Y-94620000D01*
X141025000Y-94620000D02*
X139325000Y-94620000D01*
X125025000Y-94620000D02*
X123425000Y-94620000D01*
X123425000Y-97060000D02*
X123425000Y-99440000D01*
X123425000Y-95710000D02*
X123425000Y-96180000D01*
X123425000Y-94620000D02*
X123425000Y-95710000D01*
D12*
%TO.C,J101*%
X149600000Y-51550000D02*
X149600000Y-52550000D01*
X149600000Y-52550000D02*
X150600000Y-52050000D01*
X150600000Y-52050000D02*
X149600000Y-51550000D01*
X156220000Y-46840000D02*
X165340000Y-46840000D01*
X156220000Y-74130000D02*
X165340000Y-74130000D01*
X156220000Y-78230000D02*
X165340000Y-78230000D01*
X156220000Y-105520000D02*
X156220000Y-46840000D01*
X165340000Y-46840000D02*
X165340000Y-105520000D01*
X165340000Y-105520000D02*
X156220000Y-105520000D01*
%TD*%
M02*
