%TF.GenerationSoftware,KiCad,Pcbnew,7.0.5-0*%
%TF.CreationDate,2023-07-31T21:54:07-04:00*%
%TF.ProjectId,carrier-hp,63617272-6965-4722-9d68-702e6b696361,rev?*%
%TF.SameCoordinates,Original*%
%TF.FileFunction,Copper,L3,Inr*%
%TF.FilePolarity,Positive*%
%FSLAX46Y46*%
G04 Gerber Fmt 4.6, Leading zero omitted, Abs format (unit mm)*
G04 Created by KiCad (PCBNEW 7.0.5-0) date 2023-07-31 21:54:07*
%MOMM*%
%LPD*%
G01*
G04 APERTURE LIST*
G04 Aperture macros list*
%AMRoundRect*
0 Rectangle with rounded corners*
0 $1 Rounding radius*
0 $2 $3 $4 $5 $6 $7 $8 $9 X,Y pos of 4 corners*
0 Add a 4 corners polygon primitive as box body*
4,1,4,$2,$3,$4,$5,$6,$7,$8,$9,$2,$3,0*
0 Add four circle primitives for the rounded corners*
1,1,$1+$1,$2,$3*
1,1,$1+$1,$4,$5*
1,1,$1+$1,$6,$7*
1,1,$1+$1,$8,$9*
0 Add four rect primitives between the rounded corners*
20,1,$1+$1,$2,$3,$4,$5,0*
20,1,$1+$1,$4,$5,$6,$7,0*
20,1,$1+$1,$6,$7,$8,$9,0*
20,1,$1+$1,$8,$9,$2,$3,0*%
G04 Aperture macros list end*
%TA.AperFunction,ComponentPad*%
%ADD10C,6.000000*%
%TD*%
%TA.AperFunction,ComponentPad*%
%ADD11C,1.100000*%
%TD*%
%TA.AperFunction,ComponentPad*%
%ADD12C,1.600000*%
%TD*%
%TA.AperFunction,ComponentPad*%
%ADD13RoundRect,0.250000X-0.600000X-0.600000X0.600000X-0.600000X0.600000X0.600000X-0.600000X0.600000X0*%
%TD*%
%TA.AperFunction,ComponentPad*%
%ADD14C,1.700000*%
%TD*%
%TA.AperFunction,ComponentPad*%
%ADD15C,3.800000*%
%TD*%
G04 APERTURE END LIST*
D10*
%TO.N,GND*%
%TO.C,H104*%
X127450000Y-107750000D03*
%TD*%
%TO.N,GND*%
%TO.C,H102*%
X151450000Y-44750000D03*
%TD*%
D11*
%TO.N,*%
%TO.C,CN101*%
X144425000Y-96650000D03*
D12*
X124425000Y-96650000D03*
%TD*%
D13*
%TO.N,unconnected-(J101-Pin_1-Pad1)*%
%TO.C,J101*%
X151950000Y-52050000D03*
D14*
%TO.N,GND*%
X154490000Y-52050000D03*
%TO.N,unconnected-(J101-Pin_3-Pad3)*%
X151950000Y-54590000D03*
%TO.N,GND*%
X154490000Y-54590000D03*
%TO.N,unconnected-(J101-Pin_5-Pad5)*%
X151950000Y-57130000D03*
%TO.N,GND*%
X154490000Y-57130000D03*
%TO.N,/IO0*%
X151950000Y-59670000D03*
%TO.N,GND*%
X154490000Y-59670000D03*
%TO.N,/IO1*%
X151950000Y-62210000D03*
%TO.N,GND*%
X154490000Y-62210000D03*
%TO.N,/IO2*%
X151950000Y-64750000D03*
%TO.N,GND*%
X154490000Y-64750000D03*
%TO.N,/IO3*%
X151950000Y-67290000D03*
%TO.N,GND*%
X154490000Y-67290000D03*
%TO.N,/IO4*%
X151950000Y-69830000D03*
%TO.N,GND*%
X154490000Y-69830000D03*
%TO.N,/IO5*%
X151950000Y-72370000D03*
%TO.N,GND*%
X154490000Y-72370000D03*
%TO.N,/IO6*%
X151950000Y-74910000D03*
%TO.N,GND*%
X154490000Y-74910000D03*
%TO.N,/IO7*%
X151950000Y-77450000D03*
%TO.N,GND*%
X154490000Y-77450000D03*
%TO.N,/IO8*%
X151950000Y-79990000D03*
%TO.N,GND*%
X154490000Y-79990000D03*
%TO.N,/IO9*%
X151950000Y-82530000D03*
%TO.N,GND*%
X154490000Y-82530000D03*
%TO.N,/IO10*%
X151950000Y-85070000D03*
%TO.N,GND*%
X154490000Y-85070000D03*
%TO.N,/IO11*%
X151950000Y-87610000D03*
%TO.N,GND*%
X154490000Y-87610000D03*
%TO.N,/IO12*%
X151950000Y-90150000D03*
%TO.N,GND*%
X154490000Y-90150000D03*
%TO.N,/IO13*%
X151950000Y-92690000D03*
%TO.N,GND*%
X154490000Y-92690000D03*
%TO.N,/IO14*%
X151950000Y-95230000D03*
%TO.N,GND*%
X154490000Y-95230000D03*
%TO.N,/IO15*%
X151950000Y-97770000D03*
%TO.N,GND*%
X154490000Y-97770000D03*
%TO.N,unconnected-(J101-Pin_39-Pad39)*%
X151950000Y-100310000D03*
%TO.N,GND*%
X154490000Y-100310000D03*
%TD*%
D10*
%TO.N,GND*%
%TO.C,H103*%
X151450000Y-107750000D03*
%TD*%
D15*
%TO.N,GND*%
%TO.C,H105*%
X134450000Y-57075000D03*
%TD*%
D10*
%TO.N,GND*%
%TO.C,H101*%
X127450000Y-44750000D03*
%TD*%
%TA.AperFunction,Conductor*%
%TO.N,GND*%
G36*
X154030507Y-97979844D02*
G01*
X154108239Y-98100798D01*
X154216900Y-98194952D01*
X154347685Y-98254680D01*
X154357466Y-98256086D01*
X153728625Y-98884925D01*
X153805031Y-98938425D01*
X153848655Y-98993002D01*
X153855848Y-99062501D01*
X153824326Y-99124855D01*
X153805029Y-99141576D01*
X153728626Y-99195072D01*
X153728625Y-99195073D01*
X154357466Y-99823913D01*
X154347685Y-99825320D01*
X154216900Y-99885048D01*
X154108239Y-99979202D01*
X154030507Y-100100156D01*
X154006923Y-100180475D01*
X153375073Y-99548626D01*
X153321881Y-99624594D01*
X153267304Y-99668219D01*
X153197806Y-99675413D01*
X153135451Y-99643891D01*
X153118730Y-99624594D01*
X152988494Y-99438597D01*
X152821402Y-99271506D01*
X152821396Y-99271501D01*
X152635842Y-99141575D01*
X152592217Y-99086998D01*
X152585023Y-99017500D01*
X152616546Y-98955145D01*
X152635842Y-98938425D01*
X152712248Y-98884925D01*
X152821401Y-98808495D01*
X152988495Y-98641401D01*
X153118732Y-98455403D01*
X153173307Y-98411780D01*
X153242805Y-98404586D01*
X153305160Y-98436109D01*
X153321880Y-98455405D01*
X153375073Y-98531373D01*
X154006923Y-97899523D01*
X154030507Y-97979844D01*
G37*
%TD.AperFunction*%
%TA.AperFunction,Conductor*%
G36*
X154030507Y-95439844D02*
G01*
X154108239Y-95560798D01*
X154216900Y-95654952D01*
X154347685Y-95714680D01*
X154357466Y-95716086D01*
X153728625Y-96344925D01*
X153805031Y-96398425D01*
X153848655Y-96453002D01*
X153855848Y-96522501D01*
X153824326Y-96584855D01*
X153805029Y-96601576D01*
X153728625Y-96655072D01*
X154357466Y-97283913D01*
X154347685Y-97285320D01*
X154216900Y-97345048D01*
X154108239Y-97439202D01*
X154030507Y-97560156D01*
X154006923Y-97640475D01*
X153375073Y-97008626D01*
X153321881Y-97084594D01*
X153267304Y-97128219D01*
X153197806Y-97135413D01*
X153135451Y-97103891D01*
X153118730Y-97084594D01*
X152988494Y-96898597D01*
X152821402Y-96731506D01*
X152821396Y-96731501D01*
X152635842Y-96601575D01*
X152592217Y-96546998D01*
X152585023Y-96477500D01*
X152616546Y-96415145D01*
X152635842Y-96398425D01*
X152712248Y-96344925D01*
X152821401Y-96268495D01*
X152988495Y-96101401D01*
X153118732Y-95915403D01*
X153173307Y-95871780D01*
X153242805Y-95864586D01*
X153305160Y-95896109D01*
X153321880Y-95915405D01*
X153375073Y-95991373D01*
X154006923Y-95359523D01*
X154030507Y-95439844D01*
G37*
%TD.AperFunction*%
%TA.AperFunction,Conductor*%
G36*
X154030507Y-92899844D02*
G01*
X154108239Y-93020798D01*
X154216900Y-93114952D01*
X154347685Y-93174680D01*
X154357466Y-93176086D01*
X153728625Y-93804925D01*
X153805031Y-93858425D01*
X153848655Y-93913002D01*
X153855848Y-93982501D01*
X153824326Y-94044855D01*
X153805029Y-94061576D01*
X153728625Y-94115072D01*
X154357466Y-94743913D01*
X154347685Y-94745320D01*
X154216900Y-94805048D01*
X154108239Y-94899202D01*
X154030507Y-95020156D01*
X154006923Y-95100475D01*
X153375073Y-94468626D01*
X153321881Y-94544594D01*
X153267304Y-94588219D01*
X153197806Y-94595413D01*
X153135451Y-94563891D01*
X153118730Y-94544594D01*
X152988494Y-94358597D01*
X152821402Y-94191506D01*
X152821396Y-94191501D01*
X152635842Y-94061575D01*
X152592217Y-94006998D01*
X152585023Y-93937500D01*
X152616546Y-93875145D01*
X152635842Y-93858425D01*
X152712248Y-93804925D01*
X152821401Y-93728495D01*
X152988495Y-93561401D01*
X153118732Y-93375403D01*
X153173307Y-93331780D01*
X153242805Y-93324586D01*
X153305160Y-93356109D01*
X153321880Y-93375405D01*
X153375073Y-93451373D01*
X154006923Y-92819523D01*
X154030507Y-92899844D01*
G37*
%TD.AperFunction*%
%TA.AperFunction,Conductor*%
G36*
X154030507Y-90359844D02*
G01*
X154108239Y-90480798D01*
X154216900Y-90574952D01*
X154347685Y-90634680D01*
X154357466Y-90636086D01*
X153728625Y-91264925D01*
X153805031Y-91318425D01*
X153848655Y-91373002D01*
X153855848Y-91442501D01*
X153824326Y-91504855D01*
X153805029Y-91521576D01*
X153728625Y-91575072D01*
X154357466Y-92203913D01*
X154347685Y-92205320D01*
X154216900Y-92265048D01*
X154108239Y-92359202D01*
X154030507Y-92480156D01*
X154006923Y-92560475D01*
X153375073Y-91928626D01*
X153321881Y-92004594D01*
X153267304Y-92048219D01*
X153197806Y-92055413D01*
X153135451Y-92023891D01*
X153118730Y-92004594D01*
X152988494Y-91818597D01*
X152821402Y-91651506D01*
X152821396Y-91651501D01*
X152635842Y-91521575D01*
X152592217Y-91466998D01*
X152585023Y-91397500D01*
X152616546Y-91335145D01*
X152635842Y-91318425D01*
X152712248Y-91264925D01*
X152821401Y-91188495D01*
X152988495Y-91021401D01*
X153118732Y-90835403D01*
X153173307Y-90791780D01*
X153242805Y-90784586D01*
X153305160Y-90816109D01*
X153321880Y-90835405D01*
X153375073Y-90911373D01*
X154006923Y-90279523D01*
X154030507Y-90359844D01*
G37*
%TD.AperFunction*%
%TA.AperFunction,Conductor*%
G36*
X154030507Y-87819844D02*
G01*
X154108239Y-87940798D01*
X154216900Y-88034952D01*
X154347685Y-88094680D01*
X154357466Y-88096086D01*
X153728625Y-88724925D01*
X153805031Y-88778425D01*
X153848655Y-88833002D01*
X153855848Y-88902501D01*
X153824326Y-88964855D01*
X153805029Y-88981576D01*
X153728625Y-89035072D01*
X154357466Y-89663913D01*
X154347685Y-89665320D01*
X154216900Y-89725048D01*
X154108239Y-89819202D01*
X154030507Y-89940156D01*
X154006923Y-90020475D01*
X153375073Y-89388626D01*
X153321881Y-89464594D01*
X153267304Y-89508219D01*
X153197806Y-89515413D01*
X153135451Y-89483891D01*
X153118730Y-89464594D01*
X152988494Y-89278597D01*
X152821402Y-89111506D01*
X152821396Y-89111501D01*
X152635842Y-88981575D01*
X152592217Y-88926998D01*
X152585023Y-88857500D01*
X152616546Y-88795145D01*
X152635842Y-88778425D01*
X152712248Y-88724925D01*
X152821401Y-88648495D01*
X152988495Y-88481401D01*
X153118732Y-88295403D01*
X153173307Y-88251780D01*
X153242805Y-88244586D01*
X153305160Y-88276109D01*
X153321880Y-88295405D01*
X153375073Y-88371373D01*
X154006923Y-87739523D01*
X154030507Y-87819844D01*
G37*
%TD.AperFunction*%
%TA.AperFunction,Conductor*%
G36*
X154030507Y-85279844D02*
G01*
X154108239Y-85400798D01*
X154216900Y-85494952D01*
X154347685Y-85554680D01*
X154357466Y-85556086D01*
X153728625Y-86184925D01*
X153805031Y-86238425D01*
X153848655Y-86293002D01*
X153855848Y-86362501D01*
X153824326Y-86424855D01*
X153805029Y-86441576D01*
X153728625Y-86495072D01*
X154357466Y-87123913D01*
X154347685Y-87125320D01*
X154216900Y-87185048D01*
X154108239Y-87279202D01*
X154030507Y-87400156D01*
X154006923Y-87480474D01*
X153375073Y-86848626D01*
X153321881Y-86924594D01*
X153267304Y-86968219D01*
X153197806Y-86975413D01*
X153135451Y-86943891D01*
X153118730Y-86924594D01*
X152988494Y-86738597D01*
X152821402Y-86571506D01*
X152821396Y-86571501D01*
X152635842Y-86441575D01*
X152592217Y-86386998D01*
X152585023Y-86317500D01*
X152616546Y-86255145D01*
X152635842Y-86238425D01*
X152712248Y-86184925D01*
X152821401Y-86108495D01*
X152988495Y-85941401D01*
X153118732Y-85755403D01*
X153173307Y-85711780D01*
X153242805Y-85704586D01*
X153305160Y-85736109D01*
X153321880Y-85755405D01*
X153375073Y-85831373D01*
X154006922Y-85199522D01*
X154030507Y-85279844D01*
G37*
%TD.AperFunction*%
%TA.AperFunction,Conductor*%
G36*
X154030507Y-82739844D02*
G01*
X154108239Y-82860798D01*
X154216900Y-82954952D01*
X154347685Y-83014680D01*
X154357466Y-83016086D01*
X153728625Y-83644925D01*
X153805031Y-83698425D01*
X153848655Y-83753002D01*
X153855848Y-83822501D01*
X153824326Y-83884855D01*
X153805029Y-83901576D01*
X153728626Y-83955072D01*
X153728625Y-83955073D01*
X154357466Y-84583913D01*
X154347685Y-84585320D01*
X154216900Y-84645048D01*
X154108239Y-84739202D01*
X154030507Y-84860156D01*
X154006923Y-84940475D01*
X153375073Y-84308626D01*
X153321881Y-84384594D01*
X153267304Y-84428219D01*
X153197806Y-84435413D01*
X153135451Y-84403891D01*
X153118730Y-84384594D01*
X152988494Y-84198597D01*
X152821402Y-84031506D01*
X152821396Y-84031501D01*
X152635842Y-83901575D01*
X152592217Y-83846998D01*
X152585023Y-83777500D01*
X152616546Y-83715145D01*
X152635842Y-83698425D01*
X152712248Y-83644925D01*
X152821401Y-83568495D01*
X152988495Y-83401401D01*
X153118732Y-83215403D01*
X153173307Y-83171780D01*
X153242805Y-83164586D01*
X153305160Y-83196109D01*
X153321880Y-83215405D01*
X153375073Y-83291373D01*
X154006923Y-82659523D01*
X154030507Y-82739844D01*
G37*
%TD.AperFunction*%
%TA.AperFunction,Conductor*%
G36*
X154030507Y-80199844D02*
G01*
X154108239Y-80320798D01*
X154216900Y-80414952D01*
X154347685Y-80474680D01*
X154357466Y-80476086D01*
X153728625Y-81104925D01*
X153805031Y-81158425D01*
X153848655Y-81213002D01*
X153855848Y-81282501D01*
X153824326Y-81344855D01*
X153805029Y-81361576D01*
X153728625Y-81415072D01*
X154357466Y-82043913D01*
X154347685Y-82045320D01*
X154216900Y-82105048D01*
X154108239Y-82199202D01*
X154030507Y-82320156D01*
X154006923Y-82400475D01*
X153375073Y-81768626D01*
X153321881Y-81844594D01*
X153267304Y-81888219D01*
X153197806Y-81895413D01*
X153135451Y-81863891D01*
X153118730Y-81844594D01*
X152988494Y-81658597D01*
X152821402Y-81491506D01*
X152821396Y-81491501D01*
X152635842Y-81361575D01*
X152592217Y-81306998D01*
X152585023Y-81237500D01*
X152616546Y-81175145D01*
X152635842Y-81158425D01*
X152712248Y-81104925D01*
X152821401Y-81028495D01*
X152988495Y-80861401D01*
X153118732Y-80675403D01*
X153173307Y-80631780D01*
X153242805Y-80624586D01*
X153305160Y-80656109D01*
X153321880Y-80675405D01*
X153375073Y-80751373D01*
X154006923Y-80119523D01*
X154030507Y-80199844D01*
G37*
%TD.AperFunction*%
%TA.AperFunction,Conductor*%
G36*
X154030507Y-77659844D02*
G01*
X154108239Y-77780798D01*
X154216900Y-77874952D01*
X154347685Y-77934680D01*
X154357466Y-77936086D01*
X153728625Y-78564925D01*
X153805031Y-78618425D01*
X153848655Y-78673002D01*
X153855848Y-78742501D01*
X153824326Y-78804855D01*
X153805029Y-78821576D01*
X153728625Y-78875072D01*
X154357466Y-79503913D01*
X154347685Y-79505320D01*
X154216900Y-79565048D01*
X154108239Y-79659202D01*
X154030507Y-79780156D01*
X154006923Y-79860475D01*
X153375073Y-79228626D01*
X153321881Y-79304594D01*
X153267304Y-79348219D01*
X153197806Y-79355413D01*
X153135451Y-79323891D01*
X153118730Y-79304594D01*
X152988494Y-79118597D01*
X152821402Y-78951506D01*
X152821396Y-78951501D01*
X152635842Y-78821575D01*
X152592217Y-78766998D01*
X152585023Y-78697500D01*
X152616546Y-78635145D01*
X152635842Y-78618425D01*
X152712248Y-78564925D01*
X152821401Y-78488495D01*
X152988495Y-78321401D01*
X153118732Y-78135403D01*
X153173307Y-78091780D01*
X153242805Y-78084586D01*
X153305160Y-78116109D01*
X153321880Y-78135405D01*
X153375073Y-78211373D01*
X154006923Y-77579523D01*
X154030507Y-77659844D01*
G37*
%TD.AperFunction*%
%TA.AperFunction,Conductor*%
G36*
X154030507Y-75119844D02*
G01*
X154108239Y-75240798D01*
X154216900Y-75334952D01*
X154347685Y-75394680D01*
X154357466Y-75396086D01*
X153728625Y-76024925D01*
X153805031Y-76078425D01*
X153848655Y-76133002D01*
X153855848Y-76202501D01*
X153824326Y-76264855D01*
X153805029Y-76281576D01*
X153728625Y-76335072D01*
X154357466Y-76963913D01*
X154347685Y-76965320D01*
X154216900Y-77025048D01*
X154108239Y-77119202D01*
X154030507Y-77240156D01*
X154006923Y-77320475D01*
X153375073Y-76688626D01*
X153321881Y-76764594D01*
X153267304Y-76808219D01*
X153197806Y-76815413D01*
X153135451Y-76783891D01*
X153118730Y-76764594D01*
X152988494Y-76578597D01*
X152821402Y-76411506D01*
X152821401Y-76411505D01*
X152699746Y-76326321D01*
X152635841Y-76281574D01*
X152592216Y-76226997D01*
X152585024Y-76157498D01*
X152616546Y-76095144D01*
X152635836Y-76078428D01*
X152821401Y-75948495D01*
X152988495Y-75781401D01*
X153118732Y-75595403D01*
X153173307Y-75551780D01*
X153242805Y-75544586D01*
X153305160Y-75576109D01*
X153321880Y-75595405D01*
X153375073Y-75671373D01*
X154006923Y-75039523D01*
X154030507Y-75119844D01*
G37*
%TD.AperFunction*%
%TA.AperFunction,Conductor*%
G36*
X154030507Y-72579844D02*
G01*
X154108239Y-72700798D01*
X154216900Y-72794952D01*
X154347685Y-72854680D01*
X154357466Y-72856086D01*
X153728625Y-73484925D01*
X153805031Y-73538425D01*
X153848655Y-73593002D01*
X153855848Y-73662501D01*
X153824326Y-73724855D01*
X153805029Y-73741576D01*
X153728625Y-73795072D01*
X154357466Y-74423913D01*
X154347685Y-74425320D01*
X154216900Y-74485048D01*
X154108239Y-74579202D01*
X154030507Y-74700156D01*
X154006923Y-74780474D01*
X153375073Y-74148626D01*
X153321881Y-74224594D01*
X153267304Y-74268219D01*
X153197806Y-74275413D01*
X153135451Y-74243891D01*
X153118730Y-74224594D01*
X152988494Y-74038597D01*
X152821402Y-73871506D01*
X152821396Y-73871501D01*
X152635842Y-73741575D01*
X152592217Y-73686998D01*
X152585023Y-73617500D01*
X152616546Y-73555145D01*
X152635842Y-73538425D01*
X152712248Y-73484925D01*
X152821401Y-73408495D01*
X152988495Y-73241401D01*
X153118732Y-73055403D01*
X153173307Y-73011780D01*
X153242805Y-73004586D01*
X153305160Y-73036109D01*
X153321880Y-73055405D01*
X153375073Y-73131373D01*
X154006923Y-72499523D01*
X154030507Y-72579844D01*
G37*
%TD.AperFunction*%
%TA.AperFunction,Conductor*%
G36*
X154030507Y-70039844D02*
G01*
X154108239Y-70160798D01*
X154216900Y-70254952D01*
X154347685Y-70314680D01*
X154357466Y-70316086D01*
X153728625Y-70944925D01*
X153805031Y-70998425D01*
X153848655Y-71053002D01*
X153855848Y-71122501D01*
X153824326Y-71184855D01*
X153805029Y-71201576D01*
X153728625Y-71255072D01*
X154357466Y-71883913D01*
X154347685Y-71885320D01*
X154216900Y-71945048D01*
X154108239Y-72039202D01*
X154030507Y-72160156D01*
X154006923Y-72240475D01*
X153375073Y-71608625D01*
X153321881Y-71684594D01*
X153267304Y-71728219D01*
X153197806Y-71735413D01*
X153135451Y-71703891D01*
X153118730Y-71684594D01*
X152988494Y-71498597D01*
X152821402Y-71331506D01*
X152821401Y-71331505D01*
X152699746Y-71246321D01*
X152635841Y-71201574D01*
X152592216Y-71146997D01*
X152585024Y-71077498D01*
X152616546Y-71015144D01*
X152635836Y-70998428D01*
X152821401Y-70868495D01*
X152988495Y-70701401D01*
X153118732Y-70515403D01*
X153173307Y-70471780D01*
X153242805Y-70464586D01*
X153305160Y-70496109D01*
X153321880Y-70515405D01*
X153375073Y-70591373D01*
X154006922Y-69959522D01*
X154030507Y-70039844D01*
G37*
%TD.AperFunction*%
%TA.AperFunction,Conductor*%
G36*
X154030507Y-67499844D02*
G01*
X154108239Y-67620798D01*
X154216900Y-67714952D01*
X154347685Y-67774680D01*
X154357466Y-67776086D01*
X153728625Y-68404925D01*
X153805031Y-68458425D01*
X153848655Y-68513002D01*
X153855848Y-68582501D01*
X153824326Y-68644855D01*
X153805029Y-68661576D01*
X153728626Y-68715072D01*
X153728625Y-68715073D01*
X154357466Y-69343913D01*
X154347685Y-69345320D01*
X154216900Y-69405048D01*
X154108239Y-69499202D01*
X154030507Y-69620156D01*
X154006923Y-69700475D01*
X153375073Y-69068626D01*
X153321881Y-69144594D01*
X153267304Y-69188219D01*
X153197806Y-69195413D01*
X153135451Y-69163891D01*
X153118730Y-69144594D01*
X152988494Y-68958597D01*
X152821402Y-68791506D01*
X152821396Y-68791501D01*
X152635842Y-68661575D01*
X152592217Y-68606998D01*
X152585023Y-68537500D01*
X152616546Y-68475145D01*
X152635842Y-68458425D01*
X152712248Y-68404925D01*
X152821401Y-68328495D01*
X152988495Y-68161401D01*
X153118732Y-67975403D01*
X153173307Y-67931780D01*
X153242805Y-67924586D01*
X153305160Y-67956109D01*
X153321880Y-67975405D01*
X153375073Y-68051373D01*
X154006923Y-67419523D01*
X154030507Y-67499844D01*
G37*
%TD.AperFunction*%
%TA.AperFunction,Conductor*%
G36*
X154030507Y-64959844D02*
G01*
X154108239Y-65080798D01*
X154216900Y-65174952D01*
X154347685Y-65234680D01*
X154357466Y-65236086D01*
X153728625Y-65864925D01*
X153805031Y-65918425D01*
X153848655Y-65973002D01*
X153855848Y-66042501D01*
X153824326Y-66104855D01*
X153805029Y-66121576D01*
X153728625Y-66175072D01*
X154357466Y-66803913D01*
X154347685Y-66805320D01*
X154216900Y-66865048D01*
X154108239Y-66959202D01*
X154030507Y-67080156D01*
X154006923Y-67160475D01*
X153375073Y-66528626D01*
X153321881Y-66604594D01*
X153267304Y-66648219D01*
X153197806Y-66655413D01*
X153135451Y-66623891D01*
X153118730Y-66604594D01*
X152988494Y-66418597D01*
X152821402Y-66251506D01*
X152821401Y-66251505D01*
X152699746Y-66166321D01*
X152635841Y-66121574D01*
X152592216Y-66066997D01*
X152585024Y-65997498D01*
X152616546Y-65935144D01*
X152635836Y-65918428D01*
X152821401Y-65788495D01*
X152988495Y-65621401D01*
X153118732Y-65435403D01*
X153173307Y-65391780D01*
X153242805Y-65384586D01*
X153305160Y-65416109D01*
X153321880Y-65435405D01*
X153375073Y-65511373D01*
X154006923Y-64879523D01*
X154030507Y-64959844D01*
G37*
%TD.AperFunction*%
%TA.AperFunction,Conductor*%
G36*
X154030507Y-62419844D02*
G01*
X154108239Y-62540798D01*
X154216900Y-62634952D01*
X154347685Y-62694680D01*
X154357466Y-62696086D01*
X153728625Y-63324925D01*
X153805031Y-63378425D01*
X153848655Y-63433002D01*
X153855848Y-63502501D01*
X153824326Y-63564855D01*
X153805029Y-63581576D01*
X153728625Y-63635072D01*
X154357466Y-64263913D01*
X154347685Y-64265320D01*
X154216900Y-64325048D01*
X154108239Y-64419202D01*
X154030507Y-64540156D01*
X154006923Y-64620475D01*
X153375073Y-63988626D01*
X153321881Y-64064594D01*
X153267304Y-64108219D01*
X153197806Y-64115413D01*
X153135451Y-64083891D01*
X153118730Y-64064594D01*
X152988494Y-63878597D01*
X152821402Y-63711506D01*
X152821396Y-63711501D01*
X152635842Y-63581575D01*
X152592217Y-63526998D01*
X152585023Y-63457500D01*
X152616546Y-63395145D01*
X152635842Y-63378425D01*
X152712248Y-63324925D01*
X152821401Y-63248495D01*
X152988495Y-63081401D01*
X153118732Y-62895403D01*
X153173307Y-62851780D01*
X153242805Y-62844586D01*
X153305160Y-62876109D01*
X153321880Y-62895405D01*
X153375073Y-62971373D01*
X154006923Y-62339523D01*
X154030507Y-62419844D01*
G37*
%TD.AperFunction*%
%TA.AperFunction,Conductor*%
G36*
X154030507Y-59879844D02*
G01*
X154108239Y-60000798D01*
X154216900Y-60094952D01*
X154347685Y-60154680D01*
X154357466Y-60156086D01*
X153728625Y-60784925D01*
X153805031Y-60838425D01*
X153848655Y-60893002D01*
X153855848Y-60962501D01*
X153824326Y-61024855D01*
X153805029Y-61041576D01*
X153728625Y-61095072D01*
X154357466Y-61723913D01*
X154347685Y-61725320D01*
X154216900Y-61785048D01*
X154108239Y-61879202D01*
X154030507Y-62000156D01*
X154006923Y-62080475D01*
X153375073Y-61448626D01*
X153321881Y-61524594D01*
X153267304Y-61568219D01*
X153197806Y-61575413D01*
X153135451Y-61543891D01*
X153118730Y-61524594D01*
X152988494Y-61338597D01*
X152821402Y-61171506D01*
X152821401Y-61171505D01*
X152699746Y-61086321D01*
X152635841Y-61041574D01*
X152592216Y-60986997D01*
X152585024Y-60917498D01*
X152616546Y-60855144D01*
X152635836Y-60838428D01*
X152821401Y-60708495D01*
X152988495Y-60541401D01*
X153118732Y-60355403D01*
X153173307Y-60311780D01*
X153242805Y-60304586D01*
X153305160Y-60336109D01*
X153321880Y-60355405D01*
X153375073Y-60431373D01*
X154006923Y-59799523D01*
X154030507Y-59879844D01*
G37*
%TD.AperFunction*%
%TA.AperFunction,Conductor*%
G36*
X154030507Y-57339844D02*
G01*
X154108239Y-57460798D01*
X154216900Y-57554952D01*
X154347685Y-57614680D01*
X154357466Y-57616086D01*
X153728625Y-58244925D01*
X153805031Y-58298425D01*
X153848655Y-58353002D01*
X153855848Y-58422501D01*
X153824326Y-58484855D01*
X153805029Y-58501576D01*
X153728625Y-58555072D01*
X154357466Y-59183913D01*
X154347685Y-59185320D01*
X154216900Y-59245048D01*
X154108239Y-59339202D01*
X154030507Y-59460156D01*
X154006923Y-59540474D01*
X153375073Y-58908626D01*
X153321881Y-58984594D01*
X153267304Y-59028219D01*
X153197806Y-59035413D01*
X153135451Y-59003891D01*
X153118730Y-58984594D01*
X152988494Y-58798597D01*
X152821402Y-58631506D01*
X152821396Y-58631501D01*
X152635842Y-58501575D01*
X152592217Y-58446998D01*
X152585023Y-58377500D01*
X152616546Y-58315145D01*
X152635842Y-58298425D01*
X152712248Y-58244925D01*
X152821401Y-58168495D01*
X152988495Y-58001401D01*
X153118732Y-57815403D01*
X153173307Y-57771780D01*
X153242805Y-57764586D01*
X153305160Y-57796109D01*
X153321880Y-57815405D01*
X153375073Y-57891373D01*
X154006923Y-57259523D01*
X154030507Y-57339844D01*
G37*
%TD.AperFunction*%
%TA.AperFunction,Conductor*%
G36*
X154030507Y-54799844D02*
G01*
X154108239Y-54920798D01*
X154216900Y-55014952D01*
X154347685Y-55074680D01*
X154357466Y-55076086D01*
X153728625Y-55704925D01*
X153805031Y-55758425D01*
X153848655Y-55813002D01*
X153855848Y-55882501D01*
X153824326Y-55944855D01*
X153805029Y-55961576D01*
X153728625Y-56015072D01*
X154357466Y-56643913D01*
X154347685Y-56645320D01*
X154216900Y-56705048D01*
X154108239Y-56799202D01*
X154030507Y-56920156D01*
X154006923Y-57000475D01*
X153375073Y-56368626D01*
X153321881Y-56444594D01*
X153267304Y-56488219D01*
X153197806Y-56495413D01*
X153135451Y-56463891D01*
X153118730Y-56444594D01*
X152988494Y-56258597D01*
X152821402Y-56091506D01*
X152821401Y-56091505D01*
X152655015Y-55975000D01*
X152635841Y-55961574D01*
X152592216Y-55906997D01*
X152585024Y-55837498D01*
X152616546Y-55775144D01*
X152635836Y-55758428D01*
X152821401Y-55628495D01*
X152988495Y-55461401D01*
X153118732Y-55275403D01*
X153173307Y-55231780D01*
X153242805Y-55224586D01*
X153305160Y-55256109D01*
X153321880Y-55275405D01*
X153375073Y-55351373D01*
X154006923Y-54719523D01*
X154030507Y-54799844D01*
G37*
%TD.AperFunction*%
%TA.AperFunction,Conductor*%
G36*
X154030507Y-52259844D02*
G01*
X154108239Y-52380798D01*
X154216900Y-52474952D01*
X154347685Y-52534680D01*
X154357466Y-52536086D01*
X153728625Y-53164925D01*
X153805031Y-53218425D01*
X153848655Y-53273002D01*
X153855848Y-53342501D01*
X153824326Y-53404855D01*
X153805029Y-53421576D01*
X153728625Y-53475072D01*
X154357466Y-54103913D01*
X154347685Y-54105320D01*
X154216900Y-54165048D01*
X154108239Y-54259202D01*
X154030507Y-54380156D01*
X154006923Y-54460475D01*
X153375073Y-53828626D01*
X153321881Y-53904594D01*
X153267304Y-53948219D01*
X153197806Y-53955413D01*
X153135451Y-53923891D01*
X153118730Y-53904594D01*
X152988494Y-53718597D01*
X152821398Y-53551501D01*
X152820030Y-53550354D01*
X152819592Y-53549696D01*
X152817573Y-53547677D01*
X152817978Y-53547271D01*
X152781330Y-53492182D01*
X152780224Y-53422321D01*
X152817063Y-53362952D01*
X152860737Y-53337662D01*
X152869334Y-53334814D01*
X153018656Y-53242712D01*
X153142712Y-53118656D01*
X153234814Y-52969334D01*
X153258794Y-52896965D01*
X153298565Y-52839523D01*
X153363081Y-52812699D01*
X153373861Y-52812585D01*
X154006923Y-52179523D01*
X154030507Y-52259844D01*
G37*
%TD.AperFunction*%
%TA.AperFunction,Conductor*%
G36*
X151378689Y-39997905D02*
G01*
X151573610Y-40006416D01*
X151802034Y-40016974D01*
X151807203Y-40017433D01*
X152019183Y-40045342D01*
X152231632Y-40074979D01*
X152236441Y-40075847D01*
X152447560Y-40122652D01*
X152654246Y-40171266D01*
X152658689Y-40172487D01*
X152865995Y-40237851D01*
X153066522Y-40305063D01*
X153070521Y-40306559D01*
X153271346Y-40389744D01*
X153272539Y-40390255D01*
X153465141Y-40475298D01*
X153468627Y-40476972D01*
X153661702Y-40577482D01*
X153663202Y-40578290D01*
X153846774Y-40680541D01*
X153849918Y-40682415D01*
X154033586Y-40799425D01*
X154035312Y-40800565D01*
X154208516Y-40919213D01*
X154211156Y-40921127D01*
X154384096Y-41053829D01*
X154385895Y-41055266D01*
X154547324Y-41189315D01*
X154549603Y-41191303D01*
X154710295Y-41338551D01*
X154712249Y-41340422D01*
X154860591Y-41488764D01*
X154862461Y-41490718D01*
X154915138Y-41548204D01*
X155009697Y-41651397D01*
X155011667Y-41653655D01*
X155145724Y-41815096D01*
X155147213Y-41816961D01*
X155279852Y-41989819D01*
X155281814Y-41992524D01*
X155400449Y-42165710D01*
X155401568Y-42167402D01*
X155518594Y-42351098D01*
X155520469Y-42354241D01*
X155622700Y-42537782D01*
X155623530Y-42539323D01*
X155724006Y-42732333D01*
X155725729Y-42735920D01*
X155810736Y-42928442D01*
X155811277Y-42929706D01*
X155894439Y-43130477D01*
X155895945Y-43134502D01*
X155963157Y-43335033D01*
X156028514Y-43542317D01*
X156029737Y-43546767D01*
X156078345Y-43753436D01*
X156125150Y-43964551D01*
X156126025Y-43969407D01*
X156155675Y-44181951D01*
X156183563Y-44393778D01*
X156184027Y-44399009D01*
X156194485Y-44625167D01*
X156194509Y-44625706D01*
X156203106Y-44822571D01*
X156203165Y-44825276D01*
X156203165Y-107798646D01*
X156203106Y-107801351D01*
X156194942Y-107988320D01*
X156183969Y-108225210D01*
X156183505Y-108230436D01*
X156156514Y-108435458D01*
X156125907Y-108654872D01*
X156125032Y-108659727D01*
X156079175Y-108866572D01*
X156029559Y-109077529D01*
X156028336Y-109081979D01*
X155963993Y-109286050D01*
X155895691Y-109489839D01*
X155894185Y-109493864D01*
X155812112Y-109692004D01*
X155811549Y-109693320D01*
X155725397Y-109888437D01*
X155723674Y-109892023D01*
X155624341Y-110082842D01*
X155623511Y-110084383D01*
X155520039Y-110270152D01*
X155518164Y-110273296D01*
X155402388Y-110455027D01*
X155401248Y-110456753D01*
X155281269Y-110631903D01*
X155279306Y-110634608D01*
X155147992Y-110805741D01*
X155146503Y-110807607D01*
X155011028Y-110970753D01*
X155009040Y-110973031D01*
X154863218Y-111132171D01*
X154861347Y-111134126D01*
X154711450Y-111284023D01*
X154709496Y-111285893D01*
X154550358Y-111431717D01*
X154548080Y-111433705D01*
X154384943Y-111569173D01*
X154383078Y-111570663D01*
X154211920Y-111701999D01*
X154209215Y-111703961D01*
X154034116Y-111823908D01*
X154032390Y-111825048D01*
X153850622Y-111940849D01*
X153847478Y-111942723D01*
X153661711Y-112046196D01*
X153660170Y-112047026D01*
X153469360Y-112146357D01*
X153465774Y-112148080D01*
X153270682Y-112234222D01*
X153269365Y-112234786D01*
X153071200Y-112316871D01*
X153067175Y-112318377D01*
X152863396Y-112386678D01*
X152659307Y-112451028D01*
X152654857Y-112452251D01*
X152443925Y-112501862D01*
X152237059Y-112547725D01*
X152232203Y-112548601D01*
X152012801Y-112579208D01*
X151807806Y-112606198D01*
X151802574Y-112606662D01*
X151556897Y-112618022D01*
X151379548Y-112625768D01*
X151376842Y-112625827D01*
X127428690Y-112625827D01*
X127425986Y-112625768D01*
X127239061Y-112617607D01*
X127002122Y-112606634D01*
X126996896Y-112606170D01*
X126791911Y-112579185D01*
X126572457Y-112548574D01*
X126567601Y-112547699D01*
X126360869Y-112501868D01*
X126149791Y-112452225D01*
X126145340Y-112451002D01*
X125941245Y-112386652D01*
X125737500Y-112318365D01*
X125733491Y-112316866D01*
X125535310Y-112234778D01*
X125534002Y-112234219D01*
X125338874Y-112148062D01*
X125335320Y-112146355D01*
X125265029Y-112109764D01*
X125144503Y-112047022D01*
X125142962Y-112046192D01*
X124957176Y-111942712D01*
X124954032Y-111940837D01*
X124772299Y-111825062D01*
X124770573Y-111823921D01*
X124595420Y-111703940D01*
X124592715Y-111701977D01*
X124421605Y-111570682D01*
X124419740Y-111569193D01*
X124256557Y-111433689D01*
X124254278Y-111431701D01*
X124095174Y-111285910D01*
X124093220Y-111284039D01*
X123943288Y-111134108D01*
X123941417Y-111132154D01*
X123795614Y-110973039D01*
X123793626Y-110970760D01*
X123776486Y-110950119D01*
X123658117Y-110807573D01*
X123656654Y-110805741D01*
X123525342Y-110634613D01*
X123523380Y-110631908D01*
X123403385Y-110456738D01*
X123402275Y-110455059D01*
X123286453Y-110273255D01*
X123284622Y-110270185D01*
X123181131Y-110084383D01*
X123180323Y-110082885D01*
X123080951Y-109891994D01*
X123079255Y-109888464D01*
X122993069Y-109693272D01*
X122992561Y-109692084D01*
X122910449Y-109493849D01*
X122908949Y-109489839D01*
X122840649Y-109286061D01*
X122829279Y-109250000D01*
X122776296Y-109081959D01*
X122775085Y-109077552D01*
X122725457Y-108866551D01*
X122679598Y-108659692D01*
X122678734Y-108654901D01*
X122648134Y-108435539D01*
X122621131Y-108230431D01*
X122620670Y-108225231D01*
X122615636Y-108116353D01*
X122609318Y-107979697D01*
X122601570Y-107802232D01*
X122601511Y-107799528D01*
X122601511Y-107750000D01*
X123945197Y-107750000D01*
X123964397Y-108116353D01*
X124021784Y-108478684D01*
X124021784Y-108478686D01*
X124116736Y-108833051D01*
X124248204Y-109175535D01*
X124414754Y-109502406D01*
X124614549Y-109810064D01*
X124803297Y-110043147D01*
X126226389Y-108620056D01*
X126342632Y-108769404D01*
X126525523Y-108937768D01*
X126580116Y-108973435D01*
X125156851Y-110396701D01*
X125389935Y-110585450D01*
X125697593Y-110785245D01*
X126024464Y-110951795D01*
X126366948Y-111083263D01*
X126721314Y-111178215D01*
X127083646Y-111235602D01*
X127449999Y-111254803D01*
X127450001Y-111254803D01*
X127816353Y-111235602D01*
X128178684Y-111178215D01*
X128178686Y-111178215D01*
X128533051Y-111083263D01*
X128875535Y-110951795D01*
X129202406Y-110785245D01*
X129510065Y-110585450D01*
X129743148Y-110396702D01*
X129743148Y-110396701D01*
X128319883Y-108973435D01*
X128374477Y-108937768D01*
X128557368Y-108769404D01*
X128673610Y-108620057D01*
X130096701Y-110043148D01*
X130096702Y-110043148D01*
X130285450Y-109810065D01*
X130485245Y-109502406D01*
X130651795Y-109175535D01*
X130783263Y-108833051D01*
X130878215Y-108478686D01*
X130878215Y-108478684D01*
X130935602Y-108116353D01*
X130954803Y-107750000D01*
X147945197Y-107750000D01*
X147964397Y-108116353D01*
X148021784Y-108478684D01*
X148021784Y-108478686D01*
X148116736Y-108833051D01*
X148248204Y-109175535D01*
X148414754Y-109502406D01*
X148614549Y-109810064D01*
X148803297Y-110043147D01*
X150226389Y-108620056D01*
X150342632Y-108769404D01*
X150525523Y-108937768D01*
X150580116Y-108973435D01*
X149156851Y-110396701D01*
X149389935Y-110585450D01*
X149697593Y-110785245D01*
X150024464Y-110951795D01*
X150366948Y-111083263D01*
X150721314Y-111178215D01*
X151083646Y-111235602D01*
X151449999Y-111254803D01*
X151450001Y-111254803D01*
X151816353Y-111235602D01*
X152178684Y-111178215D01*
X152178686Y-111178215D01*
X152533051Y-111083263D01*
X152875535Y-110951795D01*
X153202406Y-110785245D01*
X153510065Y-110585450D01*
X153743148Y-110396702D01*
X153743148Y-110396701D01*
X152319883Y-108973435D01*
X152374477Y-108937768D01*
X152557368Y-108769404D01*
X152673610Y-108620057D01*
X154096701Y-110043148D01*
X154096702Y-110043148D01*
X154285450Y-109810065D01*
X154485245Y-109502406D01*
X154651795Y-109175535D01*
X154783263Y-108833051D01*
X154878215Y-108478686D01*
X154878215Y-108478684D01*
X154935602Y-108116353D01*
X154954803Y-107750000D01*
X154954803Y-107749999D01*
X154935602Y-107383646D01*
X154878215Y-107021315D01*
X154878215Y-107021313D01*
X154783263Y-106666948D01*
X154651795Y-106324464D01*
X154485245Y-105997594D01*
X154285450Y-105689935D01*
X154096701Y-105456851D01*
X152673609Y-106879942D01*
X152557368Y-106730596D01*
X152374477Y-106562232D01*
X152319882Y-106526563D01*
X153743148Y-105103297D01*
X153510064Y-104914549D01*
X153202406Y-104714754D01*
X152875535Y-104548204D01*
X152533051Y-104416736D01*
X152178685Y-104321784D01*
X151816353Y-104264397D01*
X151450001Y-104245197D01*
X151449999Y-104245197D01*
X151083646Y-104264397D01*
X150721315Y-104321784D01*
X150721313Y-104321784D01*
X150366948Y-104416736D01*
X150024464Y-104548204D01*
X149697594Y-104714754D01*
X149389929Y-104914553D01*
X149156851Y-105103297D01*
X150580117Y-106526563D01*
X150525523Y-106562232D01*
X150342632Y-106730596D01*
X150226389Y-106879943D01*
X148803297Y-105456851D01*
X148614553Y-105689929D01*
X148414754Y-105997594D01*
X148248204Y-106324464D01*
X148116736Y-106666948D01*
X148021784Y-107021313D01*
X148021784Y-107021315D01*
X147964397Y-107383646D01*
X147945197Y-107749999D01*
X147945197Y-107750000D01*
X130954803Y-107750000D01*
X130954803Y-107749999D01*
X130935602Y-107383646D01*
X130878215Y-107021315D01*
X130878215Y-107021313D01*
X130783263Y-106666948D01*
X130651795Y-106324464D01*
X130485245Y-105997594D01*
X130285450Y-105689935D01*
X130096701Y-105456851D01*
X128673609Y-106879942D01*
X128557368Y-106730596D01*
X128374477Y-106562232D01*
X128319882Y-106526563D01*
X129743148Y-105103297D01*
X129510064Y-104914549D01*
X129202406Y-104714754D01*
X128875535Y-104548204D01*
X128533051Y-104416736D01*
X128178685Y-104321784D01*
X127816353Y-104264397D01*
X127450001Y-104245197D01*
X127449999Y-104245197D01*
X127083646Y-104264397D01*
X126721315Y-104321784D01*
X126721313Y-104321784D01*
X126366948Y-104416736D01*
X126024464Y-104548204D01*
X125697594Y-104714754D01*
X125389929Y-104914553D01*
X125156851Y-105103297D01*
X126580117Y-106526563D01*
X126525523Y-106562232D01*
X126342632Y-106730596D01*
X126226389Y-106879943D01*
X124803297Y-105456851D01*
X124614553Y-105689929D01*
X124414754Y-105997594D01*
X124248204Y-106324464D01*
X124116736Y-106666948D01*
X124021784Y-107021313D01*
X124021784Y-107021315D01*
X123964397Y-107383646D01*
X123945197Y-107749999D01*
X123945197Y-107750000D01*
X122601511Y-107750000D01*
X122601511Y-100310000D01*
X150594341Y-100310000D01*
X150614936Y-100545403D01*
X150614938Y-100545413D01*
X150676094Y-100773655D01*
X150676096Y-100773659D01*
X150676097Y-100773663D01*
X150755800Y-100944586D01*
X150775965Y-100987830D01*
X150775967Y-100987834D01*
X150834462Y-101071373D01*
X150911505Y-101181401D01*
X151078599Y-101348495D01*
X151175384Y-101416265D01*
X151272165Y-101484032D01*
X151272167Y-101484033D01*
X151272170Y-101484035D01*
X151486337Y-101583903D01*
X151714592Y-101645063D01*
X151902918Y-101661539D01*
X151949999Y-101665659D01*
X151950000Y-101665659D01*
X151950001Y-101665659D01*
X151989234Y-101662226D01*
X152185408Y-101645063D01*
X152413663Y-101583903D01*
X152627830Y-101484035D01*
X152821401Y-101348495D01*
X152988495Y-101181401D01*
X153118732Y-100995403D01*
X153173307Y-100951780D01*
X153242805Y-100944586D01*
X153305160Y-100976109D01*
X153321880Y-100995405D01*
X153375073Y-101071373D01*
X154006922Y-100439522D01*
X154030507Y-100519844D01*
X154108239Y-100640798D01*
X154216900Y-100734952D01*
X154347685Y-100794680D01*
X154357466Y-100796086D01*
X153728625Y-101424925D01*
X153812421Y-101483599D01*
X154026507Y-101583429D01*
X154026516Y-101583433D01*
X154254673Y-101644567D01*
X154254684Y-101644569D01*
X154489998Y-101665157D01*
X154490002Y-101665157D01*
X154725315Y-101644569D01*
X154725326Y-101644567D01*
X154953483Y-101583433D01*
X154953492Y-101583429D01*
X155167578Y-101483600D01*
X155167582Y-101483598D01*
X155251373Y-101424926D01*
X155251373Y-101424925D01*
X154622533Y-100796086D01*
X154632315Y-100794680D01*
X154763100Y-100734952D01*
X154871761Y-100640798D01*
X154949493Y-100519844D01*
X154973076Y-100439524D01*
X155604925Y-101071373D01*
X155604926Y-101071373D01*
X155663598Y-100987582D01*
X155663600Y-100987578D01*
X155763429Y-100773492D01*
X155763433Y-100773483D01*
X155824567Y-100545326D01*
X155824569Y-100545315D01*
X155845157Y-100310001D01*
X155845157Y-100309998D01*
X155824569Y-100074684D01*
X155824567Y-100074673D01*
X155763433Y-99846516D01*
X155763429Y-99846507D01*
X155663600Y-99632423D01*
X155663599Y-99632421D01*
X155604925Y-99548626D01*
X155604925Y-99548625D01*
X154973076Y-100180475D01*
X154949493Y-100100156D01*
X154871761Y-99979202D01*
X154763100Y-99885048D01*
X154632315Y-99825320D01*
X154622531Y-99823913D01*
X155251373Y-99195073D01*
X155174969Y-99141576D01*
X155131344Y-99086999D01*
X155124150Y-99017501D01*
X155155672Y-98955146D01*
X155174968Y-98938425D01*
X155251373Y-98884925D01*
X154622533Y-98256086D01*
X154632315Y-98254680D01*
X154763100Y-98194952D01*
X154871761Y-98100798D01*
X154949493Y-97979844D01*
X154973076Y-97899524D01*
X155604925Y-98531373D01*
X155604926Y-98531373D01*
X155663598Y-98447582D01*
X155663600Y-98447578D01*
X155763429Y-98233492D01*
X155763433Y-98233483D01*
X155824567Y-98005326D01*
X155824569Y-98005315D01*
X155845157Y-97770001D01*
X155845157Y-97769998D01*
X155824569Y-97534684D01*
X155824567Y-97534673D01*
X155763433Y-97306516D01*
X155763429Y-97306507D01*
X155663600Y-97092423D01*
X155663599Y-97092421D01*
X155604925Y-97008626D01*
X155604925Y-97008625D01*
X154973076Y-97640475D01*
X154949493Y-97560156D01*
X154871761Y-97439202D01*
X154763100Y-97345048D01*
X154632315Y-97285320D01*
X154622533Y-97283913D01*
X155251373Y-96655073D01*
X155174969Y-96601576D01*
X155131344Y-96546999D01*
X155124150Y-96477501D01*
X155155672Y-96415146D01*
X155174968Y-96398425D01*
X155251373Y-96344925D01*
X154622533Y-95716086D01*
X154632315Y-95714680D01*
X154763100Y-95654952D01*
X154871761Y-95560798D01*
X154949493Y-95439844D01*
X154973077Y-95359523D01*
X155604926Y-95991373D01*
X155663598Y-95907582D01*
X155663600Y-95907578D01*
X155763429Y-95693492D01*
X155763433Y-95693483D01*
X155824567Y-95465326D01*
X155824569Y-95465315D01*
X155845157Y-95230001D01*
X155845157Y-95229998D01*
X155824569Y-94994684D01*
X155824567Y-94994673D01*
X155763433Y-94766516D01*
X155763429Y-94766507D01*
X155663600Y-94552423D01*
X155663599Y-94552421D01*
X155604925Y-94468626D01*
X155604925Y-94468625D01*
X154973076Y-95100474D01*
X154949493Y-95020156D01*
X154871761Y-94899202D01*
X154763100Y-94805048D01*
X154632315Y-94745320D01*
X154622533Y-94743913D01*
X155251373Y-94115073D01*
X155174969Y-94061576D01*
X155131344Y-94006999D01*
X155124150Y-93937501D01*
X155155672Y-93875146D01*
X155174968Y-93858425D01*
X155251373Y-93804925D01*
X154622533Y-93176086D01*
X154632315Y-93174680D01*
X154763100Y-93114952D01*
X154871761Y-93020798D01*
X154949493Y-92899844D01*
X154973077Y-92819523D01*
X155604926Y-93451373D01*
X155663598Y-93367582D01*
X155663600Y-93367578D01*
X155763429Y-93153492D01*
X155763433Y-93153483D01*
X155824567Y-92925326D01*
X155824569Y-92925315D01*
X155845157Y-92690001D01*
X155845157Y-92689998D01*
X155824569Y-92454684D01*
X155824567Y-92454673D01*
X155763433Y-92226516D01*
X155763429Y-92226507D01*
X155663600Y-92012423D01*
X155663599Y-92012421D01*
X155604925Y-91928626D01*
X155604925Y-91928625D01*
X154973076Y-92560474D01*
X154949493Y-92480156D01*
X154871761Y-92359202D01*
X154763100Y-92265048D01*
X154632315Y-92205320D01*
X154622533Y-92203913D01*
X155251373Y-91575073D01*
X155174969Y-91521576D01*
X155131344Y-91466999D01*
X155124150Y-91397501D01*
X155155672Y-91335146D01*
X155174968Y-91318425D01*
X155251373Y-91264925D01*
X154622533Y-90636086D01*
X154632315Y-90634680D01*
X154763100Y-90574952D01*
X154871761Y-90480798D01*
X154949493Y-90359844D01*
X154973076Y-90279524D01*
X155604925Y-90911373D01*
X155604926Y-90911373D01*
X155663598Y-90827582D01*
X155663600Y-90827578D01*
X155763429Y-90613492D01*
X155763433Y-90613483D01*
X155824567Y-90385326D01*
X155824569Y-90385315D01*
X155845157Y-90150001D01*
X155845157Y-90149998D01*
X155824569Y-89914684D01*
X155824567Y-89914673D01*
X155763433Y-89686516D01*
X155763429Y-89686507D01*
X155663600Y-89472423D01*
X155663599Y-89472421D01*
X155604925Y-89388626D01*
X155604925Y-89388625D01*
X154973076Y-90020475D01*
X154949493Y-89940156D01*
X154871761Y-89819202D01*
X154763100Y-89725048D01*
X154632315Y-89665320D01*
X154622533Y-89663913D01*
X155251373Y-89035073D01*
X155174969Y-88981576D01*
X155131344Y-88926999D01*
X155124150Y-88857501D01*
X155155672Y-88795146D01*
X155174968Y-88778425D01*
X155251373Y-88724925D01*
X154622533Y-88096086D01*
X154632315Y-88094680D01*
X154763100Y-88034952D01*
X154871761Y-87940798D01*
X154949493Y-87819844D01*
X154973076Y-87739524D01*
X155604925Y-88371373D01*
X155604926Y-88371373D01*
X155663598Y-88287582D01*
X155663600Y-88287578D01*
X155763429Y-88073492D01*
X155763433Y-88073483D01*
X155824567Y-87845326D01*
X155824569Y-87845315D01*
X155845157Y-87610001D01*
X155845157Y-87609998D01*
X155824569Y-87374684D01*
X155824567Y-87374673D01*
X155763433Y-87146516D01*
X155763429Y-87146507D01*
X155663600Y-86932423D01*
X155663599Y-86932421D01*
X155604925Y-86848626D01*
X155604925Y-86848625D01*
X154973076Y-87480475D01*
X154949493Y-87400156D01*
X154871761Y-87279202D01*
X154763100Y-87185048D01*
X154632315Y-87125320D01*
X154622533Y-87123913D01*
X155251373Y-86495073D01*
X155174969Y-86441576D01*
X155131344Y-86386999D01*
X155124150Y-86317501D01*
X155155672Y-86255146D01*
X155174968Y-86238425D01*
X155251373Y-86184925D01*
X154622533Y-85556086D01*
X154632315Y-85554680D01*
X154763100Y-85494952D01*
X154871761Y-85400798D01*
X154949493Y-85279844D01*
X154973076Y-85199524D01*
X155604925Y-85831373D01*
X155604926Y-85831373D01*
X155663598Y-85747582D01*
X155663600Y-85747578D01*
X155763429Y-85533492D01*
X155763433Y-85533483D01*
X155824567Y-85305326D01*
X155824569Y-85305315D01*
X155845157Y-85070001D01*
X155845157Y-85069998D01*
X155824569Y-84834684D01*
X155824567Y-84834673D01*
X155763433Y-84606516D01*
X155763429Y-84606507D01*
X155663600Y-84392423D01*
X155663599Y-84392421D01*
X155604925Y-84308626D01*
X155604925Y-84308625D01*
X154973076Y-84940475D01*
X154949493Y-84860156D01*
X154871761Y-84739202D01*
X154763100Y-84645048D01*
X154632315Y-84585320D01*
X154622531Y-84583913D01*
X155251373Y-83955073D01*
X155174969Y-83901576D01*
X155131344Y-83846999D01*
X155124150Y-83777501D01*
X155155672Y-83715146D01*
X155174968Y-83698425D01*
X155251373Y-83644925D01*
X154622533Y-83016086D01*
X154632315Y-83014680D01*
X154763100Y-82954952D01*
X154871761Y-82860798D01*
X154949493Y-82739844D01*
X154973077Y-82659523D01*
X155604926Y-83291373D01*
X155663598Y-83207582D01*
X155663600Y-83207578D01*
X155763429Y-82993492D01*
X155763433Y-82993483D01*
X155824567Y-82765326D01*
X155824569Y-82765315D01*
X155845157Y-82530001D01*
X155845157Y-82529998D01*
X155824569Y-82294684D01*
X155824567Y-82294673D01*
X155763433Y-82066516D01*
X155763429Y-82066507D01*
X155663600Y-81852423D01*
X155663599Y-81852421D01*
X155604925Y-81768626D01*
X155604925Y-81768625D01*
X154973076Y-82400474D01*
X154949493Y-82320156D01*
X154871761Y-82199202D01*
X154763100Y-82105048D01*
X154632315Y-82045320D01*
X154622533Y-82043913D01*
X155251373Y-81415073D01*
X155174969Y-81361576D01*
X155131344Y-81306999D01*
X155124150Y-81237501D01*
X155155672Y-81175146D01*
X155174968Y-81158425D01*
X155251373Y-81104925D01*
X154622533Y-80476086D01*
X154632315Y-80474680D01*
X154763100Y-80414952D01*
X154871761Y-80320798D01*
X154949493Y-80199844D01*
X154973076Y-80119524D01*
X155604925Y-80751373D01*
X155604926Y-80751373D01*
X155663598Y-80667582D01*
X155663600Y-80667578D01*
X155763429Y-80453492D01*
X155763433Y-80453483D01*
X155824567Y-80225326D01*
X155824569Y-80225315D01*
X155845157Y-79990001D01*
X155845157Y-79989998D01*
X155824569Y-79754684D01*
X155824567Y-79754673D01*
X155763433Y-79526516D01*
X155763429Y-79526507D01*
X155663600Y-79312423D01*
X155663599Y-79312421D01*
X155604925Y-79228626D01*
X155604925Y-79228625D01*
X154973076Y-79860475D01*
X154949493Y-79780156D01*
X154871761Y-79659202D01*
X154763100Y-79565048D01*
X154632315Y-79505320D01*
X154622533Y-79503913D01*
X155251373Y-78875073D01*
X155174969Y-78821576D01*
X155131344Y-78766999D01*
X155124150Y-78697501D01*
X155155672Y-78635146D01*
X155174968Y-78618425D01*
X155251373Y-78564925D01*
X154622533Y-77936086D01*
X154632315Y-77934680D01*
X154763100Y-77874952D01*
X154871761Y-77780798D01*
X154949493Y-77659844D01*
X154973077Y-77579523D01*
X155604926Y-78211373D01*
X155663598Y-78127582D01*
X155663600Y-78127578D01*
X155763429Y-77913492D01*
X155763433Y-77913483D01*
X155824567Y-77685326D01*
X155824569Y-77685315D01*
X155845157Y-77450001D01*
X155845157Y-77449998D01*
X155824569Y-77214684D01*
X155824567Y-77214673D01*
X155763433Y-76986516D01*
X155763429Y-76986507D01*
X155663600Y-76772423D01*
X155663599Y-76772421D01*
X155604925Y-76688626D01*
X155604925Y-76688625D01*
X154973076Y-77320474D01*
X154949493Y-77240156D01*
X154871761Y-77119202D01*
X154763100Y-77025048D01*
X154632315Y-76965320D01*
X154622533Y-76963913D01*
X155251373Y-76335073D01*
X155174969Y-76281576D01*
X155131344Y-76226999D01*
X155124150Y-76157501D01*
X155155672Y-76095146D01*
X155174968Y-76078425D01*
X155251373Y-76024925D01*
X154622533Y-75396086D01*
X154632315Y-75394680D01*
X154763100Y-75334952D01*
X154871761Y-75240798D01*
X154949493Y-75119844D01*
X154973076Y-75039524D01*
X155604925Y-75671373D01*
X155604926Y-75671373D01*
X155663598Y-75587582D01*
X155663600Y-75587578D01*
X155763429Y-75373492D01*
X155763433Y-75373483D01*
X155824567Y-75145326D01*
X155824569Y-75145315D01*
X155845157Y-74910001D01*
X155845157Y-74909998D01*
X155824569Y-74674684D01*
X155824567Y-74674673D01*
X155763433Y-74446516D01*
X155763429Y-74446507D01*
X155663600Y-74232423D01*
X155663599Y-74232421D01*
X155604925Y-74148626D01*
X155604925Y-74148625D01*
X154973076Y-74780475D01*
X154949493Y-74700156D01*
X154871761Y-74579202D01*
X154763100Y-74485048D01*
X154632315Y-74425320D01*
X154622533Y-74423913D01*
X155251373Y-73795073D01*
X155174969Y-73741576D01*
X155131344Y-73686999D01*
X155124150Y-73617501D01*
X155155672Y-73555146D01*
X155174968Y-73538425D01*
X155251373Y-73484925D01*
X154622533Y-72856086D01*
X154632315Y-72854680D01*
X154763100Y-72794952D01*
X154871761Y-72700798D01*
X154949493Y-72579844D01*
X154973076Y-72499524D01*
X155604925Y-73131373D01*
X155604926Y-73131373D01*
X155663598Y-73047582D01*
X155663600Y-73047578D01*
X155763429Y-72833492D01*
X155763433Y-72833483D01*
X155824567Y-72605326D01*
X155824569Y-72605315D01*
X155845157Y-72370001D01*
X155845157Y-72369998D01*
X155824569Y-72134684D01*
X155824567Y-72134673D01*
X155763433Y-71906516D01*
X155763429Y-71906507D01*
X155663600Y-71692423D01*
X155663599Y-71692421D01*
X155604925Y-71608626D01*
X155604925Y-71608625D01*
X154973076Y-72240475D01*
X154949493Y-72160156D01*
X154871761Y-72039202D01*
X154763100Y-71945048D01*
X154632315Y-71885320D01*
X154622533Y-71883913D01*
X155251373Y-71255073D01*
X155174969Y-71201576D01*
X155131344Y-71146999D01*
X155124150Y-71077501D01*
X155155672Y-71015146D01*
X155174968Y-70998425D01*
X155251373Y-70944925D01*
X154622533Y-70316086D01*
X154632315Y-70314680D01*
X154763100Y-70254952D01*
X154871761Y-70160798D01*
X154949493Y-70039844D01*
X154973076Y-69959524D01*
X155604925Y-70591373D01*
X155604926Y-70591373D01*
X155663598Y-70507582D01*
X155663600Y-70507578D01*
X155763429Y-70293492D01*
X155763433Y-70293483D01*
X155824567Y-70065326D01*
X155824569Y-70065315D01*
X155845157Y-69830001D01*
X155845157Y-69829998D01*
X155824569Y-69594684D01*
X155824567Y-69594673D01*
X155763433Y-69366516D01*
X155763429Y-69366507D01*
X155663600Y-69152423D01*
X155663599Y-69152421D01*
X155604925Y-69068626D01*
X155604925Y-69068625D01*
X154973076Y-69700475D01*
X154949493Y-69620156D01*
X154871761Y-69499202D01*
X154763100Y-69405048D01*
X154632315Y-69345320D01*
X154622531Y-69343913D01*
X155251373Y-68715073D01*
X155174969Y-68661576D01*
X155131344Y-68606999D01*
X155124150Y-68537501D01*
X155155672Y-68475146D01*
X155174968Y-68458425D01*
X155251373Y-68404925D01*
X154622533Y-67776086D01*
X154632315Y-67774680D01*
X154763100Y-67714952D01*
X154871761Y-67620798D01*
X154949493Y-67499844D01*
X154973077Y-67419523D01*
X155604926Y-68051373D01*
X155663598Y-67967582D01*
X155663600Y-67967578D01*
X155763429Y-67753492D01*
X155763433Y-67753483D01*
X155824567Y-67525326D01*
X155824569Y-67525315D01*
X155845157Y-67290001D01*
X155845157Y-67289998D01*
X155824569Y-67054684D01*
X155824567Y-67054673D01*
X155763433Y-66826516D01*
X155763429Y-66826507D01*
X155663600Y-66612423D01*
X155663599Y-66612421D01*
X155604925Y-66528626D01*
X155604925Y-66528625D01*
X154973076Y-67160474D01*
X154949493Y-67080156D01*
X154871761Y-66959202D01*
X154763100Y-66865048D01*
X154632315Y-66805320D01*
X154622533Y-66803913D01*
X155251373Y-66175073D01*
X155174969Y-66121576D01*
X155131344Y-66066999D01*
X155124150Y-65997501D01*
X155155672Y-65935146D01*
X155174968Y-65918425D01*
X155251373Y-65864925D01*
X154622533Y-65236086D01*
X154632315Y-65234680D01*
X154763100Y-65174952D01*
X154871761Y-65080798D01*
X154949493Y-64959844D01*
X154973077Y-64879523D01*
X155604926Y-65511373D01*
X155663598Y-65427582D01*
X155663600Y-65427578D01*
X155763429Y-65213492D01*
X155763433Y-65213483D01*
X155824567Y-64985326D01*
X155824569Y-64985315D01*
X155845157Y-64750001D01*
X155845157Y-64749998D01*
X155824569Y-64514684D01*
X155824567Y-64514673D01*
X155763433Y-64286516D01*
X155763429Y-64286507D01*
X155663600Y-64072423D01*
X155663599Y-64072421D01*
X155604925Y-63988626D01*
X155604925Y-63988625D01*
X154973076Y-64620474D01*
X154949493Y-64540156D01*
X154871761Y-64419202D01*
X154763100Y-64325048D01*
X154632315Y-64265320D01*
X154622533Y-64263913D01*
X155251373Y-63635073D01*
X155174969Y-63581576D01*
X155131344Y-63526999D01*
X155124150Y-63457501D01*
X155155672Y-63395146D01*
X155174968Y-63378425D01*
X155251373Y-63324925D01*
X154622533Y-62696086D01*
X154632315Y-62694680D01*
X154763100Y-62634952D01*
X154871761Y-62540798D01*
X154949493Y-62419844D01*
X154973076Y-62339524D01*
X155604925Y-62971373D01*
X155604926Y-62971373D01*
X155663598Y-62887582D01*
X155663600Y-62887578D01*
X155763429Y-62673492D01*
X155763433Y-62673483D01*
X155824567Y-62445326D01*
X155824569Y-62445315D01*
X155845157Y-62210001D01*
X155845157Y-62209998D01*
X155824569Y-61974684D01*
X155824567Y-61974673D01*
X155763433Y-61746516D01*
X155763429Y-61746507D01*
X155663600Y-61532423D01*
X155663599Y-61532421D01*
X155604925Y-61448626D01*
X155604925Y-61448625D01*
X154973076Y-62080475D01*
X154949493Y-62000156D01*
X154871761Y-61879202D01*
X154763100Y-61785048D01*
X154632315Y-61725320D01*
X154622533Y-61723913D01*
X155251373Y-61095073D01*
X155174969Y-61041576D01*
X155131344Y-60986999D01*
X155124150Y-60917501D01*
X155155672Y-60855146D01*
X155174968Y-60838425D01*
X155251373Y-60784925D01*
X154622533Y-60156086D01*
X154632315Y-60154680D01*
X154763100Y-60094952D01*
X154871761Y-60000798D01*
X154949493Y-59879844D01*
X154973077Y-59799523D01*
X155604926Y-60431373D01*
X155663598Y-60347582D01*
X155663600Y-60347578D01*
X155763429Y-60133492D01*
X155763433Y-60133483D01*
X155824567Y-59905326D01*
X155824569Y-59905315D01*
X155845157Y-59670001D01*
X155845157Y-59669998D01*
X155824569Y-59434684D01*
X155824567Y-59434673D01*
X155763433Y-59206516D01*
X155763429Y-59206507D01*
X155663600Y-58992423D01*
X155663599Y-58992421D01*
X155604925Y-58908626D01*
X155604925Y-58908625D01*
X154973076Y-59540474D01*
X154949493Y-59460156D01*
X154871761Y-59339202D01*
X154763100Y-59245048D01*
X154632315Y-59185320D01*
X154622533Y-59183913D01*
X155251373Y-58555073D01*
X155174969Y-58501576D01*
X155131344Y-58446999D01*
X155124150Y-58377501D01*
X155155672Y-58315146D01*
X155174968Y-58298425D01*
X155251373Y-58244925D01*
X154622533Y-57616086D01*
X154632315Y-57614680D01*
X154763100Y-57554952D01*
X154871761Y-57460798D01*
X154949493Y-57339844D01*
X154973076Y-57259524D01*
X155604925Y-57891373D01*
X155604926Y-57891373D01*
X155663598Y-57807582D01*
X155663600Y-57807578D01*
X155763429Y-57593492D01*
X155763433Y-57593483D01*
X155824567Y-57365326D01*
X155824569Y-57365315D01*
X155845157Y-57130001D01*
X155845157Y-57129998D01*
X155824569Y-56894684D01*
X155824567Y-56894673D01*
X155763433Y-56666516D01*
X155763429Y-56666507D01*
X155663600Y-56452423D01*
X155663599Y-56452421D01*
X155604925Y-56368626D01*
X155604925Y-56368625D01*
X154973076Y-57000475D01*
X154949493Y-56920156D01*
X154871761Y-56799202D01*
X154763100Y-56705048D01*
X154632315Y-56645320D01*
X154622533Y-56643913D01*
X155251373Y-56015073D01*
X155174969Y-55961576D01*
X155131344Y-55906999D01*
X155124150Y-55837501D01*
X155155672Y-55775146D01*
X155174968Y-55758425D01*
X155251373Y-55704925D01*
X154622533Y-55076086D01*
X154632315Y-55074680D01*
X154763100Y-55014952D01*
X154871761Y-54920798D01*
X154949493Y-54799844D01*
X154973076Y-54719524D01*
X155604925Y-55351373D01*
X155604926Y-55351373D01*
X155663598Y-55267582D01*
X155663600Y-55267578D01*
X155763429Y-55053492D01*
X155763433Y-55053483D01*
X155824567Y-54825326D01*
X155824569Y-54825315D01*
X155845157Y-54590001D01*
X155845157Y-54589998D01*
X155824569Y-54354684D01*
X155824567Y-54354673D01*
X155763433Y-54126516D01*
X155763429Y-54126507D01*
X155663600Y-53912423D01*
X155663599Y-53912421D01*
X155604925Y-53828626D01*
X155604925Y-53828625D01*
X154973076Y-54460475D01*
X154949493Y-54380156D01*
X154871761Y-54259202D01*
X154763100Y-54165048D01*
X154632315Y-54105320D01*
X154622533Y-54103913D01*
X155251373Y-53475073D01*
X155174969Y-53421576D01*
X155131344Y-53366999D01*
X155124150Y-53297501D01*
X155155672Y-53235146D01*
X155174968Y-53218425D01*
X155251373Y-53164925D01*
X154622533Y-52536086D01*
X154632315Y-52534680D01*
X154763100Y-52474952D01*
X154871761Y-52380798D01*
X154949493Y-52259844D01*
X154973077Y-52179523D01*
X155604926Y-52811373D01*
X155663598Y-52727582D01*
X155663600Y-52727578D01*
X155763429Y-52513492D01*
X155763433Y-52513483D01*
X155824567Y-52285326D01*
X155824569Y-52285315D01*
X155845157Y-52050001D01*
X155845157Y-52049998D01*
X155824569Y-51814684D01*
X155824567Y-51814673D01*
X155763433Y-51586516D01*
X155763429Y-51586507D01*
X155663600Y-51372423D01*
X155663599Y-51372421D01*
X155604925Y-51288626D01*
X155604925Y-51288625D01*
X154973076Y-51920474D01*
X154949493Y-51840156D01*
X154871761Y-51719202D01*
X154763100Y-51625048D01*
X154632315Y-51565320D01*
X154622531Y-51563913D01*
X155251373Y-50935073D01*
X155251373Y-50935072D01*
X155167583Y-50876402D01*
X155167579Y-50876400D01*
X154953492Y-50776570D01*
X154953483Y-50776566D01*
X154725326Y-50715432D01*
X154725315Y-50715430D01*
X154490002Y-50694843D01*
X154489998Y-50694843D01*
X154254684Y-50715430D01*
X154254673Y-50715432D01*
X154026516Y-50776566D01*
X154026507Y-50776570D01*
X153812419Y-50876401D01*
X153728626Y-50935072D01*
X153728625Y-50935073D01*
X154357466Y-51563913D01*
X154347685Y-51565320D01*
X154216900Y-51625048D01*
X154108239Y-51719202D01*
X154030507Y-51840156D01*
X154006923Y-51920474D01*
X153370655Y-51284208D01*
X153318806Y-51273788D01*
X153268623Y-51225173D01*
X153258793Y-51203031D01*
X153234814Y-51130666D01*
X153142712Y-50981344D01*
X153018656Y-50857288D01*
X152869334Y-50765186D01*
X152702797Y-50710001D01*
X152702795Y-50710000D01*
X152600010Y-50699500D01*
X151299998Y-50699500D01*
X151299981Y-50699501D01*
X151197203Y-50710000D01*
X151197200Y-50710001D01*
X151030668Y-50765185D01*
X151030663Y-50765187D01*
X150881342Y-50857289D01*
X150757289Y-50981342D01*
X150665187Y-51130663D01*
X150665185Y-51130666D01*
X150665186Y-51130666D01*
X150610001Y-51297203D01*
X150610001Y-51297204D01*
X150610000Y-51297204D01*
X150599500Y-51399983D01*
X150599500Y-52700001D01*
X150599501Y-52700018D01*
X150610000Y-52802796D01*
X150610001Y-52802799D01*
X150641206Y-52896968D01*
X150665186Y-52969334D01*
X150757288Y-53118656D01*
X150881344Y-53242712D01*
X151030666Y-53334814D01*
X151039264Y-53337663D01*
X151096707Y-53377433D01*
X151123531Y-53441948D01*
X151111217Y-53510724D01*
X151082234Y-53547483D01*
X151082427Y-53547676D01*
X151080798Y-53549304D01*
X151079975Y-53550349D01*
X151078599Y-53551503D01*
X150911505Y-53718597D01*
X150775965Y-53912169D01*
X150775964Y-53912171D01*
X150676098Y-54126335D01*
X150676094Y-54126344D01*
X150614938Y-54354586D01*
X150614936Y-54354596D01*
X150594341Y-54589999D01*
X150594341Y-54590000D01*
X150614936Y-54825403D01*
X150614938Y-54825413D01*
X150676094Y-55053655D01*
X150676096Y-55053659D01*
X150676097Y-55053663D01*
X150748071Y-55208012D01*
X150775965Y-55267830D01*
X150775967Y-55267834D01*
X150834462Y-55351373D01*
X150911501Y-55461396D01*
X150911506Y-55461402D01*
X151078597Y-55628493D01*
X151078603Y-55628498D01*
X151264158Y-55758425D01*
X151307783Y-55813002D01*
X151314977Y-55882500D01*
X151283454Y-55944855D01*
X151264158Y-55961575D01*
X151078597Y-56091505D01*
X150911505Y-56258597D01*
X150775965Y-56452169D01*
X150775964Y-56452171D01*
X150676098Y-56666335D01*
X150676094Y-56666344D01*
X150614938Y-56894586D01*
X150614936Y-56894596D01*
X150594341Y-57129999D01*
X150594341Y-57130000D01*
X150614936Y-57365403D01*
X150614938Y-57365413D01*
X150676094Y-57593655D01*
X150676096Y-57593659D01*
X150676097Y-57593663D01*
X150733128Y-57715965D01*
X150775965Y-57807830D01*
X150775967Y-57807834D01*
X150822808Y-57874729D01*
X150911501Y-58001396D01*
X150911506Y-58001402D01*
X151078597Y-58168493D01*
X151078603Y-58168498D01*
X151264158Y-58298425D01*
X151307783Y-58353002D01*
X151314977Y-58422500D01*
X151283454Y-58484855D01*
X151264158Y-58501575D01*
X151078597Y-58631505D01*
X150911505Y-58798597D01*
X150775965Y-58992169D01*
X150775964Y-58992171D01*
X150676098Y-59206335D01*
X150676094Y-59206344D01*
X150614938Y-59434586D01*
X150614936Y-59434596D01*
X150594341Y-59669999D01*
X150594341Y-59670000D01*
X150614936Y-59905403D01*
X150614938Y-59905413D01*
X150676094Y-60133655D01*
X150676096Y-60133659D01*
X150676097Y-60133663D01*
X150755800Y-60304586D01*
X150775965Y-60347830D01*
X150775967Y-60347834D01*
X150834462Y-60431373D01*
X150911501Y-60541396D01*
X150911506Y-60541402D01*
X151078597Y-60708493D01*
X151078603Y-60708498D01*
X151264158Y-60838425D01*
X151307783Y-60893002D01*
X151314977Y-60962500D01*
X151283454Y-61024855D01*
X151264158Y-61041575D01*
X151078597Y-61171505D01*
X150911505Y-61338597D01*
X150775965Y-61532169D01*
X150775964Y-61532171D01*
X150676098Y-61746335D01*
X150676094Y-61746344D01*
X150614938Y-61974586D01*
X150614936Y-61974596D01*
X150594341Y-62209999D01*
X150594341Y-62210000D01*
X150614936Y-62445403D01*
X150614938Y-62445413D01*
X150676094Y-62673655D01*
X150676096Y-62673659D01*
X150676097Y-62673663D01*
X150755800Y-62844586D01*
X150775965Y-62887830D01*
X150775967Y-62887834D01*
X150834462Y-62971373D01*
X150911501Y-63081396D01*
X150911506Y-63081402D01*
X151078597Y-63248493D01*
X151078603Y-63248498D01*
X151264158Y-63378425D01*
X151307783Y-63433002D01*
X151314977Y-63502500D01*
X151283454Y-63564855D01*
X151264158Y-63581575D01*
X151078597Y-63711505D01*
X150911505Y-63878597D01*
X150775965Y-64072169D01*
X150775964Y-64072171D01*
X150676098Y-64286335D01*
X150676094Y-64286344D01*
X150614938Y-64514586D01*
X150614936Y-64514596D01*
X150594341Y-64749999D01*
X150594341Y-64750000D01*
X150614936Y-64985403D01*
X150614938Y-64985413D01*
X150676094Y-65213655D01*
X150676096Y-65213659D01*
X150676097Y-65213663D01*
X150755800Y-65384586D01*
X150775965Y-65427830D01*
X150775967Y-65427834D01*
X150834462Y-65511373D01*
X150911501Y-65621396D01*
X150911506Y-65621402D01*
X151078597Y-65788493D01*
X151078603Y-65788498D01*
X151264158Y-65918425D01*
X151307783Y-65973002D01*
X151314977Y-66042500D01*
X151283454Y-66104855D01*
X151264158Y-66121575D01*
X151078597Y-66251505D01*
X150911505Y-66418597D01*
X150775965Y-66612169D01*
X150775964Y-66612171D01*
X150676098Y-66826335D01*
X150676094Y-66826344D01*
X150614938Y-67054586D01*
X150614936Y-67054596D01*
X150594341Y-67289999D01*
X150594341Y-67290000D01*
X150614936Y-67525403D01*
X150614938Y-67525413D01*
X150676094Y-67753655D01*
X150676096Y-67753659D01*
X150676097Y-67753663D01*
X150755800Y-67924586D01*
X150775965Y-67967830D01*
X150775967Y-67967834D01*
X150834462Y-68051373D01*
X150911501Y-68161396D01*
X150911506Y-68161402D01*
X151078597Y-68328493D01*
X151078603Y-68328498D01*
X151264158Y-68458425D01*
X151307783Y-68513002D01*
X151314977Y-68582500D01*
X151283454Y-68644855D01*
X151264158Y-68661575D01*
X151078597Y-68791505D01*
X150911505Y-68958597D01*
X150775965Y-69152169D01*
X150775964Y-69152171D01*
X150676098Y-69366335D01*
X150676094Y-69366344D01*
X150614938Y-69594586D01*
X150614936Y-69594596D01*
X150594341Y-69829999D01*
X150594341Y-69830000D01*
X150614936Y-70065403D01*
X150614938Y-70065413D01*
X150676094Y-70293655D01*
X150676096Y-70293659D01*
X150676097Y-70293663D01*
X150755800Y-70464586D01*
X150775965Y-70507830D01*
X150775967Y-70507834D01*
X150834462Y-70591373D01*
X150911501Y-70701396D01*
X150911506Y-70701402D01*
X151078597Y-70868493D01*
X151078603Y-70868498D01*
X151264158Y-70998425D01*
X151307783Y-71053002D01*
X151314977Y-71122500D01*
X151283454Y-71184855D01*
X151264158Y-71201575D01*
X151078597Y-71331505D01*
X150911505Y-71498597D01*
X150775965Y-71692169D01*
X150775964Y-71692171D01*
X150676098Y-71906335D01*
X150676094Y-71906344D01*
X150614938Y-72134586D01*
X150614936Y-72134596D01*
X150594341Y-72369999D01*
X150594341Y-72370000D01*
X150614936Y-72605403D01*
X150614938Y-72605413D01*
X150676094Y-72833655D01*
X150676096Y-72833659D01*
X150676097Y-72833663D01*
X150755800Y-73004586D01*
X150775965Y-73047830D01*
X150775967Y-73047834D01*
X150834462Y-73131373D01*
X150911501Y-73241396D01*
X150911506Y-73241402D01*
X151078597Y-73408493D01*
X151078603Y-73408498D01*
X151264158Y-73538425D01*
X151307783Y-73593002D01*
X151314977Y-73662500D01*
X151283454Y-73724855D01*
X151264158Y-73741575D01*
X151078597Y-73871505D01*
X150911505Y-74038597D01*
X150775965Y-74232169D01*
X150775964Y-74232171D01*
X150676098Y-74446335D01*
X150676094Y-74446344D01*
X150614938Y-74674586D01*
X150614936Y-74674596D01*
X150594341Y-74909999D01*
X150594341Y-74910000D01*
X150614936Y-75145403D01*
X150614938Y-75145413D01*
X150676094Y-75373655D01*
X150676096Y-75373659D01*
X150676097Y-75373663D01*
X150755800Y-75544586D01*
X150775965Y-75587830D01*
X150775967Y-75587834D01*
X150834462Y-75671373D01*
X150911501Y-75781396D01*
X150911506Y-75781402D01*
X151078597Y-75948493D01*
X151078603Y-75948498D01*
X151264158Y-76078425D01*
X151307783Y-76133002D01*
X151314977Y-76202500D01*
X151283454Y-76264855D01*
X151264158Y-76281575D01*
X151078597Y-76411505D01*
X150911505Y-76578597D01*
X150775965Y-76772169D01*
X150775964Y-76772171D01*
X150676098Y-76986335D01*
X150676094Y-76986344D01*
X150614938Y-77214586D01*
X150614936Y-77214596D01*
X150594341Y-77449999D01*
X150594341Y-77450000D01*
X150614936Y-77685403D01*
X150614938Y-77685413D01*
X150676094Y-77913655D01*
X150676096Y-77913659D01*
X150676097Y-77913663D01*
X150755800Y-78084586D01*
X150775965Y-78127830D01*
X150775967Y-78127834D01*
X150834462Y-78211373D01*
X150911501Y-78321396D01*
X150911506Y-78321402D01*
X151078597Y-78488493D01*
X151078603Y-78488498D01*
X151264158Y-78618425D01*
X151307783Y-78673002D01*
X151314977Y-78742500D01*
X151283454Y-78804855D01*
X151264158Y-78821575D01*
X151078597Y-78951505D01*
X150911505Y-79118597D01*
X150775965Y-79312169D01*
X150775964Y-79312171D01*
X150676098Y-79526335D01*
X150676094Y-79526344D01*
X150614938Y-79754586D01*
X150614936Y-79754596D01*
X150594341Y-79989999D01*
X150594341Y-79990000D01*
X150614936Y-80225403D01*
X150614938Y-80225413D01*
X150676094Y-80453655D01*
X150676096Y-80453659D01*
X150676097Y-80453663D01*
X150755800Y-80624586D01*
X150775965Y-80667830D01*
X150775967Y-80667834D01*
X150834462Y-80751373D01*
X150911501Y-80861396D01*
X150911506Y-80861402D01*
X151078597Y-81028493D01*
X151078603Y-81028498D01*
X151264158Y-81158425D01*
X151307783Y-81213002D01*
X151314977Y-81282500D01*
X151283454Y-81344855D01*
X151264158Y-81361575D01*
X151078597Y-81491505D01*
X150911505Y-81658597D01*
X150775965Y-81852169D01*
X150775964Y-81852171D01*
X150676098Y-82066335D01*
X150676094Y-82066344D01*
X150614938Y-82294586D01*
X150614936Y-82294596D01*
X150594341Y-82529999D01*
X150594341Y-82530000D01*
X150614936Y-82765403D01*
X150614938Y-82765413D01*
X150676094Y-82993655D01*
X150676096Y-82993659D01*
X150676097Y-82993663D01*
X150755800Y-83164586D01*
X150775965Y-83207830D01*
X150775967Y-83207834D01*
X150834462Y-83291373D01*
X150911501Y-83401396D01*
X150911506Y-83401402D01*
X151078597Y-83568493D01*
X151078603Y-83568498D01*
X151264158Y-83698425D01*
X151307783Y-83753002D01*
X151314977Y-83822500D01*
X151283454Y-83884855D01*
X151264158Y-83901575D01*
X151078597Y-84031505D01*
X150911505Y-84198597D01*
X150775965Y-84392169D01*
X150775964Y-84392171D01*
X150676098Y-84606335D01*
X150676094Y-84606344D01*
X150614938Y-84834586D01*
X150614936Y-84834596D01*
X150594341Y-85069999D01*
X150594341Y-85070000D01*
X150614936Y-85305403D01*
X150614938Y-85305413D01*
X150676094Y-85533655D01*
X150676096Y-85533659D01*
X150676097Y-85533663D01*
X150755800Y-85704586D01*
X150775965Y-85747830D01*
X150775967Y-85747834D01*
X150834462Y-85831373D01*
X150911501Y-85941396D01*
X150911506Y-85941402D01*
X151078597Y-86108493D01*
X151078603Y-86108498D01*
X151264158Y-86238425D01*
X151307783Y-86293002D01*
X151314977Y-86362500D01*
X151283454Y-86424855D01*
X151264158Y-86441575D01*
X151078597Y-86571505D01*
X150911505Y-86738597D01*
X150775965Y-86932169D01*
X150775964Y-86932171D01*
X150676098Y-87146335D01*
X150676094Y-87146344D01*
X150614938Y-87374586D01*
X150614936Y-87374596D01*
X150594341Y-87609999D01*
X150594341Y-87610000D01*
X150614936Y-87845403D01*
X150614938Y-87845413D01*
X150676094Y-88073655D01*
X150676096Y-88073659D01*
X150676097Y-88073663D01*
X150755800Y-88244586D01*
X150775965Y-88287830D01*
X150775967Y-88287834D01*
X150834462Y-88371373D01*
X150911501Y-88481396D01*
X150911506Y-88481402D01*
X151078597Y-88648493D01*
X151078603Y-88648498D01*
X151264158Y-88778425D01*
X151307783Y-88833002D01*
X151314977Y-88902500D01*
X151283454Y-88964855D01*
X151264158Y-88981575D01*
X151078597Y-89111505D01*
X150911505Y-89278597D01*
X150775965Y-89472169D01*
X150775964Y-89472171D01*
X150676098Y-89686335D01*
X150676094Y-89686344D01*
X150614938Y-89914586D01*
X150614936Y-89914596D01*
X150594341Y-90149999D01*
X150594341Y-90150000D01*
X150614936Y-90385403D01*
X150614938Y-90385413D01*
X150676094Y-90613655D01*
X150676096Y-90613659D01*
X150676097Y-90613663D01*
X150755800Y-90784586D01*
X150775965Y-90827830D01*
X150775967Y-90827834D01*
X150834462Y-90911373D01*
X150911501Y-91021396D01*
X150911506Y-91021402D01*
X151078597Y-91188493D01*
X151078603Y-91188498D01*
X151264158Y-91318425D01*
X151307783Y-91373002D01*
X151314977Y-91442500D01*
X151283454Y-91504855D01*
X151264158Y-91521575D01*
X151078597Y-91651505D01*
X150911505Y-91818597D01*
X150775965Y-92012169D01*
X150775964Y-92012171D01*
X150676098Y-92226335D01*
X150676094Y-92226344D01*
X150614938Y-92454586D01*
X150614936Y-92454596D01*
X150594341Y-92689999D01*
X150594341Y-92690000D01*
X150614936Y-92925403D01*
X150614938Y-92925413D01*
X150676094Y-93153655D01*
X150676096Y-93153659D01*
X150676097Y-93153663D01*
X150755800Y-93324586D01*
X150775965Y-93367830D01*
X150775967Y-93367834D01*
X150834462Y-93451373D01*
X150911501Y-93561396D01*
X150911506Y-93561402D01*
X151078597Y-93728493D01*
X151078603Y-93728498D01*
X151264158Y-93858425D01*
X151307783Y-93913002D01*
X151314977Y-93982500D01*
X151283454Y-94044855D01*
X151264158Y-94061575D01*
X151078597Y-94191505D01*
X150911505Y-94358597D01*
X150775965Y-94552169D01*
X150775964Y-94552171D01*
X150676098Y-94766335D01*
X150676094Y-94766344D01*
X150614938Y-94994586D01*
X150614936Y-94994596D01*
X150594341Y-95229999D01*
X150594341Y-95230000D01*
X150614936Y-95465403D01*
X150614938Y-95465413D01*
X150676094Y-95693655D01*
X150676096Y-95693659D01*
X150676097Y-95693663D01*
X150755800Y-95864586D01*
X150775965Y-95907830D01*
X150775967Y-95907834D01*
X150884281Y-96062521D01*
X150911501Y-96101396D01*
X150911506Y-96101402D01*
X151078597Y-96268493D01*
X151078603Y-96268498D01*
X151264158Y-96398425D01*
X151307783Y-96453002D01*
X151314977Y-96522500D01*
X151283454Y-96584855D01*
X151264158Y-96601575D01*
X151078597Y-96731505D01*
X150911505Y-96898597D01*
X150775965Y-97092169D01*
X150775964Y-97092171D01*
X150676098Y-97306335D01*
X150676094Y-97306344D01*
X150614938Y-97534586D01*
X150614936Y-97534596D01*
X150594341Y-97769999D01*
X150594341Y-97770000D01*
X150614936Y-98005403D01*
X150614938Y-98005413D01*
X150676094Y-98233655D01*
X150676096Y-98233659D01*
X150676097Y-98233663D01*
X150755800Y-98404586D01*
X150775965Y-98447830D01*
X150775967Y-98447834D01*
X150834462Y-98531373D01*
X150911501Y-98641396D01*
X150911506Y-98641402D01*
X151078597Y-98808493D01*
X151078603Y-98808498D01*
X151264158Y-98938425D01*
X151307783Y-98993002D01*
X151314977Y-99062500D01*
X151283454Y-99124855D01*
X151264158Y-99141575D01*
X151078597Y-99271505D01*
X150911505Y-99438597D01*
X150775965Y-99632169D01*
X150775964Y-99632171D01*
X150676098Y-99846335D01*
X150676094Y-99846344D01*
X150614938Y-100074586D01*
X150614936Y-100074596D01*
X150594341Y-100309999D01*
X150594341Y-100310000D01*
X122601511Y-100310000D01*
X122601511Y-96650001D01*
X123119532Y-96650001D01*
X123139364Y-96876686D01*
X123139366Y-96876697D01*
X123198258Y-97096488D01*
X123198261Y-97096497D01*
X123294431Y-97302732D01*
X123294432Y-97302734D01*
X123424954Y-97489141D01*
X123585858Y-97650045D01*
X123585861Y-97650047D01*
X123772266Y-97780568D01*
X123978504Y-97876739D01*
X124198308Y-97935635D01*
X124360230Y-97949801D01*
X124424998Y-97955468D01*
X124425000Y-97955468D01*
X124425002Y-97955468D01*
X124481672Y-97950509D01*
X124651692Y-97935635D01*
X124871496Y-97876739D01*
X125077734Y-97780568D01*
X125264139Y-97650047D01*
X125425047Y-97489139D01*
X125555568Y-97302734D01*
X125651739Y-97096496D01*
X125710635Y-96876692D01*
X125730468Y-96650000D01*
X125730468Y-96649999D01*
X143369417Y-96649999D01*
X143389699Y-96855932D01*
X143402642Y-96898599D01*
X143449768Y-97053954D01*
X143547315Y-97236450D01*
X143547317Y-97236452D01*
X143678589Y-97396410D01*
X143775209Y-97475702D01*
X143838550Y-97527685D01*
X144021046Y-97625232D01*
X144219066Y-97685300D01*
X144219065Y-97685300D01*
X144239348Y-97687297D01*
X144425000Y-97705583D01*
X144630934Y-97685300D01*
X144828954Y-97625232D01*
X145011450Y-97527685D01*
X145171410Y-97396410D01*
X145302685Y-97236450D01*
X145400232Y-97053954D01*
X145460300Y-96855934D01*
X145480583Y-96650000D01*
X145460300Y-96444066D01*
X145400232Y-96246046D01*
X145302685Y-96063550D01*
X145243451Y-95991373D01*
X145171410Y-95903589D01*
X145011452Y-95772317D01*
X145011453Y-95772317D01*
X145011450Y-95772315D01*
X144828954Y-95674768D01*
X144630934Y-95614700D01*
X144630932Y-95614699D01*
X144630934Y-95614699D01*
X144425000Y-95594417D01*
X144219067Y-95614699D01*
X144021043Y-95674769D01*
X143917715Y-95730000D01*
X143838550Y-95772315D01*
X143838548Y-95772316D01*
X143838547Y-95772317D01*
X143678589Y-95903589D01*
X143547317Y-96063547D01*
X143449769Y-96246043D01*
X143389699Y-96444067D01*
X143369417Y-96649999D01*
X125730468Y-96649999D01*
X125710635Y-96423308D01*
X125651739Y-96203504D01*
X125555568Y-95997266D01*
X125425047Y-95810861D01*
X125425045Y-95810858D01*
X125264141Y-95649954D01*
X125077734Y-95519432D01*
X125077732Y-95519431D01*
X124871497Y-95423261D01*
X124871488Y-95423258D01*
X124651697Y-95364366D01*
X124651693Y-95364365D01*
X124651692Y-95364365D01*
X124651691Y-95364364D01*
X124651686Y-95364364D01*
X124425002Y-95344532D01*
X124424998Y-95344532D01*
X124198313Y-95364364D01*
X124198302Y-95364366D01*
X123978511Y-95423258D01*
X123978502Y-95423261D01*
X123772267Y-95519431D01*
X123772265Y-95519432D01*
X123585858Y-95649954D01*
X123424954Y-95810858D01*
X123294432Y-95997265D01*
X123294431Y-95997267D01*
X123198261Y-96203502D01*
X123198258Y-96203511D01*
X123139366Y-96423302D01*
X123139364Y-96423313D01*
X123119532Y-96649998D01*
X123119532Y-96650001D01*
X122601511Y-96650001D01*
X122601511Y-57075005D01*
X132045254Y-57075005D01*
X132064215Y-57376383D01*
X132064216Y-57376390D01*
X132120805Y-57673040D01*
X132214125Y-57960247D01*
X132214127Y-57960252D01*
X132342704Y-58233491D01*
X132342707Y-58233497D01*
X132504513Y-58488464D01*
X132585312Y-58586133D01*
X133514210Y-57657234D01*
X133614894Y-57798624D01*
X133766932Y-57943592D01*
X133869222Y-58009329D01*
X132936564Y-58941986D01*
X133161474Y-59105393D01*
X133161485Y-59105400D01*
X133426109Y-59250878D01*
X133426117Y-59250882D01*
X133706889Y-59362047D01*
X133706892Y-59362048D01*
X133999399Y-59437150D01*
X134298995Y-59474999D01*
X134299007Y-59475000D01*
X134600993Y-59475000D01*
X134601004Y-59474999D01*
X134900600Y-59437150D01*
X135193107Y-59362048D01*
X135193110Y-59362047D01*
X135473882Y-59250882D01*
X135473890Y-59250878D01*
X135738514Y-59105400D01*
X135738525Y-59105393D01*
X135963433Y-58941986D01*
X135963434Y-58941986D01*
X135033306Y-58011859D01*
X135047410Y-58004589D01*
X135212540Y-57874729D01*
X135350110Y-57715965D01*
X135384665Y-57656112D01*
X136314686Y-58586133D01*
X136395483Y-58488469D01*
X136557292Y-58233497D01*
X136557295Y-58233491D01*
X136685872Y-57960252D01*
X136685874Y-57960247D01*
X136779194Y-57673040D01*
X136835783Y-57376390D01*
X136835784Y-57376383D01*
X136854745Y-57075005D01*
X136854745Y-57074994D01*
X136835784Y-56773616D01*
X136835783Y-56773609D01*
X136779194Y-56476959D01*
X136685874Y-56189752D01*
X136685872Y-56189747D01*
X136557295Y-55916508D01*
X136557292Y-55916502D01*
X136395486Y-55661535D01*
X136314685Y-55563864D01*
X135385787Y-56492762D01*
X135285106Y-56351376D01*
X135133068Y-56206408D01*
X135030776Y-56140669D01*
X135963434Y-55208012D01*
X135738530Y-55044609D01*
X135738520Y-55044602D01*
X135473890Y-54899121D01*
X135473882Y-54899117D01*
X135193110Y-54787952D01*
X135193107Y-54787951D01*
X134900600Y-54712849D01*
X134601004Y-54675000D01*
X134298995Y-54675000D01*
X133999399Y-54712849D01*
X133706892Y-54787951D01*
X133706889Y-54787952D01*
X133426117Y-54899117D01*
X133426109Y-54899121D01*
X133161479Y-55044602D01*
X133161461Y-55044614D01*
X132936565Y-55208010D01*
X132936564Y-55208012D01*
X133866693Y-56138140D01*
X133852590Y-56145411D01*
X133687460Y-56275271D01*
X133549890Y-56434035D01*
X133515334Y-56493886D01*
X132585312Y-55563864D01*
X132504516Y-55661530D01*
X132342707Y-55916502D01*
X132342704Y-55916508D01*
X132214127Y-56189747D01*
X132214125Y-56189752D01*
X132120805Y-56476959D01*
X132064216Y-56773609D01*
X132064215Y-56773616D01*
X132045254Y-57074994D01*
X132045254Y-57075005D01*
X122601511Y-57075005D01*
X122601511Y-44825026D01*
X122601570Y-44822321D01*
X122604728Y-44750000D01*
X123945197Y-44750000D01*
X123964397Y-45116353D01*
X124021784Y-45478684D01*
X124021784Y-45478686D01*
X124116736Y-45833051D01*
X124248204Y-46175535D01*
X124414754Y-46502406D01*
X124614549Y-46810064D01*
X124803297Y-47043147D01*
X126226389Y-45620056D01*
X126342632Y-45769404D01*
X126525523Y-45937768D01*
X126580116Y-45973435D01*
X125156851Y-47396701D01*
X125389935Y-47585450D01*
X125697593Y-47785245D01*
X126024464Y-47951795D01*
X126366948Y-48083263D01*
X126721314Y-48178215D01*
X127083646Y-48235602D01*
X127449999Y-48254803D01*
X127450001Y-48254803D01*
X127816353Y-48235602D01*
X128178684Y-48178215D01*
X128178686Y-48178215D01*
X128533051Y-48083263D01*
X128875535Y-47951795D01*
X129202406Y-47785245D01*
X129510065Y-47585450D01*
X129743148Y-47396702D01*
X129743148Y-47396701D01*
X128319883Y-45973435D01*
X128374477Y-45937768D01*
X128557368Y-45769404D01*
X128673610Y-45620057D01*
X130096701Y-47043148D01*
X130096702Y-47043148D01*
X130285450Y-46810065D01*
X130485245Y-46502406D01*
X130651795Y-46175535D01*
X130783263Y-45833051D01*
X130878215Y-45478686D01*
X130878215Y-45478684D01*
X130935602Y-45116353D01*
X130954803Y-44750000D01*
X147945197Y-44750000D01*
X147964397Y-45116353D01*
X148021784Y-45478684D01*
X148021784Y-45478686D01*
X148116736Y-45833051D01*
X148248204Y-46175535D01*
X148414754Y-46502406D01*
X148614549Y-46810064D01*
X148803297Y-47043147D01*
X150226389Y-45620056D01*
X150342632Y-45769404D01*
X150525523Y-45937768D01*
X150580116Y-45973435D01*
X149156851Y-47396701D01*
X149389935Y-47585450D01*
X149697593Y-47785245D01*
X150024464Y-47951795D01*
X150366948Y-48083263D01*
X150721314Y-48178215D01*
X151083646Y-48235602D01*
X151449999Y-48254803D01*
X151450001Y-48254803D01*
X151816353Y-48235602D01*
X152178684Y-48178215D01*
X152178686Y-48178215D01*
X152533051Y-48083263D01*
X152875535Y-47951795D01*
X153202406Y-47785245D01*
X153510065Y-47585450D01*
X153743148Y-47396702D01*
X153743148Y-47396701D01*
X152319883Y-45973435D01*
X152374477Y-45937768D01*
X152557368Y-45769404D01*
X152673610Y-45620057D01*
X154096701Y-47043148D01*
X154096702Y-47043148D01*
X154285450Y-46810065D01*
X154485245Y-46502406D01*
X154651795Y-46175535D01*
X154783263Y-45833051D01*
X154878215Y-45478686D01*
X154878215Y-45478684D01*
X154935602Y-45116353D01*
X154954803Y-44750000D01*
X154954803Y-44749999D01*
X154935602Y-44383646D01*
X154878215Y-44021315D01*
X154878215Y-44021313D01*
X154783263Y-43666948D01*
X154651795Y-43324464D01*
X154485245Y-42997594D01*
X154285450Y-42689935D01*
X154096701Y-42456851D01*
X152673609Y-43879942D01*
X152557368Y-43730596D01*
X152374477Y-43562232D01*
X152319882Y-43526563D01*
X153743148Y-42103297D01*
X153510064Y-41914549D01*
X153202406Y-41714754D01*
X152875535Y-41548204D01*
X152533051Y-41416736D01*
X152178685Y-41321784D01*
X151816353Y-41264397D01*
X151450001Y-41245197D01*
X151449999Y-41245197D01*
X151083646Y-41264397D01*
X150721315Y-41321784D01*
X150721313Y-41321784D01*
X150366948Y-41416736D01*
X150024464Y-41548204D01*
X149697594Y-41714754D01*
X149389929Y-41914553D01*
X149156851Y-42103297D01*
X150580117Y-43526563D01*
X150525523Y-43562232D01*
X150342632Y-43730596D01*
X150226389Y-43879943D01*
X148803297Y-42456851D01*
X148614553Y-42689929D01*
X148414754Y-42997594D01*
X148248204Y-43324464D01*
X148116736Y-43666948D01*
X148021784Y-44021313D01*
X148021784Y-44021315D01*
X147964397Y-44383646D01*
X147945197Y-44749999D01*
X147945197Y-44750000D01*
X130954803Y-44750000D01*
X130954803Y-44749999D01*
X130935602Y-44383646D01*
X130878215Y-44021315D01*
X130878215Y-44021313D01*
X130783263Y-43666948D01*
X130651795Y-43324464D01*
X130485245Y-42997594D01*
X130285450Y-42689935D01*
X130096701Y-42456851D01*
X128673609Y-43879942D01*
X128557368Y-43730596D01*
X128374477Y-43562232D01*
X128319882Y-43526563D01*
X129743148Y-42103297D01*
X129510064Y-41914549D01*
X129202406Y-41714754D01*
X128875535Y-41548204D01*
X128533051Y-41416736D01*
X128178685Y-41321784D01*
X127816353Y-41264397D01*
X127450001Y-41245197D01*
X127449999Y-41245197D01*
X127083646Y-41264397D01*
X126721315Y-41321784D01*
X126721313Y-41321784D01*
X126366948Y-41416736D01*
X126024464Y-41548204D01*
X125697594Y-41714754D01*
X125389929Y-41914553D01*
X125156851Y-42103297D01*
X126580117Y-43526563D01*
X126525523Y-43562232D01*
X126342632Y-43730596D01*
X126226389Y-43879943D01*
X124803297Y-42456851D01*
X124614553Y-42689929D01*
X124414754Y-42997594D01*
X124248204Y-43324464D01*
X124116736Y-43666948D01*
X124021784Y-44021313D01*
X124021784Y-44021315D01*
X123964397Y-44383646D01*
X123945197Y-44749999D01*
X123945197Y-44750000D01*
X122604728Y-44750000D01*
X122610039Y-44628395D01*
X122620648Y-44398941D01*
X122621109Y-44393739D01*
X122648913Y-44182563D01*
X122678665Y-43969302D01*
X122679530Y-43964504D01*
X122726227Y-43753878D01*
X122774966Y-43546669D01*
X122776175Y-43542267D01*
X122841435Y-43335295D01*
X122908768Y-43134410D01*
X122910264Y-43130413D01*
X122993347Y-42929835D01*
X122993823Y-42928724D01*
X123079008Y-42735804D01*
X123080694Y-42732294D01*
X123181107Y-42539406D01*
X123181835Y-42538055D01*
X123284275Y-42354141D01*
X123286106Y-42351069D01*
X123403051Y-42167504D01*
X123404119Y-42165888D01*
X123522976Y-41992380D01*
X123524859Y-41989784D01*
X123657473Y-41816961D01*
X123658785Y-41815317D01*
X123793121Y-41653543D01*
X123795011Y-41651375D01*
X123942182Y-41490766D01*
X123943926Y-41488944D01*
X124092592Y-41340278D01*
X124094441Y-41338509D01*
X124255035Y-41191352D01*
X124257221Y-41189446D01*
X124418972Y-41055129D01*
X124420648Y-41053791D01*
X124593441Y-40921202D01*
X124596063Y-40919301D01*
X124769587Y-40800433D01*
X124771162Y-40799392D01*
X124954726Y-40682448D01*
X124957785Y-40680624D01*
X125141726Y-40578169D01*
X125143118Y-40577419D01*
X125335960Y-40477031D01*
X125339451Y-40475353D01*
X125532389Y-40390161D01*
X125533532Y-40389672D01*
X125734102Y-40306592D01*
X125738049Y-40305115D01*
X125938963Y-40237773D01*
X126145931Y-40172515D01*
X126150348Y-40171300D01*
X126357478Y-40122581D01*
X126568158Y-40075872D01*
X126572972Y-40075003D01*
X126786290Y-40045244D01*
X126997399Y-40017449D01*
X127002606Y-40016988D01*
X127230797Y-40006434D01*
X127410888Y-39998569D01*
X127426104Y-39997905D01*
X127428809Y-39997846D01*
X151375984Y-39997846D01*
X151378689Y-39997905D01*
G37*
%TD.AperFunction*%
%TD*%
M02*
