M48
; DRILL file {KiCad 7.0.5-0} date 2023 July 31, Monday 21:54:10
; FORMAT={-:-/ absolute / inch / decimal}
; #@! TF.CreationDate,2023-07-31T21:54:10-04:00
; #@! TF.GenerationSoftware,Kicad,Pcbnew,7.0.5-0
; #@! TF.FileFunction,Plated,1,4,PTH
FMAT,2
INCH
; #@! TA.AperFunction,Plated,PTH,ComponentDrill
T1C0.0394
; #@! TA.AperFunction,Plated,PTH,ComponentDrill
T2C0.0433
; #@! TA.AperFunction,Plated,PTH,ComponentDrill
T3C0.0630
; #@! TA.AperFunction,Plated,PTH,ComponentDrill
T4C0.0866
; #@! TA.AperFunction,Plated,PTH,ComponentDrill
T5C0.1181
%
G90
G05
T1
X5.9823Y-2.0492
X5.9823Y-2.1492
X5.9823Y-2.2492
X5.9823Y-2.3492
X5.9823Y-2.4492
X5.9823Y-2.5492
X5.9823Y-2.6492
X5.9823Y-2.7492
X5.9823Y-2.8492
X5.9823Y-2.9492
X5.9823Y-3.0492
X5.9823Y-3.1492
X5.9823Y-3.2492
X5.9823Y-3.3492
X5.9823Y-3.4492
X5.9823Y-3.5492
X5.9823Y-3.6492
X5.9823Y-3.7492
X5.9823Y-3.8492
X5.9823Y-3.9492
X6.0823Y-2.0492
X6.0823Y-2.1492
X6.0823Y-2.2492
X6.0823Y-2.3492
X6.0823Y-2.4492
X6.0823Y-2.5492
X6.0823Y-2.6492
X6.0823Y-2.7492
X6.0823Y-2.8492
X6.0823Y-2.9492
X6.0823Y-3.0492
X6.0823Y-3.1492
X6.0823Y-3.2492
X6.0823Y-3.3492
X6.0823Y-3.4492
X6.0823Y-3.5492
X6.0823Y-3.6492
X6.0823Y-3.7492
X6.0823Y-3.8492
X6.0823Y-3.9492
T2
X5.686Y-3.8051
T3
X4.8986Y-3.8051
T4
X5.2933Y-2.247
T5
X5.0177Y-1.7618
X5.0177Y-4.2421
X5.9626Y-1.7618
X5.9626Y-4.2421
T0
M30
