%TF.GenerationSoftware,KiCad,Pcbnew,7.0.5-0*%
%TF.CreationDate,2023-07-31T21:54:07-04:00*%
%TF.ProjectId,carrier-hp,63617272-6965-4722-9d68-702e6b696361,rev?*%
%TF.SameCoordinates,Original*%
%TF.FileFunction,Soldermask,Bot*%
%TF.FilePolarity,Negative*%
%FSLAX46Y46*%
G04 Gerber Fmt 4.6, Leading zero omitted, Abs format (unit mm)*
G04 Created by KiCad (PCBNEW 7.0.5-0) date 2023-07-31 21:54:07*
%MOMM*%
%LPD*%
G01*
G04 APERTURE LIST*
G04 Aperture macros list*
%AMRoundRect*
0 Rectangle with rounded corners*
0 $1 Rounding radius*
0 $2 $3 $4 $5 $6 $7 $8 $9 X,Y pos of 4 corners*
0 Add a 4 corners polygon primitive as box body*
4,1,4,$2,$3,$4,$5,$6,$7,$8,$9,$2,$3,0*
0 Add four circle primitives for the rounded corners*
1,1,$1+$1,$2,$3*
1,1,$1+$1,$4,$5*
1,1,$1+$1,$6,$7*
1,1,$1+$1,$8,$9*
0 Add four rect primitives between the rounded corners*
20,1,$1+$1,$2,$3,$4,$5,0*
20,1,$1+$1,$4,$5,$6,$7,0*
20,1,$1+$1,$6,$7,$8,$9,0*
20,1,$1+$1,$8,$9,$2,$3,0*%
G04 Aperture macros list end*
%ADD10C,6.000000*%
%ADD11C,1.100000*%
%ADD12C,1.600000*%
%ADD13RoundRect,0.250000X-0.600000X-0.600000X0.600000X-0.600000X0.600000X0.600000X-0.600000X0.600000X0*%
%ADD14C,1.700000*%
%ADD15C,3.800000*%
G04 APERTURE END LIST*
D10*
%TO.C,H104*%
X127450000Y-107750000D03*
%TD*%
%TO.C,H102*%
X151450000Y-44750000D03*
%TD*%
D11*
%TO.C,CN101*%
X144425000Y-96650000D03*
D12*
X124425000Y-96650000D03*
%TD*%
D13*
%TO.C,J101*%
X151950000Y-52050000D03*
D14*
X154490000Y-52050000D03*
X151950000Y-54590000D03*
X154490000Y-54590000D03*
X151950000Y-57130000D03*
X154490000Y-57130000D03*
X151950000Y-59670000D03*
X154490000Y-59670000D03*
X151950000Y-62210000D03*
X154490000Y-62210000D03*
X151950000Y-64750000D03*
X154490000Y-64750000D03*
X151950000Y-67290000D03*
X154490000Y-67290000D03*
X151950000Y-69830000D03*
X154490000Y-69830000D03*
X151950000Y-72370000D03*
X154490000Y-72370000D03*
X151950000Y-74910000D03*
X154490000Y-74910000D03*
X151950000Y-77450000D03*
X154490000Y-77450000D03*
X151950000Y-79990000D03*
X154490000Y-79990000D03*
X151950000Y-82530000D03*
X154490000Y-82530000D03*
X151950000Y-85070000D03*
X154490000Y-85070000D03*
X151950000Y-87610000D03*
X154490000Y-87610000D03*
X151950000Y-90150000D03*
X154490000Y-90150000D03*
X151950000Y-92690000D03*
X154490000Y-92690000D03*
X151950000Y-95230000D03*
X154490000Y-95230000D03*
X151950000Y-97770000D03*
X154490000Y-97770000D03*
X151950000Y-100310000D03*
X154490000Y-100310000D03*
%TD*%
D10*
%TO.C,H103*%
X151450000Y-107750000D03*
%TD*%
D15*
%TO.C,H105*%
X134450000Y-57075000D03*
%TD*%
D10*
%TO.C,H101*%
X127450000Y-44750000D03*
%TD*%
M02*
